<?xml version="1.0" encoding="UTF-8" standalone="no"?><svg xmlns="http://www.w3.org/2000/svg" xmlns:xlink="http://www.w3.org/1999/xlink" contentStyleType="text/css" height="650px" preserveAspectRatio="none" style="width:419px;height:650px;background:#FFFFFF;" version="1.1" viewBox="0 0 419 650" width="419px" zoomAndPan="magnify"><defs/><g><!--MD5=[2cb47ba637a0d19583e6199456f6ad0b]
class Player--><g id="elem_Player"><rect codeLine="2" fill="#F1F1F1" height="100.8281" id="Player" rx="2.5" ry="2.5" style="stroke:#181818;stroke-width:0.5;" width="122" x="150.5" y="399"/><ellipse cx="188" cy="415" fill="#ADD1B2" rx="11" ry="11" style="stroke:#181818;stroke-width:1.0;"/><path d="M190.7656,410.875 Q190.9219,410.6563 191.1094,410.5469 Q191.2969,410.4375 191.5156,410.4375 Q191.8906,410.4375 192.125,410.7031 Q192.3594,410.9531 192.3594,411.5625 L192.3594,413.0156 Q192.3594,413.625 192.125,413.8906 Q191.8906,414.1563 191.5156,414.1563 Q191.1719,414.1563 190.9688,413.9531 Q190.7656,413.7656 190.6563,413.25 Q190.6094,412.8906 190.4219,412.7031 Q190.0938,412.3281 189.4844,412.1094 Q188.875,411.8906 188.25,411.8906 Q187.4844,411.8906 186.8438,412.2188 Q186.2188,412.5469 185.7188,413.2969 Q185.2344,414.0469 185.2344,415.0781 L185.2344,416.1719 Q185.2344,417.4063 186.125,418.2344 Q187.0156,419.0469 188.6094,419.0469 Q189.5469,419.0469 190.2031,418.7969 Q190.5938,418.6406 191.0156,418.2031 Q191.2813,417.9375 191.4219,417.8594 Q191.5781,417.7813 191.7813,417.7813 Q192.1094,417.7813 192.3594,418.0469 Q192.625,418.2969 192.625,418.6406 Q192.625,418.9844 192.2813,419.3906 Q191.7813,419.9688 190.9844,420.2969 Q189.9063,420.75 188.6094,420.75 Q187.0938,420.75 185.8906,420.125 Q184.9063,419.625 184.2188,418.5625 Q183.5313,417.4844 183.5313,416.2031 L183.5313,415.0469 Q183.5313,413.7188 184.1406,412.5781 Q184.7656,411.4219 185.8594,410.8125 Q186.9531,410.1875 188.1875,410.1875 Q188.9219,410.1875 189.5625,410.3594 Q190.2188,410.5156 190.7656,410.875 Z " fill="#000000"/><text fill="#000000" font-family="sans-serif" font-size="14" lengthAdjust="spacing" textLength="40" x="207" y="420.7285">Player</text><line style="stroke:#181818;stroke-width:0.5;" x1="151.5" x2="271.5" y1="431" y2="431"/><text fill="#000000" font-family="sans-serif" font-size="14" lengthAdjust="spacing" textLength="78" x="156.5" y="449.5332">idPlayer : int</text><text fill="#000000" font-family="sans-serif" font-size="14" lengthAdjust="spacing" textLength="84" x="156.5" y="467.1426">name : String</text><text fill="#000000" font-family="sans-serif" font-size="14" lengthAdjust="spacing" textLength="110" x="156.5" y="484.752">idTypePlayer : int</text><line style="stroke:#181818;stroke-width:0.5;" x1="151.5" x2="271.5" y1="491.8281" y2="491.8281"/></g><!--MD5=[d75b0a238b734941260681f0026bbb88]
class Round--><g id="elem_Round"><rect codeLine="7" fill="#F1F1F1" height="153.6563" id="Round" rx="2.5" ry="2.5" style="stroke:#181818;stroke-width:0.5;" width="139" x="142" y="185"/><ellipse cx="186.25" cy="201" fill="#ADD1B2" rx="11" ry="11" style="stroke:#181818;stroke-width:1.0;"/><path d="M189.0156,196.875 Q189.1719,196.6563 189.3594,196.5469 Q189.5469,196.4375 189.7656,196.4375 Q190.1406,196.4375 190.375,196.7031 Q190.6094,196.9531 190.6094,197.5625 L190.6094,199.0156 Q190.6094,199.625 190.375,199.8906 Q190.1406,200.1563 189.7656,200.1563 Q189.4219,200.1563 189.2188,199.9531 Q189.0156,199.7656 188.9063,199.25 Q188.8594,198.8906 188.6719,198.7031 Q188.3438,198.3281 187.7344,198.1094 Q187.125,197.8906 186.5,197.8906 Q185.7344,197.8906 185.0938,198.2188 Q184.4688,198.5469 183.9688,199.2969 Q183.4844,200.0469 183.4844,201.0781 L183.4844,202.1719 Q183.4844,203.4063 184.375,204.2344 Q185.2656,205.0469 186.8594,205.0469 Q187.7969,205.0469 188.4531,204.7969 Q188.8438,204.6406 189.2656,204.2031 Q189.5313,203.9375 189.6719,203.8594 Q189.8281,203.7813 190.0313,203.7813 Q190.3594,203.7813 190.6094,204.0469 Q190.875,204.2969 190.875,204.6406 Q190.875,204.9844 190.5313,205.3906 Q190.0313,205.9688 189.2344,206.2969 Q188.1563,206.75 186.8594,206.75 Q185.3438,206.75 184.1406,206.125 Q183.1563,205.625 182.4688,204.5625 Q181.7813,203.4844 181.7813,202.2031 L181.7813,201.0469 Q181.7813,199.7188 182.3906,198.5781 Q183.0156,197.4219 184.1094,196.8125 Q185.2031,196.1875 186.4375,196.1875 Q187.1719,196.1875 187.8125,196.3594 Q188.4688,196.5156 189.0156,196.875 Z " fill="#000000"/><text fill="#000000" font-family="sans-serif" font-size="14" lengthAdjust="spacing" textLength="42" x="206.75" y="206.7285">Round</text><line style="stroke:#181818;stroke-width:0.5;" x1="143" x2="280" y1="217" y2="217"/><text fill="#000000" font-family="sans-serif" font-size="14" lengthAdjust="spacing" textLength="80" x="148" y="235.5332">idRound : int</text><text fill="#000000" font-family="sans-serif" font-size="14" lengthAdjust="spacing" textLength="111" x="148" y="253.1426">idPlayer 1: Player</text><text fill="#000000" font-family="sans-serif" font-size="14" lengthAdjust="spacing" textLength="111" x="148" y="270.752">idPlayer 2: Player</text><text fill="#000000" font-family="sans-serif" font-size="14" lengthAdjust="spacing" textLength="108" x="148" y="288.3613">idWinner : Player</text><text fill="#000000" font-family="sans-serif" font-size="14" lengthAdjust="spacing" textLength="127" x="148" y="305.9707">isFinished : boolean</text><text fill="#000000" font-family="sans-serif" font-size="14" lengthAdjust="spacing" textLength="76" x="148" y="323.5801">idGame : int</text><line style="stroke:#181818;stroke-width:0.5;" x1="143" x2="280" y1="330.6563" y2="330.6563"/></g><!--MD5=[ace3e6c11b8886c1ad6e132e1e690d2d]
class TypePlayer--><g id="elem_TypePlayer"><rect codeLine="15" fill="#F1F1F1" height="83.2188" id="TypePlayer" rx="2.5" ry="2.5" style="stroke:#181818;stroke-width:0.5;" width="122" x="150.5" y="560"/><ellipse cx="173.6" cy="576" fill="#ADD1B2" rx="11" ry="11" style="stroke:#181818;stroke-width:1.0;"/><path d="M176.3656,571.875 Q176.5219,571.6563 176.7094,571.5469 Q176.8969,571.4375 177.1156,571.4375 Q177.4906,571.4375 177.725,571.7031 Q177.9594,571.9531 177.9594,572.5625 L177.9594,574.0156 Q177.9594,574.625 177.725,574.8906 Q177.4906,575.1563 177.1156,575.1563 Q176.7719,575.1563 176.5688,574.9531 Q176.3656,574.7656 176.2563,574.25 Q176.2094,573.8906 176.0219,573.7031 Q175.6938,573.3281 175.0844,573.1094 Q174.475,572.8906 173.85,572.8906 Q173.0844,572.8906 172.4438,573.2188 Q171.8188,573.5469 171.3188,574.2969 Q170.8344,575.0469 170.8344,576.0781 L170.8344,577.1719 Q170.8344,578.4063 171.725,579.2344 Q172.6156,580.0469 174.2094,580.0469 Q175.1469,580.0469 175.8031,579.7969 Q176.1938,579.6406 176.6156,579.2031 Q176.8813,578.9375 177.0219,578.8594 Q177.1781,578.7813 177.3813,578.7813 Q177.7094,578.7813 177.9594,579.0469 Q178.225,579.2969 178.225,579.6406 Q178.225,579.9844 177.8813,580.3906 Q177.3813,580.9688 176.5844,581.2969 Q175.5063,581.75 174.2094,581.75 Q172.6938,581.75 171.4906,581.125 Q170.5063,580.625 169.8188,579.5625 Q169.1313,578.4844 169.1313,577.2031 L169.1313,576.0469 Q169.1313,574.7188 169.7406,573.5781 Q170.3656,572.4219 171.4594,571.8125 Q172.5531,571.1875 173.7875,571.1875 Q174.5219,571.1875 175.1625,571.3594 Q175.8188,571.5156 176.3656,571.875 Z " fill="#000000"/><text fill="#000000" font-family="sans-serif" font-size="14" lengthAdjust="spacing" textLength="72" x="189.4" y="581.7285">TypePlayer</text><line style="stroke:#181818;stroke-width:0.5;" x1="151.5" x2="271.5" y1="592" y2="592"/><text fill="#000000" font-family="sans-serif" font-size="14" lengthAdjust="spacing" textLength="110" x="156.5" y="610.5332">idTypePlayer : int</text><text fill="#000000" font-family="sans-serif" font-size="14" lengthAdjust="spacing" textLength="80" x="156.5" y="628.1426">name: String</text><line style="stroke:#181818;stroke-width:0.5;" x1="151.5" x2="271.5" y1="635.2188" y2="635.2188"/></g><!--MD5=[e05bacf3ff4416a0580578814d41bbf6]
class Piece--><g id="elem_Piece"><rect codeLine="19" fill="#F1F1F1" height="83.2188" id="Piece" rx="2.5" ry="2.5" style="stroke:#181818;stroke-width:0.5;" width="96" x="316.5" y="220.5"/><ellipse cx="344.55" cy="236.5" fill="#ADD1B2" rx="11" ry="11" style="stroke:#181818;stroke-width:1.0;"/><path d="M347.3156,232.375 Q347.4719,232.1563 347.6594,232.0469 Q347.8469,231.9375 348.0656,231.9375 Q348.4406,231.9375 348.675,232.2031 Q348.9094,232.4531 348.9094,233.0625 L348.9094,234.5156 Q348.9094,235.125 348.675,235.3906 Q348.4406,235.6563 348.0656,235.6563 Q347.7219,235.6563 347.5188,235.4531 Q347.3156,235.2656 347.2063,234.75 Q347.1594,234.3906 346.9719,234.2031 Q346.6438,233.8281 346.0344,233.6094 Q345.425,233.3906 344.8,233.3906 Q344.0344,233.3906 343.3938,233.7188 Q342.7688,234.0469 342.2688,234.7969 Q341.7844,235.5469 341.7844,236.5781 L341.7844,237.6719 Q341.7844,238.9063 342.675,239.7344 Q343.5656,240.5469 345.1594,240.5469 Q346.0969,240.5469 346.7531,240.2969 Q347.1438,240.1406 347.5656,239.7031 Q347.8313,239.4375 347.9719,239.3594 Q348.1281,239.2813 348.3313,239.2813 Q348.6594,239.2813 348.9094,239.5469 Q349.175,239.7969 349.175,240.1406 Q349.175,240.4844 348.8313,240.8906 Q348.3313,241.4688 347.5344,241.7969 Q346.4563,242.25 345.1594,242.25 Q343.6438,242.25 342.4406,241.625 Q341.4563,241.125 340.7688,240.0625 Q340.0813,238.9844 340.0813,237.7031 L340.0813,236.5469 Q340.0813,235.2188 340.6906,234.0781 Q341.3156,232.9219 342.4094,232.3125 Q343.5031,231.6875 344.7375,231.6875 Q345.4719,231.6875 346.1125,231.8594 Q346.7688,232.0156 347.3156,232.375 Z " fill="#000000"/><text fill="#000000" font-family="sans-serif" font-size="14" lengthAdjust="spacing" textLength="35" x="361.45" y="242.2285">Piece</text><line style="stroke:#181818;stroke-width:0.5;" x1="317.5" x2="411.5" y1="252.5" y2="252.5"/><text fill="#000000" font-family="sans-serif" font-size="14" lengthAdjust="spacing" textLength="73" x="322.5" y="271.0332">idPiece : int</text><text fill="#000000" font-family="sans-serif" font-size="14" lengthAdjust="spacing" textLength="84" x="322.5" y="288.6426">name : String</text><line style="stroke:#181818;stroke-width:0.5;" x1="317.5" x2="411.5" y1="295.7188" y2="295.7188"/></g><!--MD5=[5655ee3e2a0d028d03fe20f829576392]
class Square--><g id="elem_Square"><rect codeLine="24" fill="#F1F1F1" height="118.4375" id="Square" rx="2.5" ry="2.5" style="stroke:#181818;stroke-width:0.5;" width="92" x="312.5" y="7"/><ellipse cx="333.8" cy="23" fill="#ADD1B2" rx="11" ry="11" style="stroke:#181818;stroke-width:1.0;"/><path d="M336.5656,18.875 Q336.7219,18.6563 336.9094,18.5469 Q337.0969,18.4375 337.3156,18.4375 Q337.6906,18.4375 337.925,18.7031 Q338.1594,18.9531 338.1594,19.5625 L338.1594,21.0156 Q338.1594,21.625 337.925,21.8906 Q337.6906,22.1563 337.3156,22.1563 Q336.9719,22.1563 336.7688,21.9531 Q336.5656,21.7656 336.4563,21.25 Q336.4094,20.8906 336.2219,20.7031 Q335.8938,20.3281 335.2844,20.1094 Q334.675,19.8906 334.05,19.8906 Q333.2844,19.8906 332.6438,20.2188 Q332.0188,20.5469 331.5188,21.2969 Q331.0344,22.0469 331.0344,23.0781 L331.0344,24.1719 Q331.0344,25.4063 331.925,26.2344 Q332.8156,27.0469 334.4094,27.0469 Q335.3469,27.0469 336.0031,26.7969 Q336.3938,26.6406 336.8156,26.2031 Q337.0813,25.9375 337.2219,25.8594 Q337.3781,25.7813 337.5813,25.7813 Q337.9094,25.7813 338.1594,26.0469 Q338.425,26.2969 338.425,26.6406 Q338.425,26.9844 338.0813,27.3906 Q337.5813,27.9688 336.7844,28.2969 Q335.7063,28.75 334.4094,28.75 Q332.8938,28.75 331.6906,28.125 Q330.7063,27.625 330.0188,26.5625 Q329.3313,25.4844 329.3313,24.2031 L329.3313,23.0469 Q329.3313,21.7188 329.9406,20.5781 Q330.5656,19.4219 331.6594,18.8125 Q332.7531,18.1875 333.9875,18.1875 Q334.7219,18.1875 335.3625,18.3594 Q336.0188,18.5156 336.5656,18.875 Z " fill="#000000"/><text fill="#000000" font-family="sans-serif" font-size="14" lengthAdjust="spacing" textLength="46" x="349.2" y="28.7285">Square</text><line style="stroke:#181818;stroke-width:0.5;" x1="313.5" x2="403.5" y1="39" y2="39"/><text fill="#000000" font-family="sans-serif" font-size="14" lengthAdjust="spacing" textLength="80" x="318.5" y="57.5332">idRound : int</text><text fill="#000000" font-family="sans-serif" font-size="14" lengthAdjust="spacing" textLength="72" x="318.5" y="75.1426">column : int</text><text fill="#000000" font-family="sans-serif" font-size="14" lengthAdjust="spacing" textLength="49" x="318.5" y="92.752">row : int</text><text fill="#000000" font-family="sans-serif" font-size="14" lengthAdjust="spacing" textLength="73" x="318.5" y="110.3613">idPiece : int</text><line style="stroke:#181818;stroke-width:0.5;" x1="313.5" x2="403.5" y1="117.4375" y2="117.4375"/></g><!--MD5=[120fced6fc53ed38bb00f3c478c713f1]
class Letter--><g id="elem_Letter"><rect codeLine="30" fill="#F1F1F1" height="118.4375" id="Letter" rx="2.5" ry="2.5" style="stroke:#181818;stroke-width:0.5;" width="127" x="7" y="7"/><ellipse cx="48.1" cy="23" fill="#ADD1B2" rx="11" ry="11" style="stroke:#181818;stroke-width:1.0;"/><path d="M50.8656,18.875 Q51.0219,18.6563 51.2094,18.5469 Q51.3969,18.4375 51.6156,18.4375 Q51.9906,18.4375 52.225,18.7031 Q52.4594,18.9531 52.4594,19.5625 L52.4594,21.0156 Q52.4594,21.625 52.225,21.8906 Q51.9906,22.1563 51.6156,22.1563 Q51.2719,22.1563 51.0688,21.9531 Q50.8656,21.7656 50.7563,21.25 Q50.7094,20.8906 50.5219,20.7031 Q50.1938,20.3281 49.5844,20.1094 Q48.975,19.8906 48.35,19.8906 Q47.5844,19.8906 46.9438,20.2188 Q46.3188,20.5469 45.8188,21.2969 Q45.3344,22.0469 45.3344,23.0781 L45.3344,24.1719 Q45.3344,25.4063 46.225,26.2344 Q47.1156,27.0469 48.7094,27.0469 Q49.6469,27.0469 50.3031,26.7969 Q50.6938,26.6406 51.1156,26.2031 Q51.3813,25.9375 51.5219,25.8594 Q51.6781,25.7813 51.8813,25.7813 Q52.2094,25.7813 52.4594,26.0469 Q52.725,26.2969 52.725,26.6406 Q52.725,26.9844 52.3813,27.3906 Q51.8813,27.9688 51.0844,28.2969 Q50.0063,28.75 48.7094,28.75 Q47.1938,28.75 45.9906,28.125 Q45.0063,27.625 44.3188,26.5625 Q43.6313,25.4844 43.6313,24.2031 L43.6313,23.0469 Q43.6313,21.7188 44.2406,20.5781 Q44.8656,19.4219 45.9594,18.8125 Q47.0531,18.1875 48.2875,18.1875 Q49.0219,18.1875 49.6625,18.3594 Q50.3188,18.5156 50.8656,18.875 Z " fill="#000000"/><text fill="#000000" font-family="sans-serif" font-size="14" lengthAdjust="spacing" textLength="37" x="67.9" y="28.7285">Letter</text><line style="stroke:#181818;stroke-width:0.5;" x1="8" x2="133" y1="39" y2="39"/><text fill="#000000" font-family="sans-serif" font-size="14" lengthAdjust="spacing" textLength="80" x="13" y="57.5332">idRound : int</text><text fill="#000000" font-family="sans-serif" font-size="14" lengthAdjust="spacing" textLength="100" x="13" y="75.1426">character : char</text><text fill="#000000" font-family="sans-serif" font-size="14" lengthAdjust="spacing" textLength="76" x="13" y="92.752">position : int</text><text fill="#000000" font-family="sans-serif" font-size="14" lengthAdjust="spacing" textLength="115" x="13" y="110.3613">isShown : boolean</text><line style="stroke:#181818;stroke-width:0.5;" x1="8" x2="133" y1="117.4375" y2="117.4375"/></g><!--MD5=[b6dcce5e5ef3c84b0b048d11301373dd]
class Game--><g id="elem_Game"><rect codeLine="37" fill="#F1F1F1" height="83.2188" id="Game" rx="2.5" ry="2.5" style="stroke:#181818;stroke-width:0.5;" width="96" x="169.5" y="24.5"/><ellipse cx="196.2" cy="40.5" fill="#ADD1B2" rx="11" ry="11" style="stroke:#181818;stroke-width:1.0;"/><path d="M198.9656,36.375 Q199.1219,36.1563 199.3094,36.0469 Q199.4969,35.9375 199.7156,35.9375 Q200.0906,35.9375 200.325,36.2031 Q200.5594,36.4531 200.5594,37.0625 L200.5594,38.5156 Q200.5594,39.125 200.325,39.3906 Q200.0906,39.6563 199.7156,39.6563 Q199.3719,39.6563 199.1688,39.4531 Q198.9656,39.2656 198.8563,38.75 Q198.8094,38.3906 198.6219,38.2031 Q198.2938,37.8281 197.6844,37.6094 Q197.075,37.3906 196.45,37.3906 Q195.6844,37.3906 195.0438,37.7188 Q194.4188,38.0469 193.9188,38.7969 Q193.4344,39.5469 193.4344,40.5781 L193.4344,41.6719 Q193.4344,42.9063 194.325,43.7344 Q195.2156,44.5469 196.8094,44.5469 Q197.7469,44.5469 198.4031,44.2969 Q198.7938,44.1406 199.2156,43.7031 Q199.4813,43.4375 199.6219,43.3594 Q199.7781,43.2813 199.9813,43.2813 Q200.3094,43.2813 200.5594,43.5469 Q200.825,43.7969 200.825,44.1406 Q200.825,44.4844 200.4813,44.8906 Q199.9813,45.4688 199.1844,45.7969 Q198.1063,46.25 196.8094,46.25 Q195.2938,46.25 194.0906,45.625 Q193.1063,45.125 192.4188,44.0625 Q191.7313,42.9844 191.7313,41.7031 L191.7313,40.5469 Q191.7313,39.2188 192.3406,38.0781 Q192.9656,36.9219 194.0594,36.3125 Q195.1531,35.6875 196.3875,35.6875 Q197.1219,35.6875 197.7625,35.8594 Q198.4188,36.0156 198.9656,36.375 Z " fill="#000000"/><text fill="#000000" font-family="sans-serif" font-size="14" lengthAdjust="spacing" textLength="38" x="212.8" y="46.2285">Game</text><line style="stroke:#181818;stroke-width:0.5;" x1="170.5" x2="264.5" y1="56.5" y2="56.5"/><text fill="#000000" font-family="sans-serif" font-size="14" lengthAdjust="spacing" textLength="76" x="175.5" y="75.0332">idGame : int</text><text fill="#000000" font-family="sans-serif" font-size="14" lengthAdjust="spacing" textLength="84" x="175.5" y="92.6426">game : String</text><line style="stroke:#181818;stroke-width:0.5;" x1="170.5" x2="264.5" y1="99.7188" y2="99.7188"/></g><!--MD5=[f67dd3c3e51d4023034ce19e0947172b]
reverse link Square to Piece--><g id="link_Square_Piece"><path codeLine="42" d="M360.71,138.48 C361.56,166.09 362.51,196.67 363.24,220.38 " fill="none" id="Square-backto-Piece" style="stroke:#181818;stroke-width:1.0;"/><polygon fill="none" points="360.3,125.21,356.4864,131.3302,360.6691,137.2043,364.4826,131.0841,360.3,125.21" style="stroke:#181818;stroke-width:1.0;"/></g><!--MD5=[55d64a43c9fbbd0c57ec275f67dff253]
reverse link Round to Player--><g id="link_Round_Player"><path codeLine="44" d="M185.26,352.55 C185.13,368.46 186.02,384.49 187.94,398.78 " fill="none" id="Round-backto-Player" style="stroke:#181818;stroke-width:1.0;"/><polygon fill="#181818" points="185.62,339.25,181.4632,345.1425,185.3036,351.2458,189.4604,345.3534,185.62,339.25" style="stroke:#181818;stroke-width:1.0;"/><text fill="#000000" font-family="sans-serif" font-size="13" lengthAdjust="spacing" textLength="48" x="133.2519" y="388.0544">Player 1</text></g><!--MD5=[55d64a43c9fbbd0c57ec275f67dff253]
reverse link Round to Player--><g id="link_Round_Player"><path codeLine="45" d="M211.5,352.55 C211.5,368.46 211.5,384.49 211.5,398.78 " fill="none" id="Round-backto-Player-1" style="stroke:#181818;stroke-width:1.0;"/><polygon fill="#181818" points="211.5,339.25,207.5,345.25,211.5,351.25,215.5,345.25,211.5,339.25" style="stroke:#181818;stroke-width:1.0;"/><text fill="#000000" font-family="sans-serif" font-size="13" lengthAdjust="spacing" textLength="48" x="214.875" y="388.0544">Player 2</text></g><!--MD5=[55d64a43c9fbbd0c57ec275f67dff253]
reverse link Round to Player--><g id="link_Round_Player"><path codeLine="46" d="M237.74,352.55 C237.87,368.46 236.98,384.49 235.06,398.78 " fill="none" id="Round-backto-Player-2" style="stroke:#181818;stroke-width:1.0;"/><polygon fill="#181818" points="237.38,339.25,233.5396,345.3534,237.6964,351.2458,241.5368,345.1425,237.38,339.25" style="stroke:#181818;stroke-width:1.0;"/><text fill="#000000" font-family="sans-serif" font-size="13" lengthAdjust="spacing" textLength="41" x="194.4903" y="388.0544">Winner</text></g><!--MD5=[f7ff9e901bf9f1bebf511a8077eb4f52]
reverse link Square to Round--><g id="link_Square_Round"><path codeLine="48" d="M306.24,135.97 C294.23,151.81 281.41,168.74 269.19,184.87 " fill="none" id="Square-backto-Round" style="stroke:#181818;stroke-width:1.0;"/><polygon fill="#181818" points="314.4,125.21,307.5869,127.5726,307.1474,134.7703,313.9604,132.4077,314.4,125.21" style="stroke:#181818;stroke-width:1.0;"/></g><!--MD5=[cb02c96b642da5c7c708bc3e89afb5b1]
reverse link Player to TypePlayer--><g id="link_Player_TypePlayer"><path codeLine="51" d="M211.5,513.46 C211.5,529.03 211.5,545.32 211.5,559.53 " fill="none" id="Player-backto-TypePlayer" style="stroke:#181818;stroke-width:1.0;"/><polygon fill="#181818" points="211.5,500.03,207.5,506.03,211.5,512.03,215.5,506.03,211.5,500.03" style="stroke:#181818;stroke-width:1.0;"/></g><!--MD5=[a6e9f244e90846485a04bb26007abd3c]
reverse link Letter to Round--><g id="link_Letter_Round"><path codeLine="52" d="M120.63,135.97 C132.14,151.81 144.45,168.74 156.17,184.87 " fill="none" id="Letter-backto-Round" style="stroke:#181818;stroke-width:1.0;"/><polygon fill="#181818" points="112.8,125.21,113.0923,132.4152,119.8557,134.9165,119.5634,127.7114,112.8,125.21" style="stroke:#181818;stroke-width:1.0;"/></g><!--MD5=[b5dcc497229e4ca43a9a557230ce0430]
link Game to Round--><g id="link_Game_Round"><path codeLine="54" d="M216.24,107.67 C215.66,126.34 214.96,149.27 214.26,171.65 " fill="none" id="Game-to-Round" style="stroke:#181818;stroke-width:1.0;"/><polygon fill="#181818" points="213.86,184.73,218.0426,178.8559,214.2291,172.7357,210.0464,178.6098,213.86,184.73" style="stroke:#181818;stroke-width:1.0;"/></g><!--MD5=[84f62543d327363f9e8f55e1c1782e60]
@startuml DataModelGamesPlatform

  class Player{
    idPlayer : int
    name : String
    idTypePlayer : int
  }
  class Round {
    idRound : int
    idPlayer 1: Player
    idPlayer 2: Player
    idWinner : Player
    isFinished : boolean
    idGame : int
  }
  class TypePlayer {
    idTypePlayer : int
    name: String
  }
  Class Piece{
    idPiece : int
    name : String
  }

  Class Square {
    idRound : int
    column : int
    row : int
    idPiece : int
  }
class Letter {
    idRound : int
    character : char
    position : int
    isShown : boolean
  }

  class Game {
    idGame : int
    game : String
  }

  Square o- - Piece

  Round *- - "Player 1" Player
  Round *- - "Player 2" Player
  Round *- - "Winner" Player

  Square *- - Round


  Player *- - TypePlayer
  Letter *- - Round

  Game - -* Round


@enduml

PlantUML version 1.2022.5(Sat Apr 30 04:55:52 CST 2022)
(GPL source distribution)
Java Runtime: Java(TM) SE Runtime Environment
JVM: Java HotSpot(TM) 64-Bit Server VM
Default Encoding: Cp1252
Language: en
Country: US
--></g></svg>