<?xml version="1.0" encoding="UTF-8" standalone="no"?><svg xmlns="http://www.w3.org/2000/svg" xmlns:xlink="http://www.w3.org/1999/xlink" contentStyleType="text/css" height="1287px" preserveAspectRatio="none" style="width:1036px;height:1287px;background:#FFFFFF;" version="1.1" viewBox="0 0 1036 1287" width="1036px" zoomAndPan="magnify"><defs/><g><!--MD5=[5580c82edcbc933de5e73591f0fcf26e]
cluster hangman--><g id="cluster_hangman"><path d="M513.5,6 L578.5,6 A3.75,3.75 0 0 1 581,8.5 L588,29.6094 L887.5,29.6094 A2.5,2.5 0 0 1 890,32.1094 L890,894.5 A2.5,2.5 0 0 1 887.5,897 L513.5,897 A2.5,2.5 0 0 1 511,894.5 L511,8.5 A2.5,2.5 0 0 1 513.5,6 " style="stroke:#000000;stroke-width:1.5;fill:none;"/><line style="stroke:#000000;stroke-width:1.5;fill:none;" x1="511" x2="588" y1="29.6094" y2="29.6094"/><text fill="#000000" font-family="sans-serif" font-size="14" font-weight="bold" lengthAdjust="spacing" textLength="64" x="515" y="22.5332">hangman</text></g><!--MD5=[42603eecb267091c13893a16d8c379fb]
cluster player--><g id="cluster_player"><path d="M8.5,700 L52.5,700 A3.75,3.75 0 0 1 55,702.5 L62,723.6094 L309.5,723.6094 A2.5,2.5 0 0 1 312,726.1094 L312,1277.5 A2.5,2.5 0 0 1 309.5,1280 L8.5,1280 A2.5,2.5 0 0 1 6,1277.5 L6,702.5 A2.5,2.5 0 0 1 8.5,700 " style="stroke:#000000;stroke-width:1.5;fill:none;"/><line style="stroke:#000000;stroke-width:1.5;fill:none;" x1="6" x2="62" y1="723.6094" y2="723.6094"/><text fill="#000000" font-family="sans-serif" font-size="14" font-weight="bold" lengthAdjust="spacing" textLength="43" x="10" y="716.5332">player</text></g><!--MD5=[c52f45833d539af9e29a9d34b8b7302b]
cluster utils--><g id="cluster_utils"><path d="M505.5,966.5 L536.5,966.5 A3.75,3.75 0 0 1 539,969 L546,990.1094 L720.5,990.1094 A2.5,2.5 0 0 1 723,992.6094 L723,1082 A2.5,2.5 0 0 1 720.5,1084.5 L505.5,1084.5 A2.5,2.5 0 0 1 503,1082 L503,969 A2.5,2.5 0 0 1 505.5,966.5 " style="stroke:#000000;stroke-width:1.5;fill:none;"/><line style="stroke:#000000;stroke-width:1.5;fill:none;" x1="503" x2="546" y1="990.1094" y2="990.1094"/><text fill="#000000" font-family="sans-serif" font-size="14" font-weight="bold" lengthAdjust="spacing" textLength="30" x="507" y="983.0332">utils</text></g><!--MD5=[d7731e51439e3250c63a8cdcafb59da5]
class HangMan--><g id="elem_HangMan"><rect codeLine="3" fill="#F1F1F1" height="188.875" id="HangMan" rx="2.5" ry="2.5" style="stroke:#181818;stroke-width:0.5;" width="303" x="527.5" y="42"/><ellipse cx="644.75" cy="58" fill="#ADD1B2" rx="11" ry="11" style="stroke:#181818;stroke-width:1.0;"/><path d="M647.5156,53.875 Q647.6719,53.6563 647.8594,53.5469 Q648.0469,53.4375 648.2656,53.4375 Q648.6406,53.4375 648.875,53.7031 Q649.1094,53.9531 649.1094,54.5625 L649.1094,56.0156 Q649.1094,56.625 648.875,56.8906 Q648.6406,57.1563 648.2656,57.1563 Q647.9219,57.1563 647.7188,56.9531 Q647.5156,56.7656 647.4063,56.25 Q647.3594,55.8906 647.1719,55.7031 Q646.8438,55.3281 646.2344,55.1094 Q645.625,54.8906 645,54.8906 Q644.2344,54.8906 643.5938,55.2188 Q642.9688,55.5469 642.4688,56.2969 Q641.9844,57.0469 641.9844,58.0781 L641.9844,59.1719 Q641.9844,60.4063 642.875,61.2344 Q643.7656,62.0469 645.3594,62.0469 Q646.2969,62.0469 646.9531,61.7969 Q647.3438,61.6406 647.7656,61.2031 Q648.0313,60.9375 648.1719,60.8594 Q648.3281,60.7813 648.5313,60.7813 Q648.8594,60.7813 649.1094,61.0469 Q649.375,61.2969 649.375,61.6406 Q649.375,61.9844 649.0313,62.3906 Q648.5313,62.9688 647.7344,63.2969 Q646.6563,63.75 645.3594,63.75 Q643.8438,63.75 642.6406,63.125 Q641.6563,62.625 640.9688,61.5625 Q640.2813,60.4844 640.2813,59.2031 L640.2813,58.0469 Q640.2813,56.7188 640.8906,55.5781 Q641.5156,54.4219 642.6094,53.8125 Q643.7031,53.1875 644.9375,53.1875 Q645.6719,53.1875 646.3125,53.3594 Q646.9688,53.5156 647.5156,53.875 Z " fill="#000000"/><text fill="#000000" font-family="sans-serif" font-size="14" lengthAdjust="spacing" textLength="60" x="665.25" y="63.7285">HangMan</text><line style="stroke:#181818;stroke-width:0.5;" x1="528.5" x2="829.5" y1="74" y2="74"/><polygon fill="none" points="538.5,80,542.5,84,538.5,88,534.5,84" style="stroke:#B38D22;stroke-width:1.0;"/><text fill="#000000" font-family="sans-serif" font-size="14" lengthAdjust="spacing" textLength="172" x="547.5" y="92.5332">GamePlayer[] gamePlayers</text><polygon fill="none" points="538.5,97.6094,542.5,101.6094,538.5,105.6094,534.5,101.6094" style="stroke:#B38D22;stroke-width:1.0;"/><text fill="#000000" font-family="sans-serif" font-size="14" lengthAdjust="spacing" textLength="277" x="547.5" y="110.1426">GamePlayersProvider gamePlayersProvider</text><polygon fill="none" points="538.5,115.2188,542.5,119.2188,538.5,123.2188,534.5,119.2188" style="stroke:#B38D22;stroke-width:1.0;"/><text fill="#000000" font-family="sans-serif" font-size="14" lengthAdjust="spacing" textLength="162" x="547.5" y="127.752">List&lt;GamePlayer&gt; results</text><line style="stroke:#181818;stroke-width:0.5;" x1="528.5" x2="829.5" y1="134.8281" y2="134.8281"/><ellipse cx="538.5" cy="145.8281" fill="#84BE84" rx="3" ry="3" style="stroke:#038048;stroke-width:1.0;"/><text fill="#000000" font-family="sans-serif" font-size="14" lengthAdjust="spacing" textLength="84" x="547.5" y="153.3613">Introduction()</text><ellipse cx="538.5" cy="163.4375" fill="#84BE84" rx="3" ry="3" style="stroke:#038048;stroke-width:1.0;"/><text fill="#000000" font-family="sans-serif" font-size="14" lengthAdjust="spacing" textLength="62" x="547.5" y="170.9707">Resume()</text><ellipse cx="538.5" cy="181.0469" fill="#84BE84" rx="3" ry="3" style="stroke:#038048;stroke-width:1.0;"/><text fill="#000000" font-family="sans-serif" font-size="14" lengthAdjust="spacing" textLength="60" x="547.5" y="188.5801">Execute()</text><polygon fill="#FFFF44" points="538.5,193.6563,542.5,197.6563,538.5,201.6563,534.5,197.6563" style="stroke:#B38D22;stroke-width:1.0;"/><text fill="#000000" font-family="sans-serif" font-size="14" lengthAdjust="spacing" textLength="264" x="547.5" y="206.1895">AssignRoles (GamePlayer[] gamePlayers)</text><polygon fill="#FFFF44" points="538.5,211.2656,542.5,215.2656,538.5,219.2656,534.5,215.2656" style="stroke:#B38D22;stroke-width:1.0;"/><text fill="#000000" font-family="sans-serif" font-size="14" lengthAdjust="spacing" textLength="240" x="547.5" y="223.7988">flipRoles (GamePlayer[] gamePlayers)</text></g><!--MD5=[1e8c54f5ac0ec684c0f71587f512d7a6]
class SecretWord--><g id="elem_SecretWord"><rect codeLine="13" fill="#F1F1F1" height="136.0469" id="SecretWord" rx="2.5" ry="2.5" style="stroke:#181818;stroke-width:0.5;" width="220" x="654" y="745"/><ellipse cx="722.25" cy="761" fill="#ADD1B2" rx="11" ry="11" style="stroke:#181818;stroke-width:1.0;"/><path d="M725.0156,756.875 Q725.1719,756.6563 725.3594,756.5469 Q725.5469,756.4375 725.7656,756.4375 Q726.1406,756.4375 726.375,756.7031 Q726.6094,756.9531 726.6094,757.5625 L726.6094,759.0156 Q726.6094,759.625 726.375,759.8906 Q726.1406,760.1563 725.7656,760.1563 Q725.4219,760.1563 725.2188,759.9531 Q725.0156,759.7656 724.9063,759.25 Q724.8594,758.8906 724.6719,758.7031 Q724.3438,758.3281 723.7344,758.1094 Q723.125,757.8906 722.5,757.8906 Q721.7344,757.8906 721.0938,758.2188 Q720.4688,758.5469 719.9688,759.2969 Q719.4844,760.0469 719.4844,761.0781 L719.4844,762.1719 Q719.4844,763.4063 720.375,764.2344 Q721.2656,765.0469 722.8594,765.0469 Q723.7969,765.0469 724.4531,764.7969 Q724.8438,764.6406 725.2656,764.2031 Q725.5313,763.9375 725.6719,763.8594 Q725.8281,763.7813 726.0313,763.7813 Q726.3594,763.7813 726.6094,764.0469 Q726.875,764.2969 726.875,764.6406 Q726.875,764.9844 726.5313,765.3906 Q726.0313,765.9688 725.2344,766.2969 Q724.1563,766.75 722.8594,766.75 Q721.3438,766.75 720.1406,766.125 Q719.1563,765.625 718.4688,764.5625 Q717.7813,763.4844 717.7813,762.2031 L717.7813,761.0469 Q717.7813,759.7188 718.3906,758.5781 Q719.0156,757.4219 720.1094,756.8125 Q721.2031,756.1875 722.4375,756.1875 Q723.1719,756.1875 723.8125,756.3594 Q724.4688,756.5156 725.0156,756.875 Z " fill="#000000"/><text fill="#000000" font-family="sans-serif" font-size="14" lengthAdjust="spacing" textLength="75" x="742.75" y="766.7285">SecretWord</text><line style="stroke:#181818;stroke-width:0.5;" x1="655" x2="873" y1="777" y2="777"/><ellipse cx="665" cy="788" fill="none" rx="3" ry="3" style="stroke:#038048;stroke-width:1.0;"/><text fill="#000000" font-family="sans-serif" font-size="14" lengthAdjust="spacing" textLength="142" x="674" y="795.5332">Char GuesserWords []</text><ellipse cx="665" cy="805.6094" fill="none" rx="3" ry="3" style="stroke:#038048;stroke-width:1.0;"/><text fill="#000000" font-family="sans-serif" font-size="14" lengthAdjust="spacing" textLength="122" x="674" y="813.1426">Char SecretWord []</text><line style="stroke:#181818;stroke-width:0.5;" x1="655" x2="873" y1="820.2188" y2="820.2188"/><ellipse cx="665" cy="831.2188" fill="#84BE84" rx="3" ry="3" style="stroke:#038048;stroke-width:1.0;"/><text fill="#000000" font-family="sans-serif" font-size="14" lengthAdjust="spacing" textLength="194" x="674" y="838.752">boolean AddLetter(Char letter)</text><ellipse cx="665" cy="848.8281" fill="#84BE84" rx="3" ry="3" style="stroke:#038048;stroke-width:1.0;"/><text fill="#000000" font-family="sans-serif" font-size="14" lengthAdjust="spacing" textLength="136" x="674" y="856.3613">boolean isGuessed ()</text><ellipse cx="665" cy="866.4375" fill="#84BE84" rx="3" ry="3" style="stroke:#038048;stroke-width:1.0;"/><text fill="#000000" font-family="sans-serif" font-size="14" lengthAdjust="spacing" textLength="72" x="674" y="873.9707">printWord()</text></g><!--MD5=[2912dfae6c367dee499f222350629706]
class TurnHangMan--><g id="elem_TurnHangMan"><rect codeLine="20" fill="#F1F1F1" height="153.6563" id="TurnHangMan" rx="2.5" ry="2.5" style="stroke:#181818;stroke-width:0.5;" width="184" x="587" y="291"/><ellipse cx="629.9" cy="307" fill="#ADD1B2" rx="11" ry="11" style="stroke:#181818;stroke-width:1.0;"/><path d="M632.6656,302.875 Q632.8219,302.6563 633.0094,302.5469 Q633.1969,302.4375 633.4156,302.4375 Q633.7906,302.4375 634.025,302.7031 Q634.2594,302.9531 634.2594,303.5625 L634.2594,305.0156 Q634.2594,305.625 634.025,305.8906 Q633.7906,306.1563 633.4156,306.1563 Q633.0719,306.1563 632.8688,305.9531 Q632.6656,305.7656 632.5563,305.25 Q632.5094,304.8906 632.3219,304.7031 Q631.9938,304.3281 631.3844,304.1094 Q630.775,303.8906 630.15,303.8906 Q629.3844,303.8906 628.7438,304.2188 Q628.1188,304.5469 627.6188,305.2969 Q627.1344,306.0469 627.1344,307.0781 L627.1344,308.1719 Q627.1344,309.4063 628.025,310.2344 Q628.9156,311.0469 630.5094,311.0469 Q631.4469,311.0469 632.1031,310.7969 Q632.4938,310.6406 632.9156,310.2031 Q633.1813,309.9375 633.3219,309.8594 Q633.4781,309.7813 633.6813,309.7813 Q634.0094,309.7813 634.2594,310.0469 Q634.525,310.2969 634.525,310.6406 Q634.525,310.9844 634.1813,311.3906 Q633.6813,311.9688 632.8844,312.2969 Q631.8063,312.75 630.5094,312.75 Q628.9938,312.75 627.7906,312.125 Q626.8063,311.625 626.1188,310.5625 Q625.4313,309.4844 625.4313,308.2031 L625.4313,307.0469 Q625.4313,305.7188 626.0406,304.5781 Q626.6656,303.4219 627.7594,302.8125 Q628.8531,302.1875 630.0875,302.1875 Q630.8219,302.1875 631.4625,302.3594 Q632.1188,302.5156 632.6656,302.875 Z " fill="#000000"/><text fill="#000000" font-family="sans-serif" font-size="14" lengthAdjust="spacing" textLength="90" x="650.1" y="312.7285">TurnHangMan</text><line style="stroke:#181818;stroke-width:0.5;" x1="588" x2="770" y1="323" y2="323"/><ellipse cx="598" cy="334" fill="none" rx="3" ry="3" style="stroke:#038048;stroke-width:1.0;"/><text fill="#000000" font-family="sans-serif" font-size="14" lengthAdjust="spacing" textLength="138" x="607" y="341.5332">HangManPlayer Giver</text><ellipse cx="598" cy="351.6094" fill="none" rx="3" ry="3" style="stroke:#038048;stroke-width:1.0;"/><text fill="#000000" font-family="sans-serif" font-size="14" lengthAdjust="spacing" textLength="158" x="607" y="359.1426">HangManPlayer Guesser</text><ellipse cx="598" cy="369.2188" fill="none" rx="3" ry="3" style="stroke:#038048;stroke-width:1.0;"/><text fill="#000000" font-family="sans-serif" font-size="14" lengthAdjust="spacing" textLength="155" x="607" y="376.752">HangedMan hangedman</text><ellipse cx="598" cy="386.8281" fill="none" rx="3" ry="3" style="stroke:#038048;stroke-width:1.0;"/><text fill="#000000" font-family="sans-serif" font-size="14" lengthAdjust="spacing" textLength="139" x="607" y="394.3613">HangManPlayer result</text><line style="stroke:#181818;stroke-width:0.5;" x1="588" x2="770" y1="401.4375" y2="401.4375"/><ellipse cx="598" cy="412.4375" fill="#84BE84" rx="3" ry="3" style="stroke:#038048;stroke-width:1.0;"/><text fill="#000000" font-family="sans-serif" font-size="14" lengthAdjust="spacing" textLength="36" x="607" y="419.9707">play()</text><ellipse cx="598" cy="430.0469" fill="#84BE84" rx="3" ry="3" style="stroke:#038048;stroke-width:1.0;"/><text fill="#000000" font-family="sans-serif" font-size="14" lengthAdjust="spacing" textLength="70" x="607" y="437.5801">getResult()</text></g><!--MD5=[2aa92d2e607ce5e0eb2e8fd93adcb836]
class HangedMan--><g id="elem_HangedMan"><rect codeLine="28" fill="#F1F1F1" height="171.2656" id="HangedMan" rx="2.5" ry="2.5" style="stroke:#181818;stroke-width:0.5;" width="178" x="696" y="505"/><ellipse cx="742.75" cy="521" fill="#ADD1B2" rx="11" ry="11" style="stroke:#181818;stroke-width:1.0;"/><path d="M745.5156,516.875 Q745.6719,516.6563 745.8594,516.5469 Q746.0469,516.4375 746.2656,516.4375 Q746.6406,516.4375 746.875,516.7031 Q747.1094,516.9531 747.1094,517.5625 L747.1094,519.0156 Q747.1094,519.625 746.875,519.8906 Q746.6406,520.1563 746.2656,520.1563 Q745.9219,520.1563 745.7188,519.9531 Q745.5156,519.7656 745.4063,519.25 Q745.3594,518.8906 745.1719,518.7031 Q744.8438,518.3281 744.2344,518.1094 Q743.625,517.8906 743,517.8906 Q742.2344,517.8906 741.5938,518.2188 Q740.9688,518.5469 740.4688,519.2969 Q739.9844,520.0469 739.9844,521.0781 L739.9844,522.1719 Q739.9844,523.4063 740.875,524.2344 Q741.7656,525.0469 743.3594,525.0469 Q744.2969,525.0469 744.9531,524.7969 Q745.3438,524.6406 745.7656,524.2031 Q746.0313,523.9375 746.1719,523.8594 Q746.3281,523.7813 746.5313,523.7813 Q746.8594,523.7813 747.1094,524.0469 Q747.375,524.2969 747.375,524.6406 Q747.375,524.9844 747.0313,525.3906 Q746.5313,525.9688 745.7344,526.2969 Q744.6563,526.75 743.3594,526.75 Q741.8438,526.75 740.6406,526.125 Q739.6563,525.625 738.9688,524.5625 Q738.2813,523.4844 738.2813,522.2031 L738.2813,521.0469 Q738.2813,519.7188 738.8906,518.5781 Q739.5156,517.4219 740.6094,516.8125 Q741.7031,516.1875 742.9375,516.1875 Q743.6719,516.1875 744.3125,516.3594 Q744.9688,516.5156 745.5156,516.875 Z " fill="#000000"/><text fill="#000000" font-family="sans-serif" font-size="14" lengthAdjust="spacing" textLength="76" x="763.25" y="526.7285">HangedMan</text><line style="stroke:#181818;stroke-width:0.5;" x1="697" x2="873" y1="537" y2="537"/><rect fill="none" height="6" style="stroke:#C82930;stroke-width:1.0;" width="6" x="704" y="545"/><text fill="#000000" font-family="sans-serif" font-size="14" lengthAdjust="spacing" textLength="94" x="716" y="555.5332">FailedAttempts</text><rect fill="none" height="6" style="stroke:#C82930;stroke-width:1.0;" width="6" x="704" y="562.6094"/><text fill="#000000" font-family="sans-serif" font-size="14" lengthAdjust="spacing" textLength="152" x="716" y="573.1426">SecretWord secretWord</text><line style="stroke:#181818;stroke-width:0.5;" x1="697" x2="873" y1="580.2188" y2="580.2188"/><ellipse cx="707" cy="591.2188" fill="#84BE84" rx="3" ry="3" style="stroke:#038048;stroke-width:1.0;"/><text fill="#000000" font-family="sans-serif" font-size="14" lengthAdjust="spacing" textLength="118" x="716" y="598.752">PaintHangedMan()</text><ellipse cx="707" cy="608.8281" fill="#84BE84" rx="3" ry="3" style="stroke:#038048;stroke-width:1.0;"/><text fill="#000000" font-family="sans-serif" font-size="14" lengthAdjust="spacing" textLength="54" x="716" y="616.3613">isDead()</text><ellipse cx="707" cy="626.4375" fill="#84BE84" rx="3" ry="3" style="stroke:#038048;stroke-width:1.0;"/><text fill="#000000" font-family="sans-serif" font-size="14" lengthAdjust="spacing" textLength="60" x="716" y="633.9707">isSaved()</text><rect fill="#F24D5C" height="6" style="stroke:#C82930;stroke-width:1.0;" width="6" x="704" y="641.0469"/><text fill="#000000" font-family="sans-serif" font-size="14" lengthAdjust="spacing" textLength="60" x="716" y="651.5801">addPart()</text><ellipse cx="707" cy="661.6563" fill="#84BE84" rx="3" ry="3" style="stroke:#038048;stroke-width:1.0;"/><text fill="#000000" font-family="sans-serif" font-size="14" lengthAdjust="spacing" textLength="63" x="716" y="669.1895">tryLetter()</text></g><!--MD5=[4fcb596d3bf48611d01498558103c6f0]
class HangManPlayer--><g id="elem_HangManPlayer"><rect codeLine="37" fill="#F1F1F1" height="83.2188" id="HangManPlayer" rx="2.5" ry="2.5" style="stroke:#181818;stroke-width:0.5;" width="134" x="527" y="549"/><ellipse cx="542" cy="565" fill="#B4A7E5" rx="11" ry="11" style="stroke:#181818;stroke-width:1.0;"/><path d="M542.9531,561.6406 L542.9531,568.2969 L544.6719,568.2969 Q545.2813,568.2969 545.5469,568.5313 Q545.8125,568.7656 545.8125,569.1563 Q545.8125,569.5313 545.5469,569.7656 Q545.2813,570 544.6719,570 L539.5313,570 Q538.9219,570 538.6563,569.7656 Q538.3906,569.5313 538.3906,569.1406 Q538.3906,568.7656 538.6563,568.5313 Q538.9219,568.2969 539.5313,568.2969 L541.25,568.2969 L541.25,561.6406 L539.5313,561.6406 Q538.9219,561.6406 538.6563,561.4063 Q538.3906,561.1719 538.3906,560.7813 Q538.3906,560.4063 538.6563,560.1719 Q538.9219,559.9375 539.5313,559.9375 L544.6719,559.9375 Q545.2813,559.9375 545.5469,560.1719 Q545.8125,560.4063 545.8125,560.7813 Q545.8125,561.1719 545.5469,561.4063 Q545.2813,561.6406 544.6719,561.6406 L542.9531,561.6406 Z " fill="#000000"/><text fill="#000000" font-family="sans-serif" font-size="14" font-style="italic" lengthAdjust="spacing" textLength="102" x="556" y="570.7285">HangManPlayer</text><line style="stroke:#181818;stroke-width:0.5;" x1="528" x2="660" y1="581" y2="581"/><line style="stroke:#181818;stroke-width:0.5;" x1="528" x2="660" y1="589" y2="589"/><ellipse cx="538" cy="600" fill="#84BE84" rx="3" ry="3" style="stroke:#038048;stroke-width:1.0;"/><text fill="#000000" font-family="sans-serif" font-size="14" lengthAdjust="spacing" textLength="93" x="547" y="607.5332">ChooseWord()</text><ellipse cx="538" cy="617.6094" fill="#84BE84" rx="3" ry="3" style="stroke:#038048;stroke-width:1.0;"/><text fill="#000000" font-family="sans-serif" font-size="14" lengthAdjust="spacing" textLength="76" x="547" y="625.1426">GiveLetter()</text></g><!--MD5=[2cb47ba637a0d19583e6199456f6ad0b]
class Player--><g id="elem_Player"><rect codeLine="44" fill="#F1F1F1" height="171.2656" id="Player" rx="2.5" ry="2.5" style="stroke:#181818;stroke-width:0.5;" width="156" x="128" y="950"/><ellipse cx="181.75" cy="966" fill="#A9DCDF" rx="11" ry="11" style="stroke:#181818;stroke-width:1.0;"/><path d="M183.9375,967.7656 L179.7969,967.7656 L179.375,968.7969 L179.7969,968.7969 Q180.4063,968.7969 180.6719,969.0313 Q180.9375,969.2656 180.9375,969.6563 Q180.9375,970.0313 180.6719,970.2656 Q180.4063,970.5 179.7969,970.5 L177.5,970.5 Q176.8906,970.5 176.6406,970.2656 Q176.375,970.0313 176.375,969.6406 Q176.375,969.2656 176.6563,969.0313 Q176.9219,968.7813 177.5469,968.7969 L180.2188,962.1406 L179.1094,962.1406 Q178.5,962.1406 178.2344,961.9063 Q177.9688,961.6719 177.9688,961.2813 Q177.9688,960.9063 178.2344,960.6719 Q178.5,960.4375 179.1094,960.4375 L182.7813,960.4375 L186.1719,968.7969 Q186.7656,968.7969 186.9531,968.9375 Q187.3438,969.2031 187.3438,969.6563 Q187.3438,970.0313 187.0781,970.2656 Q186.8281,970.5 186.2188,970.5 L183.9219,970.5 Q183.3125,970.5 183.0469,970.2656 Q182.7813,970.0313 182.7813,969.6406 Q182.7813,969.2656 183.0469,969.0313 Q183.3125,968.7969 183.9219,968.7969 L184.3438,968.7969 L183.9375,967.7656 Z M183.2188,966.0625 L181.8594,962.6875 L180.4844,966.0625 L183.2188,966.0625 Z " fill="#000000"/><text fill="#000000" font-family="sans-serif" font-size="14" font-style="italic" lengthAdjust="spacing" textLength="40" x="202.25" y="971.7285">Player</text><line style="stroke:#181818;stroke-width:0.5;" x1="129" x2="283" y1="982" y2="982"/><ellipse cx="139" cy="993" fill="none" rx="3" ry="3" style="stroke:#038048;stroke-width:1.0;"/><text fill="#000000" font-family="sans-serif" font-size="14" lengthAdjust="spacing" textLength="30" x="148" y="1000.5332">id int</text><ellipse cx="139" cy="1010.6094" fill="none" rx="3" ry="3" style="stroke:#038048;stroke-width:1.0;"/><text fill="#000000" font-family="sans-serif" font-size="14" lengthAdjust="spacing" textLength="76" x="148" y="1018.1426">name String</text><line style="stroke:#181818;stroke-width:0.5;" x1="129" x2="283" y1="1025.2188" y2="1025.2188"/><ellipse cx="139" cy="1036.2188" fill="#84BE84" rx="3" ry="3" style="stroke:#038048;stroke-width:1.0;"/><text fill="#000000" font-family="sans-serif" font-size="14" lengthAdjust="spacing" textLength="130" x="148" y="1043.752">Player (String name)</text><ellipse cx="139" cy="1053.8281" fill="#84BE84" rx="3" ry="3" style="stroke:#038048;stroke-width:1.0;"/><text fill="#000000" font-family="sans-serif" font-size="14" lengthAdjust="spacing" textLength="41" x="148" y="1061.3613">getId()</text><ellipse cx="139" cy="1071.4375" fill="#84BE84" rx="3" ry="3" style="stroke:#038048;stroke-width:1.0;"/><text fill="#000000" font-family="sans-serif" font-size="14" lengthAdjust="spacing" textLength="40" x="148" y="1078.9707">setId()</text><ellipse cx="139" cy="1089.0469" fill="#84BE84" rx="3" ry="3" style="stroke:#038048;stroke-width:1.0;"/><text fill="#000000" font-family="sans-serif" font-size="14" lengthAdjust="spacing" textLength="66" x="148" y="1096.5801">getName()</text><ellipse cx="139" cy="1106.6563" fill="#84BE84" rx="3" ry="3" style="stroke:#038048;stroke-width:1.0;"/><text fill="#000000" font-family="sans-serif" font-size="14" lengthAdjust="spacing" textLength="65" x="148" y="1114.1895">setName()</text></g><!--MD5=[82a37a108f28ded8fb022e1a5df25ae5]
class ListOfPlayers--><g id="elem_ListOfPlayers"><rect codeLine="53" fill="#F1F1F1" height="153.6563" id="ListOfPlayers" rx="2.5" ry="2.5" style="stroke:#181818;stroke-width:0.5;" width="199" x="94.5" y="736"/><ellipse cx="147.75" cy="752" fill="#ADD1B2" rx="11" ry="11" style="stroke:#181818;stroke-width:1.0;"/><path d="M150.5156,747.875 Q150.6719,747.6563 150.8594,747.5469 Q151.0469,747.4375 151.2656,747.4375 Q151.6406,747.4375 151.875,747.7031 Q152.1094,747.9531 152.1094,748.5625 L152.1094,750.0156 Q152.1094,750.625 151.875,750.8906 Q151.6406,751.1563 151.2656,751.1563 Q150.9219,751.1563 150.7188,750.9531 Q150.5156,750.7656 150.4063,750.25 Q150.3594,749.8906 150.1719,749.7031 Q149.8438,749.3281 149.2344,749.1094 Q148.625,748.8906 148,748.8906 Q147.2344,748.8906 146.5938,749.2188 Q145.9688,749.5469 145.4688,750.2969 Q144.9844,751.0469 144.9844,752.0781 L144.9844,753.1719 Q144.9844,754.4063 145.875,755.2344 Q146.7656,756.0469 148.3594,756.0469 Q149.2969,756.0469 149.9531,755.7969 Q150.3438,755.6406 150.7656,755.2031 Q151.0313,754.9375 151.1719,754.8594 Q151.3281,754.7813 151.5313,754.7813 Q151.8594,754.7813 152.1094,755.0469 Q152.375,755.2969 152.375,755.6406 Q152.375,755.9844 152.0313,756.3906 Q151.5313,756.9688 150.7344,757.2969 Q149.6563,757.75 148.3594,757.75 Q146.8438,757.75 145.6406,757.125 Q144.6563,756.625 143.9688,755.5625 Q143.2813,754.4844 143.2813,753.2031 L143.2813,752.0469 Q143.2813,750.7188 143.8906,749.5781 Q144.5156,748.4219 145.6094,747.8125 Q146.7031,747.1875 147.9375,747.1875 Q148.6719,747.1875 149.3125,747.3594 Q149.9688,747.5156 150.5156,747.875 Z " fill="#000000"/><text fill="#000000" font-family="sans-serif" font-size="14" lengthAdjust="spacing" textLength="84" x="168.25" y="757.7285">ListOfPlayers</text><line style="stroke:#181818;stroke-width:0.5;" x1="95.5" x2="292.5" y1="768" y2="768"/><ellipse cx="105.5" cy="779" fill="none" rx="3" ry="3" style="stroke:#038048;stroke-width:1.0;"/><text fill="#000000" font-family="sans-serif" font-size="14" lengthAdjust="spacing" textLength="150" x="114.5" y="786.5332">List&lt;Player&gt; playersList</text><line style="stroke:#181818;stroke-width:0.5;" x1="95.5" x2="292.5" y1="793.6094" y2="793.6094"/><ellipse cx="105.5" cy="804.6094" fill="#84BE84" rx="3" ry="3" style="stroke:#038048;stroke-width:1.0;"/><text fill="#000000" font-family="sans-serif" font-size="14" lengthAdjust="spacing" textLength="173" x="114.5" y="812.1426">createPlayer(Player player)</text><ellipse cx="105.5" cy="822.2188" fill="#84BE84" rx="3" ry="3" style="stroke:#038048;stroke-width:1.0;"/><text fill="#000000" font-family="sans-serif" font-size="14" lengthAdjust="spacing" textLength="100" x="114.5" y="829.752">getPlayer(int id)</text><ellipse cx="105.5" cy="839.8281" fill="#84BE84" rx="3" ry="3" style="stroke:#038048;stroke-width:1.0;"/><text fill="#000000" font-family="sans-serif" font-size="14" lengthAdjust="spacing" textLength="52" x="114.5" y="847.3613">getList()</text><ellipse cx="105.5" cy="857.4375" fill="#84BE84" rx="3" ry="3" style="stroke:#038048;stroke-width:1.0;"/><text fill="#000000" font-family="sans-serif" font-size="14" lengthAdjust="spacing" textLength="60" x="114.5" y="864.9707">printList()</text><ellipse cx="105.5" cy="875.0469" fill="#84BE84" rx="3" ry="3" style="stroke:#038048;stroke-width:1.0;"/><text fill="#000000" font-family="sans-serif" font-size="14" lengthAdjust="spacing" textLength="158" x="114.5" y="882.5801">getGamePlayers(int size)</text></g><!--MD5=[5f7a1d5056c7d80958fde22b7188240f]
class Bot--><g id="elem_Bot"><rect codeLine="61" fill="#F1F1F1" height="83.2188" id="Bot" rx="2.5" ry="2.5" style="stroke:#181818;stroke-width:0.5;" width="119" x="22.5" y="1181"/><ellipse cx="67.25" cy="1197" fill="#ADD1B2" rx="11" ry="11" style="stroke:#181818;stroke-width:1.0;"/><path d="M70.0156,1192.875 Q70.1719,1192.6563 70.3594,1192.5469 Q70.5469,1192.4375 70.7656,1192.4375 Q71.1406,1192.4375 71.375,1192.7031 Q71.6094,1192.9531 71.6094,1193.5625 L71.6094,1195.0156 Q71.6094,1195.625 71.375,1195.8906 Q71.1406,1196.1563 70.7656,1196.1563 Q70.4219,1196.1563 70.2188,1195.9531 Q70.0156,1195.7656 69.9063,1195.25 Q69.8594,1194.8906 69.6719,1194.7031 Q69.3438,1194.3281 68.7344,1194.1094 Q68.125,1193.8906 67.5,1193.8906 Q66.7344,1193.8906 66.0938,1194.2188 Q65.4688,1194.5469 64.9688,1195.2969 Q64.4844,1196.0469 64.4844,1197.0781 L64.4844,1198.1719 Q64.4844,1199.4063 65.375,1200.2344 Q66.2656,1201.0469 67.8594,1201.0469 Q68.7969,1201.0469 69.4531,1200.7969 Q69.8438,1200.6406 70.2656,1200.2031 Q70.5313,1199.9375 70.6719,1199.8594 Q70.8281,1199.7813 71.0313,1199.7813 Q71.3594,1199.7813 71.6094,1200.0469 Q71.875,1200.2969 71.875,1200.6406 Q71.875,1200.9844 71.5313,1201.3906 Q71.0313,1201.9688 70.2344,1202.2969 Q69.1563,1202.75 67.8594,1202.75 Q66.3438,1202.75 65.1406,1202.125 Q64.1563,1201.625 63.4688,1200.5625 Q62.7813,1199.4844 62.7813,1198.2031 L62.7813,1197.0469 Q62.7813,1195.7188 63.3906,1194.5781 Q64.0156,1193.4219 65.1094,1192.8125 Q66.2031,1192.1875 67.4375,1192.1875 Q68.1719,1192.1875 68.8125,1192.3594 Q69.4688,1192.5156 70.0156,1192.875 Z " fill="#000000"/><text fill="#000000" font-family="sans-serif" font-size="14" lengthAdjust="spacing" textLength="21" x="87.75" y="1202.7285">Bot</text><line style="stroke:#181818;stroke-width:0.5;" x1="23.5" x2="140.5" y1="1213" y2="1213"/><line style="stroke:#181818;stroke-width:0.5;" x1="23.5" x2="140.5" y1="1221" y2="1221"/><ellipse cx="33.5" cy="1232" fill="#84BE84" rx="3" ry="3" style="stroke:#038048;stroke-width:1.0;"/><text fill="#000000" font-family="sans-serif" font-size="14" lengthAdjust="spacing" textLength="93" x="42.5" y="1239.5332">ChooseWord()</text><ellipse cx="33.5" cy="1249.6094" fill="#84BE84" rx="3" ry="3" style="stroke:#038048;stroke-width:1.0;"/><text fill="#000000" font-family="sans-serif" font-size="14" lengthAdjust="spacing" textLength="76" x="42.5" y="1257.1426">GiveLetter()</text></g><!--MD5=[2e69174041fa7eb3bebc5f460ee56291]
class Human--><g id="elem_Human"><rect codeLine="65" fill="#F1F1F1" height="83.2188" id="Human" rx="2.5" ry="2.5" style="stroke:#181818;stroke-width:0.5;" width="119" x="176.5" y="1181"/><ellipse cx="210.85" cy="1197" fill="#ADD1B2" rx="11" ry="11" style="stroke:#181818;stroke-width:1.0;"/><path d="M213.6156,1192.875 Q213.7719,1192.6563 213.9594,1192.5469 Q214.1469,1192.4375 214.3656,1192.4375 Q214.7406,1192.4375 214.975,1192.7031 Q215.2094,1192.9531 215.2094,1193.5625 L215.2094,1195.0156 Q215.2094,1195.625 214.975,1195.8906 Q214.7406,1196.1563 214.3656,1196.1563 Q214.0219,1196.1563 213.8188,1195.9531 Q213.6156,1195.7656 213.5063,1195.25 Q213.4594,1194.8906 213.2719,1194.7031 Q212.9438,1194.3281 212.3344,1194.1094 Q211.725,1193.8906 211.1,1193.8906 Q210.3344,1193.8906 209.6938,1194.2188 Q209.0688,1194.5469 208.5688,1195.2969 Q208.0844,1196.0469 208.0844,1197.0781 L208.0844,1198.1719 Q208.0844,1199.4063 208.975,1200.2344 Q209.8656,1201.0469 211.4594,1201.0469 Q212.3969,1201.0469 213.0531,1200.7969 Q213.4438,1200.6406 213.8656,1200.2031 Q214.1313,1199.9375 214.2719,1199.8594 Q214.4281,1199.7813 214.6313,1199.7813 Q214.9594,1199.7813 215.2094,1200.0469 Q215.475,1200.2969 215.475,1200.6406 Q215.475,1200.9844 215.1313,1201.3906 Q214.6313,1201.9688 213.8344,1202.2969 Q212.7563,1202.75 211.4594,1202.75 Q209.9438,1202.75 208.7406,1202.125 Q207.7563,1201.625 207.0688,1200.5625 Q206.3813,1199.4844 206.3813,1198.2031 L206.3813,1197.0469 Q206.3813,1195.7188 206.9906,1194.5781 Q207.6156,1193.4219 208.7094,1192.8125 Q209.8031,1192.1875 211.0375,1192.1875 Q211.7719,1192.1875 212.4125,1192.3594 Q213.0688,1192.5156 213.6156,1192.875 Z " fill="#000000"/><text fill="#000000" font-family="sans-serif" font-size="14" lengthAdjust="spacing" textLength="44" x="229.15" y="1202.7285">Human</text><line style="stroke:#181818;stroke-width:0.5;" x1="177.5" x2="294.5" y1="1213" y2="1213"/><line style="stroke:#181818;stroke-width:0.5;" x1="177.5" x2="294.5" y1="1221" y2="1221"/><ellipse cx="187.5" cy="1232" fill="#84BE84" rx="3" ry="3" style="stroke:#038048;stroke-width:1.0;"/><text fill="#000000" font-family="sans-serif" font-size="14" lengthAdjust="spacing" textLength="93" x="196.5" y="1239.5332">ChooseWord()</text><ellipse cx="187.5" cy="1249.6094" fill="#84BE84" rx="3" ry="3" style="stroke:#038048;stroke-width:1.0;"/><text fill="#000000" font-family="sans-serif" font-size="14" lengthAdjust="spacing" textLength="76" x="196.5" y="1257.1426">GiveLetter()</text></g><!--MD5=[f7a9ae25cb0ac60c5f03b7bfd778cce3]
class Dice--><g id="elem_Dice"><rect codeLine="80" fill="#F1F1F1" height="65.6094" id="Dice" rx="2.5" ry="2.5" style="stroke:#181818;stroke-width:0.5;" width="188" x="519" y="1002.5"/><ellipse cx="594.75" cy="1018.5" fill="#ADD1B2" rx="11" ry="11" style="stroke:#181818;stroke-width:1.0;"/><path d="M597.5156,1014.375 Q597.6719,1014.1563 597.8594,1014.0469 Q598.0469,1013.9375 598.2656,1013.9375 Q598.6406,1013.9375 598.875,1014.2031 Q599.1094,1014.4531 599.1094,1015.0625 L599.1094,1016.5156 Q599.1094,1017.125 598.875,1017.3906 Q598.6406,1017.6563 598.2656,1017.6563 Q597.9219,1017.6563 597.7188,1017.4531 Q597.5156,1017.2656 597.4063,1016.75 Q597.3594,1016.3906 597.1719,1016.2031 Q596.8438,1015.8281 596.2344,1015.6094 Q595.625,1015.3906 595,1015.3906 Q594.2344,1015.3906 593.5938,1015.7188 Q592.9688,1016.0469 592.4688,1016.7969 Q591.9844,1017.5469 591.9844,1018.5781 L591.9844,1019.6719 Q591.9844,1020.9063 592.875,1021.7344 Q593.7656,1022.5469 595.3594,1022.5469 Q596.2969,1022.5469 596.9531,1022.2969 Q597.3438,1022.1406 597.7656,1021.7031 Q598.0313,1021.4375 598.1719,1021.3594 Q598.3281,1021.2813 598.5313,1021.2813 Q598.8594,1021.2813 599.1094,1021.5469 Q599.375,1021.7969 599.375,1022.1406 Q599.375,1022.4844 599.0313,1022.8906 Q598.5313,1023.4688 597.7344,1023.7969 Q596.6563,1024.25 595.3594,1024.25 Q593.8438,1024.25 592.6406,1023.625 Q591.6563,1023.125 590.9688,1022.0625 Q590.2813,1020.9844 590.2813,1019.7031 L590.2813,1018.5469 Q590.2813,1017.2188 590.8906,1016.0781 Q591.5156,1014.9219 592.6094,1014.3125 Q593.7031,1013.6875 594.9375,1013.6875 Q595.6719,1013.6875 596.3125,1013.8594 Q596.9688,1014.0156 597.5156,1014.375 Z " fill="#000000"/><text fill="#000000" font-family="sans-serif" font-size="14" lengthAdjust="spacing" textLength="28" x="615.25" y="1024.2285">Dice</text><line style="stroke:#181818;stroke-width:0.5;" x1="520" x2="706" y1="1034.5" y2="1034.5"/><line style="stroke:#181818;stroke-width:0.5;" x1="520" x2="706" y1="1042.5" y2="1042.5"/><ellipse cx="530" cy="1053.5" fill="#84BE84" rx="3" ry="3" style="stroke:#038048;stroke-width:1.0;"/><text fill="#000000" font-family="sans-serif" font-size="14" lengthAdjust="spacing" textLength="162" x="539" y="1061.0332">generateValue(int bound)</text></g><!--MD5=[26178a7f5ccfc2a33ee17310fc2a0bb3]
class GamePlayersProvider--><g id="elem_GamePlayersProvider"><rect codeLine="71" fill="#F1F1F1" height="65.6094" id="GamePlayersProvider" rx="2.5" ry="2.5" style="stroke:#181818;stroke-width:0.5;" width="254" x="117" y="557.5"/><ellipse cx="171.25" cy="573.5" fill="#B4A7E5" rx="11" ry="11" style="stroke:#181818;stroke-width:1.0;"/><path d="M172.2031,570.1406 L172.2031,576.7969 L173.9219,576.7969 Q174.5313,576.7969 174.7969,577.0313 Q175.0625,577.2656 175.0625,577.6563 Q175.0625,578.0313 174.7969,578.2656 Q174.5313,578.5 173.9219,578.5 L168.7813,578.5 Q168.1719,578.5 167.9063,578.2656 Q167.6406,578.0313 167.6406,577.6406 Q167.6406,577.2656 167.9063,577.0313 Q168.1719,576.7969 168.7813,576.7969 L170.5,576.7969 L170.5,570.1406 L168.7813,570.1406 Q168.1719,570.1406 167.9063,569.9063 Q167.6406,569.6719 167.6406,569.2813 Q167.6406,568.9063 167.9063,568.6719 Q168.1719,568.4375 168.7813,568.4375 L173.9219,568.4375 Q174.5313,568.4375 174.7969,568.6719 Q175.0625,568.9063 175.0625,569.2813 Q175.0625,569.6719 174.7969,569.9063 Q174.5313,570.1406 173.9219,570.1406 L172.2031,570.1406 Z " fill="#000000"/><text fill="#000000" font-family="sans-serif" font-size="14" font-style="italic" lengthAdjust="spacing" textLength="137" x="191.75" y="579.2285">GamePlayersProvider</text><line style="stroke:#181818;stroke-width:0.5;" x1="118" x2="370" y1="589.5" y2="589.5"/><line style="stroke:#181818;stroke-width:0.5;" x1="118" x2="370" y1="597.5" y2="597.5"/><ellipse cx="128" cy="608.5" fill="#84BE84" rx="3" ry="3" style="stroke:#038048;stroke-width:1.0;"/><text fill="#000000" font-family="sans-serif" font-size="14" lengthAdjust="spacing" textLength="228" x="137" y="616.0332">getGamePlayers(int) : GamePlayer[]</text></g><!--MD5=[b0359cb538a0ce2cb72f54394993c3c4]
class GamePlayer--><g id="elem_GamePlayer"><rect codeLine="75" fill="#F1F1F1" height="65.6094" id="GamePlayer" rx="2.5" ry="2.5" style="stroke:#181818;stroke-width:0.5;" width="166" x="329" y="780"/><ellipse cx="369.2" cy="796" fill="#B4A7E5" rx="11" ry="11" style="stroke:#181818;stroke-width:1.0;"/><path d="M370.1531,792.6406 L370.1531,799.2969 L371.8719,799.2969 Q372.4813,799.2969 372.7469,799.5313 Q373.0125,799.7656 373.0125,800.1563 Q373.0125,800.5313 372.7469,800.7656 Q372.4813,801 371.8719,801 L366.7313,801 Q366.1219,801 365.8563,800.7656 Q365.5906,800.5313 365.5906,800.1406 Q365.5906,799.7656 365.8563,799.5313 Q366.1219,799.2969 366.7313,799.2969 L368.45,799.2969 L368.45,792.6406 L366.7313,792.6406 Q366.1219,792.6406 365.8563,792.4063 Q365.5906,792.1719 365.5906,791.7813 Q365.5906,791.4063 365.8563,791.1719 Q366.1219,790.9375 366.7313,790.9375 L371.8719,790.9375 Q372.4813,790.9375 372.7469,791.1719 Q373.0125,791.4063 373.0125,791.7813 Q373.0125,792.1719 372.7469,792.4063 Q372.4813,792.6406 371.8719,792.6406 L370.1531,792.6406 Z " fill="#000000"/><text fill="#000000" font-family="sans-serif" font-size="14" font-style="italic" lengthAdjust="spacing" textLength="78" x="388.8" y="801.7285">GamePlayer</text><line style="stroke:#181818;stroke-width:0.5;" x1="330" x2="494" y1="812" y2="812"/><line style="stroke:#181818;stroke-width:0.5;" x1="330" x2="494" y1="820" y2="820"/><ellipse cx="340" cy="831" fill="#84BE84" rx="3" ry="3" style="stroke:#038048;stroke-width:1.0;"/><text fill="#000000" font-family="sans-serif" font-size="14" lengthAdjust="spacing" textLength="140" x="349" y="838.5332">processResult(Result)</text></g><!--MD5=[a61959765ad47111e4afbaee12b70ba7]
reverse link HangMan to TurnHangMan--><g id="link_HangMan_TurnHangMan"><path codeLine="85" d="M679,244.29 C679,259.99 679,275.88 679,290.8 " fill="none" id="HangMan-backto-TurnHangMan" style="stroke:#181818;stroke-width:1.0;"/><polygon fill="#181818" points="679,231.18,675,237.18,679,243.18,683,237.18,679,231.18" style="stroke:#181818;stroke-width:1.0;"/></g><!--MD5=[c4e030e587640a9fdc6d69571abfa929]
link HangMan to GamePlayersProvider--><g id="link_HangMan_GamePlayersProvider"><path codeLine="86" d="M527.47,208.56 C488.58,231.32 448.8,259.05 417,291 C338.5,369.87 282.83,491.47 258.19,552.24 " fill="none" id="HangMan-to-GamePlayersProvider" style="stroke:#181818;stroke-width:1.0;"/><polygon fill="#181818" points="256.19,557.22,263.2646,550.368,258.0592,552.5826,255.8447,547.3772,256.19,557.22" style="stroke:#181818;stroke-width:1.0;"/></g><!--MD5=[b3cc77556441157c79a206bc8981c29d]
link HangMan to Dice--><g id="link_HangMan_Dice"><path codeLine="87" d="M750.18,231.18 C856.41,383.34 1029.92,688.93 892,905 C852.59,966.75 775.3,999.5 712.05,1016.61 " fill="none" id="HangMan-to-Dice" style="stroke:#181818;stroke-width:1.0;stroke-dasharray:7.0,7.0;"/><polygon fill="#181818" points="707.14,1017.91,716.8662,1019.4596,711.9716,1016.6235,714.8077,1011.7289,707.14,1017.91" style="stroke:#181818;stroke-width:1.0;"/></g><!--MD5=[47f49f40f3b57ce419e0e3b224a34786]
reverse link HangMan to GamePlayer--><g id="link_HangMan_GamePlayer"><path codeLine="88" d="M598.16,242.03 C587.83,257.94 578.07,274.55 570,291 C484.37,465.61 434.32,696.09 417.98,779.84 " fill="none" id="HangMan-backto-GamePlayer" style="stroke:#181818;stroke-width:1.0;"/><polygon fill="#181818" points="605.38,231.14,598.7312,233.9317,598.751,241.1428,605.3998,238.3511,605.38,231.14" style="stroke:#181818;stroke-width:1.0;"/></g><!--MD5=[de54c74c5a0f03a0d64afa4047f4dca6]
reverse link Player to Bot--><g id="link_Player_Bot"><path codeLine="90" d="M137.84,1138.2 C127.75,1153.25 117.88,1167.97 109.31,1180.75 " fill="none" id="Player-backto-Bot" style="stroke:#181818;stroke-width:1.0;"/><polygon fill="none" points="132.31,1133.87,149.26,1121.15,143.94,1141.66,132.31,1133.87" style="stroke:#181818;stroke-width:1.0;"/></g><!--MD5=[1a5e42fe08df60c271858a4aebb9d8af]
reverse link Player to Human--><g id="link_Player_Human"><path codeLine="91" d="M222.96,1141.11 C225.24,1155.14 227.45,1168.8 229.39,1180.75 " fill="none" id="Player-backto-Human" style="stroke:#181818;stroke-width:1.0;"/><polygon fill="none" points="216.02,1142.01,219.73,1121.15,229.84,1139.77,216.02,1142.01" style="stroke:#181818;stroke-width:1.0;"/></g><!--MD5=[552cdaee1d7a2c4a82c3b54ad9e47553]
reverse link GamePlayer to Player--><g id="link_GamePlayer_Player"><path codeLine="92" d="M368.14,860.95 C343.68,887.13 312.5,920.5 284.03,950.98 " fill="none" id="GamePlayer-backto-Player" style="stroke:#181818;stroke-width:1.0;stroke-dasharray:7.0,7.0;"/><polygon fill="none" points="363.28,855.9,382.05,846.06,373.51,865.46,363.28,855.9" style="stroke:#181818;stroke-width:1.0;"/></g><!--MD5=[294151ecc46a1a90d54386dc965328a8]
reverse link TurnHangMan to HangedMan--><g id="link_TurnHangMan_HangedMan"><path codeLine="94" d="M721.32,457.04 C728.86,472.72 736.7,489.03 744.2,504.62 " fill="none" id="TurnHangMan-backto-HangedMan" style="stroke:#181818;stroke-width:1.0;"/><polygon fill="#181818" points="715.63,445.19,714.6231,452.3305,720.8271,456.0062,721.8339,448.8658,715.63,445.19" style="stroke:#181818;stroke-width:1.0;"/></g><!--MD5=[aedc3007e0dfa3682ba47cf8e074d29b]
reverse link TurnHangMan to HangManPlayer--><g id="link_TurnHangMan_HangManPlayer"><path codeLine="95" d="M644.84,457.63 C632.65,489.25 619.51,523.34 609.64,548.93 " fill="none" id="TurnHangMan-backto-HangManPlayer" style="stroke:#181818;stroke-width:1.0;"/><polygon fill="#181818" points="649.63,445.19,643.7408,449.3514,645.3169,456.3881,651.2062,452.2267,649.63,445.19" style="stroke:#181818;stroke-width:1.0;"/></g><!--MD5=[a0844d7426c666f4502798fc813803d2]
reverse link HangedMan to SecretWord--><g id="link_HangedMan_SecretWord"><path codeLine="97" d="M775.69,689.3 C773.9,708.02 772.07,727.22 770.41,744.71 " fill="none" id="HangedMan-backto-SecretWord" style="stroke:#181818;stroke-width:1.0;"/><polygon fill="#181818" points="776.94,676.12,772.3909,681.7152,775.806,688.0663,780.3551,682.4711,776.94,676.12" style="stroke:#181818;stroke-width:1.0;"/></g><!--MD5=[a7d93f4931b1a4bb63227530d472e629]
reverse link HangedMan to HangManPlayer--><g id="link_HangedMan_HangManPlayer"><path codeLine="99" d="M690.81,590.5 C680.92,590.5 671.04,590.5 661.15,590.5 " fill="none" id="HangedMan-backto-HangManPlayer" style="stroke:#181818;stroke-width:1.0;"/><polygon fill="#181818" points="695.98,590.5,686.98,586.5,690.98,590.5,686.98,594.5,695.98,590.5" style="stroke:#181818;stroke-width:1.0;"/></g><!--MD5=[f5e12c2aac55c7819c2c58c59f3ffef3]
reverse link HangManPlayer to GamePlayer--><g id="link_HangManPlayer_GamePlayer"><path codeLine="100" d="M547.51,647.79 C535.6,662.2 522.83,677.67 511,692 C486.41,721.79 458.4,755.74 438.47,779.91 " fill="none" id="HangManPlayer-backto-GamePlayer" style="stroke:#181818;stroke-width:1.0;"/><polygon fill="none" points="542.34,643.05,560.48,632.08,553.14,651.96,542.34,643.05" style="stroke:#181818;stroke-width:1.0;"/></g><!--MD5=[2833e1afc810982bc559a78da80cc4ee]
reverse link ListOfPlayers to Player--><g id="link_ListOfPlayers_Player"><path codeLine="102" d="M198.87,903.43 C199.7,918.68 200.56,934.49 201.38,949.62 " fill="none" id="ListOfPlayers-backto-Player" style="stroke:#181818;stroke-width:1.0;"/><polygon fill="#181818" points="198.15,890.19,194.4788,896.3966,198.7959,902.1726,202.4672,895.966,198.15,890.19" style="stroke:#181818;stroke-width:1.0;"/></g><!--MD5=[5c4510609ede1ca032148b37bb45abc4]
reverse link GamePlayersProvider to ListOfPlayers--><g id="link_GamePlayersProvider_ListOfPlayers"><path codeLine="103" d="M232.3,643.09 C226.06,670.62 218.26,705.02 211.33,735.59 " fill="none" id="GamePlayersProvider-backto-ListOfPlayers" style="stroke:#181818;stroke-width:1.0;stroke-dasharray:7.0,7.0;"/><polygon fill="none" points="225.48,641.52,236.73,623.56,239.13,644.62,225.48,641.52" style="stroke:#181818;stroke-width:1.0;"/></g><!--MD5=[28cd73cf825d5138d04f5bfbd597bbcf]
link GamePlayer to Dice--><g id="link_GamePlayer_Dice"><path codeLine="105" d="M441.23,846.06 C478.22,886.64 541.75,956.34 580.32,998.64 " fill="none" id="GamePlayer-to-Dice" style="stroke:#181818;stroke-width:1.0;stroke-dasharray:7.0,7.0;"/><polygon fill="#181818" points="583.74,1002.4,580.6169,993.0594,580.3653,998.7107,574.714,998.459,583.74,1002.4" style="stroke:#181818;stroke-width:1.0;"/></g><!--MD5=[4d7619f28de32b52fce0db532d572b98]
@startuml

package hangman {
    class HangMan {
        # GamePlayer[] gamePlayers
        # GamePlayersProvider gamePlayersProvider
        # List<GamePlayer> results
        + Introduction()
        + Resume()
        + Execute()
        # AssignRoles (GamePlayer[] gamePlayers)
        # flipRoles (GamePlayer[] gamePlayers)
    }
    class SecretWord {
        +Char GuesserWords []
        +Char SecretWord []
        +boolean AddLetter(Char letter)
        +boolean isGuessed ()
        +printWord()
    }
    class TurnHangMan {
        +HangManPlayer Giver
        +HangManPlayer Guesser
        +HangedMan hangedman
        +HangManPlayer result
        +play()
        +getResult()
    }
    class HangedMan {
        -FailedAttempts
        -SecretWord secretWord
        +PaintHangedMan()
        +isDead()
        +isSaved()
        -addPart()
        +tryLetter()
    }
    interface HangManPlayer {
        +ChooseWord()
        +GiveLetter()
    }
}

package player {
    abstract class Player {
        +id int
        +name String
        +Player (String name)
        +getId()
        +setId()
        +getName()
        +setName()
    }
    class ListOfPlayers {
        +List<Player> playersList
        +createPlayer(Player player)
        +getPlayer(int id)
        +getList()
        +printList()
        +getGamePlayers(int size)
    }
    class Bot {
        +ChooseWord()
        +GiveLetter()
    }
    class Human {
        +ChooseWord()
        +GiveLetter()
    }
}

interface GamePlayersProvider {
    + getGamePlayers(int) : GamePlayer[]
}

interface GamePlayer {
    + processResult(Result)
}

package utils {
    class Dice {
        +generateValue(int bound)
    }
}

HangMan *- -TurnHangMan
HangMan - -> GamePlayersProvider
HangMan .right.> Dice
HangMan *- - GamePlayer

Player <|- - Bot
Player <|- - Human
Player .up.|> GamePlayer

TurnHangMan *- - HangedMan
TurnHangMan *- - HangManPlayer

HangedMan *- - SecretWord

HangManPlayer -left-> HangedMan
HangManPlayer <|- - GamePlayer

ListOfPlayers *- - Player
ListOfPlayers .up.|> GamePlayersProvider

GamePlayer ..>Dice

@enduml

PlantUML version 1.2022.5(Sat Apr 30 04:55:52 CST 2022)
(GPL source distribution)
Java Runtime: Java(TM) SE Runtime Environment
JVM: Java HotSpot(TM) 64-Bit Server VM
Default Encoding: Cp1252
Language: en
Country: US
--></g></svg>