<?xml version="1.0" encoding="UTF-8" standalone="no"?><svg xmlns="http://www.w3.org/2000/svg" xmlns:xlink="http://www.w3.org/1999/xlink" contentStyleType="text/css" height="922px" preserveAspectRatio="none" style="width:949px;height:922px;background:#FFFFFF;" version="1.1" viewBox="0 0 949 922" width="949px" zoomAndPan="magnify"><defs/><g><!--MD5=[7153802aa763eb8df248d2c88b8b91a0]
cluster game--><g id="cluster_game"><path d="M264.5,202 L303.5,202 A3.75,3.75 0 0 1 306,204.5 L313,225.6094 L921.5,225.6094 A2.5,2.5 0 0 1 924,228.1094 L924,912.5 A2.5,2.5 0 0 1 921.5,915 L264.5,915 A2.5,2.5 0 0 1 262,912.5 L262,204.5 A2.5,2.5 0 0 1 264.5,202 " style="stroke:#000000;stroke-width:1.5;fill:none;"/><line style="stroke:#000000;stroke-width:1.5;fill:none;" x1="262" x2="313" y1="225.6094" y2="225.6094"/><text fill="#000000" font-family="sans-serif" font-size="14" font-weight="bold" lengthAdjust="spacing" textLength="38" x="266" y="218.5332">game</text></g><!--MD5=[807bc46d8103c809ff053af9e140e1f5]
cluster tictactoe--><g id="cluster_tictactoe"><path d="M390.5,674 L452.5,674 A3.75,3.75 0 0 1 455,676.5 L462,697.6094 L557.5,697.6094 A2.5,2.5 0 0 1 560,700.1094 L560,888.5 A2.5,2.5 0 0 1 557.5,891 L390.5,891 A2.5,2.5 0 0 1 388,888.5 L388,676.5 A2.5,2.5 0 0 1 390.5,674 " style="stroke:#000000;stroke-width:1.5;fill:none;"/><line style="stroke:#000000;stroke-width:1.5;fill:none;" x1="388" x2="462" y1="697.6094" y2="697.6094"/><text fill="#000000" font-family="sans-serif" font-size="14" font-weight="bold" lengthAdjust="spacing" textLength="61" x="392" y="690.5332">tictactoe</text></g><!--MD5=[5580c82edcbc933de5e73591f0fcf26e]
cluster hangman--><g id="cluster_hangman"><path d="M736.5,674 L801.5,674 A3.75,3.75 0 0 1 804,676.5 L811,697.6094 L897.5,697.6094 A2.5,2.5 0 0 1 900,700.1094 L900,888.5 A2.5,2.5 0 0 1 897.5,891 L736.5,891 A2.5,2.5 0 0 1 734,888.5 L734,676.5 A2.5,2.5 0 0 1 736.5,674 " style="stroke:#000000;stroke-width:1.5;fill:none;"/><line style="stroke:#000000;stroke-width:1.5;fill:none;" x1="734" x2="811" y1="697.6094" y2="697.6094"/><text fill="#000000" font-family="sans-serif" font-size="14" font-weight="bold" lengthAdjust="spacing" textLength="64" x="738" y="690.5332">hangman</text></g><!--MD5=[c52f45833d539af9e29a9d34b8b7302b]
cluster utils--><g id="cluster_utils"><path d="M631.5,246 L662.5,246 A3.75,3.75 0 0 1 665,248.5 L672,269.6094 L866.5,269.6094 A2.5,2.5 0 0 1 869,272.1094 L869,361.5 A2.5,2.5 0 0 1 866.5,364 L631.5,364 A2.5,2.5 0 0 1 629,361.5 L629,248.5 A2.5,2.5 0 0 1 631.5,246 " style="stroke:#000000;stroke-width:1.5;fill:none;"/><line style="stroke:#000000;stroke-width:1.5;fill:none;" x1="629" x2="672" y1="269.6094" y2="269.6094"/><text fill="#000000" font-family="sans-serif" font-size="14" font-weight="bold" lengthAdjust="spacing" textLength="30" x="633" y="262.5332">utils</text></g><!--MD5=[42603eecb267091c13893a16d8c379fb]
cluster player--><g id="cluster_player"><path d="M8.5,202 L52.5,202 A3.75,3.75 0 0 1 55,204.5 L62,225.6094 L235.5,225.6094 A2.5,2.5 0 0 1 238,228.1094 L238,771.5 A2.5,2.5 0 0 1 235.5,774 L8.5,774 A2.5,2.5 0 0 1 6,771.5 L6,204.5 A2.5,2.5 0 0 1 8.5,202 " style="stroke:#000000;stroke-width:1.5;fill:none;"/><line style="stroke:#000000;stroke-width:1.5;fill:none;" x1="6" x2="62" y1="225.6094" y2="225.6094"/><text fill="#000000" font-family="sans-serif" font-size="14" font-weight="bold" lengthAdjust="spacing" textLength="43" x="10" y="218.5332">player</text></g><!--MD5=[b6dcce5e5ef3c84b0b048d11301373dd]
class Game--><g id="elem_Game"><rect codeLine="13" fill="#F1F1F1" height="188.875" id="Game" rx="2.5" ry="2.5" style="stroke:#181818;stroke-width:0.5;" width="303" x="567.5" y="452"/><ellipse cx="695.75" cy="468" fill="#A9DCDF" rx="11" ry="11" style="stroke:#181818;stroke-width:1.0;"/><path d="M697.9375,469.7656 L693.7969,469.7656 L693.375,470.7969 L693.7969,470.7969 Q694.4063,470.7969 694.6719,471.0313 Q694.9375,471.2656 694.9375,471.6563 Q694.9375,472.0313 694.6719,472.2656 Q694.4063,472.5 693.7969,472.5 L691.5,472.5 Q690.8906,472.5 690.6406,472.2656 Q690.375,472.0313 690.375,471.6406 Q690.375,471.2656 690.6563,471.0313 Q690.9219,470.7813 691.5469,470.7969 L694.2188,464.1406 L693.1094,464.1406 Q692.5,464.1406 692.2344,463.9063 Q691.9688,463.6719 691.9688,463.2813 Q691.9688,462.9063 692.2344,462.6719 Q692.5,462.4375 693.1094,462.4375 L696.7813,462.4375 L700.1719,470.7969 Q700.7656,470.7969 700.9531,470.9375 Q701.3438,471.2031 701.3438,471.6563 Q701.3438,472.0313 701.0781,472.2656 Q700.8281,472.5 700.2188,472.5 L697.9219,472.5 Q697.3125,472.5 697.0469,472.2656 Q696.7813,472.0313 696.7813,471.6406 Q696.7813,471.2656 697.0469,471.0313 Q697.3125,470.7969 697.9219,470.7969 L698.3438,470.7969 L697.9375,469.7656 Z M697.2188,468.0625 L695.8594,464.6875 L694.4844,468.0625 L697.2188,468.0625 Z " fill="#000000"/><text fill="#000000" font-family="sans-serif" font-size="14" font-style="italic" lengthAdjust="spacing" textLength="38" x="716.25" y="473.7285">Game</text><line style="stroke:#181818;stroke-width:0.5;" x1="568.5" x2="869.5" y1="484" y2="484"/><polygon fill="none" points="578.5,490,582.5,494,578.5,498,574.5,494" style="stroke:#B38D22;stroke-width:1.0;"/><text fill="#000000" font-family="sans-serif" font-size="14" lengthAdjust="spacing" textLength="172" x="587.5" y="502.5332">GamePlayer[] gamePlayers</text><polygon fill="none" points="578.5,507.6094,582.5,511.6094,578.5,515.6094,574.5,511.6094" style="stroke:#B38D22;stroke-width:1.0;"/><text fill="#000000" font-family="sans-serif" font-size="14" lengthAdjust="spacing" textLength="277" x="587.5" y="520.1426">GamePlayersProvider gamePlayersProvider</text><polygon fill="none" points="578.5,525.2188,582.5,529.2188,578.5,533.2188,574.5,529.2188" style="stroke:#B38D22;stroke-width:1.0;"/><text fill="#000000" font-family="sans-serif" font-size="14" lengthAdjust="spacing" textLength="162" x="587.5" y="537.752">List&lt;GamePlayer&gt; results</text><line style="stroke:#181818;stroke-width:0.5;" x1="568.5" x2="869.5" y1="544.8281" y2="544.8281"/><ellipse cx="578.5" cy="555.8281" fill="#84BE84" rx="3" ry="3" style="stroke:#038048;stroke-width:1.0;"/><text fill="#000000" font-family="sans-serif" font-size="14" lengthAdjust="spacing" textLength="84" x="587.5" y="563.3613">Introduction()</text><ellipse cx="578.5" cy="573.4375" fill="#84BE84" rx="3" ry="3" style="stroke:#038048;stroke-width:1.0;"/><text fill="#000000" font-family="sans-serif" font-size="14" lengthAdjust="spacing" textLength="62" x="587.5" y="580.9707">Resume()</text><ellipse cx="578.5" cy="591.0469" fill="#84BE84" rx="3" ry="3" style="stroke:#038048;stroke-width:1.0;"/><text fill="#000000" font-family="sans-serif" font-size="14" font-style="italic" lengthAdjust="spacing" textLength="60" x="587.5" y="598.5801">Execute()</text><polygon fill="#FFFF44" points="578.5,603.6563,582.5,607.6563,578.5,611.6563,574.5,607.6563" style="stroke:#B38D22;stroke-width:1.0;"/><text fill="#000000" font-family="sans-serif" font-size="14" lengthAdjust="spacing" textLength="264" x="587.5" y="616.1895">AssignRoles (GamePlayer[] gamePlayers)</text><polygon fill="#FFFF44" points="578.5,621.2656,582.5,625.2656,578.5,629.2656,574.5,625.2656" style="stroke:#B38D22;stroke-width:1.0;"/><text fill="#000000" font-family="sans-serif" font-size="14" lengthAdjust="spacing" textLength="240" x="587.5" y="633.7988">flipRoles (GamePlayer[] gamePlayers)</text></g><!--MD5=[b0359cb538a0ce2cb72f54394993c3c4]
class GamePlayer--><g id="elem_GamePlayer"><rect codeLine="40" fill="#F1F1F1" height="65.6094" id="GamePlayer" rx="2.5" ry="2.5" style="stroke:#181818;stroke-width:0.5;" width="141" x="576.5" y="701"/><ellipse cx="605.45" cy="717" fill="#B4A7E5" rx="11" ry="11" style="stroke:#181818;stroke-width:1.0;"/><path d="M606.4031,713.6406 L606.4031,720.2969 L608.1219,720.2969 Q608.7313,720.2969 608.9969,720.5313 Q609.2625,720.7656 609.2625,721.1563 Q609.2625,721.5313 608.9969,721.7656 Q608.7313,722 608.1219,722 L602.9813,722 Q602.3719,722 602.1063,721.7656 Q601.8406,721.5313 601.8406,721.1406 Q601.8406,720.7656 602.1063,720.5313 Q602.3719,720.2969 602.9813,720.2969 L604.7,720.2969 L604.7,713.6406 L602.9813,713.6406 Q602.3719,713.6406 602.1063,713.4063 Q601.8406,713.1719 601.8406,712.7813 Q601.8406,712.4063 602.1063,712.1719 Q602.3719,711.9375 602.9813,711.9375 L608.1219,711.9375 Q608.7313,711.9375 608.9969,712.1719 Q609.2625,712.4063 609.2625,712.7813 Q609.2625,713.1719 608.9969,713.4063 Q608.7313,713.6406 608.1219,713.6406 L606.4031,713.6406 Z " fill="#000000"/><text fill="#000000" font-family="sans-serif" font-size="14" font-style="italic" lengthAdjust="spacing" textLength="78" x="622.55" y="722.7285">GamePlayer</text><line style="stroke:#181818;stroke-width:0.5;" x1="577.5" x2="716.5" y1="733" y2="733"/><line style="stroke:#181818;stroke-width:0.5;" x1="577.5" x2="716.5" y1="741" y2="741"/><ellipse cx="587.5" cy="752" fill="#84BE84" rx="3" ry="3" style="stroke:#038048;stroke-width:1.0;"/><text fill="#000000" font-family="sans-serif" font-size="14" lengthAdjust="spacing" textLength="115" x="596.5" y="759.5332">processResult(int)</text></g><!--MD5=[26178a7f5ccfc2a33ee17310fc2a0bb3]
class GamePlayersProvider--><g id="elem_GamePlayersProvider"><rect codeLine="43" fill="#F1F1F1" height="65.6094" id="GamePlayersProvider" rx="2.5" ry="2.5" style="stroke:#181818;stroke-width:0.5;" width="254" x="278" y="513.5"/><ellipse cx="332.25" cy="529.5" fill="#B4A7E5" rx="11" ry="11" style="stroke:#181818;stroke-width:1.0;"/><path d="M333.2031,526.1406 L333.2031,532.7969 L334.9219,532.7969 Q335.5313,532.7969 335.7969,533.0313 Q336.0625,533.2656 336.0625,533.6563 Q336.0625,534.0313 335.7969,534.2656 Q335.5313,534.5 334.9219,534.5 L329.7813,534.5 Q329.1719,534.5 328.9063,534.2656 Q328.6406,534.0313 328.6406,533.6406 Q328.6406,533.2656 328.9063,533.0313 Q329.1719,532.7969 329.7813,532.7969 L331.5,532.7969 L331.5,526.1406 L329.7813,526.1406 Q329.1719,526.1406 328.9063,525.9063 Q328.6406,525.6719 328.6406,525.2813 Q328.6406,524.9063 328.9063,524.6719 Q329.1719,524.4375 329.7813,524.4375 L334.9219,524.4375 Q335.5313,524.4375 335.7969,524.6719 Q336.0625,524.9063 336.0625,525.2813 Q336.0625,525.6719 335.7969,525.9063 Q335.5313,526.1406 334.9219,526.1406 L333.2031,526.1406 Z " fill="#000000"/><text fill="#000000" font-family="sans-serif" font-size="14" font-style="italic" lengthAdjust="spacing" textLength="137" x="352.75" y="535.2285">GamePlayersProvider</text><line style="stroke:#181818;stroke-width:0.5;" x1="279" x2="531" y1="545.5" y2="545.5"/><line style="stroke:#181818;stroke-width:0.5;" x1="279" x2="531" y1="553.5" y2="553.5"/><ellipse cx="289" cy="564.5" fill="#84BE84" rx="3" ry="3" style="stroke:#038048;stroke-width:1.0;"/><text fill="#000000" font-family="sans-serif" font-size="14" lengthAdjust="spacing" textLength="228" x="298" y="572.0332">getGamePlayers(int) : GamePlayer[]</text></g><!--MD5=[36f719b1cbc3f26b5758ea249b208fb4]
class TicTacToe--><g id="elem_TicTacToe"><rect codeLine="24" fill="#F1F1F1" height="48" id="TicTacToe" rx="2.5" ry="2.5" style="stroke:#181818;stroke-width:0.5;" width="100" x="432" y="710"/><ellipse cx="447" cy="726" fill="#ADD1B2" rx="11" ry="11" style="stroke:#181818;stroke-width:1.0;"/><path d="M449.7656,721.875 Q449.9219,721.6563 450.1094,721.5469 Q450.2969,721.4375 450.5156,721.4375 Q450.8906,721.4375 451.125,721.7031 Q451.3594,721.9531 451.3594,722.5625 L451.3594,724.0156 Q451.3594,724.625 451.125,724.8906 Q450.8906,725.1563 450.5156,725.1563 Q450.1719,725.1563 449.9688,724.9531 Q449.7656,724.7656 449.6563,724.25 Q449.6094,723.8906 449.4219,723.7031 Q449.0938,723.3281 448.4844,723.1094 Q447.875,722.8906 447.25,722.8906 Q446.4844,722.8906 445.8438,723.2188 Q445.2188,723.5469 444.7188,724.2969 Q444.2344,725.0469 444.2344,726.0781 L444.2344,727.1719 Q444.2344,728.4063 445.125,729.2344 Q446.0156,730.0469 447.6094,730.0469 Q448.5469,730.0469 449.2031,729.7969 Q449.5938,729.6406 450.0156,729.2031 Q450.2813,728.9375 450.4219,728.8594 Q450.5781,728.7813 450.7813,728.7813 Q451.1094,728.7813 451.3594,729.0469 Q451.625,729.2969 451.625,729.6406 Q451.625,729.9844 451.2813,730.3906 Q450.7813,730.9688 449.9844,731.2969 Q448.9063,731.75 447.6094,731.75 Q446.0938,731.75 444.8906,731.125 Q443.9063,730.625 443.2188,729.5625 Q442.5313,728.4844 442.5313,727.2031 L442.5313,726.0469 Q442.5313,724.7188 443.1406,723.5781 Q443.7656,722.4219 444.8594,721.8125 Q445.9531,721.1875 447.1875,721.1875 Q447.9219,721.1875 448.5625,721.3594 Q449.2188,721.5156 449.7656,721.875 Z " fill="#000000"/><text fill="#000000" font-family="sans-serif" font-size="14" lengthAdjust="spacing" textLength="68" x="461" y="731.7285">TicTacToe</text><line style="stroke:#181818;stroke-width:0.5;" x1="433" x2="531" y1="742" y2="742"/><line style="stroke:#181818;stroke-width:0.5;" x1="433" x2="531" y1="750" y2="750"/></g><!--MD5=[52855fec3bcd5e41561eba29dc142e36]
class TicTacToePlayer--><g id="elem_TicTacToePlayer"><rect codeLine="27" fill="#F1F1F1" height="48" id="TicTacToePlayer" rx="2.5" ry="2.5" style="stroke:#181818;stroke-width:0.5;" width="140" x="404" y="827"/><ellipse cx="419" cy="843" fill="#B4A7E5" rx="11" ry="11" style="stroke:#181818;stroke-width:1.0;"/><path d="M419.9531,839.6406 L419.9531,846.2969 L421.6719,846.2969 Q422.2813,846.2969 422.5469,846.5313 Q422.8125,846.7656 422.8125,847.1563 Q422.8125,847.5313 422.5469,847.7656 Q422.2813,848 421.6719,848 L416.5313,848 Q415.9219,848 415.6563,847.7656 Q415.3906,847.5313 415.3906,847.1406 Q415.3906,846.7656 415.6563,846.5313 Q415.9219,846.2969 416.5313,846.2969 L418.25,846.2969 L418.25,839.6406 L416.5313,839.6406 Q415.9219,839.6406 415.6563,839.4063 Q415.3906,839.1719 415.3906,838.7813 Q415.3906,838.4063 415.6563,838.1719 Q415.9219,837.9375 416.5313,837.9375 L421.6719,837.9375 Q422.2813,837.9375 422.5469,838.1719 Q422.8125,838.4063 422.8125,838.7813 Q422.8125,839.1719 422.5469,839.4063 Q422.2813,839.6406 421.6719,839.6406 L419.9531,839.6406 Z " fill="#000000"/><text fill="#000000" font-family="sans-serif" font-size="14" font-style="italic" lengthAdjust="spacing" textLength="108" x="433" y="848.7285">TicTacToePlayer</text><line style="stroke:#181818;stroke-width:0.5;" x1="405" x2="543" y1="859" y2="859"/><line style="stroke:#181818;stroke-width:0.5;" x1="405" x2="543" y1="867" y2="867"/></g><!--MD5=[d7731e51439e3250c63a8cdcafb59da5]
class HangMan--><g id="elem_HangMan"><rect codeLine="32" fill="#F1F1F1" height="48" id="HangMan" rx="2.5" ry="2.5" style="stroke:#181818;stroke-width:0.5;" width="92" x="762" y="710"/><ellipse cx="777" cy="726" fill="#ADD1B2" rx="11" ry="11" style="stroke:#181818;stroke-width:1.0;"/><path d="M779.7656,721.875 Q779.9219,721.6563 780.1094,721.5469 Q780.2969,721.4375 780.5156,721.4375 Q780.8906,721.4375 781.125,721.7031 Q781.3594,721.9531 781.3594,722.5625 L781.3594,724.0156 Q781.3594,724.625 781.125,724.8906 Q780.8906,725.1563 780.5156,725.1563 Q780.1719,725.1563 779.9688,724.9531 Q779.7656,724.7656 779.6563,724.25 Q779.6094,723.8906 779.4219,723.7031 Q779.0938,723.3281 778.4844,723.1094 Q777.875,722.8906 777.25,722.8906 Q776.4844,722.8906 775.8438,723.2188 Q775.2188,723.5469 774.7188,724.2969 Q774.2344,725.0469 774.2344,726.0781 L774.2344,727.1719 Q774.2344,728.4063 775.125,729.2344 Q776.0156,730.0469 777.6094,730.0469 Q778.5469,730.0469 779.2031,729.7969 Q779.5938,729.6406 780.0156,729.2031 Q780.2813,728.9375 780.4219,728.8594 Q780.5781,728.7813 780.7813,728.7813 Q781.1094,728.7813 781.3594,729.0469 Q781.625,729.2969 781.625,729.6406 Q781.625,729.9844 781.2813,730.3906 Q780.7813,730.9688 779.9844,731.2969 Q778.9063,731.75 777.6094,731.75 Q776.0938,731.75 774.8906,731.125 Q773.9063,730.625 773.2188,729.5625 Q772.5313,728.4844 772.5313,727.2031 L772.5313,726.0469 Q772.5313,724.7188 773.1406,723.5781 Q773.7656,722.4219 774.8594,721.8125 Q775.9531,721.1875 777.1875,721.1875 Q777.9219,721.1875 778.5625,721.3594 Q779.2188,721.5156 779.7656,721.875 Z " fill="#000000"/><text fill="#000000" font-family="sans-serif" font-size="14" lengthAdjust="spacing" textLength="60" x="791" y="731.7285">HangMan</text><line style="stroke:#181818;stroke-width:0.5;" x1="763" x2="853" y1="742" y2="742"/><line style="stroke:#181818;stroke-width:0.5;" x1="763" x2="853" y1="750" y2="750"/></g><!--MD5=[4fcb596d3bf48611d01498558103c6f0]
class HangManPlayer--><g id="elem_HangManPlayer"><rect codeLine="35" fill="#F1F1F1" height="48" id="HangManPlayer" rx="2.5" ry="2.5" style="stroke:#181818;stroke-width:0.5;" width="134" x="750" y="827"/><ellipse cx="765" cy="843" fill="#B4A7E5" rx="11" ry="11" style="stroke:#181818;stroke-width:1.0;"/><path d="M765.9531,839.6406 L765.9531,846.2969 L767.6719,846.2969 Q768.2813,846.2969 768.5469,846.5313 Q768.8125,846.7656 768.8125,847.1563 Q768.8125,847.5313 768.5469,847.7656 Q768.2813,848 767.6719,848 L762.5313,848 Q761.9219,848 761.6563,847.7656 Q761.3906,847.5313 761.3906,847.1406 Q761.3906,846.7656 761.6563,846.5313 Q761.9219,846.2969 762.5313,846.2969 L764.25,846.2969 L764.25,839.6406 L762.5313,839.6406 Q761.9219,839.6406 761.6563,839.4063 Q761.3906,839.1719 761.3906,838.7813 Q761.3906,838.4063 761.6563,838.1719 Q761.9219,837.9375 762.5313,837.9375 L767.6719,837.9375 Q768.2813,837.9375 768.5469,838.1719 Q768.8125,838.4063 768.8125,838.7813 Q768.8125,839.1719 768.5469,839.4063 Q768.2813,839.6406 767.6719,839.6406 L765.9531,839.6406 Z " fill="#000000"/><text fill="#000000" font-family="sans-serif" font-size="14" font-style="italic" lengthAdjust="spacing" textLength="102" x="779" y="848.7285">HangManPlayer</text><line style="stroke:#181818;stroke-width:0.5;" x1="751" x2="883" y1="859" y2="859"/><line style="stroke:#181818;stroke-width:0.5;" x1="751" x2="883" y1="867" y2="867"/></g><!--MD5=[f7a9ae25cb0ac60c5f03b7bfd778cce3]
class Dice--><g id="elem_Dice"><rect codeLine="48" fill="#F1F1F1" height="65.6094" id="Dice" rx="2.5" ry="2.5" style="stroke:#181818;stroke-width:0.5;" width="207" x="645.5" y="282"/><ellipse cx="730.75" cy="298" fill="#ADD1B2" rx="11" ry="11" style="stroke:#181818;stroke-width:1.0;"/><path d="M733.5156,293.875 Q733.6719,293.6563 733.8594,293.5469 Q734.0469,293.4375 734.2656,293.4375 Q734.6406,293.4375 734.875,293.7031 Q735.1094,293.9531 735.1094,294.5625 L735.1094,296.0156 Q735.1094,296.625 734.875,296.8906 Q734.6406,297.1563 734.2656,297.1563 Q733.9219,297.1563 733.7188,296.9531 Q733.5156,296.7656 733.4063,296.25 Q733.3594,295.8906 733.1719,295.7031 Q732.8438,295.3281 732.2344,295.1094 Q731.625,294.8906 731,294.8906 Q730.2344,294.8906 729.5938,295.2188 Q728.9688,295.5469 728.4688,296.2969 Q727.9844,297.0469 727.9844,298.0781 L727.9844,299.1719 Q727.9844,300.4063 728.875,301.2344 Q729.7656,302.0469 731.3594,302.0469 Q732.2969,302.0469 732.9531,301.7969 Q733.3438,301.6406 733.7656,301.2031 Q734.0313,300.9375 734.1719,300.8594 Q734.3281,300.7813 734.5313,300.7813 Q734.8594,300.7813 735.1094,301.0469 Q735.375,301.2969 735.375,301.6406 Q735.375,301.9844 735.0313,302.3906 Q734.5313,302.9688 733.7344,303.2969 Q732.6563,303.75 731.3594,303.75 Q729.8438,303.75 728.6406,303.125 Q727.6563,302.625 726.9688,301.5625 Q726.2813,300.4844 726.2813,299.2031 L726.2813,298.0469 Q726.2813,296.7188 726.8906,295.5781 Q727.5156,294.4219 728.6094,293.8125 Q729.7031,293.1875 730.9375,293.1875 Q731.6719,293.1875 732.3125,293.3594 Q732.9688,293.5156 733.5156,293.875 Z " fill="#000000"/><text fill="#000000" font-family="sans-serif" font-size="14" lengthAdjust="spacing" textLength="28" x="751.25" y="303.7285">Dice</text><line style="stroke:#181818;stroke-width:0.5;" x1="646.5" x2="851.5" y1="314" y2="314"/><line style="stroke:#181818;stroke-width:0.5;" x1="646.5" x2="851.5" y1="322" y2="322"/><ellipse cx="656.5" cy="333" fill="#84BE84" rx="3" ry="3" style="stroke:#038048;stroke-width:1.0;"/><text fill="#000000" font-family="sans-serif" font-size="14" lengthAdjust="spacing" textLength="181" x="665.5" y="340.5332">int generateValue(int bound)</text></g><!--MD5=[2cb47ba637a0d19583e6199456f6ad0b]
class Player--><g id="elem_Player"><rect codeLine="56" fill="#F1F1F1" height="171.2656" id="Player" rx="2.5" ry="2.5" style="stroke:#181818;stroke-width:0.5;" width="156" x="55" y="461"/><ellipse cx="108.75" cy="477" fill="#A9DCDF" rx="11" ry="11" style="stroke:#181818;stroke-width:1.0;"/><path d="M110.9375,478.7656 L106.7969,478.7656 L106.375,479.7969 L106.7969,479.7969 Q107.4063,479.7969 107.6719,480.0313 Q107.9375,480.2656 107.9375,480.6563 Q107.9375,481.0313 107.6719,481.2656 Q107.4063,481.5 106.7969,481.5 L104.5,481.5 Q103.8906,481.5 103.6406,481.2656 Q103.375,481.0313 103.375,480.6406 Q103.375,480.2656 103.6563,480.0313 Q103.9219,479.7813 104.5469,479.7969 L107.2188,473.1406 L106.1094,473.1406 Q105.5,473.1406 105.2344,472.9063 Q104.9688,472.6719 104.9688,472.2813 Q104.9688,471.9063 105.2344,471.6719 Q105.5,471.4375 106.1094,471.4375 L109.7813,471.4375 L113.1719,479.7969 Q113.7656,479.7969 113.9531,479.9375 Q114.3438,480.2031 114.3438,480.6563 Q114.3438,481.0313 114.0781,481.2656 Q113.8281,481.5 113.2188,481.5 L110.9219,481.5 Q110.3125,481.5 110.0469,481.2656 Q109.7813,481.0313 109.7813,480.6406 Q109.7813,480.2656 110.0469,480.0313 Q110.3125,479.7969 110.9219,479.7969 L111.3438,479.7969 L110.9375,478.7656 Z M110.2188,477.0625 L108.8594,473.6875 L107.4844,477.0625 L110.2188,477.0625 Z " fill="#000000"/><text fill="#000000" font-family="sans-serif" font-size="14" font-style="italic" lengthAdjust="spacing" textLength="40" x="129.25" y="482.7285">Player</text><line style="stroke:#181818;stroke-width:0.5;" x1="56" x2="210" y1="493" y2="493"/><ellipse cx="66" cy="504" fill="none" rx="3" ry="3" style="stroke:#038048;stroke-width:1.0;"/><text fill="#000000" font-family="sans-serif" font-size="14" lengthAdjust="spacing" textLength="30" x="75" y="511.5332">id int</text><ellipse cx="66" cy="521.6094" fill="none" rx="3" ry="3" style="stroke:#038048;stroke-width:1.0;"/><text fill="#000000" font-family="sans-serif" font-size="14" lengthAdjust="spacing" textLength="76" x="75" y="529.1426">name String</text><line style="stroke:#181818;stroke-width:0.5;" x1="56" x2="210" y1="536.2188" y2="536.2188"/><ellipse cx="66" cy="547.2188" fill="#84BE84" rx="3" ry="3" style="stroke:#038048;stroke-width:1.0;"/><text fill="#000000" font-family="sans-serif" font-size="14" lengthAdjust="spacing" textLength="130" x="75" y="554.752">Player (String name)</text><ellipse cx="66" cy="564.8281" fill="#84BE84" rx="3" ry="3" style="stroke:#038048;stroke-width:1.0;"/><text fill="#000000" font-family="sans-serif" font-size="14" lengthAdjust="spacing" textLength="41" x="75" y="572.3613">getId()</text><ellipse cx="66" cy="582.4375" fill="#84BE84" rx="3" ry="3" style="stroke:#038048;stroke-width:1.0;"/><text fill="#000000" font-family="sans-serif" font-size="14" lengthAdjust="spacing" textLength="40" x="75" y="589.9707">setId()</text><ellipse cx="66" cy="600.0469" fill="#84BE84" rx="3" ry="3" style="stroke:#038048;stroke-width:1.0;"/><text fill="#000000" font-family="sans-serif" font-size="14" lengthAdjust="spacing" textLength="66" x="75" y="607.5801">getName()</text><ellipse cx="66" cy="617.6563" fill="#84BE84" rx="3" ry="3" style="stroke:#038048;stroke-width:1.0;"/><text fill="#000000" font-family="sans-serif" font-size="14" lengthAdjust="spacing" textLength="65" x="75" y="625.1895">setName()</text></g><!--MD5=[82a37a108f28ded8fb022e1a5df25ae5]
class ListOfPlayers--><g id="elem_ListOfPlayers"><rect codeLine="65" fill="#F1F1F1" height="153.6563" id="ListOfPlayers" rx="2.5" ry="2.5" style="stroke:#181818;stroke-width:0.5;" width="199" x="22.5" y="238"/><ellipse cx="75.75" cy="254" fill="#ADD1B2" rx="11" ry="11" style="stroke:#181818;stroke-width:1.0;"/><path d="M78.5156,249.875 Q78.6719,249.6563 78.8594,249.5469 Q79.0469,249.4375 79.2656,249.4375 Q79.6406,249.4375 79.875,249.7031 Q80.1094,249.9531 80.1094,250.5625 L80.1094,252.0156 Q80.1094,252.625 79.875,252.8906 Q79.6406,253.1563 79.2656,253.1563 Q78.9219,253.1563 78.7188,252.9531 Q78.5156,252.7656 78.4063,252.25 Q78.3594,251.8906 78.1719,251.7031 Q77.8438,251.3281 77.2344,251.1094 Q76.625,250.8906 76,250.8906 Q75.2344,250.8906 74.5938,251.2188 Q73.9688,251.5469 73.4688,252.2969 Q72.9844,253.0469 72.9844,254.0781 L72.9844,255.1719 Q72.9844,256.4063 73.875,257.2344 Q74.7656,258.0469 76.3594,258.0469 Q77.2969,258.0469 77.9531,257.7969 Q78.3438,257.6406 78.7656,257.2031 Q79.0313,256.9375 79.1719,256.8594 Q79.3281,256.7813 79.5313,256.7813 Q79.8594,256.7813 80.1094,257.0469 Q80.375,257.2969 80.375,257.6406 Q80.375,257.9844 80.0313,258.3906 Q79.5313,258.9688 78.7344,259.2969 Q77.6563,259.75 76.3594,259.75 Q74.8438,259.75 73.6406,259.125 Q72.6563,258.625 71.9688,257.5625 Q71.2813,256.4844 71.2813,255.2031 L71.2813,254.0469 Q71.2813,252.7188 71.8906,251.5781 Q72.5156,250.4219 73.6094,249.8125 Q74.7031,249.1875 75.9375,249.1875 Q76.6719,249.1875 77.3125,249.3594 Q77.9688,249.5156 78.5156,249.875 Z " fill="#000000"/><text fill="#000000" font-family="sans-serif" font-size="14" lengthAdjust="spacing" textLength="84" x="96.25" y="259.7285">ListOfPlayers</text><line style="stroke:#181818;stroke-width:0.5;" x1="23.5" x2="220.5" y1="270" y2="270"/><ellipse cx="33.5" cy="281" fill="none" rx="3" ry="3" style="stroke:#038048;stroke-width:1.0;"/><text fill="#000000" font-family="sans-serif" font-size="14" lengthAdjust="spacing" textLength="150" x="42.5" y="288.5332">List&lt;Player&gt; playersList</text><line style="stroke:#181818;stroke-width:0.5;" x1="23.5" x2="220.5" y1="295.6094" y2="295.6094"/><ellipse cx="33.5" cy="306.6094" fill="#84BE84" rx="3" ry="3" style="stroke:#038048;stroke-width:1.0;"/><text fill="#000000" font-family="sans-serif" font-size="14" lengthAdjust="spacing" textLength="173" x="42.5" y="314.1426">createPlayer(Player player)</text><ellipse cx="33.5" cy="324.2188" fill="#84BE84" rx="3" ry="3" style="stroke:#038048;stroke-width:1.0;"/><text fill="#000000" font-family="sans-serif" font-size="14" lengthAdjust="spacing" textLength="100" x="42.5" y="331.752">getPlayer(int id)</text><ellipse cx="33.5" cy="341.8281" fill="#84BE84" rx="3" ry="3" style="stroke:#038048;stroke-width:1.0;"/><text fill="#000000" font-family="sans-serif" font-size="14" lengthAdjust="spacing" textLength="52" x="42.5" y="349.3613">getList()</text><ellipse cx="33.5" cy="359.4375" fill="#84BE84" rx="3" ry="3" style="stroke:#038048;stroke-width:1.0;"/><text fill="#000000" font-family="sans-serif" font-size="14" lengthAdjust="spacing" textLength="60" x="42.5" y="366.9707">printList()</text><ellipse cx="33.5" cy="377.0469" fill="#84BE84" rx="3" ry="3" style="stroke:#038048;stroke-width:1.0;"/><text fill="#000000" font-family="sans-serif" font-size="14" lengthAdjust="spacing" textLength="158" x="42.5" y="384.5801">getGamePlayers(int size)</text></g><!--MD5=[5f7a1d5056c7d80958fde22b7188240f]
class Bot--><g id="elem_Bot"><rect codeLine="73" fill="#F1F1F1" height="48" id="Bot" rx="2.5" ry="2.5" style="stroke:#181818;stroke-width:0.5;" width="53" x="150.5" y="710"/><ellipse cx="165.5" cy="726" fill="#ADD1B2" rx="11" ry="11" style="stroke:#181818;stroke-width:1.0;"/><path d="M168.2656,721.875 Q168.4219,721.6563 168.6094,721.5469 Q168.7969,721.4375 169.0156,721.4375 Q169.3906,721.4375 169.625,721.7031 Q169.8594,721.9531 169.8594,722.5625 L169.8594,724.0156 Q169.8594,724.625 169.625,724.8906 Q169.3906,725.1563 169.0156,725.1563 Q168.6719,725.1563 168.4688,724.9531 Q168.2656,724.7656 168.1563,724.25 Q168.1094,723.8906 167.9219,723.7031 Q167.5938,723.3281 166.9844,723.1094 Q166.375,722.8906 165.75,722.8906 Q164.9844,722.8906 164.3438,723.2188 Q163.7188,723.5469 163.2188,724.2969 Q162.7344,725.0469 162.7344,726.0781 L162.7344,727.1719 Q162.7344,728.4063 163.625,729.2344 Q164.5156,730.0469 166.1094,730.0469 Q167.0469,730.0469 167.7031,729.7969 Q168.0938,729.6406 168.5156,729.2031 Q168.7813,728.9375 168.9219,728.8594 Q169.0781,728.7813 169.2813,728.7813 Q169.6094,728.7813 169.8594,729.0469 Q170.125,729.2969 170.125,729.6406 Q170.125,729.9844 169.7813,730.3906 Q169.2813,730.9688 168.4844,731.2969 Q167.4063,731.75 166.1094,731.75 Q164.5938,731.75 163.3906,731.125 Q162.4063,730.625 161.7188,729.5625 Q161.0313,728.4844 161.0313,727.2031 L161.0313,726.0469 Q161.0313,724.7188 161.6406,723.5781 Q162.2656,722.4219 163.3594,721.8125 Q164.4531,721.1875 165.6875,721.1875 Q166.4219,721.1875 167.0625,721.3594 Q167.7188,721.5156 168.2656,721.875 Z " fill="#000000"/><text fill="#000000" font-family="sans-serif" font-size="14" lengthAdjust="spacing" textLength="21" x="179.5" y="731.7285">Bot</text><line style="stroke:#181818;stroke-width:0.5;" x1="151.5" x2="202.5" y1="742" y2="742"/><line style="stroke:#181818;stroke-width:0.5;" x1="151.5" x2="202.5" y1="750" y2="750"/></g><!--MD5=[2e69174041fa7eb3bebc5f460ee56291]
class Human--><g id="elem_Human"><rect codeLine="76" fill="#F1F1F1" height="48" id="Human" rx="2.5" ry="2.5" style="stroke:#181818;stroke-width:0.5;" width="76" x="39" y="710"/><ellipse cx="54" cy="726" fill="#ADD1B2" rx="11" ry="11" style="stroke:#181818;stroke-width:1.0;"/><path d="M56.7656,721.875 Q56.9219,721.6563 57.1094,721.5469 Q57.2969,721.4375 57.5156,721.4375 Q57.8906,721.4375 58.125,721.7031 Q58.3594,721.9531 58.3594,722.5625 L58.3594,724.0156 Q58.3594,724.625 58.125,724.8906 Q57.8906,725.1563 57.5156,725.1563 Q57.1719,725.1563 56.9688,724.9531 Q56.7656,724.7656 56.6563,724.25 Q56.6094,723.8906 56.4219,723.7031 Q56.0938,723.3281 55.4844,723.1094 Q54.875,722.8906 54.25,722.8906 Q53.4844,722.8906 52.8438,723.2188 Q52.2188,723.5469 51.7188,724.2969 Q51.2344,725.0469 51.2344,726.0781 L51.2344,727.1719 Q51.2344,728.4063 52.125,729.2344 Q53.0156,730.0469 54.6094,730.0469 Q55.5469,730.0469 56.2031,729.7969 Q56.5938,729.6406 57.0156,729.2031 Q57.2813,728.9375 57.4219,728.8594 Q57.5781,728.7813 57.7813,728.7813 Q58.1094,728.7813 58.3594,729.0469 Q58.625,729.2969 58.625,729.6406 Q58.625,729.9844 58.2813,730.3906 Q57.7813,730.9688 56.9844,731.2969 Q55.9063,731.75 54.6094,731.75 Q53.0938,731.75 51.8906,731.125 Q50.9063,730.625 50.2188,729.5625 Q49.5313,728.4844 49.5313,727.2031 L49.5313,726.0469 Q49.5313,724.7188 50.1406,723.5781 Q50.7656,722.4219 51.8594,721.8125 Q52.9531,721.1875 54.1875,721.1875 Q54.9219,721.1875 55.5625,721.3594 Q56.2188,721.5156 56.7656,721.875 Z " fill="#000000"/><text fill="#000000" font-family="sans-serif" font-size="14" lengthAdjust="spacing" textLength="44" x="68" y="731.7285">Human</text><line style="stroke:#181818;stroke-width:0.5;" x1="40" x2="114" y1="742" y2="742"/><line style="stroke:#181818;stroke-width:0.5;" x1="40" x2="114" y1="750" y2="750"/></g><!--MD5=[e10552ebcc634954ffb254e345666c67]
class GamesPlatform--><g id="elem_GamesPlatform"><rect codeLine="2" fill="#F1F1F1" height="171.2656" id="GamesPlatform" rx="2.5" ry="2.5" style="stroke:#181818;stroke-width:0.5;" width="193" x="173.5" y="7"/><ellipse cx="217.3" cy="23" fill="#ADD1B2" rx="11" ry="11" style="stroke:#181818;stroke-width:1.0;"/><path d="M220.0656,18.875 Q220.2219,18.6563 220.4094,18.5469 Q220.5969,18.4375 220.8156,18.4375 Q221.1906,18.4375 221.425,18.7031 Q221.6594,18.9531 221.6594,19.5625 L221.6594,21.0156 Q221.6594,21.625 221.425,21.8906 Q221.1906,22.1563 220.8156,22.1563 Q220.4719,22.1563 220.2688,21.9531 Q220.0656,21.7656 219.9563,21.25 Q219.9094,20.8906 219.7219,20.7031 Q219.3938,20.3281 218.7844,20.1094 Q218.175,19.8906 217.55,19.8906 Q216.7844,19.8906 216.1438,20.2188 Q215.5188,20.5469 215.0188,21.2969 Q214.5344,22.0469 214.5344,23.0781 L214.5344,24.1719 Q214.5344,25.4063 215.425,26.2344 Q216.3156,27.0469 217.9094,27.0469 Q218.8469,27.0469 219.5031,26.7969 Q219.8938,26.6406 220.3156,26.2031 Q220.5813,25.9375 220.7219,25.8594 Q220.8781,25.7813 221.0813,25.7813 Q221.4094,25.7813 221.6594,26.0469 Q221.925,26.2969 221.925,26.6406 Q221.925,26.9844 221.5813,27.3906 Q221.0813,27.9688 220.2844,28.2969 Q219.2063,28.75 217.9094,28.75 Q216.3938,28.75 215.1906,28.125 Q214.2063,27.625 213.5188,26.5625 Q212.8313,25.4844 212.8313,24.2031 L212.8313,23.0469 Q212.8313,21.7188 213.4406,20.5781 Q214.0656,19.4219 215.1594,18.8125 Q216.2531,18.1875 217.4875,18.1875 Q218.2219,18.1875 218.8625,18.3594 Q219.5188,18.5156 220.0656,18.875 Z " fill="#000000"/><text fill="#000000" font-family="sans-serif" font-size="14" lengthAdjust="spacing" textLength="97" x="237.7" y="28.7285">GamesPlatform</text><line style="stroke:#181818;stroke-width:0.5;" x1="174.5" x2="365.5" y1="39" y2="39"/><rect fill="none" height="6" style="stroke:#C82930;stroke-width:1.0;" width="6" x="181.5" y="47"/><text fill="#000000" font-family="sans-serif" font-size="14" lengthAdjust="spacing" textLength="167" x="193.5" y="57.5332">ListOfPlayers listOfPlayers</text><rect fill="none" height="6" style="stroke:#C82930;stroke-width:1.0;" width="6" x="181.5" y="64.6094"/><text fill="#000000" font-family="sans-serif" font-size="14" lengthAdjust="spacing" textLength="92" x="193.5" y="75.1426">Game[] games</text><line style="stroke:#181818;stroke-width:0.5;" x1="174.5" x2="365.5" y1="82.2188" y2="82.2188"/><ellipse cx="184.5" cy="93.2188" fill="#84BE84" rx="3" ry="3" style="stroke:#038048;stroke-width:1.0;"/><text fill="#000000" font-family="sans-serif" font-size="14" lengthAdjust="spacing" textLength="89" x="193.5" y="100.752">showPlayers()</text><ellipse cx="184.5" cy="110.8281" fill="#84BE84" rx="3" ry="3" style="stroke:#038048;stroke-width:1.0;"/><text fill="#000000" font-family="sans-serif" font-size="14" lengthAdjust="spacing" textLength="90" x="193.5" y="118.3613">createPlayer()</text><ellipse cx="184.5" cy="128.4375" fill="#84BE84" rx="3" ry="3" style="stroke:#038048;stroke-width:1.0;"/><text fill="#000000" font-family="sans-serif" font-size="14" lengthAdjust="spacing" textLength="151" x="193.5" y="135.9707">playGame(Game game)</text><ellipse cx="184.5" cy="146.0469" fill="#84BE84" rx="3" ry="3" style="stroke:#038048;stroke-width:1.0;"/><text fill="#000000" font-family="sans-serif" font-size="14" lengthAdjust="spacing" textLength="77" x="193.5" y="153.5801">showMenu()</text><ellipse cx="184.5" cy="163.6563" fill="#84BE84" rx="3" ry="3" style="stroke:#038048;stroke-width:1.0;"/><text fill="#000000" font-family="sans-serif" font-size="14" lengthAdjust="spacing" textLength="31" x="193.5" y="171.1895">run()</text></g><!--MD5=[0d127b7eaffccbf39ca499f660c3ff47]
reverse link GamesPlatform to Game--><g id="link_GamesPlatform_Game"><path codeLine="82" d="M363.42,187.54 C440.39,265.03 549.02,374.39 625.91,451.79 " fill="none" id="GamesPlatform-backto-Game" style="stroke:#181818;stroke-width:1.0;"/><polygon fill="#181818" points="354.19,178.25,355.5767,185.3265,362.6423,186.7682,361.2555,179.6917,354.19,178.25" style="stroke:#181818;stroke-width:1.0;"/><text fill="#000000" font-family="sans-serif" font-size="13" lengthAdjust="spacing" textLength="7" x="611.213" y="441.1194">2</text></g><!--MD5=[4f0b8b0aa154162cf8914066de6ffb6f]
reverse link GamesPlatform to ListOfPlayers--><g id="link_GamesPlatform_ListOfPlayers"><path codeLine="83" d="M205.7,189.29 C194.79,205.55 183.59,222.24 173.08,237.9 " fill="none" id="GamesPlatform-backto-ListOfPlayers" style="stroke:#181818;stroke-width:1.0;"/><polygon fill="#181818" points="213.2,178.12,206.536,180.8752,206.5162,188.0863,213.1802,185.3311,213.2,178.12" style="stroke:#181818;stroke-width:1.0;"/></g><!--MD5=[cd7b7cdda17f869f9fc85669e8e234a7]
reverse link Game to TicTacToe--><g id="link_Game_TicTacToe"><path codeLine="85" d="M551.26,652.87 C546.02,657.18 540.92,661.57 536,666 C521.57,679 507.87,696.08 497.88,709.73 " fill="none" id="Game-backto-TicTacToe" style="stroke:#181818;stroke-width:1.0;"/><polygon fill="none" points="547.31,647.07,567.33,640.13,556,658.04,547.31,647.07" style="stroke:#181818;stroke-width:1.0;"/></g><!--MD5=[c546b7854fad86f2e7b29095c925cc3f]
reverse link Game to HangMan--><g id="link_Game_HangMan"><path codeLine="86" d="M772.6,659.23 C781.77,678.34 790.41,696.33 796.85,709.76 " fill="none" id="Game-backto-HangMan" style="stroke:#181818;stroke-width:1.0;"/><polygon fill="none" points="766.23,662.13,763.89,641.07,778.85,656.07,766.23,662.13" style="stroke:#181818;stroke-width:1.0;"/></g><!--MD5=[593bbcbda1bd8166e08a1f52ab0f20e0]
link Game to GamePlayersProvider--><g id="link_Game_GamePlayersProvider"><path codeLine="87" d="M567.27,546.5 C557.33,546.5 547.39,546.5 537.45,546.5 " fill="none" id="Game-to-GamePlayersProvider" style="stroke:#181818;stroke-width:1.0;"/><polygon fill="#181818" points="532.26,546.5,541.26,550.5,537.26,546.5,541.26,542.5,532.26,546.5" style="stroke:#181818;stroke-width:1.0;"/></g><!--MD5=[de54c74c5a0f03a0d64afa4047f4dca6]
reverse link Player to Bot--><g id="link_Player_Bot"><path codeLine="89" d="M157.75,651.83 C162.93,673.66 167.9,694.63 171.49,709.78 " fill="none" id="Player-backto-Bot" style="stroke:#181818;stroke-width:1.0;"/><polygon fill="none" points="150.87,653.18,153.07,632.11,164.5,649.95,150.87,653.18" style="stroke:#181818;stroke-width:1.0;"/></g><!--MD5=[1a5e42fe08df60c271858a4aebb9d8af]
reverse link Player to Human--><g id="link_Player_Human"><path codeLine="90" d="M101.61,651.49 C94.98,673.45 88.61,694.55 84.01,709.78 " fill="none" id="Player-backto-Human" style="stroke:#181818;stroke-width:1.0;"/><polygon fill="none" points="94.98,649.23,107.46,632.11,108.38,653.28,94.98,649.23" style="stroke:#181818;stroke-width:1.0;"/></g><!--MD5=[0dbf6075fd374e69b7800e08cd38fc28]
link Player to GamePlayer--><g id="link_Player_GamePlayer"><path codeLine="91" d="M211,614.12 C227,624.79 244.37,634.45 262,641 C386.6,687.25 436.08,617.94 560,666 C573.65,671.29 586.94,679.44 598.86,688.26 " fill="none" id="Player-to-GamePlayer" style="stroke:#181818;stroke-width:1.0;stroke-dasharray:7.0,7.0;"/><polygon fill="none" points="603.45,682.97,614.69,700.93,594.7,693.89,603.45,682.97" style="stroke:#181818;stroke-width:1.0;"/></g><!--MD5=[68141e9e86f72c1320468e2ef129f5b1]
reverse link Game to GamePlayer--><g id="link_Game_GamePlayer"><path codeLine="93" d="M677.83,653.58 C671.19,670.67 664.8,687.14 659.57,700.6 " fill="none" id="Game-backto-GamePlayer" style="stroke:#181818;stroke-width:1.0;"/><polygon fill="#181818" points="682.68,641.07,676.7806,645.2169,678.3396,652.2575,684.239,648.1106,682.68,641.07" style="stroke:#181818;stroke-width:1.0;"/></g><!--MD5=[6765ed303bfadf62068277bd9461ef4c]
reverse link Dice to Game--><g id="link_Dice_Game"><path codeLine="96" d="M744.09,353.59 C740.6,380.29 735.75,417.36 731.25,451.81 " fill="none" id="Dice-backto-Game" style="stroke:#181818;stroke-width:1.0;stroke-dasharray:7.0,7.0;"/><polygon fill="#181818" points="744.77,348.39,739.6458,356.8008,744.127,353.3485,747.5793,357.8297,744.77,348.39" style="stroke:#181818;stroke-width:1.0;"/></g><!--MD5=[ce735c1cdd387ffa44cb012fb47a3a5a]
reverse link Dice to GamePlayer--><g id="link_Dice_GamePlayer"><path codeLine="97" d="M802.35,351.34 C833.74,375.5 870.59,410.6 888,452 C920.57,529.43 942.43,577.02 888,641 C843.07,693.81 797.63,638.45 734,666 C714.58,674.41 695.65,688.12 680.43,700.96 " fill="none" id="Dice-backto-GamePlayer" style="stroke:#181818;stroke-width:1.0;stroke-dasharray:7.0,7.0;"/><polygon fill="#181818" points="798.16,348.15,802.9059,356.78,802.1411,351.1751,807.746,350.4102,798.16,348.15" style="stroke:#181818;stroke-width:1.0;"/></g><!--MD5=[2833e1afc810982bc559a78da80cc4ee]
reverse link ListOfPlayers to Player--><g id="link_ListOfPlayers_Player"><path codeLine="99" d="M126.28,405.24 C127.15,423.54 128.08,442.76 128.94,460.9 " fill="none" id="ListOfPlayers-backto-Player" style="stroke:#181818;stroke-width:1.0;"/><polygon fill="#181818" points="125.65,392.1,121.9383,398.2825,126.2176,404.0866,129.9293,397.9041,125.65,392.1" style="stroke:#181818;stroke-width:1.0;"/></g><!--MD5=[46ba9c7d925c82f4e4391cfab8746e42]
link ListOfPlayers to GamePlayersProvider--><g id="link_ListOfPlayers_GamePlayersProvider"><path codeLine="100" d="M215.84,392.1 C260.23,428.1 311.7,469.84 349.74,500.69 " fill="none" id="ListOfPlayers-to-GamePlayersProvider" style="stroke:#181818;stroke-width:1.0;stroke-dasharray:7.0,7.0;"/><polygon fill="none" points="354.29,495.36,365.42,513.4,345.47,506.24,354.29,495.36" style="stroke:#181818;stroke-width:1.0;"/></g><!--MD5=[eaa24b4cc8088d78c8cc32e187f27c9c]
reverse link TicTacToe to TicTacToePlayer--><g id="link_TicTacToe_TicTacToePlayer"><path codeLine="102" d="M479.47,771.36 C478.21,789.48 476.72,810.87 475.62,826.76 " fill="none" id="TicTacToe-backto-TicTacToePlayer" style="stroke:#181818;stroke-width:1.0;"/><polygon fill="#181818" points="480.38,758.27,475.968,763.9739,479.5363,770.2403,483.9482,764.5364,480.38,758.27" style="stroke:#181818;stroke-width:1.0;"/></g><!--MD5=[15dfa4038ecb1d0265e5de62595b8206]
reverse link HangMan to HangManPlayer--><g id="link_HangMan_HangManPlayer"><path codeLine="103" d="M810.85,771.36 C812.26,789.48 813.94,810.87 815.18,826.76 " fill="none" id="HangMan-backto-HangManPlayer" style="stroke:#181818;stroke-width:1.0;"/><polygon fill="#181818" points="809.82,758.27,806.3004,764.5639,810.7565,770.2334,814.276,763.9395,809.82,758.27" style="stroke:#181818;stroke-width:1.0;"/></g><!--MD5=[f035fe94b578ef28dcd9ab9faba0353b]
link GamePlayer to TicTacToePlayer--><g id="link_GamePlayer_TicTacToePlayer"><path codeLine="105" d="M598.81,767.03 C576.02,782.18 548.79,800.28 525.59,815.71 " fill="none" id="GamePlayer-to-TicTacToePlayer" style="stroke:#181818;stroke-width:1.0;stroke-dasharray:7.0,7.0;"/><polygon fill="none" points="529.3,821.64,508.77,826.89,521.55,809.98,529.3,821.64" style="stroke:#181818;stroke-width:1.0;"/></g><!--MD5=[7b89c8d866bbdd88a385102d785eb496]
link GamePlayer to HangManPlayer--><g id="link_GamePlayer_HangManPlayer"><path codeLine="106" d="M694.35,767.03 C716.64,782.11 743.24,800.1 765.97,815.48 " fill="none" id="GamePlayer-to-HangManPlayer" style="stroke:#181818;stroke-width:1.0;stroke-dasharray:7.0,7.0;"/><polygon fill="none" points="770.19,809.88,782.83,826.89,762.34,821.48,770.19,809.88" style="stroke:#181818;stroke-width:1.0;"/></g><!--MD5=[81591e37a0f8be20e7de79cc26263e5c]
@startuml

class GamesPlatform {
    -ListOfPlayers listOfPlayers
    -Game[] games
    +showPlayers()
    +createPlayer()
    +playGame(Game game)
    +showMenu()
    +run()
}

package game {
    abstract class Game {
        # GamePlayer[] gamePlayers
        # GamePlayersProvider gamePlayersProvider
        # List<GamePlayer> results
        + Introduction()
        + Resume()
        + {abstract}Execute()
        # AssignRoles (GamePlayer[] gamePlayers)
        # flipRoles (GamePlayer[] gamePlayers)
    }
    package tictactoe {
        class TicTacToe {

        }
        interface TicTacToePlayer {

        }
    }
    package hangman {
        class HangMan {

        }
        interface HangManPlayer{

        }
    }

    interface GamePlayer {
        + processResult(int)
    }
    interface GamePlayersProvider {
        + getGamePlayers(int) : GamePlayer[]
    }

    package utils {
        class Dice{
            + int generateValue(int bound)
        }
    }

}

package player {
    abstract class Player {
        +id int
        +name String
        +Player (String name)
        +getId()
        +setId()
        +getName()
        +setName()
    }
    class ListOfPlayers {
        +List<Player> playersList
        +createPlayer(Player player)
        +getPlayer(int id)
        +getList()
        +printList()
        +getGamePlayers(int size)
    }
    class Bot {

    }
    class Human {

    }
}


GamesPlatform *- - "2" Game
GamesPlatform *- - ListOfPlayers

Game <|- - TicTacToe
Game <|- - HangMan
Game -right-> GamePlayersProvider

Player <|- - Bot
Player <|- - Human
Player ..|> GamePlayer

Game *- - GamePlayer


Dice <.. Game
Dice <.. GamePlayer

ListOfPlayers *- - Player
ListOfPlayers ..|> GamePlayersProvider

TicTacToe *- - TicTacToePlayer
HangMan *- - HangManPlayer

GamePlayer ..|> TicTacToePlayer
GamePlayer ..|> HangManPlayer

@enduml

PlantUML version 1.2022.5(Sat Apr 30 04:55:52 CST 2022)
(GPL source distribution)
Java Runtime: Java(TM) SE Runtime Environment
JVM: Java HotSpot(TM) 64-Bit Server VM
Default Encoding: Cp1252
Language: en
Country: US
--></g></svg>