<?xml version="1.0" encoding="UTF-8" standalone="no"?><svg xmlns="http://www.w3.org/2000/svg" xmlns:xlink="http://www.w3.org/1999/xlink" contentStyleType="text/css" height="1501px" preserveAspectRatio="none" style="width:923px;height:1501px;background:#FFFFFF;" version="1.1" viewBox="0 0 923 1501" width="923px" zoomAndPan="magnify"><defs/><g><!--MD5=[42603eecb267091c13893a16d8c379fb]
cluster player--><g id="cluster_player"><path d="M69.1,6 L113.1,6 A3.75,3.75 0 0 1 115.6,8.5 L122.6,29.6094 L306.1,29.6094 A2.5,2.5 0 0 1 308.6,32.1094 L308.6,628 A2.5,2.5 0 0 1 306.1,630.5 L69.1,630.5 A2.5,2.5 0 0 1 66.6,628 L66.6,8.5 A2.5,2.5 0 0 1 69.1,6 " style="stroke:#000000;stroke-width:1.5;fill:none;"/><line style="stroke:#000000;stroke-width:1.5;fill:none;" x1="66.6" x2="122.6" y1="29.6094" y2="29.6094"/><text fill="#000000" font-family="sans-serif" font-size="14" font-weight="bold" lengthAdjust="spacing" textLength="43" x="70.6" y="22.5332">player</text></g><!--MD5=[3e81cc6ee7da4fa8b6adc12b329096f6]
cluster util--><g id="cluster_util"><path d="M335.1,512.5 L358.1,512.5 A3.75,3.75 0 0 1 360.6,515 L367.6,536.1094 L554.1,536.1094 A2.5,2.5 0 0 1 556.6,538.6094 L556.6,628 A2.5,2.5 0 0 1 554.1,630.5 L335.1,630.5 A2.5,2.5 0 0 1 332.6,628 L332.6,515 A2.5,2.5 0 0 1 335.1,512.5 " style="stroke:#000000;stroke-width:1.5;fill:none;"/><line style="stroke:#000000;stroke-width:1.5;fill:none;" x1="332.6" x2="367.6" y1="536.1094" y2="536.1094"/><text fill="#000000" font-family="sans-serif" font-size="14" font-weight="bold" lengthAdjust="spacing" textLength="22" x="336.6" y="529.0332">util</text></g><!--MD5=[897ec0ebfd0fc927406c2620cf205ed0]
cluster ttt--><g id="cluster_ttt"><path d="M583.1,451 L599.1,451 A3.75,3.75 0 0 1 601.6,453.5 L608.6,474.6094 L914.1,474.6094 A2.5,2.5 0 0 1 916.6,477.1094 L916.6,1491.5 A2.5,2.5 0 0 1 914.1,1494 L583.1,1494 A2.5,2.5 0 0 1 580.6,1491.5 L580.6,453.5 A2.5,2.5 0 0 1 583.1,451 " style="stroke:#000000;stroke-width:1.5;fill:none;"/><line style="stroke:#000000;stroke-width:1.5;fill:none;" x1="580.6" x2="608.6" y1="474.6094" y2="474.6094"/><text fill="#000000" font-family="sans-serif" font-size="14" font-weight="bold" lengthAdjust="spacing" textLength="15" x="584.6" y="467.5332">ttt</text></g><!--MD5=[2cb47ba637a0d19583e6199456f6ad0b]
class Player--><g id="elem_Player"><rect codeLine="3" fill="#F1F1F1" height="171.2656" id="Player" rx="2.5" ry="2.5" style="stroke:#181818;stroke-width:0.5;" width="156" x="95.6" y="256"/><ellipse cx="149.35" cy="272" fill="#A9DCDF" rx="11" ry="11" style="stroke:#181818;stroke-width:1.0;"/><path d="M151.5375,273.7656 L147.3969,273.7656 L146.975,274.7969 L147.3969,274.7969 Q148.0063,274.7969 148.2719,275.0313 Q148.5375,275.2656 148.5375,275.6563 Q148.5375,276.0313 148.2719,276.2656 Q148.0063,276.5 147.3969,276.5 L145.1,276.5 Q144.4906,276.5 144.2406,276.2656 Q143.975,276.0313 143.975,275.6406 Q143.975,275.2656 144.2563,275.0313 Q144.5219,274.7813 145.1469,274.7969 L147.8188,268.1406 L146.7094,268.1406 Q146.1,268.1406 145.8344,267.9063 Q145.5688,267.6719 145.5688,267.2813 Q145.5688,266.9063 145.8344,266.6719 Q146.1,266.4375 146.7094,266.4375 L150.3813,266.4375 L153.7719,274.7969 Q154.3656,274.7969 154.5531,274.9375 Q154.9438,275.2031 154.9438,275.6563 Q154.9438,276.0313 154.6781,276.2656 Q154.4281,276.5 153.8188,276.5 L151.5219,276.5 Q150.9125,276.5 150.6469,276.2656 Q150.3813,276.0313 150.3813,275.6406 Q150.3813,275.2656 150.6469,275.0313 Q150.9125,274.7969 151.5219,274.7969 L151.9438,274.7969 L151.5375,273.7656 Z M150.8188,272.0625 L149.4594,268.6875 L148.0844,272.0625 L150.8188,272.0625 Z " fill="#000000"/><text fill="#000000" font-family="sans-serif" font-size="14" font-style="italic" lengthAdjust="spacing" textLength="40" x="169.85" y="277.7285">Player</text><line style="stroke:#181818;stroke-width:0.5;" x1="96.6" x2="250.6" y1="288" y2="288"/><ellipse cx="106.6" cy="299" fill="none" rx="3" ry="3" style="stroke:#038048;stroke-width:1.0;"/><text fill="#000000" font-family="sans-serif" font-size="14" lengthAdjust="spacing" textLength="30" x="115.6" y="306.5332">id int</text><ellipse cx="106.6" cy="316.6094" fill="none" rx="3" ry="3" style="stroke:#038048;stroke-width:1.0;"/><text fill="#000000" font-family="sans-serif" font-size="14" lengthAdjust="spacing" textLength="76" x="115.6" y="324.1426">name String</text><line style="stroke:#181818;stroke-width:0.5;" x1="96.6" x2="250.6" y1="331.2188" y2="331.2188"/><ellipse cx="106.6" cy="342.2188" fill="#84BE84" rx="3" ry="3" style="stroke:#038048;stroke-width:1.0;"/><text fill="#000000" font-family="sans-serif" font-size="14" lengthAdjust="spacing" textLength="130" x="115.6" y="349.752">Player (String name)</text><ellipse cx="106.6" cy="359.8281" fill="#84BE84" rx="3" ry="3" style="stroke:#038048;stroke-width:1.0;"/><text fill="#000000" font-family="sans-serif" font-size="14" lengthAdjust="spacing" textLength="41" x="115.6" y="367.3613">getId()</text><ellipse cx="106.6" cy="377.4375" fill="#84BE84" rx="3" ry="3" style="stroke:#038048;stroke-width:1.0;"/><text fill="#000000" font-family="sans-serif" font-size="14" lengthAdjust="spacing" textLength="40" x="115.6" y="384.9707">setId()</text><ellipse cx="106.6" cy="395.0469" fill="#84BE84" rx="3" ry="3" style="stroke:#038048;stroke-width:1.0;"/><text fill="#000000" font-family="sans-serif" font-size="14" lengthAdjust="spacing" textLength="66" x="115.6" y="402.5801">getName()</text><ellipse cx="106.6" cy="412.6563" fill="#84BE84" rx="3" ry="3" style="stroke:#038048;stroke-width:1.0;"/><text fill="#000000" font-family="sans-serif" font-size="14" lengthAdjust="spacing" textLength="65" x="115.6" y="420.1895">setName()</text></g><!--MD5=[82a37a108f28ded8fb022e1a5df25ae5]
class ListOfPlayers--><g id="elem_ListOfPlayers"><rect codeLine="12" fill="#F1F1F1" height="153.6563" id="ListOfPlayers" rx="2.5" ry="2.5" style="stroke:#181818;stroke-width:0.5;" width="199" x="88.1" y="42"/><ellipse cx="141.35" cy="58" fill="#ADD1B2" rx="11" ry="11" style="stroke:#181818;stroke-width:1.0;"/><path d="M144.1156,53.875 Q144.2719,53.6563 144.4594,53.5469 Q144.6469,53.4375 144.8656,53.4375 Q145.2406,53.4375 145.475,53.7031 Q145.7094,53.9531 145.7094,54.5625 L145.7094,56.0156 Q145.7094,56.625 145.475,56.8906 Q145.2406,57.1563 144.8656,57.1563 Q144.5219,57.1563 144.3188,56.9531 Q144.1156,56.7656 144.0063,56.25 Q143.9594,55.8906 143.7719,55.7031 Q143.4438,55.3281 142.8344,55.1094 Q142.225,54.8906 141.6,54.8906 Q140.8344,54.8906 140.1938,55.2188 Q139.5688,55.5469 139.0688,56.2969 Q138.5844,57.0469 138.5844,58.0781 L138.5844,59.1719 Q138.5844,60.4063 139.475,61.2344 Q140.3656,62.0469 141.9594,62.0469 Q142.8969,62.0469 143.5531,61.7969 Q143.9438,61.6406 144.3656,61.2031 Q144.6313,60.9375 144.7719,60.8594 Q144.9281,60.7813 145.1313,60.7813 Q145.4594,60.7813 145.7094,61.0469 Q145.975,61.2969 145.975,61.6406 Q145.975,61.9844 145.6313,62.3906 Q145.1313,62.9688 144.3344,63.2969 Q143.2563,63.75 141.9594,63.75 Q140.4438,63.75 139.2406,63.125 Q138.2563,62.625 137.5688,61.5625 Q136.8813,60.4844 136.8813,59.2031 L136.8813,58.0469 Q136.8813,56.7188 137.4906,55.5781 Q138.1156,54.4219 139.2094,53.8125 Q140.3031,53.1875 141.5375,53.1875 Q142.2719,53.1875 142.9125,53.3594 Q143.5688,53.5156 144.1156,53.875 Z " fill="#000000"/><text fill="#000000" font-family="sans-serif" font-size="14" lengthAdjust="spacing" textLength="84" x="161.85" y="63.7285">ListOfPlayers</text><line style="stroke:#181818;stroke-width:0.5;" x1="89.1" x2="286.1" y1="74" y2="74"/><ellipse cx="99.1" cy="85" fill="none" rx="3" ry="3" style="stroke:#038048;stroke-width:1.0;"/><text fill="#000000" font-family="sans-serif" font-size="14" lengthAdjust="spacing" textLength="150" x="108.1" y="92.5332">List&lt;Player&gt; playersList</text><line style="stroke:#181818;stroke-width:0.5;" x1="89.1" x2="286.1" y1="99.6094" y2="99.6094"/><ellipse cx="99.1" cy="110.6094" fill="#84BE84" rx="3" ry="3" style="stroke:#038048;stroke-width:1.0;"/><text fill="#000000" font-family="sans-serif" font-size="14" lengthAdjust="spacing" textLength="173" x="108.1" y="118.1426">createPlayer(Player player)</text><ellipse cx="99.1" cy="128.2188" fill="#84BE84" rx="3" ry="3" style="stroke:#038048;stroke-width:1.0;"/><text fill="#000000" font-family="sans-serif" font-size="14" lengthAdjust="spacing" textLength="100" x="108.1" y="135.752">getPlayer(int id)</text><ellipse cx="99.1" cy="145.8281" fill="#84BE84" rx="3" ry="3" style="stroke:#038048;stroke-width:1.0;"/><text fill="#000000" font-family="sans-serif" font-size="14" lengthAdjust="spacing" textLength="52" x="108.1" y="153.3613">getList()</text><ellipse cx="99.1" cy="163.4375" fill="#84BE84" rx="3" ry="3" style="stroke:#038048;stroke-width:1.0;"/><text fill="#000000" font-family="sans-serif" font-size="14" lengthAdjust="spacing" textLength="60" x="108.1" y="170.9707">printList()</text><ellipse cx="99.1" cy="181.0469" fill="#84BE84" rx="3" ry="3" style="stroke:#038048;stroke-width:1.0;"/><text fill="#000000" font-family="sans-serif" font-size="14" lengthAdjust="spacing" textLength="158" x="108.1" y="188.5801">getGamePlayers(int size)</text></g><!--MD5=[2e69174041fa7eb3bebc5f460ee56291]
class Human--><g id="elem_Human"><rect codeLine="20" fill="#F1F1F1" height="65.6094" id="Human" rx="2.5" ry="2.5" style="stroke:#181818;stroke-width:0.5;" width="87" x="83.1" y="548.5"/><ellipse cx="103.05" cy="564.5" fill="#ADD1B2" rx="11" ry="11" style="stroke:#181818;stroke-width:1.0;"/><path d="M105.8156,560.375 Q105.9719,560.1563 106.1594,560.0469 Q106.3469,559.9375 106.5656,559.9375 Q106.9406,559.9375 107.175,560.2031 Q107.4094,560.4531 107.4094,561.0625 L107.4094,562.5156 Q107.4094,563.125 107.175,563.3906 Q106.9406,563.6563 106.5656,563.6563 Q106.2219,563.6563 106.0188,563.4531 Q105.8156,563.2656 105.7063,562.75 Q105.6594,562.3906 105.4719,562.2031 Q105.1438,561.8281 104.5344,561.6094 Q103.925,561.3906 103.3,561.3906 Q102.5344,561.3906 101.8938,561.7188 Q101.2688,562.0469 100.7688,562.7969 Q100.2844,563.5469 100.2844,564.5781 L100.2844,565.6719 Q100.2844,566.9063 101.175,567.7344 Q102.0656,568.5469 103.6594,568.5469 Q104.5969,568.5469 105.2531,568.2969 Q105.6438,568.1406 106.0656,567.7031 Q106.3313,567.4375 106.4719,567.3594 Q106.6281,567.2813 106.8313,567.2813 Q107.1594,567.2813 107.4094,567.5469 Q107.675,567.7969 107.675,568.1406 Q107.675,568.4844 107.3313,568.8906 Q106.8313,569.4688 106.0344,569.7969 Q104.9563,570.25 103.6594,570.25 Q102.1438,570.25 100.9406,569.625 Q99.9563,569.125 99.2688,568.0625 Q98.5813,566.9844 98.5813,565.7031 L98.5813,564.5469 Q98.5813,563.2188 99.1906,562.0781 Q99.8156,560.9219 100.9094,560.3125 Q102.0031,559.6875 103.2375,559.6875 Q103.9719,559.6875 104.6125,559.8594 Q105.2688,560.0156 105.8156,560.375 Z " fill="#000000"/><text fill="#000000" font-family="sans-serif" font-size="14" lengthAdjust="spacing" textLength="44" x="118.15" y="570.2285">Human</text><line style="stroke:#181818;stroke-width:0.5;" x1="84.1" x2="169.1" y1="580.5" y2="580.5"/><line style="stroke:#181818;stroke-width:0.5;" x1="84.1" x2="169.1" y1="588.5" y2="588.5"/><ellipse cx="94.1" cy="599.5" fill="#84BE84" rx="3" ry="3" style="stroke:#038048;stroke-width:1.0;"/><text fill="#000000" font-family="sans-serif" font-size="14" lengthAdjust="spacing" textLength="61" x="103.1" y="607.0332">putMark()</text></g><!--MD5=[5f7a1d5056c7d80958fde22b7188240f]
class Bot--><g id="elem_Bot"><rect codeLine="23" fill="#F1F1F1" height="65.6094" id="Bot" rx="2.5" ry="2.5" style="stroke:#181818;stroke-width:0.5;" width="87" x="205.1" y="548.5"/><ellipse cx="235.4" cy="564.5" fill="#ADD1B2" rx="11" ry="11" style="stroke:#181818;stroke-width:1.0;"/><path d="M238.1656,560.375 Q238.3219,560.1563 238.5094,560.0469 Q238.6969,559.9375 238.9156,559.9375 Q239.2906,559.9375 239.525,560.2031 Q239.7594,560.4531 239.7594,561.0625 L239.7594,562.5156 Q239.7594,563.125 239.525,563.3906 Q239.2906,563.6563 238.9156,563.6563 Q238.5719,563.6563 238.3688,563.4531 Q238.1656,563.2656 238.0563,562.75 Q238.0094,562.3906 237.8219,562.2031 Q237.4938,561.8281 236.8844,561.6094 Q236.275,561.3906 235.65,561.3906 Q234.8844,561.3906 234.2438,561.7188 Q233.6188,562.0469 233.1188,562.7969 Q232.6344,563.5469 232.6344,564.5781 L232.6344,565.6719 Q232.6344,566.9063 233.525,567.7344 Q234.4156,568.5469 236.0094,568.5469 Q236.9469,568.5469 237.6031,568.2969 Q237.9938,568.1406 238.4156,567.7031 Q238.6813,567.4375 238.8219,567.3594 Q238.9781,567.2813 239.1813,567.2813 Q239.5094,567.2813 239.7594,567.5469 Q240.025,567.7969 240.025,568.1406 Q240.025,568.4844 239.6813,568.8906 Q239.1813,569.4688 238.3844,569.7969 Q237.3063,570.25 236.0094,570.25 Q234.4938,570.25 233.2906,569.625 Q232.3063,569.125 231.6188,568.0625 Q230.9313,566.9844 230.9313,565.7031 L230.9313,564.5469 Q230.9313,563.2188 231.5406,562.0781 Q232.1656,560.9219 233.2594,560.3125 Q234.3531,559.6875 235.5875,559.6875 Q236.3219,559.6875 236.9625,559.8594 Q237.6188,560.0156 238.1656,560.375 Z " fill="#000000"/><text fill="#000000" font-family="sans-serif" font-size="14" lengthAdjust="spacing" textLength="21" x="252.8" y="570.2285">Bot</text><line style="stroke:#181818;stroke-width:0.5;" x1="206.1" x2="291.1" y1="580.5" y2="580.5"/><line style="stroke:#181818;stroke-width:0.5;" x1="206.1" x2="291.1" y1="588.5" y2="588.5"/><ellipse cx="216.1" cy="599.5" fill="#84BE84" rx="3" ry="3" style="stroke:#038048;stroke-width:1.0;"/><text fill="#000000" font-family="sans-serif" font-size="14" lengthAdjust="spacing" textLength="61" x="225.1" y="607.0332">putMark()</text></g><!--MD5=[f7a9ae25cb0ac60c5f03b7bfd778cce3]
class Dice--><g id="elem_Dice"><rect codeLine="36" fill="#F1F1F1" height="65.6094" id="Dice" rx="2.5" ry="2.5" style="stroke:#181818;stroke-width:0.5;" width="192" x="348.6" y="548.5"/><ellipse cx="426.35" cy="564.5" fill="#ADD1B2" rx="11" ry="11" style="stroke:#181818;stroke-width:1.0;"/><path d="M429.1156,560.375 Q429.2719,560.1563 429.4594,560.0469 Q429.6469,559.9375 429.8656,559.9375 Q430.2406,559.9375 430.475,560.2031 Q430.7094,560.4531 430.7094,561.0625 L430.7094,562.5156 Q430.7094,563.125 430.475,563.3906 Q430.2406,563.6563 429.8656,563.6563 Q429.5219,563.6563 429.3188,563.4531 Q429.1156,563.2656 429.0063,562.75 Q428.9594,562.3906 428.7719,562.2031 Q428.4438,561.8281 427.8344,561.6094 Q427.225,561.3906 426.6,561.3906 Q425.8344,561.3906 425.1938,561.7188 Q424.5688,562.0469 424.0688,562.7969 Q423.5844,563.5469 423.5844,564.5781 L423.5844,565.6719 Q423.5844,566.9063 424.475,567.7344 Q425.3656,568.5469 426.9594,568.5469 Q427.8969,568.5469 428.5531,568.2969 Q428.9438,568.1406 429.3656,567.7031 Q429.6313,567.4375 429.7719,567.3594 Q429.9281,567.2813 430.1313,567.2813 Q430.4594,567.2813 430.7094,567.5469 Q430.975,567.7969 430.975,568.1406 Q430.975,568.4844 430.6313,568.8906 Q430.1313,569.4688 429.3344,569.7969 Q428.2563,570.25 426.9594,570.25 Q425.4438,570.25 424.2406,569.625 Q423.2563,569.125 422.5688,568.0625 Q421.8813,566.9844 421.8813,565.7031 L421.8813,564.5469 Q421.8813,563.2188 422.4906,562.0781 Q423.1156,560.9219 424.2094,560.3125 Q425.3031,559.6875 426.5375,559.6875 Q427.2719,559.6875 427.9125,559.8594 Q428.5688,560.0156 429.1156,560.375 Z " fill="#000000"/><text fill="#000000" font-family="sans-serif" font-size="14" lengthAdjust="spacing" textLength="28" x="446.85" y="570.2285">Dice</text><line style="stroke:#181818;stroke-width:0.5;" x1="349.6" x2="539.6" y1="580.5" y2="580.5"/><line style="stroke:#181818;stroke-width:0.5;" x1="349.6" x2="539.6" y1="588.5" y2="588.5"/><ellipse cx="359.6" cy="599.5" fill="#84BE84" rx="3" ry="3" style="stroke:#038048;stroke-width:1.0;"/><text fill="#000000" font-family="sans-serif" font-size="14" lengthAdjust="spacing" textLength="166" x="368.6" y="607.0332">generateValue (int bound)</text></g><!--MD5=[36f719b1cbc3f26b5758ea249b208fb4]
class TicTacToe--><g id="elem_TicTacToe"><rect codeLine="42" fill="#F1F1F1" height="188.875" id="TicTacToe" rx="2.5" ry="2.5" style="stroke:#181818;stroke-width:0.5;" width="303" x="597.1" y="487"/><ellipse cx="710.35" cy="503" fill="#ADD1B2" rx="11" ry="11" style="stroke:#181818;stroke-width:1.0;"/><path d="M713.1156,498.875 Q713.2719,498.6563 713.4594,498.5469 Q713.6469,498.4375 713.8656,498.4375 Q714.2406,498.4375 714.475,498.7031 Q714.7094,498.9531 714.7094,499.5625 L714.7094,501.0156 Q714.7094,501.625 714.475,501.8906 Q714.2406,502.1563 713.8656,502.1563 Q713.5219,502.1563 713.3187,501.9531 Q713.1156,501.7656 713.0062,501.25 Q712.9594,500.8906 712.7719,500.7031 Q712.4437,500.3281 711.8344,500.1094 Q711.225,499.8906 710.6,499.8906 Q709.8344,499.8906 709.1937,500.2188 Q708.5687,500.5469 708.0687,501.2969 Q707.5844,502.0469 707.5844,503.0781 L707.5844,504.1719 Q707.5844,505.4063 708.475,506.2344 Q709.3656,507.0469 710.9594,507.0469 Q711.8969,507.0469 712.5531,506.7969 Q712.9437,506.6406 713.3656,506.2031 Q713.6312,505.9375 713.7719,505.8594 Q713.9281,505.7813 714.1312,505.7813 Q714.4594,505.7813 714.7094,506.0469 Q714.975,506.2969 714.975,506.6406 Q714.975,506.9844 714.6312,507.3906 Q714.1312,507.9688 713.3344,508.2969 Q712.2562,508.75 710.9594,508.75 Q709.4437,508.75 708.2406,508.125 Q707.2562,507.625 706.5687,506.5625 Q705.8812,505.4844 705.8812,504.2031 L705.8812,503.0469 Q705.8812,501.7188 706.4906,500.5781 Q707.1156,499.4219 708.2094,498.8125 Q709.3031,498.1875 710.5375,498.1875 Q711.2719,498.1875 711.9125,498.3594 Q712.5687,498.5156 713.1156,498.875 Z " fill="#000000"/><text fill="#000000" font-family="sans-serif" font-size="14" lengthAdjust="spacing" textLength="68" x="730.85" y="508.7285">TicTacToe</text><line style="stroke:#181818;stroke-width:0.5;" x1="598.1" x2="899.1" y1="519" y2="519"/><polygon fill="none" points="608.1,525,612.1,529,608.1,533,604.1,529" style="stroke:#B38D22;stroke-width:1.0;"/><text fill="#000000" font-family="sans-serif" font-size="14" lengthAdjust="spacing" textLength="172" x="617.1" y="537.5332">GamePlayer[] gamePlayers</text><polygon fill="none" points="608.1,542.6094,612.1,546.6094,608.1,550.6094,604.1,546.6094" style="stroke:#B38D22;stroke-width:1.0;"/><text fill="#000000" font-family="sans-serif" font-size="14" lengthAdjust="spacing" textLength="277" x="617.1" y="555.1426">GamePlayersProvider gamePlayersProvider</text><polygon fill="none" points="608.1,560.2188,612.1,564.2188,608.1,568.2188,604.1,564.2188" style="stroke:#B38D22;stroke-width:1.0;"/><text fill="#000000" font-family="sans-serif" font-size="14" lengthAdjust="spacing" textLength="162" x="617.1" y="572.752">List&lt;GamePlayer&gt; results</text><line style="stroke:#181818;stroke-width:0.5;" x1="598.1" x2="899.1" y1="579.8281" y2="579.8281"/><ellipse cx="608.1" cy="590.8281" fill="#84BE84" rx="3" ry="3" style="stroke:#038048;stroke-width:1.0;"/><text fill="#000000" font-family="sans-serif" font-size="14" lengthAdjust="spacing" textLength="84" x="617.1" y="598.3613">Introduction()</text><ellipse cx="608.1" cy="608.4375" fill="#84BE84" rx="3" ry="3" style="stroke:#038048;stroke-width:1.0;"/><text fill="#000000" font-family="sans-serif" font-size="14" lengthAdjust="spacing" textLength="62" x="617.1" y="615.9707">Resume()</text><ellipse cx="608.1" cy="626.0469" fill="#84BE84" rx="3" ry="3" style="stroke:#038048;stroke-width:1.0;"/><text fill="#000000" font-family="sans-serif" font-size="14" lengthAdjust="spacing" textLength="60" x="617.1" y="633.5801">Execute()</text><polygon fill="#FFFF44" points="608.1,638.6563,612.1,642.6563,608.1,646.6563,604.1,642.6563" style="stroke:#B38D22;stroke-width:1.0;"/><text fill="#000000" font-family="sans-serif" font-size="14" lengthAdjust="spacing" textLength="264" x="617.1" y="651.1895">AssignRoles (GamePlayer[] gamePlayers)</text><polygon fill="#FFFF44" points="608.1,656.2656,612.1,660.2656,608.1,664.2656,604.1,660.2656" style="stroke:#B38D22;stroke-width:1.0;"/><text fill="#000000" font-family="sans-serif" font-size="14" lengthAdjust="spacing" textLength="240" x="617.1" y="668.7988">flipRoles (GamePlayer[] gamePlayers)</text></g><!--MD5=[52855fec3bcd5e41561eba29dc142e36]
class TicTacToePlayer--><g id="elem_TicTacToePlayer"><rect codeLine="52" fill="#F1F1F1" height="65.6094" id="TicTacToePlayer" rx="2.5" ry="2.5" style="stroke:#181818;stroke-width:0.5;" width="140" x="596.6" y="967"/><ellipse cx="611.6" cy="983" fill="#B4A7E5" rx="11" ry="11" style="stroke:#181818;stroke-width:1.0;"/><path d="M612.5531,979.6406 L612.5531,986.2969 L614.2719,986.2969 Q614.8812,986.2969 615.1469,986.5313 Q615.4125,986.7656 615.4125,987.1563 Q615.4125,987.5313 615.1469,987.7656 Q614.8812,988 614.2719,988 L609.1312,988 Q608.5219,988 608.2562,987.7656 Q607.9906,987.5313 607.9906,987.1406 Q607.9906,986.7656 608.2562,986.5313 Q608.5219,986.2969 609.1312,986.2969 L610.85,986.2969 L610.85,979.6406 L609.1312,979.6406 Q608.5219,979.6406 608.2562,979.4063 Q607.9906,979.1719 607.9906,978.7813 Q607.9906,978.4063 608.2562,978.1719 Q608.5219,977.9375 609.1312,977.9375 L614.2719,977.9375 Q614.8812,977.9375 615.1469,978.1719 Q615.4125,978.4063 615.4125,978.7813 Q615.4125,979.1719 615.1469,979.4063 Q614.8812,979.6406 614.2719,979.6406 L612.5531,979.6406 Z " fill="#000000"/><text fill="#000000" font-family="sans-serif" font-size="14" font-style="italic" lengthAdjust="spacing" textLength="108" x="625.6" y="988.7285">TicTacToePlayer</text><line style="stroke:#181818;stroke-width:0.5;" x1="597.6" x2="735.6" y1="999" y2="999"/><line style="stroke:#181818;stroke-width:0.5;" x1="597.6" x2="735.6" y1="1007" y2="1007"/><ellipse cx="607.6" cy="1018" fill="#84BE84" rx="3" ry="3" style="stroke:#038048;stroke-width:1.0;"/><text fill="#000000" font-family="sans-serif" font-size="14" lengthAdjust="spacing" textLength="61" x="616.6" y="1025.5332">putMark()</text></g><!--MD5=[bf4cfa753ec0cd54a2bc4da97484874d]
class TurnTicTacToe--><g id="elem_TurnTicTacToe"><rect codeLine="55" fill="#F1F1F1" height="171.2656" id="TurnTicTacToe" rx="2.5" ry="2.5" style="stroke:#181818;stroke-width:0.5;" width="188" x="654.6" y="736"/><ellipse cx="695.7" cy="752" fill="#ADD1B2" rx="11" ry="11" style="stroke:#181818;stroke-width:1.0;"/><path d="M698.4656,747.875 Q698.6219,747.6563 698.8094,747.5469 Q698.9969,747.4375 699.2156,747.4375 Q699.5906,747.4375 699.825,747.7031 Q700.0594,747.9531 700.0594,748.5625 L700.0594,750.0156 Q700.0594,750.625 699.825,750.8906 Q699.5906,751.1563 699.2156,751.1563 Q698.8719,751.1563 698.6687,750.9531 Q698.4656,750.7656 698.3562,750.25 Q698.3094,749.8906 698.1219,749.7031 Q697.7937,749.3281 697.1844,749.1094 Q696.575,748.8906 695.95,748.8906 Q695.1844,748.8906 694.5437,749.2188 Q693.9187,749.5469 693.4187,750.2969 Q692.9344,751.0469 692.9344,752.0781 L692.9344,753.1719 Q692.9344,754.4063 693.825,755.2344 Q694.7156,756.0469 696.3094,756.0469 Q697.2469,756.0469 697.9031,755.7969 Q698.2937,755.6406 698.7156,755.2031 Q698.9812,754.9375 699.1219,754.8594 Q699.2781,754.7813 699.4812,754.7813 Q699.8094,754.7813 700.0594,755.0469 Q700.325,755.2969 700.325,755.6406 Q700.325,755.9844 699.9812,756.3906 Q699.4812,756.9688 698.6844,757.2969 Q697.6062,757.75 696.3094,757.75 Q694.7937,757.75 693.5906,757.125 Q692.6062,756.625 691.9187,755.5625 Q691.2312,754.4844 691.2312,753.2031 L691.2312,752.0469 Q691.2312,750.7188 691.8406,749.5781 Q692.4656,748.4219 693.5594,747.8125 Q694.6531,747.1875 695.8875,747.1875 Q696.6219,747.1875 697.2625,747.3594 Q697.9187,747.5156 698.4656,747.875 Z " fill="#000000"/><text fill="#000000" font-family="sans-serif" font-size="14" lengthAdjust="spacing" textLength="98" x="715.5" y="757.7285">TurnTicTacToe</text><line style="stroke:#181818;stroke-width:0.5;" x1="655.6" x2="841.6" y1="768" y2="768"/><ellipse cx="665.6" cy="779" fill="none" rx="3" ry="3" style="stroke:#038048;stroke-width:1.0;"/><text fill="#000000" font-family="sans-serif" font-size="14" lengthAdjust="spacing" textLength="159" x="674.6" y="786.5332">TicTacToePlayer playerX</text><ellipse cx="665.6" cy="796.6094" fill="none" rx="3" ry="3" style="stroke:#038048;stroke-width:1.0;"/><text fill="#000000" font-family="sans-serif" font-size="14" lengthAdjust="spacing" textLength="162" x="674.6" y="804.1426">TicTacToePlayer playerO</text><rect fill="none" height="6" style="stroke:#C82930;stroke-width:1.0;" width="6" x="662.6" y="811.2188"/><text fill="#000000" font-family="sans-serif" font-size="14" lengthAdjust="spacing" textLength="147" x="674.6" y="821.752">TicTacToePlayer result</text><ellipse cx="665.6" cy="831.8281" fill="none" rx="3" ry="3" style="stroke:#038048;stroke-width:1.0;"/><text fill="#000000" font-family="sans-serif" font-size="14" lengthAdjust="spacing" textLength="79" x="674.6" y="839.3613">Board board</text><line style="stroke:#181818;stroke-width:0.5;" x1="655.6" x2="841.6" y1="846.4375" y2="846.4375"/><ellipse cx="665.6" cy="857.4375" fill="#84BE84" rx="3" ry="3" style="stroke:#038048;stroke-width:1.0;"/><text fill="#000000" font-family="sans-serif" font-size="14" lengthAdjust="spacing" textLength="36" x="674.6" y="864.9707">play()</text><rect fill="#F24D5C" height="6" style="stroke:#C82930;stroke-width:1.0;" width="6" x="662.6" y="872.0469"/><text fill="#000000" font-family="sans-serif" font-size="14" lengthAdjust="spacing" textLength="69" x="674.6" y="882.5801">setResult()</text><ellipse cx="665.6" cy="892.6563" fill="#84BE84" rx="3" ry="3" style="stroke:#038048;stroke-width:1.0;"/><text fill="#000000" font-family="sans-serif" font-size="14" lengthAdjust="spacing" textLength="70" x="674.6" y="900.1895">getResult()</text></g><!--MD5=[9563755d011c5cec7ec66dc53565a59e]
class Board--><g id="elem_Board"><rect codeLine="64" fill="#F1F1F1" height="224.0938" id="Board" rx="2.5" ry="2.5" style="stroke:#181818;stroke-width:0.5;" width="279" x="609.1" y="1093"/><ellipse cx="725.35" cy="1109" fill="#ADD1B2" rx="11" ry="11" style="stroke:#181818;stroke-width:1.0;"/><path d="M728.1156,1104.875 Q728.2719,1104.6563 728.4594,1104.5469 Q728.6469,1104.4375 728.8656,1104.4375 Q729.2406,1104.4375 729.475,1104.7031 Q729.7094,1104.9531 729.7094,1105.5625 L729.7094,1107.0156 Q729.7094,1107.625 729.475,1107.8906 Q729.2406,1108.1563 728.8656,1108.1563 Q728.5219,1108.1563 728.3187,1107.9531 Q728.1156,1107.7656 728.0062,1107.25 Q727.9594,1106.8906 727.7719,1106.7031 Q727.4437,1106.3281 726.8344,1106.1094 Q726.225,1105.8906 725.6,1105.8906 Q724.8344,1105.8906 724.1937,1106.2188 Q723.5687,1106.5469 723.0687,1107.2969 Q722.5844,1108.0469 722.5844,1109.0781 L722.5844,1110.1719 Q722.5844,1111.4063 723.475,1112.2344 Q724.3656,1113.0469 725.9594,1113.0469 Q726.8969,1113.0469 727.5531,1112.7969 Q727.9437,1112.6406 728.3656,1112.2031 Q728.6312,1111.9375 728.7719,1111.8594 Q728.9281,1111.7813 729.1312,1111.7813 Q729.4594,1111.7813 729.7094,1112.0469 Q729.975,1112.2969 729.975,1112.6406 Q729.975,1112.9844 729.6312,1113.3906 Q729.1312,1113.9688 728.3344,1114.2969 Q727.2562,1114.75 725.9594,1114.75 Q724.4437,1114.75 723.2406,1114.125 Q722.2562,1113.625 721.5687,1112.5625 Q720.8812,1111.4844 720.8812,1110.2031 L720.8812,1109.0469 Q720.8812,1107.7188 721.4906,1106.5781 Q722.1156,1105.4219 723.2094,1104.8125 Q724.3031,1104.1875 725.5375,1104.1875 Q726.2719,1104.1875 726.9125,1104.3594 Q727.5687,1104.5156 728.1156,1104.875 Z " fill="#000000"/><text fill="#000000" font-family="sans-serif" font-size="14" lengthAdjust="spacing" textLength="38" x="745.85" y="1114.7285">Board</text><line style="stroke:#181818;stroke-width:0.5;" x1="610.1" x2="887.1" y1="1125" y2="1125"/><ellipse cx="620.1" cy="1136" fill="none" rx="3" ry="3" style="stroke:#038048;stroke-width:1.0;"/><text fill="#000000" font-family="sans-serif" font-size="14" lengthAdjust="spacing" textLength="106" x="629.1" y="1143.5332">Piece[][] squares</text><ellipse cx="620.1" cy="1153.6094" fill="none" rx="3" ry="3" style="stroke:#038048;stroke-width:1.0;"/><text fill="#000000" font-family="sans-serif" font-size="14" lengthAdjust="spacing" textLength="109" x="629.1" y="1161.1426">EmptySquare = 9</text><line style="stroke:#181818;stroke-width:0.5;" x1="610.1" x2="887.1" y1="1168.2188" y2="1168.2188"/><ellipse cx="620.1" cy="1179.2188" fill="#84BE84" rx="3" ry="3" style="stroke:#038048;stroke-width:1.0;"/><text fill="#000000" font-family="sans-serif" font-size="14" lengthAdjust="spacing" textLength="88" x="629.1" y="1186.752">createBoard()</text><ellipse cx="620.1" cy="1196.8281" fill="#84BE84" rx="3" ry="3" style="stroke:#038048;stroke-width:1.0;"/><text fill="#000000" font-family="sans-serif" font-size="14" lengthAdjust="spacing" textLength="79" x="629.1" y="1204.3613">paintBoard()</text><ellipse cx="620.1" cy="1214.4375" fill="#84BE84" rx="3" ry="3" style="stroke:#038048;stroke-width:1.0;"/><text fill="#000000" font-family="sans-serif" font-size="14" lengthAdjust="spacing" textLength="43" x="629.1" y="1221.9707">isFull()</text><ellipse cx="620.1" cy="1232.0469" fill="#84BE84" rx="3" ry="3" style="stroke:#038048;stroke-width:1.0;"/><text fill="#000000" font-family="sans-serif" font-size="14" lengthAdjust="spacing" textLength="253" x="629.1" y="1239.5801">putPiece (Position position, Piece piece)</text><ellipse cx="620.1" cy="1249.6563" fill="#84BE84" rx="3" ry="3" style="stroke:#038048;stroke-width:1.0;"/><text fill="#000000" font-family="sans-serif" font-size="14" lengthAdjust="spacing" textLength="75" x="629.1" y="1257.1895">getWinner()</text><rect fill="#F24D5C" height="6" style="stroke:#C82930;stroke-width:1.0;" width="6" x="617.1" y="1264.2656"/><text fill="#000000" font-family="sans-serif" font-size="14" lengthAdjust="spacing" textLength="81" x="629.1" y="1274.7988">checkRows()</text><rect fill="#F24D5C" height="6" style="stroke:#C82930;stroke-width:1.0;" width="6" x="617.1" y="1281.875"/><text fill="#000000" font-family="sans-serif" font-size="14" lengthAdjust="spacing" textLength="102" x="629.1" y="1292.4082">checkColumns()</text><rect fill="#F24D5C" height="6" style="stroke:#C82930;stroke-width:1.0;" width="6" x="617.1" y="1299.4844"/><text fill="#000000" font-family="sans-serif" font-size="14" lengthAdjust="spacing" textLength="110" x="629.1" y="1310.0176">checkDiagonals()</text></g><!--MD5=[e05bacf3ff4416a0580578814d41bbf6]
class Piece--><g id="elem_Piece"><rect codeLine="76" fill="#F1F1F1" height="100.8281" id="Piece" rx="2.5" ry="2.5" style="stroke:#181818;stroke-width:0.5;" width="67" x="715.1" y="1377"/><ellipse cx="730.1" cy="1393" fill="#EB937F" rx="11" ry="11" style="stroke:#181818;stroke-width:1.0;"/><path d="M728.9594,1393.7969 L728.9594,1396.2969 L733.2875,1396.2969 L733.2875,1395.375 Q733.2875,1394.7656 733.5219,1394.5 Q733.7719,1394.2344 734.1469,1394.2344 Q734.5219,1394.2344 734.7562,1394.5 Q734.9906,1394.7656 734.9906,1395.375 L734.9906,1398 L726.9906,1398 Q726.3656,1398 726.1,1397.7656 Q725.85,1397.5313 725.85,1397.1406 Q725.85,1396.7656 726.1156,1396.5313 Q726.3812,1396.2969 726.9906,1396.2969 L727.2562,1396.2969 L727.2562,1389.6406 L726.9906,1389.6406 Q726.3656,1389.6406 726.1,1389.4063 Q725.85,1389.1719 725.85,1388.7813 Q725.85,1388.4063 726.1,1388.1719 Q726.3656,1387.9375 726.9906,1387.9375 L734.6156,1387.9375 L734.6156,1390.5313 Q734.6156,1391.1406 734.3812,1391.4063 Q734.1625,1391.6563 733.7719,1391.6563 Q733.3969,1391.6563 733.1625,1391.4063 Q732.9281,1391.1406 732.9281,1390.5313 L732.9281,1389.6406 L728.9594,1389.6406 L728.9594,1392.0938 L730.4437,1392.0938 Q730.4437,1391.4375 730.5687,1391.25 Q730.8344,1390.8438 731.3031,1390.8438 Q731.6781,1390.8438 731.9125,1391.1094 Q732.1469,1391.3594 732.1469,1391.9688 L732.1469,1393.9375 Q732.1469,1394.4844 732.0219,1394.6719 Q731.7562,1395.0625 731.3031,1395.0625 Q730.8344,1395.0625 730.5687,1394.6563 Q730.4437,1394.4688 730.4437,1393.7969 L728.9594,1393.7969 Z " fill="#000000"/><text fill="#000000" font-family="sans-serif" font-size="14" lengthAdjust="spacing" textLength="35" x="744.1" y="1398.7285">Piece</text><line style="stroke:#181818;stroke-width:0.5;" x1="716.1" x2="781.1" y1="1409" y2="1409"/><text fill="#000000" font-family="sans-serif" font-size="14" lengthAdjust="spacing" textLength="12" x="721.1" y="1427.5332">X,</text><text fill="#000000" font-family="sans-serif" font-size="14" lengthAdjust="spacing" textLength="15" x="721.1" y="1445.1426">O,</text><text fill="#000000" font-family="sans-serif" font-size="14" lengthAdjust="spacing" textLength="34" x="721.1" y="1462.752">NULL</text><line style="stroke:#181818;stroke-width:0.5;" x1="716.1" x2="781.1" y1="1469.8281" y2="1469.8281"/></g><!--MD5=[b0359cb538a0ce2cb72f54394993c3c4]
class GamePlayer--><g id="elem_GamePlayer"><rect codeLine="28" fill="#F1F1F1" height="65.6094" id="GamePlayer" rx="2.5" ry="2.5" style="stroke:#181818;stroke-width:0.5;" width="141" x="398.1" y="788.5"/><ellipse cx="427.05" cy="804.5" fill="#B4A7E5" rx="11" ry="11" style="stroke:#181818;stroke-width:1.0;"/><path d="M428.0031,801.1406 L428.0031,807.7969 L429.7219,807.7969 Q430.3313,807.7969 430.5969,808.0313 Q430.8625,808.2656 430.8625,808.6563 Q430.8625,809.0313 430.5969,809.2656 Q430.3313,809.5 429.7219,809.5 L424.5813,809.5 Q423.9719,809.5 423.7063,809.2656 Q423.4406,809.0313 423.4406,808.6406 Q423.4406,808.2656 423.7063,808.0313 Q423.9719,807.7969 424.5813,807.7969 L426.3,807.7969 L426.3,801.1406 L424.5813,801.1406 Q423.9719,801.1406 423.7063,800.9063 Q423.4406,800.6719 423.4406,800.2813 Q423.4406,799.9063 423.7063,799.6719 Q423.9719,799.4375 424.5813,799.4375 L429.7219,799.4375 Q430.3313,799.4375 430.5969,799.6719 Q430.8625,799.9063 430.8625,800.2813 Q430.8625,800.6719 430.5969,800.9063 Q430.3313,801.1406 429.7219,801.1406 L428.0031,801.1406 Z " fill="#000000"/><text fill="#000000" font-family="sans-serif" font-size="14" font-style="italic" lengthAdjust="spacing" textLength="78" x="444.15" y="810.2285">GamePlayer</text><line style="stroke:#181818;stroke-width:0.5;" x1="399.1" x2="538.1" y1="820.5" y2="820.5"/><line style="stroke:#181818;stroke-width:0.5;" x1="399.1" x2="538.1" y1="828.5" y2="828.5"/><ellipse cx="409.1" cy="839.5" fill="#84BE84" rx="3" ry="3" style="stroke:#038048;stroke-width:1.0;"/><text fill="#000000" font-family="sans-serif" font-size="14" lengthAdjust="spacing" textLength="115" x="418.1" y="847.0332">processResult(int)</text></g><!--MD5=[26178a7f5ccfc2a33ee17310fc2a0bb3]
class GamePlayersProvider--><g id="elem_GamePlayersProvider"><rect codeLine="31" fill="#F1F1F1" height="65.6094" id="GamePlayersProvider" rx="2.5" ry="2.5" style="stroke:#181818;stroke-width:0.5;" width="254" x="472.6" y="308.5"/><ellipse cx="526.85" cy="324.5" fill="#B4A7E5" rx="11" ry="11" style="stroke:#181818;stroke-width:1.0;"/><path d="M527.8031,321.1406 L527.8031,327.7969 L529.5219,327.7969 Q530.1313,327.7969 530.3969,328.0313 Q530.6625,328.2656 530.6625,328.6563 Q530.6625,329.0313 530.3969,329.2656 Q530.1313,329.5 529.5219,329.5 L524.3813,329.5 Q523.7719,329.5 523.5063,329.2656 Q523.2406,329.0313 523.2406,328.6406 Q523.2406,328.2656 523.5063,328.0313 Q523.7719,327.7969 524.3813,327.7969 L526.1,327.7969 L526.1,321.1406 L524.3813,321.1406 Q523.7719,321.1406 523.5063,320.9063 Q523.2406,320.6719 523.2406,320.2813 Q523.2406,319.9063 523.5063,319.6719 Q523.7719,319.4375 524.3813,319.4375 L529.5219,319.4375 Q530.1313,319.4375 530.3969,319.6719 Q530.6625,319.9063 530.6625,320.2813 Q530.6625,320.6719 530.3969,320.9063 Q530.1313,321.1406 529.5219,321.1406 L527.8031,321.1406 Z " fill="#000000"/><text fill="#000000" font-family="sans-serif" font-size="14" font-style="italic" lengthAdjust="spacing" textLength="137" x="547.35" y="330.2285">GamePlayersProvider</text><line style="stroke:#181818;stroke-width:0.5;" x1="473.6" x2="725.6" y1="340.5" y2="340.5"/><line style="stroke:#181818;stroke-width:0.5;" x1="473.6" x2="725.6" y1="348.5" y2="348.5"/><ellipse cx="483.6" cy="359.5" fill="#84BE84" rx="3" ry="3" style="stroke:#038048;stroke-width:1.0;"/><text fill="#000000" font-family="sans-serif" font-size="14" lengthAdjust="spacing" textLength="228" x="492.6" y="367.0332">getGamePlayers(int) : GamePlayer[]</text></g><!--MD5=[aa4a757cc4d4ceab84ee52e3878b5ec9]
reverse link TicTacToe to TurnTicTacToe--><g id="link_TicTacToe_TurnTicTacToe"><path codeLine="83" d="M748.6,689.23 C748.6,704.82 748.6,720.69 748.6,735.76 " fill="none" id="TicTacToe-backto-TurnTicTacToe" style="stroke:#181818;stroke-width:1.0;"/><polygon fill="#181818" points="748.6,676.22,744.6,682.22,748.6,688.22,752.6,682.22,748.6,676.22" style="stroke:#181818;stroke-width:1.0;"/></g><!--MD5=[b58472dbe3241849a7379b53160f62f1]
reverse link TurnTicTacToe to TicTacToePlayer--><g id="link_TurnTicTacToe_TicTacToePlayer"><path codeLine="84" d="M703.74,919.07 C695.75,936.27 687.96,953.04 681.59,966.74 " fill="none" id="TurnTicTacToe-backto-TicTacToePlayer" style="stroke:#181818;stroke-width:1.0;"/><polygon fill="#181818" points="709.29,907.13,703.1317,910.8817,704.2262,918.0092,710.3845,914.2576,709.29,907.13" style="stroke:#181818;stroke-width:1.0;"/></g><!--MD5=[a99a08d015fd9096398cf108430036a5]
reverse link Board to Piece--><g id="link_Board_Piece"><path codeLine="85" d="M748.6,1330.46 C748.6,1346.89 748.6,1362.89 748.6,1376.97 " fill="none" id="Board-backto-Piece" style="stroke:#181818;stroke-width:1.0;"/><polygon fill="#181818" points="748.6,1317.22,744.6,1323.22,748.6,1329.22,752.6,1323.22,748.6,1317.22" style="stroke:#181818;stroke-width:1.0;"/></g><!--MD5=[2833e1afc810982bc559a78da80cc4ee]
reverse link ListOfPlayers to Player--><g id="link_ListOfPlayers_Player"><path codeLine="87" d="M181.93,209.43 C180.96,224.68 179.95,240.49 178.99,255.62 " fill="none" id="ListOfPlayers-backto-Player" style="stroke:#181818;stroke-width:1.0;"/><polygon fill="#181818" points="182.77,196.19,178.4019,201.9276,182.0182,208.1664,186.3862,202.4288,182.77,196.19" style="stroke:#181818;stroke-width:1.0;"/></g><!--MD5=[6b9fd3da3a2e882bb2b197a7233b89f0]
reverse link TurnTicTacToe to Board--><g id="link_TurnTicTacToe_Board"><path codeLine="88" d="M753.22,920.3 C753.79,935.92 754.29,951.9 754.6,967 C755.46,1008.05 754.73,1053.09 753.53,1092.78 " fill="none" id="TurnTicTacToe-backto-Board" style="stroke:#181818;stroke-width:1.0;"/><polygon fill="#181818" points="752.71,907.29,748.9438,913.4395,753.1717,919.2811,756.9379,913.1317,752.71,907.29" style="stroke:#181818;stroke-width:1.0;"/></g><!--MD5=[0dbf6075fd374e69b7800e08cd38fc28]
link Player to GamePlayer--><g id="link_Player_GamePlayer"><path codeLine="90" d="M95.4,399.94 C83.28,412.67 72.51,427.15 65.6,443 C24.26,537.94 6,591.31 65.6,676 C135.95,775.95 282.19,807.12 377.81,816.63 " fill="none" id="Player-to-GamePlayer" style="stroke:#181818;stroke-width:1.0;stroke-dasharray:7.0,7.0;"/><polygon fill="none" points="378.68,809.67,397.99,818.39,377.46,823.62,378.68,809.67" style="stroke:#181818;stroke-width:1.0;"/></g><!--MD5=[1a5e42fe08df60c271858a4aebb9d8af]
reverse link Player to Human--><g id="link_Player_Human"><path codeLine="91" d="M153,446.86 C145.76,483.5 138.15,522.02 132.98,548.24 " fill="none" id="Player-backto-Human" style="stroke:#181818;stroke-width:1.0;"/><polygon fill="none" points="146.16,445.34,156.9,427.08,159.89,448.06,146.16,445.34" style="stroke:#181818;stroke-width:1.0;"/></g><!--MD5=[de54c74c5a0f03a0d64afa4047f4dca6]
reverse link Player to Bot--><g id="link_Player_Bot"><path codeLine="92" d="M206.33,446.35 C217.92,483.14 230.14,521.89 238.44,548.24 " fill="none" id="Player-backto-Bot" style="stroke:#181818;stroke-width:1.0;"/><polygon fill="none" points="199.59,448.26,200.26,427.08,212.94,444.05,199.59,448.26" style="stroke:#181818;stroke-width:1.0;"/></g><!--MD5=[22a058425986791f35aeea227c9e8036]
link TicTacToe to Dice--><g id="link_TicTacToe_Dice"><path codeLine="94" d="M596.8,581.5 C579.88,581.5 562.96,581.5 546.04,581.5 " fill="none" id="TicTacToe-to-Dice" style="stroke:#181818;stroke-width:1.0;stroke-dasharray:7.0,7.0;"/><polygon fill="#181818" points="540.79,581.5,549.79,585.5,545.79,581.5,549.79,577.5,540.79,581.5" style="stroke:#181818;stroke-width:1.0;"/></g><!--MD5=[3f6fc96ad8e0d96465f0b16b73398ffd]
reverse link GamePlayersProvider to TicTacToe--><g id="link_GamePlayersProvider_TicTacToe"><path codeLine="96" d="M622.52,379.1 C640.5,407.83 666.38,449.16 690.01,486.9 " fill="none" id="GamePlayersProvider-backto-TicTacToe" style="stroke:#181818;stroke-width:1.0;"/><polygon fill="#181818" points="619.7,374.6,621.0632,384.3541,622.3436,378.844,627.8536,380.1243,619.7,374.6" style="stroke:#181818;stroke-width:1.0;"/></g><!--MD5=[ce735c1cdd387ffa44cb012fb47a3a5a]
reverse link Dice to GamePlayer--><g id="link_Dice_GamePlayer"><path codeLine="98" d="M448.37,619.8 C453.03,666.1 460.92,744.28 465.34,788.15 " fill="none" id="Dice-backto-GamePlayer" style="stroke:#181818;stroke-width:1.0;stroke-dasharray:7.0,7.0;"/><polygon fill="#181818" points="447.84,614.6,444.7607,623.9551,448.3403,619.5749,452.7206,623.1545,447.84,614.6" style="stroke:#181818;stroke-width:1.0;"/></g><!--MD5=[46ba9c7d925c82f4e4391cfab8746e42]
link ListOfPlayers to GamePlayersProvider--><g id="link_ListOfPlayers_GamePlayersProvider"><path codeLine="99" d="M287.34,173.38 C359.39,211.94 455.33,263.29 521.76,298.84 " fill="none" id="ListOfPlayers-to-GamePlayersProvider" style="stroke:#181818;stroke-width:1.0;stroke-dasharray:7.0,7.0;"/><polygon fill="none" points="525.34,292.82,539.67,308.43,518.74,305.16,525.34,292.82" style="stroke:#181818;stroke-width:1.0;"/></g><!--MD5=[d143332e1b5ef7810ac3eee398b205df]
reverse link TicTacToe to GamePlayer--><g id="link_TicTacToe_GamePlayer"><path codeLine="101" d="M628.44,684.64 C584.54,721.96 537.99,761.52 506.52,788.28 " fill="none" id="TicTacToe-backto-GamePlayer" style="stroke:#181818;stroke-width:1.0;"/><polygon fill="#181818" points="638.34,676.22,631.1771,677.0527,629.1909,683.9849,636.3537,683.1522,638.34,676.22" style="stroke:#181818;stroke-width:1.0;"/></g><!--MD5=[dc3de1633c5da7be729167f208fb43ee]
link TicTacToePlayer to Board--><g id="link_TicTacToePlayer_Board"><path codeLine="103" d="M679.6,1033.17 C685.78,1048.48 693.6,1067.84 701.73,1087.97 " fill="none" id="TicTacToePlayer-to-Board" style="stroke:#181818;stroke-width:1.0;"/><polygon fill="#181818" points="703.7,1092.83,704.0453,1082.9872,701.8308,1088.1926,696.6254,1085.978,703.7,1092.83" style="stroke:#181818;stroke-width:1.0;"/></g><!--MD5=[f035fe94b578ef28dcd9ab9faba0353b]
link GamePlayer to TicTacToePlayer--><g id="link_GamePlayer_TicTacToePlayer"><path codeLine="105" d="M504.92,854.87 C535.9,882.49 580.79,922.51 615.42,953.37 " fill="none" id="GamePlayer-to-TicTacToePlayer" style="stroke:#181818;stroke-width:1.0;"/><polygon fill="none" points="620.25,948.3,630.52,966.83,610.93,958.75,620.25,948.3" style="stroke:#181818;stroke-width:1.0;"/></g><!--MD5=[59279e0754a3f33122bfc20c459028ed]
@startuml Tictactoe

package player {
    abstract class Player {
        +id int
        +name String
        +Player (String name)
        +getId()
        +setId()
        +getName()
        +setName()
    }
    class ListOfPlayers {
        +List<Player> playersList
        +createPlayer(Player player)
        +getPlayer(int id)
        +getList()
        +printList()
        +getGamePlayers(int size)
    }
    Class Human {
        +putMark()
    }
    Class Bot {
        +putMark()
    }
}

interface GamePlayer {
    + processResult(int)
}
interface GamePlayersProvider {
    + getGamePlayers(int) : GamePlayer[]
}

package util {
    class Dice{
        +generateValue (int bound)
    }
}

package ttt {
    class TicTacToe {
        # GamePlayer[] gamePlayers
        # GamePlayersProvider gamePlayersProvider
        # List<GamePlayer> results
        + Introduction()
        + Resume()
        + Execute()
        # AssignRoles (GamePlayer[] gamePlayers)
        # flipRoles (GamePlayer[] gamePlayers)
    }
    interface TicTacToePlayer {
        +putMark()
    }
    class TurnTicTacToe {
        +TicTacToePlayer playerX
        +TicTacToePlayer playerO
        -TicTacToePlayer result
        +Board board
        +play()
        -setResult()
        +getResult()
    }
    class Board {
        +Piece[][] squares
        +EmptySquare = 9
        +createBoard()
        +paintBoard()
        +isFull()
        +putPiece (Position position, Piece piece)
        +getWinner()
        -checkRows()
        -checkColumns()
        -checkDiagonals()
    }
    Enum Piece {
        X,
        O,
        NULL
    }
}

TicTacToe *- - TurnTicTacToe
TurnTicTacToe *- - TicTacToePlayer
Board *- - Piece

ListOfPlayers *- - Player
TurnTicTacToe *- - Board

Player ..|> GamePlayer
Player <|- - Human
Player <|- - Bot

TicTacToe ..> Dice

TicTacToe -up-> GamePlayersProvider

Dice <.. GamePlayer
ListOfPlayers ..|> GamePlayersProvider

TicTacToe *- - GamePlayer

TicTacToePlayer- ->Board

GamePlayer - -|>  TicTacToePlayer

@enduml

PlantUML version 1.2022.5(Sat Apr 30 04:55:52 CST 2022)
(GPL source distribution)
Java Runtime: Java(TM) SE Runtime Environment
JVM: Java HotSpot(TM) 64-Bit Server VM
Default Encoding: Cp1252
Language: en
Country: US
--></g></svg>