<?xml version="1.0" encoding="UTF-8" standalone="no"?><svg xmlns="http://www.w3.org/2000/svg" xmlns:xlink="http://www.w3.org/1999/xlink" contentStyleType="text/css" height="755px" preserveAspectRatio="none" style="width:934px;height:755px;background:#FFFFFF;" version="1.1" viewBox="0 0 934 755" width="934px" zoomAndPan="magnify"><defs/><g><!--MD5=[7153802aa763eb8df248d2c88b8b91a0]
cluster game--><g id="cluster_game"><path d="M11.67,124 L50.67,124 A3.75,3.75 0 0 1 53.17,126.5 L60.17,147.6094 L668.67,147.6094 A2.5,2.5 0 0 1 671.17,150.1094 L671.17,746 A2.5,2.5 0 0 1 668.67,748.5 L11.67,748.5 A2.5,2.5 0 0 1 9.17,746 L9.17,126.5 A2.5,2.5 0 0 1 11.67,124 " style="stroke:#000000;stroke-width:1.5;fill:none;"/><line style="stroke:#000000;stroke-width:1.5;fill:none;" x1="9.17" x2="60.17" y1="147.6094" y2="147.6094"/><text fill="#000000" font-family="sans-serif" font-size="14" font-weight="bold" lengthAdjust="spacing" textLength="38" x="13.17" y="140.5332">game</text></g><!--MD5=[807bc46d8103c809ff053af9e140e1f5]
cluster tictactoe--><g id="cluster_tictactoe"><path d="M375.67,507.5 L437.67,507.5 A3.75,3.75 0 0 1 440.17,510 L447.17,531.1094 L542.67,531.1094 A2.5,2.5 0 0 1 545.17,533.6094 L545.17,722 A2.5,2.5 0 0 1 542.67,724.5 L375.67,724.5 A2.5,2.5 0 0 1 373.17,722 L373.17,510 A2.5,2.5 0 0 1 375.67,507.5 " style="stroke:#000000;stroke-width:1.5;fill:none;"/><line style="stroke:#000000;stroke-width:1.5;fill:none;" x1="373.17" x2="447.17" y1="531.1094" y2="531.1094"/><text fill="#000000" font-family="sans-serif" font-size="14" font-weight="bold" lengthAdjust="spacing" textLength="61" x="377.17" y="524.0332">tictactoe</text></g><!--MD5=[5580c82edcbc933de5e73591f0fcf26e]
cluster hangman--><g id="cluster_hangman"><path d="M35.67,507.5 L100.67,507.5 A3.75,3.75 0 0 1 103.17,510 L110.17,531.1094 L196.67,531.1094 A2.5,2.5 0 0 1 199.17,533.6094 L199.17,722 A2.5,2.5 0 0 1 196.67,724.5 L35.67,724.5 A2.5,2.5 0 0 1 33.17,722 L33.17,510 A2.5,2.5 0 0 1 35.67,507.5 " style="stroke:#000000;stroke-width:1.5;fill:none;"/><line style="stroke:#000000;stroke-width:1.5;fill:none;" x1="33.17" x2="110.17" y1="531.1094" y2="531.1094"/><text fill="#000000" font-family="sans-serif" font-size="14" font-weight="bold" lengthAdjust="spacing" textLength="64" x="37.17" y="524.0332">hangman</text></g><!--MD5=[c52f45833d539af9e29a9d34b8b7302b]
cluster utils--><g id="cluster_utils"><path d="M65.67,168 L96.67,168 A3.75,3.75 0 0 1 99.17,170.5 L106.17,191.6094 L300.67,191.6094 A2.5,2.5 0 0 1 303.17,194.1094 L303.17,283.5 A2.5,2.5 0 0 1 300.67,286 L65.67,286 A2.5,2.5 0 0 1 63.17,283.5 L63.17,170.5 A2.5,2.5 0 0 1 65.67,168 " style="stroke:#000000;stroke-width:1.5;fill:none;"/><line style="stroke:#000000;stroke-width:1.5;fill:none;" x1="63.17" x2="106.17" y1="191.6094" y2="191.6094"/><text fill="#000000" font-family="sans-serif" font-size="14" font-weight="bold" lengthAdjust="spacing" textLength="30" x="67.17" y="184.5332">utils</text></g><!--MD5=[42603eecb267091c13893a16d8c379fb]
cluster player--><g id="cluster_player"><path d="M697.67,159.5 L741.67,159.5 A3.75,3.75 0 0 1 744.17,162 L751.17,183.1094 L924.67,183.1094 A2.5,2.5 0 0 1 927.17,185.6094 L927.17,292 A2.5,2.5 0 0 1 924.67,294.5 L697.67,294.5 A2.5,2.5 0 0 1 695.17,292 L695.17,162 A2.5,2.5 0 0 1 697.67,159.5 " style="stroke:#000000;stroke-width:1.5;fill:none;"/><line style="stroke:#000000;stroke-width:1.5;fill:none;" x1="695.17" x2="751.17" y1="183.1094" y2="183.1094"/><text fill="#000000" font-family="sans-serif" font-size="14" font-weight="bold" lengthAdjust="spacing" textLength="43" x="699.17" y="176.0332">player</text></g><!--MD5=[b6dcce5e5ef3c84b0b048d11301373dd]
class Game--><g id="elem_Game"><rect codeLine="9" fill="#F1F1F1" height="136.0469" id="Game" rx="2.5" ry="2.5" style="stroke:#181818;stroke-width:0.5;" width="303" x="62.67" y="338.5"/><ellipse cx="190.92" cy="354.5" fill="#A9DCDF" rx="11" ry="11" style="stroke:#181818;stroke-width:1.0;"/><path d="M193.1075,356.2656 L188.9669,356.2656 L188.545,357.2969 L188.9669,357.2969 Q189.5763,357.2969 189.8419,357.5313 Q190.1075,357.7656 190.1075,358.1563 Q190.1075,358.5313 189.8419,358.7656 Q189.5763,359 188.9669,359 L186.67,359 Q186.0606,359 185.8106,358.7656 Q185.545,358.5313 185.545,358.1406 Q185.545,357.7656 185.8263,357.5313 Q186.0919,357.2813 186.7169,357.2969 L189.3888,350.6406 L188.2794,350.6406 Q187.67,350.6406 187.4044,350.4063 Q187.1388,350.1719 187.1388,349.7813 Q187.1388,349.4063 187.4044,349.1719 Q187.67,348.9375 188.2794,348.9375 L191.9513,348.9375 L195.3419,357.2969 Q195.9356,357.2969 196.1231,357.4375 Q196.5138,357.7031 196.5138,358.1563 Q196.5138,358.5313 196.2481,358.7656 Q195.9981,359 195.3888,359 L193.0919,359 Q192.4825,359 192.2169,358.7656 Q191.9513,358.5313 191.9513,358.1406 Q191.9513,357.7656 192.2169,357.5313 Q192.4825,357.2969 193.0919,357.2969 L193.5138,357.2969 L193.1075,356.2656 Z M192.3888,354.5625 L191.0294,351.1875 L189.6544,354.5625 L192.3888,354.5625 Z " fill="#000000"/><text fill="#000000" font-family="sans-serif" font-size="14" font-style="italic" lengthAdjust="spacing" textLength="38" x="211.42" y="360.2285">Game</text><line style="stroke:#181818;stroke-width:0.5;" x1="63.67" x2="364.67" y1="370.5" y2="370.5"/><polygon fill="none" points="73.67,376.5,77.67,380.5,73.67,384.5,69.67,380.5" style="stroke:#B38D22;stroke-width:1.0;"/><text fill="#000000" font-family="sans-serif" font-size="14" lengthAdjust="spacing" textLength="172" x="82.67" y="389.0332">GamePlayer[] gamePlayers</text><polygon fill="none" points="73.67,394.1094,77.67,398.1094,73.67,402.1094,69.67,398.1094" style="stroke:#B38D22;stroke-width:1.0;"/><text fill="#000000" font-family="sans-serif" font-size="14" lengthAdjust="spacing" textLength="277" x="82.67" y="406.6426">GamePlayersProvider gamePlayersProvider</text><line style="stroke:#181818;stroke-width:0.5;" x1="63.67" x2="364.67" y1="413.7188" y2="413.7188"/><ellipse cx="73.67" cy="424.7188" fill="#84BE84" rx="3" ry="3" style="stroke:#038048;stroke-width:1.0;"/><text fill="#000000" font-family="sans-serif" font-size="14" font-style="italic" lengthAdjust="spacing" textLength="60" x="82.67" y="432.252">Execute()</text><polygon fill="#FFFF44" points="73.67,437.3281,77.67,441.3281,73.67,445.3281,69.67,441.3281" style="stroke:#B38D22;stroke-width:1.0;"/><text fill="#000000" font-family="sans-serif" font-size="14" lengthAdjust="spacing" textLength="264" x="82.67" y="449.8613">AssignRoles (GamePlayer[] gamePlayers)</text><polygon fill="#FFFF44" points="73.67,454.9375,77.67,458.9375,73.67,462.9375,69.67,458.9375" style="stroke:#B38D22;stroke-width:1.0;"/><text fill="#000000" font-family="sans-serif" font-size="14" lengthAdjust="spacing" textLength="240" x="82.67" y="467.4707">flipRoles (GamePlayer[] gamePlayers)</text></g><!--MD5=[b0359cb538a0ce2cb72f54394993c3c4]
class GamePlayer--><g id="elem_GamePlayer"><rect codeLine="33" fill="#F1F1F1" height="65.6094" id="GamePlayer" rx="2.5" ry="2.5" style="stroke:#181818;stroke-width:0.5;" width="141" x="215.67" y="534.5"/><ellipse cx="244.62" cy="550.5" fill="#B4A7E5" rx="11" ry="11" style="stroke:#181818;stroke-width:1.0;"/><path d="M245.5731,547.1406 L245.5731,553.7969 L247.2919,553.7969 Q247.9012,553.7969 248.1669,554.0313 Q248.4325,554.2656 248.4325,554.6563 Q248.4325,555.0313 248.1669,555.2656 Q247.9012,555.5 247.2919,555.5 L242.1512,555.5 Q241.5419,555.5 241.2762,555.2656 Q241.0106,555.0313 241.0106,554.6406 Q241.0106,554.2656 241.2762,554.0313 Q241.5419,553.7969 242.1512,553.7969 L243.87,553.7969 L243.87,547.1406 L242.1512,547.1406 Q241.5419,547.1406 241.2762,546.9063 Q241.0106,546.6719 241.0106,546.2813 Q241.0106,545.9063 241.2762,545.6719 Q241.5419,545.4375 242.1512,545.4375 L247.2919,545.4375 Q247.9012,545.4375 248.1669,545.6719 Q248.4325,545.9063 248.4325,546.2813 Q248.4325,546.6719 248.1669,546.9063 Q247.9012,547.1406 247.2919,547.1406 L245.5731,547.1406 Z " fill="#000000"/><text fill="#000000" font-family="sans-serif" font-size="14" font-style="italic" lengthAdjust="spacing" textLength="78" x="261.72" y="556.2285">GamePlayer</text><line style="stroke:#181818;stroke-width:0.5;" x1="216.67" x2="355.67" y1="566.5" y2="566.5"/><line style="stroke:#181818;stroke-width:0.5;" x1="216.67" x2="355.67" y1="574.5" y2="574.5"/><ellipse cx="226.67" cy="585.5" fill="#84BE84" rx="3" ry="3" style="stroke:#038048;stroke-width:1.0;"/><text fill="#000000" font-family="sans-serif" font-size="14" lengthAdjust="spacing" textLength="115" x="235.67" y="593.0332">processResult(int)</text></g><!--MD5=[26178a7f5ccfc2a33ee17310fc2a0bb3]
class GamePlayersProvider--><g id="elem_GamePlayersProvider"><rect codeLine="36" fill="#F1F1F1" height="65.6094" id="GamePlayersProvider" rx="2.5" ry="2.5" style="stroke:#181818;stroke-width:0.5;" width="254" x="401.17" y="373.5"/><ellipse cx="455.42" cy="389.5" fill="#B4A7E5" rx="11" ry="11" style="stroke:#181818;stroke-width:1.0;"/><path d="M456.3731,386.1406 L456.3731,392.7969 L458.0919,392.7969 Q458.7013,392.7969 458.9669,393.0313 Q459.2325,393.2656 459.2325,393.6563 Q459.2325,394.0313 458.9669,394.2656 Q458.7013,394.5 458.0919,394.5 L452.9513,394.5 Q452.3419,394.5 452.0763,394.2656 Q451.8106,394.0313 451.8106,393.6406 Q451.8106,393.2656 452.0763,393.0313 Q452.3419,392.7969 452.9513,392.7969 L454.67,392.7969 L454.67,386.1406 L452.9513,386.1406 Q452.3419,386.1406 452.0763,385.9063 Q451.8106,385.6719 451.8106,385.2813 Q451.8106,384.9063 452.0763,384.6719 Q452.3419,384.4375 452.9513,384.4375 L458.0919,384.4375 Q458.7013,384.4375 458.9669,384.6719 Q459.2325,384.9063 459.2325,385.2813 Q459.2325,385.6719 458.9669,385.9063 Q458.7013,386.1406 458.0919,386.1406 L456.3731,386.1406 Z " fill="#000000"/><text fill="#000000" font-family="sans-serif" font-size="14" font-style="italic" lengthAdjust="spacing" textLength="137" x="475.92" y="395.2285">GamePlayersProvider</text><line style="stroke:#181818;stroke-width:0.5;" x1="402.17" x2="654.17" y1="405.5" y2="405.5"/><line style="stroke:#181818;stroke-width:0.5;" x1="402.17" x2="654.17" y1="413.5" y2="413.5"/><ellipse cx="412.17" cy="424.5" fill="#84BE84" rx="3" ry="3" style="stroke:#038048;stroke-width:1.0;"/><text fill="#000000" font-family="sans-serif" font-size="14" lengthAdjust="spacing" textLength="228" x="421.17" y="432.0332">getGamePlayers(int) : GamePlayer[]</text></g><!--MD5=[36f719b1cbc3f26b5758ea249b208fb4]
class TicTacToe--><g id="elem_TicTacToe"><rect codeLine="17" fill="#F1F1F1" height="48" id="TicTacToe" rx="2.5" ry="2.5" style="stroke:#181818;stroke-width:0.5;" width="100" x="400.17" y="543.5"/><ellipse cx="415.17" cy="559.5" fill="#ADD1B2" rx="11" ry="11" style="stroke:#181818;stroke-width:1.0;"/><path d="M417.9356,555.375 Q418.0919,555.1563 418.2794,555.0469 Q418.4669,554.9375 418.6856,554.9375 Q419.0606,554.9375 419.295,555.2031 Q419.5294,555.4531 419.5294,556.0625 L419.5294,557.5156 Q419.5294,558.125 419.295,558.3906 Q419.0606,558.6563 418.6856,558.6563 Q418.3419,558.6563 418.1388,558.4531 Q417.9356,558.2656 417.8263,557.75 Q417.7794,557.3906 417.5919,557.2031 Q417.2638,556.8281 416.6544,556.6094 Q416.045,556.3906 415.42,556.3906 Q414.6544,556.3906 414.0138,556.7188 Q413.3888,557.0469 412.8888,557.7969 Q412.4044,558.5469 412.4044,559.5781 L412.4044,560.6719 Q412.4044,561.9063 413.295,562.7344 Q414.1856,563.5469 415.7794,563.5469 Q416.7169,563.5469 417.3731,563.2969 Q417.7638,563.1406 418.1856,562.7031 Q418.4513,562.4375 418.5919,562.3594 Q418.7481,562.2813 418.9513,562.2813 Q419.2794,562.2813 419.5294,562.5469 Q419.795,562.7969 419.795,563.1406 Q419.795,563.4844 419.4513,563.8906 Q418.9513,564.4688 418.1544,564.7969 Q417.0763,565.25 415.7794,565.25 Q414.2638,565.25 413.0606,564.625 Q412.0763,564.125 411.3888,563.0625 Q410.7013,561.9844 410.7013,560.7031 L410.7013,559.5469 Q410.7013,558.2188 411.3106,557.0781 Q411.9356,555.9219 413.0294,555.3125 Q414.1231,554.6875 415.3575,554.6875 Q416.0919,554.6875 416.7325,554.8594 Q417.3888,555.0156 417.9356,555.375 Z " fill="#000000"/><text fill="#000000" font-family="sans-serif" font-size="14" lengthAdjust="spacing" textLength="68" x="429.17" y="565.2285">TicTacToe</text><line style="stroke:#181818;stroke-width:0.5;" x1="401.17" x2="499.17" y1="575.5" y2="575.5"/><line style="stroke:#181818;stroke-width:0.5;" x1="401.17" x2="499.17" y1="583.5" y2="583.5"/></g><!--MD5=[52855fec3bcd5e41561eba29dc142e36]
class TicTacToePlayer--><g id="elem_TicTacToePlayer"><rect codeLine="20" fill="#F1F1F1" height="48" id="TicTacToePlayer" rx="2.5" ry="2.5" style="stroke:#181818;stroke-width:0.5;" width="140" x="389.17" y="660.5"/><ellipse cx="404.17" cy="676.5" fill="#B4A7E5" rx="11" ry="11" style="stroke:#181818;stroke-width:1.0;"/><path d="M405.1231,673.1406 L405.1231,679.7969 L406.8419,679.7969 Q407.4513,679.7969 407.7169,680.0313 Q407.9825,680.2656 407.9825,680.6563 Q407.9825,681.0313 407.7169,681.2656 Q407.4513,681.5 406.8419,681.5 L401.7013,681.5 Q401.0919,681.5 400.8263,681.2656 Q400.5606,681.0313 400.5606,680.6406 Q400.5606,680.2656 400.8263,680.0313 Q401.0919,679.7969 401.7013,679.7969 L403.42,679.7969 L403.42,673.1406 L401.7013,673.1406 Q401.0919,673.1406 400.8263,672.9063 Q400.5606,672.6719 400.5606,672.2813 Q400.5606,671.9063 400.8263,671.6719 Q401.0919,671.4375 401.7013,671.4375 L406.8419,671.4375 Q407.4513,671.4375 407.7169,671.6719 Q407.9825,671.9063 407.9825,672.2813 Q407.9825,672.6719 407.7169,672.9063 Q407.4513,673.1406 406.8419,673.1406 L405.1231,673.1406 Z " fill="#000000"/><text fill="#000000" font-family="sans-serif" font-size="14" font-style="italic" lengthAdjust="spacing" textLength="108" x="418.17" y="682.2285">TicTacToePlayer</text><line style="stroke:#181818;stroke-width:0.5;" x1="390.17" x2="528.17" y1="692.5" y2="692.5"/><line style="stroke:#181818;stroke-width:0.5;" x1="390.17" x2="528.17" y1="700.5" y2="700.5"/></g><!--MD5=[d7731e51439e3250c63a8cdcafb59da5]
class HangMan--><g id="elem_HangMan"><rect codeLine="25" fill="#F1F1F1" height="48" id="HangMan" rx="2.5" ry="2.5" style="stroke:#181818;stroke-width:0.5;" width="92" x="79.17" y="543.5"/><ellipse cx="94.17" cy="559.5" fill="#ADD1B2" rx="11" ry="11" style="stroke:#181818;stroke-width:1.0;"/><path d="M96.9356,555.375 Q97.0919,555.1563 97.2794,555.0469 Q97.4669,554.9375 97.6856,554.9375 Q98.0606,554.9375 98.295,555.2031 Q98.5294,555.4531 98.5294,556.0625 L98.5294,557.5156 Q98.5294,558.125 98.295,558.3906 Q98.0606,558.6563 97.6856,558.6563 Q97.3419,558.6563 97.1388,558.4531 Q96.9356,558.2656 96.8263,557.75 Q96.7794,557.3906 96.5919,557.2031 Q96.2638,556.8281 95.6544,556.6094 Q95.045,556.3906 94.42,556.3906 Q93.6544,556.3906 93.0138,556.7188 Q92.3888,557.0469 91.8888,557.7969 Q91.4044,558.5469 91.4044,559.5781 L91.4044,560.6719 Q91.4044,561.9063 92.295,562.7344 Q93.1856,563.5469 94.7794,563.5469 Q95.7169,563.5469 96.3731,563.2969 Q96.7638,563.1406 97.1856,562.7031 Q97.4513,562.4375 97.5919,562.3594 Q97.7481,562.2813 97.9513,562.2813 Q98.2794,562.2813 98.5294,562.5469 Q98.795,562.7969 98.795,563.1406 Q98.795,563.4844 98.4513,563.8906 Q97.9513,564.4688 97.1544,564.7969 Q96.0763,565.25 94.7794,565.25 Q93.2638,565.25 92.0606,564.625 Q91.0763,564.125 90.3888,563.0625 Q89.7013,561.9844 89.7013,560.7031 L89.7013,559.5469 Q89.7013,558.2188 90.3106,557.0781 Q90.9356,555.9219 92.0294,555.3125 Q93.1231,554.6875 94.3575,554.6875 Q95.0919,554.6875 95.7325,554.8594 Q96.3888,555.0156 96.9356,555.375 Z " fill="#000000"/><text fill="#000000" font-family="sans-serif" font-size="14" lengthAdjust="spacing" textLength="60" x="108.17" y="565.2285">HangMan</text><line style="stroke:#181818;stroke-width:0.5;" x1="80.17" x2="170.17" y1="575.5" y2="575.5"/><line style="stroke:#181818;stroke-width:0.5;" x1="80.17" x2="170.17" y1="583.5" y2="583.5"/></g><!--MD5=[4fcb596d3bf48611d01498558103c6f0]
class HangManPlayer--><g id="elem_HangManPlayer"><rect codeLine="28" fill="#F1F1F1" height="48" id="HangManPlayer" rx="2.5" ry="2.5" style="stroke:#181818;stroke-width:0.5;" width="134" x="49.17" y="660.5"/><ellipse cx="64.17" cy="676.5" fill="#B4A7E5" rx="11" ry="11" style="stroke:#181818;stroke-width:1.0;"/><path d="M65.1231,673.1406 L65.1231,679.7969 L66.8419,679.7969 Q67.4513,679.7969 67.7169,680.0313 Q67.9825,680.2656 67.9825,680.6563 Q67.9825,681.0313 67.7169,681.2656 Q67.4513,681.5 66.8419,681.5 L61.7013,681.5 Q61.0919,681.5 60.8263,681.2656 Q60.5606,681.0313 60.5606,680.6406 Q60.5606,680.2656 60.8263,680.0313 Q61.0919,679.7969 61.7013,679.7969 L63.42,679.7969 L63.42,673.1406 L61.7013,673.1406 Q61.0919,673.1406 60.8263,672.9063 Q60.5606,672.6719 60.5606,672.2813 Q60.5606,671.9063 60.8263,671.6719 Q61.0919,671.4375 61.7013,671.4375 L66.8419,671.4375 Q67.4513,671.4375 67.7169,671.6719 Q67.9825,671.9063 67.9825,672.2813 Q67.9825,672.6719 67.7169,672.9063 Q67.4513,673.1406 66.8419,673.1406 L65.1231,673.1406 Z " fill="#000000"/><text fill="#000000" font-family="sans-serif" font-size="14" font-style="italic" lengthAdjust="spacing" textLength="102" x="78.17" y="682.2285">HangManPlayer</text><line style="stroke:#181818;stroke-width:0.5;" x1="50.17" x2="182.17" y1="692.5" y2="692.5"/><line style="stroke:#181818;stroke-width:0.5;" x1="50.17" x2="182.17" y1="700.5" y2="700.5"/></g><!--MD5=[f7a9ae25cb0ac60c5f03b7bfd778cce3]
class Dice--><g id="elem_Dice"><rect codeLine="41" fill="#F1F1F1" height="65.6094" id="Dice" rx="2.5" ry="2.5" style="stroke:#181818;stroke-width:0.5;" width="207" x="79.67" y="204"/><ellipse cx="164.92" cy="220" fill="#ADD1B2" rx="11" ry="11" style="stroke:#181818;stroke-width:1.0;"/><path d="M167.6856,215.875 Q167.8419,215.6563 168.0294,215.5469 Q168.2169,215.4375 168.4356,215.4375 Q168.8106,215.4375 169.045,215.7031 Q169.2794,215.9531 169.2794,216.5625 L169.2794,218.0156 Q169.2794,218.625 169.045,218.8906 Q168.8106,219.1563 168.4356,219.1563 Q168.0919,219.1563 167.8888,218.9531 Q167.6856,218.7656 167.5763,218.25 Q167.5294,217.8906 167.3419,217.7031 Q167.0138,217.3281 166.4044,217.1094 Q165.795,216.8906 165.17,216.8906 Q164.4044,216.8906 163.7638,217.2188 Q163.1388,217.5469 162.6388,218.2969 Q162.1544,219.0469 162.1544,220.0781 L162.1544,221.1719 Q162.1544,222.4063 163.045,223.2344 Q163.9356,224.0469 165.5294,224.0469 Q166.4669,224.0469 167.1231,223.7969 Q167.5138,223.6406 167.9356,223.2031 Q168.2013,222.9375 168.3419,222.8594 Q168.4981,222.7813 168.7013,222.7813 Q169.0294,222.7813 169.2794,223.0469 Q169.545,223.2969 169.545,223.6406 Q169.545,223.9844 169.2013,224.3906 Q168.7013,224.9688 167.9044,225.2969 Q166.8263,225.75 165.5294,225.75 Q164.0138,225.75 162.8106,225.125 Q161.8263,224.625 161.1388,223.5625 Q160.4513,222.4844 160.4513,221.2031 L160.4513,220.0469 Q160.4513,218.7188 161.0606,217.5781 Q161.6856,216.4219 162.7794,215.8125 Q163.8731,215.1875 165.1075,215.1875 Q165.8419,215.1875 166.4825,215.3594 Q167.1388,215.5156 167.6856,215.875 Z " fill="#000000"/><text fill="#000000" font-family="sans-serif" font-size="14" lengthAdjust="spacing" textLength="28" x="185.42" y="225.7285">Dice</text><line style="stroke:#181818;stroke-width:0.5;" x1="80.67" x2="285.67" y1="236" y2="236"/><line style="stroke:#181818;stroke-width:0.5;" x1="80.67" x2="285.67" y1="244" y2="244"/><ellipse cx="90.67" cy="255" fill="#84BE84" rx="3" ry="3" style="stroke:#038048;stroke-width:1.0;"/><text fill="#000000" font-family="sans-serif" font-size="14" lengthAdjust="spacing" textLength="181" x="99.67" y="262.5332">int generateValue(int bound)</text></g><!--MD5=[82a37a108f28ded8fb022e1a5df25ae5]
class ListOfPlayers--><g id="elem_ListOfPlayers"><rect codeLine="49" fill="#F1F1F1" height="83.2188" id="ListOfPlayers" rx="2.5" ry="2.5" style="stroke:#181818;stroke-width:0.5;" width="199" x="711.67" y="195.5"/><ellipse cx="764.92" cy="211.5" fill="#ADD1B2" rx="11" ry="11" style="stroke:#181818;stroke-width:1.0;"/><path d="M767.6856,207.375 Q767.8419,207.1563 768.0294,207.0469 Q768.2169,206.9375 768.4356,206.9375 Q768.8106,206.9375 769.045,207.2031 Q769.2794,207.4531 769.2794,208.0625 L769.2794,209.5156 Q769.2794,210.125 769.045,210.3906 Q768.8106,210.6563 768.4356,210.6563 Q768.0919,210.6563 767.8888,210.4531 Q767.6856,210.2656 767.5763,209.75 Q767.5294,209.3906 767.3419,209.2031 Q767.0138,208.8281 766.4044,208.6094 Q765.795,208.3906 765.17,208.3906 Q764.4044,208.3906 763.7638,208.7188 Q763.1388,209.0469 762.6388,209.7969 Q762.1544,210.5469 762.1544,211.5781 L762.1544,212.6719 Q762.1544,213.9063 763.045,214.7344 Q763.9356,215.5469 765.5294,215.5469 Q766.4669,215.5469 767.1231,215.2969 Q767.5138,215.1406 767.9356,214.7031 Q768.2013,214.4375 768.3419,214.3594 Q768.4981,214.2813 768.7013,214.2813 Q769.0294,214.2813 769.2794,214.5469 Q769.545,214.7969 769.545,215.1406 Q769.545,215.4844 769.2013,215.8906 Q768.7013,216.4688 767.9044,216.7969 Q766.8263,217.25 765.5294,217.25 Q764.0138,217.25 762.8106,216.625 Q761.8263,216.125 761.1388,215.0625 Q760.4513,213.9844 760.4513,212.7031 L760.4513,211.5469 Q760.4513,210.2188 761.0606,209.0781 Q761.6856,207.9219 762.7794,207.3125 Q763.8731,206.6875 765.1075,206.6875 Q765.8419,206.6875 766.4825,206.8594 Q767.1388,207.0156 767.6856,207.375 Z " fill="#000000"/><text fill="#000000" font-family="sans-serif" font-size="14" lengthAdjust="spacing" textLength="84" x="785.42" y="217.2285">ListOfPlayers</text><line style="stroke:#181818;stroke-width:0.5;" x1="712.67" x2="909.67" y1="227.5" y2="227.5"/><line style="stroke:#181818;stroke-width:0.5;" x1="712.67" x2="909.67" y1="235.5" y2="235.5"/><ellipse cx="722.67" cy="246.5" fill="#84BE84" rx="3" ry="3" style="stroke:#038048;stroke-width:1.0;"/><text fill="#000000" font-family="sans-serif" font-size="14" lengthAdjust="spacing" textLength="173" x="731.67" y="254.0332">createPlayer(Player player)</text><ellipse cx="722.67" cy="264.1094" fill="#84BE84" rx="3" ry="3" style="stroke:#038048;stroke-width:1.0;"/><text fill="#000000" font-family="sans-serif" font-size="14" lengthAdjust="spacing" textLength="100" x="731.67" y="271.6426">getPlayer(int id)</text></g><!--MD5=[e10552ebcc634954ffb254e345666c67]
class GamesPlatform--><g id="elem_GamesPlatform"><rect codeLine="2" fill="#F1F1F1" height="100.8281" id="GamesPlatform" rx="2.5" ry="2.5" style="stroke:#181818;stroke-width:0.5;" width="193" x="558.67" y="7"/><ellipse cx="602.47" cy="23" fill="#ADD1B2" rx="11" ry="11" style="stroke:#181818;stroke-width:1.0;"/><path d="M605.2356,18.875 Q605.3919,18.6563 605.5794,18.5469 Q605.7669,18.4375 605.9856,18.4375 Q606.3606,18.4375 606.595,18.7031 Q606.8294,18.9531 606.8294,19.5625 L606.8294,21.0156 Q606.8294,21.625 606.595,21.8906 Q606.3606,22.1563 605.9856,22.1563 Q605.6419,22.1563 605.4387,21.9531 Q605.2356,21.7656 605.1262,21.25 Q605.0794,20.8906 604.8919,20.7031 Q604.5637,20.3281 603.9544,20.1094 Q603.345,19.8906 602.72,19.8906 Q601.9544,19.8906 601.3137,20.2188 Q600.6887,20.5469 600.1887,21.2969 Q599.7044,22.0469 599.7044,23.0781 L599.7044,24.1719 Q599.7044,25.4063 600.595,26.2344 Q601.4856,27.0469 603.0794,27.0469 Q604.0169,27.0469 604.6731,26.7969 Q605.0637,26.6406 605.4856,26.2031 Q605.7512,25.9375 605.8919,25.8594 Q606.0481,25.7813 606.2512,25.7813 Q606.5794,25.7813 606.8294,26.0469 Q607.095,26.2969 607.095,26.6406 Q607.095,26.9844 606.7512,27.3906 Q606.2512,27.9688 605.4544,28.2969 Q604.3762,28.75 603.0794,28.75 Q601.5637,28.75 600.3606,28.125 Q599.3762,27.625 598.6887,26.5625 Q598.0012,25.4844 598.0012,24.2031 L598.0012,23.0469 Q598.0012,21.7188 598.6106,20.5781 Q599.2356,19.4219 600.3294,18.8125 Q601.4231,18.1875 602.6575,18.1875 Q603.3919,18.1875 604.0325,18.3594 Q604.6887,18.5156 605.2356,18.875 Z " fill="#000000"/><text fill="#000000" font-family="sans-serif" font-size="14" lengthAdjust="spacing" textLength="97" x="622.87" y="28.7285">GamesPlatform</text><line style="stroke:#181818;stroke-width:0.5;" x1="559.67" x2="750.67" y1="39" y2="39"/><rect fill="none" height="6" style="stroke:#C82930;stroke-width:1.0;" width="6" x="566.67" y="47"/><text fill="#000000" font-family="sans-serif" font-size="14" lengthAdjust="spacing" textLength="167" x="578.67" y="57.5332">ListOfPlayers listOfPlayers</text><rect fill="none" height="6" style="stroke:#C82930;stroke-width:1.0;" width="6" x="566.67" y="64.6094"/><text fill="#000000" font-family="sans-serif" font-size="14" lengthAdjust="spacing" textLength="92" x="578.67" y="75.1426">Game[] games</text><line style="stroke:#181818;stroke-width:0.5;" x1="559.67" x2="750.67" y1="82.2188" y2="82.2188"/><ellipse cx="569.67" cy="93.2188" fill="#84BE84" rx="3" ry="3" style="stroke:#038048;stroke-width:1.0;"/><text fill="#000000" font-family="sans-serif" font-size="14" lengthAdjust="spacing" textLength="31" x="578.67" y="100.752">run()</text></g><!--MD5=[0d127b7eaffccbf39ca499f660c3ff47]
reverse link GamesPlatform to Game--><g id="link_GamesPlatform_Game"><path codeLine="55" d="M581.32,116.61 C503.59,177.77 381.38,273.93 299.56,338.31 " fill="none" id="GamesPlatform-backto-Game" style="stroke:#181818;stroke-width:1.0;"/><polygon fill="#181818" points="591.99,108.22,584.8009,108.783,582.5556,115.6356,589.7446,115.0726,591.99,108.22" style="stroke:#181818;stroke-width:1.0;"/><text fill="#000000" font-family="sans-serif" font-size="13" lengthAdjust="spacing" textLength="7" x="301.5167" y="327.4885">2</text></g><!--MD5=[4f0b8b0aa154162cf8914066de6ffb6f]
reverse link GamesPlatform to ListOfPlayers--><g id="link_GamesPlatform_ListOfPlayers"><path codeLine="56" d="M707.73,118.31 C730.03,143.68 755.44,172.59 775.5,195.41 " fill="none" id="GamesPlatform-backto-ListOfPlayers" style="stroke:#181818;stroke-width:1.0;"/><polygon fill="#181818" points="699.04,108.42,699.9896,115.5683,706.9533,117.4411,706.0037,110.2928,699.04,108.42" style="stroke:#181818;stroke-width:1.0;"/></g><!--MD5=[cd7b7cdda17f869f9fc85669e8e234a7]
reverse link Game to TicTacToe--><g id="link_Game_TicTacToe"><path codeLine="58" d="M378.1,485.93 C384.34,490.3 390.39,494.83 396.17,499.5 C411.5,511.9 425.38,529.33 435.23,543.3 " fill="none" id="Game-backto-TicTacToe" style="stroke:#181818;stroke-width:1.0;"/><polygon fill="none" points="373.99,491.61,361.18,474.73,381.72,479.94,373.99,491.61" style="stroke:#181818;stroke-width:1.0;"/></g><!--MD5=[c546b7854fad86f2e7b29095c925cc3f]
reverse link Game to HangMan--><g id="link_Game_HangMan"><path codeLine="59" d="M166.6,492.49 C156.12,511.21 145.87,529.53 138.18,543.25 " fill="none" id="Game-backto-HangMan" style="stroke:#181818;stroke-width:1.0;"/><polygon fill="none" points="160.55,488.96,176.43,474.93,172.77,495.8,160.55,488.96" style="stroke:#181818;stroke-width:1.0;"/></g><!--MD5=[593bbcbda1bd8166e08a1f52ab0f20e0]
link Game to GamePlayersProvider--><g id="link_Game_GamePlayersProvider"><path codeLine="60" d="M365.96,406.5 C375.94,406.5 385.92,406.5 395.9,406.5 " fill="none" id="Game-to-GamePlayersProvider" style="stroke:#181818;stroke-width:1.0;"/><polygon fill="#181818" points="401.12,406.5,392.12,402.5,396.12,406.5,392.12,410.5,401.12,406.5" style="stroke:#181818;stroke-width:1.0;"/></g><!--MD5=[68141e9e86f72c1320468e2ef129f5b1]
reverse link Game to GamePlayer--><g id="link_Game_GamePlayer"><path codeLine="61" d="M250.22,487.12 C257.83,503.91 265.43,520.69 271.67,534.47 " fill="none" id="Game-backto-GamePlayer" style="stroke:#181818;stroke-width:1.0;"/><polygon fill="#181818" points="244.7,474.93,243.5284,482.0453,249.6458,485.8634,250.8173,478.7481,244.7,474.93" style="stroke:#181818;stroke-width:1.0;"/></g><!--MD5=[6765ed303bfadf62068277bd9461ef4c]
reverse link Dice to Game--><g id="link_Dice_Game"><path codeLine="63" d="M190.09,275.4 C193.52,293.92 197.76,316.86 201.73,338.29 " fill="none" id="Dice-backto-Game" style="stroke:#181818;stroke-width:1.0;stroke-dasharray:7.0,7.0;"/><polygon fill="#181818" points="189.15,270.3,186.8637,279.8798,190.0645,275.2157,194.7287,278.4165,189.15,270.3" style="stroke:#181818;stroke-width:1.0;"/></g><!--MD5=[ce735c1cdd387ffa44cb012fb47a3a5a]
reverse link Dice to GamePlayer--><g id="link_Dice_GamePlayer"><path codeLine="64" d="M110.11,272.95 C84.77,289.1 59.21,310.91 45.17,338.5 C17.76,392.37 6,428.46 45.17,474.5 C90.1,527.31 135.54,471.95 199.17,499.5 C218.59,507.91 237.52,521.62 252.74,534.46 " fill="none" id="Dice-backto-GamePlayer" style="stroke:#181818;stroke-width:1.0;stroke-dasharray:7.0,7.0;"/><polygon fill="#181818" points="114.5,270.2,104.7493,271.5868,110.2624,272.8538,108.9954,278.367,114.5,270.2" style="stroke:#181818;stroke-width:1.0;"/></g><!--MD5=[46ba9c7d925c82f4e4391cfab8746e42]
link ListOfPlayers to GamePlayersProvider--><g id="link_ListOfPlayers_GamePlayersProvider"><path codeLine="66" d="M742.66,278.55 C699.39,304.16 643.57,337.2 599.72,363.15 " fill="none" id="ListOfPlayers-to-GamePlayersProvider" style="stroke:#181818;stroke-width:1.0;stroke-dasharray:7.0,7.0;"/><polygon fill="none" points="603.12,369.27,582.34,373.44,595.99,357.23,603.12,369.27" style="stroke:#181818;stroke-width:1.0;"/></g><!--MD5=[eaa24b4cc8088d78c8cc32e187f27c9c]
reverse link TicTacToe to TicTacToePlayer--><g id="link_TicTacToe_TicTacToePlayer"><path codeLine="68" d="M453.02,604.86 C454.43,622.98 456.11,644.37 457.35,660.26 " fill="none" id="TicTacToe-backto-TicTacToePlayer" style="stroke:#181818;stroke-width:1.0;"/><polygon fill="#181818" points="451.99,591.77,448.4704,598.0639,452.9265,603.7334,456.446,597.4395,451.99,591.77" style="stroke:#181818;stroke-width:1.0;"/></g><!--MD5=[15dfa4038ecb1d0265e5de62595b8206]
reverse link HangMan to HangManPlayer--><g id="link_HangMan_HangManPlayer"><path codeLine="69" d="M122.32,604.86 C120.91,622.98 119.23,644.37 117.99,660.26 " fill="none" id="HangMan-backto-HangManPlayer" style="stroke:#181818;stroke-width:1.0;"/><polygon fill="#181818" points="123.35,591.77,118.894,597.4395,122.4135,603.7334,126.8696,598.0639,123.35,591.77" style="stroke:#181818;stroke-width:1.0;"/></g><!--MD5=[f035fe94b578ef28dcd9ab9faba0353b]
link GamePlayer to TicTacToePlayer--><g id="link_GamePlayer_TicTacToePlayer"><path codeLine="71" d="M334.36,600.53 C357.15,615.68 384.38,633.78 407.58,649.21 " fill="none" id="GamePlayer-to-TicTacToePlayer" style="stroke:#181818;stroke-width:1.0;stroke-dasharray:7.0,7.0;"/><polygon fill="none" points="411.62,643.48,424.4,660.39,403.87,655.14,411.62,643.48" style="stroke:#181818;stroke-width:1.0;"/></g><!--MD5=[7b89c8d866bbdd88a385102d785eb496]
link GamePlayer to HangManPlayer--><g id="link_GamePlayer_HangManPlayer"><path codeLine="72" d="M238.82,600.53 C216.53,615.61 189.93,633.6 167.2,648.98 " fill="none" id="GamePlayer-to-HangManPlayer" style="stroke:#181818;stroke-width:1.0;stroke-dasharray:7.0,7.0;"/><polygon fill="none" points="170.83,654.98,150.34,660.39,162.98,643.38,170.83,654.98" style="stroke:#181818;stroke-width:1.0;"/></g><!--MD5=[a5af111458bcae67916cf11bd79ef415]
@startuml ClassDiagramMain-WithoutModelandViews

class GamesPlatform {
    -ListOfPlayers listOfPlayers
    -Game[] games
    +run()
}

package game {
    abstract class Game {
        # GamePlayer[] gamePlayers
        # GamePlayersProvider gamePlayersProvider
        + {abstract}Execute()
        # AssignRoles (GamePlayer[] gamePlayers)
        # flipRoles (GamePlayer[] gamePlayers)
    }
    package tictactoe {
        class TicTacToe {

        }
        interface TicTacToePlayer {

        }
    }
    package hangman {
        class HangMan {

        }
        interface HangManPlayer{

        }
    }

    interface GamePlayer {
        + processResult(int)
    }
    interface GamePlayersProvider {
        + getGamePlayers(int) : GamePlayer[]
    }

    package utils {
        class Dice{
            + int generateValue(int bound)
        }
    }

}

package player {
    class ListOfPlayers {
        +createPlayer(Player player)
        +getPlayer(int id)
    }
}

GamesPlatform *- - "2" Game
GamesPlatform *- - ListOfPlayers

Game <|- - TicTacToe
Game <|- - HangMan
Game -right-> GamePlayersProvider
Game *- - GamePlayer

Dice <.. Game
Dice <.. GamePlayer

ListOfPlayers ..|> GamePlayersProvider

TicTacToe *- - TicTacToePlayer
HangMan *- - HangManPlayer

GamePlayer ..|> TicTacToePlayer
GamePlayer ..|> HangManPlayer

@enduml

PlantUML version 1.2022.5(Sat Apr 30 04:55:52 CST 2022)
(GPL source distribution)
Java Runtime: Java(TM) SE Runtime Environment
JVM: Java HotSpot(TM) 64-Bit Server VM
Default Encoding: Cp1252
Language: en
Country: US
--></g></svg>