<?xml version="1.0" encoding="UTF-8" standalone="no"?><svg xmlns="http://www.w3.org/2000/svg" xmlns:xlink="http://www.w3.org/1999/xlink" contentStyleType="text/css" height="953px" preserveAspectRatio="none" style="width:597px;height:953px;background:#FFFFFF;" version="1.1" viewBox="0 0 597 953" width="597px" zoomAndPan="magnify"><defs/><g><!--MD5=[42603eecb267091c13893a16d8c379fb]
cluster player--><g id="cluster_player"><path d="M308.5,6 L352.5,6 A3.75,3.75 0 0 1 355,8.5 L362,29.6094 L535.5,29.6094 A2.5,2.5 0 0 1 538,32.1094 L538,138.5 A2.5,2.5 0 0 1 535.5,141 L308.5,141 A2.5,2.5 0 0 1 306,138.5 L306,8.5 A2.5,2.5 0 0 1 308.5,6 " style="stroke:#000000;stroke-width:1.5;fill:none;"/><line style="stroke:#000000;stroke-width:1.5;fill:none;" x1="306" x2="362" y1="29.6094" y2="29.6094"/><text fill="#000000" font-family="sans-serif" font-size="14" font-weight="bold" lengthAdjust="spacing" textLength="43" x="310" y="22.5332">player</text></g><!--MD5=[3e81cc6ee7da4fa8b6adc12b329096f6]
cluster util--><g id="cluster_util"><path d="M8.5,310 L31.5,310 A3.75,3.75 0 0 1 34,312.5 L41,333.6094 L227.5,333.6094 A2.5,2.5 0 0 1 230,336.1094 L230,425.5 A2.5,2.5 0 0 1 227.5,428 L8.5,428 A2.5,2.5 0 0 1 6,425.5 L6,312.5 A2.5,2.5 0 0 1 8.5,310 " style="stroke:#000000;stroke-width:1.5;fill:none;"/><line style="stroke:#000000;stroke-width:1.5;fill:none;" x1="6" x2="41" y1="333.6094" y2="333.6094"/><text fill="#000000" font-family="sans-serif" font-size="14" font-weight="bold" lengthAdjust="spacing" textLength="22" x="10" y="326.5332">util</text></g><!--MD5=[897ec0ebfd0fc927406c2620cf205ed0]
cluster ttt--><g id="cluster_ttt"><path d="M256.5,275 L272.5,275 A3.75,3.75 0 0 1 275,277.5 L282,298.6094 L587.5,298.6094 A2.5,2.5 0 0 1 590,301.1094 L590,943.5 A2.5,2.5 0 0 1 587.5,946 L256.5,946 A2.5,2.5 0 0 1 254,943.5 L254,277.5 A2.5,2.5 0 0 1 256.5,275 " style="stroke:#000000;stroke-width:1.5;fill:none;"/><line style="stroke:#000000;stroke-width:1.5;fill:none;" x1="254" x2="282" y1="298.6094" y2="298.6094"/><text fill="#000000" font-family="sans-serif" font-size="14" font-weight="bold" lengthAdjust="spacing" textLength="15" x="258" y="291.5332">ttt</text></g><!--MD5=[82a37a108f28ded8fb022e1a5df25ae5]
class ListOfPlayers--><g id="elem_ListOfPlayers"><rect codeLine="3" fill="#F1F1F1" height="83.2188" id="ListOfPlayers" rx="2.5" ry="2.5" style="stroke:#181818;stroke-width:0.5;" width="199" x="322.5" y="42"/><ellipse cx="375.75" cy="58" fill="#ADD1B2" rx="11" ry="11" style="stroke:#181818;stroke-width:1.0;"/><path d="M378.5156,53.875 Q378.6719,53.6563 378.8594,53.5469 Q379.0469,53.4375 379.2656,53.4375 Q379.6406,53.4375 379.875,53.7031 Q380.1094,53.9531 380.1094,54.5625 L380.1094,56.0156 Q380.1094,56.625 379.875,56.8906 Q379.6406,57.1563 379.2656,57.1563 Q378.9219,57.1563 378.7188,56.9531 Q378.5156,56.7656 378.4063,56.25 Q378.3594,55.8906 378.1719,55.7031 Q377.8438,55.3281 377.2344,55.1094 Q376.625,54.8906 376,54.8906 Q375.2344,54.8906 374.5938,55.2188 Q373.9688,55.5469 373.4688,56.2969 Q372.9844,57.0469 372.9844,58.0781 L372.9844,59.1719 Q372.9844,60.4063 373.875,61.2344 Q374.7656,62.0469 376.3594,62.0469 Q377.2969,62.0469 377.9531,61.7969 Q378.3438,61.6406 378.7656,61.2031 Q379.0313,60.9375 379.1719,60.8594 Q379.3281,60.7813 379.5313,60.7813 Q379.8594,60.7813 380.1094,61.0469 Q380.375,61.2969 380.375,61.6406 Q380.375,61.9844 380.0313,62.3906 Q379.5313,62.9688 378.7344,63.2969 Q377.6563,63.75 376.3594,63.75 Q374.8438,63.75 373.6406,63.125 Q372.6563,62.625 371.9688,61.5625 Q371.2813,60.4844 371.2813,59.2031 L371.2813,58.0469 Q371.2813,56.7188 371.8906,55.5781 Q372.5156,54.4219 373.6094,53.8125 Q374.7031,53.1875 375.9375,53.1875 Q376.6719,53.1875 377.3125,53.3594 Q377.9688,53.5156 378.5156,53.875 Z " fill="#000000"/><text fill="#000000" font-family="sans-serif" font-size="14" lengthAdjust="spacing" textLength="84" x="396.25" y="63.7285">ListOfPlayers</text><line style="stroke:#181818;stroke-width:0.5;" x1="323.5" x2="520.5" y1="74" y2="74"/><line style="stroke:#181818;stroke-width:0.5;" x1="323.5" x2="520.5" y1="82" y2="82"/><ellipse cx="333.5" cy="93" fill="#84BE84" rx="3" ry="3" style="stroke:#038048;stroke-width:1.0;"/><text fill="#000000" font-family="sans-serif" font-size="14" lengthAdjust="spacing" textLength="173" x="342.5" y="100.5332">createPlayer(Player player)</text><ellipse cx="333.5" cy="110.6094" fill="#84BE84" rx="3" ry="3" style="stroke:#038048;stroke-width:1.0;"/><text fill="#000000" font-family="sans-serif" font-size="14" lengthAdjust="spacing" textLength="100" x="342.5" y="118.1426">getPlayer(int id)</text></g><!--MD5=[f7a9ae25cb0ac60c5f03b7bfd778cce3]
class Dice--><g id="elem_Dice"><rect codeLine="17" fill="#F1F1F1" height="65.6094" id="Dice" rx="2.5" ry="2.5" style="stroke:#181818;stroke-width:0.5;" width="192" x="22" y="346"/><ellipse cx="99.75" cy="362" fill="#ADD1B2" rx="11" ry="11" style="stroke:#181818;stroke-width:1.0;"/><path d="M102.5156,357.875 Q102.6719,357.6563 102.8594,357.5469 Q103.0469,357.4375 103.2656,357.4375 Q103.6406,357.4375 103.875,357.7031 Q104.1094,357.9531 104.1094,358.5625 L104.1094,360.0156 Q104.1094,360.625 103.875,360.8906 Q103.6406,361.1563 103.2656,361.1563 Q102.9219,361.1563 102.7188,360.9531 Q102.5156,360.7656 102.4063,360.25 Q102.3594,359.8906 102.1719,359.7031 Q101.8438,359.3281 101.2344,359.1094 Q100.625,358.8906 100,358.8906 Q99.2344,358.8906 98.5938,359.2188 Q97.9688,359.5469 97.4688,360.2969 Q96.9844,361.0469 96.9844,362.0781 L96.9844,363.1719 Q96.9844,364.4063 97.875,365.2344 Q98.7656,366.0469 100.3594,366.0469 Q101.2969,366.0469 101.9531,365.7969 Q102.3438,365.6406 102.7656,365.2031 Q103.0313,364.9375 103.1719,364.8594 Q103.3281,364.7813 103.5313,364.7813 Q103.8594,364.7813 104.1094,365.0469 Q104.375,365.2969 104.375,365.6406 Q104.375,365.9844 104.0313,366.3906 Q103.5313,366.9688 102.7344,367.2969 Q101.6563,367.75 100.3594,367.75 Q98.8438,367.75 97.6406,367.125 Q96.6563,366.625 95.9688,365.5625 Q95.2813,364.4844 95.2813,363.2031 L95.2813,362.0469 Q95.2813,360.7188 95.8906,359.5781 Q96.5156,358.4219 97.6094,357.8125 Q98.7031,357.1875 99.9375,357.1875 Q100.6719,357.1875 101.3125,357.3594 Q101.9688,357.5156 102.5156,357.875 Z " fill="#000000"/><text fill="#000000" font-family="sans-serif" font-size="14" lengthAdjust="spacing" textLength="28" x="120.25" y="367.7285">Dice</text><line style="stroke:#181818;stroke-width:0.5;" x1="23" x2="213" y1="378" y2="378"/><line style="stroke:#181818;stroke-width:0.5;" x1="23" x2="213" y1="386" y2="386"/><ellipse cx="33" cy="397" fill="#84BE84" rx="3" ry="3" style="stroke:#038048;stroke-width:1.0;"/><text fill="#000000" font-family="sans-serif" font-size="14" lengthAdjust="spacing" textLength="166" x="42" y="404.5332">generateValue (int bound)</text></g><!--MD5=[36f719b1cbc3f26b5758ea249b208fb4]
class TicTacToe--><g id="elem_TicTacToe"><rect codeLine="23" fill="#F1F1F1" height="136.0469" id="TicTacToe" rx="2.5" ry="2.5" style="stroke:#181818;stroke-width:0.5;" width="303" x="270.5" y="311"/><ellipse cx="383.75" cy="327" fill="#ADD1B2" rx="11" ry="11" style="stroke:#181818;stroke-width:1.0;"/><path d="M386.5156,322.875 Q386.6719,322.6563 386.8594,322.5469 Q387.0469,322.4375 387.2656,322.4375 Q387.6406,322.4375 387.875,322.7031 Q388.1094,322.9531 388.1094,323.5625 L388.1094,325.0156 Q388.1094,325.625 387.875,325.8906 Q387.6406,326.1563 387.2656,326.1563 Q386.9219,326.1563 386.7188,325.9531 Q386.5156,325.7656 386.4063,325.25 Q386.3594,324.8906 386.1719,324.7031 Q385.8438,324.3281 385.2344,324.1094 Q384.625,323.8906 384,323.8906 Q383.2344,323.8906 382.5938,324.2188 Q381.9688,324.5469 381.4688,325.2969 Q380.9844,326.0469 380.9844,327.0781 L380.9844,328.1719 Q380.9844,329.4063 381.875,330.2344 Q382.7656,331.0469 384.3594,331.0469 Q385.2969,331.0469 385.9531,330.7969 Q386.3438,330.6406 386.7656,330.2031 Q387.0313,329.9375 387.1719,329.8594 Q387.3281,329.7813 387.5313,329.7813 Q387.8594,329.7813 388.1094,330.0469 Q388.375,330.2969 388.375,330.6406 Q388.375,330.9844 388.0313,331.3906 Q387.5313,331.9688 386.7344,332.2969 Q385.6563,332.75 384.3594,332.75 Q382.8438,332.75 381.6406,332.125 Q380.6563,331.625 379.9688,330.5625 Q379.2813,329.4844 379.2813,328.2031 L379.2813,327.0469 Q379.2813,325.7188 379.8906,324.5781 Q380.5156,323.4219 381.6094,322.8125 Q382.7031,322.1875 383.9375,322.1875 Q384.6719,322.1875 385.3125,322.3594 Q385.9688,322.5156 386.5156,322.875 Z " fill="#000000"/><text fill="#000000" font-family="sans-serif" font-size="14" lengthAdjust="spacing" textLength="68" x="404.25" y="332.7285">TicTacToe</text><line style="stroke:#181818;stroke-width:0.5;" x1="271.5" x2="572.5" y1="343" y2="343"/><polygon fill="none" points="281.5,349,285.5,353,281.5,357,277.5,353" style="stroke:#B38D22;stroke-width:1.0;"/><text fill="#000000" font-family="sans-serif" font-size="14" lengthAdjust="spacing" textLength="172" x="290.5" y="361.5332">GamePlayer[] gamePlayers</text><polygon fill="none" points="281.5,366.6094,285.5,370.6094,281.5,374.6094,277.5,370.6094" style="stroke:#B38D22;stroke-width:1.0;"/><text fill="#000000" font-family="sans-serif" font-size="14" lengthAdjust="spacing" textLength="277" x="290.5" y="379.1426">GamePlayersProvider gamePlayersProvider</text><line style="stroke:#181818;stroke-width:0.5;" x1="271.5" x2="572.5" y1="386.2188" y2="386.2188"/><ellipse cx="281.5" cy="397.2188" fill="#84BE84" rx="3" ry="3" style="stroke:#038048;stroke-width:1.0;"/><text fill="#000000" font-family="sans-serif" font-size="14" lengthAdjust="spacing" textLength="60" x="290.5" y="404.752">Execute()</text><polygon fill="#FFFF44" points="281.5,409.8281,285.5,413.8281,281.5,417.8281,277.5,413.8281" style="stroke:#B38D22;stroke-width:1.0;"/><text fill="#000000" font-family="sans-serif" font-size="14" lengthAdjust="spacing" textLength="264" x="290.5" y="422.3613">AssignRoles (GamePlayer[] gamePlayers)</text><polygon fill="#FFFF44" points="281.5,427.4375,285.5,431.4375,281.5,435.4375,277.5,431.4375" style="stroke:#B38D22;stroke-width:1.0;"/><text fill="#000000" font-family="sans-serif" font-size="14" lengthAdjust="spacing" textLength="240" x="290.5" y="439.9707">flipRoles (GamePlayer[] gamePlayers)</text></g><!--MD5=[52855fec3bcd5e41561eba29dc142e36]
class TicTacToePlayer--><g id="elem_TicTacToePlayer"><rect codeLine="30" fill="#F1F1F1" height="65.6094" id="TicTacToePlayer" rx="2.5" ry="2.5" style="stroke:#181818;stroke-width:0.5;" width="140" x="270" y="633"/><ellipse cx="285" cy="649" fill="#B4A7E5" rx="11" ry="11" style="stroke:#181818;stroke-width:1.0;"/><path d="M285.9531,645.6406 L285.9531,652.2969 L287.6719,652.2969 Q288.2813,652.2969 288.5469,652.5313 Q288.8125,652.7656 288.8125,653.1563 Q288.8125,653.5313 288.5469,653.7656 Q288.2813,654 287.6719,654 L282.5313,654 Q281.9219,654 281.6563,653.7656 Q281.3906,653.5313 281.3906,653.1406 Q281.3906,652.7656 281.6563,652.5313 Q281.9219,652.2969 282.5313,652.2969 L284.25,652.2969 L284.25,645.6406 L282.5313,645.6406 Q281.9219,645.6406 281.6563,645.4063 Q281.3906,645.1719 281.3906,644.7813 Q281.3906,644.4063 281.6563,644.1719 Q281.9219,643.9375 282.5313,643.9375 L287.6719,643.9375 Q288.2813,643.9375 288.5469,644.1719 Q288.8125,644.4063 288.8125,644.7813 Q288.8125,645.1719 288.5469,645.4063 Q288.2813,645.6406 287.6719,645.6406 L285.9531,645.6406 Z " fill="#000000"/><text fill="#000000" font-family="sans-serif" font-size="14" font-style="italic" lengthAdjust="spacing" textLength="108" x="299" y="654.7285">TicTacToePlayer</text><line style="stroke:#181818;stroke-width:0.5;" x1="271" x2="409" y1="665" y2="665"/><line style="stroke:#181818;stroke-width:0.5;" x1="271" x2="409" y1="673" y2="673"/><ellipse cx="281" cy="684" fill="#84BE84" rx="3" ry="3" style="stroke:#038048;stroke-width:1.0;"/><text fill="#000000" font-family="sans-serif" font-size="14" lengthAdjust="spacing" textLength="61" x="290" y="691.5332">putMark()</text></g><!--MD5=[bf4cfa753ec0cd54a2bc4da97484874d]
class TurnTicTacToe--><g id="elem_TurnTicTacToe"><rect codeLine="33" fill="#F1F1F1" height="65.6094" id="TurnTicTacToe" rx="2.5" ry="2.5" style="stroke:#181818;stroke-width:0.5;" width="130" x="357" y="507"/><ellipse cx="372" cy="523" fill="#ADD1B2" rx="11" ry="11" style="stroke:#181818;stroke-width:1.0;"/><path d="M374.7656,518.875 Q374.9219,518.6563 375.1094,518.5469 Q375.2969,518.4375 375.5156,518.4375 Q375.8906,518.4375 376.125,518.7031 Q376.3594,518.9531 376.3594,519.5625 L376.3594,521.0156 Q376.3594,521.625 376.125,521.8906 Q375.8906,522.1563 375.5156,522.1563 Q375.1719,522.1563 374.9688,521.9531 Q374.7656,521.7656 374.6563,521.25 Q374.6094,520.8906 374.4219,520.7031 Q374.0938,520.3281 373.4844,520.1094 Q372.875,519.8906 372.25,519.8906 Q371.4844,519.8906 370.8438,520.2188 Q370.2188,520.5469 369.7188,521.2969 Q369.2344,522.0469 369.2344,523.0781 L369.2344,524.1719 Q369.2344,525.4063 370.125,526.2344 Q371.0156,527.0469 372.6094,527.0469 Q373.5469,527.0469 374.2031,526.7969 Q374.5938,526.6406 375.0156,526.2031 Q375.2813,525.9375 375.4219,525.8594 Q375.5781,525.7813 375.7813,525.7813 Q376.1094,525.7813 376.3594,526.0469 Q376.625,526.2969 376.625,526.6406 Q376.625,526.9844 376.2813,527.3906 Q375.7813,527.9688 374.9844,528.2969 Q373.9063,528.75 372.6094,528.75 Q371.0938,528.75 369.8906,528.125 Q368.9063,527.625 368.2188,526.5625 Q367.5313,525.4844 367.5313,524.2031 L367.5313,523.0469 Q367.5313,521.7188 368.1406,520.5781 Q368.7656,519.4219 369.8594,518.8125 Q370.9531,518.1875 372.1875,518.1875 Q372.9219,518.1875 373.5625,518.3594 Q374.2188,518.5156 374.7656,518.875 Z " fill="#000000"/><text fill="#000000" font-family="sans-serif" font-size="14" lengthAdjust="spacing" textLength="98" x="386" y="528.7285">TurnTicTacToe</text><line style="stroke:#181818;stroke-width:0.5;" x1="358" x2="486" y1="539" y2="539"/><line style="stroke:#181818;stroke-width:0.5;" x1="358" x2="486" y1="547" y2="547"/><ellipse cx="368" cy="558" fill="#84BE84" rx="3" ry="3" style="stroke:#038048;stroke-width:1.0;"/><text fill="#000000" font-family="sans-serif" font-size="14" lengthAdjust="spacing" textLength="36" x="377" y="565.5332">play()</text></g><!--MD5=[9563755d011c5cec7ec66dc53565a59e]
class Board--><g id="elem_Board"><rect codeLine="36" fill="#F1F1F1" height="171.2656" id="Board" rx="2.5" ry="2.5" style="stroke:#181818;stroke-width:0.5;" width="279" x="282.5" y="759"/><ellipse cx="398.75" cy="775" fill="#ADD1B2" rx="11" ry="11" style="stroke:#181818;stroke-width:1.0;"/><path d="M401.5156,770.875 Q401.6719,770.6563 401.8594,770.5469 Q402.0469,770.4375 402.2656,770.4375 Q402.6406,770.4375 402.875,770.7031 Q403.1094,770.9531 403.1094,771.5625 L403.1094,773.0156 Q403.1094,773.625 402.875,773.8906 Q402.6406,774.1563 402.2656,774.1563 Q401.9219,774.1563 401.7188,773.9531 Q401.5156,773.7656 401.4063,773.25 Q401.3594,772.8906 401.1719,772.7031 Q400.8438,772.3281 400.2344,772.1094 Q399.625,771.8906 399,771.8906 Q398.2344,771.8906 397.5938,772.2188 Q396.9688,772.5469 396.4688,773.2969 Q395.9844,774.0469 395.9844,775.0781 L395.9844,776.1719 Q395.9844,777.4063 396.875,778.2344 Q397.7656,779.0469 399.3594,779.0469 Q400.2969,779.0469 400.9531,778.7969 Q401.3438,778.6406 401.7656,778.2031 Q402.0313,777.9375 402.1719,777.8594 Q402.3281,777.7813 402.5313,777.7813 Q402.8594,777.7813 403.1094,778.0469 Q403.375,778.2969 403.375,778.6406 Q403.375,778.9844 403.0313,779.3906 Q402.5313,779.9688 401.7344,780.2969 Q400.6563,780.75 399.3594,780.75 Q397.8438,780.75 396.6406,780.125 Q395.6563,779.625 394.9688,778.5625 Q394.2813,777.4844 394.2813,776.2031 L394.2813,775.0469 Q394.2813,773.7188 394.8906,772.5781 Q395.5156,771.4219 396.6094,770.8125 Q397.7031,770.1875 398.9375,770.1875 Q399.6719,770.1875 400.3125,770.3594 Q400.9688,770.5156 401.5156,770.875 Z " fill="#000000"/><text fill="#000000" font-family="sans-serif" font-size="14" lengthAdjust="spacing" textLength="38" x="419.25" y="780.7285">Board</text><line style="stroke:#181818;stroke-width:0.5;" x1="283.5" x2="560.5" y1="791" y2="791"/><ellipse cx="293.5" cy="802" fill="none" rx="3" ry="3" style="stroke:#038048;stroke-width:1.0;"/><text fill="#000000" font-family="sans-serif" font-size="14" lengthAdjust="spacing" textLength="109" x="302.5" y="809.5332">EmptySquare = 9</text><line style="stroke:#181818;stroke-width:0.5;" x1="283.5" x2="560.5" y1="816.6094" y2="816.6094"/><ellipse cx="293.5" cy="827.6094" fill="#84BE84" rx="3" ry="3" style="stroke:#038048;stroke-width:1.0;"/><text fill="#000000" font-family="sans-serif" font-size="14" lengthAdjust="spacing" textLength="88" x="302.5" y="835.1426">createBoard()</text><ellipse cx="293.5" cy="845.2188" fill="#84BE84" rx="3" ry="3" style="stroke:#038048;stroke-width:1.0;"/><text fill="#000000" font-family="sans-serif" font-size="14" lengthAdjust="spacing" textLength="43" x="302.5" y="852.752">isFull()</text><ellipse cx="293.5" cy="862.8281" fill="#84BE84" rx="3" ry="3" style="stroke:#038048;stroke-width:1.0;"/><text fill="#000000" font-family="sans-serif" font-size="14" lengthAdjust="spacing" textLength="253" x="302.5" y="870.3613">putPiece (Position position, Piece piece)</text><rect fill="#F24D5C" height="6" style="stroke:#C82930;stroke-width:1.0;" width="6" x="290.5" y="877.4375"/><text fill="#000000" font-family="sans-serif" font-size="14" lengthAdjust="spacing" textLength="81" x="302.5" y="887.9707">checkRows()</text><rect fill="#F24D5C" height="6" style="stroke:#C82930;stroke-width:1.0;" width="6" x="290.5" y="895.0469"/><text fill="#000000" font-family="sans-serif" font-size="14" lengthAdjust="spacing" textLength="102" x="302.5" y="905.5801">checkColumns()</text><rect fill="#F24D5C" height="6" style="stroke:#C82930;stroke-width:1.0;" width="6" x="290.5" y="912.6563"/><text fill="#000000" font-family="sans-serif" font-size="14" lengthAdjust="spacing" textLength="110" x="302.5" y="923.1895">checkDiagonals()</text></g><!--MD5=[b0359cb538a0ce2cb72f54394993c3c4]
class GamePlayer--><g id="elem_GamePlayer"><rect codeLine="9" fill="#F1F1F1" height="65.6094" id="GamePlayer" rx="2.5" ry="2.5" style="stroke:#181818;stroke-width:0.5;" width="141" x="96.5" y="507"/><ellipse cx="125.45" cy="523" fill="#B4A7E5" rx="11" ry="11" style="stroke:#181818;stroke-width:1.0;"/><path d="M126.4031,519.6406 L126.4031,526.2969 L128.1219,526.2969 Q128.7313,526.2969 128.9969,526.5313 Q129.2625,526.7656 129.2625,527.1563 Q129.2625,527.5313 128.9969,527.7656 Q128.7313,528 128.1219,528 L122.9813,528 Q122.3719,528 122.1063,527.7656 Q121.8406,527.5313 121.8406,527.1406 Q121.8406,526.7656 122.1063,526.5313 Q122.3719,526.2969 122.9813,526.2969 L124.7,526.2969 L124.7,519.6406 L122.9813,519.6406 Q122.3719,519.6406 122.1063,519.4063 Q121.8406,519.1719 121.8406,518.7813 Q121.8406,518.4063 122.1063,518.1719 Q122.3719,517.9375 122.9813,517.9375 L128.1219,517.9375 Q128.7313,517.9375 128.9969,518.1719 Q129.2625,518.4063 129.2625,518.7813 Q129.2625,519.1719 128.9969,519.4063 Q128.7313,519.6406 128.1219,519.6406 L126.4031,519.6406 Z " fill="#000000"/><text fill="#000000" font-family="sans-serif" font-size="14" font-style="italic" lengthAdjust="spacing" textLength="78" x="142.55" y="528.7285">GamePlayer</text><line style="stroke:#181818;stroke-width:0.5;" x1="97.5" x2="236.5" y1="539" y2="539"/><line style="stroke:#181818;stroke-width:0.5;" x1="97.5" x2="236.5" y1="547" y2="547"/><ellipse cx="107.5" cy="558" fill="#84BE84" rx="3" ry="3" style="stroke:#038048;stroke-width:1.0;"/><text fill="#000000" font-family="sans-serif" font-size="14" lengthAdjust="spacing" textLength="115" x="116.5" y="565.5332">processResult(int)</text></g><!--MD5=[26178a7f5ccfc2a33ee17310fc2a0bb3]
class GamePlayersProvider--><g id="elem_GamePlayersProvider"><rect codeLine="12" fill="#F1F1F1" height="65.6094" id="GamePlayersProvider" rx="2.5" ry="2.5" style="stroke:#181818;stroke-width:0.5;" width="254" x="295" y="185"/><ellipse cx="349.25" cy="201" fill="#B4A7E5" rx="11" ry="11" style="stroke:#181818;stroke-width:1.0;"/><path d="M350.2031,197.6406 L350.2031,204.2969 L351.9219,204.2969 Q352.5313,204.2969 352.7969,204.5313 Q353.0625,204.7656 353.0625,205.1563 Q353.0625,205.5313 352.7969,205.7656 Q352.5313,206 351.9219,206 L346.7813,206 Q346.1719,206 345.9063,205.7656 Q345.6406,205.5313 345.6406,205.1406 Q345.6406,204.7656 345.9063,204.5313 Q346.1719,204.2969 346.7813,204.2969 L348.5,204.2969 L348.5,197.6406 L346.7813,197.6406 Q346.1719,197.6406 345.9063,197.4063 Q345.6406,197.1719 345.6406,196.7813 Q345.6406,196.4063 345.9063,196.1719 Q346.1719,195.9375 346.7813,195.9375 L351.9219,195.9375 Q352.5313,195.9375 352.7969,196.1719 Q353.0625,196.4063 353.0625,196.7813 Q353.0625,197.1719 352.7969,197.4063 Q352.5313,197.6406 351.9219,197.6406 L350.2031,197.6406 Z " fill="#000000"/><text fill="#000000" font-family="sans-serif" font-size="14" font-style="italic" lengthAdjust="spacing" textLength="137" x="369.75" y="206.7285">GamePlayersProvider</text><line style="stroke:#181818;stroke-width:0.5;" x1="296" x2="548" y1="217" y2="217"/><line style="stroke:#181818;stroke-width:0.5;" x1="296" x2="548" y1="225" y2="225"/><ellipse cx="306" cy="236" fill="#84BE84" rx="3" ry="3" style="stroke:#038048;stroke-width:1.0;"/><text fill="#000000" font-family="sans-serif" font-size="14" lengthAdjust="spacing" textLength="228" x="315" y="243.5332">getGamePlayers(int) : GamePlayer[]</text></g><!--MD5=[aa4a757cc4d4ceab84ee52e3878b5ec9]
reverse link TicTacToe to TurnTicTacToe--><g id="link_TicTacToe_TurnTicTacToe"><path codeLine="47" d="M422,460.59 C422,477.06 422,493.46 422,506.97 " fill="none" id="TicTacToe-backto-TurnTicTacToe" style="stroke:#181818;stroke-width:1.0;"/><polygon fill="#181818" points="422,447.43,418,453.43,422,459.43,426,453.43,422,447.43" style="stroke:#181818;stroke-width:1.0;"/></g><!--MD5=[b58472dbe3241849a7379b53160f62f1]
reverse link TurnTicTacToe to TicTacToePlayer--><g id="link_TurnTicTacToe_TicTacToePlayer"><path codeLine="48" d="M393.25,584.47 C382.71,600.41 370.98,618.14 361.22,632.91 " fill="none" id="TurnTicTacToe-backto-TicTacToePlayer" style="stroke:#181818;stroke-width:1.0;"/><polygon fill="#181818" points="400.67,573.26,394.0238,576.0578,394.0502,583.2689,400.6964,580.4711,400.67,573.26" style="stroke:#181818;stroke-width:1.0;"/></g><!--MD5=[6b9fd3da3a2e882bb2b197a7233b89f0]
reverse link TurnTicTacToe to Board--><g id="link_TurnTicTacToe_Board"><path codeLine="50" d="M425.55,586.39 C426.55,601.24 427.51,617.81 428,633 C429.35,674.47 428.32,720.55 426.76,758.99 " fill="none" id="TurnTicTacToe-backto-Board" style="stroke:#181818;stroke-width:1.0;"/><polygon fill="#181818" points="424.63,573.33,421.0618,579.5964,425.4737,585.3003,429.042,579.0339,424.63,573.33" style="stroke:#181818;stroke-width:1.0;"/></g><!--MD5=[22a058425986791f35aeea227c9e8036]
link TicTacToe to Dice--><g id="link_TicTacToe_Dice"><path codeLine="52" d="M270.2,379 C253.28,379 236.36,379 219.44,379 " fill="none" id="TicTacToe-to-Dice" style="stroke:#181818;stroke-width:1.0;stroke-dasharray:7.0,7.0;"/><polygon fill="#181818" points="214.19,379,223.19,383,219.19,379,223.19,375,214.19,379" style="stroke:#181818;stroke-width:1.0;"/></g><!--MD5=[3f6fc96ad8e0d96465f0b16b73398ffd]
reverse link GamePlayersProvider to TicTacToe--><g id="link_GamePlayersProvider_TicTacToe"><path codeLine="53" d="M422,256.54 C422,272.74 422,292.19 422,310.74 " fill="none" id="GamePlayersProvider-backto-TicTacToe" style="stroke:#181818;stroke-width:1.0;"/><polygon fill="#181818" points="422,251.18,418,260.18,422,256.18,426,260.18,422,251.18" style="stroke:#181818;stroke-width:1.0;"/></g><!--MD5=[ce735c1cdd387ffa44cb012fb47a3a5a]
reverse link Dice to GamePlayer--><g id="link_Dice_GamePlayer"><path codeLine="55" d="M129.45,417.14 C137.83,444.35 149.1,480.92 157.1,506.87 " fill="none" id="Dice-backto-GamePlayer" style="stroke:#181818;stroke-width:1.0;stroke-dasharray:7.0,7.0;"/><polygon fill="#181818" points="127.92,412.18,126.7498,421.9591,129.3934,416.958,134.3946,419.6016,127.92,412.18" style="stroke:#181818;stroke-width:1.0;"/></g><!--MD5=[46ba9c7d925c82f4e4391cfab8746e42]
link ListOfPlayers to GamePlayersProvider--><g id="link_ListOfPlayers_GamePlayersProvider"><path codeLine="56" d="M422,125.34 C422,137.76 422,151.59 422,164.67 " fill="none" id="ListOfPlayers-to-GamePlayersProvider" style="stroke:#181818;stroke-width:1.0;stroke-dasharray:7.0,7.0;"/><polygon fill="none" points="429,164.92,422,184.92,415,164.92,429,164.92" style="stroke:#181818;stroke-width:1.0;"/></g><!--MD5=[d143332e1b5ef7810ac3eee398b205df]
reverse link TicTacToe to GamePlayer--><g id="link_TicTacToe_GamePlayer"><path codeLine="58" d="M302.9,454.26 C273.23,472.76 242.95,491.64 218.52,506.87 " fill="none" id="TicTacToe-backto-GamePlayer" style="stroke:#181818;stroke-width:1.0;"/><polygon fill="#181818" points="314.23,447.2,307.0223,446.9779,304.0451,453.5458,311.2528,453.7678,314.23,447.2" style="stroke:#181818;stroke-width:1.0;"/></g><!--MD5=[dc3de1633c5da7be729167f208fb43ee]
link TicTacToePlayer to Board--><g id="link_TicTacToePlayer_Board"><path codeLine="60" d="M355.04,699.37 C362.24,714.88 371.26,734.29 380.33,753.8 " fill="none" id="TicTacToePlayer-to-Board" style="stroke:#181818;stroke-width:1.0;"/><polygon fill="#181818" points="382.63,758.76,382.4726,748.9124,380.5265,754.224,375.215,752.2779,382.63,758.76" style="stroke:#181818;stroke-width:1.0;"/></g><!--MD5=[f035fe94b578ef28dcd9ab9faba0353b]
link GamePlayer to TicTacToePlayer--><g id="link_GamePlayer_TicTacToePlayer"><path codeLine="62" d="M212,573.26 C232.43,587.89 256.89,605.43 278.94,621.24 " fill="none" id="GamePlayer-to-TicTacToePlayer" style="stroke:#181818;stroke-width:1.0;"/><polygon fill="none" points="283.05,615.56,295.22,632.91,274.89,626.94,283.05,615.56" style="stroke:#181818;stroke-width:1.0;"/></g><!--MD5=[baaa757dbf0429c7d16ba5b8d7640faa]
@startuml ClassDiagramTictactoe-WithoutModelandViews

package player {
    class ListOfPlayers {
        +createPlayer(Player player)
        +getPlayer(int id)
    }
}

interface GamePlayer {
    + processResult(int)
}
interface GamePlayersProvider {
    + getGamePlayers(int) : GamePlayer[]
}

package util {
    class Dice{
        +generateValue (int bound)
    }
}

package ttt {
    class TicTacToe {
        # GamePlayer[] gamePlayers
        # GamePlayersProvider gamePlayersProvider
        + Execute()
        # AssignRoles (GamePlayer[] gamePlayers)
        # flipRoles (GamePlayer[] gamePlayers)
    }
    interface TicTacToePlayer {
        +putMark()
    }
    class TurnTicTacToe {
        +play()
    }
    class Board {
        +EmptySquare = 9
        +createBoard()
        +isFull()
        +putPiece (Position position, Piece piece)
        -checkRows()
        -checkColumns()
        -checkDiagonals()
    }
}

TicTacToe *- - TurnTicTacToe
TurnTicTacToe *- - TicTacToePlayer

TurnTicTacToe *- - Board

TicTacToe ..> Dice
TicTacToe -up-> GamePlayersProvider

Dice <.. GamePlayer
ListOfPlayers ..|> GamePlayersProvider

TicTacToe *- - GamePlayer

TicTacToePlayer- ->Board

GamePlayer - -|>  TicTacToePlayer

@enduml

PlantUML version 1.2022.5(Sat Apr 30 04:55:52 CST 2022)
(GPL source distribution)
Java Runtime: Java(TM) SE Runtime Environment
JVM: Java HotSpot(TM) 64-Bit Server VM
Default Encoding: Cp1252
Language: en
Country: US
--></g></svg>