<?xml version="1.0" encoding="UTF-8" standalone="no"?><svg xmlns="http://www.w3.org/2000/svg" xmlns:xlink="http://www.w3.org/1999/xlink" contentStyleType="text/css" height="240px" preserveAspectRatio="none" style="width:343px;height:240px;background:#FFFFFF;" version="1.1" viewBox="0 0 343 240" width="343px" zoomAndPan="magnify"><defs/><g><!--MD5=[d7731e51439e3250c63a8cdcafb59da5]
class HangMan--><g id="elem_HangMan"><rect codeLine="2" fill="#F1F1F1" height="83.2188" id="HangMan" rx="2.5" ry="2.5" style="stroke:#181818;stroke-width:0.5;" width="110" x="7" y="16"/><ellipse cx="30.1" cy="32" fill="#ADD1B2" rx="11" ry="11" style="stroke:#181818;stroke-width:1.0;"/><path d="M32.8656,27.875 Q33.0219,27.6563 33.2094,27.5469 Q33.3969,27.4375 33.6156,27.4375 Q33.9906,27.4375 34.225,27.7031 Q34.4594,27.9531 34.4594,28.5625 L34.4594,30.0156 Q34.4594,30.625 34.225,30.8906 Q33.9906,31.1563 33.6156,31.1563 Q33.2719,31.1563 33.0688,30.9531 Q32.8656,30.7656 32.7563,30.25 Q32.7094,29.8906 32.5219,29.7031 Q32.1938,29.3281 31.5844,29.1094 Q30.975,28.8906 30.35,28.8906 Q29.5844,28.8906 28.9438,29.2188 Q28.3188,29.5469 27.8188,30.2969 Q27.3344,31.0469 27.3344,32.0781 L27.3344,33.1719 Q27.3344,34.4063 28.225,35.2344 Q29.1156,36.0469 30.7094,36.0469 Q31.6469,36.0469 32.3031,35.7969 Q32.6938,35.6406 33.1156,35.2031 Q33.3813,34.9375 33.5219,34.8594 Q33.6781,34.7813 33.8813,34.7813 Q34.2094,34.7813 34.4594,35.0469 Q34.725,35.2969 34.725,35.6406 Q34.725,35.9844 34.3813,36.3906 Q33.8813,36.9688 33.0844,37.2969 Q32.0063,37.75 30.7094,37.75 Q29.1938,37.75 27.9906,37.125 Q27.0063,36.625 26.3188,35.5625 Q25.6313,34.4844 25.6313,33.2031 L25.6313,32.0469 Q25.6313,30.7188 26.2406,29.5781 Q26.8656,28.4219 27.9594,27.8125 Q29.0531,27.1875 30.2875,27.1875 Q31.0219,27.1875 31.6625,27.3594 Q32.3188,27.5156 32.8656,27.875 Z " fill="#000000"/><text fill="#000000" font-family="sans-serif" font-size="14" lengthAdjust="spacing" textLength="60" x="45.9" y="37.7285">HangMan</text><line style="stroke:#181818;stroke-width:0.5;" x1="8" x2="116" y1="48" y2="48"/><line style="stroke:#181818;stroke-width:0.5;" x1="8" x2="116" y1="56" y2="56"/><ellipse cx="18" cy="67" fill="#84BE84" rx="3" ry="3" style="stroke:#038048;stroke-width:1.0;"/><text fill="#000000" font-family="sans-serif" font-size="14" lengthAdjust="spacing" textLength="84" x="27" y="74.5332">Introduction()</text><ellipse cx="18" cy="84.6094" fill="#84BE84" rx="3" ry="3" style="stroke:#038048;stroke-width:1.0;"/><text fill="#000000" font-family="sans-serif" font-size="14" lengthAdjust="spacing" textLength="62" x="27" y="92.1426">Resume()</text></g><!--MD5=[82a37a108f28ded8fb022e1a5df25ae5]
class ListOfPlayers--><g id="elem_ListOfPlayers"><rect codeLine="7" fill="#F1F1F1" height="100.8281" id="ListOfPlayers" rx="2.5" ry="2.5" style="stroke:#181818;stroke-width:0.5;" width="184" x="152" y="7"/><ellipse cx="197.75" cy="23" fill="#ADD1B2" rx="11" ry="11" style="stroke:#181818;stroke-width:1.0;"/><path d="M200.5156,18.875 Q200.6719,18.6563 200.8594,18.5469 Q201.0469,18.4375 201.2656,18.4375 Q201.6406,18.4375 201.875,18.7031 Q202.1094,18.9531 202.1094,19.5625 L202.1094,21.0156 Q202.1094,21.625 201.875,21.8906 Q201.6406,22.1563 201.2656,22.1563 Q200.9219,22.1563 200.7188,21.9531 Q200.5156,21.7656 200.4063,21.25 Q200.3594,20.8906 200.1719,20.7031 Q199.8438,20.3281 199.2344,20.1094 Q198.625,19.8906 198,19.8906 Q197.2344,19.8906 196.5938,20.2188 Q195.9688,20.5469 195.4688,21.2969 Q194.9844,22.0469 194.9844,23.0781 L194.9844,24.1719 Q194.9844,25.4063 195.875,26.2344 Q196.7656,27.0469 198.3594,27.0469 Q199.2969,27.0469 199.9531,26.7969 Q200.3438,26.6406 200.7656,26.2031 Q201.0313,25.9375 201.1719,25.8594 Q201.3281,25.7813 201.5313,25.7813 Q201.8594,25.7813 202.1094,26.0469 Q202.375,26.2969 202.375,26.6406 Q202.375,26.9844 202.0313,27.3906 Q201.5313,27.9688 200.7344,28.2969 Q199.6563,28.75 198.3594,28.75 Q196.8438,28.75 195.6406,28.125 Q194.6563,27.625 193.9688,26.5625 Q193.2813,25.4844 193.2813,24.2031 L193.2813,23.0469 Q193.2813,21.7188 193.8906,20.5781 Q194.5156,19.4219 195.6094,18.8125 Q196.7031,18.1875 197.9375,18.1875 Q198.6719,18.1875 199.3125,18.3594 Q199.9688,18.5156 200.5156,18.875 Z " fill="#000000"/><text fill="#000000" font-family="sans-serif" font-size="14" lengthAdjust="spacing" textLength="84" x="218.25" y="28.7285">ListOfPlayers</text><line style="stroke:#181818;stroke-width:0.5;" x1="153" x2="335" y1="39" y2="39"/><line style="stroke:#181818;stroke-width:0.5;" x1="153" x2="335" y1="47" y2="47"/><ellipse cx="163" cy="58" fill="#84BE84" rx="3" ry="3" style="stroke:#038048;stroke-width:1.0;"/><text fill="#000000" font-family="sans-serif" font-size="14" lengthAdjust="spacing" textLength="52" x="172" y="65.5332">getList()</text><ellipse cx="163" cy="75.6094" fill="#84BE84" rx="3" ry="3" style="stroke:#038048;stroke-width:1.0;"/><text fill="#000000" font-family="sans-serif" font-size="14" lengthAdjust="spacing" textLength="60" x="172" y="83.1426">printList()</text><ellipse cx="163" cy="93.2188" fill="#84BE84" rx="3" ry="3" style="stroke:#038048;stroke-width:1.0;"/><text fill="#000000" font-family="sans-serif" font-size="14" lengthAdjust="spacing" textLength="158" x="172" y="100.752">getGamePlayers(int size)</text></g><!--MD5=[1e8c54f5ac0ec684c0f71587f512d7a6]
class SecretWord--><g id="elem_SecretWord"><rect codeLine="13" fill="#F1F1F1" height="65.6094" id="SecretWord" rx="2.5" ry="2.5" style="stroke:#181818;stroke-width:0.5;" width="107" x="8.5" y="168"/><ellipse cx="23.5" cy="184" fill="#ADD1B2" rx="11" ry="11" style="stroke:#181818;stroke-width:1.0;"/><path d="M26.2656,179.875 Q26.4219,179.6563 26.6094,179.5469 Q26.7969,179.4375 27.0156,179.4375 Q27.3906,179.4375 27.625,179.7031 Q27.8594,179.9531 27.8594,180.5625 L27.8594,182.0156 Q27.8594,182.625 27.625,182.8906 Q27.3906,183.1563 27.0156,183.1563 Q26.6719,183.1563 26.4688,182.9531 Q26.2656,182.7656 26.1563,182.25 Q26.1094,181.8906 25.9219,181.7031 Q25.5938,181.3281 24.9844,181.1094 Q24.375,180.8906 23.75,180.8906 Q22.9844,180.8906 22.3438,181.2188 Q21.7188,181.5469 21.2188,182.2969 Q20.7344,183.0469 20.7344,184.0781 L20.7344,185.1719 Q20.7344,186.4063 21.625,187.2344 Q22.5156,188.0469 24.1094,188.0469 Q25.0469,188.0469 25.7031,187.7969 Q26.0938,187.6406 26.5156,187.2031 Q26.7813,186.9375 26.9219,186.8594 Q27.0781,186.7813 27.2813,186.7813 Q27.6094,186.7813 27.8594,187.0469 Q28.125,187.2969 28.125,187.6406 Q28.125,187.9844 27.7813,188.3906 Q27.2813,188.9688 26.4844,189.2969 Q25.4063,189.75 24.1094,189.75 Q22.5938,189.75 21.3906,189.125 Q20.4063,188.625 19.7188,187.5625 Q19.0313,186.4844 19.0313,185.2031 L19.0313,184.0469 Q19.0313,182.7188 19.6406,181.5781 Q20.2656,180.4219 21.3594,179.8125 Q22.4531,179.1875 23.6875,179.1875 Q24.4219,179.1875 25.0625,179.3594 Q25.7188,179.5156 26.2656,179.875 Z " fill="#000000"/><text fill="#000000" font-family="sans-serif" font-size="14" lengthAdjust="spacing" textLength="75" x="37.5" y="189.7285">SecretWord</text><line style="stroke:#181818;stroke-width:0.5;" x1="9.5" x2="114.5" y1="200" y2="200"/><line style="stroke:#181818;stroke-width:0.5;" x1="9.5" x2="114.5" y1="208" y2="208"/><ellipse cx="19.5" cy="219" fill="#84BE84" rx="3" ry="3" style="stroke:#038048;stroke-width:1.0;"/><text fill="#000000" font-family="sans-serif" font-size="14" lengthAdjust="spacing" textLength="72" x="28.5" y="226.5332">printWord()</text></g><!--MD5=[2aa92d2e607ce5e0eb2e8fd93adcb836]
class HangedMan--><g id="elem_HangedMan"><rect codeLine="17" fill="#F1F1F1" height="65.6094" id="HangedMan" rx="2.5" ry="2.5" style="stroke:#181818;stroke-width:0.5;" width="144" x="151" y="168"/><ellipse cx="182.2" cy="184" fill="#ADD1B2" rx="11" ry="11" style="stroke:#181818;stroke-width:1.0;"/><path d="M184.9656,179.875 Q185.1219,179.6563 185.3094,179.5469 Q185.4969,179.4375 185.7156,179.4375 Q186.0906,179.4375 186.325,179.7031 Q186.5594,179.9531 186.5594,180.5625 L186.5594,182.0156 Q186.5594,182.625 186.325,182.8906 Q186.0906,183.1563 185.7156,183.1563 Q185.3719,183.1563 185.1688,182.9531 Q184.9656,182.7656 184.8563,182.25 Q184.8094,181.8906 184.6219,181.7031 Q184.2938,181.3281 183.6844,181.1094 Q183.075,180.8906 182.45,180.8906 Q181.6844,180.8906 181.0438,181.2188 Q180.4188,181.5469 179.9188,182.2969 Q179.4344,183.0469 179.4344,184.0781 L179.4344,185.1719 Q179.4344,186.4063 180.325,187.2344 Q181.2156,188.0469 182.8094,188.0469 Q183.7469,188.0469 184.4031,187.7969 Q184.7938,187.6406 185.2156,187.2031 Q185.4813,186.9375 185.6219,186.8594 Q185.7781,186.7813 185.9813,186.7813 Q186.3094,186.7813 186.5594,187.0469 Q186.825,187.2969 186.825,187.6406 Q186.825,187.9844 186.4813,188.3906 Q185.9813,188.9688 185.1844,189.2969 Q184.1063,189.75 182.8094,189.75 Q181.2938,189.75 180.0906,189.125 Q179.1063,188.625 178.4188,187.5625 Q177.7313,186.4844 177.7313,185.2031 L177.7313,184.0469 Q177.7313,182.7188 178.3406,181.5781 Q178.9656,180.4219 180.0594,179.8125 Q181.1531,179.1875 182.3875,179.1875 Q183.1219,179.1875 183.7625,179.3594 Q184.4188,179.5156 184.9656,179.875 Z " fill="#000000"/><text fill="#000000" font-family="sans-serif" font-size="14" lengthAdjust="spacing" textLength="76" x="199.8" y="189.7285">HangedMan</text><line style="stroke:#181818;stroke-width:0.5;" x1="152" x2="294" y1="200" y2="200"/><line style="stroke:#181818;stroke-width:0.5;" x1="152" x2="294" y1="208" y2="208"/><ellipse cx="162" cy="219" fill="#84BE84" rx="3" ry="3" style="stroke:#038048;stroke-width:1.0;"/><text fill="#000000" font-family="sans-serif" font-size="14" lengthAdjust="spacing" textLength="118" x="171" y="226.5332">PaintHangedMan()</text></g><!--MD5=[a4742496079d5de37ba7d7daf8a92c25]
@startuml ClassDiagramHangMan-Views

class HangMan {
    + Introduction()
    + Resume()
}

class ListOfPlayers {
    +getList()
    +printList()
    +getGamePlayers(int size)
}

class SecretWord {
    +printWord()
}

class HangedMan {
    +PaintHangedMan()
}


@enduml

PlantUML version 1.2022.5(Sat Apr 30 04:55:52 CST 2022)
(GPL source distribution)
Java Runtime: Java(TM) SE Runtime Environment
JVM: Java HotSpot(TM) 64-Bit Server VM
Default Encoding: Cp1252
Language: en
Country: US
--></g></svg>