<?xml version="1.0" encoding="UTF-8" standalone="no"?><svg xmlns="http://www.w3.org/2000/svg" xmlns:xlink="http://www.w3.org/1999/xlink" contentStyleType="text/css" height="292px" preserveAspectRatio="none" style="width:471px;height:292px;background:#FFFFFF;" version="1.1" viewBox="0 0 471 292" width="471px" zoomAndPan="magnify"><defs/><g><!--MD5=[e10552ebcc634954ffb254e345666c67]
class GamesPlatform--><g id="elem_GamesPlatform"><rect codeLine="2" fill="#F1F1F1" height="118.4375" id="GamesPlatform" rx="2.5" ry="2.5" style="stroke:#181818;stroke-width:0.5;" width="177" x="7" y="7"/><ellipse cx="43.6" cy="23" fill="#ADD1B2" rx="11" ry="11" style="stroke:#181818;stroke-width:1.0;"/><path d="M46.3656,18.875 Q46.5219,18.6563 46.7094,18.5469 Q46.8969,18.4375 47.1156,18.4375 Q47.4906,18.4375 47.725,18.7031 Q47.9594,18.9531 47.9594,19.5625 L47.9594,21.0156 Q47.9594,21.625 47.725,21.8906 Q47.4906,22.1563 47.1156,22.1563 Q46.7719,22.1563 46.5688,21.9531 Q46.3656,21.7656 46.2563,21.25 Q46.2094,20.8906 46.0219,20.7031 Q45.6938,20.3281 45.0844,20.1094 Q44.475,19.8906 43.85,19.8906 Q43.0844,19.8906 42.4438,20.2188 Q41.8188,20.5469 41.3188,21.2969 Q40.8344,22.0469 40.8344,23.0781 L40.8344,24.1719 Q40.8344,25.4063 41.725,26.2344 Q42.6156,27.0469 44.2094,27.0469 Q45.1469,27.0469 45.8031,26.7969 Q46.1938,26.6406 46.6156,26.2031 Q46.8813,25.9375 47.0219,25.8594 Q47.1781,25.7813 47.3813,25.7813 Q47.7094,25.7813 47.9594,26.0469 Q48.225,26.2969 48.225,26.6406 Q48.225,26.9844 47.8813,27.3906 Q47.3813,27.9688 46.5844,28.2969 Q45.5063,28.75 44.2094,28.75 Q42.6938,28.75 41.4906,28.125 Q40.5063,27.625 39.8188,26.5625 Q39.1313,25.4844 39.1313,24.2031 L39.1313,23.0469 Q39.1313,21.7188 39.7406,20.5781 Q40.3656,19.4219 41.4594,18.8125 Q42.5531,18.1875 43.7875,18.1875 Q44.5219,18.1875 45.1625,18.3594 Q45.8188,18.5156 46.3656,18.875 Z " fill="#000000"/><text fill="#000000" font-family="sans-serif" font-size="14" lengthAdjust="spacing" textLength="97" x="62.4" y="28.7285">GamesPlatform</text><line style="stroke:#181818;stroke-width:0.5;" x1="8" x2="183" y1="39" y2="39"/><line style="stroke:#181818;stroke-width:0.5;" x1="8" x2="183" y1="47" y2="47"/><ellipse cx="18" cy="58" fill="#84BE84" rx="3" ry="3" style="stroke:#038048;stroke-width:1.0;"/><text fill="#000000" font-family="sans-serif" font-size="14" lengthAdjust="spacing" textLength="89" x="27" y="65.5332">showPlayers()</text><ellipse cx="18" cy="75.6094" fill="#84BE84" rx="3" ry="3" style="stroke:#038048;stroke-width:1.0;"/><text fill="#000000" font-family="sans-serif" font-size="14" lengthAdjust="spacing" textLength="90" x="27" y="83.1426">createPlayer()</text><ellipse cx="18" cy="93.2188" fill="#84BE84" rx="3" ry="3" style="stroke:#038048;stroke-width:1.0;"/><text fill="#000000" font-family="sans-serif" font-size="14" lengthAdjust="spacing" textLength="151" x="27" y="100.752">playGame(Game game)</text><ellipse cx="18" cy="110.8281" fill="#84BE84" rx="3" ry="3" style="stroke:#038048;stroke-width:1.0;"/><text fill="#000000" font-family="sans-serif" font-size="14" lengthAdjust="spacing" textLength="77" x="27" y="118.3613">showMenu()</text></g><!--MD5=[b6dcce5e5ef3c84b0b048d11301373dd]
class Game--><g id="elem_Game"><rect codeLine="9" fill="#F1F1F1" height="83.2188" id="Game" rx="2.5" ry="2.5" style="stroke:#181818;stroke-width:0.5;" width="110" x="219.5" y="24.5"/><ellipse cx="252.5" cy="40.5" fill="#A9DCDF" rx="11" ry="11" style="stroke:#181818;stroke-width:1.0;"/><path d="M254.6875,42.2656 L250.5469,42.2656 L250.125,43.2969 L250.5469,43.2969 Q251.1563,43.2969 251.4219,43.5313 Q251.6875,43.7656 251.6875,44.1563 Q251.6875,44.5313 251.4219,44.7656 Q251.1563,45 250.5469,45 L248.25,45 Q247.6406,45 247.3906,44.7656 Q247.125,44.5313 247.125,44.1406 Q247.125,43.7656 247.4063,43.5313 Q247.6719,43.2813 248.2969,43.2969 L250.9688,36.6406 L249.8594,36.6406 Q249.25,36.6406 248.9844,36.4063 Q248.7188,36.1719 248.7188,35.7813 Q248.7188,35.4063 248.9844,35.1719 Q249.25,34.9375 249.8594,34.9375 L253.5313,34.9375 L256.9219,43.2969 Q257.5156,43.2969 257.7031,43.4375 Q258.0938,43.7031 258.0938,44.1563 Q258.0938,44.5313 257.8281,44.7656 Q257.5781,45 256.9688,45 L254.6719,45 Q254.0625,45 253.7969,44.7656 Q253.5313,44.5313 253.5313,44.1406 Q253.5313,43.7656 253.7969,43.5313 Q254.0625,43.2969 254.6719,43.2969 L255.0938,43.2969 L254.6875,42.2656 Z M253.9688,40.5625 L252.6094,37.1875 L251.2344,40.5625 L253.9688,40.5625 Z " fill="#000000"/><text fill="#000000" font-family="sans-serif" font-size="14" font-style="italic" lengthAdjust="spacing" textLength="38" x="270.5" y="46.2285">Game</text><line style="stroke:#181818;stroke-width:0.5;" x1="220.5" x2="328.5" y1="56.5" y2="56.5"/><line style="stroke:#181818;stroke-width:0.5;" x1="220.5" x2="328.5" y1="64.5" y2="64.5"/><ellipse cx="230.5" cy="75.5" fill="#84BE84" rx="3" ry="3" style="stroke:#038048;stroke-width:1.0;"/><text fill="#000000" font-family="sans-serif" font-size="14" lengthAdjust="spacing" textLength="84" x="239.5" y="83.0332">Introduction()</text><ellipse cx="230.5" cy="93.1094" fill="#84BE84" rx="3" ry="3" style="stroke:#038048;stroke-width:1.0;"/><text fill="#000000" font-family="sans-serif" font-size="14" lengthAdjust="spacing" textLength="62" x="239.5" y="100.6426">Resume()</text></g><!--MD5=[36f719b1cbc3f26b5758ea249b208fb4]
class TicTacToe--><g id="elem_TicTacToe"><rect codeLine="14" fill="#F1F1F1" height="48" id="TicTacToe" rx="2.5" ry="2.5" style="stroke:#181818;stroke-width:0.5;" width="100" x="364.5" y="42"/><ellipse cx="379.5" cy="58" fill="#ADD1B2" rx="11" ry="11" style="stroke:#181818;stroke-width:1.0;"/><path d="M382.2656,53.875 Q382.4219,53.6563 382.6094,53.5469 Q382.7969,53.4375 383.0156,53.4375 Q383.3906,53.4375 383.625,53.7031 Q383.8594,53.9531 383.8594,54.5625 L383.8594,56.0156 Q383.8594,56.625 383.625,56.8906 Q383.3906,57.1563 383.0156,57.1563 Q382.6719,57.1563 382.4688,56.9531 Q382.2656,56.7656 382.1563,56.25 Q382.1094,55.8906 381.9219,55.7031 Q381.5938,55.3281 380.9844,55.1094 Q380.375,54.8906 379.75,54.8906 Q378.9844,54.8906 378.3438,55.2188 Q377.7188,55.5469 377.2188,56.2969 Q376.7344,57.0469 376.7344,58.0781 L376.7344,59.1719 Q376.7344,60.4063 377.625,61.2344 Q378.5156,62.0469 380.1094,62.0469 Q381.0469,62.0469 381.7031,61.7969 Q382.0938,61.6406 382.5156,61.2031 Q382.7813,60.9375 382.9219,60.8594 Q383.0781,60.7813 383.2813,60.7813 Q383.6094,60.7813 383.8594,61.0469 Q384.125,61.2969 384.125,61.6406 Q384.125,61.9844 383.7813,62.3906 Q383.2813,62.9688 382.4844,63.2969 Q381.4063,63.75 380.1094,63.75 Q378.5938,63.75 377.3906,63.125 Q376.4063,62.625 375.7188,61.5625 Q375.0313,60.4844 375.0313,59.2031 L375.0313,58.0469 Q375.0313,56.7188 375.6406,55.5781 Q376.2656,54.4219 377.3594,53.8125 Q378.4531,53.1875 379.6875,53.1875 Q380.4219,53.1875 381.0625,53.3594 Q381.7188,53.5156 382.2656,53.875 Z " fill="#000000"/><text fill="#000000" font-family="sans-serif" font-size="14" lengthAdjust="spacing" textLength="68" x="393.5" y="63.7285">TicTacToe</text><line style="stroke:#181818;stroke-width:0.5;" x1="365.5" x2="463.5" y1="74" y2="74"/><line style="stroke:#181818;stroke-width:0.5;" x1="365.5" x2="463.5" y1="82" y2="82"/></g><!--MD5=[d7731e51439e3250c63a8cdcafb59da5]
class HangMan--><g id="elem_HangMan"><rect codeLine="18" fill="#F1F1F1" height="48" id="HangMan" rx="2.5" ry="2.5" style="stroke:#181818;stroke-width:0.5;" width="92" x="49.5" y="211.5"/><ellipse cx="64.5" cy="227.5" fill="#ADD1B2" rx="11" ry="11" style="stroke:#181818;stroke-width:1.0;"/><path d="M67.2656,223.375 Q67.4219,223.1563 67.6094,223.0469 Q67.7969,222.9375 68.0156,222.9375 Q68.3906,222.9375 68.625,223.2031 Q68.8594,223.4531 68.8594,224.0625 L68.8594,225.5156 Q68.8594,226.125 68.625,226.3906 Q68.3906,226.6563 68.0156,226.6563 Q67.6719,226.6563 67.4688,226.4531 Q67.2656,226.2656 67.1563,225.75 Q67.1094,225.3906 66.9219,225.2031 Q66.5938,224.8281 65.9844,224.6094 Q65.375,224.3906 64.75,224.3906 Q63.9844,224.3906 63.3438,224.7188 Q62.7188,225.0469 62.2188,225.7969 Q61.7344,226.5469 61.7344,227.5781 L61.7344,228.6719 Q61.7344,229.9063 62.625,230.7344 Q63.5156,231.5469 65.1094,231.5469 Q66.0469,231.5469 66.7031,231.2969 Q67.0938,231.1406 67.5156,230.7031 Q67.7813,230.4375 67.9219,230.3594 Q68.0781,230.2813 68.2813,230.2813 Q68.6094,230.2813 68.8594,230.5469 Q69.125,230.7969 69.125,231.1406 Q69.125,231.4844 68.7813,231.8906 Q68.2813,232.4688 67.4844,232.7969 Q66.4063,233.25 65.1094,233.25 Q63.5938,233.25 62.3906,232.625 Q61.4063,232.125 60.7188,231.0625 Q60.0313,229.9844 60.0313,228.7031 L60.0313,227.5469 Q60.0313,226.2188 60.6406,225.0781 Q61.2656,223.9219 62.3594,223.3125 Q63.4531,222.6875 64.6875,222.6875 Q65.4219,222.6875 66.0625,222.8594 Q66.7188,223.0156 67.2656,223.375 Z " fill="#000000"/><text fill="#000000" font-family="sans-serif" font-size="14" lengthAdjust="spacing" textLength="60" x="78.5" y="233.2285">HangMan</text><line style="stroke:#181818;stroke-width:0.5;" x1="50.5" x2="140.5" y1="243.5" y2="243.5"/><line style="stroke:#181818;stroke-width:0.5;" x1="50.5" x2="140.5" y1="251.5" y2="251.5"/></g><!--MD5=[82a37a108f28ded8fb022e1a5df25ae5]
class ListOfPlayers--><g id="elem_ListOfPlayers"><rect codeLine="23" fill="#F1F1F1" height="100.8281" id="ListOfPlayers" rx="2.5" ry="2.5" style="stroke:#181818;stroke-width:0.5;" width="184" x="176.5" y="185"/><ellipse cx="222.25" cy="201" fill="#ADD1B2" rx="11" ry="11" style="stroke:#181818;stroke-width:1.0;"/><path d="M225.0156,196.875 Q225.1719,196.6563 225.3594,196.5469 Q225.5469,196.4375 225.7656,196.4375 Q226.1406,196.4375 226.375,196.7031 Q226.6094,196.9531 226.6094,197.5625 L226.6094,199.0156 Q226.6094,199.625 226.375,199.8906 Q226.1406,200.1563 225.7656,200.1563 Q225.4219,200.1563 225.2188,199.9531 Q225.0156,199.7656 224.9063,199.25 Q224.8594,198.8906 224.6719,198.7031 Q224.3438,198.3281 223.7344,198.1094 Q223.125,197.8906 222.5,197.8906 Q221.7344,197.8906 221.0938,198.2188 Q220.4688,198.5469 219.9688,199.2969 Q219.4844,200.0469 219.4844,201.0781 L219.4844,202.1719 Q219.4844,203.4063 220.375,204.2344 Q221.2656,205.0469 222.8594,205.0469 Q223.7969,205.0469 224.4531,204.7969 Q224.8438,204.6406 225.2656,204.2031 Q225.5313,203.9375 225.6719,203.8594 Q225.8281,203.7813 226.0313,203.7813 Q226.3594,203.7813 226.6094,204.0469 Q226.875,204.2969 226.875,204.6406 Q226.875,204.9844 226.5313,205.3906 Q226.0313,205.9688 225.2344,206.2969 Q224.1563,206.75 222.8594,206.75 Q221.3438,206.75 220.1406,206.125 Q219.1563,205.625 218.4688,204.5625 Q217.7813,203.4844 217.7813,202.2031 L217.7813,201.0469 Q217.7813,199.7188 218.3906,198.5781 Q219.0156,197.4219 220.1094,196.8125 Q221.2031,196.1875 222.4375,196.1875 Q223.1719,196.1875 223.8125,196.3594 Q224.4688,196.5156 225.0156,196.875 Z " fill="#000000"/><text fill="#000000" font-family="sans-serif" font-size="14" lengthAdjust="spacing" textLength="84" x="242.75" y="206.7285">ListOfPlayers</text><line style="stroke:#181818;stroke-width:0.5;" x1="177.5" x2="359.5" y1="217" y2="217"/><line style="stroke:#181818;stroke-width:0.5;" x1="177.5" x2="359.5" y1="225" y2="225"/><ellipse cx="187.5" cy="236" fill="#84BE84" rx="3" ry="3" style="stroke:#038048;stroke-width:1.0;"/><text fill="#000000" font-family="sans-serif" font-size="14" lengthAdjust="spacing" textLength="52" x="196.5" y="243.5332">getList()</text><ellipse cx="187.5" cy="253.6094" fill="#84BE84" rx="3" ry="3" style="stroke:#038048;stroke-width:1.0;"/><text fill="#000000" font-family="sans-serif" font-size="14" lengthAdjust="spacing" textLength="60" x="196.5" y="261.1426">printList()</text><ellipse cx="187.5" cy="271.2188" fill="#84BE84" rx="3" ry="3" style="stroke:#038048;stroke-width:1.0;"/><text fill="#000000" font-family="sans-serif" font-size="14" lengthAdjust="spacing" textLength="158" x="196.5" y="278.752">getGamePlayers(int size)</text></g><!--MD5=[7364dd7fcca06c145efa2373eb3b5daf]
@startuml ClassDiagramMain-Views

class GamesPlatform {
    +showPlayers()
    +createPlayer()
    +playGame(Game game)
    +showMenu()
}

abstract class Game {
    + Introduction()
    + Resume()
}

class TicTacToe {
}


class HangMan {

}


class ListOfPlayers {
    +getList()
    +printList()
    +getGamePlayers(int size)

}

@enduml

PlantUML version 1.2022.5(Sat Apr 30 04:55:52 CST 2022)
(GPL source distribution)
Java Runtime: Java(TM) SE Runtime Environment
JVM: Java HotSpot(TM) 64-Bit Server VM
Default Encoding: Cp1252
Language: en
Country: US
--></g></svg>