<?xml version="1.0" encoding="UTF-8" standalone="no"?><svg xmlns="http://www.w3.org/2000/svg" xmlns:xlink="http://www.w3.org/1999/xlink" contentStyleType="text/css" height="1016px" preserveAspectRatio="none" style="width:1546px;height:1016px;background:#FFFFFF;" version="1.1" viewBox="0 0 1546 1016" width="1546px" zoomAndPan="magnify"><defs/><g><!--MD5=[5d4cd377749310b66bf14896f5cd8d9b]
cluster model--><g id="cluster_model"><path d="M1244.78,246 L1288.78,246 A3.75,3.75 0 0 1 1291.28,248.5 L1298.28,269.6094 L1536.78,269.6094 A2.5,2.5 0 0 1 1539.28,272.1094 L1539.28,997.5 A2.5,2.5 0 0 1 1536.78,1000 L1244.78,1000 A2.5,2.5 0 0 1 1242.28,997.5 L1242.28,248.5 A2.5,2.5 0 0 1 1244.78,246 " style="stroke:#000000;stroke-width:1.5;fill:none;"/><line style="stroke:#000000;stroke-width:1.5;fill:none;" x1="1242.28" x2="1298.28" y1="269.6094" y2="269.6094"/><text fill="#000000" font-family="sans-serif" font-size="14" font-weight="bold" lengthAdjust="spacing" textLength="43" x="1246.28" y="262.5332">model</text></g><!--MD5=[3e81cc6ee7da4fa8b6adc12b329096f6]
cluster util--><g id="cluster_util"><path d="M96.78,873.5 L119.78,873.5 A3.75,3.75 0 0 1 122.28,876 L129.28,897.1094 L315.78,897.1094 A2.5,2.5 0 0 1 318.28,899.6094 L318.28,989 A2.5,2.5 0 0 1 315.78,991.5 L96.78,991.5 A2.5,2.5 0 0 1 94.28,989 L94.28,876 A2.5,2.5 0 0 1 96.78,873.5 " style="stroke:#000000;stroke-width:1.5;fill:none;"/><line style="stroke:#000000;stroke-width:1.5;fill:none;" x1="94.28" x2="129.28" y1="897.1094" y2="897.1094"/><text fill="#000000" font-family="sans-serif" font-size="14" font-weight="bold" lengthAdjust="spacing" textLength="22" x="98.28" y="890.0332">util</text></g><!--MD5=[10ea673caf457862023e152271927b45]
cluster controller--><g id="cluster_controller"><path d="M175.78,6 L245.78,6 A3.75,3.75 0 0 1 248.28,8.5 L255.28,29.6094 L1101.78,29.6094 A2.5,2.5 0 0 1 1104.28,32.1094 L1104.28,829.5 A2.5,2.5 0 0 1 1101.78,832 L175.78,832 A2.5,2.5 0 0 1 173.28,829.5 L173.28,8.5 A2.5,2.5 0 0 1 175.78,6 " style="stroke:#000000;stroke-width:1.5;fill:none;"/><line style="stroke:#000000;stroke-width:1.5;fill:none;" x1="173.28" x2="255.28" y1="29.6094" y2="29.6094"/><text fill="#000000" font-family="sans-serif" font-size="14" font-weight="bold" lengthAdjust="spacing" textLength="69" x="177.28" y="22.5332">controller</text></g><!--MD5=[5580c82edcbc933de5e73591f0fcf26e]
cluster hangman--><g id="cluster_hangman"><path d="M379.78,50 L444.78,50 A3.75,3.75 0 0 1 447.28,52.5 L454.28,73.6094 L815.78,73.6094 A2.5,2.5 0 0 1 818.28,76.1094 L818.28,805.5 A2.5,2.5 0 0 1 815.78,808 L379.78,808 A2.5,2.5 0 0 1 377.28,805.5 L377.28,52.5 A2.5,2.5 0 0 1 379.78,50 " style="stroke:#000000;stroke-width:1.5;fill:none;"/><line style="stroke:#000000;stroke-width:1.5;fill:none;" x1="377.28" x2="454.28" y1="73.6094" y2="73.6094"/><text fill="#000000" font-family="sans-serif" font-size="14" font-weight="bold" lengthAdjust="spacing" textLength="64" x="381.28" y="66.5332">hangman</text></g><!--MD5=[42603eecb267091c13893a16d8c379fb]
cluster player--><g id="cluster_player"><path d="M858.78,450.5 L902.78,450.5 A3.75,3.75 0 0 1 905.28,453 L912.28,474.1094 L1063.78,474.1094 A2.5,2.5 0 0 1 1066.28,476.6094 L1066.28,601 A2.5,2.5 0 0 1 1063.78,603.5 L858.78,603.5 A2.5,2.5 0 0 1 856.28,601 L856.28,453 A2.5,2.5 0 0 1 858.78,450.5 " style="stroke:#000000;stroke-width:1.5;fill:none;"/><line style="stroke:#000000;stroke-width:1.5;fill:none;" x1="856.28" x2="912.28" y1="474.1094" y2="474.1094"/><text fill="#000000" font-family="sans-serif" font-size="14" font-weight="bold" lengthAdjust="spacing" textLength="43" x="860.28" y="467.0332">player</text></g><!--MD5=[86cbce8df1eb9d604fbbb2fa357940f8]
cluster view--><g id="cluster_view"><path d="M537.78,856 L571.78,856 A3.75,3.75 0 0 1 574.28,858.5 L581.28,879.6094 L1215.78,879.6094 A2.5,2.5 0 0 1 1218.28,882.1094 L1218.28,1006.5 A2.5,2.5 0 0 1 1215.78,1009 L537.78,1009 A2.5,2.5 0 0 1 535.28,1006.5 L535.28,858.5 A2.5,2.5 0 0 1 537.78,856 " style="stroke:#000000;stroke-width:1.5;fill:none;"/><line style="stroke:#000000;stroke-width:1.5;fill:none;" x1="535.28" x2="581.28" y1="879.6094" y2="879.6094"/><text fill="#000000" font-family="sans-serif" font-size="14" font-weight="bold" lengthAdjust="spacing" textLength="33" x="539.28" y="872.5332">view</text></g><!--MD5=[2cb47ba637a0d19583e6199456f6ad0b]
class Player--><g id="elem_Player"><rect codeLine="3" fill="#F1F1F1" height="100.8281" id="Player" rx="2.5" ry="2.5" style="stroke:#181818;stroke-width:0.5;" width="122" x="1274.28" y="682.5"/><ellipse cx="1311.78" cy="698.5" fill="#ADD1B2" rx="11" ry="11" style="stroke:#181818;stroke-width:1.0;"/><path d="M1314.5456,694.375 Q1314.7019,694.1563 1314.8894,694.0469 Q1315.0769,693.9375 1315.2956,693.9375 Q1315.6706,693.9375 1315.905,694.2031 Q1316.1394,694.4531 1316.1394,695.0625 L1316.1394,696.5156 Q1316.1394,697.125 1315.905,697.3906 Q1315.6706,697.6563 1315.2956,697.6563 Q1314.9519,697.6563 1314.7488,697.4531 Q1314.5456,697.2656 1314.4363,696.75 Q1314.3894,696.3906 1314.2019,696.2031 Q1313.8738,695.8281 1313.2644,695.6094 Q1312.655,695.3906 1312.03,695.3906 Q1311.2644,695.3906 1310.6238,695.7188 Q1309.9988,696.0469 1309.4988,696.7969 Q1309.0144,697.5469 1309.0144,698.5781 L1309.0144,699.6719 Q1309.0144,700.9063 1309.905,701.7344 Q1310.7956,702.5469 1312.3894,702.5469 Q1313.3269,702.5469 1313.9831,702.2969 Q1314.3738,702.1406 1314.7956,701.7031 Q1315.0613,701.4375 1315.2019,701.3594 Q1315.3581,701.2813 1315.5613,701.2813 Q1315.8894,701.2813 1316.1394,701.5469 Q1316.405,701.7969 1316.405,702.1406 Q1316.405,702.4844 1316.0613,702.8906 Q1315.5613,703.4688 1314.7644,703.7969 Q1313.6863,704.25 1312.3894,704.25 Q1310.8738,704.25 1309.6706,703.625 Q1308.6863,703.125 1307.9988,702.0625 Q1307.3113,700.9844 1307.3113,699.7031 L1307.3113,698.5469 Q1307.3113,697.2188 1307.9206,696.0781 Q1308.5456,694.9219 1309.6394,694.3125 Q1310.7331,693.6875 1311.9675,693.6875 Q1312.7019,693.6875 1313.3425,693.8594 Q1313.9988,694.0156 1314.5456,694.375 Z " fill="#000000"/><text fill="#000000" font-family="sans-serif" font-size="14" lengthAdjust="spacing" textLength="40" x="1330.78" y="704.2285">Player</text><line style="stroke:#181818;stroke-width:0.5;" x1="1275.28" x2="1395.28" y1="714.5" y2="714.5"/><text fill="#000000" font-family="sans-serif" font-size="14" lengthAdjust="spacing" textLength="78" x="1280.28" y="733.0332">idPlayer : int</text><text fill="#000000" font-family="sans-serif" font-size="14" lengthAdjust="spacing" textLength="84" x="1280.28" y="750.6426">name : String</text><text fill="#000000" font-family="sans-serif" font-size="14" lengthAdjust="spacing" textLength="110" x="1280.28" y="768.252">idTypePlayer : int</text><line style="stroke:#181818;stroke-width:0.5;" x1="1275.28" x2="1395.28" y1="775.3281" y2="775.3281"/></g><!--MD5=[d75b0a238b734941260681f0026bbb88]
class Round--><g id="elem_Round"><rect codeLine="8" fill="#F1F1F1" height="153.6563" id="Round" rx="2.5" ry="2.5" style="stroke:#181818;stroke-width:0.5;" width="139" x="1265.78" y="460"/><ellipse cx="1310.03" cy="476" fill="#ADD1B2" rx="11" ry="11" style="stroke:#181818;stroke-width:1.0;"/><path d="M1312.7956,471.875 Q1312.9519,471.6563 1313.1394,471.5469 Q1313.3269,471.4375 1313.5456,471.4375 Q1313.9206,471.4375 1314.155,471.7031 Q1314.3894,471.9531 1314.3894,472.5625 L1314.3894,474.0156 Q1314.3894,474.625 1314.155,474.8906 Q1313.9206,475.1563 1313.5456,475.1563 Q1313.2019,475.1563 1312.9988,474.9531 Q1312.7956,474.7656 1312.6863,474.25 Q1312.6394,473.8906 1312.4519,473.7031 Q1312.1238,473.3281 1311.5144,473.1094 Q1310.905,472.8906 1310.28,472.8906 Q1309.5144,472.8906 1308.8738,473.2188 Q1308.2488,473.5469 1307.7488,474.2969 Q1307.2644,475.0469 1307.2644,476.0781 L1307.2644,477.1719 Q1307.2644,478.4063 1308.155,479.2344 Q1309.0456,480.0469 1310.6394,480.0469 Q1311.5769,480.0469 1312.2331,479.7969 Q1312.6238,479.6406 1313.0456,479.2031 Q1313.3113,478.9375 1313.4519,478.8594 Q1313.6081,478.7813 1313.8113,478.7813 Q1314.1394,478.7813 1314.3894,479.0469 Q1314.655,479.2969 1314.655,479.6406 Q1314.655,479.9844 1314.3113,480.3906 Q1313.8113,480.9688 1313.0144,481.2969 Q1311.9363,481.75 1310.6394,481.75 Q1309.1238,481.75 1307.9206,481.125 Q1306.9363,480.625 1306.2488,479.5625 Q1305.5613,478.4844 1305.5613,477.2031 L1305.5613,476.0469 Q1305.5613,474.7188 1306.1706,473.5781 Q1306.7956,472.4219 1307.8894,471.8125 Q1308.9831,471.1875 1310.2175,471.1875 Q1310.9519,471.1875 1311.5925,471.3594 Q1312.2488,471.5156 1312.7956,471.875 Z " fill="#000000"/><text fill="#000000" font-family="sans-serif" font-size="14" lengthAdjust="spacing" textLength="42" x="1330.53" y="481.7285">Round</text><line style="stroke:#181818;stroke-width:0.5;" x1="1266.78" x2="1403.78" y1="492" y2="492"/><text fill="#000000" font-family="sans-serif" font-size="14" lengthAdjust="spacing" textLength="80" x="1271.78" y="510.5332">idRound : int</text><text fill="#000000" font-family="sans-serif" font-size="14" lengthAdjust="spacing" textLength="111" x="1271.78" y="528.1426">idPlayer 1: Player</text><text fill="#000000" font-family="sans-serif" font-size="14" lengthAdjust="spacing" textLength="111" x="1271.78" y="545.752">idPlayer 2: Player</text><text fill="#000000" font-family="sans-serif" font-size="14" lengthAdjust="spacing" textLength="108" x="1271.78" y="563.3613">idWinner : Player</text><text fill="#000000" font-family="sans-serif" font-size="14" lengthAdjust="spacing" textLength="127" x="1271.78" y="580.9707">isFinished : boolean</text><text fill="#000000" font-family="sans-serif" font-size="14" lengthAdjust="spacing" textLength="76" x="1271.78" y="598.5801">idGame : int</text><line style="stroke:#181818;stroke-width:0.5;" x1="1266.78" x2="1403.78" y1="605.6563" y2="605.6563"/></g><!--MD5=[ace3e6c11b8886c1ad6e132e1e690d2d]
class TypePlayer--><g id="elem_TypePlayer"><rect codeLine="16" fill="#F1F1F1" height="83.2188" id="TypePlayer" rx="2.5" ry="2.5" style="stroke:#181818;stroke-width:0.5;" width="122" x="1274.28" y="901"/><ellipse cx="1297.38" cy="917" fill="#ADD1B2" rx="11" ry="11" style="stroke:#181818;stroke-width:1.0;"/><path d="M1300.1456,912.875 Q1300.3019,912.6563 1300.4894,912.5469 Q1300.6769,912.4375 1300.8956,912.4375 Q1301.2706,912.4375 1301.505,912.7031 Q1301.7394,912.9531 1301.7394,913.5625 L1301.7394,915.0156 Q1301.7394,915.625 1301.505,915.8906 Q1301.2706,916.1563 1300.8956,916.1563 Q1300.5519,916.1563 1300.3487,915.9531 Q1300.1456,915.7656 1300.0362,915.25 Q1299.9894,914.8906 1299.8019,914.7031 Q1299.4737,914.3281 1298.8644,914.1094 Q1298.255,913.8906 1297.63,913.8906 Q1296.8644,913.8906 1296.2237,914.2188 Q1295.5987,914.5469 1295.0987,915.2969 Q1294.6144,916.0469 1294.6144,917.0781 L1294.6144,918.1719 Q1294.6144,919.4063 1295.505,920.2344 Q1296.3956,921.0469 1297.9894,921.0469 Q1298.9269,921.0469 1299.5831,920.7969 Q1299.9737,920.6406 1300.3956,920.2031 Q1300.6612,919.9375 1300.8019,919.8594 Q1300.9581,919.7813 1301.1612,919.7813 Q1301.4894,919.7813 1301.7394,920.0469 Q1302.005,920.2969 1302.005,920.6406 Q1302.005,920.9844 1301.6612,921.3906 Q1301.1612,921.9688 1300.3644,922.2969 Q1299.2862,922.75 1297.9894,922.75 Q1296.4737,922.75 1295.2706,922.125 Q1294.2862,921.625 1293.5987,920.5625 Q1292.9112,919.4844 1292.9112,918.2031 L1292.9112,917.0469 Q1292.9112,915.7188 1293.5206,914.5781 Q1294.1456,913.4219 1295.2394,912.8125 Q1296.3331,912.1875 1297.5675,912.1875 Q1298.3019,912.1875 1298.9425,912.3594 Q1299.5987,912.5156 1300.1456,912.875 Z " fill="#000000"/><text fill="#000000" font-family="sans-serif" font-size="14" lengthAdjust="spacing" textLength="72" x="1313.18" y="922.7285">TypePlayer</text><line style="stroke:#181818;stroke-width:0.5;" x1="1275.28" x2="1395.28" y1="933" y2="933"/><text fill="#000000" font-family="sans-serif" font-size="14" lengthAdjust="spacing" textLength="110" x="1280.28" y="951.5332">idTypePlayer : int</text><text fill="#000000" font-family="sans-serif" font-size="14" lengthAdjust="spacing" textLength="80" x="1280.28" y="969.1426">name: String</text><line style="stroke:#181818;stroke-width:0.5;" x1="1275.28" x2="1395.28" y1="976.2188" y2="976.2188"/></g><!--MD5=[120fced6fc53ed38bb00f3c478c713f1]
class Letter--><g id="elem_Letter"><rect codeLine="21" fill="#F1F1F1" height="118.4375" id="Letter" rx="2.5" ry="2.5" style="stroke:#181818;stroke-width:0.5;" width="127" x="1258.78" y="282"/><ellipse cx="1299.88" cy="298" fill="#ADD1B2" rx="11" ry="11" style="stroke:#181818;stroke-width:1.0;"/><path d="M1302.6456,293.875 Q1302.8019,293.6563 1302.9894,293.5469 Q1303.1769,293.4375 1303.3956,293.4375 Q1303.7706,293.4375 1304.005,293.7031 Q1304.2394,293.9531 1304.2394,294.5625 L1304.2394,296.0156 Q1304.2394,296.625 1304.005,296.8906 Q1303.7706,297.1563 1303.3956,297.1563 Q1303.0519,297.1563 1302.8487,296.9531 Q1302.6456,296.7656 1302.5362,296.25 Q1302.4894,295.8906 1302.3019,295.7031 Q1301.9737,295.3281 1301.3644,295.1094 Q1300.755,294.8906 1300.13,294.8906 Q1299.3644,294.8906 1298.7237,295.2188 Q1298.0987,295.5469 1297.5987,296.2969 Q1297.1144,297.0469 1297.1144,298.0781 L1297.1144,299.1719 Q1297.1144,300.4063 1298.005,301.2344 Q1298.8956,302.0469 1300.4894,302.0469 Q1301.4269,302.0469 1302.0831,301.7969 Q1302.4737,301.6406 1302.8956,301.2031 Q1303.1612,300.9375 1303.3019,300.8594 Q1303.4581,300.7813 1303.6612,300.7813 Q1303.9894,300.7813 1304.2394,301.0469 Q1304.505,301.2969 1304.505,301.6406 Q1304.505,301.9844 1304.1612,302.3906 Q1303.6612,302.9688 1302.8644,303.2969 Q1301.7862,303.75 1300.4894,303.75 Q1298.9737,303.75 1297.7706,303.125 Q1296.7862,302.625 1296.0987,301.5625 Q1295.4112,300.4844 1295.4112,299.2031 L1295.4112,298.0469 Q1295.4112,296.7188 1296.0206,295.5781 Q1296.6456,294.4219 1297.7394,293.8125 Q1298.8331,293.1875 1300.0675,293.1875 Q1300.8019,293.1875 1301.4425,293.3594 Q1302.0987,293.5156 1302.6456,293.875 Z " fill="#000000"/><text fill="#000000" font-family="sans-serif" font-size="14" lengthAdjust="spacing" textLength="37" x="1319.68" y="303.7285">Letter</text><line style="stroke:#181818;stroke-width:0.5;" x1="1259.78" x2="1384.78" y1="314" y2="314"/><text fill="#000000" font-family="sans-serif" font-size="14" lengthAdjust="spacing" textLength="80" x="1264.78" y="332.5332">idRound : int</text><text fill="#000000" font-family="sans-serif" font-size="14" lengthAdjust="spacing" textLength="100" x="1264.78" y="350.1426">character : char</text><text fill="#000000" font-family="sans-serif" font-size="14" lengthAdjust="spacing" textLength="76" x="1264.78" y="367.752">position : int</text><text fill="#000000" font-family="sans-serif" font-size="14" lengthAdjust="spacing" textLength="115" x="1264.78" y="385.3613">isShown : boolean</text><line style="stroke:#181818;stroke-width:0.5;" x1="1259.78" x2="1384.78" y1="392.4375" y2="392.4375"/></g><!--MD5=[f3eaa0fe7b10472f3fee2708cd31d5a7]
class TypeGame--><g id="elem_TypeGame"><rect codeLine="28" fill="#F1F1F1" height="83.2188" id="TypeGame" rx="2.5" ry="2.5" style="stroke:#181818;stroke-width:0.5;" width="102" x="1421.28" y="299.5"/><ellipse cx="1436.28" cy="315.5" fill="#ADD1B2" rx="11" ry="11" style="stroke:#181818;stroke-width:1.0;"/><path d="M1439.0456,311.375 Q1439.2019,311.1563 1439.3894,311.0469 Q1439.5769,310.9375 1439.7956,310.9375 Q1440.1706,310.9375 1440.405,311.2031 Q1440.6394,311.4531 1440.6394,312.0625 L1440.6394,313.5156 Q1440.6394,314.125 1440.405,314.3906 Q1440.1706,314.6563 1439.7956,314.6563 Q1439.4519,314.6563 1439.2488,314.4531 Q1439.0456,314.2656 1438.9363,313.75 Q1438.8894,313.3906 1438.7019,313.2031 Q1438.3738,312.8281 1437.7644,312.6094 Q1437.155,312.3906 1436.53,312.3906 Q1435.7644,312.3906 1435.1238,312.7188 Q1434.4988,313.0469 1433.9988,313.7969 Q1433.5144,314.5469 1433.5144,315.5781 L1433.5144,316.6719 Q1433.5144,317.9063 1434.405,318.7344 Q1435.2956,319.5469 1436.8894,319.5469 Q1437.8269,319.5469 1438.4831,319.2969 Q1438.8738,319.1406 1439.2956,318.7031 Q1439.5613,318.4375 1439.7019,318.3594 Q1439.8581,318.2813 1440.0613,318.2813 Q1440.3894,318.2813 1440.6394,318.5469 Q1440.905,318.7969 1440.905,319.1406 Q1440.905,319.4844 1440.5613,319.8906 Q1440.0613,320.4688 1439.2644,320.7969 Q1438.1863,321.25 1436.8894,321.25 Q1435.3738,321.25 1434.1706,320.625 Q1433.1863,320.125 1432.4988,319.0625 Q1431.8113,317.9844 1431.8113,316.7031 L1431.8113,315.5469 Q1431.8113,314.2188 1432.4206,313.0781 Q1433.0456,311.9219 1434.1394,311.3125 Q1435.2331,310.6875 1436.4675,310.6875 Q1437.2019,310.6875 1437.8425,310.8594 Q1438.4988,311.0156 1439.0456,311.375 Z " fill="#000000"/><text fill="#000000" font-family="sans-serif" font-size="14" lengthAdjust="spacing" textLength="70" x="1450.28" y="321.2285">TypeGame</text><line style="stroke:#181818;stroke-width:0.5;" x1="1422.28" x2="1522.28" y1="331.5" y2="331.5"/><text fill="#000000" font-family="sans-serif" font-size="14" lengthAdjust="spacing" textLength="76" x="1427.28" y="350.0332">idGame : int</text><text fill="#000000" font-family="sans-serif" font-size="14" lengthAdjust="spacing" textLength="84" x="1427.28" y="367.6426">game : String</text><line style="stroke:#181818;stroke-width:0.5;" x1="1422.28" x2="1522.28" y1="374.7188" y2="374.7188"/></g><!--MD5=[f7a9ae25cb0ac60c5f03b7bfd778cce3]
class Dice--><g id="elem_Dice"><rect codeLine="44" fill="#F1F1F1" height="65.6094" id="Dice" rx="2.5" ry="2.5" style="stroke:#181818;stroke-width:0.5;" width="192" x="110.28" y="909.5"/><ellipse cx="188.03" cy="925.5" fill="#ADD1B2" rx="11" ry="11" style="stroke:#181818;stroke-width:1.0;"/><path d="M190.7956,921.375 Q190.9519,921.1563 191.1394,921.0469 Q191.3269,920.9375 191.5456,920.9375 Q191.9206,920.9375 192.155,921.2031 Q192.3894,921.4531 192.3894,922.0625 L192.3894,923.5156 Q192.3894,924.125 192.155,924.3906 Q191.9206,924.6563 191.5456,924.6563 Q191.2019,924.6563 190.9988,924.4531 Q190.7956,924.2656 190.6863,923.75 Q190.6394,923.3906 190.4519,923.2031 Q190.1238,922.8281 189.5144,922.6094 Q188.905,922.3906 188.28,922.3906 Q187.5144,922.3906 186.8738,922.7188 Q186.2488,923.0469 185.7488,923.7969 Q185.2644,924.5469 185.2644,925.5781 L185.2644,926.6719 Q185.2644,927.9063 186.155,928.7344 Q187.0456,929.5469 188.6394,929.5469 Q189.5769,929.5469 190.2331,929.2969 Q190.6238,929.1406 191.0456,928.7031 Q191.3113,928.4375 191.4519,928.3594 Q191.6081,928.2813 191.8113,928.2813 Q192.1394,928.2813 192.3894,928.5469 Q192.655,928.7969 192.655,929.1406 Q192.655,929.4844 192.3113,929.8906 Q191.8113,930.4688 191.0144,930.7969 Q189.9363,931.25 188.6394,931.25 Q187.1238,931.25 185.9206,930.625 Q184.9363,930.125 184.2488,929.0625 Q183.5613,927.9844 183.5613,926.7031 L183.5613,925.5469 Q183.5613,924.2188 184.1706,923.0781 Q184.7956,921.9219 185.8894,921.3125 Q186.9831,920.6875 188.2175,920.6875 Q188.9519,920.6875 189.5925,920.8594 Q190.2488,921.0156 190.7956,921.375 Z " fill="#000000"/><text fill="#000000" font-family="sans-serif" font-size="14" lengthAdjust="spacing" textLength="28" x="208.53" y="931.2285">Dice</text><line style="stroke:#181818;stroke-width:0.5;" x1="111.28" x2="301.28" y1="941.5" y2="941.5"/><line style="stroke:#181818;stroke-width:0.5;" x1="111.28" x2="301.28" y1="949.5" y2="949.5"/><ellipse cx="121.28" cy="960.5" fill="#84BE84" rx="3" ry="3" style="stroke:#038048;stroke-width:1.0;"/><text fill="#000000" font-family="sans-serif" font-size="14" lengthAdjust="spacing" textLength="166" x="130.28" y="968.0332">generateValue (int bound)</text></g><!--MD5=[c799d28eabd75218359eff1d3c0c2cd9]
class GamePlayersProviderController--><g id="elem_GamePlayersProviderController"><rect codeLine="90" fill="#F1F1F1" height="65.6094" id="GamePlayersProviderController" rx="2.5" ry="2.5" style="stroke:#181818;stroke-width:0.5;" width="254" x="834.28" y="308"/><ellipse cx="859.63" cy="324" fill="#B4A7E5" rx="11" ry="11" style="stroke:#181818;stroke-width:1.0;"/><path d="M860.5831,320.6406 L860.5831,327.2969 L862.3019,327.2969 Q862.9113,327.2969 863.1769,327.5313 Q863.4425,327.7656 863.4425,328.1563 Q863.4425,328.5313 863.1769,328.7656 Q862.9113,329 862.3019,329 L857.1613,329 Q856.5519,329 856.2863,328.7656 Q856.0206,328.5313 856.0206,328.1406 Q856.0206,327.7656 856.2863,327.5313 Q856.5519,327.2969 857.1613,327.2969 L858.88,327.2969 L858.88,320.6406 L857.1613,320.6406 Q856.5519,320.6406 856.2863,320.4063 Q856.0206,320.1719 856.0206,319.7813 Q856.0206,319.4063 856.2863,319.1719 Q856.5519,318.9375 857.1613,318.9375 L862.3019,318.9375 Q862.9113,318.9375 863.1769,319.1719 Q863.4425,319.4063 863.4425,319.7813 Q863.4425,320.1719 863.1769,320.4063 Q862.9113,320.6406 862.3019,320.6406 L860.5831,320.6406 Z " fill="#000000"/><text fill="#000000" font-family="sans-serif" font-size="14" font-style="italic" lengthAdjust="spacing" textLength="199" x="875.93" y="329.7285">GamePlayersProviderController</text><line style="stroke:#181818;stroke-width:0.5;" x1="835.28" x2="1087.28" y1="340" y2="340"/><line style="stroke:#181818;stroke-width:0.5;" x1="835.28" x2="1087.28" y1="348" y2="348"/><ellipse cx="845.28" cy="359" fill="#84BE84" rx="3" ry="3" style="stroke:#038048;stroke-width:1.0;"/><text fill="#000000" font-family="sans-serif" font-size="14" lengthAdjust="spacing" textLength="228" x="854.28" y="366.5332">getGamePlayers(int) : GamePlayer[]</text></g><!--MD5=[90188486dc81769ab5cfb9bd648607bd]
class GamePlayerController--><g id="elem_GamePlayerController"><rect codeLine="94" fill="#F1F1F1" height="65.6094" id="GamePlayerController" rx="2.5" ry="2.5" style="stroke:#181818;stroke-width:0.5;" width="172" x="189.28" y="700"/><ellipse cx="204.28" cy="716" fill="#B4A7E5" rx="11" ry="11" style="stroke:#181818;stroke-width:1.0;"/><path d="M205.2331,712.6406 L205.2331,719.2969 L206.9519,719.2969 Q207.5613,719.2969 207.8269,719.5313 Q208.0925,719.7656 208.0925,720.1563 Q208.0925,720.5313 207.8269,720.7656 Q207.5613,721 206.9519,721 L201.8113,721 Q201.2019,721 200.9363,720.7656 Q200.6706,720.5313 200.6706,720.1406 Q200.6706,719.7656 200.9363,719.5313 Q201.2019,719.2969 201.8113,719.2969 L203.53,719.2969 L203.53,712.6406 L201.8113,712.6406 Q201.2019,712.6406 200.9363,712.4063 Q200.6706,712.1719 200.6706,711.7813 Q200.6706,711.4063 200.9363,711.1719 Q201.2019,710.9375 201.8113,710.9375 L206.9519,710.9375 Q207.5613,710.9375 207.8269,711.1719 Q208.0925,711.4063 208.0925,711.7813 Q208.0925,712.1719 207.8269,712.4063 Q207.5613,712.6406 206.9519,712.6406 L205.2331,712.6406 Z " fill="#000000"/><text fill="#000000" font-family="sans-serif" font-size="14" font-style="italic" lengthAdjust="spacing" textLength="140" x="218.28" y="721.7285">GamePlayerController</text><line style="stroke:#181818;stroke-width:0.5;" x1="190.28" x2="360.28" y1="732" y2="732"/><line style="stroke:#181818;stroke-width:0.5;" x1="190.28" x2="360.28" y1="740" y2="740"/><ellipse cx="200.28" cy="751" fill="#84BE84" rx="3" ry="3" style="stroke:#038048;stroke-width:1.0;"/><text fill="#000000" font-family="sans-serif" font-size="14" lengthAdjust="spacing" textLength="140" x="209.28" y="758.5332">processResult(Result)</text></g><!--MD5=[be6cf43ae500cdeffe28f30d60f26803]
class HangManController--><g id="elem_HangManController"><rect codeLine="52" fill="#F1F1F1" height="136.0469" id="HangManController" rx="2.5" ry="2.5" style="stroke:#181818;stroke-width:0.5;" width="303" x="498.78" y="86"/><ellipse cx="585.03" cy="102" fill="#ADD1B2" rx="11" ry="11" style="stroke:#181818;stroke-width:1.0;"/><path d="M587.7956,97.875 Q587.9519,97.6563 588.1394,97.5469 Q588.3269,97.4375 588.5456,97.4375 Q588.9206,97.4375 589.155,97.7031 Q589.3894,97.9531 589.3894,98.5625 L589.3894,100.0156 Q589.3894,100.625 589.155,100.8906 Q588.9206,101.1563 588.5456,101.1563 Q588.2019,101.1563 587.9988,100.9531 Q587.7956,100.7656 587.6863,100.25 Q587.6394,99.8906 587.4519,99.7031 Q587.1238,99.3281 586.5144,99.1094 Q585.905,98.8906 585.28,98.8906 Q584.5144,98.8906 583.8738,99.2188 Q583.2488,99.5469 582.7488,100.2969 Q582.2644,101.0469 582.2644,102.0781 L582.2644,103.1719 Q582.2644,104.4063 583.155,105.2344 Q584.0456,106.0469 585.6394,106.0469 Q586.5769,106.0469 587.2331,105.7969 Q587.6238,105.6406 588.0456,105.2031 Q588.3113,104.9375 588.4519,104.8594 Q588.6081,104.7813 588.8113,104.7813 Q589.1394,104.7813 589.3894,105.0469 Q589.655,105.2969 589.655,105.6406 Q589.655,105.9844 589.3113,106.3906 Q588.8113,106.9688 588.0144,107.2969 Q586.9363,107.75 585.6394,107.75 Q584.1238,107.75 582.9206,107.125 Q581.9363,106.625 581.2488,105.5625 Q580.5613,104.4844 580.5613,103.2031 L580.5613,102.0469 Q580.5613,100.7188 581.1706,99.5781 Q581.7956,98.4219 582.8894,97.8125 Q583.9831,97.1875 585.2175,97.1875 Q585.9519,97.1875 586.5925,97.3594 Q587.2488,97.5156 587.7956,97.875 Z " fill="#000000"/><text fill="#000000" font-family="sans-serif" font-size="14" lengthAdjust="spacing" textLength="122" x="605.53" y="107.7285">HangManController</text><line style="stroke:#181818;stroke-width:0.5;" x1="499.78" x2="800.78" y1="118" y2="118"/><polygon fill="none" points="509.78,124,513.78,128,509.78,132,505.78,128" style="stroke:#B38D22;stroke-width:1.0;"/><text fill="#000000" font-family="sans-serif" font-size="14" lengthAdjust="spacing" textLength="172" x="518.78" y="136.5332">GamePlayer[] gamePlayers</text><polygon fill="none" points="509.78,141.6094,513.78,145.6094,509.78,149.6094,505.78,145.6094" style="stroke:#B38D22;stroke-width:1.0;"/><text fill="#000000" font-family="sans-serif" font-size="14" lengthAdjust="spacing" textLength="277" x="518.78" y="154.1426">GamePlayersProvider gamePlayersProvider</text><line style="stroke:#181818;stroke-width:0.5;" x1="499.78" x2="800.78" y1="161.2188" y2="161.2188"/><ellipse cx="509.78" cy="172.2188" fill="#84BE84" rx="3" ry="3" style="stroke:#038048;stroke-width:1.0;"/><text fill="#000000" font-family="sans-serif" font-size="14" lengthAdjust="spacing" textLength="60" x="518.78" y="179.752">Execute()</text><polygon fill="#FFFF44" points="509.78,184.8281,513.78,188.8281,509.78,192.8281,505.78,188.8281" style="stroke:#B38D22;stroke-width:1.0;"/><text fill="#000000" font-family="sans-serif" font-size="14" lengthAdjust="spacing" textLength="264" x="518.78" y="197.3613">AssignRoles (GamePlayer[] gamePlayers)</text><polygon fill="#FFFF44" points="509.78,202.4375,513.78,206.4375,509.78,210.4375,505.78,206.4375" style="stroke:#B38D22;stroke-width:1.0;"/><text fill="#000000" font-family="sans-serif" font-size="14" lengthAdjust="spacing" textLength="240" x="518.78" y="214.9707">flipRoles (GamePlayer[] gamePlayers)</text></g><!--MD5=[414374b7244b03f9204e0aa869b55d53]
class SecretWordController--><g id="elem_SecretWordController"><rect codeLine="59" fill="#F1F1F1" height="118.4375" id="SecretWordController" rx="2.5" ry="2.5" style="stroke:#181818;stroke-width:0.5;" width="220" x="508.28" y="674"/><ellipse cx="546.23" cy="690" fill="#ADD1B2" rx="11" ry="11" style="stroke:#181818;stroke-width:1.0;"/><path d="M548.9956,685.875 Q549.1519,685.6563 549.3394,685.5469 Q549.5269,685.4375 549.7456,685.4375 Q550.1206,685.4375 550.355,685.7031 Q550.5894,685.9531 550.5894,686.5625 L550.5894,688.0156 Q550.5894,688.625 550.355,688.8906 Q550.1206,689.1563 549.7456,689.1563 Q549.4019,689.1563 549.1988,688.9531 Q548.9956,688.7656 548.8863,688.25 Q548.8394,687.8906 548.6519,687.7031 Q548.3238,687.3281 547.7144,687.1094 Q547.105,686.8906 546.48,686.8906 Q545.7144,686.8906 545.0738,687.2188 Q544.4488,687.5469 543.9488,688.2969 Q543.4644,689.0469 543.4644,690.0781 L543.4644,691.1719 Q543.4644,692.4063 544.355,693.2344 Q545.2456,694.0469 546.8394,694.0469 Q547.7769,694.0469 548.4331,693.7969 Q548.8238,693.6406 549.2456,693.2031 Q549.5113,692.9375 549.6519,692.8594 Q549.8081,692.7813 550.0113,692.7813 Q550.3394,692.7813 550.5894,693.0469 Q550.855,693.2969 550.855,693.6406 Q550.855,693.9844 550.5113,694.3906 Q550.0113,694.9688 549.2144,695.2969 Q548.1363,695.75 546.8394,695.75 Q545.3238,695.75 544.1206,695.125 Q543.1363,694.625 542.4488,693.5625 Q541.7613,692.4844 541.7613,691.2031 L541.7613,690.0469 Q541.7613,688.7188 542.3706,687.5781 Q542.9956,686.4219 544.0894,685.8125 Q545.1831,685.1875 546.4175,685.1875 Q547.1519,685.1875 547.7925,685.3594 Q548.4488,685.5156 548.9956,685.875 Z " fill="#000000"/><text fill="#000000" font-family="sans-serif" font-size="14" lengthAdjust="spacing" textLength="137" x="565.33" y="695.7285">SecretWordController</text><line style="stroke:#181818;stroke-width:0.5;" x1="509.28" x2="727.28" y1="706" y2="706"/><ellipse cx="519.28" cy="717" fill="none" rx="3" ry="3" style="stroke:#038048;stroke-width:1.0;"/><text fill="#000000" font-family="sans-serif" font-size="14" lengthAdjust="spacing" textLength="142" x="528.28" y="724.5332">Char GuesserWords []</text><ellipse cx="519.28" cy="734.6094" fill="none" rx="3" ry="3" style="stroke:#038048;stroke-width:1.0;"/><text fill="#000000" font-family="sans-serif" font-size="14" lengthAdjust="spacing" textLength="122" x="528.28" y="742.1426">Char SecretWord []</text><line style="stroke:#181818;stroke-width:0.5;" x1="509.28" x2="727.28" y1="749.2188" y2="749.2188"/><ellipse cx="519.28" cy="760.2188" fill="#84BE84" rx="3" ry="3" style="stroke:#038048;stroke-width:1.0;"/><text fill="#000000" font-family="sans-serif" font-size="14" lengthAdjust="spacing" textLength="194" x="528.28" y="767.752">boolean AddLetter(Char letter)</text><ellipse cx="519.28" cy="777.8281" fill="#84BE84" rx="3" ry="3" style="stroke:#038048;stroke-width:1.0;"/><text fill="#000000" font-family="sans-serif" font-size="14" lengthAdjust="spacing" textLength="136" x="528.28" y="785.3613">boolean isGuessed ()</text></g><!--MD5=[90addbfe36b401b457f8634d4649e10e]
class RoundHangManController--><g id="elem_RoundHangManController"><rect codeLine="65" fill="#F1F1F1" height="65.6094" id="RoundHangManController" rx="2.5" ry="2.5" style="stroke:#181818;stroke-width:0.5;" width="196" x="577.28" y="308"/><ellipse cx="592.28" cy="324" fill="#ADD1B2" rx="11" ry="11" style="stroke:#181818;stroke-width:1.0;"/><path d="M595.0456,319.875 Q595.2019,319.6563 595.3894,319.5469 Q595.5769,319.4375 595.7956,319.4375 Q596.1706,319.4375 596.405,319.7031 Q596.6394,319.9531 596.6394,320.5625 L596.6394,322.0156 Q596.6394,322.625 596.405,322.8906 Q596.1706,323.1563 595.7956,323.1563 Q595.4519,323.1563 595.2488,322.9531 Q595.0456,322.7656 594.9363,322.25 Q594.8894,321.8906 594.7019,321.7031 Q594.3738,321.3281 593.7644,321.1094 Q593.155,320.8906 592.53,320.8906 Q591.7644,320.8906 591.1238,321.2188 Q590.4988,321.5469 589.9988,322.2969 Q589.5144,323.0469 589.5144,324.0781 L589.5144,325.1719 Q589.5144,326.4063 590.405,327.2344 Q591.2956,328.0469 592.8894,328.0469 Q593.8269,328.0469 594.4831,327.7969 Q594.8738,327.6406 595.2956,327.2031 Q595.5613,326.9375 595.7019,326.8594 Q595.8581,326.7813 596.0613,326.7813 Q596.3894,326.7813 596.6394,327.0469 Q596.905,327.2969 596.905,327.6406 Q596.905,327.9844 596.5613,328.3906 Q596.0613,328.9688 595.2644,329.2969 Q594.1863,329.75 592.8894,329.75 Q591.3738,329.75 590.1706,329.125 Q589.1863,328.625 588.4988,327.5625 Q587.8113,326.4844 587.8113,325.2031 L587.8113,324.0469 Q587.8113,322.7188 588.4206,321.5781 Q589.0456,320.4219 590.1394,319.8125 Q591.2331,319.1875 592.4675,319.1875 Q593.2019,319.1875 593.8425,319.3594 Q594.4988,319.5156 595.0456,319.875 Z " fill="#000000"/><text fill="#000000" font-family="sans-serif" font-size="14" lengthAdjust="spacing" textLength="164" x="606.28" y="329.7285">RoundHangManController</text><line style="stroke:#181818;stroke-width:0.5;" x1="578.28" x2="772.28" y1="340" y2="340"/><line style="stroke:#181818;stroke-width:0.5;" x1="578.28" x2="772.28" y1="348" y2="348"/><ellipse cx="588.28" cy="359" fill="#84BE84" rx="3" ry="3" style="stroke:#038048;stroke-width:1.0;"/><text fill="#000000" font-family="sans-serif" font-size="14" lengthAdjust="spacing" textLength="36" x="597.28" y="366.5332">play()</text></g><!--MD5=[4ca19e6be0155391382baa78ee6a684b]
class HangedManController--><g id="elem_HangedManController"><rect codeLine="68" fill="#F1F1F1" height="153.6563" id="HangedManController" rx="2.5" ry="2.5" style="stroke:#181818;stroke-width:0.5;" width="178" x="624.28" y="460"/><ellipse cx="642.88" cy="476" fill="#ADD1B2" rx="11" ry="11" style="stroke:#181818;stroke-width:1.0;"/><path d="M645.6456,471.875 Q645.8019,471.6563 645.9894,471.5469 Q646.1769,471.4375 646.3956,471.4375 Q646.7706,471.4375 647.005,471.7031 Q647.2394,471.9531 647.2394,472.5625 L647.2394,474.0156 Q647.2394,474.625 647.005,474.8906 Q646.7706,475.1563 646.3956,475.1563 Q646.0519,475.1563 645.8488,474.9531 Q645.6456,474.7656 645.5363,474.25 Q645.4894,473.8906 645.3019,473.7031 Q644.9738,473.3281 644.3644,473.1094 Q643.755,472.8906 643.13,472.8906 Q642.3644,472.8906 641.7238,473.2188 Q641.0988,473.5469 640.5988,474.2969 Q640.1144,475.0469 640.1144,476.0781 L640.1144,477.1719 Q640.1144,478.4063 641.005,479.2344 Q641.8956,480.0469 643.4894,480.0469 Q644.4269,480.0469 645.0831,479.7969 Q645.4738,479.6406 645.8956,479.2031 Q646.1613,478.9375 646.3019,478.8594 Q646.4581,478.7813 646.6613,478.7813 Q646.9894,478.7813 647.2394,479.0469 Q647.505,479.2969 647.505,479.6406 Q647.505,479.9844 647.1613,480.3906 Q646.6613,480.9688 645.8644,481.2969 Q644.7863,481.75 643.4894,481.75 Q641.9738,481.75 640.7706,481.125 Q639.7863,480.625 639.0988,479.5625 Q638.4113,478.4844 638.4113,477.2031 L638.4113,476.0469 Q638.4113,474.7188 639.0206,473.5781 Q639.6456,472.4219 640.7394,471.8125 Q641.8331,471.1875 643.0675,471.1875 Q643.8019,471.1875 644.4425,471.3594 Q645.0988,471.5156 645.6456,471.875 Z " fill="#000000"/><text fill="#000000" font-family="sans-serif" font-size="14" lengthAdjust="spacing" textLength="138" x="657.68" y="481.7285">HangedManController</text><line style="stroke:#181818;stroke-width:0.5;" x1="625.28" x2="801.28" y1="492" y2="492"/><rect fill="none" height="6" style="stroke:#C82930;stroke-width:1.0;" width="6" x="632.28" y="500"/><text fill="#000000" font-family="sans-serif" font-size="14" lengthAdjust="spacing" textLength="94" x="644.28" y="510.5332">FailedAttempts</text><rect fill="none" height="6" style="stroke:#C82930;stroke-width:1.0;" width="6" x="632.28" y="517.6094"/><text fill="#000000" font-family="sans-serif" font-size="14" lengthAdjust="spacing" textLength="152" x="644.28" y="528.1426">SecretWord secretWord</text><line style="stroke:#181818;stroke-width:0.5;" x1="625.28" x2="801.28" y1="535.2188" y2="535.2188"/><ellipse cx="635.28" cy="546.2188" fill="#84BE84" rx="3" ry="3" style="stroke:#038048;stroke-width:1.0;"/><text fill="#000000" font-family="sans-serif" font-size="14" lengthAdjust="spacing" textLength="54" x="644.28" y="553.752">isDead()</text><ellipse cx="635.28" cy="563.8281" fill="#84BE84" rx="3" ry="3" style="stroke:#038048;stroke-width:1.0;"/><text fill="#000000" font-family="sans-serif" font-size="14" lengthAdjust="spacing" textLength="60" x="644.28" y="571.3613">isSaved()</text><rect fill="#F24D5C" height="6" style="stroke:#C82930;stroke-width:1.0;" width="6" x="632.28" y="578.4375"/><text fill="#000000" font-family="sans-serif" font-size="14" lengthAdjust="spacing" textLength="60" x="644.28" y="588.9707">addPart()</text><ellipse cx="635.28" cy="599.0469" fill="#84BE84" rx="3" ry="3" style="stroke:#038048;stroke-width:1.0;"/><text fill="#000000" font-family="sans-serif" font-size="14" lengthAdjust="spacing" textLength="63" x="644.28" y="606.5801">tryLetter()</text></g><!--MD5=[4203fa2c9e6d2cd6909288a67cbd8e03]
class HangManPlayerController--><g id="elem_HangManPlayerController"><rect codeLine="76" fill="#F1F1F1" height="83.2188" id="HangManPlayerController" rx="2.5" ry="2.5" style="stroke:#181818;stroke-width:0.5;" width="196" x="393.28" y="495.5"/><ellipse cx="408.28" cy="511.5" fill="#B4A7E5" rx="11" ry="11" style="stroke:#181818;stroke-width:1.0;"/><path d="M409.2331,508.1406 L409.2331,514.7969 L410.9519,514.7969 Q411.5613,514.7969 411.8269,515.0313 Q412.0925,515.2656 412.0925,515.6563 Q412.0925,516.0313 411.8269,516.2656 Q411.5613,516.5 410.9519,516.5 L405.8113,516.5 Q405.2019,516.5 404.9363,516.2656 Q404.6706,516.0313 404.6706,515.6406 Q404.6706,515.2656 404.9363,515.0313 Q405.2019,514.7969 405.8113,514.7969 L407.53,514.7969 L407.53,508.1406 L405.8113,508.1406 Q405.2019,508.1406 404.9363,507.9063 Q404.6706,507.6719 404.6706,507.2813 Q404.6706,506.9063 404.9363,506.6719 Q405.2019,506.4375 405.8113,506.4375 L410.9519,506.4375 Q411.5613,506.4375 411.8269,506.6719 Q412.0925,506.9063 412.0925,507.2813 Q412.0925,507.6719 411.8269,507.9063 Q411.5613,508.1406 410.9519,508.1406 L409.2331,508.1406 Z " fill="#000000"/><text fill="#000000" font-family="sans-serif" font-size="14" font-style="italic" lengthAdjust="spacing" textLength="164" x="422.28" y="517.2285">HangManPlayerController</text><line style="stroke:#181818;stroke-width:0.5;" x1="394.28" x2="588.28" y1="527.5" y2="527.5"/><line style="stroke:#181818;stroke-width:0.5;" x1="394.28" x2="588.28" y1="535.5" y2="535.5"/><ellipse cx="404.28" cy="546.5" fill="#84BE84" rx="3" ry="3" style="stroke:#038048;stroke-width:1.0;"/><text fill="#000000" font-family="sans-serif" font-size="14" lengthAdjust="spacing" textLength="93" x="413.28" y="554.0332">ChooseWord()</text><ellipse cx="404.28" cy="564.1094" fill="#84BE84" rx="3" ry="3" style="stroke:#038048;stroke-width:1.0;"/><text fill="#000000" font-family="sans-serif" font-size="14" lengthAdjust="spacing" textLength="76" x="413.28" y="571.6426">GiveLetter()</text></g><!--MD5=[6c6d1e40d155900b1d909db28d8f95d5]
class ListOfPlayersController--><g id="elem_ListOfPlayersController"><rect codeLine="83" fill="#F1F1F1" height="100.8281" id="ListOfPlayersController" rx="2.5" ry="2.5" style="stroke:#181818;stroke-width:0.5;" width="178" x="872.28" y="486.5"/><ellipse cx="887.28" cy="502.5" fill="#ADD1B2" rx="11" ry="11" style="stroke:#181818;stroke-width:1.0;"/><path d="M890.0456,498.375 Q890.2019,498.1563 890.3894,498.0469 Q890.5769,497.9375 890.7956,497.9375 Q891.1706,497.9375 891.405,498.2031 Q891.6394,498.4531 891.6394,499.0625 L891.6394,500.5156 Q891.6394,501.125 891.405,501.3906 Q891.1706,501.6563 890.7956,501.6563 Q890.4519,501.6563 890.2488,501.4531 Q890.0456,501.2656 889.9363,500.75 Q889.8894,500.3906 889.7019,500.2031 Q889.3738,499.8281 888.7644,499.6094 Q888.155,499.3906 887.53,499.3906 Q886.7644,499.3906 886.1238,499.7188 Q885.4988,500.0469 884.9988,500.7969 Q884.5144,501.5469 884.5144,502.5781 L884.5144,503.6719 Q884.5144,504.9063 885.405,505.7344 Q886.2956,506.5469 887.8894,506.5469 Q888.8269,506.5469 889.4831,506.2969 Q889.8738,506.1406 890.2956,505.7031 Q890.5613,505.4375 890.7019,505.3594 Q890.8581,505.2813 891.0613,505.2813 Q891.3894,505.2813 891.6394,505.5469 Q891.905,505.7969 891.905,506.1406 Q891.905,506.4844 891.5613,506.8906 Q891.0613,507.4688 890.2644,507.7969 Q889.1863,508.25 887.8894,508.25 Q886.3738,508.25 885.1706,507.625 Q884.1863,507.125 883.4988,506.0625 Q882.8113,504.9844 882.8113,503.7031 L882.8113,502.5469 Q882.8113,501.2188 883.4206,500.0781 Q884.0456,498.9219 885.1394,498.3125 Q886.2331,497.6875 887.4675,497.6875 Q888.2019,497.6875 888.8425,497.8594 Q889.4988,498.0156 890.0456,498.375 Z " fill="#000000"/><text fill="#000000" font-family="sans-serif" font-size="14" lengthAdjust="spacing" textLength="146" x="901.28" y="508.2285">ListOfPlayersController</text><line style="stroke:#181818;stroke-width:0.5;" x1="873.28" x2="1049.28" y1="518.5" y2="518.5"/><ellipse cx="883.28" cy="529.5" fill="none" rx="3" ry="3" style="stroke:#038048;stroke-width:1.0;"/><text fill="#000000" font-family="sans-serif" font-size="14" lengthAdjust="spacing" textLength="150" x="892.28" y="537.0332">List&lt;Player&gt; playersList</text><line style="stroke:#181818;stroke-width:0.5;" x1="873.28" x2="1049.28" y1="544.1094" y2="544.1094"/><ellipse cx="883.28" cy="555.1094" fill="#84BE84" rx="3" ry="3" style="stroke:#038048;stroke-width:1.0;"/><text fill="#000000" font-family="sans-serif" font-size="14" lengthAdjust="spacing" textLength="100" x="892.28" y="562.6426">getPlayer(int id)</text><ellipse cx="883.28" cy="572.7188" fill="#84BE84" rx="3" ry="3" style="stroke:#038048;stroke-width:1.0;"/><text fill="#000000" font-family="sans-serif" font-size="14" lengthAdjust="spacing" textLength="52" x="892.28" y="580.252">getList()</text></g><!--MD5=[d7731e51439e3250c63a8cdcafb59da5]
class HangMan--><g id="elem_HangMan"><rect codeLine="101" fill="#F1F1F1" height="83.2188" id="HangMan" rx="2.5" ry="2.5" style="stroke:#181818;stroke-width:0.5;" width="110" x="1092.28" y="901"/><ellipse cx="1115.38" cy="917" fill="#ADD1B2" rx="11" ry="11" style="stroke:#181818;stroke-width:1.0;"/><path d="M1118.1456,912.875 Q1118.3019,912.6563 1118.4894,912.5469 Q1118.6769,912.4375 1118.8956,912.4375 Q1119.2706,912.4375 1119.505,912.7031 Q1119.7394,912.9531 1119.7394,913.5625 L1119.7394,915.0156 Q1119.7394,915.625 1119.505,915.8906 Q1119.2706,916.1563 1118.8956,916.1563 Q1118.5519,916.1563 1118.3487,915.9531 Q1118.1456,915.7656 1118.0362,915.25 Q1117.9894,914.8906 1117.8019,914.7031 Q1117.4737,914.3281 1116.8644,914.1094 Q1116.255,913.8906 1115.63,913.8906 Q1114.8644,913.8906 1114.2237,914.2188 Q1113.5987,914.5469 1113.0987,915.2969 Q1112.6144,916.0469 1112.6144,917.0781 L1112.6144,918.1719 Q1112.6144,919.4063 1113.505,920.2344 Q1114.3956,921.0469 1115.9894,921.0469 Q1116.9269,921.0469 1117.5831,920.7969 Q1117.9737,920.6406 1118.3956,920.2031 Q1118.6612,919.9375 1118.8019,919.8594 Q1118.9581,919.7813 1119.1612,919.7813 Q1119.4894,919.7813 1119.7394,920.0469 Q1120.005,920.2969 1120.005,920.6406 Q1120.005,920.9844 1119.6612,921.3906 Q1119.1612,921.9688 1118.3644,922.2969 Q1117.2862,922.75 1115.9894,922.75 Q1114.4737,922.75 1113.2706,922.125 Q1112.2862,921.625 1111.5987,920.5625 Q1110.9112,919.4844 1110.9112,918.2031 L1110.9112,917.0469 Q1110.9112,915.7188 1111.5206,914.5781 Q1112.1456,913.4219 1113.2394,912.8125 Q1114.3331,912.1875 1115.5675,912.1875 Q1116.3019,912.1875 1116.9425,912.3594 Q1117.5987,912.5156 1118.1456,912.875 Z " fill="#000000"/><text fill="#000000" font-family="sans-serif" font-size="14" lengthAdjust="spacing" textLength="60" x="1131.18" y="922.7285">HangMan</text><line style="stroke:#181818;stroke-width:0.5;" x1="1093.28" x2="1201.28" y1="933" y2="933"/><line style="stroke:#181818;stroke-width:0.5;" x1="1093.28" x2="1201.28" y1="941" y2="941"/><ellipse cx="1103.28" cy="952" fill="#84BE84" rx="3" ry="3" style="stroke:#038048;stroke-width:1.0;"/><text fill="#000000" font-family="sans-serif" font-size="14" lengthAdjust="spacing" textLength="84" x="1112.28" y="959.5332">Introduction()</text><ellipse cx="1103.28" cy="969.6094" fill="#84BE84" rx="3" ry="3" style="stroke:#038048;stroke-width:1.0;"/><text fill="#000000" font-family="sans-serif" font-size="14" lengthAdjust="spacing" textLength="62" x="1112.28" y="977.1426">Resume()</text></g><!--MD5=[82a37a108f28ded8fb022e1a5df25ae5]
class ListOfPlayers--><g id="elem_ListOfPlayers"><rect codeLine="106" fill="#F1F1F1" height="100.8281" id="ListOfPlayers" rx="2.5" ry="2.5" style="stroke:#181818;stroke-width:0.5;" width="184" x="694.28" y="892"/><ellipse cx="740.03" cy="908" fill="#ADD1B2" rx="11" ry="11" style="stroke:#181818;stroke-width:1.0;"/><path d="M742.7956,903.875 Q742.9519,903.6563 743.1394,903.5469 Q743.3269,903.4375 743.5456,903.4375 Q743.9206,903.4375 744.155,903.7031 Q744.3894,903.9531 744.3894,904.5625 L744.3894,906.0156 Q744.3894,906.625 744.155,906.8906 Q743.9206,907.1563 743.5456,907.1563 Q743.2019,907.1563 742.9988,906.9531 Q742.7956,906.7656 742.6863,906.25 Q742.6394,905.8906 742.4519,905.7031 Q742.1238,905.3281 741.5144,905.1094 Q740.905,904.8906 740.28,904.8906 Q739.5144,904.8906 738.8738,905.2188 Q738.2488,905.5469 737.7488,906.2969 Q737.2644,907.0469 737.2644,908.0781 L737.2644,909.1719 Q737.2644,910.4063 738.155,911.2344 Q739.0456,912.0469 740.6394,912.0469 Q741.5769,912.0469 742.2331,911.7969 Q742.6238,911.6406 743.0456,911.2031 Q743.3113,910.9375 743.4519,910.8594 Q743.6081,910.7813 743.8113,910.7813 Q744.1394,910.7813 744.3894,911.0469 Q744.655,911.2969 744.655,911.6406 Q744.655,911.9844 744.3113,912.3906 Q743.8113,912.9688 743.0144,913.2969 Q741.9363,913.75 740.6394,913.75 Q739.1238,913.75 737.9206,913.125 Q736.9363,912.625 736.2488,911.5625 Q735.5613,910.4844 735.5613,909.2031 L735.5613,908.0469 Q735.5613,906.7188 736.1706,905.5781 Q736.7956,904.4219 737.8894,903.8125 Q738.9831,903.1875 740.2175,903.1875 Q740.9519,903.1875 741.5925,903.3594 Q742.2488,903.5156 742.7956,903.875 Z " fill="#000000"/><text fill="#000000" font-family="sans-serif" font-size="14" lengthAdjust="spacing" textLength="84" x="760.53" y="913.7285">ListOfPlayers</text><line style="stroke:#181818;stroke-width:0.5;" x1="695.28" x2="877.28" y1="924" y2="924"/><line style="stroke:#181818;stroke-width:0.5;" x1="695.28" x2="877.28" y1="932" y2="932"/><ellipse cx="705.28" cy="943" fill="#84BE84" rx="3" ry="3" style="stroke:#038048;stroke-width:1.0;"/><text fill="#000000" font-family="sans-serif" font-size="14" lengthAdjust="spacing" textLength="52" x="714.28" y="950.5332">getList()</text><ellipse cx="705.28" cy="960.6094" fill="#84BE84" rx="3" ry="3" style="stroke:#038048;stroke-width:1.0;"/><text fill="#000000" font-family="sans-serif" font-size="14" lengthAdjust="spacing" textLength="60" x="714.28" y="968.1426">printList()</text><ellipse cx="705.28" cy="978.2188" fill="#84BE84" rx="3" ry="3" style="stroke:#038048;stroke-width:1.0;"/><text fill="#000000" font-family="sans-serif" font-size="14" lengthAdjust="spacing" textLength="158" x="714.28" y="985.752">getGamePlayers(int size)</text></g><!--MD5=[1e8c54f5ac0ec684c0f71587f512d7a6]
class SecretWord--><g id="elem_SecretWord"><rect codeLine="112" fill="#F1F1F1" height="65.6094" id="SecretWord" rx="2.5" ry="2.5" style="stroke:#181818;stroke-width:0.5;" width="107" x="551.78" y="909.5"/><ellipse cx="566.78" cy="925.5" fill="#ADD1B2" rx="11" ry="11" style="stroke:#181818;stroke-width:1.0;"/><path d="M569.5456,921.375 Q569.7019,921.1563 569.8894,921.0469 Q570.0769,920.9375 570.2956,920.9375 Q570.6706,920.9375 570.905,921.2031 Q571.1394,921.4531 571.1394,922.0625 L571.1394,923.5156 Q571.1394,924.125 570.905,924.3906 Q570.6706,924.6563 570.2956,924.6563 Q569.9519,924.6563 569.7488,924.4531 Q569.5456,924.2656 569.4363,923.75 Q569.3894,923.3906 569.2019,923.2031 Q568.8738,922.8281 568.2644,922.6094 Q567.655,922.3906 567.03,922.3906 Q566.2644,922.3906 565.6238,922.7188 Q564.9988,923.0469 564.4988,923.7969 Q564.0144,924.5469 564.0144,925.5781 L564.0144,926.6719 Q564.0144,927.9063 564.905,928.7344 Q565.7956,929.5469 567.3894,929.5469 Q568.3269,929.5469 568.9831,929.2969 Q569.3738,929.1406 569.7956,928.7031 Q570.0613,928.4375 570.2019,928.3594 Q570.3581,928.2813 570.5613,928.2813 Q570.8894,928.2813 571.1394,928.5469 Q571.405,928.7969 571.405,929.1406 Q571.405,929.4844 571.0613,929.8906 Q570.5613,930.4688 569.7644,930.7969 Q568.6863,931.25 567.3894,931.25 Q565.8738,931.25 564.6706,930.625 Q563.6863,930.125 562.9988,929.0625 Q562.3113,927.9844 562.3113,926.7031 L562.3113,925.5469 Q562.3113,924.2188 562.9206,923.0781 Q563.5456,921.9219 564.6394,921.3125 Q565.7331,920.6875 566.9675,920.6875 Q567.7019,920.6875 568.3425,920.8594 Q568.9988,921.0156 569.5456,921.375 Z " fill="#000000"/><text fill="#000000" font-family="sans-serif" font-size="14" lengthAdjust="spacing" textLength="75" x="580.78" y="931.2285">SecretWord</text><line style="stroke:#181818;stroke-width:0.5;" x1="552.78" x2="657.78" y1="941.5" y2="941.5"/><line style="stroke:#181818;stroke-width:0.5;" x1="552.78" x2="657.78" y1="949.5" y2="949.5"/><ellipse cx="562.78" cy="960.5" fill="#84BE84" rx="3" ry="3" style="stroke:#038048;stroke-width:1.0;"/><text fill="#000000" font-family="sans-serif" font-size="14" lengthAdjust="spacing" textLength="72" x="571.78" y="968.0332">printWord()</text></g><!--MD5=[2aa92d2e607ce5e0eb2e8fd93adcb836]
class HangedMan--><g id="elem_HangedMan"><rect codeLine="116" fill="#F1F1F1" height="65.6094" id="HangedMan" rx="2.5" ry="2.5" style="stroke:#181818;stroke-width:0.5;" width="144" x="913.28" y="909.5"/><ellipse cx="944.48" cy="925.5" fill="#ADD1B2" rx="11" ry="11" style="stroke:#181818;stroke-width:1.0;"/><path d="M947.2456,921.375 Q947.4019,921.1563 947.5894,921.0469 Q947.7769,920.9375 947.9956,920.9375 Q948.3706,920.9375 948.605,921.2031 Q948.8394,921.4531 948.8394,922.0625 L948.8394,923.5156 Q948.8394,924.125 948.605,924.3906 Q948.3706,924.6563 947.9956,924.6563 Q947.6519,924.6563 947.4488,924.4531 Q947.2456,924.2656 947.1363,923.75 Q947.0894,923.3906 946.9019,923.2031 Q946.5738,922.8281 945.9644,922.6094 Q945.355,922.3906 944.73,922.3906 Q943.9644,922.3906 943.3238,922.7188 Q942.6988,923.0469 942.1988,923.7969 Q941.7144,924.5469 941.7144,925.5781 L941.7144,926.6719 Q941.7144,927.9063 942.605,928.7344 Q943.4956,929.5469 945.0894,929.5469 Q946.0269,929.5469 946.6831,929.2969 Q947.0738,929.1406 947.4956,928.7031 Q947.7613,928.4375 947.9019,928.3594 Q948.0581,928.2813 948.2613,928.2813 Q948.5894,928.2813 948.8394,928.5469 Q949.105,928.7969 949.105,929.1406 Q949.105,929.4844 948.7613,929.8906 Q948.2613,930.4688 947.4644,930.7969 Q946.3863,931.25 945.0894,931.25 Q943.5738,931.25 942.3706,930.625 Q941.3863,930.125 940.6988,929.0625 Q940.0113,927.9844 940.0113,926.7031 L940.0113,925.5469 Q940.0113,924.2188 940.6206,923.0781 Q941.2456,921.9219 942.3394,921.3125 Q943.4331,920.6875 944.6675,920.6875 Q945.4019,920.6875 946.0425,920.8594 Q946.6988,921.0156 947.2456,921.375 Z " fill="#000000"/><text fill="#000000" font-family="sans-serif" font-size="14" lengthAdjust="spacing" textLength="76" x="962.08" y="931.2285">HangedMan</text><line style="stroke:#181818;stroke-width:0.5;" x1="914.28" x2="1056.28" y1="941.5" y2="941.5"/><line style="stroke:#181818;stroke-width:0.5;" x1="914.28" x2="1056.28" y1="949.5" y2="949.5"/><ellipse cx="924.28" cy="960.5" fill="#84BE84" rx="3" ry="3" style="stroke:#038048;stroke-width:1.0;"/><text fill="#000000" font-family="sans-serif" font-size="14" lengthAdjust="spacing" textLength="118" x="933.28" y="968.0332">PaintHangedMan()</text></g><!--MD5=[55d64a43c9fbbd0c57ec275f67dff253]
reverse link Round to Player--><g id="link_Round_Player"><path codeLine="33" d="M1309.11,627.15 C1308.74,646.12 1309.71,665.5 1312.03,682.35 " fill="none" id="Round-backto-Player" style="stroke:#181818;stroke-width:1.0;"/><polygon fill="#181818" points="1309.58,614.12,1305.365,619.9709,1309.1446,626.1121,1313.3597,620.2612,1309.58,614.12" style="stroke:#181818;stroke-width:1.0;"/><text fill="#000000" font-family="sans-serif" font-size="13" lengthAdjust="spacing" textLength="48" x="1257.3855" y="671.6343">Player 1</text></g><!--MD5=[55d64a43c9fbbd0c57ec275f67dff253]
reverse link Round to Player--><g id="link_Round_Player"><path codeLine="34" d="M1335.28,627.15 C1335.28,646.12 1335.28,665.5 1335.28,682.35 " fill="none" id="Round-backto-Player-1" style="stroke:#181818;stroke-width:1.0;"/><polygon fill="#181818" points="1335.28,614.12,1331.28,620.12,1335.28,626.12,1339.28,620.12,1335.28,614.12" style="stroke:#181818;stroke-width:1.0;"/><text fill="#000000" font-family="sans-serif" font-size="13" lengthAdjust="spacing" textLength="48" x="1338.655" y="671.6343">Player 2</text></g><!--MD5=[55d64a43c9fbbd0c57ec275f67dff253]
reverse link Round to Player--><g id="link_Round_Player"><path codeLine="35" d="M1361.45,627.15 C1361.82,646.12 1360.85,665.5 1358.53,682.35 " fill="none" id="Round-backto-Player-2" style="stroke:#181818;stroke-width:1.0;"/><polygon fill="#181818" points="1360.98,614.12,1357.2003,620.2612,1361.4154,626.1121,1365.195,619.9709,1360.98,614.12" style="stroke:#181818;stroke-width:1.0;"/><text fill="#000000" font-family="sans-serif" font-size="13" lengthAdjust="spacing" textLength="41" x="1317.9167" y="671.6343">Winner</text></g><!--MD5=[cb02c96b642da5c7c708bc3e89afb5b1]
reverse link Player to TypePlayer--><g id="link_Player_TypePlayer"><path codeLine="37" d="M1335.28,796.75 C1335.28,830.56 1335.28,871.28 1335.28,900.91 " fill="none" id="Player-backto-TypePlayer" style="stroke:#181818;stroke-width:1.0;"/><polygon fill="#181818" points="1335.28,783.7,1331.28,789.7,1335.28,795.7,1339.28,789.7,1335.28,783.7" style="stroke:#181818;stroke-width:1.0;"/></g><!--MD5=[a6e9f244e90846485a04bb26007abd3c]
reverse link Letter to Round--><g id="link_Letter_Round"><path codeLine="38" d="M1327.06,413.27 C1328.07,428.44 1329.15,444.52 1330.18,459.87 " fill="none" id="Letter-backto-Round" style="stroke:#181818;stroke-width:1.0;"/><polygon fill="#181818" points="1326.18,400.21,1322.5912,406.4646,1326.9844,412.183,1330.5732,405.9284,1326.18,400.21" style="stroke:#181818;stroke-width:1.0;"/></g><!--MD5=[e5f01086500c82650ddae89aee8c731c]
link TypeGame to Round--><g id="link_TypeGame_Round"><path codeLine="40" d="M1443.56,382.67 C1429.95,401.95 1413.12,425.77 1396.83,448.84 " fill="none" id="TypeGame-to-Round" style="stroke:#181818;stroke-width:1.0;"/><polygon fill="#181818" points="1389.14,459.73,1395.8676,457.1339,1396.0586,449.9253,1389.3311,452.5214,1389.14,459.73" style="stroke:#181818;stroke-width:1.0;"/></g><!--MD5=[1d5a8a95d712be041c57bdd90387f6ab]
reverse link HangManController to RoundHangManController--><g id="link_HangManController_RoundHangManController"><path codeLine="122" d="M661.13,235.28 C664.59,260.89 668.22,287.77 670.94,307.88 " fill="none" id="HangManController-backto-RoundHangManController" style="stroke:#181818;stroke-width:1.0;"/><polygon fill="#181818" points="659.34,222.05,656.1803,228.532,660.9484,233.9417,664.1081,227.4597,659.34,222.05" style="stroke:#181818;stroke-width:1.0;"/></g><!--MD5=[cb624b9233a5c5a48ab9b139c2caeb53]
link HangManController to GamePlayersProviderController--><g id="link_HangManController_GamePlayersProviderController"><path codeLine="123" d="M790.54,222.16 C800.02,227.35 809.35,232.65 818.28,238 C852.06,258.21 888.14,283.98 915.6,304.56 " fill="none" id="HangManController-to-GamePlayersProviderController" style="stroke:#181818;stroke-width:1.0;"/><polygon fill="#181818" points="919.93,307.81,915.1496,299.1991,915.9369,304.8009,910.335,305.5881,919.93,307.81" style="stroke:#181818;stroke-width:1.0;"/></g><!--MD5=[1dc66156a85eee382d6c9e40c113dc4e]
link HangManController to Dice--><g id="link_HangManController_Dice"><path codeLine="124" d="M498.74,160.74 C375.11,168.98 214.43,189.07 173.28,238 C6,436.9 139.25,790.49 189.3,904.78 " fill="none" id="HangManController-to-Dice" style="stroke:#181818;stroke-width:1.0;stroke-dasharray:7.0,7.0;"/><polygon fill="#181818" points="191.33,909.39,191.3728,899.5412,189.3192,904.8122,184.0482,902.7586,191.33,909.39" style="stroke:#181818;stroke-width:1.0;"/></g><!--MD5=[d33e64e27e1fdadabafc9b573210ec27]
reverse link HangManController to GamePlayerController--><g id="link_HangManController_GamePlayerController"><path codeLine="125" d="M559.03,230.77 C499.59,284.45 424.41,361.13 376.28,442.5 C325.33,528.63 294.74,644.39 282.09,699.8 " fill="none" id="HangManController-backto-GamePlayerController" style="stroke:#181818;stroke-width:1.0;"/><polygon fill="#181818" points="568.81,222.03,561.6708,223.0461,559.863,230.0269,567.0021,229.0108,568.81,222.03" style="stroke:#181818;stroke-width:1.0;"/></g><!--MD5=[d2f60c033a7c8c815fbe2778509eb444]
reverse link RoundHangManController to HangedManController--><g id="link_RoundHangManController_HangedManController"><path codeLine="127" d="M684.06,386.84 C688.31,408.53 693.53,435.17 698.38,459.91 " fill="none" id="RoundHangManController-backto-HangedManController" style="stroke:#181818;stroke-width:1.0;"/><polygon fill="#181818" points="681.55,374.04,678.7785,380.6972,683.8577,385.816,686.6292,379.1588,681.55,374.04" style="stroke:#181818;stroke-width:1.0;"/></g><!--MD5=[7af159352b38ea7d12c09354c86f59f4]
reverse link RoundHangManController to HangManPlayerController--><g id="link_RoundHangManController_HangManPlayerController"><path codeLine="128" d="M635.58,383.86 C604.22,416.92 560.72,462.78 529.7,495.49 " fill="none" id="RoundHangManController-backto-HangManPlayerController" style="stroke:#181818;stroke-width:1.0;"/><polygon fill="#181818" points="644.9,374.04,637.8688,375.6406,636.6419,382.7466,643.6732,381.146,644.9,374.04" style="stroke:#181818;stroke-width:1.0;"/></g><!--MD5=[3c81a6a309d41872bd0676d36a7b0f77]
reverse link HangedManController to SecretWordController--><g id="link_HangedManController_SecretWordController"><path codeLine="130" d="M670.25,625.86 C662.3,642.11 654.17,658.71 646.78,673.8 " fill="none" id="HangedManController-backto-SecretWordController" style="stroke:#181818;stroke-width:1.0;"/><polygon fill="#181818" points="676.01,614.12,669.7809,617.7529,670.7385,624.9002,676.9676,621.2672,676.01,614.12" style="stroke:#181818;stroke-width:1.0;"/></g><!--MD5=[7341ced2163b5130aee2f8f02102d5ac]
reverse link HangedManController to HangManPlayerController--><g id="link_HangedManController_HangManPlayerController"><path codeLine="132" d="M618.89,537 C609.16,537 599.43,537 589.71,537 " fill="none" id="HangedManController-backto-HangManPlayerController" style="stroke:#181818;stroke-width:1.0;"/><polygon fill="#181818" points="623.98,537,614.98,533,618.98,537,614.98,541,623.98,537" style="stroke:#181818;stroke-width:1.0;"/></g><!--MD5=[918e28ee3d801cca321a5953f3859c87]
reverse link HangManPlayerController to GamePlayerController--><g id="link_HangManPlayerController_GamePlayerController"><path codeLine="133" d="M430.99,592.15 C392.46,626.76 343.79,670.46 311.22,699.72 " fill="none" id="HangManPlayerController-backto-GamePlayerController" style="stroke:#181818;stroke-width:1.0;"/><polygon fill="none" points="426.44,586.82,446,578.67,435.8,597.24,426.44,586.82" style="stroke:#181818;stroke-width:1.0;"/></g><!--MD5=[f2d4924edb668232f57cfa7d18c1b6bd]
reverse link GamePlayersProviderController to ListOfPlayersController--><g id="link_GamePlayersProviderController_ListOfPlayersController"><path codeLine="135" d="M961.28,394.4 C961.28,423.03 961.28,458.27 961.28,486.43 " fill="none" id="GamePlayersProviderController-backto-ListOfPlayersController" style="stroke:#181818;stroke-width:1.0;stroke-dasharray:7.0,7.0;"/><polygon fill="none" points="954.28,394.04,961.28,374.04,968.28,394.04,954.28,394.04" style="stroke:#181818;stroke-width:1.0;"/></g><!--MD5=[78bd046b727c22a96fe08298bc5af118]
link GamePlayerController to Dice--><g id="link_GamePlayerController_Dice"><path codeLine="136" d="M264.5,766.42 C252.09,803.73 231.76,864.89 218.7,904.15 " fill="none" id="GamePlayerController-to-Dice" style="stroke:#181818;stroke-width:1.0;stroke-dasharray:7.0,7.0;"/><polygon fill="#181818" points="216.99,909.31,223.6176,902.0248,218.5626,904.5637,216.0236,899.5087,216.99,909.31" style="stroke:#181818;stroke-width:1.0;"/></g><!--MD5=[8b6e57fbb7cda1737f2cde0ee74afed7]
reverse link HangManController to HangMan--><g id="link_HangManController_HangMan"><path codeLine="139" d="M807.16,163.47 C922.39,173.27 1065.35,194.1 1104.28,238 C1275.19,430.71 1194.1,782.15 1159.88,900.99 " fill="none" id="HangManController-backto-HangMan" style="stroke:#181818;stroke-width:1.0;stroke-dasharray:7.0,7.0;"/><polygon fill="#181818" points="802.04,163.04,810.6644,167.7961,807.0216,163.4682,811.3495,159.8255,802.04,163.04" style="stroke:#181818;stroke-width:1.0;"/></g><!--MD5=[87118027222b79cec2101c79c902c8cb]
link ListOfPlayersController to Player--><g id="link_ListOfPlayersController_Player"><path codeLine="140" d="M1050.39,584.22 C1117.66,619.12 1208.49,666.23 1269.33,697.79 " fill="none" id="ListOfPlayersController-to-Player" style="stroke:#181818;stroke-width:1.0;stroke-dasharray:7.0,7.0;"/><polygon fill="#181818" points="1274.02,700.22,1267.8765,692.5221,1269.5827,697.9155,1264.1893,699.6217,1274.02,700.22" style="stroke:#181818;stroke-width:1.0;"/></g><!--MD5=[9d04c33ff40afaa7c20073565e227ebc]
reverse link ListOfPlayersController to ListOfPlayers--><g id="link_ListOfPlayersController_ListOfPlayers"><path codeLine="141" d="M937.64,592.51 C903.49,671.26 840.83,815.72 807.86,891.73 " fill="none" id="ListOfPlayersController-backto-ListOfPlayers" style="stroke:#181818;stroke-width:1.0;stroke-dasharray:7.0,7.0;"/><polygon fill="#181818" points="939.65,587.88,932.3856,594.5305,937.6512,592.4631,939.7185,597.7286,939.65,587.88" style="stroke:#181818;stroke-width:1.0;"/></g><!--MD5=[fd160608eaa761e6fe33f474f0e8cbb9]
reverse link SecretWordController to SecretWord--><g id="link_SecretWordController_SecretWord"><path codeLine="142" d="M614.3,797.47 C611.99,834.43 609.17,879.47 607.3,909.23 " fill="none" id="SecretWordController-backto-SecretWord" style="stroke:#181818;stroke-width:1.0;stroke-dasharray:7.0,7.0;"/><polygon fill="#181818" points="614.64,792.08,610.0833,800.8113,614.3263,797.0702,618.0675,801.3132,614.64,792.08" style="stroke:#181818;stroke-width:1.0;"/></g><!--MD5=[b54f9522d785fc6c931ce44a32e893be]
reverse link HangedManController to HangedMan--><g id="link_HangedManController_HangedMan"><path codeLine="143" d="M767.6,618.57 C827.66,707.68 921.51,846.9 963.59,909.32 " fill="none" id="HangedManController-backto-HangedMan" style="stroke:#181818;stroke-width:1.0;stroke-dasharray:7.0,7.0;"/><polygon fill="#181818" points="764.76,614.37,766.4472,624.0733,767.5434,618.5237,773.093,619.6199,764.76,614.37" style="stroke:#181818;stroke-width:1.0;"/></g><!--MD5=[02ab1b1e4b1d65c0a77ee5fec4b70766]
reverse link Letter to HangedMan--><g id="link_Letter_HangedMan"><path codeLine="144" d="M1274.11,404.4 C1265.19,416.79 1256.19,429.88 1248.28,442.5 C1142.05,611.98 1037.92,828.67 1000.15,909.35 " fill="none" id="Letter-backto-HangedMan" style="stroke:#181818;stroke-width:1.0;stroke-dasharray:7.0,7.0;"/><polygon fill="#181818" points="1277.14,400.22,1268.6209,405.1621,1274.2068,404.2692,1275.0996,409.8552,1277.14,400.22" style="stroke:#181818;stroke-width:1.0;"/></g><!--MD5=[d33d639303ce5c86d5f51a02eec3254e]
link RoundHangManController to Round--><g id="link_RoundHangManController_Round"><path codeLine="146" d="M723.08,374.04 C739.62,383.79 758.69,393.6 777.28,400 C900.04,442.26 940.18,411.61 1066.28,442.5 C1133.41,458.95 1207.43,485.31 1260.8,505.85 " fill="none" id="RoundHangManController-to-Round" style="stroke:#181818;stroke-width:1.0;stroke-dasharray:7.0,7.0;"/><polygon fill="#181818" points="1265.58,507.7,1258.6201,500.7315,1260.9144,505.9022,1255.7437,508.1965,1265.58,507.7" style="stroke:#181818;stroke-width:1.0;"/></g><!--MD5=[2c5fb7fc212342089d13265fe0e05890]
@startuml HangMan

package model {
    class Player{
        idPlayer : int
        name : String
        idTypePlayer : int
    }
    class Round {
        idRound : int
        idPlayer 1: Player
        idPlayer 2: Player
        idWinner : Player
        isFinished : boolean
        idGame : int
    }
    class TypePlayer {
        idTypePlayer : int
        name: String
    }

    class Letter {
        idRound : int
        character : char
        position : int
        isShown : boolean
    }

    class TypeGame {
        idGame : int
        game : String
    }

    Round *- - "Player 1" Player
    Round *- - "Player 2" Player
    Round *- - "Winner" Player

    Player *- - TypePlayer
    Letter *- - Round

    TypeGame - -* Round
}

package util {
    class Dice{
        +generateValue (int bound)
    }
}

package controller {

    package hangman {
        class HangManController {
            # GamePlayer[] gamePlayers
            # GamePlayersProvider gamePlayersProvider
            + Execute()
            # AssignRoles (GamePlayer[] gamePlayers)
            # flipRoles (GamePlayer[] gamePlayers)
        }
        class SecretWordController {
            +Char GuesserWords []
            +Char SecretWord []
            +boolean AddLetter(Char letter)
            +boolean isGuessed ()
        }
        class RoundHangManController {
            +play()
        }
        class HangedManController {
            -FailedAttempts
            -SecretWord secretWord
            +isDead()
            +isSaved()
            -addPart()
            +tryLetter()
        }
        interface HangManPlayerController {
            +ChooseWord()
            +GiveLetter()
        }
    }

    package player {
        class ListOfPlayersController {
            +getPlayer(int id)
            +getList()
            +List<Player> playersList
        }
    }

    interface GamePlayersProviderController {
        + getGamePlayers(int) : GamePlayer[]
    }

    interface GamePlayerController {
        + processResult(Result)
    }
}

package view {

    class HangMan {
        + Introduction()
        + Resume()
    }

    class ListOfPlayers {
        +getList()
        +printList()
        +getGamePlayers(int size)
    }

    class SecretWord {
        +printWord()
    }

    class HangedMan {
        +PaintHangedMan()
    }
}

/'Relaciones internas del controlador'/
HangManController *- - RoundHangManController
HangManController - -> GamePlayersProviderController
HangManController .right.> Dice
HangManController *- - GamePlayerController

RoundHangManController *- - HangedManController
RoundHangManController *- - HangManPlayerController

HangedManController *- - SecretWordController

HangManPlayerController -left-> HangedManController
HangManPlayerController <|- - GamePlayerController

ListOfPlayersController .up.|> GamePlayersProviderController
Dice <.up. GamePlayerController

/'Relaciones MVC'/
HangManController <..HangMan
ListOfPlayersController ..> Player
ListOfPlayersController <.. ListOfPlayers
SecretWordController <.. SecretWord
HangedManController <.. HangedMan
HangedMan .up.> Letter

RoundHangManController ..> Round
@enduml

@startuml HangMan

package model {
    class Player{
        idPlayer : int
        name : String
        idTypePlayer : int
    }
    class Round {
        idRound : int
        idPlayer 1: Player
        idPlayer 2: Player
        idWinner : Player
        isFinished : boolean
        idGame : int
    }
    class TypePlayer {
        idTypePlayer : int
        name: String
    }

    class Letter {
        idRound : int
        character : char
        position : int
        isShown : boolean
    }

    class TypeGame {
        idGame : int
        game : String
    }

    Round *- - "Player 1" Player
    Round *- - "Player 2" Player
    Round *- - "Winner" Player

    Player *- - TypePlayer
    Letter *- - Round

    TypeGame - -* Round
}

package util {
    class Dice{
        +generateValue (int bound)
    }
}

package controller {

    package hangman {
        class HangManController {
            # GamePlayer[] gamePlayers
            # GamePlayersProvider gamePlayersProvider
            + Execute()
            # AssignRoles (GamePlayer[] gamePlayers)
            # flipRoles (GamePlayer[] gamePlayers)
        }
        class SecretWordController {
            +Char GuesserWords []
            +Char SecretWord []
            +boolean AddLetter(Char letter)
            +boolean isGuessed ()
        }
        class RoundHangManController {
            +play()
        }
        class HangedManController {
            -FailedAttempts
            -SecretWord secretWord
            +isDead()
            +isSaved()
            -addPart()
            +tryLetter()
        }
        interface HangManPlayerController {
            +ChooseWord()
            +GiveLetter()
        }
    }

    package player {
        class ListOfPlayersController {
            +getPlayer(int id)
            +getList()
            +List<Player> playersList
        }
    }

    interface GamePlayersProviderController {
        + getGamePlayers(int) : GamePlayer[]
    }

    interface GamePlayerController {
        + processResult(Result)
    }
}

package view {

    class HangMan {
        + Introduction()
        + Resume()
    }

    class ListOfPlayers {
        +getList()
        +printList()
        +getGamePlayers(int size)
    }

    class SecretWord {
        +printWord()
    }

    class HangedMan {
        +PaintHangedMan()
    }
}

HangManController *- - RoundHangManController
HangManController - -> GamePlayersProviderController
HangManController .right.> Dice
HangManController *- - GamePlayerController

RoundHangManController *- - HangedManController
RoundHangManController *- - HangManPlayerController

HangedManController *- - SecretWordController

HangManPlayerController -left-> HangedManController
HangManPlayerController <|- - GamePlayerController

ListOfPlayersController .up.|> GamePlayersProviderController
Dice <.up. GamePlayerController

HangManController <..HangMan
ListOfPlayersController ..> Player
ListOfPlayersController <.. ListOfPlayers
SecretWordController <.. SecretWord
HangedManController <.. HangedMan
HangedMan .up.> Letter

RoundHangManController ..> Round
@enduml

PlantUML version 1.2022.5(Sat Apr 30 04:55:52 CST 2022)
(GPL source distribution)
Java Runtime: Java(TM) SE Runtime Environment
JVM: Java HotSpot(TM) 64-Bit Server VM
Default Encoding: Cp1252
Language: en
Country: US
--></g></svg>