<?xml version="1.0" encoding="UTF-8" standalone="no"?><svg xmlns="http://www.w3.org/2000/svg" xmlns:xlink="http://www.w3.org/1999/xlink" contentStyleType="text/css" height="1363px" preserveAspectRatio="none" style="width:1979px;height:1363px;background:#FFFFFF;" version="1.1" viewBox="0 0 1979 1363" width="1979px" zoomAndPan="magnify"><defs/><g><!--MD5=[5d4cd377749310b66bf14896f5cd8d9b]
cluster model--><g id="cluster_model"><path d="M1242.53,246 L1286.53,246 A3.75,3.75 0 0 1 1289.03,248.5 L1296.03,269.6094 L1969.53,269.6094 A2.5,2.5 0 0 1 1972.03,272.1094 L1972.03,1353.5 A2.5,2.5 0 0 1 1969.53,1356 L1242.53,1356 A2.5,2.5 0 0 1 1240.03,1353.5 L1240.03,248.5 A2.5,2.5 0 0 1 1242.53,246 " style="stroke:#000000;stroke-width:1.5;fill:none;"/><line style="stroke:#000000;stroke-width:1.5;fill:none;" x1="1240.03" x2="1296.03" y1="269.6094" y2="269.6094"/><text fill="#000000" font-family="sans-serif" font-size="14" font-weight="bold" lengthAdjust="spacing" textLength="43" x="1244.03" y="262.5332">model</text></g><!--MD5=[3e81cc6ee7da4fa8b6adc12b329096f6]
cluster util--><g id="cluster_util"><path d="M170.53,1176.5 L193.53,1176.5 A3.75,3.75 0 0 1 196.03,1179 L203.03,1200.1094 L389.53,1200.1094 A2.5,2.5 0 0 1 392.03,1202.6094 L392.03,1292 A2.5,2.5 0 0 1 389.53,1294.5 L170.53,1294.5 A2.5,2.5 0 0 1 168.03,1292 L168.03,1179 A2.5,2.5 0 0 1 170.53,1176.5 " style="stroke:#000000;stroke-width:1.5;fill:none;"/><line style="stroke:#000000;stroke-width:1.5;fill:none;" x1="168.03" x2="203.03" y1="1200.1094" y2="1200.1094"/><text fill="#000000" font-family="sans-serif" font-size="14" font-weight="bold" lengthAdjust="spacing" textLength="22" x="172.03" y="1193.0332">util</text></g><!--MD5=[10ea673caf457862023e152271927b45]
cluster controller--><g id="cluster_controller"><path d="M251.53,6 L321.53,6 A3.75,3.75 0 0 1 324.03,8.5 L331.03,29.6094 L1109.53,29.6094 A2.5,2.5 0 0 1 1112.03,32.1094 L1112.03,1084.5 A2.5,2.5 0 0 1 1109.53,1087 L251.53,1087 A2.5,2.5 0 0 1 249.03,1084.5 L249.03,8.5 A2.5,2.5 0 0 1 251.53,6 " style="stroke:#000000;stroke-width:1.5;fill:none;"/><line style="stroke:#000000;stroke-width:1.5;fill:none;" x1="249.03" x2="331.03" y1="29.6094" y2="29.6094"/><text fill="#000000" font-family="sans-serif" font-size="14" font-weight="bold" lengthAdjust="spacing" textLength="69" x="253.03" y="22.5332">controller</text></g><!--MD5=[5580c82edcbc933de5e73591f0fcf26e]
cluster hangman--><g id="cluster_hangman"><path d="M449.53,50 L514.53,50 A3.75,3.75 0 0 1 517.03,52.5 L524.03,73.6094 L823.53,73.6094 A2.5,2.5 0 0 1 826.03,76.1094 L826.03,1060.5 A2.5,2.5 0 0 1 823.53,1063 L449.53,1063 A2.5,2.5 0 0 1 447.03,1060.5 L447.03,52.5 A2.5,2.5 0 0 1 449.53,50 " style="stroke:#000000;stroke-width:1.5;fill:none;"/><line style="stroke:#000000;stroke-width:1.5;fill:none;" x1="447.03" x2="524.03" y1="73.6094" y2="73.6094"/><text fill="#000000" font-family="sans-serif" font-size="14" font-weight="bold" lengthAdjust="spacing" textLength="64" x="451.03" y="66.5332">hangman</text></g><!--MD5=[86cbce8df1eb9d604fbbb2fa357940f8]
cluster view--><g id="cluster_view"><path d="M519.53,1159 L553.53,1159 A3.75,3.75 0 0 1 556.03,1161.5 L563.03,1182.6094 L1213.53,1182.6094 A2.5,2.5 0 0 1 1216.03,1185.1094 L1216.03,1309.5 A2.5,2.5 0 0 1 1213.53,1312 L519.53,1312 A2.5,2.5 0 0 1 517.03,1309.5 L517.03,1161.5 A2.5,2.5 0 0 1 519.53,1159 " style="stroke:#000000;stroke-width:1.5;fill:none;"/><line style="stroke:#000000;stroke-width:1.5;fill:none;" x1="517.03" x2="563.03" y1="1182.6094" y2="1182.6094"/><text fill="#000000" font-family="sans-serif" font-size="14" font-weight="bold" lengthAdjust="spacing" textLength="33" x="521.03" y="1175.5332">view</text></g><!--MD5=[2cb47ba637a0d19583e6199456f6ad0b]
class Player--><g id="elem_Player"><rect codeLine="3" fill="#F1F1F1" height="206.4844" id="Player" rx="2.5" ry="2.5" style="stroke:#181818;stroke-width:0.5;" width="221" x="1290.53" y="885"/><ellipse cx="1376.78" cy="901" fill="#ADD1B2" rx="11" ry="11" style="stroke:#181818;stroke-width:1.0;"/><path d="M1379.5456,896.875 Q1379.7019,896.6563 1379.8894,896.5469 Q1380.0769,896.4375 1380.2956,896.4375 Q1380.6706,896.4375 1380.905,896.7031 Q1381.1394,896.9531 1381.1394,897.5625 L1381.1394,899.0156 Q1381.1394,899.625 1380.905,899.8906 Q1380.6706,900.1563 1380.2956,900.1563 Q1379.9519,900.1563 1379.7488,899.9531 Q1379.5456,899.7656 1379.4363,899.25 Q1379.3894,898.8906 1379.2019,898.7031 Q1378.8738,898.3281 1378.2644,898.1094 Q1377.655,897.8906 1377.03,897.8906 Q1376.2644,897.8906 1375.6238,898.2188 Q1374.9988,898.5469 1374.4988,899.2969 Q1374.0144,900.0469 1374.0144,901.0781 L1374.0144,902.1719 Q1374.0144,903.4063 1374.905,904.2344 Q1375.7956,905.0469 1377.3894,905.0469 Q1378.3269,905.0469 1378.9831,904.7969 Q1379.3738,904.6406 1379.7956,904.2031 Q1380.0613,903.9375 1380.2019,903.8594 Q1380.3581,903.7813 1380.5613,903.7813 Q1380.8894,903.7813 1381.1394,904.0469 Q1381.405,904.2969 1381.405,904.6406 Q1381.405,904.9844 1381.0613,905.3906 Q1380.5613,905.9688 1379.7644,906.2969 Q1378.6863,906.75 1377.3894,906.75 Q1375.8738,906.75 1374.6706,906.125 Q1373.6863,905.625 1372.9988,904.5625 Q1372.3113,903.4844 1372.3113,902.2031 L1372.3113,901.0469 Q1372.3113,899.7188 1372.9206,898.5781 Q1373.5456,897.4219 1374.6394,896.8125 Q1375.7331,896.1875 1376.9675,896.1875 Q1377.7019,896.1875 1378.3425,896.3594 Q1378.9988,896.5156 1379.5456,896.875 Z " fill="#000000"/><text fill="#000000" font-family="sans-serif" font-size="14" lengthAdjust="spacing" textLength="40" x="1397.28" y="906.7285">Player</text><line style="stroke:#181818;stroke-width:0.5;" x1="1291.53" x2="1510.53" y1="917" y2="917"/><text fill="#000000" font-family="sans-serif" font-size="14" lengthAdjust="spacing" textLength="137" x="1296.53" y="935.5332">Players: List &lt;Player&gt;</text><text fill="#000000" font-family="sans-serif" font-size="14" lengthAdjust="spacing" textLength="78" x="1296.53" y="953.1426">idPlayer : int</text><text fill="#000000" font-family="sans-serif" font-size="14" lengthAdjust="spacing" textLength="84" x="1296.53" y="970.752">name : String</text><text fill="#000000" font-family="sans-serif" font-size="14" lengthAdjust="spacing" textLength="110" x="1296.53" y="988.3613">idTypePlayer : int</text><line style="stroke:#181818;stroke-width:0.5;" x1="1291.53" x2="1510.53" y1="995.4375" y2="995.4375"/><text fill="#000000" font-family="sans-serif" font-size="14" lengthAdjust="spacing" textLength="177" x="1296.53" y="1013.9707">insertPlayer (Player): Player</text><text fill="#000000" font-family="sans-serif" font-size="14" lengthAdjust="spacing" textLength="154" x="1296.53" y="1031.5801">selectPlayer (int): Player</text><text fill="#000000" font-family="sans-serif" font-size="14" lengthAdjust="spacing" textLength="209" x="1296.53" y="1049.1895">updatePlayer (int, Player): Player</text><text fill="#000000" font-family="sans-serif" font-size="14" lengthAdjust="spacing" textLength="167" x="1296.53" y="1066.7988">deletePlayer (Player): void</text><text fill="#000000" font-family="sans-serif" font-size="14" lengthAdjust="spacing" textLength="184" x="1296.53" y="1084.4082">selectPlayers (): List&lt;Player&gt;</text></g><!--MD5=[d75b0a238b734941260681f0026bbb88]
class Round--><g id="elem_Round"><rect codeLine="14" fill="#F1F1F1" height="259.3125" id="Round" rx="2.5" ry="2.5" style="stroke:#181818;stroke-width:0.5;" width="231" x="1285.53" y="566"/><ellipse cx="1375.78" cy="582" fill="#ADD1B2" rx="11" ry="11" style="stroke:#181818;stroke-width:1.0;"/><path d="M1378.5456,577.875 Q1378.7019,577.6563 1378.8894,577.5469 Q1379.0769,577.4375 1379.2956,577.4375 Q1379.6706,577.4375 1379.905,577.7031 Q1380.1394,577.9531 1380.1394,578.5625 L1380.1394,580.0156 Q1380.1394,580.625 1379.905,580.8906 Q1379.6706,581.1563 1379.2956,581.1563 Q1378.9519,581.1563 1378.7488,580.9531 Q1378.5456,580.7656 1378.4363,580.25 Q1378.3894,579.8906 1378.2019,579.7031 Q1377.8738,579.3281 1377.2644,579.1094 Q1376.655,578.8906 1376.03,578.8906 Q1375.2644,578.8906 1374.6238,579.2188 Q1373.9988,579.5469 1373.4988,580.2969 Q1373.0144,581.0469 1373.0144,582.0781 L1373.0144,583.1719 Q1373.0144,584.4063 1373.905,585.2344 Q1374.7956,586.0469 1376.3894,586.0469 Q1377.3269,586.0469 1377.9831,585.7969 Q1378.3738,585.6406 1378.7956,585.2031 Q1379.0613,584.9375 1379.2019,584.8594 Q1379.3581,584.7813 1379.5613,584.7813 Q1379.8894,584.7813 1380.1394,585.0469 Q1380.405,585.2969 1380.405,585.6406 Q1380.405,585.9844 1380.0613,586.3906 Q1379.5613,586.9688 1378.7644,587.2969 Q1377.6863,587.75 1376.3894,587.75 Q1374.8738,587.75 1373.6706,587.125 Q1372.6863,586.625 1371.9988,585.5625 Q1371.3113,584.4844 1371.3113,583.2031 L1371.3113,582.0469 Q1371.3113,580.7188 1371.9206,579.5781 Q1372.5456,578.4219 1373.6394,577.8125 Q1374.7331,577.1875 1375.9675,577.1875 Q1376.7019,577.1875 1377.3425,577.3594 Q1377.9988,577.5156 1378.5456,577.875 Z " fill="#000000"/><text fill="#000000" font-family="sans-serif" font-size="14" lengthAdjust="spacing" textLength="42" x="1396.28" y="587.7285">Round</text><line style="stroke:#181818;stroke-width:0.5;" x1="1286.53" x2="1515.53" y1="598" y2="598"/><text fill="#000000" font-family="sans-serif" font-size="14" lengthAdjust="spacing" textLength="136" x="1291.53" y="616.5332">rounds : List&lt;Round&gt;</text><text fill="#000000" font-family="sans-serif" font-size="14" lengthAdjust="spacing" textLength="80" x="1291.53" y="634.1426">idRound : int</text><text fill="#000000" font-family="sans-serif" font-size="14" lengthAdjust="spacing" textLength="111" x="1291.53" y="651.752">idPlayer 1: Player</text><text fill="#000000" font-family="sans-serif" font-size="14" lengthAdjust="spacing" textLength="111" x="1291.53" y="669.3613">idPlayer 2: Player</text><text fill="#000000" font-family="sans-serif" font-size="14" lengthAdjust="spacing" textLength="108" x="1291.53" y="686.9707">idWinner : Player</text><text fill="#000000" font-family="sans-serif" font-size="14" lengthAdjust="spacing" textLength="127" x="1291.53" y="704.5801">isFinished : boolean</text><text fill="#000000" font-family="sans-serif" font-size="14" lengthAdjust="spacing" textLength="76" x="1291.53" y="722.1895">idGame : int</text><line style="stroke:#181818;stroke-width:0.5;" x1="1286.53" x2="1515.53" y1="729.2656" y2="729.2656"/><text fill="#000000" font-family="sans-serif" font-size="14" lengthAdjust="spacing" textLength="187" x="1291.53" y="747.7988">insertRound (Round) : Round</text><text fill="#000000" font-family="sans-serif" font-size="14" lengthAdjust="spacing" textLength="189" x="1291.53" y="765.4082">selectRound (Round) : Round</text><text fill="#000000" font-family="sans-serif" font-size="14" lengthAdjust="spacing" textLength="192" x="1291.53" y="783.0176">selectRounds () : List&lt;Round&gt;</text><text fill="#000000" font-family="sans-serif" font-size="14" lengthAdjust="spacing" textLength="219" x="1291.53" y="800.627">updateRound (int, Round) : Round</text><text fill="#000000" font-family="sans-serif" font-size="14" lengthAdjust="spacing" textLength="175" x="1291.53" y="818.2363">deleteRound (Round) : void</text></g><!--MD5=[ace3e6c11b8886c1ad6e132e1e690d2d]
class TypePlayer--><g id="elem_TypePlayer"><rect codeLine="28" fill="#F1F1F1" height="188.875" id="TypePlayer" rx="2.5" ry="2.5" style="stroke:#181818;stroke-width:0.5;" width="321" x="1256.53" y="1151"/><ellipse cx="1376.78" cy="1167" fill="#ADD1B2" rx="11" ry="11" style="stroke:#181818;stroke-width:1.0;"/><path d="M1379.5456,1162.875 Q1379.7019,1162.6563 1379.8894,1162.5469 Q1380.0769,1162.4375 1380.2956,1162.4375 Q1380.6706,1162.4375 1380.905,1162.7031 Q1381.1394,1162.9531 1381.1394,1163.5625 L1381.1394,1165.0156 Q1381.1394,1165.625 1380.905,1165.8906 Q1380.6706,1166.1563 1380.2956,1166.1563 Q1379.9519,1166.1563 1379.7488,1165.9531 Q1379.5456,1165.7656 1379.4363,1165.25 Q1379.3894,1164.8906 1379.2019,1164.7031 Q1378.8738,1164.3281 1378.2644,1164.1094 Q1377.655,1163.8906 1377.03,1163.8906 Q1376.2644,1163.8906 1375.6238,1164.2188 Q1374.9988,1164.5469 1374.4988,1165.2969 Q1374.0144,1166.0469 1374.0144,1167.0781 L1374.0144,1168.1719 Q1374.0144,1169.4063 1374.905,1170.2344 Q1375.7956,1171.0469 1377.3894,1171.0469 Q1378.3269,1171.0469 1378.9831,1170.7969 Q1379.3738,1170.6406 1379.7956,1170.2031 Q1380.0613,1169.9375 1380.2019,1169.8594 Q1380.3581,1169.7813 1380.5613,1169.7813 Q1380.8894,1169.7813 1381.1394,1170.0469 Q1381.405,1170.2969 1381.405,1170.6406 Q1381.405,1170.9844 1381.0613,1171.3906 Q1380.5613,1171.9688 1379.7644,1172.2969 Q1378.6863,1172.75 1377.3894,1172.75 Q1375.8738,1172.75 1374.6706,1172.125 Q1373.6863,1171.625 1372.9988,1170.5625 Q1372.3113,1169.4844 1372.3113,1168.2031 L1372.3113,1167.0469 Q1372.3113,1165.7188 1372.9206,1164.5781 Q1373.5456,1163.4219 1374.6394,1162.8125 Q1375.7331,1162.1875 1376.9675,1162.1875 Q1377.7019,1162.1875 1378.3425,1162.3594 Q1378.9988,1162.5156 1379.5456,1162.875 Z " fill="#000000"/><text fill="#000000" font-family="sans-serif" font-size="14" lengthAdjust="spacing" textLength="72" x="1397.28" y="1172.7285">TypePlayer</text><line style="stroke:#181818;stroke-width:0.5;" x1="1257.53" x2="1576.53" y1="1183" y2="1183"/><text fill="#000000" font-family="sans-serif" font-size="14" lengthAdjust="spacing" textLength="203" x="1262.53" y="1201.5332">typesPlayers : List&lt;TypePlayer&gt;</text><text fill="#000000" font-family="sans-serif" font-size="14" lengthAdjust="spacing" textLength="110" x="1262.53" y="1219.1426">idTypePlayer : int</text><text fill="#000000" font-family="sans-serif" font-size="14" lengthAdjust="spacing" textLength="80" x="1262.53" y="1236.752">name: String</text><line style="stroke:#181818;stroke-width:0.5;" x1="1257.53" x2="1576.53" y1="1243.8281" y2="1243.8281"/><text fill="#000000" font-family="sans-serif" font-size="14" lengthAdjust="spacing" textLength="277" x="1262.53" y="1262.3613">insertTypePlayer (TypePlayer) : TypePlayer</text><text fill="#000000" font-family="sans-serif" font-size="14" lengthAdjust="spacing" textLength="222" x="1262.53" y="1279.9707">selectTypePlayer (int) : TypePlayer</text><text fill="#000000" font-family="sans-serif" font-size="14" lengthAdjust="spacing" textLength="259" x="1262.53" y="1297.5801">selectTypesPlayers () : List&lt;TypePlayer&gt;</text><text fill="#000000" font-family="sans-serif" font-size="14" lengthAdjust="spacing" textLength="309" x="1262.53" y="1315.1895">updateTypePlayer (int, TypePlayer) : TypePlayer</text><text fill="#000000" font-family="sans-serif" font-size="14" lengthAdjust="spacing" textLength="235" x="1262.53" y="1332.7988">deleteTypePlayer (TypePlayer) : void</text></g><!--MD5=[e05bacf3ff4416a0580578814d41bbf6]
class Piece--><g id="elem_Piece"><rect codeLine="38" fill="#F1F1F1" height="188.875" id="Piece" rx="2.5" ry="2.5" style="stroke:#181818;stroke-width:0.5;" width="186" x="1757.03" y="601"/><ellipse cx="1828.28" cy="617" fill="#ADD1B2" rx="11" ry="11" style="stroke:#181818;stroke-width:1.0;"/><path d="M1831.0456,612.875 Q1831.2019,612.6563 1831.3894,612.5469 Q1831.5769,612.4375 1831.7956,612.4375 Q1832.1706,612.4375 1832.405,612.7031 Q1832.6394,612.9531 1832.6394,613.5625 L1832.6394,615.0156 Q1832.6394,615.625 1832.405,615.8906 Q1832.1706,616.1563 1831.7956,616.1563 Q1831.4519,616.1563 1831.2488,615.9531 Q1831.0456,615.7656 1830.9363,615.25 Q1830.8894,614.8906 1830.7019,614.7031 Q1830.3738,614.3281 1829.7644,614.1094 Q1829.155,613.8906 1828.53,613.8906 Q1827.7644,613.8906 1827.1238,614.2188 Q1826.4988,614.5469 1825.9988,615.2969 Q1825.5144,616.0469 1825.5144,617.0781 L1825.5144,618.1719 Q1825.5144,619.4063 1826.405,620.2344 Q1827.2956,621.0469 1828.8894,621.0469 Q1829.8269,621.0469 1830.4831,620.7969 Q1830.8738,620.6406 1831.2956,620.2031 Q1831.5613,619.9375 1831.7019,619.8594 Q1831.8581,619.7813 1832.0613,619.7813 Q1832.3894,619.7813 1832.6394,620.0469 Q1832.905,620.2969 1832.905,620.6406 Q1832.905,620.9844 1832.5613,621.3906 Q1832.0613,621.9688 1831.2644,622.2969 Q1830.1863,622.75 1828.8894,622.75 Q1827.3738,622.75 1826.1706,622.125 Q1825.1863,621.625 1824.4988,620.5625 Q1823.8113,619.4844 1823.8113,618.2031 L1823.8113,617.0469 Q1823.8113,615.7188 1824.4206,614.5781 Q1825.0456,613.4219 1826.1394,612.8125 Q1827.2331,612.1875 1828.4675,612.1875 Q1829.2019,612.1875 1829.8425,612.3594 Q1830.4988,612.5156 1831.0456,612.875 Z " fill="#000000"/><text fill="#000000" font-family="sans-serif" font-size="14" lengthAdjust="spacing" textLength="35" x="1848.78" y="622.7285">Piece</text><line style="stroke:#181818;stroke-width:0.5;" x1="1758.03" x2="1942.03" y1="633" y2="633"/><text fill="#000000" font-family="sans-serif" font-size="14" lengthAdjust="spacing" textLength="123" x="1763.03" y="651.5332">Pieces: List&lt;Piece&gt;</text><text fill="#000000" font-family="sans-serif" font-size="14" lengthAdjust="spacing" textLength="73" x="1763.03" y="669.1426">idPiece : int</text><text fill="#000000" font-family="sans-serif" font-size="14" lengthAdjust="spacing" textLength="84" x="1763.03" y="686.752">name : String</text><line style="stroke:#181818;stroke-width:0.5;" x1="1758.03" x2="1942.03" y1="693.8281" y2="693.8281"/><text fill="#000000" font-family="sans-serif" font-size="14" lengthAdjust="spacing" textLength="166" x="1763.03" y="712.3613">insertPiece (Piece) : Piece</text><text fill="#000000" font-family="sans-serif" font-size="14" lengthAdjust="spacing" textLength="148" x="1763.03" y="729.9707">selectPiece (int) : Piece</text><text fill="#000000" font-family="sans-serif" font-size="14" lengthAdjust="spacing" textLength="155" x="1763.03" y="747.5801">updatePiece (int) : Piece</text><text fill="#000000" font-family="sans-serif" font-size="14" lengthAdjust="spacing" textLength="161" x="1763.03" y="765.1895">deletePiece (Piece) : void</text><text fill="#000000" font-family="sans-serif" font-size="14" lengthAdjust="spacing" textLength="174" x="1763.03" y="782.7988">selectPieces (): List&lt;Piece&gt;</text></g><!--MD5=[5655ee3e2a0d028d03fe20f829576392]
class Square--><g id="elem_Square"><rect codeLine="49" fill="#F1F1F1" height="224.0938" id="Square" rx="2.5" ry="2.5" style="stroke:#181818;stroke-width:0.5;" width="211" x="1744.53" y="282"/><ellipse cx="1822.78" cy="298" fill="#ADD1B2" rx="11" ry="11" style="stroke:#181818;stroke-width:1.0;"/><path d="M1825.5456,293.875 Q1825.7019,293.6563 1825.8894,293.5469 Q1826.0769,293.4375 1826.2956,293.4375 Q1826.6706,293.4375 1826.905,293.7031 Q1827.1394,293.9531 1827.1394,294.5625 L1827.1394,296.0156 Q1827.1394,296.625 1826.905,296.8906 Q1826.6706,297.1563 1826.2956,297.1563 Q1825.9519,297.1563 1825.7488,296.9531 Q1825.5456,296.7656 1825.4363,296.25 Q1825.3894,295.8906 1825.2019,295.7031 Q1824.8738,295.3281 1824.2644,295.1094 Q1823.655,294.8906 1823.03,294.8906 Q1822.2644,294.8906 1821.6238,295.2188 Q1820.9988,295.5469 1820.4988,296.2969 Q1820.0144,297.0469 1820.0144,298.0781 L1820.0144,299.1719 Q1820.0144,300.4063 1820.905,301.2344 Q1821.7956,302.0469 1823.3894,302.0469 Q1824.3269,302.0469 1824.9831,301.7969 Q1825.3738,301.6406 1825.7956,301.2031 Q1826.0613,300.9375 1826.2019,300.8594 Q1826.3581,300.7813 1826.5613,300.7813 Q1826.8894,300.7813 1827.1394,301.0469 Q1827.405,301.2969 1827.405,301.6406 Q1827.405,301.9844 1827.0613,302.3906 Q1826.5613,302.9688 1825.7644,303.2969 Q1824.6863,303.75 1823.3894,303.75 Q1821.8738,303.75 1820.6706,303.125 Q1819.6863,302.625 1818.9988,301.5625 Q1818.3113,300.4844 1818.3113,299.2031 L1818.3113,298.0469 Q1818.3113,296.7188 1818.9206,295.5781 Q1819.5456,294.4219 1820.6394,293.8125 Q1821.7331,293.1875 1822.9675,293.1875 Q1823.7019,293.1875 1824.3425,293.3594 Q1824.9988,293.5156 1825.5456,293.875 Z " fill="#000000"/><text fill="#000000" font-family="sans-serif" font-size="14" lengthAdjust="spacing" textLength="46" x="1843.28" y="303.7285">Square</text><line style="stroke:#181818;stroke-width:0.5;" x1="1745.53" x2="1954.53" y1="314" y2="314"/><text fill="#000000" font-family="sans-serif" font-size="14" lengthAdjust="spacing" textLength="145" x="1750.53" y="332.5332">Squares: List&lt;Square&gt;</text><text fill="#000000" font-family="sans-serif" font-size="14" lengthAdjust="spacing" textLength="80" x="1750.53" y="350.1426">idRound : int</text><text fill="#000000" font-family="sans-serif" font-size="14" lengthAdjust="spacing" textLength="72" x="1750.53" y="367.752">column : int</text><text fill="#000000" font-family="sans-serif" font-size="14" lengthAdjust="spacing" textLength="49" x="1750.53" y="385.3613">row : int</text><text fill="#000000" font-family="sans-serif" font-size="14" lengthAdjust="spacing" textLength="73" x="1750.53" y="402.9707">idPiece : int</text><line style="stroke:#181818;stroke-width:0.5;" x1="1745.53" x2="1954.53" y1="410.0469" y2="410.0469"/><text fill="#000000" font-family="sans-serif" font-size="14" lengthAdjust="spacing" textLength="199" x="1750.53" y="428.5801">insertSquare (Square) : Square</text><text fill="#000000" font-family="sans-serif" font-size="14" lengthAdjust="spacing" textLength="170" x="1750.53" y="446.1895">selectSquare (int) : Square</text><text fill="#000000" font-family="sans-serif" font-size="14" lengthAdjust="spacing" textLength="177" x="1750.53" y="463.7988">updateSquare (int) : Square</text><text fill="#000000" font-family="sans-serif" font-size="14" lengthAdjust="spacing" textLength="183" x="1750.53" y="481.4082">deleteSquare (Square) : void</text><text fill="#000000" font-family="sans-serif" font-size="14" lengthAdjust="spacing" textLength="196" x="1750.53" y="499.0176">selectSquares (): List&lt;Square&gt;</text></g><!--MD5=[120fced6fc53ed38bb00f3c478c713f1]
class Letter--><g id="elem_Letter"><rect codeLine="61" fill="#F1F1F1" height="224.0938" id="Letter" rx="2.5" ry="2.5" style="stroke:#181818;stroke-width:0.5;" width="205" x="1256.53" y="282"/><ellipse cx="1336.28" cy="298" fill="#ADD1B2" rx="11" ry="11" style="stroke:#181818;stroke-width:1.0;"/><path d="M1339.0456,293.875 Q1339.2019,293.6563 1339.3894,293.5469 Q1339.5769,293.4375 1339.7956,293.4375 Q1340.1706,293.4375 1340.405,293.7031 Q1340.6394,293.9531 1340.6394,294.5625 L1340.6394,296.0156 Q1340.6394,296.625 1340.405,296.8906 Q1340.1706,297.1563 1339.7956,297.1563 Q1339.4519,297.1563 1339.2488,296.9531 Q1339.0456,296.7656 1338.9363,296.25 Q1338.8894,295.8906 1338.7019,295.7031 Q1338.3738,295.3281 1337.7644,295.1094 Q1337.155,294.8906 1336.53,294.8906 Q1335.7644,294.8906 1335.1238,295.2188 Q1334.4988,295.5469 1333.9988,296.2969 Q1333.5144,297.0469 1333.5144,298.0781 L1333.5144,299.1719 Q1333.5144,300.4063 1334.405,301.2344 Q1335.2956,302.0469 1336.8894,302.0469 Q1337.8269,302.0469 1338.4831,301.7969 Q1338.8738,301.6406 1339.2956,301.2031 Q1339.5613,300.9375 1339.7019,300.8594 Q1339.8581,300.7813 1340.0613,300.7813 Q1340.3894,300.7813 1340.6394,301.0469 Q1340.905,301.2969 1340.905,301.6406 Q1340.905,301.9844 1340.5613,302.3906 Q1340.0613,302.9688 1339.2644,303.2969 Q1338.1863,303.75 1336.8894,303.75 Q1335.3738,303.75 1334.1706,303.125 Q1333.1863,302.625 1332.4988,301.5625 Q1331.8113,300.4844 1331.8113,299.2031 L1331.8113,298.0469 Q1331.8113,296.7188 1332.4206,295.5781 Q1333.0456,294.4219 1334.1394,293.8125 Q1335.2331,293.1875 1336.4675,293.1875 Q1337.2019,293.1875 1337.8425,293.3594 Q1338.4988,293.5156 1339.0456,293.875 Z " fill="#000000"/><text fill="#000000" font-family="sans-serif" font-size="14" lengthAdjust="spacing" textLength="37" x="1356.78" y="303.7285">Letter</text><line style="stroke:#181818;stroke-width:0.5;" x1="1257.53" x2="1460.53" y1="314" y2="314"/><text fill="#000000" font-family="sans-serif" font-size="14" lengthAdjust="spacing" textLength="127" x="1262.53" y="332.5332">Letters: List&lt;Letter&gt;</text><text fill="#000000" font-family="sans-serif" font-size="14" lengthAdjust="spacing" textLength="80" x="1262.53" y="350.1426">idRound : int</text><text fill="#000000" font-family="sans-serif" font-size="14" lengthAdjust="spacing" textLength="100" x="1262.53" y="367.752">character : char</text><text fill="#000000" font-family="sans-serif" font-size="14" lengthAdjust="spacing" textLength="76" x="1262.53" y="385.3613">position : int</text><text fill="#000000" font-family="sans-serif" font-size="14" lengthAdjust="spacing" textLength="115" x="1262.53" y="402.9707">isShown : boolean</text><line style="stroke:#181818;stroke-width:0.5;" x1="1257.53" x2="1460.53" y1="410.0469" y2="410.0469"/><text fill="#000000" font-family="sans-serif" font-size="14" lengthAdjust="spacing" textLength="163" x="1262.53" y="428.5801">insertLetter (Letter): letter</text><text fill="#000000" font-family="sans-serif" font-size="14" lengthAdjust="spacing" textLength="193" x="1262.53" y="446.1895">selectPositionLetter(int) : letter</text><text fill="#000000" font-family="sans-serif" font-size="14" lengthAdjust="spacing" textLength="171" x="1262.53" y="463.7988">selectLetter() : List&lt;Letter&gt;</text><text fill="#000000" font-family="sans-serif" font-size="14" lengthAdjust="spacing" textLength="191" x="1262.53" y="481.4082">updateLetter(int, Letter): letter</text><text fill="#000000" font-family="sans-serif" font-size="14" lengthAdjust="spacing" textLength="161" x="1262.53" y="499.0176">deleteLetter(Letter) : void</text></g><!--MD5=[f3eaa0fe7b10472f3fee2708cd31d5a7]
class TypeGame--><g id="elem_TypeGame"><rect codeLine="74" fill="#F1F1F1" height="188.875" id="TypeGame" rx="2.5" ry="2.5" style="stroke:#181818;stroke-width:0.5;" width="212" x="1497.03" y="299.5"/><ellipse cx="1563.78" cy="315.5" fill="#ADD1B2" rx="11" ry="11" style="stroke:#181818;stroke-width:1.0;"/><path d="M1566.5456,311.375 Q1566.7019,311.1563 1566.8894,311.0469 Q1567.0769,310.9375 1567.2956,310.9375 Q1567.6706,310.9375 1567.905,311.2031 Q1568.1394,311.4531 1568.1394,312.0625 L1568.1394,313.5156 Q1568.1394,314.125 1567.905,314.3906 Q1567.6706,314.6563 1567.2956,314.6563 Q1566.9519,314.6563 1566.7488,314.4531 Q1566.5456,314.2656 1566.4363,313.75 Q1566.3894,313.3906 1566.2019,313.2031 Q1565.8738,312.8281 1565.2644,312.6094 Q1564.655,312.3906 1564.03,312.3906 Q1563.2644,312.3906 1562.6238,312.7188 Q1561.9988,313.0469 1561.4988,313.7969 Q1561.0144,314.5469 1561.0144,315.5781 L1561.0144,316.6719 Q1561.0144,317.9063 1561.905,318.7344 Q1562.7956,319.5469 1564.3894,319.5469 Q1565.3269,319.5469 1565.9831,319.2969 Q1566.3738,319.1406 1566.7956,318.7031 Q1567.0613,318.4375 1567.2019,318.3594 Q1567.3581,318.2813 1567.5613,318.2813 Q1567.8894,318.2813 1568.1394,318.5469 Q1568.405,318.7969 1568.405,319.1406 Q1568.405,319.4844 1568.0613,319.8906 Q1567.5613,320.4688 1566.7644,320.7969 Q1565.6863,321.25 1564.3894,321.25 Q1562.8738,321.25 1561.6706,320.625 Q1560.6863,320.125 1559.9988,319.0625 Q1559.3113,317.9844 1559.3113,316.7031 L1559.3113,315.5469 Q1559.3113,314.2188 1559.9206,313.0781 Q1560.5456,311.9219 1561.6394,311.3125 Q1562.7331,310.6875 1563.9675,310.6875 Q1564.7019,310.6875 1565.3425,310.8594 Q1565.9988,311.0156 1566.5456,311.375 Z " fill="#000000"/><text fill="#000000" font-family="sans-serif" font-size="14" lengthAdjust="spacing" textLength="70" x="1584.28" y="321.2285">TypeGame</text><line style="stroke:#181818;stroke-width:0.5;" x1="1498.03" x2="1708.03" y1="331.5" y2="331.5"/><text fill="#000000" font-family="sans-serif" font-size="14" lengthAdjust="spacing" textLength="133" x="1503.03" y="350.0332">Games: List &lt;Game&gt;</text><text fill="#000000" font-family="sans-serif" font-size="14" lengthAdjust="spacing" textLength="76" x="1503.03" y="367.6426">idGame : int</text><text fill="#000000" font-family="sans-serif" font-size="14" lengthAdjust="spacing" textLength="84" x="1503.03" y="385.252">game : String</text><line style="stroke:#181818;stroke-width:0.5;" x1="1498.03" x2="1708.03" y1="392.3281" y2="392.3281"/><text fill="#000000" font-family="sans-serif" font-size="14" lengthAdjust="spacing" textLength="168" x="1503.03" y="410.8613">insertGame (Game): game</text><text fill="#000000" font-family="sans-serif" font-size="14" lengthAdjust="spacing" textLength="151" x="1503.03" y="428.4707">selectGame (int) : game</text><text fill="#000000" font-family="sans-serif" font-size="14" lengthAdjust="spacing" textLength="177" x="1503.03" y="446.0801">selectGame () : List&lt;Game&gt;</text><text fill="#000000" font-family="sans-serif" font-size="14" lengthAdjust="spacing" textLength="200" x="1503.03" y="463.6895">updateGame (int, Game): game</text><text fill="#000000" font-family="sans-serif" font-size="14" lengthAdjust="spacing" textLength="167" x="1503.03" y="481.2988">deleteGame (Game) : void</text></g><!--MD5=[f7a9ae25cb0ac60c5f03b7bfd778cce3]
class Dice--><g id="elem_Dice"><rect codeLine="101" fill="#F1F1F1" height="65.6094" id="Dice" rx="2.5" ry="2.5" style="stroke:#181818;stroke-width:0.5;" width="192" x="184.03" y="1212.5"/><ellipse cx="261.78" cy="1228.5" fill="#ADD1B2" rx="11" ry="11" style="stroke:#181818;stroke-width:1.0;"/><path d="M264.5456,1224.375 Q264.7019,1224.1563 264.8894,1224.0469 Q265.0769,1223.9375 265.2956,1223.9375 Q265.6706,1223.9375 265.905,1224.2031 Q266.1394,1224.4531 266.1394,1225.0625 L266.1394,1226.5156 Q266.1394,1227.125 265.905,1227.3906 Q265.6706,1227.6563 265.2956,1227.6563 Q264.9519,1227.6563 264.7488,1227.4531 Q264.5456,1227.2656 264.4363,1226.75 Q264.3894,1226.3906 264.2019,1226.2031 Q263.8738,1225.8281 263.2644,1225.6094 Q262.655,1225.3906 262.03,1225.3906 Q261.2644,1225.3906 260.6238,1225.7188 Q259.9988,1226.0469 259.4988,1226.7969 Q259.0144,1227.5469 259.0144,1228.5781 L259.0144,1229.6719 Q259.0144,1230.9063 259.905,1231.7344 Q260.7956,1232.5469 262.3894,1232.5469 Q263.3269,1232.5469 263.9831,1232.2969 Q264.3738,1232.1406 264.7956,1231.7031 Q265.0613,1231.4375 265.2019,1231.3594 Q265.3581,1231.2813 265.5613,1231.2813 Q265.8894,1231.2813 266.1394,1231.5469 Q266.405,1231.7969 266.405,1232.1406 Q266.405,1232.4844 266.0613,1232.8906 Q265.5613,1233.4688 264.7644,1233.7969 Q263.6863,1234.25 262.3894,1234.25 Q260.8738,1234.25 259.6706,1233.625 Q258.6863,1233.125 257.9988,1232.0625 Q257.3113,1230.9844 257.3113,1229.7031 L257.3113,1228.5469 Q257.3113,1227.2188 257.9206,1226.0781 Q258.5456,1224.9219 259.6394,1224.3125 Q260.7331,1223.6875 261.9675,1223.6875 Q262.7019,1223.6875 263.3425,1223.8594 Q263.9988,1224.0156 264.5456,1224.375 Z " fill="#000000"/><text fill="#000000" font-family="sans-serif" font-size="14" lengthAdjust="spacing" textLength="28" x="282.28" y="1234.2285">Dice</text><line style="stroke:#181818;stroke-width:0.5;" x1="185.03" x2="375.03" y1="1244.5" y2="1244.5"/><line style="stroke:#181818;stroke-width:0.5;" x1="185.03" x2="375.03" y1="1252.5" y2="1252.5"/><ellipse cx="195.03" cy="1263.5" fill="#84BE84" rx="3" ry="3" style="stroke:#038048;stroke-width:1.0;"/><text fill="#000000" font-family="sans-serif" font-size="14" lengthAdjust="spacing" textLength="166" x="204.03" y="1271.0332">generateValue (int bound)</text></g><!--MD5=[6c6d1e40d155900b1d909db28d8f95d5]
class ListOfPlayersController--><g id="elem_ListOfPlayersController"><rect codeLine="139" fill="#F1F1F1" height="65.6094" id="ListOfPlayersController" rx="2.5" ry="2.5" style="stroke:#181818;stroke-width:0.5;" width="184" x="877.03" y="662.5"/><ellipse cx="894.73" cy="678.5" fill="#ADD1B2" rx="11" ry="11" style="stroke:#181818;stroke-width:1.0;"/><path d="M897.4956,674.375 Q897.6519,674.1563 897.8394,674.0469 Q898.0269,673.9375 898.2456,673.9375 Q898.6206,673.9375 898.855,674.2031 Q899.0894,674.4531 899.0894,675.0625 L899.0894,676.5156 Q899.0894,677.125 898.855,677.3906 Q898.6206,677.6563 898.2456,677.6563 Q897.9019,677.6563 897.6988,677.4531 Q897.4956,677.2656 897.3863,676.75 Q897.3394,676.3906 897.1519,676.2031 Q896.8238,675.8281 896.2144,675.6094 Q895.605,675.3906 894.98,675.3906 Q894.2144,675.3906 893.5738,675.7188 Q892.9488,676.0469 892.4488,676.7969 Q891.9644,677.5469 891.9644,678.5781 L891.9644,679.6719 Q891.9644,680.9063 892.855,681.7344 Q893.7456,682.5469 895.3394,682.5469 Q896.2769,682.5469 896.9331,682.2969 Q897.3238,682.1406 897.7456,681.7031 Q898.0113,681.4375 898.1519,681.3594 Q898.3081,681.2813 898.5113,681.2813 Q898.8394,681.2813 899.0894,681.5469 Q899.355,681.7969 899.355,682.1406 Q899.355,682.4844 899.0113,682.8906 Q898.5113,683.4688 897.7144,683.7969 Q896.6363,684.25 895.3394,684.25 Q893.8238,684.25 892.6206,683.625 Q891.6363,683.125 890.9488,682.0625 Q890.2613,680.9844 890.2613,679.7031 L890.2613,678.5469 Q890.2613,677.2188 890.8706,676.0781 Q891.4956,674.9219 892.5894,674.3125 Q893.6831,673.6875 894.9175,673.6875 Q895.6519,673.6875 896.2925,673.8594 Q896.9488,674.0156 897.4956,674.375 Z " fill="#000000"/><text fill="#000000" font-family="sans-serif" font-size="14" lengthAdjust="spacing" textLength="146" x="909.33" y="684.2285">ListOfPlayersController</text><line style="stroke:#181818;stroke-width:0.5;" x1="878.03" x2="1060.03" y1="694.5" y2="694.5"/><line style="stroke:#181818;stroke-width:0.5;" x1="878.03" x2="1060.03" y1="702.5" y2="702.5"/><ellipse cx="888.03" cy="713.5" fill="#84BE84" rx="3" ry="3" style="stroke:#038048;stroke-width:1.0;"/><text fill="#000000" font-family="sans-serif" font-size="14" lengthAdjust="spacing" textLength="158" x="897.03" y="721.0332">getGamePlayers(int size)</text></g><!--MD5=[26178a7f5ccfc2a33ee17310fc2a0bb3]
class GamePlayersProvider--><g id="elem_GamePlayersProvider"><rect codeLine="144" fill="#F1F1F1" height="65.6094" id="GamePlayersProvider" rx="2.5" ry="2.5" style="stroke:#181818;stroke-width:0.5;" width="254" x="842.03" y="361"/><ellipse cx="896.28" cy="377" fill="#B4A7E5" rx="11" ry="11" style="stroke:#181818;stroke-width:1.0;"/><path d="M897.2331,373.6406 L897.2331,380.2969 L898.9519,380.2969 Q899.5613,380.2969 899.8269,380.5313 Q900.0925,380.7656 900.0925,381.1563 Q900.0925,381.5313 899.8269,381.7656 Q899.5613,382 898.9519,382 L893.8113,382 Q893.2019,382 892.9363,381.7656 Q892.6706,381.5313 892.6706,381.1406 Q892.6706,380.7656 892.9363,380.5313 Q893.2019,380.2969 893.8113,380.2969 L895.53,380.2969 L895.53,373.6406 L893.8113,373.6406 Q893.2019,373.6406 892.9363,373.4063 Q892.6706,373.1719 892.6706,372.7813 Q892.6706,372.4063 892.9363,372.1719 Q893.2019,371.9375 893.8113,371.9375 L898.9519,371.9375 Q899.5613,371.9375 899.8269,372.1719 Q900.0925,372.4063 900.0925,372.7813 Q900.0925,373.1719 899.8269,373.4063 Q899.5613,373.6406 898.9519,373.6406 L897.2331,373.6406 Z " fill="#000000"/><text fill="#000000" font-family="sans-serif" font-size="14" font-style="italic" lengthAdjust="spacing" textLength="137" x="916.78" y="382.7285">GamePlayersProvider</text><line style="stroke:#181818;stroke-width:0.5;" x1="843.03" x2="1095.03" y1="393" y2="393"/><line style="stroke:#181818;stroke-width:0.5;" x1="843.03" x2="1095.03" y1="401" y2="401"/><ellipse cx="853.03" cy="412" fill="#84BE84" rx="3" ry="3" style="stroke:#038048;stroke-width:1.0;"/><text fill="#000000" font-family="sans-serif" font-size="14" lengthAdjust="spacing" textLength="228" x="862.03" y="419.5332">getGamePlayers(int) : GamePlayer[]</text></g><!--MD5=[b0359cb538a0ce2cb72f54394993c3c4]
class GamePlayer--><g id="elem_GamePlayer"><rect codeLine="148" fill="#F1F1F1" height="65.6094" id="GamePlayer" rx="2.5" ry="2.5" style="stroke:#181818;stroke-width:0.5;" width="166" x="265.03" y="955"/><ellipse cx="305.23" cy="971" fill="#B4A7E5" rx="11" ry="11" style="stroke:#181818;stroke-width:1.0;"/><path d="M306.1831,967.6406 L306.1831,974.2969 L307.9019,974.2969 Q308.5112,974.2969 308.7769,974.5313 Q309.0425,974.7656 309.0425,975.1563 Q309.0425,975.5313 308.7769,975.7656 Q308.5112,976 307.9019,976 L302.7612,976 Q302.1519,976 301.8862,975.7656 Q301.6206,975.5313 301.6206,975.1406 Q301.6206,974.7656 301.8862,974.5313 Q302.1519,974.2969 302.7612,974.2969 L304.48,974.2969 L304.48,967.6406 L302.7612,967.6406 Q302.1519,967.6406 301.8862,967.4063 Q301.6206,967.1719 301.6206,966.7813 Q301.6206,966.4063 301.8862,966.1719 Q302.1519,965.9375 302.7612,965.9375 L307.9019,965.9375 Q308.5112,965.9375 308.7769,966.1719 Q309.0425,966.4063 309.0425,966.7813 Q309.0425,967.1719 308.7769,967.4063 Q308.5112,967.6406 307.9019,967.6406 L306.1831,967.6406 Z " fill="#000000"/><text fill="#000000" font-family="sans-serif" font-size="14" font-style="italic" lengthAdjust="spacing" textLength="78" x="324.83" y="976.7285">GamePlayer</text><line style="stroke:#181818;stroke-width:0.5;" x1="266.03" x2="430.03" y1="987" y2="987"/><line style="stroke:#181818;stroke-width:0.5;" x1="266.03" x2="430.03" y1="995" y2="995"/><ellipse cx="276.03" cy="1006" fill="#84BE84" rx="3" ry="3" style="stroke:#038048;stroke-width:1.0;"/><text fill="#000000" font-family="sans-serif" font-size="14" lengthAdjust="spacing" textLength="140" x="285.03" y="1013.5332">processResult(Result)</text></g><!--MD5=[be6cf43ae500cdeffe28f30d60f26803]
class HangManController--><g id="elem_HangManController"><rect codeLine="109" fill="#F1F1F1" height="136.0469" id="HangManController" rx="2.5" ry="2.5" style="stroke:#181818;stroke-width:0.5;" width="303" x="506.53" y="86"/><ellipse cx="592.78" cy="102" fill="#ADD1B2" rx="11" ry="11" style="stroke:#181818;stroke-width:1.0;"/><path d="M595.5456,97.875 Q595.7019,97.6563 595.8894,97.5469 Q596.0769,97.4375 596.2956,97.4375 Q596.6706,97.4375 596.905,97.7031 Q597.1394,97.9531 597.1394,98.5625 L597.1394,100.0156 Q597.1394,100.625 596.905,100.8906 Q596.6706,101.1563 596.2956,101.1563 Q595.9519,101.1563 595.7488,100.9531 Q595.5456,100.7656 595.4363,100.25 Q595.3894,99.8906 595.2019,99.7031 Q594.8738,99.3281 594.2644,99.1094 Q593.655,98.8906 593.03,98.8906 Q592.2644,98.8906 591.6238,99.2188 Q590.9988,99.5469 590.4988,100.2969 Q590.0144,101.0469 590.0144,102.0781 L590.0144,103.1719 Q590.0144,104.4063 590.905,105.2344 Q591.7956,106.0469 593.3894,106.0469 Q594.3269,106.0469 594.9831,105.7969 Q595.3738,105.6406 595.7956,105.2031 Q596.0613,104.9375 596.2019,104.8594 Q596.3581,104.7813 596.5613,104.7813 Q596.8894,104.7813 597.1394,105.0469 Q597.405,105.2969 597.405,105.6406 Q597.405,105.9844 597.0613,106.3906 Q596.5613,106.9688 595.7644,107.2969 Q594.6863,107.75 593.3894,107.75 Q591.8738,107.75 590.6706,107.125 Q589.6863,106.625 588.9988,105.5625 Q588.3113,104.4844 588.3113,103.2031 L588.3113,102.0469 Q588.3113,100.7188 588.9206,99.5781 Q589.5456,98.4219 590.6394,97.8125 Q591.7331,97.1875 592.9675,97.1875 Q593.7019,97.1875 594.3425,97.3594 Q594.9988,97.5156 595.5456,97.875 Z " fill="#000000"/><text fill="#000000" font-family="sans-serif" font-size="14" lengthAdjust="spacing" textLength="122" x="613.28" y="107.7285">HangManController</text><line style="stroke:#181818;stroke-width:0.5;" x1="507.53" x2="808.53" y1="118" y2="118"/><polygon fill="none" points="517.53,124,521.53,128,517.53,132,513.53,128" style="stroke:#B38D22;stroke-width:1.0;"/><text fill="#000000" font-family="sans-serif" font-size="14" lengthAdjust="spacing" textLength="172" x="526.53" y="136.5332">GamePlayer[] gamePlayers</text><polygon fill="none" points="517.53,141.6094,521.53,145.6094,517.53,149.6094,513.53,145.6094" style="stroke:#B38D22;stroke-width:1.0;"/><text fill="#000000" font-family="sans-serif" font-size="14" lengthAdjust="spacing" textLength="277" x="526.53" y="154.1426">GamePlayersProvider gamePlayersProvider</text><line style="stroke:#181818;stroke-width:0.5;" x1="507.53" x2="808.53" y1="161.2188" y2="161.2188"/><ellipse cx="517.53" cy="172.2188" fill="#84BE84" rx="3" ry="3" style="stroke:#038048;stroke-width:1.0;"/><text fill="#000000" font-family="sans-serif" font-size="14" lengthAdjust="spacing" textLength="60" x="526.53" y="179.752">Execute()</text><polygon fill="#FFFF44" points="517.53,184.8281,521.53,188.8281,517.53,192.8281,513.53,188.8281" style="stroke:#B38D22;stroke-width:1.0;"/><text fill="#000000" font-family="sans-serif" font-size="14" lengthAdjust="spacing" textLength="264" x="526.53" y="197.3613">AssignRoles (GamePlayer[] gamePlayers)</text><polygon fill="#FFFF44" points="517.53,202.4375,521.53,206.4375,517.53,210.4375,513.53,206.4375" style="stroke:#B38D22;stroke-width:1.0;"/><text fill="#000000" font-family="sans-serif" font-size="14" lengthAdjust="spacing" textLength="240" x="526.53" y="214.9707">flipRoles (GamePlayer[] gamePlayers)</text></g><!--MD5=[414374b7244b03f9204e0aa869b55d53]
class SecretWordController--><g id="elem_SecretWordController"><rect codeLine="116" fill="#F1F1F1" height="118.4375" id="SecretWordController" rx="2.5" ry="2.5" style="stroke:#181818;stroke-width:0.5;" width="220" x="528.03" y="929"/><ellipse cx="565.98" cy="945" fill="#ADD1B2" rx="11" ry="11" style="stroke:#181818;stroke-width:1.0;"/><path d="M568.7456,940.875 Q568.9019,940.6563 569.0894,940.5469 Q569.2769,940.4375 569.4956,940.4375 Q569.8706,940.4375 570.105,940.7031 Q570.3394,940.9531 570.3394,941.5625 L570.3394,943.0156 Q570.3394,943.625 570.105,943.8906 Q569.8706,944.1563 569.4956,944.1563 Q569.1519,944.1563 568.9488,943.9531 Q568.7456,943.7656 568.6363,943.25 Q568.5894,942.8906 568.4019,942.7031 Q568.0738,942.3281 567.4644,942.1094 Q566.855,941.8906 566.23,941.8906 Q565.4644,941.8906 564.8238,942.2188 Q564.1988,942.5469 563.6988,943.2969 Q563.2144,944.0469 563.2144,945.0781 L563.2144,946.1719 Q563.2144,947.4063 564.105,948.2344 Q564.9956,949.0469 566.5894,949.0469 Q567.5269,949.0469 568.1831,948.7969 Q568.5738,948.6406 568.9956,948.2031 Q569.2613,947.9375 569.4019,947.8594 Q569.5581,947.7813 569.7613,947.7813 Q570.0894,947.7813 570.3394,948.0469 Q570.605,948.2969 570.605,948.6406 Q570.605,948.9844 570.2613,949.3906 Q569.7613,949.9688 568.9644,950.2969 Q567.8863,950.75 566.5894,950.75 Q565.0738,950.75 563.8706,950.125 Q562.8863,949.625 562.1988,948.5625 Q561.5113,947.4844 561.5113,946.2031 L561.5113,945.0469 Q561.5113,943.7188 562.1206,942.5781 Q562.7456,941.4219 563.8394,940.8125 Q564.9331,940.1875 566.1675,940.1875 Q566.9019,940.1875 567.5425,940.3594 Q568.1988,940.5156 568.7456,940.875 Z " fill="#000000"/><text fill="#000000" font-family="sans-serif" font-size="14" lengthAdjust="spacing" textLength="137" x="585.08" y="950.7285">SecretWordController</text><line style="stroke:#181818;stroke-width:0.5;" x1="529.03" x2="747.03" y1="961" y2="961"/><ellipse cx="539.03" cy="972" fill="none" rx="3" ry="3" style="stroke:#038048;stroke-width:1.0;"/><text fill="#000000" font-family="sans-serif" font-size="14" lengthAdjust="spacing" textLength="142" x="548.03" y="979.5332">Char GuesserWords []</text><ellipse cx="539.03" cy="989.6094" fill="none" rx="3" ry="3" style="stroke:#038048;stroke-width:1.0;"/><text fill="#000000" font-family="sans-serif" font-size="14" lengthAdjust="spacing" textLength="122" x="548.03" y="997.1426">Char SecretWord []</text><line style="stroke:#181818;stroke-width:0.5;" x1="529.03" x2="747.03" y1="1004.2188" y2="1004.2188"/><ellipse cx="539.03" cy="1015.2188" fill="#84BE84" rx="3" ry="3" style="stroke:#038048;stroke-width:1.0;"/><text fill="#000000" font-family="sans-serif" font-size="14" lengthAdjust="spacing" textLength="194" x="548.03" y="1022.752">boolean AddLetter(Char letter)</text><ellipse cx="539.03" cy="1032.8281" fill="#84BE84" rx="3" ry="3" style="stroke:#038048;stroke-width:1.0;"/><text fill="#000000" font-family="sans-serif" font-size="14" lengthAdjust="spacing" textLength="136" x="548.03" y="1040.3613">boolean isGuessed ()</text></g><!--MD5=[90addbfe36b401b457f8634d4649e10e]
class RoundHangManController--><g id="elem_RoundHangManController"><rect codeLine="122" fill="#F1F1F1" height="65.6094" id="RoundHangManController" rx="2.5" ry="2.5" style="stroke:#181818;stroke-width:0.5;" width="196" x="585.03" y="361"/><ellipse cx="600.03" cy="377" fill="#ADD1B2" rx="11" ry="11" style="stroke:#181818;stroke-width:1.0;"/><path d="M602.7956,372.875 Q602.9519,372.6563 603.1394,372.5469 Q603.3269,372.4375 603.5456,372.4375 Q603.9206,372.4375 604.155,372.7031 Q604.3894,372.9531 604.3894,373.5625 L604.3894,375.0156 Q604.3894,375.625 604.155,375.8906 Q603.9206,376.1563 603.5456,376.1563 Q603.2019,376.1563 602.9988,375.9531 Q602.7956,375.7656 602.6863,375.25 Q602.6394,374.8906 602.4519,374.7031 Q602.1238,374.3281 601.5144,374.1094 Q600.905,373.8906 600.28,373.8906 Q599.5144,373.8906 598.8738,374.2188 Q598.2488,374.5469 597.7488,375.2969 Q597.2644,376.0469 597.2644,377.0781 L597.2644,378.1719 Q597.2644,379.4063 598.155,380.2344 Q599.0456,381.0469 600.6394,381.0469 Q601.5769,381.0469 602.2331,380.7969 Q602.6238,380.6406 603.0456,380.2031 Q603.3113,379.9375 603.4519,379.8594 Q603.6081,379.7813 603.8113,379.7813 Q604.1394,379.7813 604.3894,380.0469 Q604.655,380.2969 604.655,380.6406 Q604.655,380.9844 604.3113,381.3906 Q603.8113,381.9688 603.0144,382.2969 Q601.9363,382.75 600.6394,382.75 Q599.1238,382.75 597.9206,382.125 Q596.9363,381.625 596.2488,380.5625 Q595.5613,379.4844 595.5613,378.2031 L595.5613,377.0469 Q595.5613,375.7188 596.1706,374.5781 Q596.7956,373.4219 597.8894,372.8125 Q598.9831,372.1875 600.2175,372.1875 Q600.9519,372.1875 601.5925,372.3594 Q602.2488,372.5156 602.7956,372.875 Z " fill="#000000"/><text fill="#000000" font-family="sans-serif" font-size="14" lengthAdjust="spacing" textLength="164" x="614.03" y="382.7285">RoundHangManController</text><line style="stroke:#181818;stroke-width:0.5;" x1="586.03" x2="780.03" y1="393" y2="393"/><line style="stroke:#181818;stroke-width:0.5;" x1="586.03" x2="780.03" y1="401" y2="401"/><ellipse cx="596.03" cy="412" fill="#84BE84" rx="3" ry="3" style="stroke:#038048;stroke-width:1.0;"/><text fill="#000000" font-family="sans-serif" font-size="14" lengthAdjust="spacing" textLength="36" x="605.03" y="419.5332">play()</text></g><!--MD5=[4ca19e6be0155391382baa78ee6a684b]
class HangedManController--><g id="elem_HangedManController"><rect codeLine="125" fill="#F1F1F1" height="153.6563" id="HangedManController" rx="2.5" ry="2.5" style="stroke:#181818;stroke-width:0.5;" width="178" x="632.03" y="618.5"/><ellipse cx="650.63" cy="634.5" fill="#ADD1B2" rx="11" ry="11" style="stroke:#181818;stroke-width:1.0;"/><path d="M653.3956,630.375 Q653.5519,630.1563 653.7394,630.0469 Q653.9269,629.9375 654.1456,629.9375 Q654.5206,629.9375 654.755,630.2031 Q654.9894,630.4531 654.9894,631.0625 L654.9894,632.5156 Q654.9894,633.125 654.755,633.3906 Q654.5206,633.6563 654.1456,633.6563 Q653.8019,633.6563 653.5988,633.4531 Q653.3956,633.2656 653.2863,632.75 Q653.2394,632.3906 653.0519,632.2031 Q652.7238,631.8281 652.1144,631.6094 Q651.505,631.3906 650.88,631.3906 Q650.1144,631.3906 649.4738,631.7188 Q648.8488,632.0469 648.3488,632.7969 Q647.8644,633.5469 647.8644,634.5781 L647.8644,635.6719 Q647.8644,636.9063 648.755,637.7344 Q649.6456,638.5469 651.2394,638.5469 Q652.1769,638.5469 652.8331,638.2969 Q653.2238,638.1406 653.6456,637.7031 Q653.9113,637.4375 654.0519,637.3594 Q654.2081,637.2813 654.4113,637.2813 Q654.7394,637.2813 654.9894,637.5469 Q655.255,637.7969 655.255,638.1406 Q655.255,638.4844 654.9113,638.8906 Q654.4113,639.4688 653.6144,639.7969 Q652.5363,640.25 651.2394,640.25 Q649.7238,640.25 648.5206,639.625 Q647.5363,639.125 646.8488,638.0625 Q646.1613,636.9844 646.1613,635.7031 L646.1613,634.5469 Q646.1613,633.2188 646.7706,632.0781 Q647.3956,630.9219 648.4894,630.3125 Q649.5831,629.6875 650.8175,629.6875 Q651.5519,629.6875 652.1925,629.8594 Q652.8488,630.0156 653.3956,630.375 Z " fill="#000000"/><text fill="#000000" font-family="sans-serif" font-size="14" lengthAdjust="spacing" textLength="138" x="665.43" y="640.2285">HangedManController</text><line style="stroke:#181818;stroke-width:0.5;" x1="633.03" x2="809.03" y1="650.5" y2="650.5"/><rect fill="none" height="6" style="stroke:#C82930;stroke-width:1.0;" width="6" x="640.03" y="658.5"/><text fill="#000000" font-family="sans-serif" font-size="14" lengthAdjust="spacing" textLength="94" x="652.03" y="669.0332">FailedAttempts</text><rect fill="none" height="6" style="stroke:#C82930;stroke-width:1.0;" width="6" x="640.03" y="676.1094"/><text fill="#000000" font-family="sans-serif" font-size="14" lengthAdjust="spacing" textLength="152" x="652.03" y="686.6426">SecretWord secretWord</text><line style="stroke:#181818;stroke-width:0.5;" x1="633.03" x2="809.03" y1="693.7188" y2="693.7188"/><ellipse cx="643.03" cy="704.7188" fill="#84BE84" rx="3" ry="3" style="stroke:#038048;stroke-width:1.0;"/><text fill="#000000" font-family="sans-serif" font-size="14" lengthAdjust="spacing" textLength="54" x="652.03" y="712.252">isDead()</text><ellipse cx="643.03" cy="722.3281" fill="#84BE84" rx="3" ry="3" style="stroke:#038048;stroke-width:1.0;"/><text fill="#000000" font-family="sans-serif" font-size="14" lengthAdjust="spacing" textLength="60" x="652.03" y="729.8613">isSaved()</text><rect fill="#F24D5C" height="6" style="stroke:#C82930;stroke-width:1.0;" width="6" x="640.03" y="736.9375"/><text fill="#000000" font-family="sans-serif" font-size="14" lengthAdjust="spacing" textLength="60" x="652.03" y="747.4707">addPart()</text><ellipse cx="643.03" cy="757.5469" fill="#84BE84" rx="3" ry="3" style="stroke:#038048;stroke-width:1.0;"/><text fill="#000000" font-family="sans-serif" font-size="14" lengthAdjust="spacing" textLength="63" x="652.03" y="765.0801">tryLetter()</text></g><!--MD5=[4fcb596d3bf48611d01498558103c6f0]
class HangManPlayer--><g id="elem_HangManPlayer"><rect codeLine="133" fill="#F1F1F1" height="83.2188" id="HangManPlayer" rx="2.5" ry="2.5" style="stroke:#181818;stroke-width:0.5;" width="134" x="463.03" y="654"/><ellipse cx="478.03" cy="670" fill="#B4A7E5" rx="11" ry="11" style="stroke:#181818;stroke-width:1.0;"/><path d="M478.9831,666.6406 L478.9831,673.2969 L480.7019,673.2969 Q481.3113,673.2969 481.5769,673.5313 Q481.8425,673.7656 481.8425,674.1563 Q481.8425,674.5313 481.5769,674.7656 Q481.3113,675 480.7019,675 L475.5613,675 Q474.9519,675 474.6863,674.7656 Q474.4206,674.5313 474.4206,674.1406 Q474.4206,673.7656 474.6863,673.5313 Q474.9519,673.2969 475.5613,673.2969 L477.28,673.2969 L477.28,666.6406 L475.5613,666.6406 Q474.9519,666.6406 474.6863,666.4063 Q474.4206,666.1719 474.4206,665.7813 Q474.4206,665.4063 474.6863,665.1719 Q474.9519,664.9375 475.5613,664.9375 L480.7019,664.9375 Q481.3113,664.9375 481.5769,665.1719 Q481.8425,665.4063 481.8425,665.7813 Q481.8425,666.1719 481.5769,666.4063 Q481.3113,666.6406 480.7019,666.6406 L478.9831,666.6406 Z " fill="#000000"/><text fill="#000000" font-family="sans-serif" font-size="14" font-style="italic" lengthAdjust="spacing" textLength="102" x="492.03" y="675.7285">HangManPlayer</text><line style="stroke:#181818;stroke-width:0.5;" x1="464.03" x2="596.03" y1="686" y2="686"/><line style="stroke:#181818;stroke-width:0.5;" x1="464.03" x2="596.03" y1="694" y2="694"/><ellipse cx="474.03" cy="705" fill="#84BE84" rx="3" ry="3" style="stroke:#038048;stroke-width:1.0;"/><text fill="#000000" font-family="sans-serif" font-size="14" lengthAdjust="spacing" textLength="93" x="483.03" y="712.5332">ChooseWord()</text><ellipse cx="474.03" cy="722.6094" fill="#84BE84" rx="3" ry="3" style="stroke:#038048;stroke-width:1.0;"/><text fill="#000000" font-family="sans-serif" font-size="14" lengthAdjust="spacing" textLength="76" x="483.03" y="730.1426">GiveLetter()</text></g><!--MD5=[d7731e51439e3250c63a8cdcafb59da5]
class HangMan--><g id="elem_HangMan"><rect codeLine="155" fill="#F1F1F1" height="83.2188" id="HangMan" rx="2.5" ry="2.5" style="stroke:#181818;stroke-width:0.5;" width="110" x="1090.03" y="1204"/><ellipse cx="1113.13" cy="1220" fill="#ADD1B2" rx="11" ry="11" style="stroke:#181818;stroke-width:1.0;"/><path d="M1115.8956,1215.875 Q1116.0519,1215.6563 1116.2394,1215.5469 Q1116.4269,1215.4375 1116.6456,1215.4375 Q1117.0206,1215.4375 1117.255,1215.7031 Q1117.4894,1215.9531 1117.4894,1216.5625 L1117.4894,1218.0156 Q1117.4894,1218.625 1117.255,1218.8906 Q1117.0206,1219.1563 1116.6456,1219.1563 Q1116.3019,1219.1563 1116.0987,1218.9531 Q1115.8956,1218.7656 1115.7862,1218.25 Q1115.7394,1217.8906 1115.5519,1217.7031 Q1115.2237,1217.3281 1114.6144,1217.1094 Q1114.005,1216.8906 1113.38,1216.8906 Q1112.6144,1216.8906 1111.9737,1217.2188 Q1111.3487,1217.5469 1110.8487,1218.2969 Q1110.3644,1219.0469 1110.3644,1220.0781 L1110.3644,1221.1719 Q1110.3644,1222.4063 1111.255,1223.2344 Q1112.1456,1224.0469 1113.7394,1224.0469 Q1114.6769,1224.0469 1115.3331,1223.7969 Q1115.7237,1223.6406 1116.1456,1223.2031 Q1116.4112,1222.9375 1116.5519,1222.8594 Q1116.7081,1222.7813 1116.9112,1222.7813 Q1117.2394,1222.7813 1117.4894,1223.0469 Q1117.755,1223.2969 1117.755,1223.6406 Q1117.755,1223.9844 1117.4112,1224.3906 Q1116.9112,1224.9688 1116.1144,1225.2969 Q1115.0362,1225.75 1113.7394,1225.75 Q1112.2237,1225.75 1111.0206,1225.125 Q1110.0362,1224.625 1109.3487,1223.5625 Q1108.6612,1222.4844 1108.6612,1221.2031 L1108.6612,1220.0469 Q1108.6612,1218.7188 1109.2706,1217.5781 Q1109.8956,1216.4219 1110.9894,1215.8125 Q1112.0831,1215.1875 1113.3175,1215.1875 Q1114.0519,1215.1875 1114.6925,1215.3594 Q1115.3487,1215.5156 1115.8956,1215.875 Z " fill="#000000"/><text fill="#000000" font-family="sans-serif" font-size="14" lengthAdjust="spacing" textLength="60" x="1128.93" y="1225.7285">HangMan</text><line style="stroke:#181818;stroke-width:0.5;" x1="1091.03" x2="1199.03" y1="1236" y2="1236"/><line style="stroke:#181818;stroke-width:0.5;" x1="1091.03" x2="1199.03" y1="1244" y2="1244"/><ellipse cx="1101.03" cy="1255" fill="#84BE84" rx="3" ry="3" style="stroke:#038048;stroke-width:1.0;"/><text fill="#000000" font-family="sans-serif" font-size="14" lengthAdjust="spacing" textLength="84" x="1110.03" y="1262.5332">Introduction()</text><ellipse cx="1101.03" cy="1272.6094" fill="#84BE84" rx="3" ry="3" style="stroke:#038048;stroke-width:1.0;"/><text fill="#000000" font-family="sans-serif" font-size="14" lengthAdjust="spacing" textLength="62" x="1110.03" y="1280.1426">Resume()</text></g><!--MD5=[82a37a108f28ded8fb022e1a5df25ae5]
class ListOfPlayers--><g id="elem_ListOfPlayers"><rect codeLine="160" fill="#F1F1F1" height="100.8281" id="ListOfPlayers" rx="2.5" ry="2.5" style="stroke:#181818;stroke-width:0.5;" width="200" x="676.03" y="1195"/><ellipse cx="729.78" cy="1211" fill="#ADD1B2" rx="11" ry="11" style="stroke:#181818;stroke-width:1.0;"/><path d="M732.5456,1206.875 Q732.7019,1206.6563 732.8894,1206.5469 Q733.0769,1206.4375 733.2956,1206.4375 Q733.6706,1206.4375 733.905,1206.7031 Q734.1394,1206.9531 734.1394,1207.5625 L734.1394,1209.0156 Q734.1394,1209.625 733.905,1209.8906 Q733.6706,1210.1563 733.2956,1210.1563 Q732.9519,1210.1563 732.7488,1209.9531 Q732.5456,1209.7656 732.4363,1209.25 Q732.3894,1208.8906 732.2019,1208.7031 Q731.8738,1208.3281 731.2644,1208.1094 Q730.655,1207.8906 730.03,1207.8906 Q729.2644,1207.8906 728.6238,1208.2188 Q727.9988,1208.5469 727.4988,1209.2969 Q727.0144,1210.0469 727.0144,1211.0781 L727.0144,1212.1719 Q727.0144,1213.4063 727.905,1214.2344 Q728.7956,1215.0469 730.3894,1215.0469 Q731.3269,1215.0469 731.9831,1214.7969 Q732.3738,1214.6406 732.7956,1214.2031 Q733.0613,1213.9375 733.2019,1213.8594 Q733.3581,1213.7813 733.5613,1213.7813 Q733.8894,1213.7813 734.1394,1214.0469 Q734.405,1214.2969 734.405,1214.6406 Q734.405,1214.9844 734.0613,1215.3906 Q733.5613,1215.9688 732.7644,1216.2969 Q731.6863,1216.75 730.3894,1216.75 Q728.8738,1216.75 727.6706,1216.125 Q726.6863,1215.625 725.9988,1214.5625 Q725.3113,1213.4844 725.3113,1212.2031 L725.3113,1211.0469 Q725.3113,1209.7188 725.9206,1208.5781 Q726.5456,1207.4219 727.6394,1206.8125 Q728.7331,1206.1875 729.9675,1206.1875 Q730.7019,1206.1875 731.3425,1206.3594 Q731.9988,1206.5156 732.5456,1206.875 Z " fill="#000000"/><text fill="#000000" font-family="sans-serif" font-size="14" lengthAdjust="spacing" textLength="84" x="750.28" y="1216.7285">ListOfPlayers</text><line style="stroke:#181818;stroke-width:0.5;" x1="677.03" x2="875.03" y1="1227" y2="1227"/><line style="stroke:#181818;stroke-width:0.5;" x1="677.03" x2="875.03" y1="1235" y2="1235"/><ellipse cx="687.03" cy="1246" fill="#84BE84" rx="3" ry="3" style="stroke:#038048;stroke-width:1.0;"/><text fill="#000000" font-family="sans-serif" font-size="14" lengthAdjust="spacing" textLength="52" x="696.03" y="1253.5332">getList()</text><ellipse cx="687.03" cy="1263.6094" fill="#84BE84" rx="3" ry="3" style="stroke:#038048;stroke-width:1.0;"/><text fill="#000000" font-family="sans-serif" font-size="14" lengthAdjust="spacing" textLength="60" x="696.03" y="1271.1426">printList()</text><ellipse cx="687.03" cy="1281.2188" fill="#84BE84" rx="3" ry="3" style="stroke:#038048;stroke-width:1.0;"/><text fill="#000000" font-family="sans-serif" font-size="14" lengthAdjust="spacing" textLength="174" x="696.03" y="1288.752">createPlayer(Player Player)</text></g><!--MD5=[1e8c54f5ac0ec684c0f71587f512d7a6]
class SecretWord--><g id="elem_SecretWord"><rect codeLine="166" fill="#F1F1F1" height="65.6094" id="SecretWord" rx="2.5" ry="2.5" style="stroke:#181818;stroke-width:0.5;" width="107" x="533.53" y="1212.5"/><ellipse cx="548.53" cy="1228.5" fill="#ADD1B2" rx="11" ry="11" style="stroke:#181818;stroke-width:1.0;"/><path d="M551.2956,1224.375 Q551.4519,1224.1563 551.6394,1224.0469 Q551.8269,1223.9375 552.0456,1223.9375 Q552.4206,1223.9375 552.655,1224.2031 Q552.8894,1224.4531 552.8894,1225.0625 L552.8894,1226.5156 Q552.8894,1227.125 552.655,1227.3906 Q552.4206,1227.6563 552.0456,1227.6563 Q551.7019,1227.6563 551.4988,1227.4531 Q551.2956,1227.2656 551.1863,1226.75 Q551.1394,1226.3906 550.9519,1226.2031 Q550.6238,1225.8281 550.0144,1225.6094 Q549.405,1225.3906 548.78,1225.3906 Q548.0144,1225.3906 547.3738,1225.7188 Q546.7488,1226.0469 546.2488,1226.7969 Q545.7644,1227.5469 545.7644,1228.5781 L545.7644,1229.6719 Q545.7644,1230.9063 546.655,1231.7344 Q547.5456,1232.5469 549.1394,1232.5469 Q550.0769,1232.5469 550.7331,1232.2969 Q551.1238,1232.1406 551.5456,1231.7031 Q551.8113,1231.4375 551.9519,1231.3594 Q552.1081,1231.2813 552.3113,1231.2813 Q552.6394,1231.2813 552.8894,1231.5469 Q553.155,1231.7969 553.155,1232.1406 Q553.155,1232.4844 552.8113,1232.8906 Q552.3113,1233.4688 551.5144,1233.7969 Q550.4363,1234.25 549.1394,1234.25 Q547.6238,1234.25 546.4206,1233.625 Q545.4363,1233.125 544.7488,1232.0625 Q544.0613,1230.9844 544.0613,1229.7031 L544.0613,1228.5469 Q544.0613,1227.2188 544.6706,1226.0781 Q545.2956,1224.9219 546.3894,1224.3125 Q547.4831,1223.6875 548.7175,1223.6875 Q549.4519,1223.6875 550.0925,1223.8594 Q550.7488,1224.0156 551.2956,1224.375 Z " fill="#000000"/><text fill="#000000" font-family="sans-serif" font-size="14" lengthAdjust="spacing" textLength="75" x="562.53" y="1234.2285">SecretWord</text><line style="stroke:#181818;stroke-width:0.5;" x1="534.53" x2="639.53" y1="1244.5" y2="1244.5"/><line style="stroke:#181818;stroke-width:0.5;" x1="534.53" x2="639.53" y1="1252.5" y2="1252.5"/><ellipse cx="544.53" cy="1263.5" fill="#84BE84" rx="3" ry="3" style="stroke:#038048;stroke-width:1.0;"/><text fill="#000000" font-family="sans-serif" font-size="14" lengthAdjust="spacing" textLength="72" x="553.53" y="1271.0332">printWord()</text></g><!--MD5=[2aa92d2e607ce5e0eb2e8fd93adcb836]
class HangedMan--><g id="elem_HangedMan"><rect codeLine="170" fill="#F1F1F1" height="65.6094" id="HangedMan" rx="2.5" ry="2.5" style="stroke:#181818;stroke-width:0.5;" width="144" x="911.03" y="1212.5"/><ellipse cx="942.23" cy="1228.5" fill="#ADD1B2" rx="11" ry="11" style="stroke:#181818;stroke-width:1.0;"/><path d="M944.9956,1224.375 Q945.1519,1224.1563 945.3394,1224.0469 Q945.5269,1223.9375 945.7456,1223.9375 Q946.1206,1223.9375 946.355,1224.2031 Q946.5894,1224.4531 946.5894,1225.0625 L946.5894,1226.5156 Q946.5894,1227.125 946.355,1227.3906 Q946.1206,1227.6563 945.7456,1227.6563 Q945.4019,1227.6563 945.1988,1227.4531 Q944.9956,1227.2656 944.8863,1226.75 Q944.8394,1226.3906 944.6519,1226.2031 Q944.3238,1225.8281 943.7144,1225.6094 Q943.105,1225.3906 942.48,1225.3906 Q941.7144,1225.3906 941.0738,1225.7188 Q940.4488,1226.0469 939.9488,1226.7969 Q939.4644,1227.5469 939.4644,1228.5781 L939.4644,1229.6719 Q939.4644,1230.9063 940.355,1231.7344 Q941.2456,1232.5469 942.8394,1232.5469 Q943.7769,1232.5469 944.4331,1232.2969 Q944.8238,1232.1406 945.2456,1231.7031 Q945.5113,1231.4375 945.6519,1231.3594 Q945.8081,1231.2813 946.0113,1231.2813 Q946.3394,1231.2813 946.5894,1231.5469 Q946.855,1231.7969 946.855,1232.1406 Q946.855,1232.4844 946.5113,1232.8906 Q946.0113,1233.4688 945.2144,1233.7969 Q944.1363,1234.25 942.8394,1234.25 Q941.3238,1234.25 940.1206,1233.625 Q939.1363,1233.125 938.4488,1232.0625 Q937.7613,1230.9844 937.7613,1229.7031 L937.7613,1228.5469 Q937.7613,1227.2188 938.3706,1226.0781 Q938.9956,1224.9219 940.0894,1224.3125 Q941.1831,1223.6875 942.4175,1223.6875 Q943.1519,1223.6875 943.7925,1223.8594 Q944.4488,1224.0156 944.9956,1224.375 Z " fill="#000000"/><text fill="#000000" font-family="sans-serif" font-size="14" lengthAdjust="spacing" textLength="76" x="959.83" y="1234.2285">HangedMan</text><line style="stroke:#181818;stroke-width:0.5;" x1="912.03" x2="1054.03" y1="1244.5" y2="1244.5"/><line style="stroke:#181818;stroke-width:0.5;" x1="912.03" x2="1054.03" y1="1252.5" y2="1252.5"/><ellipse cx="922.03" cy="1263.5" fill="#84BE84" rx="3" ry="3" style="stroke:#038048;stroke-width:1.0;"/><text fill="#000000" font-family="sans-serif" font-size="14" lengthAdjust="spacing" textLength="118" x="931.03" y="1271.0332">PaintHangedMan()</text></g><!--MD5=[f67dd3c3e51d4023034ce19e0947172b]
reverse link Square to Piece--><g id="link_Square_Piece"><path codeLine="85" d="M1850.03,519.36 C1850.03,546.59 1850.03,574.97 1850.03,600.77 " fill="none" id="Square-backto-Piece" style="stroke:#181818;stroke-width:1.0;"/><polygon fill="none" points="1850.03,506.1,1846.03,512.1,1850.03,518.1,1854.03,512.1,1850.03,506.1" style="stroke:#181818;stroke-width:1.0;"/></g><!--MD5=[55d64a43c9fbbd0c57ec275f67dff253]
reverse link Round to Player--><g id="link_Round_Player"><path codeLine="87" d="M1374.79,838.28 C1374.73,853.9 1375.07,869.57 1375.82,884.57 " fill="none" id="Round-backto-Player" style="stroke:#181818;stroke-width:1.0;"/><polygon fill="#181818" points="1374.93,825.19,1370.8578,831.1412,1374.785,837.1891,1378.8572,831.2379,1374.93,825.19" style="stroke:#181818;stroke-width:1.0;"/><text fill="#000000" font-family="sans-serif" font-size="13" lengthAdjust="spacing" textLength="48" x="1324.3599" y="874.2255">Player 1</text></g><!--MD5=[55d64a43c9fbbd0c57ec275f67dff253]
reverse link Round to Player--><g id="link_Round_Player"><path codeLine="88" d="M1401.03,838.28 C1401.03,853.9 1401.03,869.57 1401.03,884.57 " fill="none" id="Round-backto-Player-1" style="stroke:#181818;stroke-width:1.0;"/><polygon fill="#181818" points="1401.03,825.19,1397.03,831.19,1401.03,837.19,1405.03,831.19,1401.03,825.19" style="stroke:#181818;stroke-width:1.0;"/><text fill="#000000" font-family="sans-serif" font-size="13" lengthAdjust="spacing" textLength="48" x="1402.7175" y="874.2255">Player 2</text></g><!--MD5=[55d64a43c9fbbd0c57ec275f67dff253]
reverse link Round to Player--><g id="link_Round_Player"><path codeLine="89" d="M1427.27,838.28 C1427.33,853.9 1426.99,869.57 1426.24,884.57 " fill="none" id="Round-backto-Player-2" style="stroke:#181818;stroke-width:1.0;"/><polygon fill="#181818" points="1427.13,825.19,1423.2028,831.2379,1427.275,837.1891,1431.2022,831.1412,1427.13,825.19" style="stroke:#181818;stroke-width:1.0;"/><text fill="#000000" font-family="sans-serif" font-size="13" lengthAdjust="spacing" textLength="41" x="1429.454" y="874.2255">Winner</text></g><!--MD5=[f7ff9e901bf9f1bebf511a8077eb4f52]
reverse link Square to Round--><g id="link_Square_Round"><path codeLine="91" d="M1734.13,500.73 C1731.76,502.52 1729.39,504.28 1727.03,506 C1660.56,554.38 1580.73,600.72 1516.71,635.34 " fill="none" id="Square-backto-Round" style="stroke:#181818;stroke-width:1.0;"/><polygon fill="#181818" points="1744.52,492.69,1737.3268,493.1975,1735.0286,500.0326,1742.2219,499.5251,1744.52,492.69" style="stroke:#181818;stroke-width:1.0;"/></g><!--MD5=[cb02c96b642da5c7c708bc3e89afb5b1]
reverse link Player to TypePlayer--><g id="link_Player_TypePlayer"><path codeLine="94" d="M1408.24,1104.14 C1409.22,1119.77 1410.21,1135.66 1411.16,1150.86 " fill="none" id="Player-backto-TypePlayer" style="stroke:#181818;stroke-width:1.0;"/><polygon fill="#181818" points="1407.42,1091.08,1403.8033,1097.3186,1408.171,1103.0565,1411.7877,1096.8179,1407.42,1091.08" style="stroke:#181818;stroke-width:1.0;"/></g><!--MD5=[a6e9f244e90846485a04bb26007abd3c]
reverse link Letter to Round--><g id="link_Letter_Round"><path codeLine="95" d="M1376.42,519 C1378.59,534.48 1380.81,550.34 1382.99,565.89 " fill="none" id="Letter-backto-Round" style="stroke:#181818;stroke-width:1.0;"/><polygon fill="#181818" points="1374.61,506.1,1371.4795,512.5962,1376.272,517.9844,1379.4024,511.4882,1374.61,506.1" style="stroke:#181818;stroke-width:1.0;"/></g><!--MD5=[e5f01086500c82650ddae89aee8c731c]
link TypeGame to Round--><g id="link_TypeGame_Round"><path codeLine="97" d="M1539.95,488.53 C1525.77,509.55 1510.43,532.3 1495.29,554.74 " fill="none" id="TypeGame-to-Round" style="stroke:#181818;stroke-width:1.0;"/><polygon fill="#181818" points="1487.88,565.73,1494.5524,562.9951,1494.5941,555.7841,1487.9218,558.519,1487.88,565.73" style="stroke:#181818;stroke-width:1.0;"/></g><!--MD5=[1d5a8a95d712be041c57bdd90387f6ab]
reverse link HangManController to RoundHangManController--><g id="link_HangManController_RoundHangManController"><path codeLine="176" d="M665.63,227.35 C670.3,271.87 676.07,326.74 679.65,360.81 " fill="none" id="HangManController-backto-RoundHangManController" style="stroke:#181818;stroke-width:1.0;stroke-dasharray:7.0,7.0;"/><polygon fill="#181818" points="665.09,222.25,662.0346,231.6129,665.603,227.2236,669.9924,230.7921,665.09,222.25" style="stroke:#181818;stroke-width:1.0;"/></g><!--MD5=[d29963aa2bbd1a753d9141b118c58f4d]
link HangManController to GamePlayersProvider--><g id="link_HangManController_GamePlayersProvider"><path codeLine="177" d="M803.08,222.25 C811.03,227.29 818.73,232.54 826.03,238 C872.09,272.46 915.48,323 942.12,356.91 " fill="none" id="HangManController-to-GamePlayersProvider" style="stroke:#181818;stroke-width:1.0;"/><polygon fill="#181818" points="945.29,360.96,942.8932,351.4072,942.2085,357.0225,936.5932,356.3377,945.29,360.96" style="stroke:#181818;stroke-width:1.0;"/></g><!--MD5=[1dc66156a85eee382d6c9e40c113dc4e]
link HangManController to Dice--><g id="link_HangManController_Dice"><path codeLine="178" d="M506.31,166.02 C403.87,176.99 281.59,198.17 249.03,238 C6,535.3 202.83,1063.37 263.63,1207.36 " fill="none" id="HangManController-to-Dice" style="stroke:#181818;stroke-width:1.0;stroke-dasharray:7.0,7.0;"/><polygon fill="#181818" points="265.73,1212.32,265.8872,1202.4724,263.7725,1207.7191,258.5258,1205.6044,265.73,1212.32" style="stroke:#181818;stroke-width:1.0;"/></g><!--MD5=[345f01db691249af74890918efb15938]
reverse link HangManController to GamePlayer--><g id="link_HangManController_GamePlayer"><path codeLine="179" d="M571.9,232.49 C570.56,234.31 569.27,236.15 568.03,238 C405.3,480.53 360.64,845.5 350.59,954.9 " fill="none" id="HangManController-backto-GamePlayer" style="stroke:#181818;stroke-width:1.0;"/><polygon fill="#181818" points="579.96,222.22,573.1074,224.4654,572.5444,231.6544,579.397,229.4091,579.96,222.22" style="stroke:#181818;stroke-width:1.0;"/></g><!--MD5=[d2f60c033a7c8c815fbe2778509eb444]
reverse link RoundHangManController to HangedManController--><g id="link_RoundHangManController_HangedManController"><path codeLine="181" d="M687.75,432.25 C693.63,478.53 703.79,558.66 711.35,618.2 " fill="none" id="RoundHangManController-backto-HangedManController" style="stroke:#181818;stroke-width:1.0;stroke-dasharray:7.0,7.0;"/><polygon fill="#181818" points="687.1,427.05,684.2639,436.4817,687.729,432.0103,692.2004,435.4753,687.1,427.05" style="stroke:#181818;stroke-width:1.0;"/></g><!--MD5=[554f611e5fccaee6068f498c41d84a69]
reverse link RoundHangManController to HangManPlayer--><g id="link_RoundHangManController_HangManPlayer"><path codeLine="182" d="M660.71,438.68 C631.22,496.42 579.65,597.37 550.9,653.65 " fill="none" id="RoundHangManController-backto-HangManPlayer" style="stroke:#181818;stroke-width:1.0;"/><polygon fill="#181818" points="666.66,427.05,660.3676,430.5722,661.1987,437.7352,667.4911,434.2131,666.66,427.05" style="stroke:#181818;stroke-width:1.0;"/></g><!--MD5=[3c81a6a309d41872bd0676d36a7b0f77]
reverse link HangedManController to SecretWordController--><g id="link_HangedManController_SecretWordController"><path codeLine="184" d="M697.82,777.72 C684.12,825.69 667.09,885.3 654.71,928.62 " fill="none" id="HangedManController-backto-SecretWordController" style="stroke:#181818;stroke-width:1.0;stroke-dasharray:7.0,7.0;"/><polygon fill="#181818" points="699.22,772.83,692.9014,780.3848,697.8464,777.6376,700.5936,782.5826,699.22,772.83" style="stroke:#181818;stroke-width:1.0;"/></g><!--MD5=[7f4474802cba16440394b77ee229b017]
reverse link HangedManController to HangManPlayer--><g id="link_HangedManController_HangManPlayer"><path codeLine="186" d="M626.84,695.5 C616.95,695.5 607.06,695.5 597.18,695.5 " fill="none" id="HangedManController-backto-HangManPlayer" style="stroke:#181818;stroke-width:1.0;"/><polygon fill="#181818" points="632.01,695.5,623.01,691.5,627.01,695.5,623.01,699.5,632.01,695.5" style="stroke:#181818;stroke-width:1.0;"/></g><!--MD5=[f5e12c2aac55c7819c2c58c59f3ffef3]
reverse link HangManPlayer to GamePlayer--><g id="link_HangManPlayer_GamePlayer"><path codeLine="187" d="M499.35,754.81 C487.25,777.05 472.93,802.46 459.03,825 C430.57,871.14 394.64,922.46 371.5,954.72 " fill="none" id="HangManPlayer-backto-GamePlayer" style="stroke:#181818;stroke-width:1.0;"/><polygon fill="none" points="493.29,751.3,508.93,737.01,505.61,757.93,493.29,751.3" style="stroke:#181818;stroke-width:1.0;"/></g><!--MD5=[3f9b6b6fea239b627fda622f3f7029b6]
reverse link GamePlayersProvider to ListOfPlayersController--><g id="link_GamePlayersProvider_ListOfPlayersController"><path codeLine="189" d="M969.03,447.18 C969.03,509.17 969.03,610.65 969.03,662.23 " fill="none" id="GamePlayersProvider-backto-ListOfPlayersController" style="stroke:#181818;stroke-width:1.0;stroke-dasharray:7.0,7.0;"/><polygon fill="none" points="962.03,447.05,969.03,427.05,976.03,447.05,962.03,447.05" style="stroke:#181818;stroke-width:1.0;"/></g><!--MD5=[28cd73cf825d5138d04f5bfbd597bbcf]
link GamePlayer to Dice--><g id="link_GamePlayer_Dice"><path codeLine="190" d="M339.49,1021.1 C326.86,1068.53 303.29,1157.1 289.93,1207.3 " fill="none" id="GamePlayer-to-Dice" style="stroke:#181818;stroke-width:1.0;stroke-dasharray:7.0,7.0;"/><polygon fill="#181818" points="288.59,1212.33,294.7711,1204.6623,289.8765,1207.4984,287.0404,1202.6038,288.59,1212.33" style="stroke:#181818;stroke-width:1.0;"/></g><!--MD5=[8b6e57fbb7cda1737f2cde0ee74afed7]
reverse link HangManController to HangMan--><g id="link_HangManController_HangMan"><path codeLine="193" d="M814.67,163.13 C930.19,172.73 1073.66,193.48 1112.03,238 C1238.73,385 1170.5,1033.95 1150.14,1203.73 " fill="none" id="HangManController-backto-HangMan" style="stroke:#181818;stroke-width:1.0;stroke-dasharray:7.0,7.0;"/><polygon fill="#181818" points="809.53,162.71,818.1679,167.4415,814.5128,163.124,818.8303,159.469,809.53,162.71" style="stroke:#181818;stroke-width:1.0;"/></g><!--MD5=[87118027222b79cec2101c79c902c8cb]
link ListOfPlayersController to Player--><g id="link_ListOfPlayersController_Player"><path codeLine="194" d="M1016.91,728.7 C1081.35,772.03 1198.04,850.5 1285.96,909.62 " fill="none" id="ListOfPlayersController-to-Player" style="stroke:#181818;stroke-width:1.0;stroke-dasharray:7.0,7.0;"/><polygon fill="#181818" points="1290.12,912.42,1284.9032,904.0663,1285.9774,909.6202,1280.4235,910.6944,1290.12,912.42" style="stroke:#181818;stroke-width:1.0;"/></g><!--MD5=[9d04c33ff40afaa7c20073565e227ebc]
reverse link ListOfPlayersController to ListOfPlayers--><g id="link_ListOfPlayersController_ListOfPlayers"><path codeLine="195" d="M956.02,733.45 C922.25,829.33 831.79,1086.18 793.52,1194.85 " fill="none" id="ListOfPlayersController-backto-ListOfPlayers" style="stroke:#181818;stroke-width:1.0;stroke-dasharray:7.0,7.0;"/><polygon fill="#181818" points="957.68,728.73,950.9285,735.9006,956.0263,733.4486,958.4783,738.5464,957.68,728.73" style="stroke:#181818;stroke-width:1.0;"/></g><!--MD5=[fd160608eaa761e6fe33f474f0e8cbb9]
reverse link SecretWordController to SecretWord--><g id="link_SecretWordController_SecretWord"><path codeLine="196" d="M625.36,1052.46 C615.24,1103.18 601.46,1172.19 593.48,1212.18 " fill="none" id="SecretWordController-backto-SecretWord" style="stroke:#181818;stroke-width:1.0;stroke-dasharray:7.0,7.0;"/><polygon fill="#181818" points="626.39,1047.3,620.7162,1055.3503,625.4177,1052.2045,628.5634,1056.906,626.39,1047.3" style="stroke:#181818;stroke-width:1.0;"/></g><!--MD5=[b54f9522d785fc6c931ce44a32e893be]
reverse link HangedManController to HangedMan--><g id="link_HangedManController_HangedMan"><path codeLine="197" d="M759.7,777.38 C818.42,900.19 927.47,1128.3 967.65,1212.34 " fill="none" id="HangedManController-backto-HangedMan" style="stroke:#181818;stroke-width:1.0;stroke-dasharray:7.0,7.0;"/><polygon fill="#181818" points="757.46,772.7,757.7434,782.5448,759.6213,777.2087,764.9574,779.0867,757.46,772.7" style="stroke:#181818;stroke-width:1.0;"/></g><!--MD5=[02ab1b1e4b1d65c0a77ee5fec4b70766]
reverse link Letter to HangedMan--><g id="link_Letter_HangedMan"><path codeLine="198" d="M1293.42,510.74 C1284.27,528.95 1275.48,547.78 1268.03,566 C1175.31,792.91 1229.41,879.81 1112.03,1095 C1098.28,1120.21 1047.3,1176.43 1013.69,1212.29 " fill="none" id="Letter-backto-HangedMan" style="stroke:#181818;stroke-width:1.0;stroke-dasharray:7.0,7.0;"/><polygon fill="#181818" points="1295.75,506.12,1288.1235,512.3519,1293.4968,510.5835,1295.2651,515.9569,1295.75,506.12" style="stroke:#181818;stroke-width:1.0;"/></g><!--MD5=[d33d639303ce5c86d5f51a02eec3254e]
link RoundHangManController to Round--><g id="link_RoundHangManController_Round"><path codeLine="200" d="M703.7,427.08 C721.94,452.64 750.89,487.15 785.03,506 C914.38,577.43 970.87,522.34 1112.03,566 C1169.06,583.64 1229.77,609.47 1280.76,633.36 " fill="none" id="RoundHangManController-to-Round" style="stroke:#181818;stroke-width:1.0;stroke-dasharray:7.0,7.0;"/><polygon fill="#181818" points="1285.35,635.51,1278.9064,628.0615,1280.8249,633.3831,1275.5033,635.3016,1285.35,635.51" style="stroke:#181818;stroke-width:1.0;"/></g><!--MD5=[5bc8db8f3a2bf59e896500104b7567bc]
@startuml HangMan

package model {
    class Player{
        Players: List <Player>
        idPlayer : int
        name : String
        idTypePlayer : int
        insertPlayer (Player): Player
        selectPlayer (int): Player
        updatePlayer (int, Player): Player
        deletePlayer (Player): void
        selectPlayers (): List<Player>
    }
    class Round {
        rounds : List<Round>
        idRound : int
        idPlayer 1: Player
        idPlayer 2: Player
        idWinner : Player
        isFinished : boolean
        idGame : int
        insertRound (Round) : Round
        selectRound (Round) : Round
        selectRounds () : List<Round>
        updateRound (int, Round) : Round
        deleteRound (Round) : void
    }
    class TypePlayer {
        typesPlayers : List<TypePlayer>
        idTypePlayer : int
        name: String
        insertTypePlayer (TypePlayer) : TypePlayer
        selectTypePlayer (int) : TypePlayer
        selectTypesPlayers () : List<TypePlayer>
        updateTypePlayer (int, TypePlayer) : TypePlayer
        deleteTypePlayer (TypePlayer) : void
    }
    class Piece{
        Pieces: List<Piece>
        idPiece : int
        name : String
        insertPiece (Piece) : Piece
        selectPiece (int) : Piece
        updatePiece (int) : Piece
        deletePiece (Piece) : void
        selectPieces (): List<Piece>
    }

    class Square {
        Squares: List<Square>
        idRound : int
        column : int
        row : int
        idPiece : int
        insertSquare (Square) : Square
        selectSquare (int) : Square
        updateSquare (int) : Square
        deleteSquare (Square) : void
        selectSquares (): List<Square>
    }
    class Letter {
        Letters: List<Letter>
        idRound : int
        character : char
        position : int
        isShown : boolean
        insertLetter (Letter): letter
        selectPositionLetter(int) : letter
        selectLetter() : List<Letter>
        updateLetter(int, Letter): letter
        deleteLetter(Letter) : void
    }

    class TypeGame {
        Games: List <Game>
        idGame : int
        game : String
        insertGame (Game): game
        selectGame (int) : game
        selectGame () : List<Game>
        updateGame (int, Game): game
        deleteGame (Game) : void
    }

    Square o- - Piece

    Round *- - "Player 1" Player
    Round *- - "Player 2" Player
    Round *- - "Winner" Player

    Square *- - Round


    Player *- - TypePlayer
    Letter *- - Round

    TypeGame - -* Round
}

package util {
    class Dice{
        +generateValue (int bound)
    }
}

package controller {

    package hangman {
        class HangManController {
            # GamePlayer[] gamePlayers
            # GamePlayersProvider gamePlayersProvider
            + Execute()
            # AssignRoles (GamePlayer[] gamePlayers)
            # flipRoles (GamePlayer[] gamePlayers)
        }
        class SecretWordController {
            +Char GuesserWords []
            +Char SecretWord []
            +boolean AddLetter(Char letter)
            +boolean isGuessed ()
        }
        class RoundHangManController {
            +play()
        }
        class HangedManController {
            -FailedAttempts
            -SecretWord secretWord
            +isDead()
            +isSaved()
            -addPart()
            +tryLetter()
        }
        interface HangManPlayer {
            +ChooseWord()
            +GiveLetter()
        }
    }

    class ListOfPlayersController {
        +getGamePlayers(int size)

    }

    interface GamePlayersProvider {
        + getGamePlayers(int) : GamePlayer[]
    }

    interface GamePlayer {
        + processResult(Result)
    }
}

package view {

    class HangMan {
        + Introduction()
        + Resume()
    }

    class ListOfPlayers {
        +getList()
        +printList()
        +createPlayer(Player Player)
    }

    class SecretWord {
        +printWord()
    }

    class HangedMan {
        +PaintHangedMan()
    }
}

/'Relaciones internas del controlador'/
HangManController <.. RoundHangManController
HangManController - -> GamePlayersProvider
HangManController .right.> Dice
HangManController *- - GamePlayer

RoundHangManController <.. HangedManController
RoundHangManController *- - HangManPlayer

HangedManController <.. SecretWordController

HangManPlayer -left-> HangedManController
HangManPlayer <|- - GamePlayer

ListOfPlayersController .up.|> GamePlayersProvider
Dice <.up. GamePlayer

/'Relaciones MVC'/
HangManController <..HangMan
ListOfPlayersController ..> Player
ListOfPlayersController <.. ListOfPlayers
SecretWordController <.. SecretWord
HangedManController <.. HangedMan
HangedMan .up.> Letter

RoundHangManController ..> Round
@enduml

@startuml HangMan

package model {
    class Player{
        Players: List <Player>
        idPlayer : int
        name : String
        idTypePlayer : int
        insertPlayer (Player): Player
        selectPlayer (int): Player
        updatePlayer (int, Player): Player
        deletePlayer (Player): void
        selectPlayers (): List<Player>
    }
    class Round {
        rounds : List<Round>
        idRound : int
        idPlayer 1: Player
        idPlayer 2: Player
        idWinner : Player
        isFinished : boolean
        idGame : int
        insertRound (Round) : Round
        selectRound (Round) : Round
        selectRounds () : List<Round>
        updateRound (int, Round) : Round
        deleteRound (Round) : void
    }
    class TypePlayer {
        typesPlayers : List<TypePlayer>
        idTypePlayer : int
        name: String
        insertTypePlayer (TypePlayer) : TypePlayer
        selectTypePlayer (int) : TypePlayer
        selectTypesPlayers () : List<TypePlayer>
        updateTypePlayer (int, TypePlayer) : TypePlayer
        deleteTypePlayer (TypePlayer) : void
    }
    class Piece{
        Pieces: List<Piece>
        idPiece : int
        name : String
        insertPiece (Piece) : Piece
        selectPiece (int) : Piece
        updatePiece (int) : Piece
        deletePiece (Piece) : void
        selectPieces (): List<Piece>
    }

    class Square {
        Squares: List<Square>
        idRound : int
        column : int
        row : int
        idPiece : int
        insertSquare (Square) : Square
        selectSquare (int) : Square
        updateSquare (int) : Square
        deleteSquare (Square) : void
        selectSquares (): List<Square>
    }
    class Letter {
        Letters: List<Letter>
        idRound : int
        character : char
        position : int
        isShown : boolean
        insertLetter (Letter): letter
        selectPositionLetter(int) : letter
        selectLetter() : List<Letter>
        updateLetter(int, Letter): letter
        deleteLetter(Letter) : void
    }

    class TypeGame {
        Games: List <Game>
        idGame : int
        game : String
        insertGame (Game): game
        selectGame (int) : game
        selectGame () : List<Game>
        updateGame (int, Game): game
        deleteGame (Game) : void
    }

    Square o- - Piece

    Round *- - "Player 1" Player
    Round *- - "Player 2" Player
    Round *- - "Winner" Player

    Square *- - Round


    Player *- - TypePlayer
    Letter *- - Round

    TypeGame - -* Round
}

package util {
    class Dice{
        +generateValue (int bound)
    }
}

package controller {

    package hangman {
        class HangManController {
            # GamePlayer[] gamePlayers
            # GamePlayersProvider gamePlayersProvider
            + Execute()
            # AssignRoles (GamePlayer[] gamePlayers)
            # flipRoles (GamePlayer[] gamePlayers)
        }
        class SecretWordController {
            +Char GuesserWords []
            +Char SecretWord []
            +boolean AddLetter(Char letter)
            +boolean isGuessed ()
        }
        class RoundHangManController {
            +play()
        }
        class HangedManController {
            -FailedAttempts
            -SecretWord secretWord
            +isDead()
            +isSaved()
            -addPart()
            +tryLetter()
        }
        interface HangManPlayer {
            +ChooseWord()
            +GiveLetter()
        }
    }

    class ListOfPlayersController {
        +getGamePlayers(int size)

    }

    interface GamePlayersProvider {
        + getGamePlayers(int) : GamePlayer[]
    }

    interface GamePlayer {
        + processResult(Result)
    }
}

package view {

    class HangMan {
        + Introduction()
        + Resume()
    }

    class ListOfPlayers {
        +getList()
        +printList()
        +createPlayer(Player Player)
    }

    class SecretWord {
        +printWord()
    }

    class HangedMan {
        +PaintHangedMan()
    }
}

HangManController <.. RoundHangManController
HangManController - -> GamePlayersProvider
HangManController .right.> Dice
HangManController *- - GamePlayer

RoundHangManController <.. HangedManController
RoundHangManController *- - HangManPlayer

HangedManController <.. SecretWordController

HangManPlayer -left-> HangedManController
HangManPlayer <|- - GamePlayer

ListOfPlayersController .up.|> GamePlayersProvider
Dice <.up. GamePlayer

HangManController <..HangMan
ListOfPlayersController ..> Player
ListOfPlayersController <.. ListOfPlayers
SecretWordController <.. SecretWord
HangedManController <.. HangedMan
HangedMan .up.> Letter

RoundHangManController ..> Round
@enduml

PlantUML version 1.2022.5(Sat Apr 30 04:55:52 CST 2022)
(GPL source distribution)
Java Runtime: Java(TM) SE Runtime Environment
JVM: Java HotSpot(TM) 64-Bit Server VM
Default Encoding: Cp1252
Language: en
Country: US
--></g></svg>