<?xml version="1.0" encoding="UTF-8" standalone="no"?><svg xmlns="http://www.w3.org/2000/svg" xmlns:xlink="http://www.w3.org/1999/xlink" contentStyleType="text/css" height="1248px" preserveAspectRatio="none" style="width:2083px;height:1248px;background:#FFFFFF;" version="1.1" viewBox="0 0 2083 1248" width="2083px" zoomAndPan="magnify"><defs/><g><!--MD5=[5d4cd377749310b66bf14896f5cd8d9b]
cluster model--><g id="cluster_model"><path d="M1654.5,6 L1698.5,6 A3.75,3.75 0 0 1 1701,8.5 L1708,29.6094 L2073.5,29.6094 A2.5,2.5 0 0 1 2076,32.1094 L2076,700.5 A2.5,2.5 0 0 1 2073.5,703 L1654.5,703 A2.5,2.5 0 0 1 1652,700.5 L1652,8.5 A2.5,2.5 0 0 1 1654.5,6 " style="stroke:#000000;stroke-width:1.5;fill:none;"/><line style="stroke:#000000;stroke-width:1.5;fill:none;" x1="1652" x2="1708" y1="29.6094" y2="29.6094"/><text fill="#000000" font-family="sans-serif" font-size="14" font-weight="bold" lengthAdjust="spacing" textLength="43" x="1656" y="22.5332">model</text></g><!--MD5=[3e81cc6ee7da4fa8b6adc12b329096f6]
cluster util--><g id="cluster_util"><path d="M1654.5,1084 L1677.5,1084 A3.75,3.75 0 0 1 1680,1086.5 L1687,1107.6094 L1873.5,1107.6094 A2.5,2.5 0 0 1 1876,1110.1094 L1876,1199.5 A2.5,2.5 0 0 1 1873.5,1202 L1654.5,1202 A2.5,2.5 0 0 1 1652,1199.5 L1652,1086.5 A2.5,2.5 0 0 1 1654.5,1084 " style="stroke:#000000;stroke-width:1.5;fill:none;"/><line style="stroke:#000000;stroke-width:1.5;fill:none;" x1="1652" x2="1687" y1="1107.6094" y2="1107.6094"/><text fill="#000000" font-family="sans-serif" font-size="14" font-weight="bold" lengthAdjust="spacing" textLength="22" x="1656" y="1100.5332">util</text></g><!--MD5=[10ea673caf457862023e152271927b45]
cluster controller--><g id="cluster_controller"><path d="M868.5,398 L938.5,398 A3.75,3.75 0 0 1 941,400.5 L948,421.6094 L1625.5,421.6094 A2.5,2.5 0 0 1 1628,424.1094 L1628,1238.5 A2.5,2.5 0 0 1 1625.5,1241 L868.5,1241 A2.5,2.5 0 0 1 866,1238.5 L866,400.5 A2.5,2.5 0 0 1 868.5,398 " style="stroke:#000000;stroke-width:1.5;fill:none;"/><line style="stroke:#000000;stroke-width:1.5;fill:none;" x1="866" x2="948" y1="421.6094" y2="421.6094"/><text fill="#000000" font-family="sans-serif" font-size="14" font-weight="bold" lengthAdjust="spacing" textLength="69" x="870" y="414.5332">controller</text></g><!--MD5=[7153802aa763eb8df248d2c88b8b91a0]
cluster game--><g id="cluster_game"><path d="M892.5,736 L931.5,736 A3.75,3.75 0 0 1 934,738.5 L941,759.6094 L1601.5,759.6094 A2.5,2.5 0 0 1 1604,762.1094 L1604,1214.5 A2.5,2.5 0 0 1 1601.5,1217 L892.5,1217 A2.5,2.5 0 0 1 890,1214.5 L890,738.5 A2.5,2.5 0 0 1 892.5,736 " style="stroke:#000000;stroke-width:1.5;fill:none;"/><line style="stroke:#000000;stroke-width:1.5;fill:none;" x1="890" x2="941" y1="759.6094" y2="759.6094"/><text fill="#000000" font-family="sans-serif" font-size="14" font-weight="bold" lengthAdjust="spacing" textLength="38" x="894" y="752.5332">game</text></g><!--MD5=[807bc46d8103c809ff053af9e140e1f5]
cluster tictactoe--><g id="cluster_tictactoe"><path d="M916.5,941 L978.5,941 A3.75,3.75 0 0 1 981,943.5 L988,964.6094 L1145.5,964.6094 A2.5,2.5 0 0 1 1148,967.1094 L1148,1190.5 A2.5,2.5 0 0 1 1145.5,1193 L916.5,1193 A2.5,2.5 0 0 1 914,1190.5 L914,943.5 A2.5,2.5 0 0 1 916.5,941 " style="stroke:#000000;stroke-width:1.5;fill:none;"/><line style="stroke:#000000;stroke-width:1.5;fill:none;" x1="914" x2="988" y1="964.6094" y2="964.6094"/><text fill="#000000" font-family="sans-serif" font-size="14" font-weight="bold" lengthAdjust="spacing" textLength="61" x="918" y="957.5332">tictactoe</text></g><!--MD5=[5580c82edcbc933de5e73591f0fcf26e]
cluster hangman--><g id="cluster_hangman"><path d="M1174.5,941 L1239.5,941 A3.75,3.75 0 0 1 1242,943.5 L1249,964.6094 L1397.5,964.6094 A2.5,2.5 0 0 1 1400,967.1094 L1400,1190.5 A2.5,2.5 0 0 1 1397.5,1193 L1174.5,1193 A2.5,2.5 0 0 1 1172,1190.5 L1172,943.5 A2.5,2.5 0 0 1 1174.5,941 " style="stroke:#000000;stroke-width:1.5;fill:none;"/><line style="stroke:#000000;stroke-width:1.5;fill:none;" x1="1172" x2="1249" y1="964.6094" y2="964.6094"/><text fill="#000000" font-family="sans-serif" font-size="14" font-weight="bold" lengthAdjust="spacing" textLength="64" x="1176" y="957.5332">hangman</text></g><!--MD5=[42603eecb267091c13893a16d8c379fb]
cluster player--><g id="cluster_player"><path d="M1213.5,559 L1257.5,559 A3.75,3.75 0 0 1 1260,561.5 L1267,582.6094 L1440.5,582.6094 A2.5,2.5 0 0 1 1443,585.1094 L1443,709.5 A2.5,2.5 0 0 1 1440.5,712 L1213.5,712 A2.5,2.5 0 0 1 1211,709.5 L1211,561.5 A2.5,2.5 0 0 1 1213.5,559 " style="stroke:#000000;stroke-width:1.5;fill:none;"/><line style="stroke:#000000;stroke-width:1.5;fill:none;" x1="1211" x2="1267" y1="582.6094" y2="582.6094"/><text fill="#000000" font-family="sans-serif" font-size="14" font-weight="bold" lengthAdjust="spacing" textLength="43" x="1215" y="575.5332">player</text></g><!--MD5=[86cbce8df1eb9d604fbbb2fa357940f8]
cluster view--><g id="cluster_view"><path d="M8.5,1058 L42.5,1058 A3.75,3.75 0 0 1 45,1060.5 L52,1081.6094 L839.5,1081.6094 A2.5,2.5 0 0 1 842,1084.1094 L842,1225.5 A2.5,2.5 0 0 1 839.5,1228 L8.5,1228 A2.5,2.5 0 0 1 6,1225.5 L6,1060.5 A2.5,2.5 0 0 1 8.5,1058 " style="stroke:#000000;stroke-width:1.5;fill:none;"/><line style="stroke:#000000;stroke-width:1.5;fill:none;" x1="6" x2="52" y1="1081.6094" y2="1081.6094"/><text fill="#000000" font-family="sans-serif" font-size="14" font-weight="bold" lengthAdjust="spacing" textLength="33" x="10" y="1074.5332">view</text></g><!--MD5=[2cb47ba637a0d19583e6199456f6ad0b]
class Player--><g id="elem_Player"><rect codeLine="3" fill="#F1F1F1" height="100.8281" id="Player" rx="2.5" ry="2.5" style="stroke:#181818;stroke-width:0.5;" width="122" x="1738" y="434"/><ellipse cx="1775.5" cy="450" fill="#ADD1B2" rx="11" ry="11" style="stroke:#181818;stroke-width:1.0;"/><path d="M1778.2656,445.875 Q1778.4219,445.6563 1778.6094,445.5469 Q1778.7969,445.4375 1779.0156,445.4375 Q1779.3906,445.4375 1779.625,445.7031 Q1779.8594,445.9531 1779.8594,446.5625 L1779.8594,448.0156 Q1779.8594,448.625 1779.625,448.8906 Q1779.3906,449.1563 1779.0156,449.1563 Q1778.6719,449.1563 1778.4688,448.9531 Q1778.2656,448.7656 1778.1563,448.25 Q1778.1094,447.8906 1777.9219,447.7031 Q1777.5938,447.3281 1776.9844,447.1094 Q1776.375,446.8906 1775.75,446.8906 Q1774.9844,446.8906 1774.3438,447.2188 Q1773.7188,447.5469 1773.2188,448.2969 Q1772.7344,449.0469 1772.7344,450.0781 L1772.7344,451.1719 Q1772.7344,452.4063 1773.625,453.2344 Q1774.5156,454.0469 1776.1094,454.0469 Q1777.0469,454.0469 1777.7031,453.7969 Q1778.0938,453.6406 1778.5156,453.2031 Q1778.7813,452.9375 1778.9219,452.8594 Q1779.0781,452.7813 1779.2813,452.7813 Q1779.6094,452.7813 1779.8594,453.0469 Q1780.125,453.2969 1780.125,453.6406 Q1780.125,453.9844 1779.7813,454.3906 Q1779.2813,454.9688 1778.4844,455.2969 Q1777.4063,455.75 1776.1094,455.75 Q1774.5938,455.75 1773.3906,455.125 Q1772.4063,454.625 1771.7188,453.5625 Q1771.0313,452.4844 1771.0313,451.2031 L1771.0313,450.0469 Q1771.0313,448.7188 1771.6406,447.5781 Q1772.2656,446.4219 1773.3594,445.8125 Q1774.4531,445.1875 1775.6875,445.1875 Q1776.4219,445.1875 1777.0625,445.3594 Q1777.7188,445.5156 1778.2656,445.875 Z " fill="#000000"/><text fill="#000000" font-family="sans-serif" font-size="14" lengthAdjust="spacing" textLength="40" x="1794.5" y="455.7285">Player</text><line style="stroke:#181818;stroke-width:0.5;" x1="1739" x2="1859" y1="466" y2="466"/><text fill="#000000" font-family="sans-serif" font-size="14" lengthAdjust="spacing" textLength="78" x="1744" y="484.5332">idPlayer : int</text><text fill="#000000" font-family="sans-serif" font-size="14" lengthAdjust="spacing" textLength="84" x="1744" y="502.1426">name : String</text><text fill="#000000" font-family="sans-serif" font-size="14" lengthAdjust="spacing" textLength="110" x="1744" y="519.752">idTypePlayer : int</text><line style="stroke:#181818;stroke-width:0.5;" x1="1739" x2="1859" y1="526.8281" y2="526.8281"/></g><!--MD5=[d75b0a238b734941260681f0026bbb88]
class Round--><g id="elem_Round"><rect codeLine="8" fill="#F1F1F1" height="153.6563" id="Round" rx="2.5" ry="2.5" style="stroke:#181818;stroke-width:0.5;" width="139" x="1729.5" y="220"/><ellipse cx="1773.75" cy="236" fill="#ADD1B2" rx="11" ry="11" style="stroke:#181818;stroke-width:1.0;"/><path d="M1776.5156,231.875 Q1776.6719,231.6563 1776.8594,231.5469 Q1777.0469,231.4375 1777.2656,231.4375 Q1777.6406,231.4375 1777.875,231.7031 Q1778.1094,231.9531 1778.1094,232.5625 L1778.1094,234.0156 Q1778.1094,234.625 1777.875,234.8906 Q1777.6406,235.1563 1777.2656,235.1563 Q1776.9219,235.1563 1776.7188,234.9531 Q1776.5156,234.7656 1776.4063,234.25 Q1776.3594,233.8906 1776.1719,233.7031 Q1775.8438,233.3281 1775.2344,233.1094 Q1774.625,232.8906 1774,232.8906 Q1773.2344,232.8906 1772.5938,233.2188 Q1771.9688,233.5469 1771.4688,234.2969 Q1770.9844,235.0469 1770.9844,236.0781 L1770.9844,237.1719 Q1770.9844,238.4063 1771.875,239.2344 Q1772.7656,240.0469 1774.3594,240.0469 Q1775.2969,240.0469 1775.9531,239.7969 Q1776.3438,239.6406 1776.7656,239.2031 Q1777.0313,238.9375 1777.1719,238.8594 Q1777.3281,238.7813 1777.5313,238.7813 Q1777.8594,238.7813 1778.1094,239.0469 Q1778.375,239.2969 1778.375,239.6406 Q1778.375,239.9844 1778.0313,240.3906 Q1777.5313,240.9688 1776.7344,241.2969 Q1775.6563,241.75 1774.3594,241.75 Q1772.8438,241.75 1771.6406,241.125 Q1770.6563,240.625 1769.9688,239.5625 Q1769.2813,238.4844 1769.2813,237.2031 L1769.2813,236.0469 Q1769.2813,234.7188 1769.8906,233.5781 Q1770.5156,232.4219 1771.6094,231.8125 Q1772.7031,231.1875 1773.9375,231.1875 Q1774.6719,231.1875 1775.3125,231.3594 Q1775.9688,231.5156 1776.5156,231.875 Z " fill="#000000"/><text fill="#000000" font-family="sans-serif" font-size="14" lengthAdjust="spacing" textLength="42" x="1794.25" y="241.7285">Round</text><line style="stroke:#181818;stroke-width:0.5;" x1="1730.5" x2="1867.5" y1="252" y2="252"/><text fill="#000000" font-family="sans-serif" font-size="14" lengthAdjust="spacing" textLength="80" x="1735.5" y="270.5332">idRound : int</text><text fill="#000000" font-family="sans-serif" font-size="14" lengthAdjust="spacing" textLength="111" x="1735.5" y="288.1426">idPlayer 1: Player</text><text fill="#000000" font-family="sans-serif" font-size="14" lengthAdjust="spacing" textLength="111" x="1735.5" y="305.752">idPlayer 2: Player</text><text fill="#000000" font-family="sans-serif" font-size="14" lengthAdjust="spacing" textLength="108" x="1735.5" y="323.3613">idWinner : Player</text><text fill="#000000" font-family="sans-serif" font-size="14" lengthAdjust="spacing" textLength="127" x="1735.5" y="340.9707">isFinished : boolean</text><text fill="#000000" font-family="sans-serif" font-size="14" lengthAdjust="spacing" textLength="76" x="1735.5" y="358.5801">idGame : int</text><line style="stroke:#181818;stroke-width:0.5;" x1="1730.5" x2="1867.5" y1="365.6563" y2="365.6563"/></g><!--MD5=[ace3e6c11b8886c1ad6e132e1e690d2d]
class TypePlayer--><g id="elem_TypePlayer"><rect codeLine="16" fill="#F1F1F1" height="83.2188" id="TypePlayer" rx="2.5" ry="2.5" style="stroke:#181818;stroke-width:0.5;" width="122" x="1738" y="604"/><ellipse cx="1761.1" cy="620" fill="#ADD1B2" rx="11" ry="11" style="stroke:#181818;stroke-width:1.0;"/><path d="M1763.8656,615.875 Q1764.0219,615.6563 1764.2094,615.5469 Q1764.3969,615.4375 1764.6156,615.4375 Q1764.9906,615.4375 1765.225,615.7031 Q1765.4594,615.9531 1765.4594,616.5625 L1765.4594,618.0156 Q1765.4594,618.625 1765.225,618.8906 Q1764.9906,619.1563 1764.6156,619.1563 Q1764.2719,619.1563 1764.0688,618.9531 Q1763.8656,618.7656 1763.7563,618.25 Q1763.7094,617.8906 1763.5219,617.7031 Q1763.1938,617.3281 1762.5844,617.1094 Q1761.975,616.8906 1761.35,616.8906 Q1760.5844,616.8906 1759.9438,617.2188 Q1759.3188,617.5469 1758.8188,618.2969 Q1758.3344,619.0469 1758.3344,620.0781 L1758.3344,621.1719 Q1758.3344,622.4063 1759.225,623.2344 Q1760.1156,624.0469 1761.7094,624.0469 Q1762.6469,624.0469 1763.3031,623.7969 Q1763.6938,623.6406 1764.1156,623.2031 Q1764.3813,622.9375 1764.5219,622.8594 Q1764.6781,622.7813 1764.8813,622.7813 Q1765.2094,622.7813 1765.4594,623.0469 Q1765.725,623.2969 1765.725,623.6406 Q1765.725,623.9844 1765.3813,624.3906 Q1764.8813,624.9688 1764.0844,625.2969 Q1763.0063,625.75 1761.7094,625.75 Q1760.1938,625.75 1758.9906,625.125 Q1758.0063,624.625 1757.3188,623.5625 Q1756.6313,622.4844 1756.6313,621.2031 L1756.6313,620.0469 Q1756.6313,618.7188 1757.2406,617.5781 Q1757.8656,616.4219 1758.9594,615.8125 Q1760.0531,615.1875 1761.2875,615.1875 Q1762.0219,615.1875 1762.6625,615.3594 Q1763.3188,615.5156 1763.8656,615.875 Z " fill="#000000"/><text fill="#000000" font-family="sans-serif" font-size="14" lengthAdjust="spacing" textLength="72" x="1776.9" y="625.7285">TypePlayer</text><line style="stroke:#181818;stroke-width:0.5;" x1="1739" x2="1859" y1="636" y2="636"/><text fill="#000000" font-family="sans-serif" font-size="14" lengthAdjust="spacing" textLength="110" x="1744" y="654.5332">idTypePlayer : int</text><text fill="#000000" font-family="sans-serif" font-size="14" lengthAdjust="spacing" textLength="80" x="1744" y="672.1426">name: String</text><line style="stroke:#181818;stroke-width:0.5;" x1="1739" x2="1859" y1="679.2188" y2="679.2188"/></g><!--MD5=[e05bacf3ff4416a0580578814d41bbf6]
class Piece--><g id="elem_Piece"><rect codeLine="20" fill="#F1F1F1" height="83.2188" id="Piece" rx="2.5" ry="2.5" style="stroke:#181818;stroke-width:0.5;" width="96" x="1964" y="255.5"/><ellipse cx="1992.05" cy="271.5" fill="#ADD1B2" rx="11" ry="11" style="stroke:#181818;stroke-width:1.0;"/><path d="M1994.8156,267.375 Q1994.9719,267.1563 1995.1594,267.0469 Q1995.3469,266.9375 1995.5656,266.9375 Q1995.9406,266.9375 1996.175,267.2031 Q1996.4094,267.4531 1996.4094,268.0625 L1996.4094,269.5156 Q1996.4094,270.125 1996.175,270.3906 Q1995.9406,270.6563 1995.5656,270.6563 Q1995.2219,270.6563 1995.0188,270.4531 Q1994.8156,270.2656 1994.7063,269.75 Q1994.6594,269.3906 1994.4719,269.2031 Q1994.1438,268.8281 1993.5344,268.6094 Q1992.925,268.3906 1992.3,268.3906 Q1991.5344,268.3906 1990.8938,268.7188 Q1990.2688,269.0469 1989.7688,269.7969 Q1989.2844,270.5469 1989.2844,271.5781 L1989.2844,272.6719 Q1989.2844,273.9063 1990.175,274.7344 Q1991.0656,275.5469 1992.6594,275.5469 Q1993.5969,275.5469 1994.2531,275.2969 Q1994.6438,275.1406 1995.0656,274.7031 Q1995.3313,274.4375 1995.4719,274.3594 Q1995.6281,274.2813 1995.8313,274.2813 Q1996.1594,274.2813 1996.4094,274.5469 Q1996.675,274.7969 1996.675,275.1406 Q1996.675,275.4844 1996.3313,275.8906 Q1995.8313,276.4688 1995.0344,276.7969 Q1993.9563,277.25 1992.6594,277.25 Q1991.1438,277.25 1989.9406,276.625 Q1988.9563,276.125 1988.2688,275.0625 Q1987.5813,273.9844 1987.5813,272.7031 L1987.5813,271.5469 Q1987.5813,270.2188 1988.1906,269.0781 Q1988.8156,267.9219 1989.9094,267.3125 Q1991.0031,266.6875 1992.2375,266.6875 Q1992.9719,266.6875 1993.6125,266.8594 Q1994.2688,267.0156 1994.8156,267.375 Z " fill="#000000"/><text fill="#000000" font-family="sans-serif" font-size="14" lengthAdjust="spacing" textLength="35" x="2008.95" y="277.2285">Piece</text><line style="stroke:#181818;stroke-width:0.5;" x1="1965" x2="2059" y1="287.5" y2="287.5"/><text fill="#000000" font-family="sans-serif" font-size="14" lengthAdjust="spacing" textLength="73" x="1970" y="306.0332">idPiece : int</text><text fill="#000000" font-family="sans-serif" font-size="14" lengthAdjust="spacing" textLength="84" x="1970" y="323.6426">name : String</text><line style="stroke:#181818;stroke-width:0.5;" x1="1965" x2="2059" y1="330.7188" y2="330.7188"/></g><!--MD5=[5655ee3e2a0d028d03fe20f829576392]
class Square--><g id="elem_Square"><rect codeLine="25" fill="#F1F1F1" height="118.4375" id="Square" rx="2.5" ry="2.5" style="stroke:#181818;stroke-width:0.5;" width="92" x="1968" y="42"/><ellipse cx="1989.3" cy="58" fill="#ADD1B2" rx="11" ry="11" style="stroke:#181818;stroke-width:1.0;"/><path d="M1992.0656,53.875 Q1992.2219,53.6563 1992.4094,53.5469 Q1992.5969,53.4375 1992.8156,53.4375 Q1993.1906,53.4375 1993.425,53.7031 Q1993.6594,53.9531 1993.6594,54.5625 L1993.6594,56.0156 Q1993.6594,56.625 1993.425,56.8906 Q1993.1906,57.1563 1992.8156,57.1563 Q1992.4719,57.1563 1992.2688,56.9531 Q1992.0656,56.7656 1991.9563,56.25 Q1991.9094,55.8906 1991.7219,55.7031 Q1991.3938,55.3281 1990.7844,55.1094 Q1990.175,54.8906 1989.55,54.8906 Q1988.7844,54.8906 1988.1438,55.2188 Q1987.5188,55.5469 1987.0188,56.2969 Q1986.5344,57.0469 1986.5344,58.0781 L1986.5344,59.1719 Q1986.5344,60.4063 1987.425,61.2344 Q1988.3156,62.0469 1989.9094,62.0469 Q1990.8469,62.0469 1991.5031,61.7969 Q1991.8938,61.6406 1992.3156,61.2031 Q1992.5813,60.9375 1992.7219,60.8594 Q1992.8781,60.7813 1993.0813,60.7813 Q1993.4094,60.7813 1993.6594,61.0469 Q1993.925,61.2969 1993.925,61.6406 Q1993.925,61.9844 1993.5813,62.3906 Q1993.0813,62.9688 1992.2844,63.2969 Q1991.2063,63.75 1989.9094,63.75 Q1988.3938,63.75 1987.1906,63.125 Q1986.2063,62.625 1985.5188,61.5625 Q1984.8313,60.4844 1984.8313,59.2031 L1984.8313,58.0469 Q1984.8313,56.7188 1985.4406,55.5781 Q1986.0656,54.4219 1987.1594,53.8125 Q1988.2531,53.1875 1989.4875,53.1875 Q1990.2219,53.1875 1990.8625,53.3594 Q1991.5188,53.5156 1992.0656,53.875 Z " fill="#000000"/><text fill="#000000" font-family="sans-serif" font-size="14" lengthAdjust="spacing" textLength="46" x="2004.7" y="63.7285">Square</text><line style="stroke:#181818;stroke-width:0.5;" x1="1969" x2="2059" y1="74" y2="74"/><text fill="#000000" font-family="sans-serif" font-size="14" lengthAdjust="spacing" textLength="80" x="1974" y="92.5332">idRound : int</text><text fill="#000000" font-family="sans-serif" font-size="14" lengthAdjust="spacing" textLength="72" x="1974" y="110.1426">column : int</text><text fill="#000000" font-family="sans-serif" font-size="14" lengthAdjust="spacing" textLength="49" x="1974" y="127.752">row : int</text><text fill="#000000" font-family="sans-serif" font-size="14" lengthAdjust="spacing" textLength="73" x="1974" y="145.3613">idPiece : int</text><line style="stroke:#181818;stroke-width:0.5;" x1="1969" x2="2059" y1="152.4375" y2="152.4375"/></g><!--MD5=[120fced6fc53ed38bb00f3c478c713f1]
class Letter--><g id="elem_Letter"><rect codeLine="31" fill="#F1F1F1" height="118.4375" id="Letter" rx="2.5" ry="2.5" style="stroke:#181818;stroke-width:0.5;" width="127" x="1805.5" y="42"/><ellipse cx="1846.6" cy="58" fill="#ADD1B2" rx="11" ry="11" style="stroke:#181818;stroke-width:1.0;"/><path d="M1849.3656,53.875 Q1849.5219,53.6563 1849.7094,53.5469 Q1849.8969,53.4375 1850.1156,53.4375 Q1850.4906,53.4375 1850.725,53.7031 Q1850.9594,53.9531 1850.9594,54.5625 L1850.9594,56.0156 Q1850.9594,56.625 1850.725,56.8906 Q1850.4906,57.1563 1850.1156,57.1563 Q1849.7719,57.1563 1849.5688,56.9531 Q1849.3656,56.7656 1849.2563,56.25 Q1849.2094,55.8906 1849.0219,55.7031 Q1848.6938,55.3281 1848.0844,55.1094 Q1847.475,54.8906 1846.85,54.8906 Q1846.0844,54.8906 1845.4438,55.2188 Q1844.8188,55.5469 1844.3188,56.2969 Q1843.8344,57.0469 1843.8344,58.0781 L1843.8344,59.1719 Q1843.8344,60.4063 1844.725,61.2344 Q1845.6156,62.0469 1847.2094,62.0469 Q1848.1469,62.0469 1848.8031,61.7969 Q1849.1938,61.6406 1849.6156,61.2031 Q1849.8813,60.9375 1850.0219,60.8594 Q1850.1781,60.7813 1850.3813,60.7813 Q1850.7094,60.7813 1850.9594,61.0469 Q1851.225,61.2969 1851.225,61.6406 Q1851.225,61.9844 1850.8813,62.3906 Q1850.3813,62.9688 1849.5844,63.2969 Q1848.5063,63.75 1847.2094,63.75 Q1845.6938,63.75 1844.4906,63.125 Q1843.5063,62.625 1842.8188,61.5625 Q1842.1313,60.4844 1842.1313,59.2031 L1842.1313,58.0469 Q1842.1313,56.7188 1842.7406,55.5781 Q1843.3656,54.4219 1844.4594,53.8125 Q1845.5531,53.1875 1846.7875,53.1875 Q1847.5219,53.1875 1848.1625,53.3594 Q1848.8188,53.5156 1849.3656,53.875 Z " fill="#000000"/><text fill="#000000" font-family="sans-serif" font-size="14" lengthAdjust="spacing" textLength="37" x="1866.4" y="63.7285">Letter</text><line style="stroke:#181818;stroke-width:0.5;" x1="1806.5" x2="1931.5" y1="74" y2="74"/><text fill="#000000" font-family="sans-serif" font-size="14" lengthAdjust="spacing" textLength="80" x="1811.5" y="92.5332">idRound : int</text><text fill="#000000" font-family="sans-serif" font-size="14" lengthAdjust="spacing" textLength="100" x="1811.5" y="110.1426">character : char</text><text fill="#000000" font-family="sans-serif" font-size="14" lengthAdjust="spacing" textLength="76" x="1811.5" y="127.752">position : int</text><text fill="#000000" font-family="sans-serif" font-size="14" lengthAdjust="spacing" textLength="115" x="1811.5" y="145.3613">isShown : boolean</text><line style="stroke:#181818;stroke-width:0.5;" x1="1806.5" x2="1931.5" y1="152.4375" y2="152.4375"/></g><!--MD5=[f3eaa0fe7b10472f3fee2708cd31d5a7]
class TypeGame--><g id="elem_TypeGame"><rect codeLine="38" fill="#F1F1F1" height="83.2188" id="TypeGame" rx="2.5" ry="2.5" style="stroke:#181818;stroke-width:0.5;" width="102" x="1668" y="59.5"/><ellipse cx="1683" cy="75.5" fill="#ADD1B2" rx="11" ry="11" style="stroke:#181818;stroke-width:1.0;"/><path d="M1685.7656,71.375 Q1685.9219,71.1563 1686.1094,71.0469 Q1686.2969,70.9375 1686.5156,70.9375 Q1686.8906,70.9375 1687.125,71.2031 Q1687.3594,71.4531 1687.3594,72.0625 L1687.3594,73.5156 Q1687.3594,74.125 1687.125,74.3906 Q1686.8906,74.6563 1686.5156,74.6563 Q1686.1719,74.6563 1685.9688,74.4531 Q1685.7656,74.2656 1685.6563,73.75 Q1685.6094,73.3906 1685.4219,73.2031 Q1685.0938,72.8281 1684.4844,72.6094 Q1683.875,72.3906 1683.25,72.3906 Q1682.4844,72.3906 1681.8438,72.7188 Q1681.2188,73.0469 1680.7188,73.7969 Q1680.2344,74.5469 1680.2344,75.5781 L1680.2344,76.6719 Q1680.2344,77.9063 1681.125,78.7344 Q1682.0156,79.5469 1683.6094,79.5469 Q1684.5469,79.5469 1685.2031,79.2969 Q1685.5938,79.1406 1686.0156,78.7031 Q1686.2813,78.4375 1686.4219,78.3594 Q1686.5781,78.2813 1686.7813,78.2813 Q1687.1094,78.2813 1687.3594,78.5469 Q1687.625,78.7969 1687.625,79.1406 Q1687.625,79.4844 1687.2813,79.8906 Q1686.7813,80.4688 1685.9844,80.7969 Q1684.9063,81.25 1683.6094,81.25 Q1682.0938,81.25 1680.8906,80.625 Q1679.9063,80.125 1679.2188,79.0625 Q1678.5313,77.9844 1678.5313,76.7031 L1678.5313,75.5469 Q1678.5313,74.2188 1679.1406,73.0781 Q1679.7656,71.9219 1680.8594,71.3125 Q1681.9531,70.6875 1683.1875,70.6875 Q1683.9219,70.6875 1684.5625,70.8594 Q1685.2188,71.0156 1685.7656,71.375 Z " fill="#000000"/><text fill="#000000" font-family="sans-serif" font-size="14" lengthAdjust="spacing" textLength="70" x="1697" y="81.2285">TypeGame</text><line style="stroke:#181818;stroke-width:0.5;" x1="1669" x2="1769" y1="91.5" y2="91.5"/><text fill="#000000" font-family="sans-serif" font-size="14" lengthAdjust="spacing" textLength="76" x="1674" y="110.0332">idGame : int</text><text fill="#000000" font-family="sans-serif" font-size="14" lengthAdjust="spacing" textLength="84" x="1674" y="127.6426">game : String</text><line style="stroke:#181818;stroke-width:0.5;" x1="1669" x2="1769" y1="134.7188" y2="134.7188"/></g><!--MD5=[f7a9ae25cb0ac60c5f03b7bfd778cce3]
class Dice--><g id="elem_Dice"><rect codeLine="59" fill="#F1F1F1" height="65.6094" id="Dice" rx="2.5" ry="2.5" style="stroke:#181818;stroke-width:0.5;" width="192" x="1668" y="1120"/><ellipse cx="1745.75" cy="1136" fill="#ADD1B2" rx="11" ry="11" style="stroke:#181818;stroke-width:1.0;"/><path d="M1748.5156,1131.875 Q1748.6719,1131.6563 1748.8594,1131.5469 Q1749.0469,1131.4375 1749.2656,1131.4375 Q1749.6406,1131.4375 1749.875,1131.7031 Q1750.1094,1131.9531 1750.1094,1132.5625 L1750.1094,1134.0156 Q1750.1094,1134.625 1749.875,1134.8906 Q1749.6406,1135.1563 1749.2656,1135.1563 Q1748.9219,1135.1563 1748.7188,1134.9531 Q1748.5156,1134.7656 1748.4063,1134.25 Q1748.3594,1133.8906 1748.1719,1133.7031 Q1747.8438,1133.3281 1747.2344,1133.1094 Q1746.625,1132.8906 1746,1132.8906 Q1745.2344,1132.8906 1744.5938,1133.2188 Q1743.9688,1133.5469 1743.4688,1134.2969 Q1742.9844,1135.0469 1742.9844,1136.0781 L1742.9844,1137.1719 Q1742.9844,1138.4063 1743.875,1139.2344 Q1744.7656,1140.0469 1746.3594,1140.0469 Q1747.2969,1140.0469 1747.9531,1139.7969 Q1748.3438,1139.6406 1748.7656,1139.2031 Q1749.0313,1138.9375 1749.1719,1138.8594 Q1749.3281,1138.7813 1749.5313,1138.7813 Q1749.8594,1138.7813 1750.1094,1139.0469 Q1750.375,1139.2969 1750.375,1139.6406 Q1750.375,1139.9844 1750.0313,1140.3906 Q1749.5313,1140.9688 1748.7344,1141.2969 Q1747.6563,1141.75 1746.3594,1141.75 Q1744.8438,1141.75 1743.6406,1141.125 Q1742.6563,1140.625 1741.9688,1139.5625 Q1741.2813,1138.4844 1741.2813,1137.2031 L1741.2813,1136.0469 Q1741.2813,1134.7188 1741.8906,1133.5781 Q1742.5156,1132.4219 1743.6094,1131.8125 Q1744.7031,1131.1875 1745.9375,1131.1875 Q1746.6719,1131.1875 1747.3125,1131.3594 Q1747.9688,1131.5156 1748.5156,1131.875 Z " fill="#000000"/><text fill="#000000" font-family="sans-serif" font-size="14" lengthAdjust="spacing" textLength="28" x="1766.25" y="1141.7285">Dice</text><line style="stroke:#181818;stroke-width:0.5;" x1="1669" x2="1859" y1="1152" y2="1152"/><line style="stroke:#181818;stroke-width:0.5;" x1="1669" x2="1859" y1="1160" y2="1160"/><ellipse cx="1679" cy="1171" fill="#84BE84" rx="3" ry="3" style="stroke:#038048;stroke-width:1.0;"/><text fill="#000000" font-family="sans-serif" font-size="14" lengthAdjust="spacing" textLength="166" x="1688" y="1178.5332">generateValue (int bound)</text></g><!--MD5=[62eae261b3be6d11895498a384d72c15]
class GamesPlatformController--><g id="elem_GamesPlatformController"><rect codeLine="65" fill="#F1F1F1" height="100.8281" id="GamesPlatformController" rx="2.5" ry="2.5" style="stroke:#181818;stroke-width:0.5;" width="193" x="1005.5" y="434"/><ellipse cx="1021.4" cy="450" fill="#ADD1B2" rx="11" ry="11" style="stroke:#181818;stroke-width:1.0;"/><path d="M1024.1656,445.875 Q1024.3219,445.6563 1024.5094,445.5469 Q1024.6969,445.4375 1024.9156,445.4375 Q1025.2906,445.4375 1025.525,445.7031 Q1025.7594,445.9531 1025.7594,446.5625 L1025.7594,448.0156 Q1025.7594,448.625 1025.525,448.8906 Q1025.2906,449.1563 1024.9156,449.1563 Q1024.5719,449.1563 1024.3688,448.9531 Q1024.1656,448.7656 1024.0563,448.25 Q1024.0094,447.8906 1023.8219,447.7031 Q1023.4938,447.3281 1022.8844,447.1094 Q1022.275,446.8906 1021.65,446.8906 Q1020.8844,446.8906 1020.2438,447.2188 Q1019.6188,447.5469 1019.1188,448.2969 Q1018.6344,449.0469 1018.6344,450.0781 L1018.6344,451.1719 Q1018.6344,452.4063 1019.525,453.2344 Q1020.4156,454.0469 1022.0094,454.0469 Q1022.9469,454.0469 1023.6031,453.7969 Q1023.9938,453.6406 1024.4156,453.2031 Q1024.6813,452.9375 1024.8219,452.8594 Q1024.9781,452.7813 1025.1813,452.7813 Q1025.5094,452.7813 1025.7594,453.0469 Q1026.025,453.2969 1026.025,453.6406 Q1026.025,453.9844 1025.6813,454.3906 Q1025.1813,454.9688 1024.3844,455.2969 Q1023.3063,455.75 1022.0094,455.75 Q1020.4938,455.75 1019.2906,455.125 Q1018.3063,454.625 1017.6188,453.5625 Q1016.9313,452.4844 1016.9313,451.2031 L1016.9313,450.0469 Q1016.9313,448.7188 1017.5406,447.5781 Q1018.1656,446.4219 1019.2594,445.8125 Q1020.3531,445.1875 1021.5875,445.1875 Q1022.3219,445.1875 1022.9625,445.3594 Q1023.6188,445.5156 1024.1656,445.875 Z " fill="#000000"/><text fill="#000000" font-family="sans-serif" font-size="14" lengthAdjust="spacing" textLength="159" x="1035.6" y="455.7285">GamesPlatformController</text><line style="stroke:#181818;stroke-width:0.5;" x1="1006.5" x2="1197.5" y1="466" y2="466"/><rect fill="none" height="6" style="stroke:#C82930;stroke-width:1.0;" width="6" x="1013.5" y="474"/><text fill="#000000" font-family="sans-serif" font-size="14" lengthAdjust="spacing" textLength="167" x="1025.5" y="484.5332">ListOfPlayers listOfPlayers</text><rect fill="none" height="6" style="stroke:#C82930;stroke-width:1.0;" width="6" x="1013.5" y="491.6094"/><text fill="#000000" font-family="sans-serif" font-size="14" lengthAdjust="spacing" textLength="92" x="1025.5" y="502.1426">Game[] games</text><line style="stroke:#181818;stroke-width:0.5;" x1="1006.5" x2="1197.5" y1="509.2188" y2="509.2188"/><ellipse cx="1016.5" cy="520.2188" fill="#84BE84" rx="3" ry="3" style="stroke:#038048;stroke-width:1.0;"/><text fill="#000000" font-family="sans-serif" font-size="14" lengthAdjust="spacing" textLength="31" x="1025.5" y="527.752">run()</text></g><!--MD5=[82d9c97a467af7c0b2c072e754b85475]
class GameController--><g id="elem_GameController"><rect codeLine="72" fill="#F1F1F1" height="136.0469" id="GameController" rx="2.5" ry="2.5" style="stroke:#181818;stroke-width:0.5;" width="303" x="950.5" y="772"/><ellipse cx="1047.75" cy="788" fill="#A9DCDF" rx="11" ry="11" style="stroke:#181818;stroke-width:1.0;"/><path d="M1049.9375,789.7656 L1045.7969,789.7656 L1045.375,790.7969 L1045.7969,790.7969 Q1046.4063,790.7969 1046.6719,791.0313 Q1046.9375,791.2656 1046.9375,791.6563 Q1046.9375,792.0313 1046.6719,792.2656 Q1046.4063,792.5 1045.7969,792.5 L1043.5,792.5 Q1042.8906,792.5 1042.6406,792.2656 Q1042.375,792.0313 1042.375,791.6406 Q1042.375,791.2656 1042.6563,791.0313 Q1042.9219,790.7813 1043.5469,790.7969 L1046.2188,784.1406 L1045.1094,784.1406 Q1044.5,784.1406 1044.2344,783.9063 Q1043.9688,783.6719 1043.9688,783.2813 Q1043.9688,782.9063 1044.2344,782.6719 Q1044.5,782.4375 1045.1094,782.4375 L1048.7813,782.4375 L1052.1719,790.7969 Q1052.7656,790.7969 1052.9531,790.9375 Q1053.3438,791.2031 1053.3438,791.6563 Q1053.3438,792.0313 1053.0781,792.2656 Q1052.8281,792.5 1052.2188,792.5 L1049.9219,792.5 Q1049.3125,792.5 1049.0469,792.2656 Q1048.7813,792.0313 1048.7813,791.6406 Q1048.7813,791.2656 1049.0469,791.0313 Q1049.3125,790.7969 1049.9219,790.7969 L1050.3438,790.7969 L1049.9375,789.7656 Z M1049.2188,788.0625 L1047.8594,784.6875 L1046.4844,788.0625 L1049.2188,788.0625 Z " fill="#000000"/><text fill="#000000" font-family="sans-serif" font-size="14" font-style="italic" lengthAdjust="spacing" textLength="100" x="1068.25" y="793.7285">GameController</text><line style="stroke:#181818;stroke-width:0.5;" x1="951.5" x2="1252.5" y1="804" y2="804"/><polygon fill="none" points="961.5,810,965.5,814,961.5,818,957.5,814" style="stroke:#B38D22;stroke-width:1.0;"/><text fill="#000000" font-family="sans-serif" font-size="14" lengthAdjust="spacing" textLength="172" x="970.5" y="822.5332">GamePlayer[] gamePlayers</text><polygon fill="none" points="961.5,827.6094,965.5,831.6094,961.5,835.6094,957.5,831.6094" style="stroke:#B38D22;stroke-width:1.0;"/><text fill="#000000" font-family="sans-serif" font-size="14" lengthAdjust="spacing" textLength="277" x="970.5" y="840.1426">GamePlayersProvider gamePlayersProvider</text><line style="stroke:#181818;stroke-width:0.5;" x1="951.5" x2="1252.5" y1="847.2188" y2="847.2188"/><ellipse cx="961.5" cy="858.2188" fill="#84BE84" rx="3" ry="3" style="stroke:#038048;stroke-width:1.0;"/><text fill="#000000" font-family="sans-serif" font-size="14" font-style="italic" lengthAdjust="spacing" textLength="60" x="970.5" y="865.752">Execute()</text><polygon fill="#FFFF44" points="961.5,870.8281,965.5,874.8281,961.5,878.8281,957.5,874.8281" style="stroke:#B38D22;stroke-width:1.0;"/><text fill="#000000" font-family="sans-serif" font-size="14" lengthAdjust="spacing" textLength="264" x="970.5" y="883.3613">AssignRoles (GamePlayer[] gamePlayers)</text><polygon fill="#FFFF44" points="961.5,888.4375,965.5,892.4375,961.5,896.4375,957.5,892.4375" style="stroke:#B38D22;stroke-width:1.0;"/><text fill="#000000" font-family="sans-serif" font-size="14" lengthAdjust="spacing" textLength="240" x="970.5" y="900.9707">flipRoles (GamePlayer[] gamePlayers)</text></g><!--MD5=[90188486dc81769ab5cfb9bd648607bd]
class GamePlayerController--><g id="elem_GamePlayerController"><rect codeLine="96" fill="#F1F1F1" height="65.6094" id="GamePlayerController" rx="2.5" ry="2.5" style="stroke:#181818;stroke-width:0.5;" width="172" x="1416" y="968"/><ellipse cx="1431" cy="984" fill="#B4A7E5" rx="11" ry="11" style="stroke:#181818;stroke-width:1.0;"/><path d="M1431.9531,980.6406 L1431.9531,987.2969 L1433.6719,987.2969 Q1434.2813,987.2969 1434.5469,987.5313 Q1434.8125,987.7656 1434.8125,988.1563 Q1434.8125,988.5313 1434.5469,988.7656 Q1434.2813,989 1433.6719,989 L1428.5313,989 Q1427.9219,989 1427.6563,988.7656 Q1427.3906,988.5313 1427.3906,988.1406 Q1427.3906,987.7656 1427.6563,987.5313 Q1427.9219,987.2969 1428.5313,987.2969 L1430.25,987.2969 L1430.25,980.6406 L1428.5313,980.6406 Q1427.9219,980.6406 1427.6563,980.4063 Q1427.3906,980.1719 1427.3906,979.7813 Q1427.3906,979.4063 1427.6563,979.1719 Q1427.9219,978.9375 1428.5313,978.9375 L1433.6719,978.9375 Q1434.2813,978.9375 1434.5469,979.1719 Q1434.8125,979.4063 1434.8125,979.7813 Q1434.8125,980.1719 1434.5469,980.4063 Q1434.2813,980.6406 1433.6719,980.6406 L1431.9531,980.6406 Z " fill="#000000"/><text fill="#000000" font-family="sans-serif" font-size="14" font-style="italic" lengthAdjust="spacing" textLength="140" x="1445" y="989.7285">GamePlayerController</text><line style="stroke:#181818;stroke-width:0.5;" x1="1417" x2="1587" y1="1000" y2="1000"/><line style="stroke:#181818;stroke-width:0.5;" x1="1417" x2="1587" y1="1008" y2="1008"/><ellipse cx="1427" cy="1019" fill="#84BE84" rx="3" ry="3" style="stroke:#038048;stroke-width:1.0;"/><text fill="#000000" font-family="sans-serif" font-size="14" lengthAdjust="spacing" textLength="115" x="1436" y="1026.5332">processResult(int)</text></g><!--MD5=[c799d28eabd75218359eff1d3c0c2cd9]
class GamePlayersProviderController--><g id="elem_GamePlayersProviderController"><rect codeLine="99" fill="#F1F1F1" height="65.6094" id="GamePlayersProviderController" rx="2.5" ry="2.5" style="stroke:#181818;stroke-width:0.5;" width="254" x="1289" y="807"/><ellipse cx="1314.35" cy="823" fill="#B4A7E5" rx="11" ry="11" style="stroke:#181818;stroke-width:1.0;"/><path d="M1315.3031,819.6406 L1315.3031,826.2969 L1317.0219,826.2969 Q1317.6313,826.2969 1317.8969,826.5313 Q1318.1625,826.7656 1318.1625,827.1563 Q1318.1625,827.5313 1317.8969,827.7656 Q1317.6313,828 1317.0219,828 L1311.8813,828 Q1311.2719,828 1311.0063,827.7656 Q1310.7406,827.5313 1310.7406,827.1406 Q1310.7406,826.7656 1311.0063,826.5313 Q1311.2719,826.2969 1311.8813,826.2969 L1313.6,826.2969 L1313.6,819.6406 L1311.8813,819.6406 Q1311.2719,819.6406 1311.0063,819.4063 Q1310.7406,819.1719 1310.7406,818.7813 Q1310.7406,818.4063 1311.0063,818.1719 Q1311.2719,817.9375 1311.8813,817.9375 L1317.0219,817.9375 Q1317.6313,817.9375 1317.8969,818.1719 Q1318.1625,818.4063 1318.1625,818.7813 Q1318.1625,819.1719 1317.8969,819.4063 Q1317.6313,819.6406 1317.0219,819.6406 L1315.3031,819.6406 Z " fill="#000000"/><text fill="#000000" font-family="sans-serif" font-size="14" font-style="italic" lengthAdjust="spacing" textLength="199" x="1330.65" y="828.7285">GamePlayersProviderController</text><line style="stroke:#181818;stroke-width:0.5;" x1="1290" x2="1542" y1="839" y2="839"/><line style="stroke:#181818;stroke-width:0.5;" x1="1290" x2="1542" y1="847" y2="847"/><ellipse cx="1300" cy="858" fill="#84BE84" rx="3" ry="3" style="stroke:#038048;stroke-width:1.0;"/><text fill="#000000" font-family="sans-serif" font-size="14" lengthAdjust="spacing" textLength="228" x="1309" y="865.5332">getGamePlayers(int) : GamePlayer[]</text></g><!--MD5=[94e6bc30fd8c9ad2a6854bef35573eca]
class TicTacToeController--><g id="elem_TicTacToeController"><rect codeLine="80" fill="#F1F1F1" height="48" id="TicTacToeController" rx="2.5" ry="2.5" style="stroke:#181818;stroke-width:0.5;" width="162" x="950" y="977"/><ellipse cx="965" cy="993" fill="#ADD1B2" rx="11" ry="11" style="stroke:#181818;stroke-width:1.0;"/><path d="M967.7656,988.875 Q967.9219,988.6563 968.1094,988.5469 Q968.2969,988.4375 968.5156,988.4375 Q968.8906,988.4375 969.125,988.7031 Q969.3594,988.9531 969.3594,989.5625 L969.3594,991.0156 Q969.3594,991.625 969.125,991.8906 Q968.8906,992.1563 968.5156,992.1563 Q968.1719,992.1563 967.9688,991.9531 Q967.7656,991.7656 967.6563,991.25 Q967.6094,990.8906 967.4219,990.7031 Q967.0938,990.3281 966.4844,990.1094 Q965.875,989.8906 965.25,989.8906 Q964.4844,989.8906 963.8438,990.2188 Q963.2188,990.5469 962.7188,991.2969 Q962.2344,992.0469 962.2344,993.0781 L962.2344,994.1719 Q962.2344,995.4063 963.125,996.2344 Q964.0156,997.0469 965.6094,997.0469 Q966.5469,997.0469 967.2031,996.7969 Q967.5938,996.6406 968.0156,996.2031 Q968.2813,995.9375 968.4219,995.8594 Q968.5781,995.7813 968.7813,995.7813 Q969.1094,995.7813 969.3594,996.0469 Q969.625,996.2969 969.625,996.6406 Q969.625,996.9844 969.2813,997.3906 Q968.7813,997.9688 967.9844,998.2969 Q966.9063,998.75 965.6094,998.75 Q964.0938,998.75 962.8906,998.125 Q961.9063,997.625 961.2188,996.5625 Q960.5313,995.4844 960.5313,994.2031 L960.5313,993.0469 Q960.5313,991.7188 961.1406,990.5781 Q961.7656,989.4219 962.8594,988.8125 Q963.9531,988.1875 965.1875,988.1875 Q965.9219,988.1875 966.5625,988.3594 Q967.2188,988.5156 967.7656,988.875 Z " fill="#000000"/><text fill="#000000" font-family="sans-serif" font-size="14" lengthAdjust="spacing" textLength="130" x="979" y="998.7285">TicTacToeController</text><line style="stroke:#181818;stroke-width:0.5;" x1="951" x2="1111" y1="1009" y2="1009"/><line style="stroke:#181818;stroke-width:0.5;" x1="951" x2="1111" y1="1017" y2="1017"/></g><!--MD5=[fb2941c51d2aa49bb175e07467481314]
class TicTacToePlayerController--><g id="elem_TicTacToePlayerController"><rect codeLine="83" fill="#F1F1F1" height="48" id="TicTacToePlayerController" rx="2.5" ry="2.5" style="stroke:#181818;stroke-width:0.5;" width="202" x="930" y="1129"/><ellipse cx="945" cy="1145" fill="#B4A7E5" rx="11" ry="11" style="stroke:#181818;stroke-width:1.0;"/><path d="M945.9531,1141.6406 L945.9531,1148.2969 L947.6719,1148.2969 Q948.2813,1148.2969 948.5469,1148.5313 Q948.8125,1148.7656 948.8125,1149.1563 Q948.8125,1149.5313 948.5469,1149.7656 Q948.2813,1150 947.6719,1150 L942.5313,1150 Q941.9219,1150 941.6563,1149.7656 Q941.3906,1149.5313 941.3906,1149.1406 Q941.3906,1148.7656 941.6563,1148.5313 Q941.9219,1148.2969 942.5313,1148.2969 L944.25,1148.2969 L944.25,1141.6406 L942.5313,1141.6406 Q941.9219,1141.6406 941.6563,1141.4063 Q941.3906,1141.1719 941.3906,1140.7813 Q941.3906,1140.4063 941.6563,1140.1719 Q941.9219,1139.9375 942.5313,1139.9375 L947.6719,1139.9375 Q948.2813,1139.9375 948.5469,1140.1719 Q948.8125,1140.4063 948.8125,1140.7813 Q948.8125,1141.1719 948.5469,1141.4063 Q948.2813,1141.6406 947.6719,1141.6406 L945.9531,1141.6406 Z " fill="#000000"/><text fill="#000000" font-family="sans-serif" font-size="14" font-style="italic" lengthAdjust="spacing" textLength="170" x="959" y="1150.7285">TicTacToePlayerController</text><line style="stroke:#181818;stroke-width:0.5;" x1="931" x2="1131" y1="1161" y2="1161"/><line style="stroke:#181818;stroke-width:0.5;" x1="931" x2="1131" y1="1169" y2="1169"/></g><!--MD5=[be6cf43ae500cdeffe28f30d60f26803]
class HangManController--><g id="elem_HangManController"><rect codeLine="88" fill="#F1F1F1" height="48" id="HangManController" rx="2.5" ry="2.5" style="stroke:#181818;stroke-width:0.5;" width="154" x="1188" y="977"/><ellipse cx="1203" cy="993" fill="#ADD1B2" rx="11" ry="11" style="stroke:#181818;stroke-width:1.0;"/><path d="M1205.7656,988.875 Q1205.9219,988.6563 1206.1094,988.5469 Q1206.2969,988.4375 1206.5156,988.4375 Q1206.8906,988.4375 1207.125,988.7031 Q1207.3594,988.9531 1207.3594,989.5625 L1207.3594,991.0156 Q1207.3594,991.625 1207.125,991.8906 Q1206.8906,992.1563 1206.5156,992.1563 Q1206.1719,992.1563 1205.9688,991.9531 Q1205.7656,991.7656 1205.6563,991.25 Q1205.6094,990.8906 1205.4219,990.7031 Q1205.0938,990.3281 1204.4844,990.1094 Q1203.875,989.8906 1203.25,989.8906 Q1202.4844,989.8906 1201.8438,990.2188 Q1201.2188,990.5469 1200.7188,991.2969 Q1200.2344,992.0469 1200.2344,993.0781 L1200.2344,994.1719 Q1200.2344,995.4063 1201.125,996.2344 Q1202.0156,997.0469 1203.6094,997.0469 Q1204.5469,997.0469 1205.2031,996.7969 Q1205.5938,996.6406 1206.0156,996.2031 Q1206.2813,995.9375 1206.4219,995.8594 Q1206.5781,995.7813 1206.7813,995.7813 Q1207.1094,995.7813 1207.3594,996.0469 Q1207.625,996.2969 1207.625,996.6406 Q1207.625,996.9844 1207.2813,997.3906 Q1206.7813,997.9688 1205.9844,998.2969 Q1204.9063,998.75 1203.6094,998.75 Q1202.0938,998.75 1200.8906,998.125 Q1199.9063,997.625 1199.2188,996.5625 Q1198.5313,995.4844 1198.5313,994.2031 L1198.5313,993.0469 Q1198.5313,991.7188 1199.1406,990.5781 Q1199.7656,989.4219 1200.8594,988.8125 Q1201.9531,988.1875 1203.1875,988.1875 Q1203.9219,988.1875 1204.5625,988.3594 Q1205.2188,988.5156 1205.7656,988.875 Z " fill="#000000"/><text fill="#000000" font-family="sans-serif" font-size="14" lengthAdjust="spacing" textLength="122" x="1217" y="998.7285">HangManController</text><line style="stroke:#181818;stroke-width:0.5;" x1="1189" x2="1341" y1="1009" y2="1009"/><line style="stroke:#181818;stroke-width:0.5;" x1="1189" x2="1341" y1="1017" y2="1017"/></g><!--MD5=[4203fa2c9e6d2cd6909288a67cbd8e03]
class HangManPlayerController--><g id="elem_HangManPlayerController"><rect codeLine="91" fill="#F1F1F1" height="48" id="HangManPlayerController" rx="2.5" ry="2.5" style="stroke:#181818;stroke-width:0.5;" width="196" x="1188" y="1129"/><ellipse cx="1203" cy="1145" fill="#B4A7E5" rx="11" ry="11" style="stroke:#181818;stroke-width:1.0;"/><path d="M1203.9531,1141.6406 L1203.9531,1148.2969 L1205.6719,1148.2969 Q1206.2813,1148.2969 1206.5469,1148.5313 Q1206.8125,1148.7656 1206.8125,1149.1563 Q1206.8125,1149.5313 1206.5469,1149.7656 Q1206.2813,1150 1205.6719,1150 L1200.5313,1150 Q1199.9219,1150 1199.6563,1149.7656 Q1199.3906,1149.5313 1199.3906,1149.1406 Q1199.3906,1148.7656 1199.6563,1148.5313 Q1199.9219,1148.2969 1200.5313,1148.2969 L1202.25,1148.2969 L1202.25,1141.6406 L1200.5313,1141.6406 Q1199.9219,1141.6406 1199.6563,1141.4063 Q1199.3906,1141.1719 1199.3906,1140.7813 Q1199.3906,1140.4063 1199.6563,1140.1719 Q1199.9219,1139.9375 1200.5313,1139.9375 L1205.6719,1139.9375 Q1206.2813,1139.9375 1206.5469,1140.1719 Q1206.8125,1140.4063 1206.8125,1140.7813 Q1206.8125,1141.1719 1206.5469,1141.4063 Q1206.2813,1141.6406 1205.6719,1141.6406 L1203.9531,1141.6406 Z " fill="#000000"/><text fill="#000000" font-family="sans-serif" font-size="14" font-style="italic" lengthAdjust="spacing" textLength="164" x="1217" y="1150.7285">HangManPlayerController</text><line style="stroke:#181818;stroke-width:0.5;" x1="1189" x2="1383" y1="1161" y2="1161"/><line style="stroke:#181818;stroke-width:0.5;" x1="1189" x2="1383" y1="1169" y2="1169"/></g><!--MD5=[6c6d1e40d155900b1d909db28d8f95d5]
class ListOfPlayersController--><g id="elem_ListOfPlayersController"><rect codeLine="106" fill="#F1F1F1" height="100.8281" id="ListOfPlayersController" rx="2.5" ry="2.5" style="stroke:#181818;stroke-width:0.5;" width="199" x="1227.5" y="595"/><ellipse cx="1251.95" cy="611" fill="#ADD1B2" rx="11" ry="11" style="stroke:#181818;stroke-width:1.0;"/><path d="M1254.7156,606.875 Q1254.8719,606.6563 1255.0594,606.5469 Q1255.2469,606.4375 1255.4656,606.4375 Q1255.8406,606.4375 1256.075,606.7031 Q1256.3094,606.9531 1256.3094,607.5625 L1256.3094,609.0156 Q1256.3094,609.625 1256.075,609.8906 Q1255.8406,610.1563 1255.4656,610.1563 Q1255.1219,610.1563 1254.9188,609.9531 Q1254.7156,609.7656 1254.6063,609.25 Q1254.5594,608.8906 1254.3719,608.7031 Q1254.0438,608.3281 1253.4344,608.1094 Q1252.825,607.8906 1252.2,607.8906 Q1251.4344,607.8906 1250.7938,608.2188 Q1250.1688,608.5469 1249.6688,609.2969 Q1249.1844,610.0469 1249.1844,611.0781 L1249.1844,612.1719 Q1249.1844,613.4063 1250.075,614.2344 Q1250.9656,615.0469 1252.5594,615.0469 Q1253.4969,615.0469 1254.1531,614.7969 Q1254.5438,614.6406 1254.9656,614.2031 Q1255.2313,613.9375 1255.3719,613.8594 Q1255.5281,613.7813 1255.7313,613.7813 Q1256.0594,613.7813 1256.3094,614.0469 Q1256.575,614.2969 1256.575,614.6406 Q1256.575,614.9844 1256.2313,615.3906 Q1255.7313,615.9688 1254.9344,616.2969 Q1253.8563,616.75 1252.5594,616.75 Q1251.0438,616.75 1249.8406,616.125 Q1248.8563,615.625 1248.1688,614.5625 Q1247.4813,613.4844 1247.4813,612.2031 L1247.4813,611.0469 Q1247.4813,609.7188 1248.0906,608.5781 Q1248.7156,607.4219 1249.8094,606.8125 Q1250.9031,606.1875 1252.1375,606.1875 Q1252.8719,606.1875 1253.5125,606.3594 Q1254.1688,606.5156 1254.7156,606.875 Z " fill="#000000"/><text fill="#000000" font-family="sans-serif" font-size="14" lengthAdjust="spacing" textLength="146" x="1268.05" y="616.7285">ListOfPlayersController</text><line style="stroke:#181818;stroke-width:0.5;" x1="1228.5" x2="1425.5" y1="627" y2="627"/><ellipse cx="1238.5" cy="638" fill="none" rx="3" ry="3" style="stroke:#038048;stroke-width:1.0;"/><text fill="#000000" font-family="sans-serif" font-size="14" lengthAdjust="spacing" textLength="150" x="1247.5" y="645.5332">List&lt;Player&gt; playersList</text><line style="stroke:#181818;stroke-width:0.5;" x1="1228.5" x2="1425.5" y1="652.6094" y2="652.6094"/><ellipse cx="1238.5" cy="663.6094" fill="#84BE84" rx="3" ry="3" style="stroke:#038048;stroke-width:1.0;"/><text fill="#000000" font-family="sans-serif" font-size="14" lengthAdjust="spacing" textLength="173" x="1247.5" y="671.1426">createPlayer(Player player)</text><ellipse cx="1238.5" cy="681.2188" fill="#84BE84" rx="3" ry="3" style="stroke:#038048;stroke-width:1.0;"/><text fill="#000000" font-family="sans-serif" font-size="14" lengthAdjust="spacing" textLength="100" x="1247.5" y="688.752">getPlayer(int id)</text></g><!--MD5=[e10552ebcc634954ffb254e345666c67]
class GamesPlatform--><g id="elem_GamesPlatform"><rect codeLine="116" fill="#F1F1F1" height="118.4375" id="GamesPlatform" rx="2.5" ry="2.5" style="stroke:#181818;stroke-width:0.5;" width="177" x="22.5" y="1094"/><ellipse cx="59.1" cy="1110" fill="#ADD1B2" rx="11" ry="11" style="stroke:#181818;stroke-width:1.0;"/><path d="M61.8656,1105.875 Q62.0219,1105.6563 62.2094,1105.5469 Q62.3969,1105.4375 62.6156,1105.4375 Q62.9906,1105.4375 63.225,1105.7031 Q63.4594,1105.9531 63.4594,1106.5625 L63.4594,1108.0156 Q63.4594,1108.625 63.225,1108.8906 Q62.9906,1109.1563 62.6156,1109.1563 Q62.2719,1109.1563 62.0688,1108.9531 Q61.8656,1108.7656 61.7563,1108.25 Q61.7094,1107.8906 61.5219,1107.7031 Q61.1938,1107.3281 60.5844,1107.1094 Q59.975,1106.8906 59.35,1106.8906 Q58.5844,1106.8906 57.9438,1107.2188 Q57.3188,1107.5469 56.8188,1108.2969 Q56.3344,1109.0469 56.3344,1110.0781 L56.3344,1111.1719 Q56.3344,1112.4063 57.225,1113.2344 Q58.1156,1114.0469 59.7094,1114.0469 Q60.6469,1114.0469 61.3031,1113.7969 Q61.6938,1113.6406 62.1156,1113.2031 Q62.3813,1112.9375 62.5219,1112.8594 Q62.6781,1112.7813 62.8813,1112.7813 Q63.2094,1112.7813 63.4594,1113.0469 Q63.725,1113.2969 63.725,1113.6406 Q63.725,1113.9844 63.3813,1114.3906 Q62.8813,1114.9688 62.0844,1115.2969 Q61.0063,1115.75 59.7094,1115.75 Q58.1938,1115.75 56.9906,1115.125 Q56.0063,1114.625 55.3188,1113.5625 Q54.6313,1112.4844 54.6313,1111.2031 L54.6313,1110.0469 Q54.6313,1108.7188 55.2406,1107.5781 Q55.8656,1106.4219 56.9594,1105.8125 Q58.0531,1105.1875 59.2875,1105.1875 Q60.0219,1105.1875 60.6625,1105.3594 Q61.3188,1105.5156 61.8656,1105.875 Z " fill="#000000"/><text fill="#000000" font-family="sans-serif" font-size="14" lengthAdjust="spacing" textLength="97" x="77.9" y="1115.7285">GamesPlatform</text><line style="stroke:#181818;stroke-width:0.5;" x1="23.5" x2="198.5" y1="1126" y2="1126"/><line style="stroke:#181818;stroke-width:0.5;" x1="23.5" x2="198.5" y1="1134" y2="1134"/><ellipse cx="33.5" cy="1145" fill="#84BE84" rx="3" ry="3" style="stroke:#038048;stroke-width:1.0;"/><text fill="#000000" font-family="sans-serif" font-size="14" lengthAdjust="spacing" textLength="89" x="42.5" y="1152.5332">showPlayers()</text><ellipse cx="33.5" cy="1162.6094" fill="#84BE84" rx="3" ry="3" style="stroke:#038048;stroke-width:1.0;"/><text fill="#000000" font-family="sans-serif" font-size="14" lengthAdjust="spacing" textLength="90" x="42.5" y="1170.1426">createPlayer()</text><ellipse cx="33.5" cy="1180.2188" fill="#84BE84" rx="3" ry="3" style="stroke:#038048;stroke-width:1.0;"/><text fill="#000000" font-family="sans-serif" font-size="14" lengthAdjust="spacing" textLength="151" x="42.5" y="1187.752">playGame(Game game)</text><ellipse cx="33.5" cy="1197.8281" fill="#84BE84" rx="3" ry="3" style="stroke:#038048;stroke-width:1.0;"/><text fill="#000000" font-family="sans-serif" font-size="14" lengthAdjust="spacing" textLength="77" x="42.5" y="1205.3613">showMenu()</text></g><!--MD5=[b6dcce5e5ef3c84b0b048d11301373dd]
class Game--><g id="elem_Game"><rect codeLine="123" fill="#F1F1F1" height="83.2188" id="Game" rx="2.5" ry="2.5" style="stroke:#181818;stroke-width:0.5;" width="110" x="454" y="1111.5"/><ellipse cx="487" cy="1127.5" fill="#ADD1B2" rx="11" ry="11" style="stroke:#181818;stroke-width:1.0;"/><path d="M489.7656,1123.375 Q489.9219,1123.1563 490.1094,1123.0469 Q490.2969,1122.9375 490.5156,1122.9375 Q490.8906,1122.9375 491.125,1123.2031 Q491.3594,1123.4531 491.3594,1124.0625 L491.3594,1125.5156 Q491.3594,1126.125 491.125,1126.3906 Q490.8906,1126.6563 490.5156,1126.6563 Q490.1719,1126.6563 489.9688,1126.4531 Q489.7656,1126.2656 489.6563,1125.75 Q489.6094,1125.3906 489.4219,1125.2031 Q489.0938,1124.8281 488.4844,1124.6094 Q487.875,1124.3906 487.25,1124.3906 Q486.4844,1124.3906 485.8438,1124.7188 Q485.2188,1125.0469 484.7188,1125.7969 Q484.2344,1126.5469 484.2344,1127.5781 L484.2344,1128.6719 Q484.2344,1129.9063 485.125,1130.7344 Q486.0156,1131.5469 487.6094,1131.5469 Q488.5469,1131.5469 489.2031,1131.2969 Q489.5938,1131.1406 490.0156,1130.7031 Q490.2813,1130.4375 490.4219,1130.3594 Q490.5781,1130.2813 490.7813,1130.2813 Q491.1094,1130.2813 491.3594,1130.5469 Q491.625,1130.7969 491.625,1131.1406 Q491.625,1131.4844 491.2813,1131.8906 Q490.7813,1132.4688 489.9844,1132.7969 Q488.9063,1133.25 487.6094,1133.25 Q486.0938,1133.25 484.8906,1132.625 Q483.9063,1132.125 483.2188,1131.0625 Q482.5313,1129.9844 482.5313,1128.7031 L482.5313,1127.5469 Q482.5313,1126.2188 483.1406,1125.0781 Q483.7656,1123.9219 484.8594,1123.3125 Q485.9531,1122.6875 487.1875,1122.6875 Q487.9219,1122.6875 488.5625,1122.8594 Q489.2188,1123.0156 489.7656,1123.375 Z " fill="#000000"/><text fill="#000000" font-family="sans-serif" font-size="14" lengthAdjust="spacing" textLength="38" x="505" y="1133.2285">Game</text><line style="stroke:#181818;stroke-width:0.5;" x1="455" x2="563" y1="1143.5" y2="1143.5"/><line style="stroke:#181818;stroke-width:0.5;" x1="455" x2="563" y1="1151.5" y2="1151.5"/><ellipse cx="465" cy="1162.5" fill="#84BE84" rx="3" ry="3" style="stroke:#038048;stroke-width:1.0;"/><text fill="#000000" font-family="sans-serif" font-size="14" lengthAdjust="spacing" textLength="84" x="474" y="1170.0332">Introduction()</text><ellipse cx="465" cy="1180.1094" fill="#84BE84" rx="3" ry="3" style="stroke:#038048;stroke-width:1.0;"/><text fill="#000000" font-family="sans-serif" font-size="14" lengthAdjust="spacing" textLength="62" x="474" y="1187.6426">Resume()</text></g><!--MD5=[36f719b1cbc3f26b5758ea249b208fb4]
class TicTacToe--><g id="elem_TicTacToe"><rect codeLine="128" fill="#F1F1F1" height="48" id="TicTacToe" rx="2.5" ry="2.5" style="stroke:#181818;stroke-width:0.5;" width="100" x="599" y="1129"/><ellipse cx="614" cy="1145" fill="#ADD1B2" rx="11" ry="11" style="stroke:#181818;stroke-width:1.0;"/><path d="M616.7656,1140.875 Q616.9219,1140.6563 617.1094,1140.5469 Q617.2969,1140.4375 617.5156,1140.4375 Q617.8906,1140.4375 618.125,1140.7031 Q618.3594,1140.9531 618.3594,1141.5625 L618.3594,1143.0156 Q618.3594,1143.625 618.125,1143.8906 Q617.8906,1144.1563 617.5156,1144.1563 Q617.1719,1144.1563 616.9688,1143.9531 Q616.7656,1143.7656 616.6563,1143.25 Q616.6094,1142.8906 616.4219,1142.7031 Q616.0938,1142.3281 615.4844,1142.1094 Q614.875,1141.8906 614.25,1141.8906 Q613.4844,1141.8906 612.8438,1142.2188 Q612.2188,1142.5469 611.7188,1143.2969 Q611.2344,1144.0469 611.2344,1145.0781 L611.2344,1146.1719 Q611.2344,1147.4063 612.125,1148.2344 Q613.0156,1149.0469 614.6094,1149.0469 Q615.5469,1149.0469 616.2031,1148.7969 Q616.5938,1148.6406 617.0156,1148.2031 Q617.2813,1147.9375 617.4219,1147.8594 Q617.5781,1147.7813 617.7813,1147.7813 Q618.1094,1147.7813 618.3594,1148.0469 Q618.625,1148.2969 618.625,1148.6406 Q618.625,1148.9844 618.2813,1149.3906 Q617.7813,1149.9688 616.9844,1150.2969 Q615.9063,1150.75 614.6094,1150.75 Q613.0938,1150.75 611.8906,1150.125 Q610.9063,1149.625 610.2188,1148.5625 Q609.5313,1147.4844 609.5313,1146.2031 L609.5313,1145.0469 Q609.5313,1143.7188 610.1406,1142.5781 Q610.7656,1141.4219 611.8594,1140.8125 Q612.9531,1140.1875 614.1875,1140.1875 Q614.9219,1140.1875 615.5625,1140.3594 Q616.2188,1140.5156 616.7656,1140.875 Z " fill="#000000"/><text fill="#000000" font-family="sans-serif" font-size="14" lengthAdjust="spacing" textLength="68" x="628" y="1150.7285">TicTacToe</text><line style="stroke:#181818;stroke-width:0.5;" x1="600" x2="698" y1="1161" y2="1161"/><line style="stroke:#181818;stroke-width:0.5;" x1="600" x2="698" y1="1169" y2="1169"/></g><!--MD5=[d7731e51439e3250c63a8cdcafb59da5]
class HangMan--><g id="elem_HangMan"><rect codeLine="131" fill="#F1F1F1" height="48" id="HangMan" rx="2.5" ry="2.5" style="stroke:#181818;stroke-width:0.5;" width="92" x="734" y="1129"/><ellipse cx="749" cy="1145" fill="#ADD1B2" rx="11" ry="11" style="stroke:#181818;stroke-width:1.0;"/><path d="M751.7656,1140.875 Q751.9219,1140.6563 752.1094,1140.5469 Q752.2969,1140.4375 752.5156,1140.4375 Q752.8906,1140.4375 753.125,1140.7031 Q753.3594,1140.9531 753.3594,1141.5625 L753.3594,1143.0156 Q753.3594,1143.625 753.125,1143.8906 Q752.8906,1144.1563 752.5156,1144.1563 Q752.1719,1144.1563 751.9688,1143.9531 Q751.7656,1143.7656 751.6563,1143.25 Q751.6094,1142.8906 751.4219,1142.7031 Q751.0938,1142.3281 750.4844,1142.1094 Q749.875,1141.8906 749.25,1141.8906 Q748.4844,1141.8906 747.8438,1142.2188 Q747.2188,1142.5469 746.7188,1143.2969 Q746.2344,1144.0469 746.2344,1145.0781 L746.2344,1146.1719 Q746.2344,1147.4063 747.125,1148.2344 Q748.0156,1149.0469 749.6094,1149.0469 Q750.5469,1149.0469 751.2031,1148.7969 Q751.5938,1148.6406 752.0156,1148.2031 Q752.2813,1147.9375 752.4219,1147.8594 Q752.5781,1147.7813 752.7813,1147.7813 Q753.1094,1147.7813 753.3594,1148.0469 Q753.625,1148.2969 753.625,1148.6406 Q753.625,1148.9844 753.2813,1149.3906 Q752.7813,1149.9688 751.9844,1150.2969 Q750.9063,1150.75 749.6094,1150.75 Q748.0938,1150.75 746.8906,1150.125 Q745.9063,1149.625 745.2188,1148.5625 Q744.5313,1147.4844 744.5313,1146.2031 L744.5313,1145.0469 Q744.5313,1143.7188 745.1406,1142.5781 Q745.7656,1141.4219 746.8594,1140.8125 Q747.9531,1140.1875 749.1875,1140.1875 Q749.9219,1140.1875 750.5625,1140.3594 Q751.2188,1140.5156 751.7656,1140.875 Z " fill="#000000"/><text fill="#000000" font-family="sans-serif" font-size="14" lengthAdjust="spacing" textLength="60" x="763" y="1150.7285">HangMan</text><line style="stroke:#181818;stroke-width:0.5;" x1="735" x2="825" y1="1161" y2="1161"/><line style="stroke:#181818;stroke-width:0.5;" x1="735" x2="825" y1="1169" y2="1169"/></g><!--MD5=[82a37a108f28ded8fb022e1a5df25ae5]
class ListOfPlayers--><g id="elem_ListOfPlayers"><rect codeLine="135" fill="#F1F1F1" height="100.8281" id="ListOfPlayers" rx="2.5" ry="2.5" style="stroke:#181818;stroke-width:0.5;" width="184" x="235" y="1102.5"/><ellipse cx="280.75" cy="1118.5" fill="#ADD1B2" rx="11" ry="11" style="stroke:#181818;stroke-width:1.0;"/><path d="M283.5156,1114.375 Q283.6719,1114.1563 283.8594,1114.0469 Q284.0469,1113.9375 284.2656,1113.9375 Q284.6406,1113.9375 284.875,1114.2031 Q285.1094,1114.4531 285.1094,1115.0625 L285.1094,1116.5156 Q285.1094,1117.125 284.875,1117.3906 Q284.6406,1117.6563 284.2656,1117.6563 Q283.9219,1117.6563 283.7188,1117.4531 Q283.5156,1117.2656 283.4063,1116.75 Q283.3594,1116.3906 283.1719,1116.2031 Q282.8438,1115.8281 282.2344,1115.6094 Q281.625,1115.3906 281,1115.3906 Q280.2344,1115.3906 279.5938,1115.7188 Q278.9688,1116.0469 278.4688,1116.7969 Q277.9844,1117.5469 277.9844,1118.5781 L277.9844,1119.6719 Q277.9844,1120.9063 278.875,1121.7344 Q279.7656,1122.5469 281.3594,1122.5469 Q282.2969,1122.5469 282.9531,1122.2969 Q283.3438,1122.1406 283.7656,1121.7031 Q284.0313,1121.4375 284.1719,1121.3594 Q284.3281,1121.2813 284.5313,1121.2813 Q284.8594,1121.2813 285.1094,1121.5469 Q285.375,1121.7969 285.375,1122.1406 Q285.375,1122.4844 285.0313,1122.8906 Q284.5313,1123.4688 283.7344,1123.7969 Q282.6563,1124.25 281.3594,1124.25 Q279.8438,1124.25 278.6406,1123.625 Q277.6563,1123.125 276.9688,1122.0625 Q276.2813,1120.9844 276.2813,1119.7031 L276.2813,1118.5469 Q276.2813,1117.2188 276.8906,1116.0781 Q277.5156,1114.9219 278.6094,1114.3125 Q279.7031,1113.6875 280.9375,1113.6875 Q281.6719,1113.6875 282.3125,1113.8594 Q282.9688,1114.0156 283.5156,1114.375 Z " fill="#000000"/><text fill="#000000" font-family="sans-serif" font-size="14" lengthAdjust="spacing" textLength="84" x="301.25" y="1124.2285">ListOfPlayers</text><line style="stroke:#181818;stroke-width:0.5;" x1="236" x2="418" y1="1134.5" y2="1134.5"/><line style="stroke:#181818;stroke-width:0.5;" x1="236" x2="418" y1="1142.5" y2="1142.5"/><ellipse cx="246" cy="1153.5" fill="#84BE84" rx="3" ry="3" style="stroke:#038048;stroke-width:1.0;"/><text fill="#000000" font-family="sans-serif" font-size="14" lengthAdjust="spacing" textLength="52" x="255" y="1161.0332">getList()</text><ellipse cx="246" cy="1171.1094" fill="#84BE84" rx="3" ry="3" style="stroke:#038048;stroke-width:1.0;"/><text fill="#000000" font-family="sans-serif" font-size="14" lengthAdjust="spacing" textLength="60" x="255" y="1178.6426">printList()</text><ellipse cx="246" cy="1188.7188" fill="#84BE84" rx="3" ry="3" style="stroke:#038048;stroke-width:1.0;"/><text fill="#000000" font-family="sans-serif" font-size="14" lengthAdjust="spacing" textLength="158" x="255" y="1196.252">getGamePlayers(int size)</text></g><!--MD5=[f67dd3c3e51d4023034ce19e0947172b]
reverse link Square to Piece--><g id="link_Square_Piece"><path codeLine="43" d="M2013.26,173.48 C2012.98,201.09 2012.66,231.67 2012.42,255.38 " fill="none" id="Square-backto-Piece" style="stroke:#181818;stroke-width:1.0;"/><polygon fill="none" points="2013.4,160.21,2009.3409,166.1701,2013.2813,172.2094,2017.3405,166.2493,2013.4,160.21" style="stroke:#181818;stroke-width:1.0;"/></g><!--MD5=[55d64a43c9fbbd0c57ec275f67dff253]
reverse link Round to Player--><g id="link_Round_Player"><path codeLine="45" d="M1772.76,387.55 C1772.63,403.46 1773.52,419.49 1775.44,433.78 " fill="none" id="Round-backto-Player" style="stroke:#181818;stroke-width:1.0;"/><polygon fill="#181818" points="1773.12,374.25,1768.9632,380.1425,1772.8036,386.2458,1776.9604,380.3534,1773.12,374.25" style="stroke:#181818;stroke-width:1.0;"/><text fill="#000000" font-family="sans-serif" font-size="13" lengthAdjust="spacing" textLength="48" x="1720.7519" y="423.0544">Player 1</text></g><!--MD5=[55d64a43c9fbbd0c57ec275f67dff253]
reverse link Round to Player--><g id="link_Round_Player"><path codeLine="46" d="M1799,387.55 C1799,403.46 1799,419.49 1799,433.78 " fill="none" id="Round-backto-Player-1" style="stroke:#181818;stroke-width:1.0;"/><polygon fill="#181818" points="1799,374.25,1795,380.25,1799,386.25,1803,380.25,1799,374.25" style="stroke:#181818;stroke-width:1.0;"/><text fill="#000000" font-family="sans-serif" font-size="13" lengthAdjust="spacing" textLength="48" x="1802.375" y="423.0544">Player 2</text></g><!--MD5=[55d64a43c9fbbd0c57ec275f67dff253]
reverse link Round to Player--><g id="link_Round_Player"><path codeLine="47" d="M1825.24,387.55 C1825.37,403.46 1824.48,419.49 1822.56,433.78 " fill="none" id="Round-backto-Player-2" style="stroke:#181818;stroke-width:1.0;"/><polygon fill="#181818" points="1824.88,374.25,1821.0396,380.3534,1825.1964,386.2458,1829.0368,380.1425,1824.88,374.25" style="stroke:#181818;stroke-width:1.0;"/><text fill="#000000" font-family="sans-serif" font-size="13" lengthAdjust="spacing" textLength="41" x="1781.9903" y="423.0544">Winner</text></g><!--MD5=[f7ff9e901bf9f1bebf511a8077eb4f52]
reverse link Square to Round--><g id="link_Square_Round"><path codeLine="49" d="M1958.01,152.76 C1955.3,155.21 1952.62,157.63 1950,160 C1923.43,184.01 1894.19,210.36 1868.58,233.42 " fill="none" id="Square-backto-Round" style="stroke:#181818;stroke-width:1.0;"/><polygon fill="#181818" points="1967.87,143.83,1960.7374,144.891,1958.9734,151.883,1966.1061,150.822,1967.87,143.83" style="stroke:#181818;stroke-width:1.0;"/></g><!--MD5=[cb02c96b642da5c7c708bc3e89afb5b1]
reverse link Player to TypePlayer--><g id="link_Player_TypePlayer"><path codeLine="52" d="M1799,548.63 C1799,567.23 1799,587.07 1799,603.85 " fill="none" id="Player-backto-TypePlayer" style="stroke:#181818;stroke-width:1.0;"/><polygon fill="#181818" points="1799,535.37,1795,541.37,1799,547.37,1803,541.37,1799,535.37" style="stroke:#181818;stroke-width:1.0;"/></g><!--MD5=[a6e9f244e90846485a04bb26007abd3c]
reverse link Letter to Round--><g id="link_Letter_Round"><path codeLine="53" d="M1843.45,172.81 C1837.93,188.11 1832.06,204.36 1826.47,219.87 " fill="none" id="Letter-backto-Round" style="stroke:#181818;stroke-width:1.0;"/><polygon fill="#181818" points="1848,160.21,1842.2004,164.4954,1843.9256,171.4971,1849.7252,167.2117,1848,160.21" style="stroke:#181818;stroke-width:1.0;"/></g><!--MD5=[e5f01086500c82650ddae89aee8c731c]
link TypeGame to Round--><g id="link_TypeGame_Round"><path codeLine="55" d="M1735.77,142.67 C1743.58,161.6 1753.19,184.91 1762.54,207.59 " fill="none" id="TypeGame-to-Round" style="stroke:#181818;stroke-width:1.0;"/><polygon fill="#181818" points="1767.55,219.73,1768.9621,212.6585,1762.9777,208.6352,1761.5656,215.7067,1767.55,219.73" style="stroke:#181818;stroke-width:1.0;"/></g><!--MD5=[f145421ccc12813dafeb3a4d9b83df7c]
reverse link GamesPlatformController to GameController--><g id="link_GamesPlatformController_GameController"><path codeLine="143" d="M1102,548.28 C1102,611.08 1102,707.34 1102,771.69 " fill="none" id="GamesPlatformController-backto-GameController" style="stroke:#181818;stroke-width:1.0;"/><polygon fill="#181818" points="1102,535.02,1098,541.02,1102,547.02,1106,541.02,1102,535.02" style="stroke:#181818;stroke-width:1.0;"/><text fill="#000000" font-family="sans-serif" font-size="13" lengthAdjust="spacing" textLength="7" x="1094.6391" y="761.3314">2</text></g><!--MD5=[25f9ed02b152c37330d1f397cff7ee23]
reverse link GamesPlatformController to ListOfPlayersController--><g id="link_GamesPlatformController_ListOfPlayersController"><path codeLine="144" d="M1209.96,541.56 C1214.77,544.65 1219.47,547.8 1224,551 C1242.35,563.96 1260.96,579.84 1277.22,594.81 " fill="none" id="GamesPlatformController-backto-ListOfPlayersController" style="stroke:#181818;stroke-width:1.0;"/><polygon fill="#181818" points="1198.58,534.47,1201.5572,541.0378,1208.7649,540.8158,1205.7877,534.2479,1198.58,534.47" style="stroke:#181818;stroke-width:1.0;"/></g><!--MD5=[cab3c98c679434880e3f59a3009c1634]
reverse link GameController to TicTacToeController--><g id="link_GameController_TicTacToeController"><path codeLine="146" d="M1063.66,926.86 C1055.44,945.28 1047.42,963.24 1041.38,976.75 " fill="none" id="GameController-backto-TicTacToeController" style="stroke:#181818;stroke-width:1.0;"/><polygon fill="none" points="1057.34,923.84,1071.89,908.43,1070.13,929.55,1057.34,923.84" style="stroke:#181818;stroke-width:1.0;"/></g><!--MD5=[c6f16c22818e4082500239e5ce23de2d]
reverse link GameController to HangManController--><g id="link_GameController_HangManController"><path codeLine="147" d="M1185.58,922.53 C1205.99,942.44 1226.23,962.18 1241.17,976.75 " fill="none" id="GameController-backto-HangManController" style="stroke:#181818;stroke-width:1.0;"/><polygon fill="none" points="1180.56,927.41,1171.13,908.43,1190.33,917.38,1180.56,927.41" style="stroke:#181818;stroke-width:1.0;"/></g><!--MD5=[82cd6c5f58dd0dca14c3e3f65da46cfd]
link GameController to GamePlayersProviderController--><g id="link_GameController_GamePlayersProviderController"><path codeLine="148" d="M1253.79,840 C1263.77,840 1273.75,840 1283.73,840 " fill="none" id="GameController-to-GamePlayersProviderController" style="stroke:#181818;stroke-width:1.0;"/><polygon fill="#181818" points="1288.95,840,1279.95,836,1283.95,840,1279.95,844,1288.95,840" style="stroke:#181818;stroke-width:1.0;"/></g><!--MD5=[7f78b7e7aca9a77aed73f2d8b12fdc92]
reverse link GameController to GamePlayerController--><g id="link_GameController_GamePlayerController"><path codeLine="149" d="M1265.98,906.21 C1267.99,906.82 1270,907.42 1272,908 C1327.64,924.25 1346.32,911.12 1400,933 C1421.39,941.72 1443.05,955.16 1460.88,967.72 " fill="none" id="GameController-backto-GamePlayerController" style="stroke:#181818;stroke-width:1.0;"/><polygon fill="#181818" points="1253.52,902.3,1258.0494,907.9111,1264.9709,905.8883,1260.4416,900.2772,1253.52,902.3" style="stroke:#181818;stroke-width:1.0;"/></g><!--MD5=[ab40d275b2281ead795d842556714fd6]
reverse link Dice to GameController--><g id="link_Dice_GameController"><path codeLine="151" d="M1749.31,1114.96 C1726.9,1063.97 1678.92,973.82 1606,933 C1541.05,896.65 1344.55,924.61 1272,908 C1265.97,906.62 1259.87,905.06 1253.75,903.36 " fill="none" id="Dice-backto-GameController" style="stroke:#181818;stroke-width:1.0;stroke-dasharray:7.0,7.0;"/><polygon fill="#181818" points="1751.4,1119.77,1751.4943,1109.9216,1749.4132,1115.1817,1744.1531,1113.1005,1751.4,1119.77" style="stroke:#181818;stroke-width:1.0;"/></g><!--MD5=[78bd046b727c22a96fe08298bc5af118]
link GamePlayerController to Dice--><g id="link_GamePlayerController_Dice"><path codeLine="152" d="M1558.21,1034.18 C1600.94,1058.65 1659.65,1092.26 1703.43,1117.32 " fill="none" id="GamePlayerController-to-Dice" style="stroke:#181818;stroke-width:1.0;stroke-dasharray:7.0,7.0;"/><polygon fill="#181818" points="1707.89,1119.87,1702.066,1111.9277,1703.5505,1117.3862,1698.092,1118.8708,1707.89,1119.87" style="stroke:#181818;stroke-width:1.0;"/></g><!--MD5=[75f886b28ecf38c0bd6a0d2fd8bde192]
link ListOfPlayersController to GamePlayersProviderController--><g id="link_ListOfPlayersController_GamePlayersProviderController"><path codeLine="154" d="M1349.92,696.07 C1363.02,724.4 1379.41,759.85 1392.59,788.36 " fill="none" id="ListOfPlayersController-to-GamePlayersProviderController" style="stroke:#181818;stroke-width:1.0;stroke-dasharray:7.0,7.0;"/><polygon fill="none" points="1399.08,785.72,1401.12,806.81,1386.37,791.6,1399.08,785.72" style="stroke:#181818;stroke-width:1.0;"/></g><!--MD5=[775a5ea1fc6e6deaa59a0010140416bf]
reverse link TicTacToeController to TicTacToePlayerController--><g id="link_TicTacToeController_TicTacToePlayerController"><path codeLine="156" d="M1031,1038.38 C1031,1066.46 1031,1104.47 1031,1128.62 " fill="none" id="TicTacToeController-backto-TicTacToePlayerController" style="stroke:#181818;stroke-width:1.0;"/><polygon fill="#181818" points="1031,1025.11,1027,1031.11,1031,1037.11,1035,1031.11,1031,1025.11" style="stroke:#181818;stroke-width:1.0;"/></g><!--MD5=[9daa5ab58c5b47831a409ab8d5aa080b]
reverse link HangManController to HangManPlayerController--><g id="link_HangManController_HangManPlayerController"><path codeLine="157" d="M1270.04,1037.99 C1273.98,1066.11 1279.33,1104.36 1282.73,1128.62 " fill="none" id="HangManController-backto-HangManPlayerController" style="stroke:#181818;stroke-width:1.0;"/><polygon fill="#181818" points="1268.24,1025.11,1265.1095,1031.6062,1269.902,1036.9944,1273.0324,1030.4982,1268.24,1025.11" style="stroke:#181818;stroke-width:1.0;"/></g><!--MD5=[0394a55d07d3a544b0c3d1e34e555f8e]
link GamePlayerController to TicTacToePlayerController--><g id="link_GamePlayerController_TicTacToePlayerController"><path codeLine="159" d="M1415.82,1030.57 C1410.5,1031.86 1405.2,1033.02 1400,1034 C1300.19,1052.89 1267.49,1015.34 1172,1050 C1133.19,1064.08 1095.64,1092.19 1069.06,1115.34 " fill="none" id="GamePlayerController-to-TicTacToePlayerController" style="stroke:#181818;stroke-width:1.0;stroke-dasharray:7.0,7.0;"/><polygon fill="none" points="1073.55,1120.72,1054.02,1128.94,1064.16,1110.34,1073.55,1120.72" style="stroke:#181818;stroke-width:1.0;"/></g><!--MD5=[ee930f9a9c7ab36e5d793230c8fc11c2]
link GamePlayerController to HangManPlayerController--><g id="link_GamePlayerController_HangManPlayerController"><path codeLine="160" d="M1455.66,1034.18 C1420.4,1058.67 1371.95,1092.31 1335.85,1117.38 " fill="none" id="GamePlayerController-to-HangManPlayerController" style="stroke:#181818;stroke-width:1.0;stroke-dasharray:7.0,7.0;"/><polygon fill="none" points="1339.66,1123.26,1319.24,1128.92,1331.67,1111.76,1339.66,1123.26" style="stroke:#181818;stroke-width:1.0;"/></g><!--MD5=[9fef192e4236abd5e2d4920e521483b4]
reverse link GamesPlatformController to GamesPlatform--><g id="link_GamesPlatformController_GamesPlatform"><path codeLine="163" d="M1000.75,523.95 C894.3,566.5 724,640.74 590,728 C406.48,847.51 378.85,902.46 217,1050 C201.62,1064.02 185.29,1079.45 170.17,1093.98 " fill="none" id="GamesPlatformController-backto-GamesPlatform" style="stroke:#181818;stroke-width:1.0;stroke-dasharray:7.0,7.0;"/><polygon fill="#181818" points="1005.46,522.07,995.6192,521.6725,1000.8127,523.9146,998.5706,529.1082,1005.46,522.07" style="stroke:#181818;stroke-width:1.0;"/></g><!--MD5=[c2df5b70d822c5ff749b26a084f40120]
link Game to GameController--><g id="link_Game_GameController"><path codeLine="164" d="M530.58,1111.41 C543.26,1090.74 560.94,1066.55 582,1050 C689.43,965.6 835.45,910.91 945.41,878.73 " fill="none" id="Game-to-GameController" style="stroke:#181818;stroke-width:1.0;stroke-dasharray:7.0,7.0;"/><polygon fill="#181818" points="950.28,877.31,940.52,875.99,945.48,878.71,942.76,883.67,950.28,877.31" style="stroke:#181818;stroke-width:1.0;"/></g><!--MD5=[8b6e57fbb7cda1737f2cde0ee74afed7]
reverse link HangManController to HangMan--><g id="link_HangManController_HangMan"><path codeLine="165" d="M1184.19,1026.34 C1172.15,1029.31 1159.81,1032 1148,1034 C1096.61,1042.7 962.79,1031.67 914,1050 C868.84,1066.97 826.23,1104.44 801.64,1128.93 " fill="none" id="HangManController-backto-HangMan" style="stroke:#181818;stroke-width:1.0;stroke-dasharray:7.0,7.0;"/><polygon fill="#181818" points="1189.34,1025.04,1179.6374,1023.349,1184.4901,1026.256,1181.5831,1031.1088,1189.34,1025.04" style="stroke:#181818;stroke-width:1.0;"/></g><!--MD5=[9fd5f81302634c50fff6d14cf98bb87a]
reverse link TicTacToeController to TicTacToe--><g id="link_TicTacToeController_TicTacToe"><path codeLine="166" d="M944.75,1007.39 C865.13,1013.75 753.81,1026.55 717,1050 C687.74,1068.64 668.17,1104.89 657.82,1128.78 " fill="none" id="TicTacToeController-backto-TicTacToe" style="stroke:#181818;stroke-width:1.0;stroke-dasharray:7.0,7.0;"/><polygon fill="#181818" points="949.95,1006.98,940.6683,1003.6861,944.9649,1007.3657,941.2853,1011.6623,949.95,1006.98" style="stroke:#181818;stroke-width:1.0;"/></g><!--MD5=[9d04c33ff40afaa7c20073565e227ebc]
reverse link ListOfPlayersController to ListOfPlayers--><g id="link_ListOfPlayersController_ListOfPlayers"><path codeLine="168" d="M1222.11,653.46 C1131.27,662.4 997.87,682.62 890,728 C673.73,818.99 465.58,1011.55 374.72,1102.48 " fill="none" id="ListOfPlayersController-backto-ListOfPlayers" style="stroke:#181818;stroke-width:1.0;stroke-dasharray:7.0,7.0;"/><polygon fill="#181818" points="1227.22,652.97,1217.8737,649.8641,1222.2437,653.4562,1218.6516,657.8262,1227.22,652.97" style="stroke:#181818;stroke-width:1.0;"/></g><!--MD5=[cd689fa6762434ff100cd22eaa3e57ce]
reverse link Player to ListOfPlayersController--><g id="link_Player_ListOfPlayersController"><path codeLine="169" d="M1732.62,507.86 C1653.05,534.67 1518.93,579.84 1426.85,610.86 " fill="none" id="Player-backto-ListOfPlayersController" style="stroke:#181818;stroke-width:1.0;stroke-dasharray:7.0,7.0;"/><polygon fill="#181818" points="1737.78,506.12,1727.9736,505.2067,1733.0423,507.7183,1730.5308,512.787,1737.78,506.12" style="stroke:#181818;stroke-width:1.0;"/></g><!--MD5=[c88bed84237b222197ff8e0335276c76]
@startuml Main

package model {
    class Player{
        idPlayer : int
        name : String
        idTypePlayer : int
    }
    class Round {
        idRound : int
        idPlayer 1: Player
        idPlayer 2: Player
        idWinner : Player
        isFinished : boolean
        idGame : int
    }
    class TypePlayer {
        idTypePlayer : int
        name: String
    }
    class Piece{
        idPiece : int
        name : String
    }

    class Square {
        idRound : int
        column : int
        row : int
        idPiece : int
    }
    class Letter {
        idRound : int
        character : char
        position : int
        isShown : boolean
    }

    class TypeGame {
        idGame : int
        game : String
    }

    Square o- - Piece

    Round *- - "Player 1" Player
    Round *- - "Player 2" Player
    Round *- - "Winner" Player

    Square *- - Round


    Player *- - TypePlayer
    Letter *- - Round

    TypeGame - -* Round
}

package util {
    class Dice{
        +generateValue (int bound)
    }
}

package controller {
    class GamesPlatformController {
        -ListOfPlayers listOfPlayers
        -Game[] games
        +run()
    }

    package game {
        abstract class GameController {
            # GamePlayer[] gamePlayers
            # GamePlayersProvider gamePlayersProvider
            + {abstract}Execute()
            # AssignRoles (GamePlayer[] gamePlayers)
            # flipRoles (GamePlayer[] gamePlayers)
        }
        package tictactoe {
            class TicTacToeController {

            }
            interface TicTacToePlayerController {

            }
        }
        package hangman {
            class HangManController {

            }
            interface HangManPlayerController{

            }
        }

        interface GamePlayerController {
            + processResult(int)
        }
        interface GamePlayersProviderController {
            + getGamePlayers(int) : GamePlayer[]
        }

    }

    package player {
        class ListOfPlayersController {
            +createPlayer(Player player)
            +getPlayer(int id)
            +List<Player> playersList
        }
    }
}

package view {

    class GamesPlatform {
        +showPlayers()
        +createPlayer()
        +playGame(Game game)
        +showMenu()
    }

    class Game {
        + Introduction()
        + Resume()
    }

    class TicTacToe {
    }

    class HangMan {

    }

    class ListOfPlayers {
        +getList()
        +printList()
        +getGamePlayers(int size)
    }
}

/'Relaciones internas del controlador'/
GamesPlatformController *- - "2" GameController
GamesPlatformController *- - ListOfPlayersController

GameController <|- - TicTacToeController
GameController <|- - HangManController
GameController -right-> GamePlayersProviderController
GameController *- - GamePlayerController

Dice <.. GameController
Dice <.up. GamePlayerController

ListOfPlayersController ..|> GamePlayersProviderController

TicTacToeController *- - TicTacToePlayerController
HangManController *- - HangManPlayerController

GamePlayerController ..|> TicTacToePlayerController
GamePlayerController ..|> HangManPlayerController

/'Relaciones MVC'/
GamesPlatformController <.. GamesPlatform
Game ..> GameController
HangManController <.. HangMan
TicTacToeController <.. TicTacToe

ListOfPlayersController <.. ListOfPlayers
ListOfPlayersController .up.> Player

@enduml

@startuml Main

package model {
    class Player{
        idPlayer : int
        name : String
        idTypePlayer : int
    }
    class Round {
        idRound : int
        idPlayer 1: Player
        idPlayer 2: Player
        idWinner : Player
        isFinished : boolean
        idGame : int
    }
    class TypePlayer {
        idTypePlayer : int
        name: String
    }
    class Piece{
        idPiece : int
        name : String
    }

    class Square {
        idRound : int
        column : int
        row : int
        idPiece : int
    }
    class Letter {
        idRound : int
        character : char
        position : int
        isShown : boolean
    }

    class TypeGame {
        idGame : int
        game : String
    }

    Square o- - Piece

    Round *- - "Player 1" Player
    Round *- - "Player 2" Player
    Round *- - "Winner" Player

    Square *- - Round


    Player *- - TypePlayer
    Letter *- - Round

    TypeGame - -* Round
}

package util {
    class Dice{
        +generateValue (int bound)
    }
}

package controller {
    class GamesPlatformController {
        -ListOfPlayers listOfPlayers
        -Game[] games
        +run()
    }

    package game {
        abstract class GameController {
            # GamePlayer[] gamePlayers
            # GamePlayersProvider gamePlayersProvider
            + {abstract}Execute()
            # AssignRoles (GamePlayer[] gamePlayers)
            # flipRoles (GamePlayer[] gamePlayers)
        }
        package tictactoe {
            class TicTacToeController {

            }
            interface TicTacToePlayerController {

            }
        }
        package hangman {
            class HangManController {

            }
            interface HangManPlayerController{

            }
        }

        interface GamePlayerController {
            + processResult(int)
        }
        interface GamePlayersProviderController {
            + getGamePlayers(int) : GamePlayer[]
        }

    }

    package player {
        class ListOfPlayersController {
            +createPlayer(Player player)
            +getPlayer(int id)
            +List<Player> playersList
        }
    }
}

package view {

    class GamesPlatform {
        +showPlayers()
        +createPlayer()
        +playGame(Game game)
        +showMenu()
    }

    class Game {
        + Introduction()
        + Resume()
    }

    class TicTacToe {
    }

    class HangMan {

    }

    class ListOfPlayers {
        +getList()
        +printList()
        +getGamePlayers(int size)
    }
}

GamesPlatformController *- - "2" GameController
GamesPlatformController *- - ListOfPlayersController

GameController <|- - TicTacToeController
GameController <|- - HangManController
GameController -right-> GamePlayersProviderController
GameController *- - GamePlayerController

Dice <.. GameController
Dice <.up. GamePlayerController

ListOfPlayersController ..|> GamePlayersProviderController

TicTacToeController *- - TicTacToePlayerController
HangManController *- - HangManPlayerController

GamePlayerController ..|> TicTacToePlayerController
GamePlayerController ..|> HangManPlayerController

GamesPlatformController <.. GamesPlatform
Game ..> GameController
HangManController <.. HangMan
TicTacToeController <.. TicTacToe

ListOfPlayersController <.. ListOfPlayers
ListOfPlayersController .up.> Player

@enduml

PlantUML version 1.2022.5(Sat Apr 30 04:55:52 CST 2022)
(GPL source distribution)
Java Runtime: Java(TM) SE Runtime Environment
JVM: Java HotSpot(TM) 64-Bit Server VM
Default Encoding: Cp1252
Language: en
Country: US
--></g></svg>