<?xml version="1.0" encoding="UTF-8" standalone="no"?><svg xmlns="http://www.w3.org/2000/svg" xmlns:xlink="http://www.w3.org/1999/xlink" contentStyleType="text/css" height="1652px" preserveAspectRatio="none" style="width:2376px;height:1652px;background:#FFFFFF;" version="1.1" viewBox="0 0 2376 1652" width="2376px" zoomAndPan="magnify"><defs/><g><!--MD5=[5d4cd377749310b66bf14896f5cd8d9b]
cluster model--><g id="cluster_model"><path d="M1640.5,6 L1684.5,6 A3.75,3.75 0 0 1 1687,8.5 L1694,29.6094 L2366.5,29.6094 A2.5,2.5 0 0 1 2369,32.1094 L2369,1113.5 A2.5,2.5 0 0 1 2366.5,1116 L1640.5,1116 A2.5,2.5 0 0 1 1638,1113.5 L1638,8.5 A2.5,2.5 0 0 1 1640.5,6 " style="stroke:#000000;stroke-width:1.5;fill:none;"/><line style="stroke:#000000;stroke-width:1.5;fill:none;" x1="1638" x2="1694" y1="29.6094" y2="29.6094"/><text fill="#000000" font-family="sans-serif" font-size="14" font-weight="bold" lengthAdjust="spacing" textLength="43" x="1642" y="22.5332">model</text></g><!--MD5=[3e81cc6ee7da4fa8b6adc12b329096f6]
cluster util--><g id="cluster_util"><path d="M1640.5,1488 L1663.5,1488 A3.75,3.75 0 0 1 1666,1490.5 L1673,1511.6094 L1859.5,1511.6094 A2.5,2.5 0 0 1 1862,1514.1094 L1862,1603.5 A2.5,2.5 0 0 1 1859.5,1606 L1640.5,1606 A2.5,2.5 0 0 1 1638,1603.5 L1638,1490.5 A2.5,2.5 0 0 1 1640.5,1488 " style="stroke:#000000;stroke-width:1.5;fill:none;"/><line style="stroke:#000000;stroke-width:1.5;fill:none;" x1="1638" x2="1673" y1="1511.6094" y2="1511.6094"/><text fill="#000000" font-family="sans-serif" font-size="14" font-weight="bold" lengthAdjust="spacing" textLength="22" x="1642" y="1504.5332">util</text></g><!--MD5=[10ea673caf457862023e152271927b45]
cluster controller--><g id="cluster_controller"><path d="M884.5,670.5 L954.5,670.5 A3.75,3.75 0 0 1 957,673 L964,694.1094 L1611.5,694.1094 A2.5,2.5 0 0 1 1614,696.6094 L1614,1642.5 A2.5,2.5 0 0 1 1611.5,1645 L884.5,1645 A2.5,2.5 0 0 1 882,1642.5 L882,673 A2.5,2.5 0 0 1 884.5,670.5 " style="stroke:#000000;stroke-width:1.5;fill:none;"/><line style="stroke:#000000;stroke-width:1.5;fill:none;" x1="882" x2="964" y1="694.1094" y2="694.1094"/><text fill="#000000" font-family="sans-serif" font-size="14" font-weight="bold" lengthAdjust="spacing" textLength="69" x="886" y="687.0332">controller</text></g><!--MD5=[7153802aa763eb8df248d2c88b8b91a0]
cluster game--><g id="cluster_game"><path d="M908.5,1140 L947.5,1140 A3.75,3.75 0 0 1 950,1142.5 L957,1163.6094 L1587.5,1163.6094 A2.5,2.5 0 0 1 1590,1166.1094 L1590,1618.5 A2.5,2.5 0 0 1 1587.5,1621 L908.5,1621 A2.5,2.5 0 0 1 906,1618.5 L906,1142.5 A2.5,2.5 0 0 1 908.5,1140 " style="stroke:#000000;stroke-width:1.5;fill:none;"/><line style="stroke:#000000;stroke-width:1.5;fill:none;" x1="906" x2="957" y1="1163.6094" y2="1163.6094"/><text fill="#000000" font-family="sans-serif" font-size="14" font-weight="bold" lengthAdjust="spacing" textLength="38" x="910" y="1156.5332">game</text></g><!--MD5=[807bc46d8103c809ff053af9e140e1f5]
cluster tictactoe--><g id="cluster_tictactoe"><path d="M932.5,1345 L994.5,1345 A3.75,3.75 0 0 1 997,1347.5 L1004,1368.6094 L1161.5,1368.6094 A2.5,2.5 0 0 1 1164,1371.1094 L1164,1594.5 A2.5,2.5 0 0 1 1161.5,1597 L932.5,1597 A2.5,2.5 0 0 1 930,1594.5 L930,1347.5 A2.5,2.5 0 0 1 932.5,1345 " style="stroke:#000000;stroke-width:1.5;fill:none;"/><line style="stroke:#000000;stroke-width:1.5;fill:none;" x1="930" x2="1004" y1="1368.6094" y2="1368.6094"/><text fill="#000000" font-family="sans-serif" font-size="14" font-weight="bold" lengthAdjust="spacing" textLength="61" x="934" y="1361.5332">tictactoe</text></g><!--MD5=[5580c82edcbc933de5e73591f0fcf26e]
cluster hangman--><g id="cluster_hangman"><path d="M1190.5,1345 L1255.5,1345 A3.75,3.75 0 0 1 1258,1347.5 L1265,1368.6094 L1413.5,1368.6094 A2.5,2.5 0 0 1 1416,1371.1094 L1416,1594.5 A2.5,2.5 0 0 1 1413.5,1597 L1190.5,1597 A2.5,2.5 0 0 1 1188,1594.5 L1188,1347.5 A2.5,2.5 0 0 1 1190.5,1345 " style="stroke:#000000;stroke-width:1.5;fill:none;"/><line style="stroke:#000000;stroke-width:1.5;fill:none;" x1="1188" x2="1265" y1="1368.6094" y2="1368.6094"/><text fill="#000000" font-family="sans-serif" font-size="14" font-weight="bold" lengthAdjust="spacing" textLength="64" x="1192" y="1361.5332">hangman</text></g><!--MD5=[86cbce8df1eb9d604fbbb2fa357940f8]
cluster view--><g id="cluster_view"><path d="M8.5,1462 L42.5,1462 A3.75,3.75 0 0 1 45,1464.5 L52,1485.6094 L855.5,1485.6094 A2.5,2.5 0 0 1 858,1488.1094 L858,1629.5 A2.5,2.5 0 0 1 855.5,1632 L8.5,1632 A2.5,2.5 0 0 1 6,1629.5 L6,1464.5 A2.5,2.5 0 0 1 8.5,1462 " style="stroke:#000000;stroke-width:1.5;fill:none;"/><line style="stroke:#000000;stroke-width:1.5;fill:none;" x1="6" x2="52" y1="1485.6094" y2="1485.6094"/><text fill="#000000" font-family="sans-serif" font-size="14" font-weight="bold" lengthAdjust="spacing" textLength="33" x="10" y="1478.5332">view</text></g><!--MD5=[2cb47ba637a0d19583e6199456f6ad0b]
class Player--><g id="elem_Player"><rect codeLine="3" fill="#F1F1F1" height="206.4844" id="Player" rx="2.5" ry="2.5" style="stroke:#181818;stroke-width:0.5;" width="221" x="1798.5" y="645"/><ellipse cx="1884.75" cy="661" fill="#ADD1B2" rx="11" ry="11" style="stroke:#181818;stroke-width:1.0;"/><path d="M1887.5156,656.875 Q1887.6719,656.6563 1887.8594,656.5469 Q1888.0469,656.4375 1888.2656,656.4375 Q1888.6406,656.4375 1888.875,656.7031 Q1889.1094,656.9531 1889.1094,657.5625 L1889.1094,659.0156 Q1889.1094,659.625 1888.875,659.8906 Q1888.6406,660.1563 1888.2656,660.1563 Q1887.9219,660.1563 1887.7188,659.9531 Q1887.5156,659.7656 1887.4063,659.25 Q1887.3594,658.8906 1887.1719,658.7031 Q1886.8438,658.3281 1886.2344,658.1094 Q1885.625,657.8906 1885,657.8906 Q1884.2344,657.8906 1883.5938,658.2188 Q1882.9688,658.5469 1882.4688,659.2969 Q1881.9844,660.0469 1881.9844,661.0781 L1881.9844,662.1719 Q1881.9844,663.4063 1882.875,664.2344 Q1883.7656,665.0469 1885.3594,665.0469 Q1886.2969,665.0469 1886.9531,664.7969 Q1887.3438,664.6406 1887.7656,664.2031 Q1888.0313,663.9375 1888.1719,663.8594 Q1888.3281,663.7813 1888.5313,663.7813 Q1888.8594,663.7813 1889.1094,664.0469 Q1889.375,664.2969 1889.375,664.6406 Q1889.375,664.9844 1889.0313,665.3906 Q1888.5313,665.9688 1887.7344,666.2969 Q1886.6563,666.75 1885.3594,666.75 Q1883.8438,666.75 1882.6406,666.125 Q1881.6563,665.625 1880.9688,664.5625 Q1880.2813,663.4844 1880.2813,662.2031 L1880.2813,661.0469 Q1880.2813,659.7188 1880.8906,658.5781 Q1881.5156,657.4219 1882.6094,656.8125 Q1883.7031,656.1875 1884.9375,656.1875 Q1885.6719,656.1875 1886.3125,656.3594 Q1886.9688,656.5156 1887.5156,656.875 Z " fill="#000000"/><text fill="#000000" font-family="sans-serif" font-size="14" lengthAdjust="spacing" textLength="40" x="1905.25" y="666.7285">Player</text><line style="stroke:#181818;stroke-width:0.5;" x1="1799.5" x2="2018.5" y1="677" y2="677"/><text fill="#000000" font-family="sans-serif" font-size="14" lengthAdjust="spacing" textLength="137" x="1804.5" y="695.5332">Players: List &lt;Player&gt;</text><text fill="#000000" font-family="sans-serif" font-size="14" lengthAdjust="spacing" textLength="78" x="1804.5" y="713.1426">idPlayer : int</text><text fill="#000000" font-family="sans-serif" font-size="14" lengthAdjust="spacing" textLength="84" x="1804.5" y="730.752">name : String</text><text fill="#000000" font-family="sans-serif" font-size="14" lengthAdjust="spacing" textLength="110" x="1804.5" y="748.3613">idTypePlayer : int</text><line style="stroke:#181818;stroke-width:0.5;" x1="1799.5" x2="2018.5" y1="755.4375" y2="755.4375"/><text fill="#000000" font-family="sans-serif" font-size="14" lengthAdjust="spacing" textLength="177" x="1804.5" y="773.9707">insertPlayer (Player): Player</text><text fill="#000000" font-family="sans-serif" font-size="14" lengthAdjust="spacing" textLength="154" x="1804.5" y="791.5801">selectPlayer (int): Player</text><text fill="#000000" font-family="sans-serif" font-size="14" lengthAdjust="spacing" textLength="209" x="1804.5" y="809.1895">updatePlayer (int, Player): Player</text><text fill="#000000" font-family="sans-serif" font-size="14" lengthAdjust="spacing" textLength="167" x="1804.5" y="826.7988">deletePlayer (Player): void</text><text fill="#000000" font-family="sans-serif" font-size="14" lengthAdjust="spacing" textLength="184" x="1804.5" y="844.4082">selectPlayers (): List&lt;Player&gt;</text></g><!--MD5=[d75b0a238b734941260681f0026bbb88]
class Round--><g id="elem_Round"><rect codeLine="14" fill="#F1F1F1" height="259.3125" id="Round" rx="2.5" ry="2.5" style="stroke:#181818;stroke-width:0.5;" width="231" x="1793.5" y="326"/><ellipse cx="1883.75" cy="342" fill="#ADD1B2" rx="11" ry="11" style="stroke:#181818;stroke-width:1.0;"/><path d="M1886.5156,337.875 Q1886.6719,337.6563 1886.8594,337.5469 Q1887.0469,337.4375 1887.2656,337.4375 Q1887.6406,337.4375 1887.875,337.7031 Q1888.1094,337.9531 1888.1094,338.5625 L1888.1094,340.0156 Q1888.1094,340.625 1887.875,340.8906 Q1887.6406,341.1563 1887.2656,341.1563 Q1886.9219,341.1563 1886.7188,340.9531 Q1886.5156,340.7656 1886.4063,340.25 Q1886.3594,339.8906 1886.1719,339.7031 Q1885.8438,339.3281 1885.2344,339.1094 Q1884.625,338.8906 1884,338.8906 Q1883.2344,338.8906 1882.5938,339.2188 Q1881.9688,339.5469 1881.4688,340.2969 Q1880.9844,341.0469 1880.9844,342.0781 L1880.9844,343.1719 Q1880.9844,344.4063 1881.875,345.2344 Q1882.7656,346.0469 1884.3594,346.0469 Q1885.2969,346.0469 1885.9531,345.7969 Q1886.3438,345.6406 1886.7656,345.2031 Q1887.0313,344.9375 1887.1719,344.8594 Q1887.3281,344.7813 1887.5313,344.7813 Q1887.8594,344.7813 1888.1094,345.0469 Q1888.375,345.2969 1888.375,345.6406 Q1888.375,345.9844 1888.0313,346.3906 Q1887.5313,346.9688 1886.7344,347.2969 Q1885.6563,347.75 1884.3594,347.75 Q1882.8438,347.75 1881.6406,347.125 Q1880.6563,346.625 1879.9688,345.5625 Q1879.2813,344.4844 1879.2813,343.2031 L1879.2813,342.0469 Q1879.2813,340.7188 1879.8906,339.5781 Q1880.5156,338.4219 1881.6094,337.8125 Q1882.7031,337.1875 1883.9375,337.1875 Q1884.6719,337.1875 1885.3125,337.3594 Q1885.9688,337.5156 1886.5156,337.875 Z " fill="#000000"/><text fill="#000000" font-family="sans-serif" font-size="14" lengthAdjust="spacing" textLength="42" x="1904.25" y="347.7285">Round</text><line style="stroke:#181818;stroke-width:0.5;" x1="1794.5" x2="2023.5" y1="358" y2="358"/><text fill="#000000" font-family="sans-serif" font-size="14" lengthAdjust="spacing" textLength="136" x="1799.5" y="376.5332">rounds : List&lt;Round&gt;</text><text fill="#000000" font-family="sans-serif" font-size="14" lengthAdjust="spacing" textLength="80" x="1799.5" y="394.1426">idRound : int</text><text fill="#000000" font-family="sans-serif" font-size="14" lengthAdjust="spacing" textLength="111" x="1799.5" y="411.752">idPlayer 1: Player</text><text fill="#000000" font-family="sans-serif" font-size="14" lengthAdjust="spacing" textLength="111" x="1799.5" y="429.3613">idPlayer 2: Player</text><text fill="#000000" font-family="sans-serif" font-size="14" lengthAdjust="spacing" textLength="108" x="1799.5" y="446.9707">idWinner : Player</text><text fill="#000000" font-family="sans-serif" font-size="14" lengthAdjust="spacing" textLength="127" x="1799.5" y="464.5801">isFinished : boolean</text><text fill="#000000" font-family="sans-serif" font-size="14" lengthAdjust="spacing" textLength="76" x="1799.5" y="482.1895">idGame : int</text><line style="stroke:#181818;stroke-width:0.5;" x1="1794.5" x2="2023.5" y1="489.2656" y2="489.2656"/><text fill="#000000" font-family="sans-serif" font-size="14" lengthAdjust="spacing" textLength="187" x="1799.5" y="507.7988">insertRound (Round) : Round</text><text fill="#000000" font-family="sans-serif" font-size="14" lengthAdjust="spacing" textLength="189" x="1799.5" y="525.4082">selectRound (Round) : Round</text><text fill="#000000" font-family="sans-serif" font-size="14" lengthAdjust="spacing" textLength="192" x="1799.5" y="543.0176">selectRounds () : List&lt;Round&gt;</text><text fill="#000000" font-family="sans-serif" font-size="14" lengthAdjust="spacing" textLength="219" x="1799.5" y="560.627">updateRound (int, Round) : Round</text><text fill="#000000" font-family="sans-serif" font-size="14" lengthAdjust="spacing" textLength="175" x="1799.5" y="578.2363">deleteRound (Round) : void</text></g><!--MD5=[ace3e6c11b8886c1ad6e132e1e690d2d]
class TypePlayer--><g id="elem_TypePlayer"><rect codeLine="28" fill="#F1F1F1" height="188.875" id="TypePlayer" rx="2.5" ry="2.5" style="stroke:#181818;stroke-width:0.5;" width="321" x="1748.5" y="911"/><ellipse cx="1868.75" cy="927" fill="#ADD1B2" rx="11" ry="11" style="stroke:#181818;stroke-width:1.0;"/><path d="M1871.5156,922.875 Q1871.6719,922.6563 1871.8594,922.5469 Q1872.0469,922.4375 1872.2656,922.4375 Q1872.6406,922.4375 1872.875,922.7031 Q1873.1094,922.9531 1873.1094,923.5625 L1873.1094,925.0156 Q1873.1094,925.625 1872.875,925.8906 Q1872.6406,926.1563 1872.2656,926.1563 Q1871.9219,926.1563 1871.7188,925.9531 Q1871.5156,925.7656 1871.4063,925.25 Q1871.3594,924.8906 1871.1719,924.7031 Q1870.8438,924.3281 1870.2344,924.1094 Q1869.625,923.8906 1869,923.8906 Q1868.2344,923.8906 1867.5938,924.2188 Q1866.9688,924.5469 1866.4688,925.2969 Q1865.9844,926.0469 1865.9844,927.0781 L1865.9844,928.1719 Q1865.9844,929.4063 1866.875,930.2344 Q1867.7656,931.0469 1869.3594,931.0469 Q1870.2969,931.0469 1870.9531,930.7969 Q1871.3438,930.6406 1871.7656,930.2031 Q1872.0313,929.9375 1872.1719,929.8594 Q1872.3281,929.7813 1872.5313,929.7813 Q1872.8594,929.7813 1873.1094,930.0469 Q1873.375,930.2969 1873.375,930.6406 Q1873.375,930.9844 1873.0313,931.3906 Q1872.5313,931.9688 1871.7344,932.2969 Q1870.6563,932.75 1869.3594,932.75 Q1867.8438,932.75 1866.6406,932.125 Q1865.6563,931.625 1864.9688,930.5625 Q1864.2813,929.4844 1864.2813,928.2031 L1864.2813,927.0469 Q1864.2813,925.7188 1864.8906,924.5781 Q1865.5156,923.4219 1866.6094,922.8125 Q1867.7031,922.1875 1868.9375,922.1875 Q1869.6719,922.1875 1870.3125,922.3594 Q1870.9688,922.5156 1871.5156,922.875 Z " fill="#000000"/><text fill="#000000" font-family="sans-serif" font-size="14" lengthAdjust="spacing" textLength="72" x="1889.25" y="932.7285">TypePlayer</text><line style="stroke:#181818;stroke-width:0.5;" x1="1749.5" x2="2068.5" y1="943" y2="943"/><text fill="#000000" font-family="sans-serif" font-size="14" lengthAdjust="spacing" textLength="203" x="1754.5" y="961.5332">typesPlayers : List&lt;TypePlayer&gt;</text><text fill="#000000" font-family="sans-serif" font-size="14" lengthAdjust="spacing" textLength="110" x="1754.5" y="979.1426">idTypePlayer : int</text><text fill="#000000" font-family="sans-serif" font-size="14" lengthAdjust="spacing" textLength="80" x="1754.5" y="996.752">name: String</text><line style="stroke:#181818;stroke-width:0.5;" x1="1749.5" x2="2068.5" y1="1003.8281" y2="1003.8281"/><text fill="#000000" font-family="sans-serif" font-size="14" lengthAdjust="spacing" textLength="277" x="1754.5" y="1022.3613">insertTypePlayer (TypePlayer) : TypePlayer</text><text fill="#000000" font-family="sans-serif" font-size="14" lengthAdjust="spacing" textLength="222" x="1754.5" y="1039.9707">selectTypePlayer (int) : TypePlayer</text><text fill="#000000" font-family="sans-serif" font-size="14" lengthAdjust="spacing" textLength="259" x="1754.5" y="1057.5801">selectTypesPlayers () : List&lt;TypePlayer&gt;</text><text fill="#000000" font-family="sans-serif" font-size="14" lengthAdjust="spacing" textLength="309" x="1754.5" y="1075.1895">updateTypePlayer (int, TypePlayer) : TypePlayer</text><text fill="#000000" font-family="sans-serif" font-size="14" lengthAdjust="spacing" textLength="235" x="1754.5" y="1092.7988">deleteTypePlayer (TypePlayer) : void</text></g><!--MD5=[e05bacf3ff4416a0580578814d41bbf6]
class Piece--><g id="elem_Piece"><rect codeLine="38" fill="#F1F1F1" height="188.875" id="Piece" rx="2.5" ry="2.5" style="stroke:#181818;stroke-width:0.5;" width="186" x="2154" y="361"/><ellipse cx="2225.25" cy="377" fill="#ADD1B2" rx="11" ry="11" style="stroke:#181818;stroke-width:1.0;"/><path d="M2228.0156,372.875 Q2228.1719,372.6563 2228.3594,372.5469 Q2228.5469,372.4375 2228.7656,372.4375 Q2229.1406,372.4375 2229.375,372.7031 Q2229.6094,372.9531 2229.6094,373.5625 L2229.6094,375.0156 Q2229.6094,375.625 2229.375,375.8906 Q2229.1406,376.1563 2228.7656,376.1563 Q2228.4219,376.1563 2228.2188,375.9531 Q2228.0156,375.7656 2227.9063,375.25 Q2227.8594,374.8906 2227.6719,374.7031 Q2227.3438,374.3281 2226.7344,374.1094 Q2226.125,373.8906 2225.5,373.8906 Q2224.7344,373.8906 2224.0938,374.2188 Q2223.4688,374.5469 2222.9688,375.2969 Q2222.4844,376.0469 2222.4844,377.0781 L2222.4844,378.1719 Q2222.4844,379.4063 2223.375,380.2344 Q2224.2656,381.0469 2225.8594,381.0469 Q2226.7969,381.0469 2227.4531,380.7969 Q2227.8438,380.6406 2228.2656,380.2031 Q2228.5313,379.9375 2228.6719,379.8594 Q2228.8281,379.7813 2229.0313,379.7813 Q2229.3594,379.7813 2229.6094,380.0469 Q2229.875,380.2969 2229.875,380.6406 Q2229.875,380.9844 2229.5313,381.3906 Q2229.0313,381.9688 2228.2344,382.2969 Q2227.1563,382.75 2225.8594,382.75 Q2224.3438,382.75 2223.1406,382.125 Q2222.1563,381.625 2221.4688,380.5625 Q2220.7813,379.4844 2220.7813,378.2031 L2220.7813,377.0469 Q2220.7813,375.7188 2221.3906,374.5781 Q2222.0156,373.4219 2223.1094,372.8125 Q2224.2031,372.1875 2225.4375,372.1875 Q2226.1719,372.1875 2226.8125,372.3594 Q2227.4688,372.5156 2228.0156,372.875 Z " fill="#000000"/><text fill="#000000" font-family="sans-serif" font-size="14" lengthAdjust="spacing" textLength="35" x="2245.75" y="382.7285">Piece</text><line style="stroke:#181818;stroke-width:0.5;" x1="2155" x2="2339" y1="393" y2="393"/><text fill="#000000" font-family="sans-serif" font-size="14" lengthAdjust="spacing" textLength="123" x="2160" y="411.5332">Pieces: List&lt;Piece&gt;</text><text fill="#000000" font-family="sans-serif" font-size="14" lengthAdjust="spacing" textLength="73" x="2160" y="429.1426">idPiece : int</text><text fill="#000000" font-family="sans-serif" font-size="14" lengthAdjust="spacing" textLength="84" x="2160" y="446.752">name : String</text><line style="stroke:#181818;stroke-width:0.5;" x1="2155" x2="2339" y1="453.8281" y2="453.8281"/><text fill="#000000" font-family="sans-serif" font-size="14" lengthAdjust="spacing" textLength="166" x="2160" y="472.3613">insertPiece (Piece) : Piece</text><text fill="#000000" font-family="sans-serif" font-size="14" lengthAdjust="spacing" textLength="148" x="2160" y="489.9707">selectPiece (int) : Piece</text><text fill="#000000" font-family="sans-serif" font-size="14" lengthAdjust="spacing" textLength="155" x="2160" y="507.5801">updatePiece (int) : Piece</text><text fill="#000000" font-family="sans-serif" font-size="14" lengthAdjust="spacing" textLength="161" x="2160" y="525.1895">deletePiece (Piece) : void</text><text fill="#000000" font-family="sans-serif" font-size="14" lengthAdjust="spacing" textLength="174" x="2160" y="542.7988">selectPieces (): List&lt;Piece&gt;</text></g><!--MD5=[5655ee3e2a0d028d03fe20f829576392]
class Square--><g id="elem_Square"><rect codeLine="49" fill="#F1F1F1" height="224.0938" id="Square" rx="2.5" ry="2.5" style="stroke:#181818;stroke-width:0.5;" width="211" x="2141.5" y="42"/><ellipse cx="2219.75" cy="58" fill="#ADD1B2" rx="11" ry="11" style="stroke:#181818;stroke-width:1.0;"/><path d="M2222.5156,53.875 Q2222.6719,53.6563 2222.8594,53.5469 Q2223.0469,53.4375 2223.2656,53.4375 Q2223.6406,53.4375 2223.875,53.7031 Q2224.1094,53.9531 2224.1094,54.5625 L2224.1094,56.0156 Q2224.1094,56.625 2223.875,56.8906 Q2223.6406,57.1563 2223.2656,57.1563 Q2222.9219,57.1563 2222.7188,56.9531 Q2222.5156,56.7656 2222.4063,56.25 Q2222.3594,55.8906 2222.1719,55.7031 Q2221.8438,55.3281 2221.2344,55.1094 Q2220.625,54.8906 2220,54.8906 Q2219.2344,54.8906 2218.5938,55.2188 Q2217.9688,55.5469 2217.4688,56.2969 Q2216.9844,57.0469 2216.9844,58.0781 L2216.9844,59.1719 Q2216.9844,60.4063 2217.875,61.2344 Q2218.7656,62.0469 2220.3594,62.0469 Q2221.2969,62.0469 2221.9531,61.7969 Q2222.3438,61.6406 2222.7656,61.2031 Q2223.0313,60.9375 2223.1719,60.8594 Q2223.3281,60.7813 2223.5313,60.7813 Q2223.8594,60.7813 2224.1094,61.0469 Q2224.375,61.2969 2224.375,61.6406 Q2224.375,61.9844 2224.0313,62.3906 Q2223.5313,62.9688 2222.7344,63.2969 Q2221.6563,63.75 2220.3594,63.75 Q2218.8438,63.75 2217.6406,63.125 Q2216.6563,62.625 2215.9688,61.5625 Q2215.2813,60.4844 2215.2813,59.2031 L2215.2813,58.0469 Q2215.2813,56.7188 2215.8906,55.5781 Q2216.5156,54.4219 2217.6094,53.8125 Q2218.7031,53.1875 2219.9375,53.1875 Q2220.6719,53.1875 2221.3125,53.3594 Q2221.9688,53.5156 2222.5156,53.875 Z " fill="#000000"/><text fill="#000000" font-family="sans-serif" font-size="14" lengthAdjust="spacing" textLength="46" x="2240.25" y="63.7285">Square</text><line style="stroke:#181818;stroke-width:0.5;" x1="2142.5" x2="2351.5" y1="74" y2="74"/><text fill="#000000" font-family="sans-serif" font-size="14" lengthAdjust="spacing" textLength="145" x="2147.5" y="92.5332">Squares: List&lt;Square&gt;</text><text fill="#000000" font-family="sans-serif" font-size="14" lengthAdjust="spacing" textLength="80" x="2147.5" y="110.1426">idRound : int</text><text fill="#000000" font-family="sans-serif" font-size="14" lengthAdjust="spacing" textLength="72" x="2147.5" y="127.752">column : int</text><text fill="#000000" font-family="sans-serif" font-size="14" lengthAdjust="spacing" textLength="49" x="2147.5" y="145.3613">row : int</text><text fill="#000000" font-family="sans-serif" font-size="14" lengthAdjust="spacing" textLength="73" x="2147.5" y="162.9707">idPiece : int</text><line style="stroke:#181818;stroke-width:0.5;" x1="2142.5" x2="2351.5" y1="170.0469" y2="170.0469"/><text fill="#000000" font-family="sans-serif" font-size="14" lengthAdjust="spacing" textLength="199" x="2147.5" y="188.5801">insertSquare (Square) : Square</text><text fill="#000000" font-family="sans-serif" font-size="14" lengthAdjust="spacing" textLength="170" x="2147.5" y="206.1895">selectSquare (int) : Square</text><text fill="#000000" font-family="sans-serif" font-size="14" lengthAdjust="spacing" textLength="177" x="2147.5" y="223.7988">updateSquare (int) : Square</text><text fill="#000000" font-family="sans-serif" font-size="14" lengthAdjust="spacing" textLength="183" x="2147.5" y="241.4082">deleteSquare (Square) : void</text><text fill="#000000" font-family="sans-serif" font-size="14" lengthAdjust="spacing" textLength="196" x="2147.5" y="259.0176">selectSquares (): List&lt;Square&gt;</text></g><!--MD5=[120fced6fc53ed38bb00f3c478c713f1]
class Letter--><g id="elem_Letter"><rect codeLine="61" fill="#F1F1F1" height="224.0938" id="Letter" rx="2.5" ry="2.5" style="stroke:#181818;stroke-width:0.5;" width="205" x="1901.5" y="42"/><ellipse cx="1981.25" cy="58" fill="#ADD1B2" rx="11" ry="11" style="stroke:#181818;stroke-width:1.0;"/><path d="M1984.0156,53.875 Q1984.1719,53.6563 1984.3594,53.5469 Q1984.5469,53.4375 1984.7656,53.4375 Q1985.1406,53.4375 1985.375,53.7031 Q1985.6094,53.9531 1985.6094,54.5625 L1985.6094,56.0156 Q1985.6094,56.625 1985.375,56.8906 Q1985.1406,57.1563 1984.7656,57.1563 Q1984.4219,57.1563 1984.2188,56.9531 Q1984.0156,56.7656 1983.9063,56.25 Q1983.8594,55.8906 1983.6719,55.7031 Q1983.3438,55.3281 1982.7344,55.1094 Q1982.125,54.8906 1981.5,54.8906 Q1980.7344,54.8906 1980.0938,55.2188 Q1979.4688,55.5469 1978.9688,56.2969 Q1978.4844,57.0469 1978.4844,58.0781 L1978.4844,59.1719 Q1978.4844,60.4063 1979.375,61.2344 Q1980.2656,62.0469 1981.8594,62.0469 Q1982.7969,62.0469 1983.4531,61.7969 Q1983.8438,61.6406 1984.2656,61.2031 Q1984.5313,60.9375 1984.6719,60.8594 Q1984.8281,60.7813 1985.0313,60.7813 Q1985.3594,60.7813 1985.6094,61.0469 Q1985.875,61.2969 1985.875,61.6406 Q1985.875,61.9844 1985.5313,62.3906 Q1985.0313,62.9688 1984.2344,63.2969 Q1983.1563,63.75 1981.8594,63.75 Q1980.3438,63.75 1979.1406,63.125 Q1978.1563,62.625 1977.4688,61.5625 Q1976.7813,60.4844 1976.7813,59.2031 L1976.7813,58.0469 Q1976.7813,56.7188 1977.3906,55.5781 Q1978.0156,54.4219 1979.1094,53.8125 Q1980.2031,53.1875 1981.4375,53.1875 Q1982.1719,53.1875 1982.8125,53.3594 Q1983.4688,53.5156 1984.0156,53.875 Z " fill="#000000"/><text fill="#000000" font-family="sans-serif" font-size="14" lengthAdjust="spacing" textLength="37" x="2001.75" y="63.7285">Letter</text><line style="stroke:#181818;stroke-width:0.5;" x1="1902.5" x2="2105.5" y1="74" y2="74"/><text fill="#000000" font-family="sans-serif" font-size="14" lengthAdjust="spacing" textLength="127" x="1907.5" y="92.5332">Letters: List&lt;Letter&gt;</text><text fill="#000000" font-family="sans-serif" font-size="14" lengthAdjust="spacing" textLength="80" x="1907.5" y="110.1426">idRound : int</text><text fill="#000000" font-family="sans-serif" font-size="14" lengthAdjust="spacing" textLength="100" x="1907.5" y="127.752">character : char</text><text fill="#000000" font-family="sans-serif" font-size="14" lengthAdjust="spacing" textLength="76" x="1907.5" y="145.3613">position : int</text><text fill="#000000" font-family="sans-serif" font-size="14" lengthAdjust="spacing" textLength="115" x="1907.5" y="162.9707">isShown : boolean</text><line style="stroke:#181818;stroke-width:0.5;" x1="1902.5" x2="2105.5" y1="170.0469" y2="170.0469"/><text fill="#000000" font-family="sans-serif" font-size="14" lengthAdjust="spacing" textLength="163" x="1907.5" y="188.5801">insertLetter (Letter): letter</text><text fill="#000000" font-family="sans-serif" font-size="14" lengthAdjust="spacing" textLength="193" x="1907.5" y="206.1895">selectPositionLetter(int) : letter</text><text fill="#000000" font-family="sans-serif" font-size="14" lengthAdjust="spacing" textLength="171" x="1907.5" y="223.7988">selectLetter() : List&lt;Letter&gt;</text><text fill="#000000" font-family="sans-serif" font-size="14" lengthAdjust="spacing" textLength="191" x="1907.5" y="241.4082">updateLetter(int, Letter): letter</text><text fill="#000000" font-family="sans-serif" font-size="14" lengthAdjust="spacing" textLength="161" x="1907.5" y="259.0176">deleteLetter(Letter) : void</text></g><!--MD5=[f3eaa0fe7b10472f3fee2708cd31d5a7]
class TypeGame--><g id="elem_TypeGame"><rect codeLine="74" fill="#F1F1F1" height="188.875" id="TypeGame" rx="2.5" ry="2.5" style="stroke:#181818;stroke-width:0.5;" width="212" x="1654" y="59.5"/><ellipse cx="1720.75" cy="75.5" fill="#ADD1B2" rx="11" ry="11" style="stroke:#181818;stroke-width:1.0;"/><path d="M1723.5156,71.375 Q1723.6719,71.1563 1723.8594,71.0469 Q1724.0469,70.9375 1724.2656,70.9375 Q1724.6406,70.9375 1724.875,71.2031 Q1725.1094,71.4531 1725.1094,72.0625 L1725.1094,73.5156 Q1725.1094,74.125 1724.875,74.3906 Q1724.6406,74.6563 1724.2656,74.6563 Q1723.9219,74.6563 1723.7188,74.4531 Q1723.5156,74.2656 1723.4063,73.75 Q1723.3594,73.3906 1723.1719,73.2031 Q1722.8438,72.8281 1722.2344,72.6094 Q1721.625,72.3906 1721,72.3906 Q1720.2344,72.3906 1719.5938,72.7188 Q1718.9688,73.0469 1718.4688,73.7969 Q1717.9844,74.5469 1717.9844,75.5781 L1717.9844,76.6719 Q1717.9844,77.9063 1718.875,78.7344 Q1719.7656,79.5469 1721.3594,79.5469 Q1722.2969,79.5469 1722.9531,79.2969 Q1723.3438,79.1406 1723.7656,78.7031 Q1724.0313,78.4375 1724.1719,78.3594 Q1724.3281,78.2813 1724.5313,78.2813 Q1724.8594,78.2813 1725.1094,78.5469 Q1725.375,78.7969 1725.375,79.1406 Q1725.375,79.4844 1725.0313,79.8906 Q1724.5313,80.4688 1723.7344,80.7969 Q1722.6563,81.25 1721.3594,81.25 Q1719.8438,81.25 1718.6406,80.625 Q1717.6563,80.125 1716.9688,79.0625 Q1716.2813,77.9844 1716.2813,76.7031 L1716.2813,75.5469 Q1716.2813,74.2188 1716.8906,73.0781 Q1717.5156,71.9219 1718.6094,71.3125 Q1719.7031,70.6875 1720.9375,70.6875 Q1721.6719,70.6875 1722.3125,70.8594 Q1722.9688,71.0156 1723.5156,71.375 Z " fill="#000000"/><text fill="#000000" font-family="sans-serif" font-size="14" lengthAdjust="spacing" textLength="70" x="1741.25" y="81.2285">TypeGame</text><line style="stroke:#181818;stroke-width:0.5;" x1="1655" x2="1865" y1="91.5" y2="91.5"/><text fill="#000000" font-family="sans-serif" font-size="14" lengthAdjust="spacing" textLength="133" x="1660" y="110.0332">Games: List &lt;Game&gt;</text><text fill="#000000" font-family="sans-serif" font-size="14" lengthAdjust="spacing" textLength="76" x="1660" y="127.6426">idGame : int</text><text fill="#000000" font-family="sans-serif" font-size="14" lengthAdjust="spacing" textLength="84" x="1660" y="145.252">game : String</text><line style="stroke:#181818;stroke-width:0.5;" x1="1655" x2="1865" y1="152.3281" y2="152.3281"/><text fill="#000000" font-family="sans-serif" font-size="14" lengthAdjust="spacing" textLength="168" x="1660" y="170.8613">insertGame (Game): game</text><text fill="#000000" font-family="sans-serif" font-size="14" lengthAdjust="spacing" textLength="151" x="1660" y="188.4707">selectGame (int) : game</text><text fill="#000000" font-family="sans-serif" font-size="14" lengthAdjust="spacing" textLength="177" x="1660" y="206.0801">selectGame () : List&lt;Game&gt;</text><text fill="#000000" font-family="sans-serif" font-size="14" lengthAdjust="spacing" textLength="200" x="1660" y="223.6895">updateGame (int, Game): game</text><text fill="#000000" font-family="sans-serif" font-size="14" lengthAdjust="spacing" textLength="167" x="1660" y="241.2988">deleteGame (Game) : void</text></g><!--MD5=[f7a9ae25cb0ac60c5f03b7bfd778cce3]
class Dice--><g id="elem_Dice"><rect codeLine="101" fill="#F1F1F1" height="65.6094" id="Dice" rx="2.5" ry="2.5" style="stroke:#181818;stroke-width:0.5;" width="192" x="1654" y="1524"/><ellipse cx="1731.75" cy="1540" fill="#ADD1B2" rx="11" ry="11" style="stroke:#181818;stroke-width:1.0;"/><path d="M1734.5156,1535.875 Q1734.6719,1535.6563 1734.8594,1535.5469 Q1735.0469,1535.4375 1735.2656,1535.4375 Q1735.6406,1535.4375 1735.875,1535.7031 Q1736.1094,1535.9531 1736.1094,1536.5625 L1736.1094,1538.0156 Q1736.1094,1538.625 1735.875,1538.8906 Q1735.6406,1539.1563 1735.2656,1539.1563 Q1734.9219,1539.1563 1734.7188,1538.9531 Q1734.5156,1538.7656 1734.4063,1538.25 Q1734.3594,1537.8906 1734.1719,1537.7031 Q1733.8438,1537.3281 1733.2344,1537.1094 Q1732.625,1536.8906 1732,1536.8906 Q1731.2344,1536.8906 1730.5938,1537.2188 Q1729.9688,1537.5469 1729.4688,1538.2969 Q1728.9844,1539.0469 1728.9844,1540.0781 L1728.9844,1541.1719 Q1728.9844,1542.4063 1729.875,1543.2344 Q1730.7656,1544.0469 1732.3594,1544.0469 Q1733.2969,1544.0469 1733.9531,1543.7969 Q1734.3438,1543.6406 1734.7656,1543.2031 Q1735.0313,1542.9375 1735.1719,1542.8594 Q1735.3281,1542.7813 1735.5313,1542.7813 Q1735.8594,1542.7813 1736.1094,1543.0469 Q1736.375,1543.2969 1736.375,1543.6406 Q1736.375,1543.9844 1736.0313,1544.3906 Q1735.5313,1544.9688 1734.7344,1545.2969 Q1733.6563,1545.75 1732.3594,1545.75 Q1730.8438,1545.75 1729.6406,1545.125 Q1728.6563,1544.625 1727.9688,1543.5625 Q1727.2813,1542.4844 1727.2813,1541.2031 L1727.2813,1540.0469 Q1727.2813,1538.7188 1727.8906,1537.5781 Q1728.5156,1536.4219 1729.6094,1535.8125 Q1730.7031,1535.1875 1731.9375,1535.1875 Q1732.6719,1535.1875 1733.3125,1535.3594 Q1733.9688,1535.5156 1734.5156,1535.875 Z " fill="#000000"/><text fill="#000000" font-family="sans-serif" font-size="14" lengthAdjust="spacing" textLength="28" x="1752.25" y="1545.7285">Dice</text><line style="stroke:#181818;stroke-width:0.5;" x1="1655" x2="1845" y1="1556" y2="1556"/><line style="stroke:#181818;stroke-width:0.5;" x1="1655" x2="1845" y1="1564" y2="1564"/><ellipse cx="1665" cy="1575" fill="#84BE84" rx="3" ry="3" style="stroke:#038048;stroke-width:1.0;"/><text fill="#000000" font-family="sans-serif" font-size="14" lengthAdjust="spacing" textLength="166" x="1674" y="1582.5332">generateValue (int bound)</text></g><!--MD5=[62eae261b3be6d11895498a384d72c15]
class GamesPlatformController--><g id="elem_GamesPlatformController"><rect codeLine="107" fill="#F1F1F1" height="83.2188" id="GamesPlatformController" rx="2.5" ry="2.5" style="stroke:#181818;stroke-width:0.5;" width="193" x="1146.5" y="706.5"/><ellipse cx="1162.4" cy="722.5" fill="#ADD1B2" rx="11" ry="11" style="stroke:#181818;stroke-width:1.0;"/><path d="M1165.1656,718.375 Q1165.3219,718.1563 1165.5094,718.0469 Q1165.6969,717.9375 1165.9156,717.9375 Q1166.2906,717.9375 1166.525,718.2031 Q1166.7594,718.4531 1166.7594,719.0625 L1166.7594,720.5156 Q1166.7594,721.125 1166.525,721.3906 Q1166.2906,721.6563 1165.9156,721.6563 Q1165.5719,721.6563 1165.3688,721.4531 Q1165.1656,721.2656 1165.0563,720.75 Q1165.0094,720.3906 1164.8219,720.2031 Q1164.4938,719.8281 1163.8844,719.6094 Q1163.275,719.3906 1162.65,719.3906 Q1161.8844,719.3906 1161.2438,719.7188 Q1160.6188,720.0469 1160.1188,720.7969 Q1159.6344,721.5469 1159.6344,722.5781 L1159.6344,723.6719 Q1159.6344,724.9063 1160.525,725.7344 Q1161.4156,726.5469 1163.0094,726.5469 Q1163.9469,726.5469 1164.6031,726.2969 Q1164.9938,726.1406 1165.4156,725.7031 Q1165.6813,725.4375 1165.8219,725.3594 Q1165.9781,725.2813 1166.1813,725.2813 Q1166.5094,725.2813 1166.7594,725.5469 Q1167.025,725.7969 1167.025,726.1406 Q1167.025,726.4844 1166.6813,726.8906 Q1166.1813,727.4688 1165.3844,727.7969 Q1164.3063,728.25 1163.0094,728.25 Q1161.4938,728.25 1160.2906,727.625 Q1159.3063,727.125 1158.6188,726.0625 Q1157.9313,724.9844 1157.9313,723.7031 L1157.9313,722.5469 Q1157.9313,721.2188 1158.5406,720.0781 Q1159.1656,718.9219 1160.2594,718.3125 Q1161.3531,717.6875 1162.5875,717.6875 Q1163.3219,717.6875 1163.9625,717.8594 Q1164.6188,718.0156 1165.1656,718.375 Z " fill="#000000"/><text fill="#000000" font-family="sans-serif" font-size="14" lengthAdjust="spacing" textLength="159" x="1176.6" y="728.2285">GamesPlatformController</text><line style="stroke:#181818;stroke-width:0.5;" x1="1147.5" x2="1338.5" y1="738.5" y2="738.5"/><rect fill="none" height="6" style="stroke:#C82930;stroke-width:1.0;" width="6" x="1154.5" y="746.5"/><text fill="#000000" font-family="sans-serif" font-size="14" lengthAdjust="spacing" textLength="167" x="1166.5" y="757.0332">ListOfPlayers listOfPlayers</text><line style="stroke:#181818;stroke-width:0.5;" x1="1147.5" x2="1338.5" y1="764.1094" y2="764.1094"/><ellipse cx="1157.5" cy="775.1094" fill="#84BE84" rx="3" ry="3" style="stroke:#038048;stroke-width:1.0;"/><text fill="#000000" font-family="sans-serif" font-size="14" lengthAdjust="spacing" textLength="31" x="1166.5" y="782.6426">run()</text></g><!--MD5=[6c6d1e40d155900b1d909db28d8f95d5]
class ListOfPlayersController--><g id="elem_ListOfPlayersController"><rect codeLine="146" fill="#F1F1F1" height="65.6094" id="ListOfPlayersController" rx="2.5" ry="2.5" style="stroke:#181818;stroke-width:0.5;" width="184" x="1308" y="972.5"/><ellipse cx="1325.7" cy="988.5" fill="#ADD1B2" rx="11" ry="11" style="stroke:#181818;stroke-width:1.0;"/><path d="M1328.4656,984.375 Q1328.6219,984.1563 1328.8094,984.0469 Q1328.9969,983.9375 1329.2156,983.9375 Q1329.5906,983.9375 1329.825,984.2031 Q1330.0594,984.4531 1330.0594,985.0625 L1330.0594,986.5156 Q1330.0594,987.125 1329.825,987.3906 Q1329.5906,987.6563 1329.2156,987.6563 Q1328.8719,987.6563 1328.6688,987.4531 Q1328.4656,987.2656 1328.3563,986.75 Q1328.3094,986.3906 1328.1219,986.2031 Q1327.7938,985.8281 1327.1844,985.6094 Q1326.575,985.3906 1325.95,985.3906 Q1325.1844,985.3906 1324.5438,985.7188 Q1323.9188,986.0469 1323.4188,986.7969 Q1322.9344,987.5469 1322.9344,988.5781 L1322.9344,989.6719 Q1322.9344,990.9063 1323.825,991.7344 Q1324.7156,992.5469 1326.3094,992.5469 Q1327.2469,992.5469 1327.9031,992.2969 Q1328.2938,992.1406 1328.7156,991.7031 Q1328.9813,991.4375 1329.1219,991.3594 Q1329.2781,991.2813 1329.4813,991.2813 Q1329.8094,991.2813 1330.0594,991.5469 Q1330.325,991.7969 1330.325,992.1406 Q1330.325,992.4844 1329.9813,992.8906 Q1329.4813,993.4688 1328.6844,993.7969 Q1327.6063,994.25 1326.3094,994.25 Q1324.7938,994.25 1323.5906,993.625 Q1322.6063,993.125 1321.9188,992.0625 Q1321.2313,990.9844 1321.2313,989.7031 L1321.2313,988.5469 Q1321.2313,987.2188 1321.8406,986.0781 Q1322.4656,984.9219 1323.5594,984.3125 Q1324.6531,983.6875 1325.8875,983.6875 Q1326.6219,983.6875 1327.2625,983.8594 Q1327.9188,984.0156 1328.4656,984.375 Z " fill="#000000"/><text fill="#000000" font-family="sans-serif" font-size="14" lengthAdjust="spacing" textLength="146" x="1340.3" y="994.2285">ListOfPlayersController</text><line style="stroke:#181818;stroke-width:0.5;" x1="1309" x2="1491" y1="1004.5" y2="1004.5"/><line style="stroke:#181818;stroke-width:0.5;" x1="1309" x2="1491" y1="1012.5" y2="1012.5"/><ellipse cx="1319" cy="1023.5" fill="#84BE84" rx="3" ry="3" style="stroke:#038048;stroke-width:1.0;"/><text fill="#000000" font-family="sans-serif" font-size="14" lengthAdjust="spacing" textLength="158" x="1328" y="1031.0332">getGamePlayers(int size)</text></g><!--MD5=[82d9c97a467af7c0b2c072e754b85475]
class GameController--><g id="elem_GameController"><rect codeLine="113" fill="#F1F1F1" height="136.0469" id="GameController" rx="2.5" ry="2.5" style="stroke:#181818;stroke-width:0.5;" width="303" x="981.5" y="1176"/><ellipse cx="1078.75" cy="1192" fill="#A9DCDF" rx="11" ry="11" style="stroke:#181818;stroke-width:1.0;"/><path d="M1080.9375,1193.7656 L1076.7969,1193.7656 L1076.375,1194.7969 L1076.7969,1194.7969 Q1077.4063,1194.7969 1077.6719,1195.0313 Q1077.9375,1195.2656 1077.9375,1195.6563 Q1077.9375,1196.0313 1077.6719,1196.2656 Q1077.4063,1196.5 1076.7969,1196.5 L1074.5,1196.5 Q1073.8906,1196.5 1073.6406,1196.2656 Q1073.375,1196.0313 1073.375,1195.6406 Q1073.375,1195.2656 1073.6563,1195.0313 Q1073.9219,1194.7813 1074.5469,1194.7969 L1077.2188,1188.1406 L1076.1094,1188.1406 Q1075.5,1188.1406 1075.2344,1187.9063 Q1074.9688,1187.6719 1074.9688,1187.2813 Q1074.9688,1186.9063 1075.2344,1186.6719 Q1075.5,1186.4375 1076.1094,1186.4375 L1079.7813,1186.4375 L1083.1719,1194.7969 Q1083.7656,1194.7969 1083.9531,1194.9375 Q1084.3438,1195.2031 1084.3438,1195.6563 Q1084.3438,1196.0313 1084.0781,1196.2656 Q1083.8281,1196.5 1083.2188,1196.5 L1080.9219,1196.5 Q1080.3125,1196.5 1080.0469,1196.2656 Q1079.7813,1196.0313 1079.7813,1195.6406 Q1079.7813,1195.2656 1080.0469,1195.0313 Q1080.3125,1194.7969 1080.9219,1194.7969 L1081.3438,1194.7969 L1080.9375,1193.7656 Z M1080.2188,1192.0625 L1078.8594,1188.6875 L1077.4844,1192.0625 L1080.2188,1192.0625 Z " fill="#000000"/><text fill="#000000" font-family="sans-serif" font-size="14" font-style="italic" lengthAdjust="spacing" textLength="100" x="1099.25" y="1197.7285">GameController</text><line style="stroke:#181818;stroke-width:0.5;" x1="982.5" x2="1283.5" y1="1208" y2="1208"/><polygon fill="none" points="992.5,1214,996.5,1218,992.5,1222,988.5,1218" style="stroke:#B38D22;stroke-width:1.0;"/><text fill="#000000" font-family="sans-serif" font-size="14" lengthAdjust="spacing" textLength="172" x="1001.5" y="1226.5332">GamePlayer[] gamePlayers</text><polygon fill="none" points="992.5,1231.6094,996.5,1235.6094,992.5,1239.6094,988.5,1235.6094" style="stroke:#B38D22;stroke-width:1.0;"/><text fill="#000000" font-family="sans-serif" font-size="14" lengthAdjust="spacing" textLength="277" x="1001.5" y="1244.1426">GamePlayersProvider gamePlayersProvider</text><line style="stroke:#181818;stroke-width:0.5;" x1="982.5" x2="1283.5" y1="1251.2188" y2="1251.2188"/><ellipse cx="992.5" cy="1262.2188" fill="#84BE84" rx="3" ry="3" style="stroke:#038048;stroke-width:1.0;"/><text fill="#000000" font-family="sans-serif" font-size="14" font-style="italic" lengthAdjust="spacing" textLength="60" x="1001.5" y="1269.752">Execute()</text><polygon fill="#FFFF44" points="992.5,1274.8281,996.5,1278.8281,992.5,1282.8281,988.5,1278.8281" style="stroke:#B38D22;stroke-width:1.0;"/><text fill="#000000" font-family="sans-serif" font-size="14" lengthAdjust="spacing" textLength="264" x="1001.5" y="1287.3613">AssignRoles (GamePlayer[] gamePlayers)</text><polygon fill="#FFFF44" points="992.5,1292.4375,996.5,1296.4375,992.5,1300.4375,988.5,1296.4375" style="stroke:#B38D22;stroke-width:1.0;"/><text fill="#000000" font-family="sans-serif" font-size="14" lengthAdjust="spacing" textLength="240" x="1001.5" y="1304.9707">flipRoles (GamePlayer[] gamePlayers)</text></g><!--MD5=[b0359cb538a0ce2cb72f54394993c3c4]
class GamePlayer--><g id="elem_GamePlayer"><rect codeLine="137" fill="#F1F1F1" height="65.6094" id="GamePlayer" rx="2.5" ry="2.5" style="stroke:#181818;stroke-width:0.5;" width="141" x="1432.5" y="1372"/><ellipse cx="1461.45" cy="1388" fill="#B4A7E5" rx="11" ry="11" style="stroke:#181818;stroke-width:1.0;"/><path d="M1462.4031,1384.6406 L1462.4031,1391.2969 L1464.1219,1391.2969 Q1464.7313,1391.2969 1464.9969,1391.5313 Q1465.2625,1391.7656 1465.2625,1392.1563 Q1465.2625,1392.5313 1464.9969,1392.7656 Q1464.7313,1393 1464.1219,1393 L1458.9813,1393 Q1458.3719,1393 1458.1063,1392.7656 Q1457.8406,1392.5313 1457.8406,1392.1406 Q1457.8406,1391.7656 1458.1063,1391.5313 Q1458.3719,1391.2969 1458.9813,1391.2969 L1460.7,1391.2969 L1460.7,1384.6406 L1458.9813,1384.6406 Q1458.3719,1384.6406 1458.1063,1384.4063 Q1457.8406,1384.1719 1457.8406,1383.7813 Q1457.8406,1383.4063 1458.1063,1383.1719 Q1458.3719,1382.9375 1458.9813,1382.9375 L1464.1219,1382.9375 Q1464.7313,1382.9375 1464.9969,1383.1719 Q1465.2625,1383.4063 1465.2625,1383.7813 Q1465.2625,1384.1719 1464.9969,1384.4063 Q1464.7313,1384.6406 1464.1219,1384.6406 L1462.4031,1384.6406 Z " fill="#000000"/><text fill="#000000" font-family="sans-serif" font-size="14" font-style="italic" lengthAdjust="spacing" textLength="78" x="1478.55" y="1393.7285">GamePlayer</text><line style="stroke:#181818;stroke-width:0.5;" x1="1433.5" x2="1572.5" y1="1404" y2="1404"/><line style="stroke:#181818;stroke-width:0.5;" x1="1433.5" x2="1572.5" y1="1412" y2="1412"/><ellipse cx="1443.5" cy="1423" fill="#84BE84" rx="3" ry="3" style="stroke:#038048;stroke-width:1.0;"/><text fill="#000000" font-family="sans-serif" font-size="14" lengthAdjust="spacing" textLength="115" x="1452.5" y="1430.5332">processResult(int)</text></g><!--MD5=[26178a7f5ccfc2a33ee17310fc2a0bb3]
class GamePlayersProvider--><g id="elem_GamePlayersProvider"><rect codeLine="140" fill="#F1F1F1" height="65.6094" id="GamePlayersProvider" rx="2.5" ry="2.5" style="stroke:#181818;stroke-width:0.5;" width="254" x="1320" y="1211"/><ellipse cx="1374.25" cy="1227" fill="#B4A7E5" rx="11" ry="11" style="stroke:#181818;stroke-width:1.0;"/><path d="M1375.2031,1223.6406 L1375.2031,1230.2969 L1376.9219,1230.2969 Q1377.5313,1230.2969 1377.7969,1230.5313 Q1378.0625,1230.7656 1378.0625,1231.1563 Q1378.0625,1231.5313 1377.7969,1231.7656 Q1377.5313,1232 1376.9219,1232 L1371.7813,1232 Q1371.1719,1232 1370.9063,1231.7656 Q1370.6406,1231.5313 1370.6406,1231.1406 Q1370.6406,1230.7656 1370.9063,1230.5313 Q1371.1719,1230.2969 1371.7813,1230.2969 L1373.5,1230.2969 L1373.5,1223.6406 L1371.7813,1223.6406 Q1371.1719,1223.6406 1370.9063,1223.4063 Q1370.6406,1223.1719 1370.6406,1222.7813 Q1370.6406,1222.4063 1370.9063,1222.1719 Q1371.1719,1221.9375 1371.7813,1221.9375 L1376.9219,1221.9375 Q1377.5313,1221.9375 1377.7969,1222.1719 Q1378.0625,1222.4063 1378.0625,1222.7813 Q1378.0625,1223.1719 1377.7969,1223.4063 Q1377.5313,1223.6406 1376.9219,1223.6406 L1375.2031,1223.6406 Z " fill="#000000"/><text fill="#000000" font-family="sans-serif" font-size="14" font-style="italic" lengthAdjust="spacing" textLength="137" x="1394.75" y="1232.7285">GamePlayersProvider</text><line style="stroke:#181818;stroke-width:0.5;" x1="1321" x2="1573" y1="1243" y2="1243"/><line style="stroke:#181818;stroke-width:0.5;" x1="1321" x2="1573" y1="1251" y2="1251"/><ellipse cx="1331" cy="1262" fill="#84BE84" rx="3" ry="3" style="stroke:#038048;stroke-width:1.0;"/><text fill="#000000" font-family="sans-serif" font-size="14" lengthAdjust="spacing" textLength="228" x="1340" y="1269.5332">getGamePlayers(int) : GamePlayer[]</text></g><!--MD5=[94e6bc30fd8c9ad2a6854bef35573eca]
class TicTacToeController--><g id="elem_TicTacToeController"><rect codeLine="121" fill="#F1F1F1" height="48" id="TicTacToeController" rx="2.5" ry="2.5" style="stroke:#181818;stroke-width:0.5;" width="162" x="966" y="1381"/><ellipse cx="981" cy="1397" fill="#ADD1B2" rx="11" ry="11" style="stroke:#181818;stroke-width:1.0;"/><path d="M983.7656,1392.875 Q983.9219,1392.6563 984.1094,1392.5469 Q984.2969,1392.4375 984.5156,1392.4375 Q984.8906,1392.4375 985.125,1392.7031 Q985.3594,1392.9531 985.3594,1393.5625 L985.3594,1395.0156 Q985.3594,1395.625 985.125,1395.8906 Q984.8906,1396.1563 984.5156,1396.1563 Q984.1719,1396.1563 983.9688,1395.9531 Q983.7656,1395.7656 983.6563,1395.25 Q983.6094,1394.8906 983.4219,1394.7031 Q983.0938,1394.3281 982.4844,1394.1094 Q981.875,1393.8906 981.25,1393.8906 Q980.4844,1393.8906 979.8438,1394.2188 Q979.2188,1394.5469 978.7188,1395.2969 Q978.2344,1396.0469 978.2344,1397.0781 L978.2344,1398.1719 Q978.2344,1399.4063 979.125,1400.2344 Q980.0156,1401.0469 981.6094,1401.0469 Q982.5469,1401.0469 983.2031,1400.7969 Q983.5938,1400.6406 984.0156,1400.2031 Q984.2813,1399.9375 984.4219,1399.8594 Q984.5781,1399.7813 984.7813,1399.7813 Q985.1094,1399.7813 985.3594,1400.0469 Q985.625,1400.2969 985.625,1400.6406 Q985.625,1400.9844 985.2813,1401.3906 Q984.7813,1401.9688 983.9844,1402.2969 Q982.9063,1402.75 981.6094,1402.75 Q980.0938,1402.75 978.8906,1402.125 Q977.9063,1401.625 977.2188,1400.5625 Q976.5313,1399.4844 976.5313,1398.2031 L976.5313,1397.0469 Q976.5313,1395.7188 977.1406,1394.5781 Q977.7656,1393.4219 978.8594,1392.8125 Q979.9531,1392.1875 981.1875,1392.1875 Q981.9219,1392.1875 982.5625,1392.3594 Q983.2188,1392.5156 983.7656,1392.875 Z " fill="#000000"/><text fill="#000000" font-family="sans-serif" font-size="14" lengthAdjust="spacing" textLength="130" x="995" y="1402.7285">TicTacToeController</text><line style="stroke:#181818;stroke-width:0.5;" x1="967" x2="1127" y1="1413" y2="1413"/><line style="stroke:#181818;stroke-width:0.5;" x1="967" x2="1127" y1="1421" y2="1421"/></g><!--MD5=[fb2941c51d2aa49bb175e07467481314]
class TicTacToePlayerController--><g id="elem_TicTacToePlayerController"><rect codeLine="124" fill="#F1F1F1" height="48" id="TicTacToePlayerController" rx="2.5" ry="2.5" style="stroke:#181818;stroke-width:0.5;" width="202" x="946" y="1533"/><ellipse cx="961" cy="1549" fill="#B4A7E5" rx="11" ry="11" style="stroke:#181818;stroke-width:1.0;"/><path d="M961.9531,1545.6406 L961.9531,1552.2969 L963.6719,1552.2969 Q964.2813,1552.2969 964.5469,1552.5313 Q964.8125,1552.7656 964.8125,1553.1563 Q964.8125,1553.5313 964.5469,1553.7656 Q964.2813,1554 963.6719,1554 L958.5313,1554 Q957.9219,1554 957.6563,1553.7656 Q957.3906,1553.5313 957.3906,1553.1406 Q957.3906,1552.7656 957.6563,1552.5313 Q957.9219,1552.2969 958.5313,1552.2969 L960.25,1552.2969 L960.25,1545.6406 L958.5313,1545.6406 Q957.9219,1545.6406 957.6563,1545.4063 Q957.3906,1545.1719 957.3906,1544.7813 Q957.3906,1544.4063 957.6563,1544.1719 Q957.9219,1543.9375 958.5313,1543.9375 L963.6719,1543.9375 Q964.2813,1543.9375 964.5469,1544.1719 Q964.8125,1544.4063 964.8125,1544.7813 Q964.8125,1545.1719 964.5469,1545.4063 Q964.2813,1545.6406 963.6719,1545.6406 L961.9531,1545.6406 Z " fill="#000000"/><text fill="#000000" font-family="sans-serif" font-size="14" font-style="italic" lengthAdjust="spacing" textLength="170" x="975" y="1554.7285">TicTacToePlayerController</text><line style="stroke:#181818;stroke-width:0.5;" x1="947" x2="1147" y1="1565" y2="1565"/><line style="stroke:#181818;stroke-width:0.5;" x1="947" x2="1147" y1="1573" y2="1573"/></g><!--MD5=[be6cf43ae500cdeffe28f30d60f26803]
class HangManController--><g id="elem_HangManController"><rect codeLine="129" fill="#F1F1F1" height="48" id="HangManController" rx="2.5" ry="2.5" style="stroke:#181818;stroke-width:0.5;" width="154" x="1204" y="1381"/><ellipse cx="1219" cy="1397" fill="#ADD1B2" rx="11" ry="11" style="stroke:#181818;stroke-width:1.0;"/><path d="M1221.7656,1392.875 Q1221.9219,1392.6563 1222.1094,1392.5469 Q1222.2969,1392.4375 1222.5156,1392.4375 Q1222.8906,1392.4375 1223.125,1392.7031 Q1223.3594,1392.9531 1223.3594,1393.5625 L1223.3594,1395.0156 Q1223.3594,1395.625 1223.125,1395.8906 Q1222.8906,1396.1563 1222.5156,1396.1563 Q1222.1719,1396.1563 1221.9688,1395.9531 Q1221.7656,1395.7656 1221.6563,1395.25 Q1221.6094,1394.8906 1221.4219,1394.7031 Q1221.0938,1394.3281 1220.4844,1394.1094 Q1219.875,1393.8906 1219.25,1393.8906 Q1218.4844,1393.8906 1217.8438,1394.2188 Q1217.2188,1394.5469 1216.7188,1395.2969 Q1216.2344,1396.0469 1216.2344,1397.0781 L1216.2344,1398.1719 Q1216.2344,1399.4063 1217.125,1400.2344 Q1218.0156,1401.0469 1219.6094,1401.0469 Q1220.5469,1401.0469 1221.2031,1400.7969 Q1221.5938,1400.6406 1222.0156,1400.2031 Q1222.2813,1399.9375 1222.4219,1399.8594 Q1222.5781,1399.7813 1222.7813,1399.7813 Q1223.1094,1399.7813 1223.3594,1400.0469 Q1223.625,1400.2969 1223.625,1400.6406 Q1223.625,1400.9844 1223.2813,1401.3906 Q1222.7813,1401.9688 1221.9844,1402.2969 Q1220.9063,1402.75 1219.6094,1402.75 Q1218.0938,1402.75 1216.8906,1402.125 Q1215.9063,1401.625 1215.2188,1400.5625 Q1214.5313,1399.4844 1214.5313,1398.2031 L1214.5313,1397.0469 Q1214.5313,1395.7188 1215.1406,1394.5781 Q1215.7656,1393.4219 1216.8594,1392.8125 Q1217.9531,1392.1875 1219.1875,1392.1875 Q1219.9219,1392.1875 1220.5625,1392.3594 Q1221.2188,1392.5156 1221.7656,1392.875 Z " fill="#000000"/><text fill="#000000" font-family="sans-serif" font-size="14" lengthAdjust="spacing" textLength="122" x="1233" y="1402.7285">HangManController</text><line style="stroke:#181818;stroke-width:0.5;" x1="1205" x2="1357" y1="1413" y2="1413"/><line style="stroke:#181818;stroke-width:0.5;" x1="1205" x2="1357" y1="1421" y2="1421"/></g><!--MD5=[4203fa2c9e6d2cd6909288a67cbd8e03]
class HangManPlayerController--><g id="elem_HangManPlayerController"><rect codeLine="132" fill="#F1F1F1" height="48" id="HangManPlayerController" rx="2.5" ry="2.5" style="stroke:#181818;stroke-width:0.5;" width="196" x="1204" y="1533"/><ellipse cx="1219" cy="1549" fill="#B4A7E5" rx="11" ry="11" style="stroke:#181818;stroke-width:1.0;"/><path d="M1219.9531,1545.6406 L1219.9531,1552.2969 L1221.6719,1552.2969 Q1222.2813,1552.2969 1222.5469,1552.5313 Q1222.8125,1552.7656 1222.8125,1553.1563 Q1222.8125,1553.5313 1222.5469,1553.7656 Q1222.2813,1554 1221.6719,1554 L1216.5313,1554 Q1215.9219,1554 1215.6563,1553.7656 Q1215.3906,1553.5313 1215.3906,1553.1406 Q1215.3906,1552.7656 1215.6563,1552.5313 Q1215.9219,1552.2969 1216.5313,1552.2969 L1218.25,1552.2969 L1218.25,1545.6406 L1216.5313,1545.6406 Q1215.9219,1545.6406 1215.6563,1545.4063 Q1215.3906,1545.1719 1215.3906,1544.7813 Q1215.3906,1544.4063 1215.6563,1544.1719 Q1215.9219,1543.9375 1216.5313,1543.9375 L1221.6719,1543.9375 Q1222.2813,1543.9375 1222.5469,1544.1719 Q1222.8125,1544.4063 1222.8125,1544.7813 Q1222.8125,1545.1719 1222.5469,1545.4063 Q1222.2813,1545.6406 1221.6719,1545.6406 L1219.9531,1545.6406 Z " fill="#000000"/><text fill="#000000" font-family="sans-serif" font-size="14" font-style="italic" lengthAdjust="spacing" textLength="164" x="1233" y="1554.7285">HangManPlayerController</text><line style="stroke:#181818;stroke-width:0.5;" x1="1205" x2="1399" y1="1565" y2="1565"/><line style="stroke:#181818;stroke-width:0.5;" x1="1205" x2="1399" y1="1573" y2="1573"/></g><!--MD5=[e10552ebcc634954ffb254e345666c67]
class GamesPlatform--><g id="elem_GamesPlatform"><rect codeLine="153" fill="#F1F1F1" height="118.4375" id="GamesPlatform" rx="2.5" ry="2.5" style="stroke:#181818;stroke-width:0.5;" width="177" x="22.5" y="1498"/><ellipse cx="59.1" cy="1514" fill="#ADD1B2" rx="11" ry="11" style="stroke:#181818;stroke-width:1.0;"/><path d="M61.8656,1509.875 Q62.0219,1509.6563 62.2094,1509.5469 Q62.3969,1509.4375 62.6156,1509.4375 Q62.9906,1509.4375 63.225,1509.7031 Q63.4594,1509.9531 63.4594,1510.5625 L63.4594,1512.0156 Q63.4594,1512.625 63.225,1512.8906 Q62.9906,1513.1563 62.6156,1513.1563 Q62.2719,1513.1563 62.0688,1512.9531 Q61.8656,1512.7656 61.7563,1512.25 Q61.7094,1511.8906 61.5219,1511.7031 Q61.1938,1511.3281 60.5844,1511.1094 Q59.975,1510.8906 59.35,1510.8906 Q58.5844,1510.8906 57.9438,1511.2188 Q57.3188,1511.5469 56.8188,1512.2969 Q56.3344,1513.0469 56.3344,1514.0781 L56.3344,1515.1719 Q56.3344,1516.4063 57.225,1517.2344 Q58.1156,1518.0469 59.7094,1518.0469 Q60.6469,1518.0469 61.3031,1517.7969 Q61.6938,1517.6406 62.1156,1517.2031 Q62.3813,1516.9375 62.5219,1516.8594 Q62.6781,1516.7813 62.8813,1516.7813 Q63.2094,1516.7813 63.4594,1517.0469 Q63.725,1517.2969 63.725,1517.6406 Q63.725,1517.9844 63.3813,1518.3906 Q62.8813,1518.9688 62.0844,1519.2969 Q61.0063,1519.75 59.7094,1519.75 Q58.1938,1519.75 56.9906,1519.125 Q56.0063,1518.625 55.3188,1517.5625 Q54.6313,1516.4844 54.6313,1515.2031 L54.6313,1514.0469 Q54.6313,1512.7188 55.2406,1511.5781 Q55.8656,1510.4219 56.9594,1509.8125 Q58.0531,1509.1875 59.2875,1509.1875 Q60.0219,1509.1875 60.6625,1509.3594 Q61.3188,1509.5156 61.8656,1509.875 Z " fill="#000000"/><text fill="#000000" font-family="sans-serif" font-size="14" lengthAdjust="spacing" textLength="97" x="77.9" y="1519.7285">GamesPlatform</text><line style="stroke:#181818;stroke-width:0.5;" x1="23.5" x2="198.5" y1="1530" y2="1530"/><line style="stroke:#181818;stroke-width:0.5;" x1="23.5" x2="198.5" y1="1538" y2="1538"/><ellipse cx="33.5" cy="1549" fill="#84BE84" rx="3" ry="3" style="stroke:#038048;stroke-width:1.0;"/><text fill="#000000" font-family="sans-serif" font-size="14" lengthAdjust="spacing" textLength="89" x="42.5" y="1556.5332">showPlayers()</text><ellipse cx="33.5" cy="1566.6094" fill="#84BE84" rx="3" ry="3" style="stroke:#038048;stroke-width:1.0;"/><text fill="#000000" font-family="sans-serif" font-size="14" lengthAdjust="spacing" textLength="90" x="42.5" y="1574.1426">createPlayer()</text><ellipse cx="33.5" cy="1584.2188" fill="#84BE84" rx="3" ry="3" style="stroke:#038048;stroke-width:1.0;"/><text fill="#000000" font-family="sans-serif" font-size="14" lengthAdjust="spacing" textLength="151" x="42.5" y="1591.752">playGame(Game game)</text><ellipse cx="33.5" cy="1601.8281" fill="#84BE84" rx="3" ry="3" style="stroke:#038048;stroke-width:1.0;"/><text fill="#000000" font-family="sans-serif" font-size="14" lengthAdjust="spacing" textLength="77" x="42.5" y="1609.3613">showMenu()</text></g><!--MD5=[b6dcce5e5ef3c84b0b048d11301373dd]
class Game--><g id="elem_Game"><rect codeLine="160" fill="#F1F1F1" height="83.2188" id="Game" rx="2.5" ry="2.5" style="stroke:#181818;stroke-width:0.5;" width="110" x="470" y="1515.5"/><ellipse cx="503" cy="1531.5" fill="#ADD1B2" rx="11" ry="11" style="stroke:#181818;stroke-width:1.0;"/><path d="M505.7656,1527.375 Q505.9219,1527.1563 506.1094,1527.0469 Q506.2969,1526.9375 506.5156,1526.9375 Q506.8906,1526.9375 507.125,1527.2031 Q507.3594,1527.4531 507.3594,1528.0625 L507.3594,1529.5156 Q507.3594,1530.125 507.125,1530.3906 Q506.8906,1530.6563 506.5156,1530.6563 Q506.1719,1530.6563 505.9688,1530.4531 Q505.7656,1530.2656 505.6563,1529.75 Q505.6094,1529.3906 505.4219,1529.2031 Q505.0938,1528.8281 504.4844,1528.6094 Q503.875,1528.3906 503.25,1528.3906 Q502.4844,1528.3906 501.8438,1528.7188 Q501.2188,1529.0469 500.7188,1529.7969 Q500.2344,1530.5469 500.2344,1531.5781 L500.2344,1532.6719 Q500.2344,1533.9063 501.125,1534.7344 Q502.0156,1535.5469 503.6094,1535.5469 Q504.5469,1535.5469 505.2031,1535.2969 Q505.5938,1535.1406 506.0156,1534.7031 Q506.2813,1534.4375 506.4219,1534.3594 Q506.5781,1534.2813 506.7813,1534.2813 Q507.1094,1534.2813 507.3594,1534.5469 Q507.625,1534.7969 507.625,1535.1406 Q507.625,1535.4844 507.2813,1535.8906 Q506.7813,1536.4688 505.9844,1536.7969 Q504.9063,1537.25 503.6094,1537.25 Q502.0938,1537.25 500.8906,1536.625 Q499.9063,1536.125 499.2188,1535.0625 Q498.5313,1533.9844 498.5313,1532.7031 L498.5313,1531.5469 Q498.5313,1530.2188 499.1406,1529.0781 Q499.7656,1527.9219 500.8594,1527.3125 Q501.9531,1526.6875 503.1875,1526.6875 Q503.9219,1526.6875 504.5625,1526.8594 Q505.2188,1527.0156 505.7656,1527.375 Z " fill="#000000"/><text fill="#000000" font-family="sans-serif" font-size="14" lengthAdjust="spacing" textLength="38" x="521" y="1537.2285">Game</text><line style="stroke:#181818;stroke-width:0.5;" x1="471" x2="579" y1="1547.5" y2="1547.5"/><line style="stroke:#181818;stroke-width:0.5;" x1="471" x2="579" y1="1555.5" y2="1555.5"/><ellipse cx="481" cy="1566.5" fill="#84BE84" rx="3" ry="3" style="stroke:#038048;stroke-width:1.0;"/><text fill="#000000" font-family="sans-serif" font-size="14" lengthAdjust="spacing" textLength="84" x="490" y="1574.0332">Introduction()</text><ellipse cx="481" cy="1584.1094" fill="#84BE84" rx="3" ry="3" style="stroke:#038048;stroke-width:1.0;"/><text fill="#000000" font-family="sans-serif" font-size="14" lengthAdjust="spacing" textLength="62" x="490" y="1591.6426">Resume()</text></g><!--MD5=[36f719b1cbc3f26b5758ea249b208fb4]
class TicTacToe--><g id="elem_TicTacToe"><rect codeLine="165" fill="#F1F1F1" height="48" id="TicTacToe" rx="2.5" ry="2.5" style="stroke:#181818;stroke-width:0.5;" width="100" x="615" y="1533"/><ellipse cx="630" cy="1549" fill="#ADD1B2" rx="11" ry="11" style="stroke:#181818;stroke-width:1.0;"/><path d="M632.7656,1544.875 Q632.9219,1544.6563 633.1094,1544.5469 Q633.2969,1544.4375 633.5156,1544.4375 Q633.8906,1544.4375 634.125,1544.7031 Q634.3594,1544.9531 634.3594,1545.5625 L634.3594,1547.0156 Q634.3594,1547.625 634.125,1547.8906 Q633.8906,1548.1563 633.5156,1548.1563 Q633.1719,1548.1563 632.9688,1547.9531 Q632.7656,1547.7656 632.6563,1547.25 Q632.6094,1546.8906 632.4219,1546.7031 Q632.0938,1546.3281 631.4844,1546.1094 Q630.875,1545.8906 630.25,1545.8906 Q629.4844,1545.8906 628.8438,1546.2188 Q628.2188,1546.5469 627.7188,1547.2969 Q627.2344,1548.0469 627.2344,1549.0781 L627.2344,1550.1719 Q627.2344,1551.4063 628.125,1552.2344 Q629.0156,1553.0469 630.6094,1553.0469 Q631.5469,1553.0469 632.2031,1552.7969 Q632.5938,1552.6406 633.0156,1552.2031 Q633.2813,1551.9375 633.4219,1551.8594 Q633.5781,1551.7813 633.7813,1551.7813 Q634.1094,1551.7813 634.3594,1552.0469 Q634.625,1552.2969 634.625,1552.6406 Q634.625,1552.9844 634.2813,1553.3906 Q633.7813,1553.9688 632.9844,1554.2969 Q631.9063,1554.75 630.6094,1554.75 Q629.0938,1554.75 627.8906,1554.125 Q626.9063,1553.625 626.2188,1552.5625 Q625.5313,1551.4844 625.5313,1550.2031 L625.5313,1549.0469 Q625.5313,1547.7188 626.1406,1546.5781 Q626.7656,1545.4219 627.8594,1544.8125 Q628.9531,1544.1875 630.1875,1544.1875 Q630.9219,1544.1875 631.5625,1544.3594 Q632.2188,1544.5156 632.7656,1544.875 Z " fill="#000000"/><text fill="#000000" font-family="sans-serif" font-size="14" lengthAdjust="spacing" textLength="68" x="644" y="1554.7285">TicTacToe</text><line style="stroke:#181818;stroke-width:0.5;" x1="616" x2="714" y1="1565" y2="1565"/><line style="stroke:#181818;stroke-width:0.5;" x1="616" x2="714" y1="1573" y2="1573"/></g><!--MD5=[d7731e51439e3250c63a8cdcafb59da5]
class HangMan--><g id="elem_HangMan"><rect codeLine="168" fill="#F1F1F1" height="48" id="HangMan" rx="2.5" ry="2.5" style="stroke:#181818;stroke-width:0.5;" width="92" x="750" y="1533"/><ellipse cx="765" cy="1549" fill="#ADD1B2" rx="11" ry="11" style="stroke:#181818;stroke-width:1.0;"/><path d="M767.7656,1544.875 Q767.9219,1544.6563 768.1094,1544.5469 Q768.2969,1544.4375 768.5156,1544.4375 Q768.8906,1544.4375 769.125,1544.7031 Q769.3594,1544.9531 769.3594,1545.5625 L769.3594,1547.0156 Q769.3594,1547.625 769.125,1547.8906 Q768.8906,1548.1563 768.5156,1548.1563 Q768.1719,1548.1563 767.9688,1547.9531 Q767.7656,1547.7656 767.6563,1547.25 Q767.6094,1546.8906 767.4219,1546.7031 Q767.0938,1546.3281 766.4844,1546.1094 Q765.875,1545.8906 765.25,1545.8906 Q764.4844,1545.8906 763.8438,1546.2188 Q763.2188,1546.5469 762.7188,1547.2969 Q762.2344,1548.0469 762.2344,1549.0781 L762.2344,1550.1719 Q762.2344,1551.4063 763.125,1552.2344 Q764.0156,1553.0469 765.6094,1553.0469 Q766.5469,1553.0469 767.2031,1552.7969 Q767.5938,1552.6406 768.0156,1552.2031 Q768.2813,1551.9375 768.4219,1551.8594 Q768.5781,1551.7813 768.7813,1551.7813 Q769.1094,1551.7813 769.3594,1552.0469 Q769.625,1552.2969 769.625,1552.6406 Q769.625,1552.9844 769.2813,1553.3906 Q768.7813,1553.9688 767.9844,1554.2969 Q766.9063,1554.75 765.6094,1554.75 Q764.0938,1554.75 762.8906,1554.125 Q761.9063,1553.625 761.2188,1552.5625 Q760.5313,1551.4844 760.5313,1550.2031 L760.5313,1549.0469 Q760.5313,1547.7188 761.1406,1546.5781 Q761.7656,1545.4219 762.8594,1544.8125 Q763.9531,1544.1875 765.1875,1544.1875 Q765.9219,1544.1875 766.5625,1544.3594 Q767.2188,1544.5156 767.7656,1544.875 Z " fill="#000000"/><text fill="#000000" font-family="sans-serif" font-size="14" lengthAdjust="spacing" textLength="60" x="779" y="1554.7285">HangMan</text><line style="stroke:#181818;stroke-width:0.5;" x1="751" x2="841" y1="1565" y2="1565"/><line style="stroke:#181818;stroke-width:0.5;" x1="751" x2="841" y1="1573" y2="1573"/></g><!--MD5=[82a37a108f28ded8fb022e1a5df25ae5]
class ListOfPlayers--><g id="elem_ListOfPlayers"><rect codeLine="172" fill="#F1F1F1" height="100.8281" id="ListOfPlayers" rx="2.5" ry="2.5" style="stroke:#181818;stroke-width:0.5;" width="200" x="235" y="1506.5"/><ellipse cx="288.75" cy="1522.5" fill="#ADD1B2" rx="11" ry="11" style="stroke:#181818;stroke-width:1.0;"/><path d="M291.5156,1518.375 Q291.6719,1518.1563 291.8594,1518.0469 Q292.0469,1517.9375 292.2656,1517.9375 Q292.6406,1517.9375 292.875,1518.2031 Q293.1094,1518.4531 293.1094,1519.0625 L293.1094,1520.5156 Q293.1094,1521.125 292.875,1521.3906 Q292.6406,1521.6563 292.2656,1521.6563 Q291.9219,1521.6563 291.7188,1521.4531 Q291.5156,1521.2656 291.4063,1520.75 Q291.3594,1520.3906 291.1719,1520.2031 Q290.8438,1519.8281 290.2344,1519.6094 Q289.625,1519.3906 289,1519.3906 Q288.2344,1519.3906 287.5938,1519.7188 Q286.9688,1520.0469 286.4688,1520.7969 Q285.9844,1521.5469 285.9844,1522.5781 L285.9844,1523.6719 Q285.9844,1524.9063 286.875,1525.7344 Q287.7656,1526.5469 289.3594,1526.5469 Q290.2969,1526.5469 290.9531,1526.2969 Q291.3438,1526.1406 291.7656,1525.7031 Q292.0313,1525.4375 292.1719,1525.3594 Q292.3281,1525.2813 292.5313,1525.2813 Q292.8594,1525.2813 293.1094,1525.5469 Q293.375,1525.7969 293.375,1526.1406 Q293.375,1526.4844 293.0313,1526.8906 Q292.5313,1527.4688 291.7344,1527.7969 Q290.6563,1528.25 289.3594,1528.25 Q287.8438,1528.25 286.6406,1527.625 Q285.6563,1527.125 284.9688,1526.0625 Q284.2813,1524.9844 284.2813,1523.7031 L284.2813,1522.5469 Q284.2813,1521.2188 284.8906,1520.0781 Q285.5156,1518.9219 286.6094,1518.3125 Q287.7031,1517.6875 288.9375,1517.6875 Q289.6719,1517.6875 290.3125,1517.8594 Q290.9688,1518.0156 291.5156,1518.375 Z " fill="#000000"/><text fill="#000000" font-family="sans-serif" font-size="14" lengthAdjust="spacing" textLength="84" x="309.25" y="1528.2285">ListOfPlayers</text><line style="stroke:#181818;stroke-width:0.5;" x1="236" x2="434" y1="1538.5" y2="1538.5"/><line style="stroke:#181818;stroke-width:0.5;" x1="236" x2="434" y1="1546.5" y2="1546.5"/><ellipse cx="246" cy="1557.5" fill="#84BE84" rx="3" ry="3" style="stroke:#038048;stroke-width:1.0;"/><text fill="#000000" font-family="sans-serif" font-size="14" lengthAdjust="spacing" textLength="52" x="255" y="1565.0332">getList()</text><ellipse cx="246" cy="1575.1094" fill="#84BE84" rx="3" ry="3" style="stroke:#038048;stroke-width:1.0;"/><text fill="#000000" font-family="sans-serif" font-size="14" lengthAdjust="spacing" textLength="60" x="255" y="1582.6426">printList()</text><ellipse cx="246" cy="1592.7188" fill="#84BE84" rx="3" ry="3" style="stroke:#038048;stroke-width:1.0;"/><text fill="#000000" font-family="sans-serif" font-size="14" lengthAdjust="spacing" textLength="174" x="255" y="1600.252">createPlayer(Player Player)</text></g><!--MD5=[f67dd3c3e51d4023034ce19e0947172b]
reverse link Square to Piece--><g id="link_Square_Piece"><path codeLine="85" d="M2247,279.36 C2247,306.59 2247,334.97 2247,360.77 " fill="none" id="Square-backto-Piece" style="stroke:#181818;stroke-width:1.0;"/><polygon fill="none" points="2247,266.1,2243,272.1,2247,278.1,2251,272.1,2247,266.1" style="stroke:#181818;stroke-width:1.0;"/></g><!--MD5=[55d64a43c9fbbd0c57ec275f67dff253]
reverse link Round to Player--><g id="link_Round_Player"><path codeLine="87" d="M1882.76,598.28 C1882.7,613.9 1883.04,629.57 1883.79,644.57 " fill="none" id="Round-backto-Player" style="stroke:#181818;stroke-width:1.0;"/><polygon fill="#181818" points="1882.9,585.19,1878.8278,591.1412,1882.755,597.1891,1886.8272,591.2379,1882.9,585.19" style="stroke:#181818;stroke-width:1.0;"/><text fill="#000000" font-family="sans-serif" font-size="13" lengthAdjust="spacing" textLength="48" x="1832.3299" y="634.2255">Player 1</text></g><!--MD5=[55d64a43c9fbbd0c57ec275f67dff253]
reverse link Round to Player--><g id="link_Round_Player"><path codeLine="88" d="M1909,598.28 C1909,613.9 1909,629.57 1909,644.57 " fill="none" id="Round-backto-Player-1" style="stroke:#181818;stroke-width:1.0;"/><polygon fill="#181818" points="1909,585.19,1905,591.19,1909,597.19,1913,591.19,1909,585.19" style="stroke:#181818;stroke-width:1.0;"/><text fill="#000000" font-family="sans-serif" font-size="13" lengthAdjust="spacing" textLength="48" x="1910.6875" y="634.2255">Player 2</text></g><!--MD5=[55d64a43c9fbbd0c57ec275f67dff253]
reverse link Round to Player--><g id="link_Round_Player"><path codeLine="89" d="M1935.24,598.28 C1935.3,613.9 1934.96,629.57 1934.21,644.57 " fill="none" id="Round-backto-Player-2" style="stroke:#181818;stroke-width:1.0;"/><polygon fill="#181818" points="1935.1,585.19,1931.1728,591.2379,1935.245,597.1891,1939.1722,591.1412,1935.1,585.19" style="stroke:#181818;stroke-width:1.0;"/><text fill="#000000" font-family="sans-serif" font-size="13" lengthAdjust="spacing" textLength="41" x="1937.424" y="634.2255">Winner</text></g><!--MD5=[f7ff9e901bf9f1bebf511a8077eb4f52]
reverse link Square to Round--><g id="link_Square_Round"><path codeLine="91" d="M2131.55,259.28 C2129.01,261.54 2126.49,263.78 2124,266 C2091.92,294.54 2056.97,325.31 2024.75,353.55 " fill="none" id="Square-backto-Round" style="stroke:#181818;stroke-width:1.0;"/><polygon fill="#181818" points="2141.41,250.46,2134.2701,251.4709,2132.4571,258.4504,2139.597,257.4395,2141.41,250.46" style="stroke:#181818;stroke-width:1.0;"/></g><!--MD5=[cb02c96b642da5c7c708bc3e89afb5b1]
reverse link Player to TypePlayer--><g id="link_Player_TypePlayer"><path codeLine="94" d="M1909,864.14 C1909,879.77 1909,895.66 1909,910.86 " fill="none" id="Player-backto-TypePlayer" style="stroke:#181818;stroke-width:1.0;"/><polygon fill="#181818" points="1909,851.08,1905,857.08,1909,863.08,1913,857.08,1909,851.08" style="stroke:#181818;stroke-width:1.0;"/></g><!--MD5=[a6e9f244e90846485a04bb26007abd3c]
reverse link Letter to Round--><g id="link_Letter_Round"><path codeLine="95" d="M1964.82,278.53 C1959.86,294.16 1954.78,310.19 1949.79,325.89 " fill="none" id="Letter-backto-Round" style="stroke:#181818;stroke-width:1.0;"/><polygon fill="#181818" points="1968.76,266.1,1963.1347,270.6117,1965.1357,277.5396,1970.7611,273.0279,1968.76,266.1" style="stroke:#181818;stroke-width:1.0;"/></g><!--MD5=[e5f01086500c82650ddae89aee8c731c]
link TypeGame to Round--><g id="link_TypeGame_Round"><path codeLine="97" d="M1806.53,248.53 C1816.85,269.26 1828,291.68 1839.01,313.83 " fill="none" id="TypeGame-to-Round" style="stroke:#181818;stroke-width:1.0;"/><polygon fill="#181818" points="1844.94,325.73,1845.845,318.5759,1839.5893,314.989,1838.6843,322.1431,1844.94,325.73" style="stroke:#181818;stroke-width:1.0;"/></g><!--MD5=[f145421ccc12813dafeb3a4d9b83df7c]
reverse link GamesPlatformController to GameController--><g id="link_GamesPlatformController_GameController"><path codeLine="180" d="M1231.02,802.8 C1210.81,893.54 1170.01,1076.77 1147.96,1175.81 " fill="none" id="GamesPlatformController-backto-GameController" style="stroke:#181818;stroke-width:1.0;"/><polygon fill="#181818" points="1233.9,789.85,1228.6955,794.8413,1231.301,801.5652,1236.5056,796.5739,1233.9,789.85" style="stroke:#181818;stroke-width:1.0;"/><text fill="#000000" font-family="sans-serif" font-size="13" lengthAdjust="spacing" textLength="7" x="1142.2134" y="1164.9885">2</text></g><!--MD5=[25f9ed02b152c37330d1f397cff7ee23]
reverse link GamesPlatformController to ListOfPlayersController--><g id="link_GamesPlatformController_ListOfPlayersController"><path codeLine="181" d="M1274.93,800.96 C1306.49,852.32 1353.79,929.3 1380.26,972.37 " fill="none" id="GamesPlatformController-backto-ListOfPlayersController" style="stroke:#181818;stroke-width:1.0;"/><polygon fill="#181818" points="1268.05,789.77,1267.7885,796.9764,1274.3399,799.9894,1274.6014,792.7831,1268.05,789.77" style="stroke:#181818;stroke-width:1.0;"/></g><!--MD5=[cab3c98c679434880e3f59a3009c1634]
reverse link GameController to TicTacToeController--><g id="link_GameController_TicTacToeController"><path codeLine="183" d="M1086.87,1330.28 C1076.8,1348.9 1066.96,1367.1 1059.57,1380.75 " fill="none" id="GameController-backto-TicTacToeController" style="stroke:#181818;stroke-width:1.0;"/><polygon fill="none" points="1080.86,1326.69,1096.53,1312.43,1093.17,1333.35,1080.86,1326.69" style="stroke:#181818;stroke-width:1.0;"/></g><!--MD5=[c6f16c22818e4082500239e5ce23de2d]
reverse link GameController to HangManController--><g id="link_GameController_HangManController"><path codeLine="184" d="M1209.43,1327.11 C1227.78,1346.82 1245.93,1366.32 1259.36,1380.75 " fill="none" id="GameController-backto-HangManController" style="stroke:#181818;stroke-width:1.0;"/><polygon fill="none" points="1204.27,1331.84,1195.77,1312.43,1214.52,1322.3,1204.27,1331.84" style="stroke:#181818;stroke-width:1.0;"/></g><!--MD5=[6f1f4216a52bd636ae2e35567e4eba8e]
link GameController to GamePlayersProvider--><g id="link_GameController_GamePlayersProvider"><path codeLine="185" d="M1284.79,1244 C1294.77,1244 1304.75,1244 1314.73,1244 " fill="none" id="GameController-to-GamePlayersProvider" style="stroke:#181818;stroke-width:1.0;"/><polygon fill="#181818" points="1319.95,1244,1310.95,1240,1314.95,1244,1310.95,1248,1319.95,1244" style="stroke:#181818;stroke-width:1.0;"/></g><!--MD5=[0910704c1e545c9948edb60b00a4ce92]
reverse link GameController to GamePlayer--><g id="link_GameController_GamePlayer"><path codeLine="186" d="M1297,1310.14 C1299.01,1310.77 1301.01,1311.39 1303,1312 C1352.19,1327.03 1369.4,1315.23 1416,1337 C1434.83,1345.79 1453.39,1359.25 1468.51,1371.79 " fill="none" id="GameController-backto-GamePlayer" style="stroke:#181818;stroke-width:1.0;"/><polygon fill="#181818" points="1284.58,1306.11,1289.0525,1311.7666,1295.9942,1309.8137,1291.5216,1304.1571,1284.58,1306.11" style="stroke:#181818;stroke-width:1.0;"/></g><!--MD5=[ab40d275b2281ead795d842556714fd6]
reverse link Dice to GameController--><g id="link_Dice_GameController"><path codeLine="188" d="M1735.08,1519.08 C1712.37,1468.22 1663.9,1378.23 1591,1337 C1535.08,1305.38 1365.53,1326.71 1303,1312 C1296.98,1310.58 1290.89,1308.99 1284.77,1307.27 " fill="none" id="Dice-backto-GameController" style="stroke:#181818;stroke-width:1.0;stroke-dasharray:7.0,7.0;"/><polygon fill="#181818" points="1737.2,1523.87,1737.2057,1514.0211,1735.172,1519.2998,1729.8933,1517.266,1737.2,1523.87" style="stroke:#181818;stroke-width:1.0;"/></g><!--MD5=[28cd73cf825d5138d04f5bfbd597bbcf]
link GamePlayer to Dice--><g id="link_GamePlayer_Dice"><path codeLine="189" d="M1555.99,1438.18 C1596.2,1462.6 1651.4,1496.12 1692.65,1521.17 " fill="none" id="GamePlayer-to-Dice" style="stroke:#181818;stroke-width:1.0;stroke-dasharray:7.0,7.0;"/><polygon fill="#181818" points="1697.1,1523.87,1691.4722,1515.7874,1692.8227,1521.2807,1687.3294,1522.6311,1697.1,1523.87" style="stroke:#181818;stroke-width:1.0;"/></g><!--MD5=[7a966d705ca42f9a7697d27178bf23d9]
link ListOfPlayersController to GamePlayersProvider--><g id="link_ListOfPlayersController_GamePlayersProvider"><path codeLine="191" d="M1406.44,1038.89 C1414.22,1078.05 1427.42,1144.48 1436.64,1190.88 " fill="none" id="ListOfPlayersController-to-GamePlayersProvider" style="stroke:#181818;stroke-width:1.0;stroke-dasharray:7.0,7.0;"/><polygon fill="none" points="1443.53,1189.64,1440.57,1210.62,1429.8,1192.37,1443.53,1189.64" style="stroke:#181818;stroke-width:1.0;"/></g><!--MD5=[775a5ea1fc6e6deaa59a0010140416bf]
reverse link TicTacToeController to TicTacToePlayerController--><g id="link_TicTacToeController_TicTacToePlayerController"><path codeLine="193" d="M1047,1442.38 C1047,1470.46 1047,1508.47 1047,1532.62 " fill="none" id="TicTacToeController-backto-TicTacToePlayerController" style="stroke:#181818;stroke-width:1.0;"/><polygon fill="#181818" points="1047,1429.11,1043,1435.11,1047,1441.11,1051,1435.11,1047,1429.11" style="stroke:#181818;stroke-width:1.0;"/></g><!--MD5=[9daa5ab58c5b47831a409ab8d5aa080b]
reverse link HangManController to HangManPlayerController--><g id="link_HangManController_HangManPlayerController"><path codeLine="194" d="M1286.04,1441.99 C1289.98,1470.11 1295.33,1508.36 1298.73,1532.62 " fill="none" id="HangManController-backto-HangManPlayerController" style="stroke:#181818;stroke-width:1.0;"/><polygon fill="#181818" points="1284.24,1429.11,1281.1095,1435.6062,1285.902,1440.9944,1289.0324,1434.4982,1284.24,1429.11" style="stroke:#181818;stroke-width:1.0;"/></g><!--MD5=[c4236c47e11dacac4e19078acb61971c]
link GamePlayer to TicTacToePlayerController--><g id="link_GamePlayer_TicTacToePlayerController"><path codeLine="196" d="M1432.27,1433.87 C1426.81,1435.45 1421.35,1436.85 1416,1438 C1316.68,1459.3 1283.49,1419.34 1188,1454 C1149.19,1468.08 1111.64,1496.19 1085.06,1519.34 " fill="none" id="GamePlayer-to-TicTacToePlayerController" style="stroke:#181818;stroke-width:1.0;stroke-dasharray:7.0,7.0;"/><polygon fill="none" points="1089.55,1524.72,1070.02,1532.94,1080.16,1514.34,1089.55,1524.72" style="stroke:#181818;stroke-width:1.0;"/></g><!--MD5=[2e5462aed94680edae0c0901c886e36d]
link GamePlayer to HangManPlayerController--><g id="link_GamePlayer_HangManPlayerController"><path codeLine="197" d="M1459.88,1438.18 C1427.37,1462.44 1382.8,1495.7 1349.31,1520.69 " fill="none" id="GamePlayer-to-HangManPlayerController" style="stroke:#181818;stroke-width:1.0;stroke-dasharray:7.0,7.0;"/><polygon fill="none" points="1353.14,1526.57,1332.93,1532.92,1344.77,1515.35,1353.14,1526.57" style="stroke:#181818;stroke-width:1.0;"/></g><!--MD5=[9fef192e4236abd5e2d4920e521483b4]
reverse link GamesPlatformController to GamesPlatform--><g id="link_GamesPlatformController_GamesPlatform"><path codeLine="200" d="M1164.83,792.21 C1043.94,860.03 805.66,997.62 615,1132 C429.02,1263.08 387.58,1303.42 217,1454 C201.3,1467.86 184.78,1483.31 169.58,1497.9 " fill="none" id="GamesPlatformController-backto-GamesPlatform" style="stroke:#181818;stroke-width:1.0;stroke-dasharray:7.0,7.0;"/><polygon fill="#181818" points="1169.44,789.63,1159.6335,790.5423,1165.0787,792.0752,1163.5458,797.5204,1169.44,789.63" style="stroke:#181818;stroke-width:1.0;"/></g><!--MD5=[c2df5b70d822c5ff749b26a084f40120]
link Game to GameController--><g id="link_Game_GameController"><path codeLine="201" d="M546.52,1515.33 C559.18,1494.63 576.86,1470.44 598,1454 C709.98,1366.91 862.71,1312.07 976.33,1280.53 " fill="none" id="Game-to-GameController" style="stroke:#181818;stroke-width:1.0;stroke-dasharray:7.0,7.0;"/><polygon fill="#181818" points="981.37,1279.14,971.6302,1277.6783,976.5502,1280.4701,973.7584,1285.3901,981.37,1279.14" style="stroke:#181818;stroke-width:1.0;"/></g><!--MD5=[8b6e57fbb7cda1737f2cde0ee74afed7]
reverse link HangManController to HangMan--><g id="link_HangManController_HangMan"><path codeLine="202" d="M1200.19,1430.34 C1188.15,1433.31 1175.81,1436 1164,1438 C1112.61,1446.7 978.79,1435.67 930,1454 C884.84,1470.97 842.23,1508.44 817.64,1532.93 " fill="none" id="HangManController-backto-HangMan" style="stroke:#181818;stroke-width:1.0;stroke-dasharray:7.0,7.0;"/><polygon fill="#181818" points="1205.34,1429.04,1195.6374,1427.349,1200.4901,1430.256,1197.5831,1435.1088,1205.34,1429.04" style="stroke:#181818;stroke-width:1.0;"/></g><!--MD5=[9fd5f81302634c50fff6d14cf98bb87a]
reverse link TicTacToeController to TicTacToe--><g id="link_TicTacToeController_TicTacToe"><path codeLine="203" d="M960.75,1411.39 C881.13,1417.75 769.81,1430.55 733,1454 C703.74,1472.64 684.17,1508.89 673.82,1532.78 " fill="none" id="TicTacToeController-backto-TicTacToe" style="stroke:#181818;stroke-width:1.0;stroke-dasharray:7.0,7.0;"/><polygon fill="#181818" points="965.95,1410.98,956.6683,1407.6861,960.9649,1411.3657,957.2853,1415.6623,965.95,1410.98" style="stroke:#181818;stroke-width:1.0;"/></g><!--MD5=[c16f1117d75ccd28f070d9af990f14d1]
link GamesPlatformController to TypeGame--><g id="link_GamesPlatformController_TypeGame"><path codeLine="204" d="M1278.46,706.39 C1359.38,613.74 1559.52,384.57 1674.7,252.68 " fill="none" id="GamesPlatformController-to-TypeGame" style="stroke:#181818;stroke-width:1.0;stroke-dasharray:7.0,7.0;"/><polygon fill="#181818" points="1678.08,248.8,1669.1521,252.9584,1674.7956,252.57,1675.184,258.2135,1678.08,248.8" style="stroke:#181818;stroke-width:1.0;"/></g><!--MD5=[9d04c33ff40afaa7c20073565e227ebc]
reverse link ListOfPlayersController to ListOfPlayers--><g id="link_ListOfPlayersController_ListOfPlayers"><path codeLine="205" d="M1302.75,1020.48 C1200.51,1037.6 1036.68,1072 906,1132 C692.24,1230.15 480.43,1417.01 386.03,1506.21 " fill="none" id="ListOfPlayersController-backto-ListOfPlayers" style="stroke:#181818;stroke-width:1.0;stroke-dasharray:7.0,7.0;"/><polygon fill="#181818" points="1307.88,1019.63,1298.3495,1017.1461,1302.9465,1020.4427,1299.6499,1025.0397,1307.88,1019.63" style="stroke:#181818;stroke-width:1.0;"/></g><!--MD5=[cd689fa6762434ff100cd22eaa3e57ce]
reverse link Player to ListOfPlayersController--><g id="link_Player_ListOfPlayersController"><path codeLine="206" d="M1793.72,806.87 C1691.7,858.08 1546.57,930.93 1463.99,972.38 " fill="none" id="Player-backto-ListOfPlayersController" style="stroke:#181818;stroke-width:1.0;stroke-dasharray:7.0,7.0;"/><polygon fill="#181818" points="1798.24,804.6,1788.4025,805.0724,1793.7736,806.8475,1791.9985,812.2186,1798.24,804.6" style="stroke:#181818;stroke-width:1.0;"/></g><!--MD5=[78c5077fab83d6965f6c0ef16157f4d2]
@startuml Main

package model {
    class Player{
        Players: List <Player>
        idPlayer : int
        name : String
        idTypePlayer : int
        insertPlayer (Player): Player
        selectPlayer (int): Player
        updatePlayer (int, Player): Player
        deletePlayer (Player): void
        selectPlayers (): List<Player>
    }
    class Round {
        rounds : List<Round>
        idRound : int
        idPlayer 1: Player
        idPlayer 2: Player
        idWinner : Player
        isFinished : boolean
        idGame : int
        insertRound (Round) : Round
        selectRound (Round) : Round
        selectRounds () : List<Round>
        updateRound (int, Round) : Round
        deleteRound (Round) : void
    }
    class TypePlayer {
        typesPlayers : List<TypePlayer>
        idTypePlayer : int
        name: String
        insertTypePlayer (TypePlayer) : TypePlayer
        selectTypePlayer (int) : TypePlayer
        selectTypesPlayers () : List<TypePlayer>
        updateTypePlayer (int, TypePlayer) : TypePlayer
        deleteTypePlayer (TypePlayer) : void
    }
    class Piece{
        Pieces: List<Piece>
        idPiece : int
        name : String
        insertPiece (Piece) : Piece
        selectPiece (int) : Piece
        updatePiece (int) : Piece
        deletePiece (Piece) : void
        selectPieces (): List<Piece>
    }

    class Square {
        Squares: List<Square>
        idRound : int
        column : int
        row : int
        idPiece : int
        insertSquare (Square) : Square
        selectSquare (int) : Square
        updateSquare (int) : Square
        deleteSquare (Square) : void
        selectSquares (): List<Square>
    }
    class Letter {
        Letters: List<Letter>
        idRound : int
        character : char
        position : int
        isShown : boolean
        insertLetter (Letter): letter
        selectPositionLetter(int) : letter
        selectLetter() : List<Letter>
        updateLetter(int, Letter): letter
        deleteLetter(Letter) : void
    }

    class TypeGame {
        Games: List <Game>
        idGame : int
        game : String
        insertGame (Game): game
        selectGame (int) : game
        selectGame () : List<Game>
        updateGame (int, Game): game
        deleteGame (Game) : void
    }

    Square o- - Piece

    Round *- - "Player 1" Player
    Round *- - "Player 2" Player
    Round *- - "Winner" Player

    Square *- - Round


    Player *- - TypePlayer
    Letter *- - Round

    TypeGame - -* Round
}

package util {
    class Dice{
        +generateValue (int bound)
    }
}

package controller {
    class GamesPlatformController {
        -ListOfPlayers listOfPlayers
        +run()
    }

    package game {
        abstract class GameController {
            # GamePlayer[] gamePlayers
            # GamePlayersProvider gamePlayersProvider
            + {abstract}Execute()
            # AssignRoles (GamePlayer[] gamePlayers)
            # flipRoles (GamePlayer[] gamePlayers)
        }
        package tictactoe {
            class TicTacToeController {

            }
            interface TicTacToePlayerController {

            }
        }
        package hangman {
            class HangManController {

            }
            interface HangManPlayerController{

            }
        }

        interface GamePlayer {
            + processResult(int)
        }
        interface GamePlayersProvider {
            + getGamePlayers(int) : GamePlayer[]
        }

    }

    class ListOfPlayersController {
        +getGamePlayers(int size)
    }
}

package view {

    class GamesPlatform {
        +showPlayers()
        +createPlayer()
        +playGame(Game game)
        +showMenu()
    }

    class Game {
        + Introduction()
        + Resume()
    }

    class TicTacToe {
    }

    class HangMan {

    }

    class ListOfPlayers {
        +getList()
        +printList()
        +createPlayer(Player Player)
    }
}

/'Relaciones internas del controlador'/
GamesPlatformController *- - "2" GameController
GamesPlatformController *- - ListOfPlayersController

GameController <|- - TicTacToeController
GameController <|- - HangManController
GameController -right-> GamePlayersProvider
GameController *- - GamePlayer

Dice <.. GameController
Dice <.up. GamePlayer

ListOfPlayersController ..|> GamePlayersProvider

TicTacToeController *- - TicTacToePlayerController
HangManController *- - HangManPlayerController

GamePlayer ..|> TicTacToePlayerController
GamePlayer ..|> HangManPlayerController

/'Relaciones MVC'/
GamesPlatformController <.. GamesPlatform
Game ..> GameController
HangManController <.. HangMan
TicTacToeController <.. TicTacToe
GamesPlatformController ..> TypeGame
ListOfPlayersController <.. ListOfPlayers
ListOfPlayersController .up.> Player

@enduml

@startuml Main

package model {
    class Player{
        Players: List <Player>
        idPlayer : int
        name : String
        idTypePlayer : int
        insertPlayer (Player): Player
        selectPlayer (int): Player
        updatePlayer (int, Player): Player
        deletePlayer (Player): void
        selectPlayers (): List<Player>
    }
    class Round {
        rounds : List<Round>
        idRound : int
        idPlayer 1: Player
        idPlayer 2: Player
        idWinner : Player
        isFinished : boolean
        idGame : int
        insertRound (Round) : Round
        selectRound (Round) : Round
        selectRounds () : List<Round>
        updateRound (int, Round) : Round
        deleteRound (Round) : void
    }
    class TypePlayer {
        typesPlayers : List<TypePlayer>
        idTypePlayer : int
        name: String
        insertTypePlayer (TypePlayer) : TypePlayer
        selectTypePlayer (int) : TypePlayer
        selectTypesPlayers () : List<TypePlayer>
        updateTypePlayer (int, TypePlayer) : TypePlayer
        deleteTypePlayer (TypePlayer) : void
    }
    class Piece{
        Pieces: List<Piece>
        idPiece : int
        name : String
        insertPiece (Piece) : Piece
        selectPiece (int) : Piece
        updatePiece (int) : Piece
        deletePiece (Piece) : void
        selectPieces (): List<Piece>
    }

    class Square {
        Squares: List<Square>
        idRound : int
        column : int
        row : int
        idPiece : int
        insertSquare (Square) : Square
        selectSquare (int) : Square
        updateSquare (int) : Square
        deleteSquare (Square) : void
        selectSquares (): List<Square>
    }
    class Letter {
        Letters: List<Letter>
        idRound : int
        character : char
        position : int
        isShown : boolean
        insertLetter (Letter): letter
        selectPositionLetter(int) : letter
        selectLetter() : List<Letter>
        updateLetter(int, Letter): letter
        deleteLetter(Letter) : void
    }

    class TypeGame {
        Games: List <Game>
        idGame : int
        game : String
        insertGame (Game): game
        selectGame (int) : game
        selectGame () : List<Game>
        updateGame (int, Game): game
        deleteGame (Game) : void
    }

    Square o- - Piece

    Round *- - "Player 1" Player
    Round *- - "Player 2" Player
    Round *- - "Winner" Player

    Square *- - Round


    Player *- - TypePlayer
    Letter *- - Round

    TypeGame - -* Round
}

package util {
    class Dice{
        +generateValue (int bound)
    }
}

package controller {
    class GamesPlatformController {
        -ListOfPlayers listOfPlayers
        +run()
    }

    package game {
        abstract class GameController {
            # GamePlayer[] gamePlayers
            # GamePlayersProvider gamePlayersProvider
            + {abstract}Execute()
            # AssignRoles (GamePlayer[] gamePlayers)
            # flipRoles (GamePlayer[] gamePlayers)
        }
        package tictactoe {
            class TicTacToeController {

            }
            interface TicTacToePlayerController {

            }
        }
        package hangman {
            class HangManController {

            }
            interface HangManPlayerController{

            }
        }

        interface GamePlayer {
            + processResult(int)
        }
        interface GamePlayersProvider {
            + getGamePlayers(int) : GamePlayer[]
        }

    }

    class ListOfPlayersController {
        +getGamePlayers(int size)
    }
}

package view {

    class GamesPlatform {
        +showPlayers()
        +createPlayer()
        +playGame(Game game)
        +showMenu()
    }

    class Game {
        + Introduction()
        + Resume()
    }

    class TicTacToe {
    }

    class HangMan {

    }

    class ListOfPlayers {
        +getList()
        +printList()
        +createPlayer(Player Player)
    }
}

GamesPlatformController *- - "2" GameController
GamesPlatformController *- - ListOfPlayersController

GameController <|- - TicTacToeController
GameController <|- - HangManController
GameController -right-> GamePlayersProvider
GameController *- - GamePlayer

Dice <.. GameController
Dice <.up. GamePlayer

ListOfPlayersController ..|> GamePlayersProvider

TicTacToeController *- - TicTacToePlayerController
HangManController *- - HangManPlayerController

GamePlayer ..|> TicTacToePlayerController
GamePlayer ..|> HangManPlayerController

GamesPlatformController <.. GamesPlatform
Game ..> GameController
HangManController <.. HangMan
TicTacToeController <.. TicTacToe
GamesPlatformController ..> TypeGame
ListOfPlayersController <.. ListOfPlayers
ListOfPlayersController .up.> Player

@enduml

PlantUML version 1.2022.5(Sat Apr 30 04:55:52 CST 2022)
(GPL source distribution)
Java Runtime: Java(TM) SE Runtime Environment
JVM: Java HotSpot(TM) 64-Bit Server VM
Default Encoding: Cp1252
Language: en
Country: US
--></g></svg>