<?xml version="1.0" encoding="UTF-8" standalone="no"?><svg xmlns="http://www.w3.org/2000/svg" xmlns:xlink="http://www.w3.org/1999/xlink" contentStyleType="text/css" height="1571px" preserveAspectRatio="none" style="width:1995px;height:1571px;background:#FFFFFF;" version="1.1" viewBox="0 0 1995 1571" width="1995px" zoomAndPan="magnify"><defs/><g><!--MD5=[5d4cd377749310b66bf14896f5cd8d9b]
cluster model--><g id="cluster_model"><path d="M1158.5,454 L1202.5,454 A3.75,3.75 0 0 1 1205,456.5 L1212,477.6094 L1884.5,477.6094 A2.5,2.5 0 0 1 1887,480.1094 L1887,1561.5 A2.5,2.5 0 0 1 1884.5,1564 L1158.5,1564 A2.5,2.5 0 0 1 1156,1561.5 L1156,456.5 A2.5,2.5 0 0 1 1158.5,454 " style="stroke:#000000;stroke-width:1.5;fill:none;"/><line style="stroke:#000000;stroke-width:1.5;fill:none;" x1="1156" x2="1212" y1="477.6094" y2="477.6094"/><text fill="#000000" font-family="sans-serif" font-size="14" font-weight="bold" lengthAdjust="spacing" textLength="43" x="1160" y="470.5332">model</text></g><!--MD5=[3e81cc6ee7da4fa8b6adc12b329096f6]
cluster util--><g id="cluster_util"><path d="M352.5,834.5 L375.5,834.5 A3.75,3.75 0 0 1 378,837 L385,858.1094 L571.5,858.1094 A2.5,2.5 0 0 1 574,860.6094 L574,950 A2.5,2.5 0 0 1 571.5,952.5 L352.5,952.5 A2.5,2.5 0 0 1 350,950 L350,837 A2.5,2.5 0 0 1 352.5,834.5 " style="stroke:#000000;stroke-width:1.5;fill:none;"/><line style="stroke:#000000;stroke-width:1.5;fill:none;" x1="350" x2="385" y1="858.1094" y2="858.1094"/><text fill="#000000" font-family="sans-serif" font-size="14" font-weight="bold" lengthAdjust="spacing" textLength="22" x="354" y="851.0332">util</text></g><!--MD5=[10ea673caf457862023e152271927b45]
cluster controller--><g id="cluster_controller"><path d="M600.5,6 L670.5,6 A3.75,3.75 0 0 1 673,8.5 L680,29.6094 L1129.5,29.6094 A2.5,2.5 0 0 1 1132,32.1094 L1132,1319 A2.5,2.5 0 0 1 1129.5,1321.5 L600.5,1321.5 A2.5,2.5 0 0 1 598,1319 L598,8.5 A2.5,2.5 0 0 1 600.5,6 " style="stroke:#000000;stroke-width:1.5;fill:none;"/><line style="stroke:#000000;stroke-width:1.5;fill:none;" x1="598" x2="680" y1="29.6094" y2="29.6094"/><text fill="#000000" font-family="sans-serif" font-size="14" font-weight="bold" lengthAdjust="spacing" textLength="69" x="602" y="22.5332">controller</text></g><!--MD5=[897ec0ebfd0fc927406c2620cf205ed0]
cluster ttt--><g id="cluster_ttt"><path d="M774.5,258 L790.5,258 A3.75,3.75 0 0 1 793,260.5 L800,281.6094 L1105.5,281.6094 A2.5,2.5 0 0 1 1108,284.1094 L1108,1295 A2.5,2.5 0 0 1 1105.5,1297.5 L774.5,1297.5 A2.5,2.5 0 0 1 772,1295 L772,260.5 A2.5,2.5 0 0 1 774.5,258 " style="stroke:#000000;stroke-width:1.5;fill:none;"/><line style="stroke:#000000;stroke-width:1.5;fill:none;" x1="772" x2="800" y1="281.6094" y2="281.6094"/><text fill="#000000" font-family="sans-serif" font-size="14" font-weight="bold" lengthAdjust="spacing" textLength="15" x="776" y="274.5332">ttt</text></g><!--MD5=[86cbce8df1eb9d604fbbb2fa357940f8]
cluster view--><g id="cluster_view"><path d="M8.5,515.5 L42.5,515.5 A3.75,3.75 0 0 1 45,518 L52,539.1094 L521.5,539.1094 A2.5,2.5 0 0 1 524,541.6094 L524,666 A2.5,2.5 0 0 1 521.5,668.5 L8.5,668.5 A2.5,2.5 0 0 1 6,666 L6,518 A2.5,2.5 0 0 1 8.5,515.5 " style="stroke:#000000;stroke-width:1.5;fill:none;"/><line style="stroke:#000000;stroke-width:1.5;fill:none;" x1="6" x2="52" y1="539.1094" y2="539.1094"/><text fill="#000000" font-family="sans-serif" font-size="14" font-weight="bold" lengthAdjust="spacing" textLength="33" x="10" y="532.0332">view</text></g><!--MD5=[2cb47ba637a0d19583e6199456f6ad0b]
class Player--><g id="elem_Player"><rect codeLine="3" fill="#F1F1F1" height="206.4844" id="Player" rx="2.5" ry="2.5" style="stroke:#181818;stroke-width:0.5;" width="221" x="1410.5" y="1093"/><ellipse cx="1496.75" cy="1109" fill="#ADD1B2" rx="11" ry="11" style="stroke:#181818;stroke-width:1.0;"/><path d="M1499.5156,1104.875 Q1499.6719,1104.6563 1499.8594,1104.5469 Q1500.0469,1104.4375 1500.2656,1104.4375 Q1500.6406,1104.4375 1500.875,1104.7031 Q1501.1094,1104.9531 1501.1094,1105.5625 L1501.1094,1107.0156 Q1501.1094,1107.625 1500.875,1107.8906 Q1500.6406,1108.1563 1500.2656,1108.1563 Q1499.9219,1108.1563 1499.7188,1107.9531 Q1499.5156,1107.7656 1499.4063,1107.25 Q1499.3594,1106.8906 1499.1719,1106.7031 Q1498.8438,1106.3281 1498.2344,1106.1094 Q1497.625,1105.8906 1497,1105.8906 Q1496.2344,1105.8906 1495.5938,1106.2188 Q1494.9688,1106.5469 1494.4688,1107.2969 Q1493.9844,1108.0469 1493.9844,1109.0781 L1493.9844,1110.1719 Q1493.9844,1111.4063 1494.875,1112.2344 Q1495.7656,1113.0469 1497.3594,1113.0469 Q1498.2969,1113.0469 1498.9531,1112.7969 Q1499.3438,1112.6406 1499.7656,1112.2031 Q1500.0313,1111.9375 1500.1719,1111.8594 Q1500.3281,1111.7813 1500.5313,1111.7813 Q1500.8594,1111.7813 1501.1094,1112.0469 Q1501.375,1112.2969 1501.375,1112.6406 Q1501.375,1112.9844 1501.0313,1113.3906 Q1500.5313,1113.9688 1499.7344,1114.2969 Q1498.6563,1114.75 1497.3594,1114.75 Q1495.8438,1114.75 1494.6406,1114.125 Q1493.6563,1113.625 1492.9688,1112.5625 Q1492.2813,1111.4844 1492.2813,1110.2031 L1492.2813,1109.0469 Q1492.2813,1107.7188 1492.8906,1106.5781 Q1493.5156,1105.4219 1494.6094,1104.8125 Q1495.7031,1104.1875 1496.9375,1104.1875 Q1497.6719,1104.1875 1498.3125,1104.3594 Q1498.9688,1104.5156 1499.5156,1104.875 Z " fill="#000000"/><text fill="#000000" font-family="sans-serif" font-size="14" lengthAdjust="spacing" textLength="40" x="1517.25" y="1114.7285">Player</text><line style="stroke:#181818;stroke-width:0.5;" x1="1411.5" x2="1630.5" y1="1125" y2="1125"/><text fill="#000000" font-family="sans-serif" font-size="14" lengthAdjust="spacing" textLength="137" x="1416.5" y="1143.5332">Players: List &lt;Player&gt;</text><text fill="#000000" font-family="sans-serif" font-size="14" lengthAdjust="spacing" textLength="78" x="1416.5" y="1161.1426">idPlayer : int</text><text fill="#000000" font-family="sans-serif" font-size="14" lengthAdjust="spacing" textLength="84" x="1416.5" y="1178.752">name : String</text><text fill="#000000" font-family="sans-serif" font-size="14" lengthAdjust="spacing" textLength="110" x="1416.5" y="1196.3613">idTypePlayer : int</text><line style="stroke:#181818;stroke-width:0.5;" x1="1411.5" x2="1630.5" y1="1203.4375" y2="1203.4375"/><text fill="#000000" font-family="sans-serif" font-size="14" lengthAdjust="spacing" textLength="177" x="1416.5" y="1221.9707">insertPlayer (Player): Player</text><text fill="#000000" font-family="sans-serif" font-size="14" lengthAdjust="spacing" textLength="154" x="1416.5" y="1239.5801">selectPlayer (int): Player</text><text fill="#000000" font-family="sans-serif" font-size="14" lengthAdjust="spacing" textLength="209" x="1416.5" y="1257.1895">updatePlayer (int, Player): Player</text><text fill="#000000" font-family="sans-serif" font-size="14" lengthAdjust="spacing" textLength="167" x="1416.5" y="1274.7988">deletePlayer (Player): void</text><text fill="#000000" font-family="sans-serif" font-size="14" lengthAdjust="spacing" textLength="184" x="1416.5" y="1292.4082">selectPlayers (): List&lt;Player&gt;</text></g><!--MD5=[d75b0a238b734941260681f0026bbb88]
class Round--><g id="elem_Round"><rect codeLine="14" fill="#F1F1F1" height="259.3125" id="Round" rx="2.5" ry="2.5" style="stroke:#181818;stroke-width:0.5;" width="231" x="1405.5" y="774"/><ellipse cx="1495.75" cy="790" fill="#ADD1B2" rx="11" ry="11" style="stroke:#181818;stroke-width:1.0;"/><path d="M1498.5156,785.875 Q1498.6719,785.6563 1498.8594,785.5469 Q1499.0469,785.4375 1499.2656,785.4375 Q1499.6406,785.4375 1499.875,785.7031 Q1500.1094,785.9531 1500.1094,786.5625 L1500.1094,788.0156 Q1500.1094,788.625 1499.875,788.8906 Q1499.6406,789.1563 1499.2656,789.1563 Q1498.9219,789.1563 1498.7188,788.9531 Q1498.5156,788.7656 1498.4063,788.25 Q1498.3594,787.8906 1498.1719,787.7031 Q1497.8438,787.3281 1497.2344,787.1094 Q1496.625,786.8906 1496,786.8906 Q1495.2344,786.8906 1494.5938,787.2188 Q1493.9688,787.5469 1493.4688,788.2969 Q1492.9844,789.0469 1492.9844,790.0781 L1492.9844,791.1719 Q1492.9844,792.4063 1493.875,793.2344 Q1494.7656,794.0469 1496.3594,794.0469 Q1497.2969,794.0469 1497.9531,793.7969 Q1498.3438,793.6406 1498.7656,793.2031 Q1499.0313,792.9375 1499.1719,792.8594 Q1499.3281,792.7813 1499.5313,792.7813 Q1499.8594,792.7813 1500.1094,793.0469 Q1500.375,793.2969 1500.375,793.6406 Q1500.375,793.9844 1500.0313,794.3906 Q1499.5313,794.9688 1498.7344,795.2969 Q1497.6563,795.75 1496.3594,795.75 Q1494.8438,795.75 1493.6406,795.125 Q1492.6563,794.625 1491.9688,793.5625 Q1491.2813,792.4844 1491.2813,791.2031 L1491.2813,790.0469 Q1491.2813,788.7188 1491.8906,787.5781 Q1492.5156,786.4219 1493.6094,785.8125 Q1494.7031,785.1875 1495.9375,785.1875 Q1496.6719,785.1875 1497.3125,785.3594 Q1497.9688,785.5156 1498.5156,785.875 Z " fill="#000000"/><text fill="#000000" font-family="sans-serif" font-size="14" lengthAdjust="spacing" textLength="42" x="1516.25" y="795.7285">Round</text><line style="stroke:#181818;stroke-width:0.5;" x1="1406.5" x2="1635.5" y1="806" y2="806"/><text fill="#000000" font-family="sans-serif" font-size="14" lengthAdjust="spacing" textLength="136" x="1411.5" y="824.5332">rounds : List&lt;Round&gt;</text><text fill="#000000" font-family="sans-serif" font-size="14" lengthAdjust="spacing" textLength="80" x="1411.5" y="842.1426">idRound : int</text><text fill="#000000" font-family="sans-serif" font-size="14" lengthAdjust="spacing" textLength="111" x="1411.5" y="859.752">idPlayer 1: Player</text><text fill="#000000" font-family="sans-serif" font-size="14" lengthAdjust="spacing" textLength="111" x="1411.5" y="877.3613">idPlayer 2: Player</text><text fill="#000000" font-family="sans-serif" font-size="14" lengthAdjust="spacing" textLength="108" x="1411.5" y="894.9707">idWinner : Player</text><text fill="#000000" font-family="sans-serif" font-size="14" lengthAdjust="spacing" textLength="127" x="1411.5" y="912.5801">isFinished : boolean</text><text fill="#000000" font-family="sans-serif" font-size="14" lengthAdjust="spacing" textLength="76" x="1411.5" y="930.1895">idGame : int</text><line style="stroke:#181818;stroke-width:0.5;" x1="1406.5" x2="1635.5" y1="937.2656" y2="937.2656"/><text fill="#000000" font-family="sans-serif" font-size="14" lengthAdjust="spacing" textLength="187" x="1411.5" y="955.7988">insertRound (Round) : Round</text><text fill="#000000" font-family="sans-serif" font-size="14" lengthAdjust="spacing" textLength="189" x="1411.5" y="973.4082">selectRound (Round) : Round</text><text fill="#000000" font-family="sans-serif" font-size="14" lengthAdjust="spacing" textLength="192" x="1411.5" y="991.0176">selectRounds () : List&lt;Round&gt;</text><text fill="#000000" font-family="sans-serif" font-size="14" lengthAdjust="spacing" textLength="219" x="1411.5" y="1008.627">updateRound (int, Round) : Round</text><text fill="#000000" font-family="sans-serif" font-size="14" lengthAdjust="spacing" textLength="175" x="1411.5" y="1026.2363">deleteRound (Round) : void</text></g><!--MD5=[ace3e6c11b8886c1ad6e132e1e690d2d]
class TypePlayer--><g id="elem_TypePlayer"><rect codeLine="28" fill="#F1F1F1" height="188.875" id="TypePlayer" rx="2.5" ry="2.5" style="stroke:#181818;stroke-width:0.5;" width="321" x="1360.5" y="1359"/><ellipse cx="1480.75" cy="1375" fill="#ADD1B2" rx="11" ry="11" style="stroke:#181818;stroke-width:1.0;"/><path d="M1483.5156,1370.875 Q1483.6719,1370.6563 1483.8594,1370.5469 Q1484.0469,1370.4375 1484.2656,1370.4375 Q1484.6406,1370.4375 1484.875,1370.7031 Q1485.1094,1370.9531 1485.1094,1371.5625 L1485.1094,1373.0156 Q1485.1094,1373.625 1484.875,1373.8906 Q1484.6406,1374.1563 1484.2656,1374.1563 Q1483.9219,1374.1563 1483.7188,1373.9531 Q1483.5156,1373.7656 1483.4063,1373.25 Q1483.3594,1372.8906 1483.1719,1372.7031 Q1482.8438,1372.3281 1482.2344,1372.1094 Q1481.625,1371.8906 1481,1371.8906 Q1480.2344,1371.8906 1479.5938,1372.2188 Q1478.9688,1372.5469 1478.4688,1373.2969 Q1477.9844,1374.0469 1477.9844,1375.0781 L1477.9844,1376.1719 Q1477.9844,1377.4063 1478.875,1378.2344 Q1479.7656,1379.0469 1481.3594,1379.0469 Q1482.2969,1379.0469 1482.9531,1378.7969 Q1483.3438,1378.6406 1483.7656,1378.2031 Q1484.0313,1377.9375 1484.1719,1377.8594 Q1484.3281,1377.7813 1484.5313,1377.7813 Q1484.8594,1377.7813 1485.1094,1378.0469 Q1485.375,1378.2969 1485.375,1378.6406 Q1485.375,1378.9844 1485.0313,1379.3906 Q1484.5313,1379.9688 1483.7344,1380.2969 Q1482.6563,1380.75 1481.3594,1380.75 Q1479.8438,1380.75 1478.6406,1380.125 Q1477.6563,1379.625 1476.9688,1378.5625 Q1476.2813,1377.4844 1476.2813,1376.2031 L1476.2813,1375.0469 Q1476.2813,1373.7188 1476.8906,1372.5781 Q1477.5156,1371.4219 1478.6094,1370.8125 Q1479.7031,1370.1875 1480.9375,1370.1875 Q1481.6719,1370.1875 1482.3125,1370.3594 Q1482.9688,1370.5156 1483.5156,1370.875 Z " fill="#000000"/><text fill="#000000" font-family="sans-serif" font-size="14" lengthAdjust="spacing" textLength="72" x="1501.25" y="1380.7285">TypePlayer</text><line style="stroke:#181818;stroke-width:0.5;" x1="1361.5" x2="1680.5" y1="1391" y2="1391"/><text fill="#000000" font-family="sans-serif" font-size="14" lengthAdjust="spacing" textLength="203" x="1366.5" y="1409.5332">typesPlayers : List&lt;TypePlayer&gt;</text><text fill="#000000" font-family="sans-serif" font-size="14" lengthAdjust="spacing" textLength="110" x="1366.5" y="1427.1426">idTypePlayer : int</text><text fill="#000000" font-family="sans-serif" font-size="14" lengthAdjust="spacing" textLength="80" x="1366.5" y="1444.752">name: String</text><line style="stroke:#181818;stroke-width:0.5;" x1="1361.5" x2="1680.5" y1="1451.8281" y2="1451.8281"/><text fill="#000000" font-family="sans-serif" font-size="14" lengthAdjust="spacing" textLength="277" x="1366.5" y="1470.3613">insertTypePlayer (TypePlayer) : TypePlayer</text><text fill="#000000" font-family="sans-serif" font-size="14" lengthAdjust="spacing" textLength="222" x="1366.5" y="1487.9707">selectTypePlayer (int) : TypePlayer</text><text fill="#000000" font-family="sans-serif" font-size="14" lengthAdjust="spacing" textLength="259" x="1366.5" y="1505.5801">selectTypesPlayers () : List&lt;TypePlayer&gt;</text><text fill="#000000" font-family="sans-serif" font-size="14" lengthAdjust="spacing" textLength="309" x="1366.5" y="1523.1895">updateTypePlayer (int, TypePlayer) : TypePlayer</text><text fill="#000000" font-family="sans-serif" font-size="14" lengthAdjust="spacing" textLength="235" x="1366.5" y="1540.7988">deleteTypePlayer (TypePlayer) : void</text></g><!--MD5=[e05bacf3ff4416a0580578814d41bbf6]
class Piece--><g id="elem_Piece"><rect codeLine="38" fill="#F1F1F1" height="188.875" id="Piece" rx="2.5" ry="2.5" style="stroke:#181818;stroke-width:0.5;" width="186" x="1672" y="809"/><ellipse cx="1743.25" cy="825" fill="#ADD1B2" rx="11" ry="11" style="stroke:#181818;stroke-width:1.0;"/><path d="M1746.0156,820.875 Q1746.1719,820.6563 1746.3594,820.5469 Q1746.5469,820.4375 1746.7656,820.4375 Q1747.1406,820.4375 1747.375,820.7031 Q1747.6094,820.9531 1747.6094,821.5625 L1747.6094,823.0156 Q1747.6094,823.625 1747.375,823.8906 Q1747.1406,824.1563 1746.7656,824.1563 Q1746.4219,824.1563 1746.2188,823.9531 Q1746.0156,823.7656 1745.9063,823.25 Q1745.8594,822.8906 1745.6719,822.7031 Q1745.3438,822.3281 1744.7344,822.1094 Q1744.125,821.8906 1743.5,821.8906 Q1742.7344,821.8906 1742.0938,822.2188 Q1741.4688,822.5469 1740.9688,823.2969 Q1740.4844,824.0469 1740.4844,825.0781 L1740.4844,826.1719 Q1740.4844,827.4063 1741.375,828.2344 Q1742.2656,829.0469 1743.8594,829.0469 Q1744.7969,829.0469 1745.4531,828.7969 Q1745.8438,828.6406 1746.2656,828.2031 Q1746.5313,827.9375 1746.6719,827.8594 Q1746.8281,827.7813 1747.0313,827.7813 Q1747.3594,827.7813 1747.6094,828.0469 Q1747.875,828.2969 1747.875,828.6406 Q1747.875,828.9844 1747.5313,829.3906 Q1747.0313,829.9688 1746.2344,830.2969 Q1745.1563,830.75 1743.8594,830.75 Q1742.3438,830.75 1741.1406,830.125 Q1740.1563,829.625 1739.4688,828.5625 Q1738.7813,827.4844 1738.7813,826.2031 L1738.7813,825.0469 Q1738.7813,823.7188 1739.3906,822.5781 Q1740.0156,821.4219 1741.1094,820.8125 Q1742.2031,820.1875 1743.4375,820.1875 Q1744.1719,820.1875 1744.8125,820.3594 Q1745.4688,820.5156 1746.0156,820.875 Z " fill="#000000"/><text fill="#000000" font-family="sans-serif" font-size="14" lengthAdjust="spacing" textLength="35" x="1763.75" y="830.7285">Piece</text><line style="stroke:#181818;stroke-width:0.5;" x1="1673" x2="1857" y1="841" y2="841"/><text fill="#000000" font-family="sans-serif" font-size="14" lengthAdjust="spacing" textLength="123" x="1678" y="859.5332">Pieces: List&lt;Piece&gt;</text><text fill="#000000" font-family="sans-serif" font-size="14" lengthAdjust="spacing" textLength="73" x="1678" y="877.1426">idPiece : int</text><text fill="#000000" font-family="sans-serif" font-size="14" lengthAdjust="spacing" textLength="84" x="1678" y="894.752">name : String</text><line style="stroke:#181818;stroke-width:0.5;" x1="1673" x2="1857" y1="901.8281" y2="901.8281"/><text fill="#000000" font-family="sans-serif" font-size="14" lengthAdjust="spacing" textLength="166" x="1678" y="920.3613">insertPiece (Piece) : Piece</text><text fill="#000000" font-family="sans-serif" font-size="14" lengthAdjust="spacing" textLength="148" x="1678" y="937.9707">selectPiece (int) : Piece</text><text fill="#000000" font-family="sans-serif" font-size="14" lengthAdjust="spacing" textLength="155" x="1678" y="955.5801">updatePiece (int) : Piece</text><text fill="#000000" font-family="sans-serif" font-size="14" lengthAdjust="spacing" textLength="161" x="1678" y="973.1895">deletePiece (Piece) : void</text><text fill="#000000" font-family="sans-serif" font-size="14" lengthAdjust="spacing" textLength="174" x="1678" y="990.7988">selectPieces (): List&lt;Piece&gt;</text></g><!--MD5=[5655ee3e2a0d028d03fe20f829576392]
class Square--><g id="elem_Square"><rect codeLine="49" fill="#F1F1F1" height="224.0938" id="Square" rx="2.5" ry="2.5" style="stroke:#181818;stroke-width:0.5;" width="211" x="1659.5" y="490"/><ellipse cx="1737.75" cy="506" fill="#ADD1B2" rx="11" ry="11" style="stroke:#181818;stroke-width:1.0;"/><path d="M1740.5156,501.875 Q1740.6719,501.6563 1740.8594,501.5469 Q1741.0469,501.4375 1741.2656,501.4375 Q1741.6406,501.4375 1741.875,501.7031 Q1742.1094,501.9531 1742.1094,502.5625 L1742.1094,504.0156 Q1742.1094,504.625 1741.875,504.8906 Q1741.6406,505.1563 1741.2656,505.1563 Q1740.9219,505.1563 1740.7188,504.9531 Q1740.5156,504.7656 1740.4063,504.25 Q1740.3594,503.8906 1740.1719,503.7031 Q1739.8438,503.3281 1739.2344,503.1094 Q1738.625,502.8906 1738,502.8906 Q1737.2344,502.8906 1736.5938,503.2188 Q1735.9688,503.5469 1735.4688,504.2969 Q1734.9844,505.0469 1734.9844,506.0781 L1734.9844,507.1719 Q1734.9844,508.4063 1735.875,509.2344 Q1736.7656,510.0469 1738.3594,510.0469 Q1739.2969,510.0469 1739.9531,509.7969 Q1740.3438,509.6406 1740.7656,509.2031 Q1741.0313,508.9375 1741.1719,508.8594 Q1741.3281,508.7813 1741.5313,508.7813 Q1741.8594,508.7813 1742.1094,509.0469 Q1742.375,509.2969 1742.375,509.6406 Q1742.375,509.9844 1742.0313,510.3906 Q1741.5313,510.9688 1740.7344,511.2969 Q1739.6563,511.75 1738.3594,511.75 Q1736.8438,511.75 1735.6406,511.125 Q1734.6563,510.625 1733.9688,509.5625 Q1733.2813,508.4844 1733.2813,507.2031 L1733.2813,506.0469 Q1733.2813,504.7188 1733.8906,503.5781 Q1734.5156,502.4219 1735.6094,501.8125 Q1736.7031,501.1875 1737.9375,501.1875 Q1738.6719,501.1875 1739.3125,501.3594 Q1739.9688,501.5156 1740.5156,501.875 Z " fill="#000000"/><text fill="#000000" font-family="sans-serif" font-size="14" lengthAdjust="spacing" textLength="46" x="1758.25" y="511.7285">Square</text><line style="stroke:#181818;stroke-width:0.5;" x1="1660.5" x2="1869.5" y1="522" y2="522"/><text fill="#000000" font-family="sans-serif" font-size="14" lengthAdjust="spacing" textLength="145" x="1665.5" y="540.5332">Squares: List&lt;Square&gt;</text><text fill="#000000" font-family="sans-serif" font-size="14" lengthAdjust="spacing" textLength="80" x="1665.5" y="558.1426">idRound : int</text><text fill="#000000" font-family="sans-serif" font-size="14" lengthAdjust="spacing" textLength="72" x="1665.5" y="575.752">column : int</text><text fill="#000000" font-family="sans-serif" font-size="14" lengthAdjust="spacing" textLength="49" x="1665.5" y="593.3613">row : int</text><text fill="#000000" font-family="sans-serif" font-size="14" lengthAdjust="spacing" textLength="73" x="1665.5" y="610.9707">idPiece : int</text><line style="stroke:#181818;stroke-width:0.5;" x1="1660.5" x2="1869.5" y1="618.0469" y2="618.0469"/><text fill="#000000" font-family="sans-serif" font-size="14" lengthAdjust="spacing" textLength="199" x="1665.5" y="636.5801">insertSquare (Square) : Square</text><text fill="#000000" font-family="sans-serif" font-size="14" lengthAdjust="spacing" textLength="170" x="1665.5" y="654.1895">selectSquare (int) : Square</text><text fill="#000000" font-family="sans-serif" font-size="14" lengthAdjust="spacing" textLength="177" x="1665.5" y="671.7988">updateSquare (int) : Square</text><text fill="#000000" font-family="sans-serif" font-size="14" lengthAdjust="spacing" textLength="183" x="1665.5" y="689.4082">deleteSquare (Square) : void</text><text fill="#000000" font-family="sans-serif" font-size="14" lengthAdjust="spacing" textLength="196" x="1665.5" y="707.0176">selectSquares (): List&lt;Square&gt;</text></g><!--MD5=[120fced6fc53ed38bb00f3c478c713f1]
class Letter--><g id="elem_Letter"><rect codeLine="61" fill="#F1F1F1" height="224.0938" id="Letter" rx="2.5" ry="2.5" style="stroke:#181818;stroke-width:0.5;" width="205" x="1419.5" y="490"/><ellipse cx="1499.25" cy="506" fill="#ADD1B2" rx="11" ry="11" style="stroke:#181818;stroke-width:1.0;"/><path d="M1502.0156,501.875 Q1502.1719,501.6563 1502.3594,501.5469 Q1502.5469,501.4375 1502.7656,501.4375 Q1503.1406,501.4375 1503.375,501.7031 Q1503.6094,501.9531 1503.6094,502.5625 L1503.6094,504.0156 Q1503.6094,504.625 1503.375,504.8906 Q1503.1406,505.1563 1502.7656,505.1563 Q1502.4219,505.1563 1502.2188,504.9531 Q1502.0156,504.7656 1501.9063,504.25 Q1501.8594,503.8906 1501.6719,503.7031 Q1501.3438,503.3281 1500.7344,503.1094 Q1500.125,502.8906 1499.5,502.8906 Q1498.7344,502.8906 1498.0938,503.2188 Q1497.4688,503.5469 1496.9688,504.2969 Q1496.4844,505.0469 1496.4844,506.0781 L1496.4844,507.1719 Q1496.4844,508.4063 1497.375,509.2344 Q1498.2656,510.0469 1499.8594,510.0469 Q1500.7969,510.0469 1501.4531,509.7969 Q1501.8438,509.6406 1502.2656,509.2031 Q1502.5313,508.9375 1502.6719,508.8594 Q1502.8281,508.7813 1503.0313,508.7813 Q1503.3594,508.7813 1503.6094,509.0469 Q1503.875,509.2969 1503.875,509.6406 Q1503.875,509.9844 1503.5313,510.3906 Q1503.0313,510.9688 1502.2344,511.2969 Q1501.1563,511.75 1499.8594,511.75 Q1498.3438,511.75 1497.1406,511.125 Q1496.1563,510.625 1495.4688,509.5625 Q1494.7813,508.4844 1494.7813,507.2031 L1494.7813,506.0469 Q1494.7813,504.7188 1495.3906,503.5781 Q1496.0156,502.4219 1497.1094,501.8125 Q1498.2031,501.1875 1499.4375,501.1875 Q1500.1719,501.1875 1500.8125,501.3594 Q1501.4688,501.5156 1502.0156,501.875 Z " fill="#000000"/><text fill="#000000" font-family="sans-serif" font-size="14" lengthAdjust="spacing" textLength="37" x="1519.75" y="511.7285">Letter</text><line style="stroke:#181818;stroke-width:0.5;" x1="1420.5" x2="1623.5" y1="522" y2="522"/><text fill="#000000" font-family="sans-serif" font-size="14" lengthAdjust="spacing" textLength="127" x="1425.5" y="540.5332">Letters: List&lt;Letter&gt;</text><text fill="#000000" font-family="sans-serif" font-size="14" lengthAdjust="spacing" textLength="80" x="1425.5" y="558.1426">idRound : int</text><text fill="#000000" font-family="sans-serif" font-size="14" lengthAdjust="spacing" textLength="100" x="1425.5" y="575.752">character : char</text><text fill="#000000" font-family="sans-serif" font-size="14" lengthAdjust="spacing" textLength="76" x="1425.5" y="593.3613">position : int</text><text fill="#000000" font-family="sans-serif" font-size="14" lengthAdjust="spacing" textLength="115" x="1425.5" y="610.9707">isShown : boolean</text><line style="stroke:#181818;stroke-width:0.5;" x1="1420.5" x2="1623.5" y1="618.0469" y2="618.0469"/><text fill="#000000" font-family="sans-serif" font-size="14" lengthAdjust="spacing" textLength="163" x="1425.5" y="636.5801">insertLetter (Letter): letter</text><text fill="#000000" font-family="sans-serif" font-size="14" lengthAdjust="spacing" textLength="193" x="1425.5" y="654.1895">selectPositionLetter(int) : letter</text><text fill="#000000" font-family="sans-serif" font-size="14" lengthAdjust="spacing" textLength="171" x="1425.5" y="671.7988">selectLetter() : List&lt;Letter&gt;</text><text fill="#000000" font-family="sans-serif" font-size="14" lengthAdjust="spacing" textLength="191" x="1425.5" y="689.4082">updateLetter(int, Letter): letter</text><text fill="#000000" font-family="sans-serif" font-size="14" lengthAdjust="spacing" textLength="161" x="1425.5" y="707.0176">deleteLetter(Letter) : void</text></g><!--MD5=[f3eaa0fe7b10472f3fee2708cd31d5a7]
class TypeGame--><g id="elem_TypeGame"><rect codeLine="74" fill="#F1F1F1" height="188.875" id="TypeGame" rx="2.5" ry="2.5" style="stroke:#181818;stroke-width:0.5;" width="212" x="1172" y="507.5"/><ellipse cx="1238.75" cy="523.5" fill="#ADD1B2" rx="11" ry="11" style="stroke:#181818;stroke-width:1.0;"/><path d="M1241.5156,519.375 Q1241.6719,519.1563 1241.8594,519.0469 Q1242.0469,518.9375 1242.2656,518.9375 Q1242.6406,518.9375 1242.875,519.2031 Q1243.1094,519.4531 1243.1094,520.0625 L1243.1094,521.5156 Q1243.1094,522.125 1242.875,522.3906 Q1242.6406,522.6563 1242.2656,522.6563 Q1241.9219,522.6563 1241.7188,522.4531 Q1241.5156,522.2656 1241.4063,521.75 Q1241.3594,521.3906 1241.1719,521.2031 Q1240.8438,520.8281 1240.2344,520.6094 Q1239.625,520.3906 1239,520.3906 Q1238.2344,520.3906 1237.5938,520.7188 Q1236.9688,521.0469 1236.4688,521.7969 Q1235.9844,522.5469 1235.9844,523.5781 L1235.9844,524.6719 Q1235.9844,525.9063 1236.875,526.7344 Q1237.7656,527.5469 1239.3594,527.5469 Q1240.2969,527.5469 1240.9531,527.2969 Q1241.3438,527.1406 1241.7656,526.7031 Q1242.0313,526.4375 1242.1719,526.3594 Q1242.3281,526.2813 1242.5313,526.2813 Q1242.8594,526.2813 1243.1094,526.5469 Q1243.375,526.7969 1243.375,527.1406 Q1243.375,527.4844 1243.0313,527.8906 Q1242.5313,528.4688 1241.7344,528.7969 Q1240.6563,529.25 1239.3594,529.25 Q1237.8438,529.25 1236.6406,528.625 Q1235.6563,528.125 1234.9688,527.0625 Q1234.2813,525.9844 1234.2813,524.7031 L1234.2813,523.5469 Q1234.2813,522.2188 1234.8906,521.0781 Q1235.5156,519.9219 1236.6094,519.3125 Q1237.7031,518.6875 1238.9375,518.6875 Q1239.6719,518.6875 1240.3125,518.8594 Q1240.9688,519.0156 1241.5156,519.375 Z " fill="#000000"/><text fill="#000000" font-family="sans-serif" font-size="14" lengthAdjust="spacing" textLength="70" x="1259.25" y="529.2285">TypeGame</text><line style="stroke:#181818;stroke-width:0.5;" x1="1173" x2="1383" y1="539.5" y2="539.5"/><text fill="#000000" font-family="sans-serif" font-size="14" lengthAdjust="spacing" textLength="133" x="1178" y="558.0332">Games: List &lt;Game&gt;</text><text fill="#000000" font-family="sans-serif" font-size="14" lengthAdjust="spacing" textLength="76" x="1178" y="575.6426">idGame : int</text><text fill="#000000" font-family="sans-serif" font-size="14" lengthAdjust="spacing" textLength="84" x="1178" y="593.252">game : String</text><line style="stroke:#181818;stroke-width:0.5;" x1="1173" x2="1383" y1="600.3281" y2="600.3281"/><text fill="#000000" font-family="sans-serif" font-size="14" lengthAdjust="spacing" textLength="168" x="1178" y="618.8613">insertGame (Game): game</text><text fill="#000000" font-family="sans-serif" font-size="14" lengthAdjust="spacing" textLength="151" x="1178" y="636.4707">selectGame (int) : game</text><text fill="#000000" font-family="sans-serif" font-size="14" lengthAdjust="spacing" textLength="177" x="1178" y="654.0801">selectGame () : List&lt;Game&gt;</text><text fill="#000000" font-family="sans-serif" font-size="14" lengthAdjust="spacing" textLength="200" x="1178" y="671.6895">updateGame (int, Game): game</text><text fill="#000000" font-family="sans-serif" font-size="14" lengthAdjust="spacing" textLength="167" x="1178" y="689.2988">deleteGame (Game) : void</text></g><!--MD5=[f7a9ae25cb0ac60c5f03b7bfd778cce3]
class Dice--><g id="elem_Dice"><rect codeLine="101" fill="#F1F1F1" height="65.6094" id="Dice" rx="2.5" ry="2.5" style="stroke:#181818;stroke-width:0.5;" width="192" x="366" y="870.5"/><ellipse cx="443.75" cy="886.5" fill="#ADD1B2" rx="11" ry="11" style="stroke:#181818;stroke-width:1.0;"/><path d="M446.5156,882.375 Q446.6719,882.1563 446.8594,882.0469 Q447.0469,881.9375 447.2656,881.9375 Q447.6406,881.9375 447.875,882.2031 Q448.1094,882.4531 448.1094,883.0625 L448.1094,884.5156 Q448.1094,885.125 447.875,885.3906 Q447.6406,885.6563 447.2656,885.6563 Q446.9219,885.6563 446.7188,885.4531 Q446.5156,885.2656 446.4063,884.75 Q446.3594,884.3906 446.1719,884.2031 Q445.8438,883.8281 445.2344,883.6094 Q444.625,883.3906 444,883.3906 Q443.2344,883.3906 442.5938,883.7188 Q441.9688,884.0469 441.4688,884.7969 Q440.9844,885.5469 440.9844,886.5781 L440.9844,887.6719 Q440.9844,888.9063 441.875,889.7344 Q442.7656,890.5469 444.3594,890.5469 Q445.2969,890.5469 445.9531,890.2969 Q446.3438,890.1406 446.7656,889.7031 Q447.0313,889.4375 447.1719,889.3594 Q447.3281,889.2813 447.5313,889.2813 Q447.8594,889.2813 448.1094,889.5469 Q448.375,889.7969 448.375,890.1406 Q448.375,890.4844 448.0313,890.8906 Q447.5313,891.4688 446.7344,891.7969 Q445.6563,892.25 444.3594,892.25 Q442.8438,892.25 441.6406,891.625 Q440.6563,891.125 439.9688,890.0625 Q439.2813,888.9844 439.2813,887.7031 L439.2813,886.5469 Q439.2813,885.2188 439.8906,884.0781 Q440.5156,882.9219 441.6094,882.3125 Q442.7031,881.6875 443.9375,881.6875 Q444.6719,881.6875 445.3125,881.8594 Q445.9688,882.0156 446.5156,882.375 Z " fill="#000000"/><text fill="#000000" font-family="sans-serif" font-size="14" lengthAdjust="spacing" textLength="28" x="464.25" y="892.2285">Dice</text><line style="stroke:#181818;stroke-width:0.5;" x1="367" x2="557" y1="902.5" y2="902.5"/><line style="stroke:#181818;stroke-width:0.5;" x1="367" x2="557" y1="910.5" y2="910.5"/><ellipse cx="377" cy="921.5" fill="#84BE84" rx="3" ry="3" style="stroke:#038048;stroke-width:1.0;"/><text fill="#000000" font-family="sans-serif" font-size="14" lengthAdjust="spacing" textLength="166" x="386" y="929.0332">generateValue (int bound)</text></g><!--MD5=[6c6d1e40d155900b1d909db28d8f95d5]
class ListOfPlayersController--><g id="elem_ListOfPlayersController"><rect codeLine="107" fill="#F1F1F1" height="65.6094" id="ListOfPlayersController" rx="2.5" ry="2.5" style="stroke:#181818;stroke-width:0.5;" width="184" x="848" y="42"/><ellipse cx="865.7" cy="58" fill="#ADD1B2" rx="11" ry="11" style="stroke:#181818;stroke-width:1.0;"/><path d="M868.4656,53.875 Q868.6219,53.6563 868.8094,53.5469 Q868.9969,53.4375 869.2156,53.4375 Q869.5906,53.4375 869.825,53.7031 Q870.0594,53.9531 870.0594,54.5625 L870.0594,56.0156 Q870.0594,56.625 869.825,56.8906 Q869.5906,57.1563 869.2156,57.1563 Q868.8719,57.1563 868.6688,56.9531 Q868.4656,56.7656 868.3563,56.25 Q868.3094,55.8906 868.1219,55.7031 Q867.7938,55.3281 867.1844,55.1094 Q866.575,54.8906 865.95,54.8906 Q865.1844,54.8906 864.5438,55.2188 Q863.9188,55.5469 863.4188,56.2969 Q862.9344,57.0469 862.9344,58.0781 L862.9344,59.1719 Q862.9344,60.4063 863.825,61.2344 Q864.7156,62.0469 866.3094,62.0469 Q867.2469,62.0469 867.9031,61.7969 Q868.2938,61.6406 868.7156,61.2031 Q868.9813,60.9375 869.1219,60.8594 Q869.2781,60.7813 869.4813,60.7813 Q869.8094,60.7813 870.0594,61.0469 Q870.325,61.2969 870.325,61.6406 Q870.325,61.9844 869.9813,62.3906 Q869.4813,62.9688 868.6844,63.2969 Q867.6063,63.75 866.3094,63.75 Q864.7938,63.75 863.5906,63.125 Q862.6063,62.625 861.9188,61.5625 Q861.2313,60.4844 861.2313,59.2031 L861.2313,58.0469 Q861.2313,56.7188 861.8406,55.5781 Q862.4656,54.4219 863.5594,53.8125 Q864.6531,53.1875 865.8875,53.1875 Q866.6219,53.1875 867.2625,53.3594 Q867.9188,53.5156 868.4656,53.875 Z " fill="#000000"/><text fill="#000000" font-family="sans-serif" font-size="14" lengthAdjust="spacing" textLength="146" x="880.3" y="63.7285">ListOfPlayersController</text><line style="stroke:#181818;stroke-width:0.5;" x1="849" x2="1031" y1="74" y2="74"/><line style="stroke:#181818;stroke-width:0.5;" x1="849" x2="1031" y1="82" y2="82"/><ellipse cx="859" cy="93" fill="#84BE84" rx="3" ry="3" style="stroke:#038048;stroke-width:1.0;"/><text fill="#000000" font-family="sans-serif" font-size="14" lengthAdjust="spacing" textLength="158" x="868" y="100.5332">getGamePlayers(int size)</text></g><!--MD5=[b0359cb538a0ce2cb72f54394993c3c4]
class GamePlayer--><g id="elem_GamePlayer"><rect codeLine="111" fill="#F1F1F1" height="65.6094" id="GamePlayer" rx="2.5" ry="2.5" style="stroke:#181818;stroke-width:0.5;" width="141" x="614.5" y="569"/><ellipse cx="643.45" cy="585" fill="#B4A7E5" rx="11" ry="11" style="stroke:#181818;stroke-width:1.0;"/><path d="M644.4031,581.6406 L644.4031,588.2969 L646.1219,588.2969 Q646.7313,588.2969 646.9969,588.5313 Q647.2625,588.7656 647.2625,589.1563 Q647.2625,589.5313 646.9969,589.7656 Q646.7313,590 646.1219,590 L640.9813,590 Q640.3719,590 640.1063,589.7656 Q639.8406,589.5313 639.8406,589.1406 Q639.8406,588.7656 640.1063,588.5313 Q640.3719,588.2969 640.9813,588.2969 L642.7,588.2969 L642.7,581.6406 L640.9813,581.6406 Q640.3719,581.6406 640.1063,581.4063 Q639.8406,581.1719 639.8406,580.7813 Q639.8406,580.4063 640.1063,580.1719 Q640.3719,579.9375 640.9813,579.9375 L646.1219,579.9375 Q646.7313,579.9375 646.9969,580.1719 Q647.2625,580.4063 647.2625,580.7813 Q647.2625,581.1719 646.9969,581.4063 Q646.7313,581.6406 646.1219,581.6406 L644.4031,581.6406 Z " fill="#000000"/><text fill="#000000" font-family="sans-serif" font-size="14" font-style="italic" lengthAdjust="spacing" textLength="78" x="660.55" y="590.7285">GamePlayer</text><line style="stroke:#181818;stroke-width:0.5;" x1="615.5" x2="754.5" y1="601" y2="601"/><line style="stroke:#181818;stroke-width:0.5;" x1="615.5" x2="754.5" y1="609" y2="609"/><ellipse cx="625.5" cy="620" fill="#84BE84" rx="3" ry="3" style="stroke:#038048;stroke-width:1.0;"/><text fill="#000000" font-family="sans-serif" font-size="14" lengthAdjust="spacing" textLength="115" x="634.5" y="627.5332">processResult(int)</text></g><!--MD5=[26178a7f5ccfc2a33ee17310fc2a0bb3]
class GamePlayersProvider--><g id="elem_GamePlayersProvider"><rect codeLine="114" fill="#F1F1F1" height="65.6094" id="GamePlayersProvider" rx="2.5" ry="2.5" style="stroke:#181818;stroke-width:0.5;" width="254" x="813" y="168"/><ellipse cx="867.25" cy="184" fill="#B4A7E5" rx="11" ry="11" style="stroke:#181818;stroke-width:1.0;"/><path d="M868.2031,180.6406 L868.2031,187.2969 L869.9219,187.2969 Q870.5313,187.2969 870.7969,187.5313 Q871.0625,187.7656 871.0625,188.1563 Q871.0625,188.5313 870.7969,188.7656 Q870.5313,189 869.9219,189 L864.7813,189 Q864.1719,189 863.9063,188.7656 Q863.6406,188.5313 863.6406,188.1406 Q863.6406,187.7656 863.9063,187.5313 Q864.1719,187.2969 864.7813,187.2969 L866.5,187.2969 L866.5,180.6406 L864.7813,180.6406 Q864.1719,180.6406 863.9063,180.4063 Q863.6406,180.1719 863.6406,179.7813 Q863.6406,179.4063 863.9063,179.1719 Q864.1719,178.9375 864.7813,178.9375 L869.9219,178.9375 Q870.5313,178.9375 870.7969,179.1719 Q871.0625,179.4063 871.0625,179.7813 Q871.0625,180.1719 870.7969,180.4063 Q870.5313,180.6406 869.9219,180.6406 L868.2031,180.6406 Z " fill="#000000"/><text fill="#000000" font-family="sans-serif" font-size="14" font-style="italic" lengthAdjust="spacing" textLength="137" x="887.75" y="189.7285">GamePlayersProvider</text><line style="stroke:#181818;stroke-width:0.5;" x1="814" x2="1066" y1="200" y2="200"/><line style="stroke:#181818;stroke-width:0.5;" x1="814" x2="1066" y1="208" y2="208"/><ellipse cx="824" cy="219" fill="#84BE84" rx="3" ry="3" style="stroke:#038048;stroke-width:1.0;"/><text fill="#000000" font-family="sans-serif" font-size="14" lengthAdjust="spacing" textLength="228" x="833" y="226.5332">getGamePlayers(int) : GamePlayer[]</text></g><!--MD5=[94e6bc30fd8c9ad2a6854bef35573eca]
class TicTacToeController--><g id="elem_TicTacToeController"><rect codeLine="119" fill="#F1F1F1" height="136.0469" id="TicTacToeController" rx="2.5" ry="2.5" style="stroke:#181818;stroke-width:0.5;" width="303" x="788.5" y="294"/><ellipse cx="870.75" cy="310" fill="#ADD1B2" rx="11" ry="11" style="stroke:#181818;stroke-width:1.0;"/><path d="M873.5156,305.875 Q873.6719,305.6563 873.8594,305.5469 Q874.0469,305.4375 874.2656,305.4375 Q874.6406,305.4375 874.875,305.7031 Q875.1094,305.9531 875.1094,306.5625 L875.1094,308.0156 Q875.1094,308.625 874.875,308.8906 Q874.6406,309.1563 874.2656,309.1563 Q873.9219,309.1563 873.7188,308.9531 Q873.5156,308.7656 873.4063,308.25 Q873.3594,307.8906 873.1719,307.7031 Q872.8438,307.3281 872.2344,307.1094 Q871.625,306.8906 871,306.8906 Q870.2344,306.8906 869.5938,307.2188 Q868.9688,307.5469 868.4688,308.2969 Q867.9844,309.0469 867.9844,310.0781 L867.9844,311.1719 Q867.9844,312.4063 868.875,313.2344 Q869.7656,314.0469 871.3594,314.0469 Q872.2969,314.0469 872.9531,313.7969 Q873.3438,313.6406 873.7656,313.2031 Q874.0313,312.9375 874.1719,312.8594 Q874.3281,312.7813 874.5313,312.7813 Q874.8594,312.7813 875.1094,313.0469 Q875.375,313.2969 875.375,313.6406 Q875.375,313.9844 875.0313,314.3906 Q874.5313,314.9688 873.7344,315.2969 Q872.6563,315.75 871.3594,315.75 Q869.8438,315.75 868.6406,315.125 Q867.6563,314.625 866.9688,313.5625 Q866.2813,312.4844 866.2813,311.2031 L866.2813,310.0469 Q866.2813,308.7188 866.8906,307.5781 Q867.5156,306.4219 868.6094,305.8125 Q869.7031,305.1875 870.9375,305.1875 Q871.6719,305.1875 872.3125,305.3594 Q872.9688,305.5156 873.5156,305.875 Z " fill="#000000"/><text fill="#000000" font-family="sans-serif" font-size="14" lengthAdjust="spacing" textLength="130" x="891.25" y="315.7285">TicTacToeController</text><line style="stroke:#181818;stroke-width:0.5;" x1="789.5" x2="1090.5" y1="326" y2="326"/><polygon fill="none" points="799.5,332,803.5,336,799.5,340,795.5,336" style="stroke:#B38D22;stroke-width:1.0;"/><text fill="#000000" font-family="sans-serif" font-size="14" lengthAdjust="spacing" textLength="172" x="808.5" y="344.5332">GamePlayer[] gamePlayers</text><polygon fill="none" points="799.5,349.6094,803.5,353.6094,799.5,357.6094,795.5,353.6094" style="stroke:#B38D22;stroke-width:1.0;"/><text fill="#000000" font-family="sans-serif" font-size="14" lengthAdjust="spacing" textLength="277" x="808.5" y="362.1426">GamePlayersProvider gamePlayersProvider</text><line style="stroke:#181818;stroke-width:0.5;" x1="789.5" x2="1090.5" y1="369.2188" y2="369.2188"/><ellipse cx="799.5" cy="380.2188" fill="#84BE84" rx="3" ry="3" style="stroke:#038048;stroke-width:1.0;"/><text fill="#000000" font-family="sans-serif" font-size="14" lengthAdjust="spacing" textLength="60" x="808.5" y="387.752">Execute()</text><polygon fill="#FFFF44" points="799.5,392.8281,803.5,396.8281,799.5,400.8281,795.5,396.8281" style="stroke:#B38D22;stroke-width:1.0;"/><text fill="#000000" font-family="sans-serif" font-size="14" lengthAdjust="spacing" textLength="264" x="808.5" y="405.3613">AssignRoles (GamePlayer[] gamePlayers)</text><polygon fill="#FFFF44" points="799.5,410.4375,803.5,414.4375,799.5,418.4375,795.5,414.4375" style="stroke:#B38D22;stroke-width:1.0;"/><text fill="#000000" font-family="sans-serif" font-size="14" lengthAdjust="spacing" textLength="240" x="808.5" y="422.9707">flipRoles (GamePlayer[] gamePlayers)</text></g><!--MD5=[52855fec3bcd5e41561eba29dc142e36]
class TicTacToePlayer--><g id="elem_TicTacToePlayer"><rect codeLine="126" fill="#F1F1F1" height="65.6094" id="TicTacToePlayer" rx="2.5" ry="2.5" style="stroke:#181818;stroke-width:0.5;" width="140" x="788" y="870.5"/><ellipse cx="803" cy="886.5" fill="#B4A7E5" rx="11" ry="11" style="stroke:#181818;stroke-width:1.0;"/><path d="M803.9531,883.1406 L803.9531,889.7969 L805.6719,889.7969 Q806.2813,889.7969 806.5469,890.0313 Q806.8125,890.2656 806.8125,890.6563 Q806.8125,891.0313 806.5469,891.2656 Q806.2813,891.5 805.6719,891.5 L800.5313,891.5 Q799.9219,891.5 799.6563,891.2656 Q799.3906,891.0313 799.3906,890.6406 Q799.3906,890.2656 799.6563,890.0313 Q799.9219,889.7969 800.5313,889.7969 L802.25,889.7969 L802.25,883.1406 L800.5313,883.1406 Q799.9219,883.1406 799.6563,882.9063 Q799.3906,882.6719 799.3906,882.2813 Q799.3906,881.9063 799.6563,881.6719 Q799.9219,881.4375 800.5313,881.4375 L805.6719,881.4375 Q806.2813,881.4375 806.5469,881.6719 Q806.8125,881.9063 806.8125,882.2813 Q806.8125,882.6719 806.5469,882.9063 Q806.2813,883.1406 805.6719,883.1406 L803.9531,883.1406 Z " fill="#000000"/><text fill="#000000" font-family="sans-serif" font-size="14" font-style="italic" lengthAdjust="spacing" textLength="108" x="817" y="892.2285">TicTacToePlayer</text><line style="stroke:#181818;stroke-width:0.5;" x1="789" x2="927" y1="902.5" y2="902.5"/><line style="stroke:#181818;stroke-width:0.5;" x1="789" x2="927" y1="910.5" y2="910.5"/><ellipse cx="799" cy="921.5" fill="#84BE84" rx="3" ry="3" style="stroke:#038048;stroke-width:1.0;"/><text fill="#000000" font-family="sans-serif" font-size="14" lengthAdjust="spacing" textLength="61" x="808" y="929.0332">putMark()</text></g><!--MD5=[1e9323f801a356464e49867f56746de2]
class RoundTicTacToe--><g id="elem_RoundTicTacToe"><rect codeLine="129" fill="#F1F1F1" height="65.6094" id="RoundTicTacToe" rx="2.5" ry="2.5" style="stroke:#181818;stroke-width:0.5;" width="142" x="881" y="569"/><ellipse cx="896" cy="585" fill="#ADD1B2" rx="11" ry="11" style="stroke:#181818;stroke-width:1.0;"/><path d="M898.7656,580.875 Q898.9219,580.6563 899.1094,580.5469 Q899.2969,580.4375 899.5156,580.4375 Q899.8906,580.4375 900.125,580.7031 Q900.3594,580.9531 900.3594,581.5625 L900.3594,583.0156 Q900.3594,583.625 900.125,583.8906 Q899.8906,584.1563 899.5156,584.1563 Q899.1719,584.1563 898.9688,583.9531 Q898.7656,583.7656 898.6563,583.25 Q898.6094,582.8906 898.4219,582.7031 Q898.0938,582.3281 897.4844,582.1094 Q896.875,581.8906 896.25,581.8906 Q895.4844,581.8906 894.8438,582.2188 Q894.2188,582.5469 893.7188,583.2969 Q893.2344,584.0469 893.2344,585.0781 L893.2344,586.1719 Q893.2344,587.4063 894.125,588.2344 Q895.0156,589.0469 896.6094,589.0469 Q897.5469,589.0469 898.2031,588.7969 Q898.5938,588.6406 899.0156,588.2031 Q899.2813,587.9375 899.4219,587.8594 Q899.5781,587.7813 899.7813,587.7813 Q900.1094,587.7813 900.3594,588.0469 Q900.625,588.2969 900.625,588.6406 Q900.625,588.9844 900.2813,589.3906 Q899.7813,589.9688 898.9844,590.2969 Q897.9063,590.75 896.6094,590.75 Q895.0938,590.75 893.8906,590.125 Q892.9063,589.625 892.2188,588.5625 Q891.5313,587.4844 891.5313,586.2031 L891.5313,585.0469 Q891.5313,583.7188 892.1406,582.5781 Q892.7656,581.4219 893.8594,580.8125 Q894.9531,580.1875 896.1875,580.1875 Q896.9219,580.1875 897.5625,580.3594 Q898.2188,580.5156 898.7656,580.875 Z " fill="#000000"/><text fill="#000000" font-family="sans-serif" font-size="14" lengthAdjust="spacing" textLength="110" x="910" y="590.7285">RoundTicTacToe</text><line style="stroke:#181818;stroke-width:0.5;" x1="882" x2="1022" y1="601" y2="601"/><line style="stroke:#181818;stroke-width:0.5;" x1="882" x2="1022" y1="609" y2="609"/><ellipse cx="892" cy="620" fill="#84BE84" rx="3" ry="3" style="stroke:#038048;stroke-width:1.0;"/><text fill="#000000" font-family="sans-serif" font-size="14" lengthAdjust="spacing" textLength="36" x="901" y="627.5332">play()</text></g><!--MD5=[bc3bc2b8e2792aca32c690a8295ff32f]
class BoardController--><g id="elem_BoardController"><rect codeLine="132" fill="#F1F1F1" height="171.2656" id="BoardController" rx="2.5" ry="2.5" style="stroke:#181818;stroke-width:0.5;" width="279" x="788.5" y="1110.5"/><ellipse cx="873.75" cy="1126.5" fill="#ADD1B2" rx="11" ry="11" style="stroke:#181818;stroke-width:1.0;"/><path d="M876.5156,1122.375 Q876.6719,1122.1563 876.8594,1122.0469 Q877.0469,1121.9375 877.2656,1121.9375 Q877.6406,1121.9375 877.875,1122.2031 Q878.1094,1122.4531 878.1094,1123.0625 L878.1094,1124.5156 Q878.1094,1125.125 877.875,1125.3906 Q877.6406,1125.6563 877.2656,1125.6563 Q876.9219,1125.6563 876.7188,1125.4531 Q876.5156,1125.2656 876.4063,1124.75 Q876.3594,1124.3906 876.1719,1124.2031 Q875.8438,1123.8281 875.2344,1123.6094 Q874.625,1123.3906 874,1123.3906 Q873.2344,1123.3906 872.5938,1123.7188 Q871.9688,1124.0469 871.4688,1124.7969 Q870.9844,1125.5469 870.9844,1126.5781 L870.9844,1127.6719 Q870.9844,1128.9063 871.875,1129.7344 Q872.7656,1130.5469 874.3594,1130.5469 Q875.2969,1130.5469 875.9531,1130.2969 Q876.3438,1130.1406 876.7656,1129.7031 Q877.0313,1129.4375 877.1719,1129.3594 Q877.3281,1129.2813 877.5313,1129.2813 Q877.8594,1129.2813 878.1094,1129.5469 Q878.375,1129.7969 878.375,1130.1406 Q878.375,1130.4844 878.0313,1130.8906 Q877.5313,1131.4688 876.7344,1131.7969 Q875.6563,1132.25 874.3594,1132.25 Q872.8438,1132.25 871.6406,1131.625 Q870.6563,1131.125 869.9688,1130.0625 Q869.2813,1128.9844 869.2813,1127.7031 L869.2813,1126.5469 Q869.2813,1125.2188 869.8906,1124.0781 Q870.5156,1122.9219 871.6094,1122.3125 Q872.7031,1121.6875 873.9375,1121.6875 Q874.6719,1121.6875 875.3125,1121.8594 Q875.9688,1122.0156 876.5156,1122.375 Z " fill="#000000"/><text fill="#000000" font-family="sans-serif" font-size="14" lengthAdjust="spacing" textLength="100" x="894.25" y="1132.2285">BoardController</text><line style="stroke:#181818;stroke-width:0.5;" x1="789.5" x2="1066.5" y1="1142.5" y2="1142.5"/><ellipse cx="799.5" cy="1153.5" fill="none" rx="3" ry="3" style="stroke:#038048;stroke-width:1.0;"/><text fill="#000000" font-family="sans-serif" font-size="14" lengthAdjust="spacing" textLength="109" x="808.5" y="1161.0332">EmptySquare = 9</text><line style="stroke:#181818;stroke-width:0.5;" x1="789.5" x2="1066.5" y1="1168.1094" y2="1168.1094"/><ellipse cx="799.5" cy="1179.1094" fill="#84BE84" rx="3" ry="3" style="stroke:#038048;stroke-width:1.0;"/><text fill="#000000" font-family="sans-serif" font-size="14" lengthAdjust="spacing" textLength="88" x="808.5" y="1186.6426">createBoard()</text><ellipse cx="799.5" cy="1196.7188" fill="#84BE84" rx="3" ry="3" style="stroke:#038048;stroke-width:1.0;"/><text fill="#000000" font-family="sans-serif" font-size="14" lengthAdjust="spacing" textLength="43" x="808.5" y="1204.252">isFull()</text><ellipse cx="799.5" cy="1214.3281" fill="#84BE84" rx="3" ry="3" style="stroke:#038048;stroke-width:1.0;"/><text fill="#000000" font-family="sans-serif" font-size="14" lengthAdjust="spacing" textLength="253" x="808.5" y="1221.8613">putPiece (Position position, Piece piece)</text><rect fill="#F24D5C" height="6" style="stroke:#C82930;stroke-width:1.0;" width="6" x="796.5" y="1228.9375"/><text fill="#000000" font-family="sans-serif" font-size="14" lengthAdjust="spacing" textLength="81" x="808.5" y="1239.4707">checkRows()</text><rect fill="#F24D5C" height="6" style="stroke:#C82930;stroke-width:1.0;" width="6" x="796.5" y="1246.5469"/><text fill="#000000" font-family="sans-serif" font-size="14" lengthAdjust="spacing" textLength="102" x="808.5" y="1257.0801">checkColumns()</text><rect fill="#F24D5C" height="6" style="stroke:#C82930;stroke-width:1.0;" width="6" x="796.5" y="1264.1563"/><text fill="#000000" font-family="sans-serif" font-size="14" lengthAdjust="spacing" textLength="110" x="808.5" y="1274.6895">checkDiagonals()</text></g><!--MD5=[36f719b1cbc3f26b5758ea249b208fb4]
class TicTacToe--><g id="elem_TicTacToe"><rect codeLine="145" fill="#F1F1F1" height="83.2188" id="TicTacToe" rx="2.5" ry="2.5" style="stroke:#181818;stroke-width:0.5;" width="110" x="257" y="560.5"/><ellipse cx="276.5" cy="576.5" fill="#ADD1B2" rx="11" ry="11" style="stroke:#181818;stroke-width:1.0;"/><path d="M279.2656,572.375 Q279.4219,572.1563 279.6094,572.0469 Q279.7969,571.9375 280.0156,571.9375 Q280.3906,571.9375 280.625,572.2031 Q280.8594,572.4531 280.8594,573.0625 L280.8594,574.5156 Q280.8594,575.125 280.625,575.3906 Q280.3906,575.6563 280.0156,575.6563 Q279.6719,575.6563 279.4688,575.4531 Q279.2656,575.2656 279.1563,574.75 Q279.1094,574.3906 278.9219,574.2031 Q278.5938,573.8281 277.9844,573.6094 Q277.375,573.3906 276.75,573.3906 Q275.9844,573.3906 275.3438,573.7188 Q274.7188,574.0469 274.2188,574.7969 Q273.7344,575.5469 273.7344,576.5781 L273.7344,577.6719 Q273.7344,578.9063 274.625,579.7344 Q275.5156,580.5469 277.1094,580.5469 Q278.0469,580.5469 278.7031,580.2969 Q279.0938,580.1406 279.5156,579.7031 Q279.7813,579.4375 279.9219,579.3594 Q280.0781,579.2813 280.2813,579.2813 Q280.6094,579.2813 280.8594,579.5469 Q281.125,579.7969 281.125,580.1406 Q281.125,580.4844 280.7813,580.8906 Q280.2813,581.4688 279.4844,581.7969 Q278.4063,582.25 277.1094,582.25 Q275.5938,582.25 274.3906,581.625 Q273.4063,581.125 272.7188,580.0625 Q272.0313,578.9844 272.0313,577.7031 L272.0313,576.5469 Q272.0313,575.2188 272.6406,574.0781 Q273.2656,572.9219 274.3594,572.3125 Q275.4531,571.6875 276.6875,571.6875 Q277.4219,571.6875 278.0625,571.8594 Q278.7188,572.0156 279.2656,572.375 Z " fill="#000000"/><text fill="#000000" font-family="sans-serif" font-size="14" lengthAdjust="spacing" textLength="68" x="291.5" y="582.2285">TicTacToe</text><line style="stroke:#181818;stroke-width:0.5;" x1="258" x2="366" y1="592.5" y2="592.5"/><line style="stroke:#181818;stroke-width:0.5;" x1="258" x2="366" y1="600.5" y2="600.5"/><ellipse cx="268" cy="611.5" fill="#84BE84" rx="3" ry="3" style="stroke:#038048;stroke-width:1.0;"/><text fill="#000000" font-family="sans-serif" font-size="14" lengthAdjust="spacing" textLength="84" x="277" y="619.0332">Introduction()</text><ellipse cx="268" cy="629.1094" fill="#84BE84" rx="3" ry="3" style="stroke:#038048;stroke-width:1.0;"/><text fill="#000000" font-family="sans-serif" font-size="14" lengthAdjust="spacing" textLength="62" x="277" y="636.6426">Resume()</text></g><!--MD5=[82a37a108f28ded8fb022e1a5df25ae5]
class ListOfPlayers--><g id="elem_ListOfPlayers"><rect codeLine="150" fill="#F1F1F1" height="100.8281" id="ListOfPlayers" rx="2.5" ry="2.5" style="stroke:#181818;stroke-width:0.5;" width="200" x="22" y="551.5"/><ellipse cx="75.75" cy="567.5" fill="#ADD1B2" rx="11" ry="11" style="stroke:#181818;stroke-width:1.0;"/><path d="M78.5156,563.375 Q78.6719,563.1563 78.8594,563.0469 Q79.0469,562.9375 79.2656,562.9375 Q79.6406,562.9375 79.875,563.2031 Q80.1094,563.4531 80.1094,564.0625 L80.1094,565.5156 Q80.1094,566.125 79.875,566.3906 Q79.6406,566.6563 79.2656,566.6563 Q78.9219,566.6563 78.7188,566.4531 Q78.5156,566.2656 78.4063,565.75 Q78.3594,565.3906 78.1719,565.2031 Q77.8438,564.8281 77.2344,564.6094 Q76.625,564.3906 76,564.3906 Q75.2344,564.3906 74.5938,564.7188 Q73.9688,565.0469 73.4688,565.7969 Q72.9844,566.5469 72.9844,567.5781 L72.9844,568.6719 Q72.9844,569.9063 73.875,570.7344 Q74.7656,571.5469 76.3594,571.5469 Q77.2969,571.5469 77.9531,571.2969 Q78.3438,571.1406 78.7656,570.7031 Q79.0313,570.4375 79.1719,570.3594 Q79.3281,570.2813 79.5313,570.2813 Q79.8594,570.2813 80.1094,570.5469 Q80.375,570.7969 80.375,571.1406 Q80.375,571.4844 80.0313,571.8906 Q79.5313,572.4688 78.7344,572.7969 Q77.6563,573.25 76.3594,573.25 Q74.8438,573.25 73.6406,572.625 Q72.6563,572.125 71.9688,571.0625 Q71.2813,569.9844 71.2813,568.7031 L71.2813,567.5469 Q71.2813,566.2188 71.8906,565.0781 Q72.5156,563.9219 73.6094,563.3125 Q74.7031,562.6875 75.9375,562.6875 Q76.6719,562.6875 77.3125,562.8594 Q77.9688,563.0156 78.5156,563.375 Z " fill="#000000"/><text fill="#000000" font-family="sans-serif" font-size="14" lengthAdjust="spacing" textLength="84" x="96.25" y="573.2285">ListOfPlayers</text><line style="stroke:#181818;stroke-width:0.5;" x1="23" x2="221" y1="583.5" y2="583.5"/><line style="stroke:#181818;stroke-width:0.5;" x1="23" x2="221" y1="591.5" y2="591.5"/><ellipse cx="33" cy="602.5" fill="#84BE84" rx="3" ry="3" style="stroke:#038048;stroke-width:1.0;"/><text fill="#000000" font-family="sans-serif" font-size="14" lengthAdjust="spacing" textLength="52" x="42" y="610.0332">getList()</text><ellipse cx="33" cy="620.1094" fill="#84BE84" rx="3" ry="3" style="stroke:#038048;stroke-width:1.0;"/><text fill="#000000" font-family="sans-serif" font-size="14" lengthAdjust="spacing" textLength="60" x="42" y="627.6426">printList()</text><ellipse cx="33" cy="637.7188" fill="#84BE84" rx="3" ry="3" style="stroke:#038048;stroke-width:1.0;"/><text fill="#000000" font-family="sans-serif" font-size="14" lengthAdjust="spacing" textLength="174" x="42" y="645.252">createPlayer(Player Player)</text></g><!--MD5=[9563755d011c5cec7ec66dc53565a59e]
class Board--><g id="elem_Board"><rect codeLine="156" fill="#F1F1F1" height="83.2188" id="Board" rx="2.5" ry="2.5" style="stroke:#181818;stroke-width:0.5;" width="105" x="402.5" y="560.5"/><ellipse cx="433.25" cy="576.5" fill="#ADD1B2" rx="11" ry="11" style="stroke:#181818;stroke-width:1.0;"/><path d="M436.0156,572.375 Q436.1719,572.1563 436.3594,572.0469 Q436.5469,571.9375 436.7656,571.9375 Q437.1406,571.9375 437.375,572.2031 Q437.6094,572.4531 437.6094,573.0625 L437.6094,574.5156 Q437.6094,575.125 437.375,575.3906 Q437.1406,575.6563 436.7656,575.6563 Q436.4219,575.6563 436.2188,575.4531 Q436.0156,575.2656 435.9063,574.75 Q435.8594,574.3906 435.6719,574.2031 Q435.3438,573.8281 434.7344,573.6094 Q434.125,573.3906 433.5,573.3906 Q432.7344,573.3906 432.0938,573.7188 Q431.4688,574.0469 430.9688,574.7969 Q430.4844,575.5469 430.4844,576.5781 L430.4844,577.6719 Q430.4844,578.9063 431.375,579.7344 Q432.2656,580.5469 433.8594,580.5469 Q434.7969,580.5469 435.4531,580.2969 Q435.8438,580.1406 436.2656,579.7031 Q436.5313,579.4375 436.6719,579.3594 Q436.8281,579.2813 437.0313,579.2813 Q437.3594,579.2813 437.6094,579.5469 Q437.875,579.7969 437.875,580.1406 Q437.875,580.4844 437.5313,580.8906 Q437.0313,581.4688 436.2344,581.7969 Q435.1563,582.25 433.8594,582.25 Q432.3438,582.25 431.1406,581.625 Q430.1563,581.125 429.4688,580.0625 Q428.7813,578.9844 428.7813,577.7031 L428.7813,576.5469 Q428.7813,575.2188 429.3906,574.0781 Q430.0156,572.9219 431.1094,572.3125 Q432.2031,571.6875 433.4375,571.6875 Q434.1719,571.6875 434.8125,571.8594 Q435.4688,572.0156 436.0156,572.375 Z " fill="#000000"/><text fill="#000000" font-family="sans-serif" font-size="14" lengthAdjust="spacing" textLength="38" x="450.75" y="582.2285">Board</text><line style="stroke:#181818;stroke-width:0.5;" x1="403.5" x2="506.5" y1="592.5" y2="592.5"/><line style="stroke:#181818;stroke-width:0.5;" x1="403.5" x2="506.5" y1="600.5" y2="600.5"/><ellipse cx="413.5" cy="611.5" fill="#84BE84" rx="3" ry="3" style="stroke:#038048;stroke-width:1.0;"/><text fill="#000000" font-family="sans-serif" font-size="14" lengthAdjust="spacing" textLength="79" x="422.5" y="619.0332">paintBoard()</text><ellipse cx="413.5" cy="629.1094" fill="#84BE84" rx="3" ry="3" style="stroke:#038048;stroke-width:1.0;"/><text fill="#000000" font-family="sans-serif" font-size="14" lengthAdjust="spacing" textLength="75" x="422.5" y="636.6426">getWinner()</text></g><!--MD5=[f67dd3c3e51d4023034ce19e0947172b]
reverse link Square to Piece--><g id="link_Square_Piece"><path codeLine="85" d="M1765,727.36 C1765,754.59 1765,782.97 1765,808.77 " fill="none" id="Square-backto-Piece" style="stroke:#181818;stroke-width:1.0;"/><polygon fill="none" points="1765,714.1,1761,720.1,1765,726.1,1769,720.1,1765,714.1" style="stroke:#181818;stroke-width:1.0;"/></g><!--MD5=[55d64a43c9fbbd0c57ec275f67dff253]
reverse link Round to Player--><g id="link_Round_Player"><path codeLine="87" d="M1494.76,1046.28 C1494.7,1061.9 1495.04,1077.57 1495.79,1092.57 " fill="none" id="Round-backto-Player" style="stroke:#181818;stroke-width:1.0;"/><polygon fill="#181818" points="1494.9,1033.19,1490.8278,1039.1412,1494.755,1045.1891,1498.8272,1039.2379,1494.9,1033.19" style="stroke:#181818;stroke-width:1.0;"/><text fill="#000000" font-family="sans-serif" font-size="13" lengthAdjust="spacing" textLength="48" x="1444.3299" y="1082.2255">Player 1</text></g><!--MD5=[55d64a43c9fbbd0c57ec275f67dff253]
reverse link Round to Player--><g id="link_Round_Player"><path codeLine="88" d="M1521,1046.28 C1521,1061.9 1521,1077.57 1521,1092.57 " fill="none" id="Round-backto-Player-1" style="stroke:#181818;stroke-width:1.0;"/><polygon fill="#181818" points="1521,1033.19,1517,1039.19,1521,1045.19,1525,1039.19,1521,1033.19" style="stroke:#181818;stroke-width:1.0;"/><text fill="#000000" font-family="sans-serif" font-size="13" lengthAdjust="spacing" textLength="48" x="1522.6875" y="1082.2255">Player 2</text></g><!--MD5=[55d64a43c9fbbd0c57ec275f67dff253]
reverse link Round to Player--><g id="link_Round_Player"><path codeLine="89" d="M1547.24,1046.28 C1547.3,1061.9 1546.96,1077.57 1546.21,1092.57 " fill="none" id="Round-backto-Player-2" style="stroke:#181818;stroke-width:1.0;"/><polygon fill="#181818" points="1547.1,1033.19,1543.1728,1039.2379,1547.245,1045.1891,1551.1722,1039.1412,1547.1,1033.19" style="stroke:#181818;stroke-width:1.0;"/><text fill="#000000" font-family="sans-serif" font-size="13" lengthAdjust="spacing" textLength="41" x="1549.424" y="1082.2255">Winner</text></g><!--MD5=[f7ff9e901bf9f1bebf511a8077eb4f52]
reverse link Square to Round--><g id="link_Square_Round"><path codeLine="91" d="M1666.25,724.22 C1652.92,740.58 1639.2,757.41 1625.77,773.89 " fill="none" id="Square-backto-Round" style="stroke:#181818;stroke-width:1.0;"/><polygon fill="#181818" points="1674.49,714.1,1667.5995,716.2262,1666.912,723.4045,1673.8025,721.2783,1674.49,714.1" style="stroke:#181818;stroke-width:1.0;"/></g><!--MD5=[cb02c96b642da5c7c708bc3e89afb5b1]
reverse link Player to TypePlayer--><g id="link_Player_TypePlayer"><path codeLine="94" d="M1521,1312.14 C1521,1327.77 1521,1343.66 1521,1358.86 " fill="none" id="Player-backto-TypePlayer" style="stroke:#181818;stroke-width:1.0;"/><polygon fill="#181818" points="1521,1299.08,1517,1305.08,1521,1311.08,1525,1305.08,1521,1299.08" style="stroke:#181818;stroke-width:1.0;"/></g><!--MD5=[a6e9f244e90846485a04bb26007abd3c]
reverse link Letter to Round--><g id="link_Letter_Round"><path codeLine="95" d="M1521.58,727.46 C1521.53,742.8 1521.48,758.5 1521.43,773.89 " fill="none" id="Letter-backto-Round" style="stroke:#181818;stroke-width:1.0;"/><polygon fill="#181818" points="1521.63,714.1,1517.6102,720.0868,1521.5904,726.0999,1525.6102,720.1132,1521.63,714.1" style="stroke:#181818;stroke-width:1.0;"/></g><!--MD5=[e5f01086500c82650ddae89aee8c731c]
link TypeGame to Round--><g id="link_TypeGame_Round"><path codeLine="97" d="M1353.89,696.53 C1371.1,717.74 1389.73,740.71 1408.1,763.36 " fill="none" id="TypeGame-to-Round" style="stroke:#181818;stroke-width:1.0;"/><polygon fill="#181818" points="1416.52,773.73,1415.8447,766.5506,1408.9579,764.4126,1409.6331,771.592,1416.52,773.73" style="stroke:#181818;stroke-width:1.0;"/></g><!--MD5=[827e6faf1ff4629dd60668f3ffe89bba]
reverse link TicTacToeController to RoundTicTacToe--><g id="link_TicTacToeController_RoundTicTacToe"><path codeLine="163" d="M943.65,435.35 C945.89,479.87 948.66,534.74 950.38,568.81 " fill="none" id="TicTacToeController-backto-RoundTicTacToe" style="stroke:#181818;stroke-width:1.0;stroke-dasharray:7.0,7.0;"/><polygon fill="#181818" points="943.39,430.25,939.8575,439.4436,943.6468,435.2434,947.847,439.0327,943.39,430.25" style="stroke:#181818;stroke-width:1.0;"/></g><!--MD5=[df07452b351a4878244aab3d43d3bef9]
reverse link RoundTicTacToe to TicTacToePlayer--><g id="link_RoundTicTacToe_TicTacToePlayer"><path codeLine="165" d="M937.98,647.68 C918.84,708.66 884.99,816.51 868.13,870.23 " fill="none" id="RoundTicTacToe-backto-TicTacToePlayer" style="stroke:#181818;stroke-width:1.0;"/><polygon fill="#181818" points="941.94,635.05,936.3241,639.5735,938.3397,646.4972,943.9556,641.9737,941.94,635.05" style="stroke:#181818;stroke-width:1.0;"/></g><!--MD5=[91231b14c287c0c71cf3113e01c1b31e]
reverse link RoundTicTacToe to BoardController--><g id="link_RoundTicTacToe_BoardController"><path codeLine="166" d="M952.69,640.34 C953.81,715.01 955.05,888.01 946,1033 C944.43,1058.14 941.78,1085.38 938.98,1110.22 " fill="none" id="RoundTicTacToe-backto-BoardController" style="stroke:#181818;stroke-width:1.0;stroke-dasharray:7.0,7.0;"/><polygon fill="#181818" points="952.61,635.14,948.739,644.1962,952.6814,640.1395,956.7382,644.0819,952.61,635.14" style="stroke:#181818;stroke-width:1.0;"/></g><!--MD5=[29b97550017e30ae2b3a838e591de057]
link TicTacToeController to Dice--><g id="link_TicTacToeController_Dice"><path codeLine="168" d="M788.22,384.42 C710.25,398.36 625.86,419 598,446 C509.27,532 559.76,595.72 524,714 C508.02,766.86 487.74,827.43 474.81,865.33 " fill="none" id="TicTacToeController-to-Dice" style="stroke:#181818;stroke-width:1.0;stroke-dasharray:7.0,7.0;"/><polygon fill="#181818" points="473.12,870.3,479.8132,863.075,474.7354,865.5681,472.2422,860.4903,473.12,870.3" style="stroke:#181818;stroke-width:1.0;"/></g><!--MD5=[d14e6313e0736fbbba804c61576f4c30]
reverse link GamePlayersProvider to TicTacToeController--><g id="link_GamePlayersProvider_TicTacToeController"><path codeLine="169" d="M940,239.54 C940,255.74 940,275.19 940,293.74 " fill="none" id="GamePlayersProvider-backto-TicTacToeController" style="stroke:#181818;stroke-width:1.0;"/><polygon fill="#181818" points="940,234.18,936,243.18,940,239.18,944,243.18,940,234.18" style="stroke:#181818;stroke-width:1.0;"/></g><!--MD5=[28cd73cf825d5138d04f5bfbd597bbcf]
link GamePlayer to Dice--><g id="link_GamePlayer_Dice"><path codeLine="171" d="M661.14,635.05 C619.33,691.2 533.12,806.98 489.12,866.07 " fill="none" id="GamePlayer-to-Dice" style="stroke:#181818;stroke-width:1.0;stroke-dasharray:7.0,7.0;"/><polygon fill="#181818" points="486.03,870.23,494.6107,865.3957,489.014,866.218,488.1916,860.6213,486.03,870.23" style="stroke:#181818;stroke-width:1.0;"/></g><!--MD5=[7a966d705ca42f9a7697d27178bf23d9]
link ListOfPlayersController to GamePlayersProvider--><g id="link_ListOfPlayersController_GamePlayersProvider"><path codeLine="172" d="M940,108.26 C940,120.31 940,134.33 940,147.73 " fill="none" id="ListOfPlayersController-to-GamePlayersProvider" style="stroke:#181818;stroke-width:1.0;stroke-dasharray:7.0,7.0;"/><polygon fill="none" points="947,147.91,940,167.91,933,147.91,947,147.91" style="stroke:#181818;stroke-width:1.0;"/></g><!--MD5=[d079561ccb659bbabe924dac6141d062]
reverse link TicTacToeController to GamePlayer--><g id="link_TicTacToeController_GamePlayer"><path codeLine="174" d="M780.58,438.33 C777.63,440.82 774.77,443.38 772,446 C735.29,480.83 709.91,534.65 696.41,568.83 " fill="none" id="TicTacToeController-backto-GamePlayer" style="stroke:#181818;stroke-width:1.0;"/><polygon fill="#181818" points="790.91,430.11,783.7246,430.7187,781.5229,437.5854,788.7082,436.9768,790.91,430.11" style="stroke:#181818;stroke-width:1.0;"/></g><!--MD5=[b6d1b0b949fa25577c0f0356d3d3a574]
link TicTacToePlayer to BoardController--><g id="link_TicTacToePlayer_BoardController"><path codeLine="175" d="M865.76,936.7 C875.49,977.06 892.56,1047.92 906.37,1105.22 " fill="none" id="TicTacToePlayer-to-BoardController" style="stroke:#181818;stroke-width:1.0;"/><polygon fill="#181818" points="907.61,1110.37,909.3949,1100.6842,906.441,1105.5086,901.6166,1102.5547,907.61,1110.37" style="stroke:#181818;stroke-width:1.0;"/></g><!--MD5=[f035fe94b578ef28dcd9ab9faba0353b]
link GamePlayer to TicTacToePlayer--><g id="link_GamePlayer_TicTacToePlayer"><path codeLine="177" d="M703.51,635.05 C733.68,687.27 793.63,791.06 829.33,852.87 " fill="none" id="GamePlayer-to-TicTacToePlayer" style="stroke:#181818;stroke-width:1.0;"/><polygon fill="none" points="835.42,849.41,839.36,870.23,823.29,856.41,835.42,849.41" style="stroke:#181818;stroke-width:1.0;"/></g><!--MD5=[9fd5f81302634c50fff6d14cf98bb87a]
reverse link TicTacToeController to TicTacToe--><g id="link_TicTacToeController_TicTacToe"><path codeLine="180" d="M783.13,384.65 C621.86,407.18 393.07,440 385,446 C348.13,473.43 329.17,524.21 319.94,560.16 " fill="none" id="TicTacToeController-backto-TicTacToe" style="stroke:#181818;stroke-width:1.0;stroke-dasharray:7.0,7.0;"/><polygon fill="#181818" points="788.36,383.92,778.8957,381.1947,783.4074,384.6071,779.995,389.1188,788.36,383.92" style="stroke:#181818;stroke-width:1.0;"/></g><!--MD5=[9d04c33ff40afaa7c20073565e227ebc]
reverse link ListOfPlayersController to ListOfPlayers--><g id="link_ListOfPlayersController_ListOfPlayers"><path codeLine="181" d="M846.97,110.02 C705.14,165.02 431.19,283.92 240,446 C204.53,476.07 173.12,518.55 151.64,551.44 " fill="none" id="ListOfPlayersController-backto-ListOfPlayers" style="stroke:#181818;stroke-width:1.0;stroke-dasharray:7.0,7.0;"/><polygon fill="#181818" points="851.96,108.09,842.1232,107.6036,847.2962,109.8926,845.0073,115.0656,851.96,108.09" style="stroke:#181818;stroke-width:1.0;"/></g><!--MD5=[b61ec796a40322629826005eaa4e10ce]
reverse link BoardController to Board--><g id="link_BoardController_Board"><path codeLine="182" d="M783.49,1174.6 C629.98,1149.62 402.28,1101.95 350,1033 C280.45,941.28 318.7,884.78 350,774 C352.04,766.79 398.74,692.08 429.16,643.82 " fill="none" id="BoardController-backto-Board" style="stroke:#181818;stroke-width:1.0;stroke-dasharray:7.0,7.0;"/><polygon fill="#181818" points="788.47,1175.4,780.2272,1170.0097,783.5346,1174.5989,778.9454,1177.9063,788.47,1175.4" style="stroke:#181818;stroke-width:1.0;"/></g><!--MD5=[4ad96441c8a01d959d4bf4f2a5e1a798]
link Board to Square--><g id="link_Board_Square"><path codeLine="183" d="M476.84,560.26 C502.87,516.46 551.08,452.03 615.5,438 C642.89,432.04 1597.11,432.04 1624.5,438 C1654.11,444.45 1679.03,463.17 1699.26,485.78 " fill="none" id="Board-to-Square" style="stroke:#181818;stroke-width:1.0;stroke-dasharray:7.0,7.0;"/><polygon fill="#181818" points="1702.73,489.74,1699.7961,480.3383,1699.4304,485.9833,1693.7854,485.6176,1702.73,489.74" style="stroke:#181818;stroke-width:1.0;"/></g><!--MD5=[99448b83ff0ee92c0e5a2bfaf4697b8a]
link RoundTicTacToe to Round--><g id="link_RoundTicTacToe_Round"><path codeLine="184" d="M1010.3,635.15 C1051,657.5 1106.66,687.84 1156,714 C1237.23,757.07 1329.22,804.56 1400.52,841.11 " fill="none" id="RoundTicTacToe-to-Round" style="stroke:#181818;stroke-width:1.0;stroke-dasharray:7.0,7.0;"/><polygon fill="#181818" points="1405.19,843.5,1398.9974,835.8416,1400.7381,841.2239,1395.3557,842.9646,1405.19,843.5" style="stroke:#181818;stroke-width:1.0;"/></g><!--MD5=[cd689fa6762434ff100cd22eaa3e57ce]
reverse link Player to ListOfPlayersController--><g id="link_Player_ListOfPlayersController"><path codeLine="185" d="M1636.95,1173.31 C1717.39,1151.88 1819.8,1110.57 1876,1033 C1988.81,877.27 1924,795.3 1924,603 C1924,361 1924,361 1924,361 C1924,176.36 1276.75,103.75 1032.13,82.91 " fill="none" id="Player-backto-ListOfPlayersController" style="stroke:#181818;stroke-width:1.0;stroke-dasharray:7.0,7.0;"/><polygon fill="#181818" points="1631.69,1174.69,1641.4119,1176.2664,1636.5252,1173.4168,1639.3748,1168.5301,1631.69,1174.69" style="stroke:#181818;stroke-width:1.0;"/></g><!--MD5=[7f8bac77c7fe1b70895f6d34a15098c6]
@startuml TicTacToe

package model {
    class Player{
        Players: List <Player>
        idPlayer : int
        name : String
        idTypePlayer : int
        insertPlayer (Player): Player
        selectPlayer (int): Player
        updatePlayer (int, Player): Player
        deletePlayer (Player): void
        selectPlayers (): List<Player>
    }
    class Round {
        rounds : List<Round>
        idRound : int
        idPlayer 1: Player
        idPlayer 2: Player
        idWinner : Player
        isFinished : boolean
        idGame : int
        insertRound (Round) : Round
        selectRound (Round) : Round
        selectRounds () : List<Round>
        updateRound (int, Round) : Round
        deleteRound (Round) : void
    }
    class TypePlayer {
        typesPlayers : List<TypePlayer>
        idTypePlayer : int
        name: String
        insertTypePlayer (TypePlayer) : TypePlayer
        selectTypePlayer (int) : TypePlayer
        selectTypesPlayers () : List<TypePlayer>
        updateTypePlayer (int, TypePlayer) : TypePlayer
        deleteTypePlayer (TypePlayer) : void
    }
    class Piece{
        Pieces: List<Piece>
        idPiece : int
        name : String
        insertPiece (Piece) : Piece
        selectPiece (int) : Piece
        updatePiece (int) : Piece
        deletePiece (Piece) : void
        selectPieces (): List<Piece>
    }

    class Square {
        Squares: List<Square>
        idRound : int
        column : int
        row : int
        idPiece : int
        insertSquare (Square) : Square
        selectSquare (int) : Square
        updateSquare (int) : Square
        deleteSquare (Square) : void
        selectSquares (): List<Square>
    }
    class Letter {
        Letters: List<Letter>
        idRound : int
        character : char
        position : int
        isShown : boolean
        insertLetter (Letter): letter
        selectPositionLetter(int) : letter
        selectLetter() : List<Letter>
        updateLetter(int, Letter): letter
        deleteLetter(Letter) : void
    }

    class TypeGame {
        Games: List <Game>
        idGame : int
        game : String
        insertGame (Game): game
        selectGame (int) : game
        selectGame () : List<Game>
        updateGame (int, Game): game
        deleteGame (Game) : void
    }

    Square o- - Piece

    Round *- - "Player 1" Player
    Round *- - "Player 2" Player
    Round *- - "Winner" Player

    Square *- - Round


    Player *- - TypePlayer
    Letter *- - Round

    TypeGame - -* Round
}

package util {
    class Dice{
        +generateValue (int bound)
    }
}

package controller{
    class ListOfPlayersController {
        +getGamePlayers(int size)
    }

    interface GamePlayer {
        + processResult(int)
    }
    interface GamePlayersProvider {
        + getGamePlayers(int) : GamePlayer[]
    }

    package ttt {
        class TicTacToeController {
            # GamePlayer[] gamePlayers
            # GamePlayersProvider gamePlayersProvider
            + Execute()
            # AssignRoles (GamePlayer[] gamePlayers)
            # flipRoles (GamePlayer[] gamePlayers)
        }
        interface TicTacToePlayer {
            +putMark()
        }
        class RoundTicTacToe {
            +play()
        }
        class BoardController {
            +EmptySquare = 9
            +createBoard()
            +isFull()
            +putPiece (Position position, Piece piece)
            -checkRows()
            -checkColumns()
            -checkDiagonals()
        }
    }
}

package view {
    class TicTacToe {
        + Introduction()
        + Resume()
    }

    class ListOfPlayers {
        +getList()
        +printList()
        +createPlayer(Player Player)
    }

    class Board {
        +paintBoard()
        +getWinner()
    }
}

/'Relaciones de contorlador'/
TicTacToeController <.. RoundTicTacToe

RoundTicTacToe *- - TicTacToePlayer
RoundTicTacToe <.. BoardController

TicTacToeController ..> Dice
TicTacToeController -up-> GamePlayersProvider

Dice <.up. GamePlayer
ListOfPlayersController ..|> GamePlayersProvider

TicTacToeController *- - GamePlayer
TicTacToePlayer- ->BoardController

GamePlayer - -|>  TicTacToePlayer

/'Relaciones MVC'/
TicTacToeController <.. TicTacToe
ListOfPlayersController <.. ListOfPlayers
BoardController <.. Board
Board .right.> Square
RoundTicTacToe ..> Round
ListOfPlayersController .up.> Player
@enduml

@startuml TicTacToe

package model {
    class Player{
        Players: List <Player>
        idPlayer : int
        name : String
        idTypePlayer : int
        insertPlayer (Player): Player
        selectPlayer (int): Player
        updatePlayer (int, Player): Player
        deletePlayer (Player): void
        selectPlayers (): List<Player>
    }
    class Round {
        rounds : List<Round>
        idRound : int
        idPlayer 1: Player
        idPlayer 2: Player
        idWinner : Player
        isFinished : boolean
        idGame : int
        insertRound (Round) : Round
        selectRound (Round) : Round
        selectRounds () : List<Round>
        updateRound (int, Round) : Round
        deleteRound (Round) : void
    }
    class TypePlayer {
        typesPlayers : List<TypePlayer>
        idTypePlayer : int
        name: String
        insertTypePlayer (TypePlayer) : TypePlayer
        selectTypePlayer (int) : TypePlayer
        selectTypesPlayers () : List<TypePlayer>
        updateTypePlayer (int, TypePlayer) : TypePlayer
        deleteTypePlayer (TypePlayer) : void
    }
    class Piece{
        Pieces: List<Piece>
        idPiece : int
        name : String
        insertPiece (Piece) : Piece
        selectPiece (int) : Piece
        updatePiece (int) : Piece
        deletePiece (Piece) : void
        selectPieces (): List<Piece>
    }

    class Square {
        Squares: List<Square>
        idRound : int
        column : int
        row : int
        idPiece : int
        insertSquare (Square) : Square
        selectSquare (int) : Square
        updateSquare (int) : Square
        deleteSquare (Square) : void
        selectSquares (): List<Square>
    }
    class Letter {
        Letters: List<Letter>
        idRound : int
        character : char
        position : int
        isShown : boolean
        insertLetter (Letter): letter
        selectPositionLetter(int) : letter
        selectLetter() : List<Letter>
        updateLetter(int, Letter): letter
        deleteLetter(Letter) : void
    }

    class TypeGame {
        Games: List <Game>
        idGame : int
        game : String
        insertGame (Game): game
        selectGame (int) : game
        selectGame () : List<Game>
        updateGame (int, Game): game
        deleteGame (Game) : void
    }

    Square o- - Piece

    Round *- - "Player 1" Player
    Round *- - "Player 2" Player
    Round *- - "Winner" Player

    Square *- - Round


    Player *- - TypePlayer
    Letter *- - Round

    TypeGame - -* Round
}

package util {
    class Dice{
        +generateValue (int bound)
    }
}

package controller{
    class ListOfPlayersController {
        +getGamePlayers(int size)
    }

    interface GamePlayer {
        + processResult(int)
    }
    interface GamePlayersProvider {
        + getGamePlayers(int) : GamePlayer[]
    }

    package ttt {
        class TicTacToeController {
            # GamePlayer[] gamePlayers
            # GamePlayersProvider gamePlayersProvider
            + Execute()
            # AssignRoles (GamePlayer[] gamePlayers)
            # flipRoles (GamePlayer[] gamePlayers)
        }
        interface TicTacToePlayer {
            +putMark()
        }
        class RoundTicTacToe {
            +play()
        }
        class BoardController {
            +EmptySquare = 9
            +createBoard()
            +isFull()
            +putPiece (Position position, Piece piece)
            -checkRows()
            -checkColumns()
            -checkDiagonals()
        }
    }
}

package view {
    class TicTacToe {
        + Introduction()
        + Resume()
    }

    class ListOfPlayers {
        +getList()
        +printList()
        +createPlayer(Player Player)
    }

    class Board {
        +paintBoard()
        +getWinner()
    }
}

TicTacToeController <.. RoundTicTacToe

RoundTicTacToe *- - TicTacToePlayer
RoundTicTacToe <.. BoardController

TicTacToeController ..> Dice
TicTacToeController -up-> GamePlayersProvider

Dice <.up. GamePlayer
ListOfPlayersController ..|> GamePlayersProvider

TicTacToeController *- - GamePlayer
TicTacToePlayer- ->BoardController

GamePlayer - -|>  TicTacToePlayer

TicTacToeController <.. TicTacToe
ListOfPlayersController <.. ListOfPlayers
BoardController <.. Board
Board .right.> Square
RoundTicTacToe ..> Round
ListOfPlayersController .up.> Player
@enduml

PlantUML version 1.2022.5(Sat Apr 30 04:55:52 CST 2022)
(GPL source distribution)
Java Runtime: Java(TM) SE Runtime Environment
JVM: Java HotSpot(TM) 64-Bit Server VM
Default Encoding: Cp1252
Language: en
Country: US
--></g></svg>