<?xml version="1.0" encoding="UTF-8" standalone="no"?><svg xmlns="http://www.w3.org/2000/svg" xmlns:xlink="http://www.w3.org/1999/xlink" contentStyleType="text/css" height="1298px" preserveAspectRatio="none" style="width:1546px;height:1298px;background:#FFFFFF;" version="1.1" viewBox="0 0 1546 1298" width="1546px" zoomAndPan="magnify"><defs/><g><!--MD5=[5d4cd377749310b66bf14896f5cd8d9b]
cluster model--><g id="cluster_model"><path d="M1172.5,533 L1216.5,533 A3.75,3.75 0 0 1 1219,535.5 L1226,556.6094 L1470.5,556.6094 A2.5,2.5 0 0 1 1473,559.1094 L1473,1288.5 A2.5,2.5 0 0 1 1470.5,1291 L1172.5,1291 A2.5,2.5 0 0 1 1170,1288.5 L1170,535.5 A2.5,2.5 0 0 1 1172.5,533 " style="stroke:#000000;stroke-width:1.5;fill:none;"/><line style="stroke:#000000;stroke-width:1.5;fill:none;" x1="1170" x2="1226" y1="556.6094" y2="556.6094"/><text fill="#000000" font-family="sans-serif" font-size="14" font-weight="bold" lengthAdjust="spacing" textLength="43" x="1174" y="549.5332">model</text></g><!--MD5=[3e81cc6ee7da4fa8b6adc12b329096f6]
cluster util--><g id="cluster_util"><path d="M336.5,755 L359.5,755 A3.75,3.75 0 0 1 362,757.5 L369,778.6094 L555.5,778.6094 A2.5,2.5 0 0 1 558,781.1094 L558,870.5 A2.5,2.5 0 0 1 555.5,873 L336.5,873 A2.5,2.5 0 0 1 334,870.5 L334,757.5 A2.5,2.5 0 0 1 336.5,755 " style="stroke:#000000;stroke-width:1.5;fill:none;"/><line style="stroke:#000000;stroke-width:1.5;fill:none;" x1="334" x2="369" y1="778.6094" y2="778.6094"/><text fill="#000000" font-family="sans-serif" font-size="14" font-weight="bold" lengthAdjust="spacing" textLength="22" x="338" y="771.5332">util</text></g><!--MD5=[10ea673caf457862023e152271927b45]
cluster controller--><g id="cluster_controller"><path d="M584.5,6 L654.5,6 A3.75,3.75 0 0 1 657,8.5 L664,29.6094 L1143.5,29.6094 A2.5,2.5 0 0 1 1146,32.1094 L1146,1169.5 A2.5,2.5 0 0 1 1143.5,1172 L584.5,1172 A2.5,2.5 0 0 1 582,1169.5 L582,8.5 A2.5,2.5 0 0 1 584.5,6 " style="stroke:#000000;stroke-width:1.5;fill:none;"/><line style="stroke:#000000;stroke-width:1.5;fill:none;" x1="582" x2="664" y1="29.6094" y2="29.6094"/><text fill="#000000" font-family="sans-serif" font-size="14" font-weight="bold" lengthAdjust="spacing" textLength="69" x="586" y="22.5332">controller</text></g><!--MD5=[42603eecb267091c13893a16d8c379fb]
cluster player--><g id="cluster_player"><path d="M840.5,50 L884.5,50 A3.75,3.75 0 0 1 887,52.5 L894,73.6094 L1067.5,73.6094 A2.5,2.5 0 0 1 1070,76.1094 L1070,200.5 A2.5,2.5 0 0 1 1067.5,203 L840.5,203 A2.5,2.5 0 0 1 838,200.5 L838,52.5 A2.5,2.5 0 0 1 840.5,50 " style="stroke:#000000;stroke-width:1.5;fill:none;"/><line style="stroke:#000000;stroke-width:1.5;fill:none;" x1="838" x2="894" y1="73.6094" y2="73.6094"/><text fill="#000000" font-family="sans-serif" font-size="14" font-weight="bold" lengthAdjust="spacing" textLength="43" x="842" y="66.5332">player</text></g><!--MD5=[897ec0ebfd0fc927406c2620cf205ed0]
cluster ttt--><g id="cluster_ttt"><path d="M788.5,337 L804.5,337 A3.75,3.75 0 0 1 807,339.5 L814,360.6094 L1119.5,360.6094 A2.5,2.5 0 0 1 1122,363.1094 L1122,1145.5 A2.5,2.5 0 0 1 1119.5,1148 L788.5,1148 A2.5,2.5 0 0 1 786,1145.5 L786,339.5 A2.5,2.5 0 0 1 788.5,337 " style="stroke:#000000;stroke-width:1.5;fill:none;"/><line style="stroke:#000000;stroke-width:1.5;fill:none;" x1="786" x2="814" y1="360.6094" y2="360.6094"/><text fill="#000000" font-family="sans-serif" font-size="14" font-weight="bold" lengthAdjust="spacing" textLength="15" x="790" y="353.5332">ttt</text></g><!--MD5=[86cbce8df1eb9d604fbbb2fa357940f8]
cluster view--><g id="cluster_view"><path d="M8.5,541.5 L42.5,541.5 A3.75,3.75 0 0 1 45,544 L52,565.1094 L505.5,565.1094 A2.5,2.5 0 0 1 508,567.6094 L508,692 A2.5,2.5 0 0 1 505.5,694.5 L8.5,694.5 A2.5,2.5 0 0 1 6,692 L6,544 A2.5,2.5 0 0 1 8.5,541.5 " style="stroke:#000000;stroke-width:1.5;fill:none;"/><line style="stroke:#000000;stroke-width:1.5;fill:none;" x1="6" x2="52" y1="565.1094" y2="565.1094"/><text fill="#000000" font-family="sans-serif" font-size="14" font-weight="bold" lengthAdjust="spacing" textLength="33" x="10" y="558.0332">view</text></g><!--MD5=[2cb47ba637a0d19583e6199456f6ad0b]
class Player--><g id="elem_Player"><rect codeLine="3" fill="#F1F1F1" height="100.8281" id="Player" rx="2.5" ry="2.5" style="stroke:#181818;stroke-width:0.5;" width="122" x="1195" y="996"/><ellipse cx="1232.5" cy="1012" fill="#ADD1B2" rx="11" ry="11" style="stroke:#181818;stroke-width:1.0;"/><path d="M1235.2656,1007.875 Q1235.4219,1007.6563 1235.6094,1007.5469 Q1235.7969,1007.4375 1236.0156,1007.4375 Q1236.3906,1007.4375 1236.625,1007.7031 Q1236.8594,1007.9531 1236.8594,1008.5625 L1236.8594,1010.0156 Q1236.8594,1010.625 1236.625,1010.8906 Q1236.3906,1011.1563 1236.0156,1011.1563 Q1235.6719,1011.1563 1235.4688,1010.9531 Q1235.2656,1010.7656 1235.1563,1010.25 Q1235.1094,1009.8906 1234.9219,1009.7031 Q1234.5938,1009.3281 1233.9844,1009.1094 Q1233.375,1008.8906 1232.75,1008.8906 Q1231.9844,1008.8906 1231.3438,1009.2188 Q1230.7188,1009.5469 1230.2188,1010.2969 Q1229.7344,1011.0469 1229.7344,1012.0781 L1229.7344,1013.1719 Q1229.7344,1014.4063 1230.625,1015.2344 Q1231.5156,1016.0469 1233.1094,1016.0469 Q1234.0469,1016.0469 1234.7031,1015.7969 Q1235.0938,1015.6406 1235.5156,1015.2031 Q1235.7813,1014.9375 1235.9219,1014.8594 Q1236.0781,1014.7813 1236.2813,1014.7813 Q1236.6094,1014.7813 1236.8594,1015.0469 Q1237.125,1015.2969 1237.125,1015.6406 Q1237.125,1015.9844 1236.7813,1016.3906 Q1236.2813,1016.9688 1235.4844,1017.2969 Q1234.4063,1017.75 1233.1094,1017.75 Q1231.5938,1017.75 1230.3906,1017.125 Q1229.4063,1016.625 1228.7188,1015.5625 Q1228.0313,1014.4844 1228.0313,1013.2031 L1228.0313,1012.0469 Q1228.0313,1010.7188 1228.6406,1009.5781 Q1229.2656,1008.4219 1230.3594,1007.8125 Q1231.4531,1007.1875 1232.6875,1007.1875 Q1233.4219,1007.1875 1234.0625,1007.3594 Q1234.7188,1007.5156 1235.2656,1007.875 Z " fill="#000000"/><text fill="#000000" font-family="sans-serif" font-size="14" lengthAdjust="spacing" textLength="40" x="1251.5" y="1017.7285">Player</text><line style="stroke:#181818;stroke-width:0.5;" x1="1196" x2="1316" y1="1028" y2="1028"/><text fill="#000000" font-family="sans-serif" font-size="14" lengthAdjust="spacing" textLength="78" x="1201" y="1046.5332">idPlayer : int</text><text fill="#000000" font-family="sans-serif" font-size="14" lengthAdjust="spacing" textLength="84" x="1201" y="1064.1426">name : String</text><text fill="#000000" font-family="sans-serif" font-size="14" lengthAdjust="spacing" textLength="110" x="1201" y="1081.752">idTypePlayer : int</text><line style="stroke:#181818;stroke-width:0.5;" x1="1196" x2="1316" y1="1088.8281" y2="1088.8281"/></g><!--MD5=[d75b0a238b734941260681f0026bbb88]
class Round--><g id="elem_Round"><rect codeLine="8" fill="#F1F1F1" height="153.6563" id="Round" rx="2.5" ry="2.5" style="stroke:#181818;stroke-width:0.5;" width="139" x="1186.5" y="747"/><ellipse cx="1230.75" cy="763" fill="#ADD1B2" rx="11" ry="11" style="stroke:#181818;stroke-width:1.0;"/><path d="M1233.5156,758.875 Q1233.6719,758.6563 1233.8594,758.5469 Q1234.0469,758.4375 1234.2656,758.4375 Q1234.6406,758.4375 1234.875,758.7031 Q1235.1094,758.9531 1235.1094,759.5625 L1235.1094,761.0156 Q1235.1094,761.625 1234.875,761.8906 Q1234.6406,762.1563 1234.2656,762.1563 Q1233.9219,762.1563 1233.7188,761.9531 Q1233.5156,761.7656 1233.4063,761.25 Q1233.3594,760.8906 1233.1719,760.7031 Q1232.8438,760.3281 1232.2344,760.1094 Q1231.625,759.8906 1231,759.8906 Q1230.2344,759.8906 1229.5938,760.2188 Q1228.9688,760.5469 1228.4688,761.2969 Q1227.9844,762.0469 1227.9844,763.0781 L1227.9844,764.1719 Q1227.9844,765.4063 1228.875,766.2344 Q1229.7656,767.0469 1231.3594,767.0469 Q1232.2969,767.0469 1232.9531,766.7969 Q1233.3438,766.6406 1233.7656,766.2031 Q1234.0313,765.9375 1234.1719,765.8594 Q1234.3281,765.7813 1234.5313,765.7813 Q1234.8594,765.7813 1235.1094,766.0469 Q1235.375,766.2969 1235.375,766.6406 Q1235.375,766.9844 1235.0313,767.3906 Q1234.5313,767.9688 1233.7344,768.2969 Q1232.6563,768.75 1231.3594,768.75 Q1229.8438,768.75 1228.6406,768.125 Q1227.6563,767.625 1226.9688,766.5625 Q1226.2813,765.4844 1226.2813,764.2031 L1226.2813,763.0469 Q1226.2813,761.7188 1226.8906,760.5781 Q1227.5156,759.4219 1228.6094,758.8125 Q1229.7031,758.1875 1230.9375,758.1875 Q1231.6719,758.1875 1232.3125,758.3594 Q1232.9688,758.5156 1233.5156,758.875 Z " fill="#000000"/><text fill="#000000" font-family="sans-serif" font-size="14" lengthAdjust="spacing" textLength="42" x="1251.25" y="768.7285">Round</text><line style="stroke:#181818;stroke-width:0.5;" x1="1187.5" x2="1324.5" y1="779" y2="779"/><text fill="#000000" font-family="sans-serif" font-size="14" lengthAdjust="spacing" textLength="80" x="1192.5" y="797.5332">idRound : int</text><text fill="#000000" font-family="sans-serif" font-size="14" lengthAdjust="spacing" textLength="111" x="1192.5" y="815.1426">idPlayer 1: Player</text><text fill="#000000" font-family="sans-serif" font-size="14" lengthAdjust="spacing" textLength="111" x="1192.5" y="832.752">idPlayer 2: Player</text><text fill="#000000" font-family="sans-serif" font-size="14" lengthAdjust="spacing" textLength="108" x="1192.5" y="850.3613">idWinner : Player</text><text fill="#000000" font-family="sans-serif" font-size="14" lengthAdjust="spacing" textLength="127" x="1192.5" y="867.9707">isFinished : boolean</text><text fill="#000000" font-family="sans-serif" font-size="14" lengthAdjust="spacing" textLength="76" x="1192.5" y="885.5801">idGame : int</text><line style="stroke:#181818;stroke-width:0.5;" x1="1187.5" x2="1324.5" y1="892.6563" y2="892.6563"/></g><!--MD5=[ace3e6c11b8886c1ad6e132e1e690d2d]
class TypePlayer--><g id="elem_TypePlayer"><rect codeLine="16" fill="#F1F1F1" height="83.2188" id="TypePlayer" rx="2.5" ry="2.5" style="stroke:#181818;stroke-width:0.5;" width="122" x="1195" y="1192"/><ellipse cx="1218.1" cy="1208" fill="#ADD1B2" rx="11" ry="11" style="stroke:#181818;stroke-width:1.0;"/><path d="M1220.8656,1203.875 Q1221.0219,1203.6563 1221.2094,1203.5469 Q1221.3969,1203.4375 1221.6156,1203.4375 Q1221.9906,1203.4375 1222.225,1203.7031 Q1222.4594,1203.9531 1222.4594,1204.5625 L1222.4594,1206.0156 Q1222.4594,1206.625 1222.225,1206.8906 Q1221.9906,1207.1563 1221.6156,1207.1563 Q1221.2719,1207.1563 1221.0688,1206.9531 Q1220.8656,1206.7656 1220.7563,1206.25 Q1220.7094,1205.8906 1220.5219,1205.7031 Q1220.1938,1205.3281 1219.5844,1205.1094 Q1218.975,1204.8906 1218.35,1204.8906 Q1217.5844,1204.8906 1216.9438,1205.2188 Q1216.3188,1205.5469 1215.8188,1206.2969 Q1215.3344,1207.0469 1215.3344,1208.0781 L1215.3344,1209.1719 Q1215.3344,1210.4063 1216.225,1211.2344 Q1217.1156,1212.0469 1218.7094,1212.0469 Q1219.6469,1212.0469 1220.3031,1211.7969 Q1220.6938,1211.6406 1221.1156,1211.2031 Q1221.3813,1210.9375 1221.5219,1210.8594 Q1221.6781,1210.7813 1221.8813,1210.7813 Q1222.2094,1210.7813 1222.4594,1211.0469 Q1222.725,1211.2969 1222.725,1211.6406 Q1222.725,1211.9844 1222.3813,1212.3906 Q1221.8813,1212.9688 1221.0844,1213.2969 Q1220.0063,1213.75 1218.7094,1213.75 Q1217.1938,1213.75 1215.9906,1213.125 Q1215.0063,1212.625 1214.3188,1211.5625 Q1213.6313,1210.4844 1213.6313,1209.2031 L1213.6313,1208.0469 Q1213.6313,1206.7188 1214.2406,1205.5781 Q1214.8656,1204.4219 1215.9594,1203.8125 Q1217.0531,1203.1875 1218.2875,1203.1875 Q1219.0219,1203.1875 1219.6625,1203.3594 Q1220.3188,1203.5156 1220.8656,1203.875 Z " fill="#000000"/><text fill="#000000" font-family="sans-serif" font-size="14" lengthAdjust="spacing" textLength="72" x="1233.9" y="1213.7285">TypePlayer</text><line style="stroke:#181818;stroke-width:0.5;" x1="1196" x2="1316" y1="1224" y2="1224"/><text fill="#000000" font-family="sans-serif" font-size="14" lengthAdjust="spacing" textLength="110" x="1201" y="1242.5332">idTypePlayer : int</text><text fill="#000000" font-family="sans-serif" font-size="14" lengthAdjust="spacing" textLength="80" x="1201" y="1260.1426">name: String</text><line style="stroke:#181818;stroke-width:0.5;" x1="1196" x2="1316" y1="1267.2188" y2="1267.2188"/></g><!--MD5=[e05bacf3ff4416a0580578814d41bbf6]
class Piece--><g id="elem_Piece"><rect codeLine="20" fill="#F1F1F1" height="83.2188" id="Piece" rx="2.5" ry="2.5" style="stroke:#181818;stroke-width:0.5;" width="96" x="1361" y="782.5"/><ellipse cx="1389.05" cy="798.5" fill="#ADD1B2" rx="11" ry="11" style="stroke:#181818;stroke-width:1.0;"/><path d="M1391.8156,794.375 Q1391.9719,794.1563 1392.1594,794.0469 Q1392.3469,793.9375 1392.5656,793.9375 Q1392.9406,793.9375 1393.175,794.2031 Q1393.4094,794.4531 1393.4094,795.0625 L1393.4094,796.5156 Q1393.4094,797.125 1393.175,797.3906 Q1392.9406,797.6563 1392.5656,797.6563 Q1392.2219,797.6563 1392.0188,797.4531 Q1391.8156,797.2656 1391.7063,796.75 Q1391.6594,796.3906 1391.4719,796.2031 Q1391.1438,795.8281 1390.5344,795.6094 Q1389.925,795.3906 1389.3,795.3906 Q1388.5344,795.3906 1387.8938,795.7188 Q1387.2688,796.0469 1386.7688,796.7969 Q1386.2844,797.5469 1386.2844,798.5781 L1386.2844,799.6719 Q1386.2844,800.9063 1387.175,801.7344 Q1388.0656,802.5469 1389.6594,802.5469 Q1390.5969,802.5469 1391.2531,802.2969 Q1391.6438,802.1406 1392.0656,801.7031 Q1392.3313,801.4375 1392.4719,801.3594 Q1392.6281,801.2813 1392.8313,801.2813 Q1393.1594,801.2813 1393.4094,801.5469 Q1393.675,801.7969 1393.675,802.1406 Q1393.675,802.4844 1393.3313,802.8906 Q1392.8313,803.4688 1392.0344,803.7969 Q1390.9563,804.25 1389.6594,804.25 Q1388.1438,804.25 1386.9406,803.625 Q1385.9563,803.125 1385.2688,802.0625 Q1384.5813,800.9844 1384.5813,799.7031 L1384.5813,798.5469 Q1384.5813,797.2188 1385.1906,796.0781 Q1385.8156,794.9219 1386.9094,794.3125 Q1388.0031,793.6875 1389.2375,793.6875 Q1389.9719,793.6875 1390.6125,793.8594 Q1391.2688,794.0156 1391.8156,794.375 Z " fill="#000000"/><text fill="#000000" font-family="sans-serif" font-size="14" lengthAdjust="spacing" textLength="35" x="1405.95" y="804.2285">Piece</text><line style="stroke:#181818;stroke-width:0.5;" x1="1362" x2="1456" y1="814.5" y2="814.5"/><text fill="#000000" font-family="sans-serif" font-size="14" lengthAdjust="spacing" textLength="73" x="1367" y="833.0332">idPiece : int</text><text fill="#000000" font-family="sans-serif" font-size="14" lengthAdjust="spacing" textLength="84" x="1367" y="850.6426">name : String</text><line style="stroke:#181818;stroke-width:0.5;" x1="1362" x2="1456" y1="857.7188" y2="857.7188"/></g><!--MD5=[5655ee3e2a0d028d03fe20f829576392]
class Square--><g id="elem_Square"><rect codeLine="25" fill="#F1F1F1" height="118.4375" id="Square" rx="2.5" ry="2.5" style="stroke:#181818;stroke-width:0.5;" width="92" x="1333" y="569"/><ellipse cx="1354.3" cy="585" fill="#ADD1B2" rx="11" ry="11" style="stroke:#181818;stroke-width:1.0;"/><path d="M1357.0656,580.875 Q1357.2219,580.6563 1357.4094,580.5469 Q1357.5969,580.4375 1357.8156,580.4375 Q1358.1906,580.4375 1358.425,580.7031 Q1358.6594,580.9531 1358.6594,581.5625 L1358.6594,583.0156 Q1358.6594,583.625 1358.425,583.8906 Q1358.1906,584.1563 1357.8156,584.1563 Q1357.4719,584.1563 1357.2688,583.9531 Q1357.0656,583.7656 1356.9563,583.25 Q1356.9094,582.8906 1356.7219,582.7031 Q1356.3938,582.3281 1355.7844,582.1094 Q1355.175,581.8906 1354.55,581.8906 Q1353.7844,581.8906 1353.1438,582.2188 Q1352.5188,582.5469 1352.0188,583.2969 Q1351.5344,584.0469 1351.5344,585.0781 L1351.5344,586.1719 Q1351.5344,587.4063 1352.425,588.2344 Q1353.3156,589.0469 1354.9094,589.0469 Q1355.8469,589.0469 1356.5031,588.7969 Q1356.8938,588.6406 1357.3156,588.2031 Q1357.5813,587.9375 1357.7219,587.8594 Q1357.8781,587.7813 1358.0813,587.7813 Q1358.4094,587.7813 1358.6594,588.0469 Q1358.925,588.2969 1358.925,588.6406 Q1358.925,588.9844 1358.5813,589.3906 Q1358.0813,589.9688 1357.2844,590.2969 Q1356.2063,590.75 1354.9094,590.75 Q1353.3938,590.75 1352.1906,590.125 Q1351.2063,589.625 1350.5188,588.5625 Q1349.8313,587.4844 1349.8313,586.2031 L1349.8313,585.0469 Q1349.8313,583.7188 1350.4406,582.5781 Q1351.0656,581.4219 1352.1594,580.8125 Q1353.2531,580.1875 1354.4875,580.1875 Q1355.2219,580.1875 1355.8625,580.3594 Q1356.5188,580.5156 1357.0656,580.875 Z " fill="#000000"/><text fill="#000000" font-family="sans-serif" font-size="14" lengthAdjust="spacing" textLength="46" x="1369.7" y="590.7285">Square</text><line style="stroke:#181818;stroke-width:0.5;" x1="1334" x2="1424" y1="601" y2="601"/><text fill="#000000" font-family="sans-serif" font-size="14" lengthAdjust="spacing" textLength="80" x="1339" y="619.5332">idRound : int</text><text fill="#000000" font-family="sans-serif" font-size="14" lengthAdjust="spacing" textLength="72" x="1339" y="637.1426">column : int</text><text fill="#000000" font-family="sans-serif" font-size="14" lengthAdjust="spacing" textLength="49" x="1339" y="654.752">row : int</text><text fill="#000000" font-family="sans-serif" font-size="14" lengthAdjust="spacing" textLength="73" x="1339" y="672.3613">idPiece : int</text><line style="stroke:#181818;stroke-width:0.5;" x1="1334" x2="1424" y1="679.4375" y2="679.4375"/></g><!--MD5=[f3eaa0fe7b10472f3fee2708cd31d5a7]
class TypeGame--><g id="elem_TypeGame"><rect codeLine="32" fill="#F1F1F1" height="83.2188" id="TypeGame" rx="2.5" ry="2.5" style="stroke:#181818;stroke-width:0.5;" width="102" x="1196" y="586.5"/><ellipse cx="1211" cy="602.5" fill="#ADD1B2" rx="11" ry="11" style="stroke:#181818;stroke-width:1.0;"/><path d="M1213.7656,598.375 Q1213.9219,598.1563 1214.1094,598.0469 Q1214.2969,597.9375 1214.5156,597.9375 Q1214.8906,597.9375 1215.125,598.2031 Q1215.3594,598.4531 1215.3594,599.0625 L1215.3594,600.5156 Q1215.3594,601.125 1215.125,601.3906 Q1214.8906,601.6563 1214.5156,601.6563 Q1214.1719,601.6563 1213.9688,601.4531 Q1213.7656,601.2656 1213.6563,600.75 Q1213.6094,600.3906 1213.4219,600.2031 Q1213.0938,599.8281 1212.4844,599.6094 Q1211.875,599.3906 1211.25,599.3906 Q1210.4844,599.3906 1209.8438,599.7188 Q1209.2188,600.0469 1208.7188,600.7969 Q1208.2344,601.5469 1208.2344,602.5781 L1208.2344,603.6719 Q1208.2344,604.9063 1209.125,605.7344 Q1210.0156,606.5469 1211.6094,606.5469 Q1212.5469,606.5469 1213.2031,606.2969 Q1213.5938,606.1406 1214.0156,605.7031 Q1214.2813,605.4375 1214.4219,605.3594 Q1214.5781,605.2813 1214.7813,605.2813 Q1215.1094,605.2813 1215.3594,605.5469 Q1215.625,605.7969 1215.625,606.1406 Q1215.625,606.4844 1215.2813,606.8906 Q1214.7813,607.4688 1213.9844,607.7969 Q1212.9063,608.25 1211.6094,608.25 Q1210.0938,608.25 1208.8906,607.625 Q1207.9063,607.125 1207.2188,606.0625 Q1206.5313,604.9844 1206.5313,603.7031 L1206.5313,602.5469 Q1206.5313,601.2188 1207.1406,600.0781 Q1207.7656,598.9219 1208.8594,598.3125 Q1209.9531,597.6875 1211.1875,597.6875 Q1211.9219,597.6875 1212.5625,597.8594 Q1213.2188,598.0156 1213.7656,598.375 Z " fill="#000000"/><text fill="#000000" font-family="sans-serif" font-size="14" lengthAdjust="spacing" textLength="70" x="1225" y="608.2285">TypeGame</text><line style="stroke:#181818;stroke-width:0.5;" x1="1197" x2="1297" y1="618.5" y2="618.5"/><text fill="#000000" font-family="sans-serif" font-size="14" lengthAdjust="spacing" textLength="76" x="1202" y="637.0332">idGame : int</text><text fill="#000000" font-family="sans-serif" font-size="14" lengthAdjust="spacing" textLength="84" x="1202" y="654.6426">game : String</text><line style="stroke:#181818;stroke-width:0.5;" x1="1197" x2="1297" y1="661.7188" y2="661.7188"/></g><!--MD5=[f7a9ae25cb0ac60c5f03b7bfd778cce3]
class Dice--><g id="elem_Dice"><rect codeLine="51" fill="#F1F1F1" height="65.6094" id="Dice" rx="2.5" ry="2.5" style="stroke:#181818;stroke-width:0.5;" width="192" x="350" y="791"/><ellipse cx="427.75" cy="807" fill="#ADD1B2" rx="11" ry="11" style="stroke:#181818;stroke-width:1.0;"/><path d="M430.5156,802.875 Q430.6719,802.6563 430.8594,802.5469 Q431.0469,802.4375 431.2656,802.4375 Q431.6406,802.4375 431.875,802.7031 Q432.1094,802.9531 432.1094,803.5625 L432.1094,805.0156 Q432.1094,805.625 431.875,805.8906 Q431.6406,806.1563 431.2656,806.1563 Q430.9219,806.1563 430.7188,805.9531 Q430.5156,805.7656 430.4063,805.25 Q430.3594,804.8906 430.1719,804.7031 Q429.8438,804.3281 429.2344,804.1094 Q428.625,803.8906 428,803.8906 Q427.2344,803.8906 426.5938,804.2188 Q425.9688,804.5469 425.4688,805.2969 Q424.9844,806.0469 424.9844,807.0781 L424.9844,808.1719 Q424.9844,809.4063 425.875,810.2344 Q426.7656,811.0469 428.3594,811.0469 Q429.2969,811.0469 429.9531,810.7969 Q430.3438,810.6406 430.7656,810.2031 Q431.0313,809.9375 431.1719,809.8594 Q431.3281,809.7813 431.5313,809.7813 Q431.8594,809.7813 432.1094,810.0469 Q432.375,810.2969 432.375,810.6406 Q432.375,810.9844 432.0313,811.3906 Q431.5313,811.9688 430.7344,812.2969 Q429.6563,812.75 428.3594,812.75 Q426.8438,812.75 425.6406,812.125 Q424.6563,811.625 423.9688,810.5625 Q423.2813,809.4844 423.2813,808.2031 L423.2813,807.0469 Q423.2813,805.7188 423.8906,804.5781 Q424.5156,803.4219 425.6094,802.8125 Q426.7031,802.1875 427.9375,802.1875 Q428.6719,802.1875 429.3125,802.3594 Q429.9688,802.5156 430.5156,802.875 Z " fill="#000000"/><text fill="#000000" font-family="sans-serif" font-size="14" lengthAdjust="spacing" textLength="28" x="448.25" y="812.7285">Dice</text><line style="stroke:#181818;stroke-width:0.5;" x1="351" x2="541" y1="823" y2="823"/><line style="stroke:#181818;stroke-width:0.5;" x1="351" x2="541" y1="831" y2="831"/><ellipse cx="361" cy="842" fill="#84BE84" rx="3" ry="3" style="stroke:#038048;stroke-width:1.0;"/><text fill="#000000" font-family="sans-serif" font-size="14" lengthAdjust="spacing" textLength="166" x="370" y="849.5332">generateValue (int bound)</text></g><!--MD5=[90188486dc81769ab5cfb9bd648607bd]
class GamePlayerController--><g id="elem_GamePlayerController"><rect codeLine="66" fill="#F1F1F1" height="65.6094" id="GamePlayerController" rx="2.5" ry="2.5" style="stroke:#181818;stroke-width:0.5;" width="172" x="598" y="595"/><ellipse cx="613" cy="611" fill="#B4A7E5" rx="11" ry="11" style="stroke:#181818;stroke-width:1.0;"/><path d="M613.9531,607.6406 L613.9531,614.2969 L615.6719,614.2969 Q616.2813,614.2969 616.5469,614.5313 Q616.8125,614.7656 616.8125,615.1563 Q616.8125,615.5313 616.5469,615.7656 Q616.2813,616 615.6719,616 L610.5313,616 Q609.9219,616 609.6563,615.7656 Q609.3906,615.5313 609.3906,615.1406 Q609.3906,614.7656 609.6563,614.5313 Q609.9219,614.2969 610.5313,614.2969 L612.25,614.2969 L612.25,607.6406 L610.5313,607.6406 Q609.9219,607.6406 609.6563,607.4063 Q609.3906,607.1719 609.3906,606.7813 Q609.3906,606.4063 609.6563,606.1719 Q609.9219,605.9375 610.5313,605.9375 L615.6719,605.9375 Q616.2813,605.9375 616.5469,606.1719 Q616.8125,606.4063 616.8125,606.7813 Q616.8125,607.1719 616.5469,607.4063 Q616.2813,607.6406 615.6719,607.6406 L613.9531,607.6406 Z " fill="#000000"/><text fill="#000000" font-family="sans-serif" font-size="14" font-style="italic" lengthAdjust="spacing" textLength="140" x="627" y="616.7285">GamePlayerController</text><line style="stroke:#181818;stroke-width:0.5;" x1="599" x2="769" y1="627" y2="627"/><line style="stroke:#181818;stroke-width:0.5;" x1="599" x2="769" y1="635" y2="635"/><ellipse cx="609" cy="646" fill="#84BE84" rx="3" ry="3" style="stroke:#038048;stroke-width:1.0;"/><text fill="#000000" font-family="sans-serif" font-size="14" lengthAdjust="spacing" textLength="115" x="618" y="653.5332">processResult(int)</text></g><!--MD5=[c799d28eabd75218359eff1d3c0c2cd9]
class GamePlayersProviderController--><g id="elem_GamePlayersProviderController"><rect codeLine="69" fill="#F1F1F1" height="65.6094" id="GamePlayersProviderController" rx="2.5" ry="2.5" style="stroke:#181818;stroke-width:0.5;" width="254" x="827" y="247"/><ellipse cx="852.35" cy="263" fill="#B4A7E5" rx="11" ry="11" style="stroke:#181818;stroke-width:1.0;"/><path d="M853.3031,259.6406 L853.3031,266.2969 L855.0219,266.2969 Q855.6313,266.2969 855.8969,266.5313 Q856.1625,266.7656 856.1625,267.1563 Q856.1625,267.5313 855.8969,267.7656 Q855.6313,268 855.0219,268 L849.8813,268 Q849.2719,268 849.0063,267.7656 Q848.7406,267.5313 848.7406,267.1406 Q848.7406,266.7656 849.0063,266.5313 Q849.2719,266.2969 849.8813,266.2969 L851.6,266.2969 L851.6,259.6406 L849.8813,259.6406 Q849.2719,259.6406 849.0063,259.4063 Q848.7406,259.1719 848.7406,258.7813 Q848.7406,258.4063 849.0063,258.1719 Q849.2719,257.9375 849.8813,257.9375 L855.0219,257.9375 Q855.6313,257.9375 855.8969,258.1719 Q856.1625,258.4063 856.1625,258.7813 Q856.1625,259.1719 855.8969,259.4063 Q855.6313,259.6406 855.0219,259.6406 L853.3031,259.6406 Z " fill="#000000"/><text fill="#000000" font-family="sans-serif" font-size="14" font-style="italic" lengthAdjust="spacing" textLength="199" x="868.65" y="268.7285">GamePlayersProviderController</text><line style="stroke:#181818;stroke-width:0.5;" x1="828" x2="1080" y1="279" y2="279"/><line style="stroke:#181818;stroke-width:0.5;" x1="828" x2="1080" y1="287" y2="287"/><ellipse cx="838" cy="298" fill="#84BE84" rx="3" ry="3" style="stroke:#038048;stroke-width:1.0;"/><text fill="#000000" font-family="sans-serif" font-size="14" lengthAdjust="spacing" textLength="228" x="847" y="305.5332">getGamePlayers(int) : GamePlayer[]</text></g><!--MD5=[6c6d1e40d155900b1d909db28d8f95d5]
class ListOfPlayersController--><g id="elem_ListOfPlayersController"><rect codeLine="59" fill="#F1F1F1" height="100.8281" id="ListOfPlayersController" rx="2.5" ry="2.5" style="stroke:#181818;stroke-width:0.5;" width="199" x="854.5" y="86"/><ellipse cx="878.95" cy="102" fill="#ADD1B2" rx="11" ry="11" style="stroke:#181818;stroke-width:1.0;"/><path d="M881.7156,97.875 Q881.8719,97.6563 882.0594,97.5469 Q882.2469,97.4375 882.4656,97.4375 Q882.8406,97.4375 883.075,97.7031 Q883.3094,97.9531 883.3094,98.5625 L883.3094,100.0156 Q883.3094,100.625 883.075,100.8906 Q882.8406,101.1563 882.4656,101.1563 Q882.1219,101.1563 881.9188,100.9531 Q881.7156,100.7656 881.6063,100.25 Q881.5594,99.8906 881.3719,99.7031 Q881.0438,99.3281 880.4344,99.1094 Q879.825,98.8906 879.2,98.8906 Q878.4344,98.8906 877.7938,99.2188 Q877.1688,99.5469 876.6688,100.2969 Q876.1844,101.0469 876.1844,102.0781 L876.1844,103.1719 Q876.1844,104.4063 877.075,105.2344 Q877.9656,106.0469 879.5594,106.0469 Q880.4969,106.0469 881.1531,105.7969 Q881.5438,105.6406 881.9656,105.2031 Q882.2313,104.9375 882.3719,104.8594 Q882.5281,104.7813 882.7313,104.7813 Q883.0594,104.7813 883.3094,105.0469 Q883.575,105.2969 883.575,105.6406 Q883.575,105.9844 883.2313,106.3906 Q882.7313,106.9688 881.9344,107.2969 Q880.8563,107.75 879.5594,107.75 Q878.0438,107.75 876.8406,107.125 Q875.8563,106.625 875.1688,105.5625 Q874.4813,104.4844 874.4813,103.2031 L874.4813,102.0469 Q874.4813,100.7188 875.0906,99.5781 Q875.7156,98.4219 876.8094,97.8125 Q877.9031,97.1875 879.1375,97.1875 Q879.8719,97.1875 880.5125,97.3594 Q881.1688,97.5156 881.7156,97.875 Z " fill="#000000"/><text fill="#000000" font-family="sans-serif" font-size="14" lengthAdjust="spacing" textLength="146" x="895.05" y="107.7285">ListOfPlayersController</text><line style="stroke:#181818;stroke-width:0.5;" x1="855.5" x2="1052.5" y1="118" y2="118"/><ellipse cx="865.5" cy="129" fill="none" rx="3" ry="3" style="stroke:#038048;stroke-width:1.0;"/><text fill="#000000" font-family="sans-serif" font-size="14" lengthAdjust="spacing" textLength="150" x="874.5" y="136.5332">List&lt;Player&gt; playersList</text><line style="stroke:#181818;stroke-width:0.5;" x1="855.5" x2="1052.5" y1="143.6094" y2="143.6094"/><ellipse cx="865.5" cy="154.6094" fill="#84BE84" rx="3" ry="3" style="stroke:#038048;stroke-width:1.0;"/><text fill="#000000" font-family="sans-serif" font-size="14" lengthAdjust="spacing" textLength="173" x="874.5" y="162.1426">createPlayer(Player player)</text><ellipse cx="865.5" cy="172.2188" fill="#84BE84" rx="3" ry="3" style="stroke:#038048;stroke-width:1.0;"/><text fill="#000000" font-family="sans-serif" font-size="14" lengthAdjust="spacing" textLength="100" x="874.5" y="179.752">getPlayer(int id)</text></g><!--MD5=[94e6bc30fd8c9ad2a6854bef35573eca]
class TicTacToeController--><g id="elem_TicTacToeController"><rect codeLine="74" fill="#F1F1F1" height="136.0469" id="TicTacToeController" rx="2.5" ry="2.5" style="stroke:#181818;stroke-width:0.5;" width="303" x="802.5" y="373"/><ellipse cx="884.75" cy="389" fill="#ADD1B2" rx="11" ry="11" style="stroke:#181818;stroke-width:1.0;"/><path d="M887.5156,384.875 Q887.6719,384.6563 887.8594,384.5469 Q888.0469,384.4375 888.2656,384.4375 Q888.6406,384.4375 888.875,384.7031 Q889.1094,384.9531 889.1094,385.5625 L889.1094,387.0156 Q889.1094,387.625 888.875,387.8906 Q888.6406,388.1563 888.2656,388.1563 Q887.9219,388.1563 887.7188,387.9531 Q887.5156,387.7656 887.4063,387.25 Q887.3594,386.8906 887.1719,386.7031 Q886.8438,386.3281 886.2344,386.1094 Q885.625,385.8906 885,385.8906 Q884.2344,385.8906 883.5938,386.2188 Q882.9688,386.5469 882.4688,387.2969 Q881.9844,388.0469 881.9844,389.0781 L881.9844,390.1719 Q881.9844,391.4063 882.875,392.2344 Q883.7656,393.0469 885.3594,393.0469 Q886.2969,393.0469 886.9531,392.7969 Q887.3438,392.6406 887.7656,392.2031 Q888.0313,391.9375 888.1719,391.8594 Q888.3281,391.7813 888.5313,391.7813 Q888.8594,391.7813 889.1094,392.0469 Q889.375,392.2969 889.375,392.6406 Q889.375,392.9844 889.0313,393.3906 Q888.5313,393.9688 887.7344,394.2969 Q886.6563,394.75 885.3594,394.75 Q883.8438,394.75 882.6406,394.125 Q881.6563,393.625 880.9688,392.5625 Q880.2813,391.4844 880.2813,390.2031 L880.2813,389.0469 Q880.2813,387.7188 880.8906,386.5781 Q881.5156,385.4219 882.6094,384.8125 Q883.7031,384.1875 884.9375,384.1875 Q885.6719,384.1875 886.3125,384.3594 Q886.9688,384.5156 887.5156,384.875 Z " fill="#000000"/><text fill="#000000" font-family="sans-serif" font-size="14" lengthAdjust="spacing" textLength="130" x="905.25" y="394.7285">TicTacToeController</text><line style="stroke:#181818;stroke-width:0.5;" x1="803.5" x2="1104.5" y1="405" y2="405"/><polygon fill="none" points="813.5,411,817.5,415,813.5,419,809.5,415" style="stroke:#B38D22;stroke-width:1.0;"/><text fill="#000000" font-family="sans-serif" font-size="14" lengthAdjust="spacing" textLength="172" x="822.5" y="423.5332">GamePlayer[] gamePlayers</text><polygon fill="none" points="813.5,428.6094,817.5,432.6094,813.5,436.6094,809.5,432.6094" style="stroke:#B38D22;stroke-width:1.0;"/><text fill="#000000" font-family="sans-serif" font-size="14" lengthAdjust="spacing" textLength="277" x="822.5" y="441.1426">GamePlayersProvider gamePlayersProvider</text><line style="stroke:#181818;stroke-width:0.5;" x1="803.5" x2="1104.5" y1="448.2188" y2="448.2188"/><ellipse cx="813.5" cy="459.2188" fill="#84BE84" rx="3" ry="3" style="stroke:#038048;stroke-width:1.0;"/><text fill="#000000" font-family="sans-serif" font-size="14" lengthAdjust="spacing" textLength="60" x="822.5" y="466.752">Execute()</text><polygon fill="#FFFF44" points="813.5,471.8281,817.5,475.8281,813.5,479.8281,809.5,475.8281" style="stroke:#B38D22;stroke-width:1.0;"/><text fill="#000000" font-family="sans-serif" font-size="14" lengthAdjust="spacing" textLength="264" x="822.5" y="484.3613">AssignRoles (GamePlayer[] gamePlayers)</text><polygon fill="#FFFF44" points="813.5,489.4375,817.5,493.4375,813.5,497.4375,809.5,493.4375" style="stroke:#B38D22;stroke-width:1.0;"/><text fill="#000000" font-family="sans-serif" font-size="14" lengthAdjust="spacing" textLength="240" x="822.5" y="501.9707">flipRoles (GamePlayer[] gamePlayers)</text></g><!--MD5=[fb2941c51d2aa49bb175e07467481314]
class TicTacToePlayerController--><g id="elem_TicTacToePlayerController"><rect codeLine="81" fill="#F1F1F1" height="65.6094" id="TicTacToePlayerController" rx="2.5" ry="2.5" style="stroke:#181818;stroke-width:0.5;" width="202" x="802" y="791"/><ellipse cx="817" cy="807" fill="#B4A7E5" rx="11" ry="11" style="stroke:#181818;stroke-width:1.0;"/><path d="M817.9531,803.6406 L817.9531,810.2969 L819.6719,810.2969 Q820.2813,810.2969 820.5469,810.5313 Q820.8125,810.7656 820.8125,811.1563 Q820.8125,811.5313 820.5469,811.7656 Q820.2813,812 819.6719,812 L814.5313,812 Q813.9219,812 813.6563,811.7656 Q813.3906,811.5313 813.3906,811.1406 Q813.3906,810.7656 813.6563,810.5313 Q813.9219,810.2969 814.5313,810.2969 L816.25,810.2969 L816.25,803.6406 L814.5313,803.6406 Q813.9219,803.6406 813.6563,803.4063 Q813.3906,803.1719 813.3906,802.7813 Q813.3906,802.4063 813.6563,802.1719 Q813.9219,801.9375 814.5313,801.9375 L819.6719,801.9375 Q820.2813,801.9375 820.5469,802.1719 Q820.8125,802.4063 820.8125,802.7813 Q820.8125,803.1719 820.5469,803.4063 Q820.2813,803.6406 819.6719,803.6406 L817.9531,803.6406 Z " fill="#000000"/><text fill="#000000" font-family="sans-serif" font-size="14" font-style="italic" lengthAdjust="spacing" textLength="170" x="831" y="812.7285">TicTacToePlayerController</text><line style="stroke:#181818;stroke-width:0.5;" x1="803" x2="1003" y1="823" y2="823"/><line style="stroke:#181818;stroke-width:0.5;" x1="803" x2="1003" y1="831" y2="831"/><ellipse cx="813" cy="842" fill="#84BE84" rx="3" ry="3" style="stroke:#038048;stroke-width:1.0;"/><text fill="#000000" font-family="sans-serif" font-size="14" lengthAdjust="spacing" textLength="61" x="822" y="849.5332">putMark()</text></g><!--MD5=[070ba638e46eb69e790595e6badc3600]
class RoundTicTacToeController--><g id="elem_RoundTicTacToeController"><rect codeLine="84" fill="#F1F1F1" height="65.6094" id="RoundTicTacToeController" rx="2.5" ry="2.5" style="stroke:#181818;stroke-width:0.5;" width="204" x="877" y="595"/><ellipse cx="892" cy="611" fill="#ADD1B2" rx="11" ry="11" style="stroke:#181818;stroke-width:1.0;"/><path d="M894.7656,606.875 Q894.9219,606.6563 895.1094,606.5469 Q895.2969,606.4375 895.5156,606.4375 Q895.8906,606.4375 896.125,606.7031 Q896.3594,606.9531 896.3594,607.5625 L896.3594,609.0156 Q896.3594,609.625 896.125,609.8906 Q895.8906,610.1563 895.5156,610.1563 Q895.1719,610.1563 894.9688,609.9531 Q894.7656,609.7656 894.6563,609.25 Q894.6094,608.8906 894.4219,608.7031 Q894.0938,608.3281 893.4844,608.1094 Q892.875,607.8906 892.25,607.8906 Q891.4844,607.8906 890.8438,608.2188 Q890.2188,608.5469 889.7188,609.2969 Q889.2344,610.0469 889.2344,611.0781 L889.2344,612.1719 Q889.2344,613.4063 890.125,614.2344 Q891.0156,615.0469 892.6094,615.0469 Q893.5469,615.0469 894.2031,614.7969 Q894.5938,614.6406 895.0156,614.2031 Q895.2813,613.9375 895.4219,613.8594 Q895.5781,613.7813 895.7813,613.7813 Q896.1094,613.7813 896.3594,614.0469 Q896.625,614.2969 896.625,614.6406 Q896.625,614.9844 896.2813,615.3906 Q895.7813,615.9688 894.9844,616.2969 Q893.9063,616.75 892.6094,616.75 Q891.0938,616.75 889.8906,616.125 Q888.9063,615.625 888.2188,614.5625 Q887.5313,613.4844 887.5313,612.2031 L887.5313,611.0469 Q887.5313,609.7188 888.1406,608.5781 Q888.7656,607.4219 889.8594,606.8125 Q890.9531,606.1875 892.1875,606.1875 Q892.9219,606.1875 893.5625,606.3594 Q894.2188,606.5156 894.7656,606.875 Z " fill="#000000"/><text fill="#000000" font-family="sans-serif" font-size="14" lengthAdjust="spacing" textLength="172" x="906" y="616.7285">RoundTicTacToeController</text><line style="stroke:#181818;stroke-width:0.5;" x1="878" x2="1080" y1="627" y2="627"/><line style="stroke:#181818;stroke-width:0.5;" x1="878" x2="1080" y1="635" y2="635"/><ellipse cx="888" cy="646" fill="#84BE84" rx="3" ry="3" style="stroke:#038048;stroke-width:1.0;"/><text fill="#000000" font-family="sans-serif" font-size="14" lengthAdjust="spacing" textLength="36" x="897" y="653.5332">play()</text></g><!--MD5=[bc3bc2b8e2792aca32c690a8295ff32f]
class BoardController--><g id="elem_BoardController"><rect codeLine="87" fill="#F1F1F1" height="171.2656" id="BoardController" rx="2.5" ry="2.5" style="stroke:#181818;stroke-width:0.5;" width="279" x="802.5" y="961"/><ellipse cx="887.75" cy="977" fill="#ADD1B2" rx="11" ry="11" style="stroke:#181818;stroke-width:1.0;"/><path d="M890.5156,972.875 Q890.6719,972.6563 890.8594,972.5469 Q891.0469,972.4375 891.2656,972.4375 Q891.6406,972.4375 891.875,972.7031 Q892.1094,972.9531 892.1094,973.5625 L892.1094,975.0156 Q892.1094,975.625 891.875,975.8906 Q891.6406,976.1563 891.2656,976.1563 Q890.9219,976.1563 890.7188,975.9531 Q890.5156,975.7656 890.4063,975.25 Q890.3594,974.8906 890.1719,974.7031 Q889.8438,974.3281 889.2344,974.1094 Q888.625,973.8906 888,973.8906 Q887.2344,973.8906 886.5938,974.2188 Q885.9688,974.5469 885.4688,975.2969 Q884.9844,976.0469 884.9844,977.0781 L884.9844,978.1719 Q884.9844,979.4063 885.875,980.2344 Q886.7656,981.0469 888.3594,981.0469 Q889.2969,981.0469 889.9531,980.7969 Q890.3438,980.6406 890.7656,980.2031 Q891.0313,979.9375 891.1719,979.8594 Q891.3281,979.7813 891.5313,979.7813 Q891.8594,979.7813 892.1094,980.0469 Q892.375,980.2969 892.375,980.6406 Q892.375,980.9844 892.0313,981.3906 Q891.5313,981.9688 890.7344,982.2969 Q889.6563,982.75 888.3594,982.75 Q886.8438,982.75 885.6406,982.125 Q884.6563,981.625 883.9688,980.5625 Q883.2813,979.4844 883.2813,978.2031 L883.2813,977.0469 Q883.2813,975.7188 883.8906,974.5781 Q884.5156,973.4219 885.6094,972.8125 Q886.7031,972.1875 887.9375,972.1875 Q888.6719,972.1875 889.3125,972.3594 Q889.9688,972.5156 890.5156,972.875 Z " fill="#000000"/><text fill="#000000" font-family="sans-serif" font-size="14" lengthAdjust="spacing" textLength="100" x="908.25" y="982.7285">BoardController</text><line style="stroke:#181818;stroke-width:0.5;" x1="803.5" x2="1080.5" y1="993" y2="993"/><ellipse cx="813.5" cy="1004" fill="none" rx="3" ry="3" style="stroke:#038048;stroke-width:1.0;"/><text fill="#000000" font-family="sans-serif" font-size="14" lengthAdjust="spacing" textLength="109" x="822.5" y="1011.5332">EmptySquare = 9</text><line style="stroke:#181818;stroke-width:0.5;" x1="803.5" x2="1080.5" y1="1018.6094" y2="1018.6094"/><ellipse cx="813.5" cy="1029.6094" fill="#84BE84" rx="3" ry="3" style="stroke:#038048;stroke-width:1.0;"/><text fill="#000000" font-family="sans-serif" font-size="14" lengthAdjust="spacing" textLength="88" x="822.5" y="1037.1426">createBoard()</text><ellipse cx="813.5" cy="1047.2188" fill="#84BE84" rx="3" ry="3" style="stroke:#038048;stroke-width:1.0;"/><text fill="#000000" font-family="sans-serif" font-size="14" lengthAdjust="spacing" textLength="43" x="822.5" y="1054.752">isFull()</text><ellipse cx="813.5" cy="1064.8281" fill="#84BE84" rx="3" ry="3" style="stroke:#038048;stroke-width:1.0;"/><text fill="#000000" font-family="sans-serif" font-size="14" lengthAdjust="spacing" textLength="253" x="822.5" y="1072.3613">putPiece (Position position, Piece piece)</text><rect fill="#F24D5C" height="6" style="stroke:#C82930;stroke-width:1.0;" width="6" x="810.5" y="1079.4375"/><text fill="#000000" font-family="sans-serif" font-size="14" lengthAdjust="spacing" textLength="81" x="822.5" y="1089.9707">checkRows()</text><rect fill="#F24D5C" height="6" style="stroke:#C82930;stroke-width:1.0;" width="6" x="810.5" y="1097.0469"/><text fill="#000000" font-family="sans-serif" font-size="14" lengthAdjust="spacing" textLength="102" x="822.5" y="1107.5801">checkColumns()</text><rect fill="#F24D5C" height="6" style="stroke:#C82930;stroke-width:1.0;" width="6" x="810.5" y="1114.6563"/><text fill="#000000" font-family="sans-serif" font-size="14" lengthAdjust="spacing" textLength="110" x="822.5" y="1125.1895">checkDiagonals()</text></g><!--MD5=[36f719b1cbc3f26b5758ea249b208fb4]
class TicTacToe--><g id="elem_TicTacToe"><rect codeLine="100" fill="#F1F1F1" height="83.2188" id="TicTacToe" rx="2.5" ry="2.5" style="stroke:#181818;stroke-width:0.5;" width="110" x="241" y="586.5"/><ellipse cx="260.5" cy="602.5" fill="#ADD1B2" rx="11" ry="11" style="stroke:#181818;stroke-width:1.0;"/><path d="M263.2656,598.375 Q263.4219,598.1563 263.6094,598.0469 Q263.7969,597.9375 264.0156,597.9375 Q264.3906,597.9375 264.625,598.2031 Q264.8594,598.4531 264.8594,599.0625 L264.8594,600.5156 Q264.8594,601.125 264.625,601.3906 Q264.3906,601.6563 264.0156,601.6563 Q263.6719,601.6563 263.4688,601.4531 Q263.2656,601.2656 263.1563,600.75 Q263.1094,600.3906 262.9219,600.2031 Q262.5938,599.8281 261.9844,599.6094 Q261.375,599.3906 260.75,599.3906 Q259.9844,599.3906 259.3438,599.7188 Q258.7188,600.0469 258.2188,600.7969 Q257.7344,601.5469 257.7344,602.5781 L257.7344,603.6719 Q257.7344,604.9063 258.625,605.7344 Q259.5156,606.5469 261.1094,606.5469 Q262.0469,606.5469 262.7031,606.2969 Q263.0938,606.1406 263.5156,605.7031 Q263.7813,605.4375 263.9219,605.3594 Q264.0781,605.2813 264.2813,605.2813 Q264.6094,605.2813 264.8594,605.5469 Q265.125,605.7969 265.125,606.1406 Q265.125,606.4844 264.7813,606.8906 Q264.2813,607.4688 263.4844,607.7969 Q262.4063,608.25 261.1094,608.25 Q259.5938,608.25 258.3906,607.625 Q257.4063,607.125 256.7188,606.0625 Q256.0313,604.9844 256.0313,603.7031 L256.0313,602.5469 Q256.0313,601.2188 256.6406,600.0781 Q257.2656,598.9219 258.3594,598.3125 Q259.4531,597.6875 260.6875,597.6875 Q261.4219,597.6875 262.0625,597.8594 Q262.7188,598.0156 263.2656,598.375 Z " fill="#000000"/><text fill="#000000" font-family="sans-serif" font-size="14" lengthAdjust="spacing" textLength="68" x="275.5" y="608.2285">TicTacToe</text><line style="stroke:#181818;stroke-width:0.5;" x1="242" x2="350" y1="618.5" y2="618.5"/><line style="stroke:#181818;stroke-width:0.5;" x1="242" x2="350" y1="626.5" y2="626.5"/><ellipse cx="252" cy="637.5" fill="#84BE84" rx="3" ry="3" style="stroke:#038048;stroke-width:1.0;"/><text fill="#000000" font-family="sans-serif" font-size="14" lengthAdjust="spacing" textLength="84" x="261" y="645.0332">Introduction()</text><ellipse cx="252" cy="655.1094" fill="#84BE84" rx="3" ry="3" style="stroke:#038048;stroke-width:1.0;"/><text fill="#000000" font-family="sans-serif" font-size="14" lengthAdjust="spacing" textLength="62" x="261" y="662.6426">Resume()</text></g><!--MD5=[82a37a108f28ded8fb022e1a5df25ae5]
class ListOfPlayers--><g id="elem_ListOfPlayers"><rect codeLine="105" fill="#F1F1F1" height="100.8281" id="ListOfPlayers" rx="2.5" ry="2.5" style="stroke:#181818;stroke-width:0.5;" width="184" x="22" y="577.5"/><ellipse cx="67.75" cy="593.5" fill="#ADD1B2" rx="11" ry="11" style="stroke:#181818;stroke-width:1.0;"/><path d="M70.5156,589.375 Q70.6719,589.1563 70.8594,589.0469 Q71.0469,588.9375 71.2656,588.9375 Q71.6406,588.9375 71.875,589.2031 Q72.1094,589.4531 72.1094,590.0625 L72.1094,591.5156 Q72.1094,592.125 71.875,592.3906 Q71.6406,592.6563 71.2656,592.6563 Q70.9219,592.6563 70.7188,592.4531 Q70.5156,592.2656 70.4063,591.75 Q70.3594,591.3906 70.1719,591.2031 Q69.8438,590.8281 69.2344,590.6094 Q68.625,590.3906 68,590.3906 Q67.2344,590.3906 66.5938,590.7188 Q65.9688,591.0469 65.4688,591.7969 Q64.9844,592.5469 64.9844,593.5781 L64.9844,594.6719 Q64.9844,595.9063 65.875,596.7344 Q66.7656,597.5469 68.3594,597.5469 Q69.2969,597.5469 69.9531,597.2969 Q70.3438,597.1406 70.7656,596.7031 Q71.0313,596.4375 71.1719,596.3594 Q71.3281,596.2813 71.5313,596.2813 Q71.8594,596.2813 72.1094,596.5469 Q72.375,596.7969 72.375,597.1406 Q72.375,597.4844 72.0313,597.8906 Q71.5313,598.4688 70.7344,598.7969 Q69.6563,599.25 68.3594,599.25 Q66.8438,599.25 65.6406,598.625 Q64.6563,598.125 63.9688,597.0625 Q63.2813,595.9844 63.2813,594.7031 L63.2813,593.5469 Q63.2813,592.2188 63.8906,591.0781 Q64.5156,589.9219 65.6094,589.3125 Q66.7031,588.6875 67.9375,588.6875 Q68.6719,588.6875 69.3125,588.8594 Q69.9688,589.0156 70.5156,589.375 Z " fill="#000000"/><text fill="#000000" font-family="sans-serif" font-size="14" lengthAdjust="spacing" textLength="84" x="88.25" y="599.2285">ListOfPlayers</text><line style="stroke:#181818;stroke-width:0.5;" x1="23" x2="205" y1="609.5" y2="609.5"/><line style="stroke:#181818;stroke-width:0.5;" x1="23" x2="205" y1="617.5" y2="617.5"/><ellipse cx="33" cy="628.5" fill="#84BE84" rx="3" ry="3" style="stroke:#038048;stroke-width:1.0;"/><text fill="#000000" font-family="sans-serif" font-size="14" lengthAdjust="spacing" textLength="52" x="42" y="636.0332">getList()</text><ellipse cx="33" cy="646.1094" fill="#84BE84" rx="3" ry="3" style="stroke:#038048;stroke-width:1.0;"/><text fill="#000000" font-family="sans-serif" font-size="14" lengthAdjust="spacing" textLength="60" x="42" y="653.6426">printList()</text><ellipse cx="33" cy="663.7188" fill="#84BE84" rx="3" ry="3" style="stroke:#038048;stroke-width:1.0;"/><text fill="#000000" font-family="sans-serif" font-size="14" lengthAdjust="spacing" textLength="158" x="42" y="671.252">getGamePlayers(int size)</text></g><!--MD5=[9563755d011c5cec7ec66dc53565a59e]
class Board--><g id="elem_Board"><rect codeLine="111" fill="#F1F1F1" height="83.2188" id="Board" rx="2.5" ry="2.5" style="stroke:#181818;stroke-width:0.5;" width="105" x="386.5" y="586.5"/><ellipse cx="417.25" cy="602.5" fill="#ADD1B2" rx="11" ry="11" style="stroke:#181818;stroke-width:1.0;"/><path d="M420.0156,598.375 Q420.1719,598.1563 420.3594,598.0469 Q420.5469,597.9375 420.7656,597.9375 Q421.1406,597.9375 421.375,598.2031 Q421.6094,598.4531 421.6094,599.0625 L421.6094,600.5156 Q421.6094,601.125 421.375,601.3906 Q421.1406,601.6563 420.7656,601.6563 Q420.4219,601.6563 420.2188,601.4531 Q420.0156,601.2656 419.9063,600.75 Q419.8594,600.3906 419.6719,600.2031 Q419.3438,599.8281 418.7344,599.6094 Q418.125,599.3906 417.5,599.3906 Q416.7344,599.3906 416.0938,599.7188 Q415.4688,600.0469 414.9688,600.7969 Q414.4844,601.5469 414.4844,602.5781 L414.4844,603.6719 Q414.4844,604.9063 415.375,605.7344 Q416.2656,606.5469 417.8594,606.5469 Q418.7969,606.5469 419.4531,606.2969 Q419.8438,606.1406 420.2656,605.7031 Q420.5313,605.4375 420.6719,605.3594 Q420.8281,605.2813 421.0313,605.2813 Q421.3594,605.2813 421.6094,605.5469 Q421.875,605.7969 421.875,606.1406 Q421.875,606.4844 421.5313,606.8906 Q421.0313,607.4688 420.2344,607.7969 Q419.1563,608.25 417.8594,608.25 Q416.3438,608.25 415.1406,607.625 Q414.1563,607.125 413.4688,606.0625 Q412.7813,604.9844 412.7813,603.7031 L412.7813,602.5469 Q412.7813,601.2188 413.3906,600.0781 Q414.0156,598.9219 415.1094,598.3125 Q416.2031,597.6875 417.4375,597.6875 Q418.1719,597.6875 418.8125,597.8594 Q419.4688,598.0156 420.0156,598.375 Z " fill="#000000"/><text fill="#000000" font-family="sans-serif" font-size="14" lengthAdjust="spacing" textLength="38" x="434.75" y="608.2285">Board</text><line style="stroke:#181818;stroke-width:0.5;" x1="387.5" x2="490.5" y1="618.5" y2="618.5"/><line style="stroke:#181818;stroke-width:0.5;" x1="387.5" x2="490.5" y1="626.5" y2="626.5"/><ellipse cx="397.5" cy="637.5" fill="#84BE84" rx="3" ry="3" style="stroke:#038048;stroke-width:1.0;"/><text fill="#000000" font-family="sans-serif" font-size="14" lengthAdjust="spacing" textLength="79" x="406.5" y="645.0332">paintBoard()</text><ellipse cx="397.5" cy="655.1094" fill="#84BE84" rx="3" ry="3" style="stroke:#038048;stroke-width:1.0;"/><text fill="#000000" font-family="sans-serif" font-size="14" lengthAdjust="spacing" textLength="75" x="406.5" y="662.6426">getWinner()</text></g><!--MD5=[f67dd3c3e51d4023034ce19e0947172b]
reverse link Square to Piece--><g id="link_Square_Piece"><path codeLine="37" d="M1390,700.1 C1394.28,727.81 1399.04,758.57 1402.72,782.38 " fill="none" id="Square-backto-Piece" style="stroke:#181818;stroke-width:1.0;"/><polygon fill="none" points="1388,687.21,1384.9638,693.7507,1389.8336,699.0691,1392.8698,692.5283,1388,687.21" style="stroke:#181818;stroke-width:1.0;"/></g><!--MD5=[55d64a43c9fbbd0c57ec275f67dff253]
reverse link Round to Player--><g id="link_Round_Player"><path codeLine="39" d="M1230.18,914.26 C1229.03,942.11 1230.19,971.83 1233.66,995.92 " fill="none" id="Round-backto-Player" style="stroke:#181818;stroke-width:1.0;"/><polygon fill="#181818" points="1230.9,901.19,1226.5765,906.9613,1230.2409,913.1719,1234.5644,907.4006,1230.9,901.19" style="stroke:#181818;stroke-width:1.0;"/><text fill="#000000" font-family="sans-serif" font-size="13" lengthAdjust="spacing" textLength="48" x="1179.1434" y="985.2141">Player 1</text></g><!--MD5=[55d64a43c9fbbd0c57ec275f67dff253]
reverse link Round to Player--><g id="link_Round_Player"><path codeLine="40" d="M1256,914.26 C1256,942.11 1256,971.83 1256,995.92 " fill="none" id="Round-backto-Player-1" style="stroke:#181818;stroke-width:1.0;"/><polygon fill="#181818" points="1256,901.19,1252,907.19,1256,913.19,1260,907.19,1256,901.19" style="stroke:#181818;stroke-width:1.0;"/><text fill="#000000" font-family="sans-serif" font-size="13" lengthAdjust="spacing" textLength="48" x="1259.375" y="985.2141">Player 2</text></g><!--MD5=[55d64a43c9fbbd0c57ec275f67dff253]
reverse link Round to Player--><g id="link_Round_Player"><path codeLine="41" d="M1281.82,914.26 C1282.97,942.11 1281.81,971.83 1278.34,995.92 " fill="none" id="Round-backto-Player-2" style="stroke:#181818;stroke-width:1.0;"/><polygon fill="#181818" points="1281.1,901.19,1277.4356,907.4006,1281.7591,913.1719,1285.4235,906.9613,1281.1,901.19" style="stroke:#181818;stroke-width:1.0;"/><text fill="#000000" font-family="sans-serif" font-size="13" lengthAdjust="spacing" textLength="41" x="1237.5987" y="985.2141">Winner</text></g><!--MD5=[f7ff9e901bf9f1bebf511a8077eb4f52]
reverse link Square to Round--><g id="link_Square_Round"><path codeLine="43" d="M1334.98,698.43 C1325.02,714.14 1314.39,730.9 1304.27,746.87 " fill="none" id="Square-backto-Round" style="stroke:#181818;stroke-width:1.0;"/><polygon fill="#181818" points="1342.1,687.21,1335.5105,690.1389,1335.6797,697.348,1342.2692,694.4191,1342.1,687.21" style="stroke:#181818;stroke-width:1.0;"/></g><!--MD5=[cb02c96b642da5c7c708bc3e89afb5b1]
reverse link Player to TypePlayer--><g id="link_Player_TypePlayer"><path codeLine="46" d="M1256,1110.35 C1256,1137.28 1256,1167.96 1256,1191.84 " fill="none" id="Player-backto-TypePlayer" style="stroke:#181818;stroke-width:1.0;"/><polygon fill="#181818" points="1256,1097.08,1252,1103.08,1256,1109.08,1260,1103.08,1256,1097.08" style="stroke:#181818;stroke-width:1.0;"/></g><!--MD5=[e5f01086500c82650ddae89aee8c731c]
link TypeGame to Round--><g id="link_TypeGame_Round"><path codeLine="47" d="M1248.89,669.67 C1249.75,688.34 1250.82,711.27 1251.85,733.65 " fill="none" id="TypeGame-to-Round" style="stroke:#181818;stroke-width:1.0;"/><polygon fill="#181818" points="1252.46,746.73,1256.1788,740.5518,1251.9061,734.7428,1248.1873,740.921,1252.46,746.73" style="stroke:#181818;stroke-width:1.0;"/></g><!--MD5=[af0d44e234c75f1e07a1bc957152b06a]
reverse link TicTacToeController to RoundTicTacToeController--><g id="link_TicTacToeController_RoundTicTacToeController"><path codeLine="118" d="M964.85,522.28 C968.31,547.89 971.94,574.77 974.66,594.88 " fill="none" id="TicTacToeController-backto-RoundTicTacToeController" style="stroke:#181818;stroke-width:1.0;"/><polygon fill="#181818" points="963.06,509.05,959.9003,515.532,964.6684,520.9417,967.8281,514.4597,963.06,509.05" style="stroke:#181818;stroke-width:1.0;"/></g><!--MD5=[b2339d4bb04454fe271dcf942c3c976b]
reverse link RoundTicTacToeController to TicTacToePlayerController--><g id="link_RoundTicTacToeController_TicTacToePlayerController"><path codeLine="120" d="M961.54,673.56 C947.5,709.4 928.12,758.89 915.57,790.92 " fill="none" id="RoundTicTacToeController-backto-TicTacToePlayerController" style="stroke:#181818;stroke-width:1.0;"/><polygon fill="#181818" points="966.45,661.04,960.5362,665.1664,962.0707,672.2124,967.9845,668.0859,966.45,661.04" style="stroke:#181818;stroke-width:1.0;"/></g><!--MD5=[6dcb1c73e2d8b59fad7a599c58592814]
reverse link RoundTicTacToeController to BoardController--><g id="link_RoundTicTacToeController_BoardController"><path codeLine="121" d="M999.34,673.35 C1008.2,695.06 1017.56,721.87 1022,747 C1033.9,814.4 1039.12,834.73 1022,901 C1016.76,921.27 1008.01,941.73 998.17,960.62 " fill="none" id="RoundTicTacToeController-backto-BoardController" style="stroke:#181818;stroke-width:1.0;"/><polygon fill="#181818" points="994.22,661.21,992.8701,668.2936,998.8897,672.2642,1000.2395,665.1805,994.22,661.21" style="stroke:#181818;stroke-width:1.0;"/></g><!--MD5=[29b97550017e30ae2b3a838e591de057]
link TicTacToeController to Dice--><g id="link_TicTacToeController_Dice"><path codeLine="123" d="M802.25,461.49 C714.81,475.43 615.72,496.73 582,525 C516.5,579.91 544.03,624.99 508,702.5 C494.75,731 478.45,762.57 465.88,786.25 " fill="none" id="TicTacToeController-to-Dice" style="stroke:#181818;stroke-width:1.0;stroke-dasharray:7.0,7.0;"/><polygon fill="#181818" points="463.42,790.87,471.1725,784.7955,465.764,786.4535,464.1061,781.0451,463.42,790.87" style="stroke:#181818;stroke-width:1.0;"/></g><!--MD5=[2bf870032a4abea475a7735ff3d3389c]
reverse link GamePlayersProviderController to TicTacToeController--><g id="link_GamePlayersProviderController_TicTacToeController"><path codeLine="124" d="M954,318.54 C954,334.74 954,354.19 954,372.74 " fill="none" id="GamePlayersProviderController-backto-TicTacToeController" style="stroke:#181818;stroke-width:1.0;"/><polygon fill="#181818" points="954,313.18,950,322.18,954,318.18,958,322.18,954,313.18" style="stroke:#181818;stroke-width:1.0;"/></g><!--MD5=[78bd046b727c22a96fe08298bc5af118]
link GamePlayerController to Dice--><g id="link_GamePlayerController_Dice"><path codeLine="126" d="M644.7,661.04 C601.89,695.93 533.62,751.57 489.31,787.7 " fill="none" id="GamePlayerController-to-Dice" style="stroke:#181818;stroke-width:1.0;stroke-dasharray:7.0,7.0;"/><polygon fill="#181818" points="485.36,790.92,494.8627,788.332,489.2349,787.76,489.8068,782.1322,485.36,790.92" style="stroke:#181818;stroke-width:1.0;"/></g><!--MD5=[75f886b28ecf38c0bd6a0d2fd8bde192]
link ListOfPlayersController to GamePlayersProviderController--><g id="link_ListOfPlayersController_GamePlayersProviderController"><path codeLine="127" d="M954,187.39 C954,200.03 954,213.65 954,226.42 " fill="none" id="ListOfPlayersController-to-GamePlayersProviderController" style="stroke:#181818;stroke-width:1.0;stroke-dasharray:7.0,7.0;"/><polygon fill="none" points="961,226.79,954,246.79,947,226.79,961,226.79" style="stroke:#181818;stroke-width:1.0;"/></g><!--MD5=[2829ef63e1e73344c3afb77f542d70b7]
reverse link TicTacToeController to GamePlayerController--><g id="link_TicTacToeController_GamePlayerController"><path codeLine="129" d="M798.92,516.15 C794.51,519.04 790.19,521.99 786,525 C757.92,545.14 730.47,573.21 711.13,594.8 " fill="none" id="TicTacToeController-backto-GamePlayerController" style="stroke:#181818;stroke-width:1.0;"/><polygon fill="#181818" points="810.06,509.08,802.8508,508.9151,799.9258,515.5063,807.135,515.6712,810.06,509.08" style="stroke:#181818;stroke-width:1.0;"/></g><!--MD5=[4fa112b8bbd9686dc431ef39d6f25b22]
link TicTacToePlayerController to BoardController--><g id="link_TicTacToePlayerController_BoardController"><path codeLine="130" d="M908.67,857.06 C913.24,882.91 919.9,920.56 926.07,955.42 " fill="none" id="TicTacToePlayerController-to-BoardController" style="stroke:#181818;stroke-width:1.0;"/><polygon fill="#181818" points="926.97,960.54,929.3688,950.9877,926.1133,955.6139,921.4871,952.3585,926.97,960.54" style="stroke:#181818;stroke-width:1.0;"/></g><!--MD5=[0394a55d07d3a544b0c3d1e34e555f8e]
link GamePlayerController to TicTacToePlayerController--><g id="link_GamePlayerController_TicTacToePlayerController"><path codeLine="132" d="M720.16,661.04 C755.99,692.77 811.19,741.67 851.57,777.44 " fill="none" id="GamePlayerController-to-TicTacToePlayerController" style="stroke:#181818;stroke-width:1.0;"/><polygon fill="none" points="856.45,772.42,866.78,790.92,847.17,782.9,856.45,772.42" style="stroke:#181818;stroke-width:1.0;"/></g><!--MD5=[9fd5f81302634c50fff6d14cf98bb87a]
reverse link TicTacToeController to TicTacToe--><g id="link_TicTacToeController_TicTacToe"><path codeLine="135" d="M797.31,462.71 C627.18,485.43 378.21,519.41 369,525 C345.35,539.34 327.2,564.56 314.92,586.33 " fill="none" id="TicTacToeController-backto-TicTacToe" style="stroke:#181818;stroke-width:1.0;stroke-dasharray:7.0,7.0;"/><polygon fill="#181818" points="802.33,462.04,792.8824,459.2574,797.3734,462.6971,793.9337,467.188,802.33,462.04" style="stroke:#181818;stroke-width:1.0;"/></g><!--MD5=[9d04c33ff40afaa7c20073565e227ebc]
reverse link ListOfPlayersController to ListOfPlayers--><g id="link_ListOfPlayersController_ListOfPlayers"><path codeLine="136" d="M849.23,157.33 C772.43,174.45 667.17,203.39 582,247 C408.73,335.73 240.19,496.12 160.97,577.2 " fill="none" id="ListOfPlayersController-backto-ListOfPlayers" style="stroke:#181818;stroke-width:1.0;stroke-dasharray:7.0,7.0;"/><polygon fill="#181818" points="854.24,156.22,844.5854,154.2736,849.3597,157.3077,846.3257,162.082,854.24,156.22" style="stroke:#181818;stroke-width:1.0;"/></g><!--MD5=[b61ec796a40322629826005eaa4e10ce]
reverse link BoardController to Board--><g id="link_BoardController_Board"><path codeLine="137" d="M797.1,1031.51 C635.92,1012.59 390.65,972.69 334,901 C291.57,847.3 309.66,810.97 334,747 C337.6,737.55 371.91,699.82 400.34,669.53 " fill="none" id="BoardController-backto-Board" style="stroke:#181818;stroke-width:1.0;stroke-dasharray:7.0,7.0;"/><polygon fill="#181818" points="802.32,1032.11,793.8515,1027.0816,797.3545,1031.5233,792.9128,1035.0263,802.32,1032.11" style="stroke:#181818;stroke-width:1.0;"/></g><!--MD5=[4ad96441c8a01d959d4bf4f2a5e1a798]
link Board to Square--><g id="link_Board_Square"><path codeLine="138" d="M479.45,586.5 C509.5,559.34 553.15,527.09 599.5,517 C637.44,508.74 1260.56,508.74 1298.5,517 C1323.36,522.41 1341.49,542.65 1354.18,564.4 " fill="none" id="Board-to-Square" style="stroke:#181818;stroke-width:1.0;stroke-dasharray:7.0,7.0;"/><polygon fill="#181818" points="1356.65,568.76,1355.6995,558.9571,1354.1878,564.4083,1348.7367,562.8966,1356.65,568.76" style="stroke:#181818;stroke-width:1.0;"/></g><!--MD5=[56857dc57bd8d39e7f912dfe93923604]
link RoundTicTacToeController to Round--><g id="link_RoundTicTacToeController_Round"><path codeLine="139" d="M1024.74,661.04 C1067.49,690.97 1132.05,736.19 1182.1,771.25 " fill="none" id="RoundTicTacToeController-to-Round" style="stroke:#181818;stroke-width:1.0;stroke-dasharray:7.0,7.0;"/><polygon fill="#181818" points="1186.29,774.18,1181.2266,765.7324,1182.1992,771.305,1176.6266,772.2776,1186.29,774.18" style="stroke:#181818;stroke-width:1.0;"/></g><!--MD5=[cd689fa6762434ff100cd22eaa3e57ce]
reverse link Player to ListOfPlayersController--><g id="link_Player_ListOfPlayersController"><path codeLine="140" d="M1322.01,1020.12 C1372.6,997.03 1439.56,957.82 1475,901 C1539.51,797.59 1510,750.89 1510,629 C1510,440 1510,440 1510,440 C1510,234.64 1213.72,167.91 1053.72,146.84 " fill="none" id="Player-backto-ListOfPlayersController" style="stroke:#181818;stroke-width:1.0;stroke-dasharray:7.0,7.0;"/><polygon fill="#181818" points="1317.17,1022.31,1327.0187,1022.2529,1321.7272,1020.2528,1323.7272,1014.9613,1317.17,1022.31" style="stroke:#181818;stroke-width:1.0;"/></g><!--MD5=[738e1d72a6cfc4949ecc171a2ffef90f]
@startuml TicTacToe

package model {
    class Player{
        idPlayer : int
        name : String
        idTypePlayer : int
    }
    class Round {
        idRound : int
        idPlayer 1: Player
        idPlayer 2: Player
        idWinner : Player
        isFinished : boolean
        idGame : int
    }
    class TypePlayer {
        idTypePlayer : int
        name: String
    }
    class Piece{
        idPiece : int
        name : String
    }

    class Square {
        idRound : int
        column : int
        row : int
        idPiece : int
    }

    class TypeGame {
        idGame : int
        game : String
    }

    Square o- - Piece

    Round *- - "Player 1" Player
    Round *- - "Player 2" Player
    Round *- - "Winner" Player

    Square *- - Round


    Player *- - TypePlayer
    TypeGame - -* Round
}

package util {
    class Dice{
        +generateValue (int bound)
    }
}

package controller{
    package player {

        class ListOfPlayersController {
            +createPlayer(Player player)
            +getPlayer(int id)
            +List<Player> playersList
        }

    }
    interface GamePlayerController {
        + processResult(int)
    }
    interface GamePlayersProviderController {
        + getGamePlayers(int) : GamePlayer[]
    }

    package ttt {
        class TicTacToeController {
            # GamePlayer[] gamePlayers
            # GamePlayersProvider gamePlayersProvider
            + Execute()
            # AssignRoles (GamePlayer[] gamePlayers)
            # flipRoles (GamePlayer[] gamePlayers)
        }
        interface TicTacToePlayerController {
            +putMark()
        }
        class RoundTicTacToeController {
            +play()
        }
        class BoardController {
            +EmptySquare = 9
            +createBoard()
            +isFull()
            +putPiece (Position position, Piece piece)
            -checkRows()
            -checkColumns()
            -checkDiagonals()
        }
    }
}

package view {
    class TicTacToe {
        + Introduction()
        + Resume()
    }

    class ListOfPlayers {
        +getList()
        +printList()
        +getGamePlayers(int size)
    }

    class Board {
        +paintBoard()
        +getWinner()
    }
}

/'Relaciones de contorlador'/
TicTacToeController *- - RoundTicTacToeController

RoundTicTacToeController *- - TicTacToePlayerController
RoundTicTacToeController *- - BoardController

TicTacToeController ..> Dice
TicTacToeController -up-> GamePlayersProviderController

Dice <.up. GamePlayerController
ListOfPlayersController ..|> GamePlayersProviderController

TicTacToeController *- - GamePlayerController
TicTacToePlayerController- ->BoardController

GamePlayerController - -|>  TicTacToePlayerController

/'Relaciones MVC'/
TicTacToeController <.. TicTacToe
ListOfPlayersController <.. ListOfPlayers
BoardController <.. Board
Board .right.> Square
RoundTicTacToeController ..> Round
ListOfPlayersController .up.> Player
@enduml

@startuml TicTacToe

package model {
    class Player{
        idPlayer : int
        name : String
        idTypePlayer : int
    }
    class Round {
        idRound : int
        idPlayer 1: Player
        idPlayer 2: Player
        idWinner : Player
        isFinished : boolean
        idGame : int
    }
    class TypePlayer {
        idTypePlayer : int
        name: String
    }
    class Piece{
        idPiece : int
        name : String
    }

    class Square {
        idRound : int
        column : int
        row : int
        idPiece : int
    }

    class TypeGame {
        idGame : int
        game : String
    }

    Square o- - Piece

    Round *- - "Player 1" Player
    Round *- - "Player 2" Player
    Round *- - "Winner" Player

    Square *- - Round


    Player *- - TypePlayer
    TypeGame - -* Round
}

package util {
    class Dice{
        +generateValue (int bound)
    }
}

package controller{
    package player {

        class ListOfPlayersController {
            +createPlayer(Player player)
            +getPlayer(int id)
            +List<Player> playersList
        }

    }
    interface GamePlayerController {
        + processResult(int)
    }
    interface GamePlayersProviderController {
        + getGamePlayers(int) : GamePlayer[]
    }

    package ttt {
        class TicTacToeController {
            # GamePlayer[] gamePlayers
            # GamePlayersProvider gamePlayersProvider
            + Execute()
            # AssignRoles (GamePlayer[] gamePlayers)
            # flipRoles (GamePlayer[] gamePlayers)
        }
        interface TicTacToePlayerController {
            +putMark()
        }
        class RoundTicTacToeController {
            +play()
        }
        class BoardController {
            +EmptySquare = 9
            +createBoard()
            +isFull()
            +putPiece (Position position, Piece piece)
            -checkRows()
            -checkColumns()
            -checkDiagonals()
        }
    }
}

package view {
    class TicTacToe {
        + Introduction()
        + Resume()
    }

    class ListOfPlayers {
        +getList()
        +printList()
        +getGamePlayers(int size)
    }

    class Board {
        +paintBoard()
        +getWinner()
    }
}

TicTacToeController *- - RoundTicTacToeController

RoundTicTacToeController *- - TicTacToePlayerController
RoundTicTacToeController *- - BoardController

TicTacToeController ..> Dice
TicTacToeController -up-> GamePlayersProviderController

Dice <.up. GamePlayerController
ListOfPlayersController ..|> GamePlayersProviderController

TicTacToeController *- - GamePlayerController
TicTacToePlayerController- ->BoardController

GamePlayerController - -|>  TicTacToePlayerController

TicTacToeController <.. TicTacToe
ListOfPlayersController <.. ListOfPlayers
BoardController <.. Board
Board .right.> Square
RoundTicTacToeController ..> Round
ListOfPlayersController .up.> Player
@enduml

PlantUML version 1.2022.5(Sat Apr 30 04:55:52 CST 2022)
(GPL source distribution)
Java Runtime: Java(TM) SE Runtime Environment
JVM: Java HotSpot(TM) 64-Bit Server VM
Default Encoding: Cp1252
Language: en
Country: US
--></g></svg>