<?xml version="1.0" encoding="UTF-8" standalone="no"?><svg xmlns="http://www.w3.org/2000/svg" xmlns:xlink="http://www.w3.org/1999/xlink" contentStyleType="text/css" height="258px" preserveAspectRatio="none" style="width:343px;height:258px;background:#FFFFFF;" version="1.1" viewBox="0 0 343 258" width="343px" zoomAndPan="magnify"><defs/><g><!--MD5=[36f719b1cbc3f26b5758ea249b208fb4]
class TicTacToe--><g id="elem_TicTacToe"><rect codeLine="2" fill="#F1F1F1" height="83.2188" id="TicTacToe" rx="2.5" ry="2.5" style="stroke:#181818;stroke-width:0.5;" width="110" x="7" y="16"/><ellipse cx="26.5" cy="32" fill="#ADD1B2" rx="11" ry="11" style="stroke:#181818;stroke-width:1.0;"/><path d="M29.2656,27.875 Q29.4219,27.6563 29.6094,27.5469 Q29.7969,27.4375 30.0156,27.4375 Q30.3906,27.4375 30.625,27.7031 Q30.8594,27.9531 30.8594,28.5625 L30.8594,30.0156 Q30.8594,30.625 30.625,30.8906 Q30.3906,31.1563 30.0156,31.1563 Q29.6719,31.1563 29.4688,30.9531 Q29.2656,30.7656 29.1563,30.25 Q29.1094,29.8906 28.9219,29.7031 Q28.5938,29.3281 27.9844,29.1094 Q27.375,28.8906 26.75,28.8906 Q25.9844,28.8906 25.3438,29.2188 Q24.7188,29.5469 24.2188,30.2969 Q23.7344,31.0469 23.7344,32.0781 L23.7344,33.1719 Q23.7344,34.4063 24.625,35.2344 Q25.5156,36.0469 27.1094,36.0469 Q28.0469,36.0469 28.7031,35.7969 Q29.0938,35.6406 29.5156,35.2031 Q29.7813,34.9375 29.9219,34.8594 Q30.0781,34.7813 30.2813,34.7813 Q30.6094,34.7813 30.8594,35.0469 Q31.125,35.2969 31.125,35.6406 Q31.125,35.9844 30.7813,36.3906 Q30.2813,36.9688 29.4844,37.2969 Q28.4063,37.75 27.1094,37.75 Q25.5938,37.75 24.3906,37.125 Q23.4063,36.625 22.7188,35.5625 Q22.0313,34.4844 22.0313,33.2031 L22.0313,32.0469 Q22.0313,30.7188 22.6406,29.5781 Q23.2656,28.4219 24.3594,27.8125 Q25.4531,27.1875 26.6875,27.1875 Q27.4219,27.1875 28.0625,27.3594 Q28.7188,27.5156 29.2656,27.875 Z " fill="#000000"/><text fill="#000000" font-family="sans-serif" font-size="14" lengthAdjust="spacing" textLength="68" x="41.5" y="37.7285">TicTacToe</text><line style="stroke:#181818;stroke-width:0.5;" x1="8" x2="116" y1="48" y2="48"/><line style="stroke:#181818;stroke-width:0.5;" x1="8" x2="116" y1="56" y2="56"/><ellipse cx="18" cy="67" fill="#84BE84" rx="3" ry="3" style="stroke:#038048;stroke-width:1.0;"/><text fill="#000000" font-family="sans-serif" font-size="14" lengthAdjust="spacing" textLength="84" x="27" y="74.5332">Introduction()</text><ellipse cx="18" cy="84.6094" fill="#84BE84" rx="3" ry="3" style="stroke:#038048;stroke-width:1.0;"/><text fill="#000000" font-family="sans-serif" font-size="14" lengthAdjust="spacing" textLength="62" x="27" y="92.1426">Resume()</text></g><!--MD5=[82a37a108f28ded8fb022e1a5df25ae5]
class ListOfPlayers--><g id="elem_ListOfPlayers"><rect codeLine="7" fill="#F1F1F1" height="100.8281" id="ListOfPlayers" rx="2.5" ry="2.5" style="stroke:#181818;stroke-width:0.5;" width="184" x="152" y="7"/><ellipse cx="197.75" cy="23" fill="#ADD1B2" rx="11" ry="11" style="stroke:#181818;stroke-width:1.0;"/><path d="M200.5156,18.875 Q200.6719,18.6563 200.8594,18.5469 Q201.0469,18.4375 201.2656,18.4375 Q201.6406,18.4375 201.875,18.7031 Q202.1094,18.9531 202.1094,19.5625 L202.1094,21.0156 Q202.1094,21.625 201.875,21.8906 Q201.6406,22.1563 201.2656,22.1563 Q200.9219,22.1563 200.7188,21.9531 Q200.5156,21.7656 200.4063,21.25 Q200.3594,20.8906 200.1719,20.7031 Q199.8438,20.3281 199.2344,20.1094 Q198.625,19.8906 198,19.8906 Q197.2344,19.8906 196.5938,20.2188 Q195.9688,20.5469 195.4688,21.2969 Q194.9844,22.0469 194.9844,23.0781 L194.9844,24.1719 Q194.9844,25.4063 195.875,26.2344 Q196.7656,27.0469 198.3594,27.0469 Q199.2969,27.0469 199.9531,26.7969 Q200.3438,26.6406 200.7656,26.2031 Q201.0313,25.9375 201.1719,25.8594 Q201.3281,25.7813 201.5313,25.7813 Q201.8594,25.7813 202.1094,26.0469 Q202.375,26.2969 202.375,26.6406 Q202.375,26.9844 202.0313,27.3906 Q201.5313,27.9688 200.7344,28.2969 Q199.6563,28.75 198.3594,28.75 Q196.8438,28.75 195.6406,28.125 Q194.6563,27.625 193.9688,26.5625 Q193.2813,25.4844 193.2813,24.2031 L193.2813,23.0469 Q193.2813,21.7188 193.8906,20.5781 Q194.5156,19.4219 195.6094,18.8125 Q196.7031,18.1875 197.9375,18.1875 Q198.6719,18.1875 199.3125,18.3594 Q199.9688,18.5156 200.5156,18.875 Z " fill="#000000"/><text fill="#000000" font-family="sans-serif" font-size="14" lengthAdjust="spacing" textLength="84" x="218.25" y="28.7285">ListOfPlayers</text><line style="stroke:#181818;stroke-width:0.5;" x1="153" x2="335" y1="39" y2="39"/><line style="stroke:#181818;stroke-width:0.5;" x1="153" x2="335" y1="47" y2="47"/><ellipse cx="163" cy="58" fill="#84BE84" rx="3" ry="3" style="stroke:#038048;stroke-width:1.0;"/><text fill="#000000" font-family="sans-serif" font-size="14" lengthAdjust="spacing" textLength="52" x="172" y="65.5332">getList()</text><ellipse cx="163" cy="75.6094" fill="#84BE84" rx="3" ry="3" style="stroke:#038048;stroke-width:1.0;"/><text fill="#000000" font-family="sans-serif" font-size="14" lengthAdjust="spacing" textLength="60" x="172" y="83.1426">printList()</text><ellipse cx="163" cy="93.2188" fill="#84BE84" rx="3" ry="3" style="stroke:#038048;stroke-width:1.0;"/><text fill="#000000" font-family="sans-serif" font-size="14" lengthAdjust="spacing" textLength="158" x="172" y="100.752">getGamePlayers(int size)</text></g><!--MD5=[9563755d011c5cec7ec66dc53565a59e]
class Board--><g id="elem_Board"><rect codeLine="13" fill="#F1F1F1" height="83.2188" id="Board" rx="2.5" ry="2.5" style="stroke:#181818;stroke-width:0.5;" width="105" x="9.5" y="168"/><ellipse cx="40.25" cy="184" fill="#ADD1B2" rx="11" ry="11" style="stroke:#181818;stroke-width:1.0;"/><path d="M43.0156,179.875 Q43.1719,179.6563 43.3594,179.5469 Q43.5469,179.4375 43.7656,179.4375 Q44.1406,179.4375 44.375,179.7031 Q44.6094,179.9531 44.6094,180.5625 L44.6094,182.0156 Q44.6094,182.625 44.375,182.8906 Q44.1406,183.1563 43.7656,183.1563 Q43.4219,183.1563 43.2188,182.9531 Q43.0156,182.7656 42.9063,182.25 Q42.8594,181.8906 42.6719,181.7031 Q42.3438,181.3281 41.7344,181.1094 Q41.125,180.8906 40.5,180.8906 Q39.7344,180.8906 39.0938,181.2188 Q38.4688,181.5469 37.9688,182.2969 Q37.4844,183.0469 37.4844,184.0781 L37.4844,185.1719 Q37.4844,186.4063 38.375,187.2344 Q39.2656,188.0469 40.8594,188.0469 Q41.7969,188.0469 42.4531,187.7969 Q42.8438,187.6406 43.2656,187.2031 Q43.5313,186.9375 43.6719,186.8594 Q43.8281,186.7813 44.0313,186.7813 Q44.3594,186.7813 44.6094,187.0469 Q44.875,187.2969 44.875,187.6406 Q44.875,187.9844 44.5313,188.3906 Q44.0313,188.9688 43.2344,189.2969 Q42.1563,189.75 40.8594,189.75 Q39.3438,189.75 38.1406,189.125 Q37.1563,188.625 36.4688,187.5625 Q35.7813,186.4844 35.7813,185.2031 L35.7813,184.0469 Q35.7813,182.7188 36.3906,181.5781 Q37.0156,180.4219 38.1094,179.8125 Q39.2031,179.1875 40.4375,179.1875 Q41.1719,179.1875 41.8125,179.3594 Q42.4688,179.5156 43.0156,179.875 Z " fill="#000000"/><text fill="#000000" font-family="sans-serif" font-size="14" lengthAdjust="spacing" textLength="38" x="57.75" y="189.7285">Board</text><line style="stroke:#181818;stroke-width:0.5;" x1="10.5" x2="113.5" y1="200" y2="200"/><line style="stroke:#181818;stroke-width:0.5;" x1="10.5" x2="113.5" y1="208" y2="208"/><ellipse cx="20.5" cy="219" fill="#84BE84" rx="3" ry="3" style="stroke:#038048;stroke-width:1.0;"/><text fill="#000000" font-family="sans-serif" font-size="14" lengthAdjust="spacing" textLength="79" x="29.5" y="226.5332">paintBoard()</text><ellipse cx="20.5" cy="236.6094" fill="#84BE84" rx="3" ry="3" style="stroke:#038048;stroke-width:1.0;"/><text fill="#000000" font-family="sans-serif" font-size="14" lengthAdjust="spacing" textLength="75" x="29.5" y="244.1426">getWinner()</text></g><!--MD5=[71c0cc0fbe7d05c717144d46dcfd2eb0]
@startuml ClassDiagramTictactoe-Views

class TicTacToe {
    + Introduction()
    + Resume()
}

class ListOfPlayers {
    +getList()
    +printList()
    +getGamePlayers(int size)
}

class Board {
    +paintBoard()
    +getWinner()
}

@enduml

PlantUML version 1.2022.5(Sat Apr 30 04:55:52 CST 2022)
(GPL source distribution)
Java Runtime: Java(TM) SE Runtime Environment
JVM: Java HotSpot(TM) 64-Bit Server VM
Default Encoding: Cp1252
Language: en
Country: US
--></g></svg>