<?xml version="1.0" encoding="UTF-8" standalone="no"?><svg xmlns="http://www.w3.org/2000/svg" xmlns:xlink="http://www.w3.org/1999/xlink" contentStyleType="text/css" height="931px" preserveAspectRatio="none" style="width:993px;height:931px;background:#FFFFFF;" version="1.1" viewBox="0 0 993 931" width="993px" zoomAndPan="magnify"><defs/><g><!--MD5=[5580c82edcbc933de5e73591f0fcf26e]
cluster hangman--><g id="cluster_hangman"><path d="M427.97,6 L492.97,6 A3.75,3.75 0 0 1 495.47,8.5 L502.47,29.6094 L801.97,29.6094 A2.5,2.5 0 0 1 804.47,32.1094 L804.47,779.5 A2.5,2.5 0 0 1 801.97,782 L427.97,782 A2.5,2.5 0 0 1 425.47,779.5 L425.47,8.5 A2.5,2.5 0 0 1 427.97,6 " style="stroke:#000000;stroke-width:1.5;fill:none;"/><line style="stroke:#000000;stroke-width:1.5;fill:none;" x1="425.47" x2="502.47" y1="29.6094" y2="29.6094"/><text fill="#000000" font-family="sans-serif" font-size="14" font-weight="bold" lengthAdjust="spacing" textLength="64" x="429.47" y="22.5332">hangman</text></g><!--MD5=[42603eecb267091c13893a16d8c379fb]
cluster player--><g id="cluster_player"><path d="M168.97,380.5 L212.97,380.5 A3.75,3.75 0 0 1 215.47,383 L222.47,404.1094 L395.97,404.1094 A2.5,2.5 0 0 1 398.47,406.6094 L398.47,566 A2.5,2.5 0 0 1 395.97,568.5 L168.97,568.5 A2.5,2.5 0 0 1 166.47,566 L166.47,383 A2.5,2.5 0 0 1 168.97,380.5 " style="stroke:#000000;stroke-width:1.5;fill:none;"/><line style="stroke:#000000;stroke-width:1.5;fill:none;" x1="166.47" x2="222.47" y1="404.1094" y2="404.1094"/><text fill="#000000" font-family="sans-serif" font-size="14" font-weight="bold" lengthAdjust="spacing" textLength="43" x="170.47" y="397.0332">player</text></g><!--MD5=[c52f45833d539af9e29a9d34b8b7302b]
cluster utils--><g id="cluster_utils"><path d="M186.97,806 L217.97,806 A3.75,3.75 0 0 1 220.47,808.5 L227.47,829.6094 L401.97,829.6094 A2.5,2.5 0 0 1 404.47,832.1094 L404.47,921.5 A2.5,2.5 0 0 1 401.97,924 L186.97,924 A2.5,2.5 0 0 1 184.47,921.5 L184.47,808.5 A2.5,2.5 0 0 1 186.97,806 " style="stroke:#000000;stroke-width:1.5;fill:none;"/><line style="stroke:#000000;stroke-width:1.5;fill:none;" x1="184.47" x2="227.47" y1="829.6094" y2="829.6094"/><text fill="#000000" font-family="sans-serif" font-size="14" font-weight="bold" lengthAdjust="spacing" textLength="30" x="188.47" y="822.5332">utils</text></g><!--MD5=[d7731e51439e3250c63a8cdcafb59da5]
class HangMan--><g id="elem_HangMan"><rect codeLine="3" fill="#F1F1F1" height="171.2656" id="HangMan" rx="2.5" ry="2.5" style="stroke:#181818;stroke-width:0.5;" width="303" x="441.97" y="42"/><ellipse cx="559.22" cy="58" fill="#ADD1B2" rx="11" ry="11" style="stroke:#181818;stroke-width:1.0;"/><path d="M561.9856,53.875 Q562.1419,53.6563 562.3294,53.5469 Q562.5169,53.4375 562.7356,53.4375 Q563.1106,53.4375 563.345,53.7031 Q563.5794,53.9531 563.5794,54.5625 L563.5794,56.0156 Q563.5794,56.625 563.345,56.8906 Q563.1106,57.1563 562.7356,57.1563 Q562.3919,57.1563 562.1888,56.9531 Q561.9856,56.7656 561.8763,56.25 Q561.8294,55.8906 561.6419,55.7031 Q561.3138,55.3281 560.7044,55.1094 Q560.095,54.8906 559.47,54.8906 Q558.7044,54.8906 558.0638,55.2188 Q557.4388,55.5469 556.9388,56.2969 Q556.4544,57.0469 556.4544,58.0781 L556.4544,59.1719 Q556.4544,60.4063 557.345,61.2344 Q558.2356,62.0469 559.8294,62.0469 Q560.7669,62.0469 561.4231,61.7969 Q561.8138,61.6406 562.2356,61.2031 Q562.5013,60.9375 562.6419,60.8594 Q562.7981,60.7813 563.0013,60.7813 Q563.3294,60.7813 563.5794,61.0469 Q563.845,61.2969 563.845,61.6406 Q563.845,61.9844 563.5013,62.3906 Q563.0013,62.9688 562.2044,63.2969 Q561.1263,63.75 559.8294,63.75 Q558.3138,63.75 557.1106,63.125 Q556.1263,62.625 555.4388,61.5625 Q554.7513,60.4844 554.7513,59.2031 L554.7513,58.0469 Q554.7513,56.7188 555.3606,55.5781 Q555.9856,54.4219 557.0794,53.8125 Q558.1731,53.1875 559.4075,53.1875 Q560.1419,53.1875 560.7825,53.3594 Q561.4388,53.5156 561.9856,53.875 Z " fill="#000000"/><text fill="#000000" font-family="sans-serif" font-size="14" lengthAdjust="spacing" textLength="60" x="579.72" y="63.7285">HangMan</text><line style="stroke:#181818;stroke-width:0.5;" x1="442.97" x2="743.97" y1="74" y2="74"/><polygon fill="none" points="452.97,80,456.97,84,452.97,88,448.97,84" style="stroke:#B38D22;stroke-width:1.0;"/><text fill="#000000" font-family="sans-serif" font-size="14" lengthAdjust="spacing" textLength="172" x="461.97" y="92.5332">GamePlayer[] gamePlayers</text><polygon fill="none" points="452.97,97.6094,456.97,101.6094,452.97,105.6094,448.97,101.6094" style="stroke:#B38D22;stroke-width:1.0;"/><text fill="#000000" font-family="sans-serif" font-size="14" lengthAdjust="spacing" textLength="277" x="461.97" y="110.1426">GamePlayersProvider gamePlayersProvider</text><line style="stroke:#181818;stroke-width:0.5;" x1="442.97" x2="743.97" y1="117.2188" y2="117.2188"/><ellipse cx="452.97" cy="128.2188" fill="#84BE84" rx="3" ry="3" style="stroke:#038048;stroke-width:1.0;"/><text fill="#000000" font-family="sans-serif" font-size="14" lengthAdjust="spacing" textLength="84" x="461.97" y="135.752">Introduction()</text><ellipse cx="452.97" cy="145.8281" fill="#84BE84" rx="3" ry="3" style="stroke:#038048;stroke-width:1.0;"/><text fill="#000000" font-family="sans-serif" font-size="14" lengthAdjust="spacing" textLength="62" x="461.97" y="153.3613">Resume()</text><ellipse cx="452.97" cy="163.4375" fill="#84BE84" rx="3" ry="3" style="stroke:#038048;stroke-width:1.0;"/><text fill="#000000" font-family="sans-serif" font-size="14" lengthAdjust="spacing" textLength="60" x="461.97" y="170.9707">Execute()</text><polygon fill="#FFFF44" points="452.97,176.0469,456.97,180.0469,452.97,184.0469,448.97,180.0469" style="stroke:#B38D22;stroke-width:1.0;"/><text fill="#000000" font-family="sans-serif" font-size="14" lengthAdjust="spacing" textLength="264" x="461.97" y="188.5801">AssignRoles (GamePlayer[] gamePlayers)</text><polygon fill="#FFFF44" points="452.97,193.6563,456.97,197.6563,452.97,201.6563,448.97,197.6563" style="stroke:#B38D22;stroke-width:1.0;"/><text fill="#000000" font-family="sans-serif" font-size="14" lengthAdjust="spacing" textLength="240" x="461.97" y="206.1895">flipRoles (GamePlayer[] gamePlayers)</text></g><!--MD5=[1e8c54f5ac0ec684c0f71587f512d7a6]
class SecretWord--><g id="elem_SecretWord"><rect codeLine="12" fill="#F1F1F1" height="136.0469" id="SecretWord" rx="2.5" ry="2.5" style="stroke:#181818;stroke-width:0.5;" width="220" x="441.47" y="630"/><ellipse cx="509.72" cy="646" fill="#ADD1B2" rx="11" ry="11" style="stroke:#181818;stroke-width:1.0;"/><path d="M512.4856,641.875 Q512.6419,641.6563 512.8294,641.5469 Q513.0169,641.4375 513.2356,641.4375 Q513.6106,641.4375 513.845,641.7031 Q514.0794,641.9531 514.0794,642.5625 L514.0794,644.0156 Q514.0794,644.625 513.845,644.8906 Q513.6106,645.1563 513.2356,645.1563 Q512.8919,645.1563 512.6888,644.9531 Q512.4856,644.7656 512.3763,644.25 Q512.3294,643.8906 512.1419,643.7031 Q511.8138,643.3281 511.2044,643.1094 Q510.595,642.8906 509.97,642.8906 Q509.2044,642.8906 508.5638,643.2188 Q507.9388,643.5469 507.4388,644.2969 Q506.9544,645.0469 506.9544,646.0781 L506.9544,647.1719 Q506.9544,648.4063 507.845,649.2344 Q508.7356,650.0469 510.3294,650.0469 Q511.2669,650.0469 511.9231,649.7969 Q512.3138,649.6406 512.7356,649.2031 Q513.0013,648.9375 513.1419,648.8594 Q513.2981,648.7813 513.5013,648.7813 Q513.8294,648.7813 514.0794,649.0469 Q514.345,649.2969 514.345,649.6406 Q514.345,649.9844 514.0013,650.3906 Q513.5013,650.9688 512.7044,651.2969 Q511.6263,651.75 510.3294,651.75 Q508.8138,651.75 507.6106,651.125 Q506.6263,650.625 505.9388,649.5625 Q505.2513,648.4844 505.2513,647.2031 L505.2513,646.0469 Q505.2513,644.7188 505.8606,643.5781 Q506.4856,642.4219 507.5794,641.8125 Q508.6731,641.1875 509.9075,641.1875 Q510.6419,641.1875 511.2825,641.3594 Q511.9388,641.5156 512.4856,641.875 Z " fill="#000000"/><text fill="#000000" font-family="sans-serif" font-size="14" lengthAdjust="spacing" textLength="75" x="530.22" y="651.7285">SecretWord</text><line style="stroke:#181818;stroke-width:0.5;" x1="442.47" x2="660.47" y1="662" y2="662"/><ellipse cx="452.47" cy="673" fill="none" rx="3" ry="3" style="stroke:#038048;stroke-width:1.0;"/><text fill="#000000" font-family="sans-serif" font-size="14" lengthAdjust="spacing" textLength="142" x="461.47" y="680.5332">Char GuesserWords []</text><ellipse cx="452.47" cy="690.6094" fill="none" rx="3" ry="3" style="stroke:#038048;stroke-width:1.0;"/><text fill="#000000" font-family="sans-serif" font-size="14" lengthAdjust="spacing" textLength="122" x="461.47" y="698.1426">Char SecretWord []</text><line style="stroke:#181818;stroke-width:0.5;" x1="442.47" x2="660.47" y1="705.2188" y2="705.2188"/><ellipse cx="452.47" cy="716.2188" fill="#84BE84" rx="3" ry="3" style="stroke:#038048;stroke-width:1.0;"/><text fill="#000000" font-family="sans-serif" font-size="14" lengthAdjust="spacing" textLength="194" x="461.47" y="723.752">boolean AddLetter(Char letter)</text><ellipse cx="452.47" cy="733.8281" fill="#84BE84" rx="3" ry="3" style="stroke:#038048;stroke-width:1.0;"/><text fill="#000000" font-family="sans-serif" font-size="14" lengthAdjust="spacing" textLength="136" x="461.47" y="741.3613">boolean isGuessed ()</text><ellipse cx="452.47" cy="751.4375" fill="#84BE84" rx="3" ry="3" style="stroke:#038048;stroke-width:1.0;"/><text fill="#000000" font-family="sans-serif" font-size="14" lengthAdjust="spacing" textLength="72" x="461.47" y="758.9707">printWord()</text></g><!--MD5=[2912dfae6c367dee499f222350629706]
class TurnHangMan--><g id="elem_TurnHangMan"><rect codeLine="19" fill="#F1F1F1" height="65.6094" id="TurnHangMan" rx="2.5" ry="2.5" style="stroke:#181818;stroke-width:0.5;" width="122" x="532.47" y="273"/><ellipse cx="547.47" cy="289" fill="#ADD1B2" rx="11" ry="11" style="stroke:#181818;stroke-width:1.0;"/><path d="M550.2356,284.875 Q550.3919,284.6563 550.5794,284.5469 Q550.7669,284.4375 550.9856,284.4375 Q551.3606,284.4375 551.595,284.7031 Q551.8294,284.9531 551.8294,285.5625 L551.8294,287.0156 Q551.8294,287.625 551.595,287.8906 Q551.3606,288.1563 550.9856,288.1563 Q550.6419,288.1563 550.4388,287.9531 Q550.2356,287.7656 550.1263,287.25 Q550.0794,286.8906 549.8919,286.7031 Q549.5638,286.3281 548.9544,286.1094 Q548.345,285.8906 547.72,285.8906 Q546.9544,285.8906 546.3138,286.2188 Q545.6888,286.5469 545.1888,287.2969 Q544.7044,288.0469 544.7044,289.0781 L544.7044,290.1719 Q544.7044,291.4063 545.595,292.2344 Q546.4856,293.0469 548.0794,293.0469 Q549.0169,293.0469 549.6731,292.7969 Q550.0638,292.6406 550.4856,292.2031 Q550.7513,291.9375 550.8919,291.8594 Q551.0481,291.7813 551.2513,291.7813 Q551.5794,291.7813 551.8294,292.0469 Q552.095,292.2969 552.095,292.6406 Q552.095,292.9844 551.7513,293.3906 Q551.2513,293.9688 550.4544,294.2969 Q549.3763,294.75 548.0794,294.75 Q546.5638,294.75 545.3606,294.125 Q544.3763,293.625 543.6888,292.5625 Q543.0013,291.4844 543.0013,290.2031 L543.0013,289.0469 Q543.0013,287.7188 543.6106,286.5781 Q544.2356,285.4219 545.3294,284.8125 Q546.4231,284.1875 547.6575,284.1875 Q548.3919,284.1875 549.0325,284.3594 Q549.6888,284.5156 550.2356,284.875 Z " fill="#000000"/><text fill="#000000" font-family="sans-serif" font-size="14" lengthAdjust="spacing" textLength="90" x="561.47" y="294.7285">TurnHangMan</text><line style="stroke:#181818;stroke-width:0.5;" x1="533.47" x2="653.47" y1="305" y2="305"/><line style="stroke:#181818;stroke-width:0.5;" x1="533.47" x2="653.47" y1="313" y2="313"/><ellipse cx="543.47" cy="324" fill="#84BE84" rx="3" ry="3" style="stroke:#038048;stroke-width:1.0;"/><text fill="#000000" font-family="sans-serif" font-size="14" lengthAdjust="spacing" textLength="36" x="552.47" y="331.5332">play()</text></g><!--MD5=[2aa92d2e607ce5e0eb2e8fd93adcb836]
class HangedMan--><g id="elem_HangedMan"><rect codeLine="22" fill="#F1F1F1" height="171.2656" id="HangedMan" rx="2.5" ry="2.5" style="stroke:#181818;stroke-width:0.5;" width="178" x="441.47" y="399"/><ellipse cx="488.22" cy="415" fill="#ADD1B2" rx="11" ry="11" style="stroke:#181818;stroke-width:1.0;"/><path d="M490.9856,410.875 Q491.1419,410.6563 491.3294,410.5469 Q491.5169,410.4375 491.7356,410.4375 Q492.1106,410.4375 492.345,410.7031 Q492.5794,410.9531 492.5794,411.5625 L492.5794,413.0156 Q492.5794,413.625 492.345,413.8906 Q492.1106,414.1563 491.7356,414.1563 Q491.3919,414.1563 491.1888,413.9531 Q490.9856,413.7656 490.8763,413.25 Q490.8294,412.8906 490.6419,412.7031 Q490.3138,412.3281 489.7044,412.1094 Q489.095,411.8906 488.47,411.8906 Q487.7044,411.8906 487.0638,412.2188 Q486.4388,412.5469 485.9388,413.2969 Q485.4544,414.0469 485.4544,415.0781 L485.4544,416.1719 Q485.4544,417.4063 486.345,418.2344 Q487.2356,419.0469 488.8294,419.0469 Q489.7669,419.0469 490.4231,418.7969 Q490.8138,418.6406 491.2356,418.2031 Q491.5013,417.9375 491.6419,417.8594 Q491.7981,417.7813 492.0013,417.7813 Q492.3294,417.7813 492.5794,418.0469 Q492.845,418.2969 492.845,418.6406 Q492.845,418.9844 492.5013,419.3906 Q492.0013,419.9688 491.2044,420.2969 Q490.1263,420.75 488.8294,420.75 Q487.3138,420.75 486.1106,420.125 Q485.1263,419.625 484.4388,418.5625 Q483.7513,417.4844 483.7513,416.2031 L483.7513,415.0469 Q483.7513,413.7188 484.3606,412.5781 Q484.9856,411.4219 486.0794,410.8125 Q487.1731,410.1875 488.4075,410.1875 Q489.1419,410.1875 489.7825,410.3594 Q490.4388,410.5156 490.9856,410.875 Z " fill="#000000"/><text fill="#000000" font-family="sans-serif" font-size="14" lengthAdjust="spacing" textLength="76" x="508.72" y="420.7285">HangedMan</text><line style="stroke:#181818;stroke-width:0.5;" x1="442.47" x2="618.47" y1="431" y2="431"/><rect fill="none" height="6" style="stroke:#C82930;stroke-width:1.0;" width="6" x="449.47" y="439"/><text fill="#000000" font-family="sans-serif" font-size="14" lengthAdjust="spacing" textLength="94" x="461.47" y="449.5332">FailedAttempts</text><rect fill="none" height="6" style="stroke:#C82930;stroke-width:1.0;" width="6" x="449.47" y="456.6094"/><text fill="#000000" font-family="sans-serif" font-size="14" lengthAdjust="spacing" textLength="152" x="461.47" y="467.1426">SecretWord secretWord</text><line style="stroke:#181818;stroke-width:0.5;" x1="442.47" x2="618.47" y1="474.2188" y2="474.2188"/><ellipse cx="452.47" cy="485.2188" fill="#84BE84" rx="3" ry="3" style="stroke:#038048;stroke-width:1.0;"/><text fill="#000000" font-family="sans-serif" font-size="14" lengthAdjust="spacing" textLength="118" x="461.47" y="492.752">PaintHangedMan()</text><ellipse cx="452.47" cy="502.8281" fill="#84BE84" rx="3" ry="3" style="stroke:#038048;stroke-width:1.0;"/><text fill="#000000" font-family="sans-serif" font-size="14" lengthAdjust="spacing" textLength="54" x="461.47" y="510.3613">isDead()</text><ellipse cx="452.47" cy="520.4375" fill="#84BE84" rx="3" ry="3" style="stroke:#038048;stroke-width:1.0;"/><text fill="#000000" font-family="sans-serif" font-size="14" lengthAdjust="spacing" textLength="60" x="461.47" y="527.9707">isSaved()</text><rect fill="#F24D5C" height="6" style="stroke:#C82930;stroke-width:1.0;" width="6" x="449.47" y="535.0469"/><text fill="#000000" font-family="sans-serif" font-size="14" lengthAdjust="spacing" textLength="60" x="461.47" y="545.5801">addPart()</text><ellipse cx="452.47" cy="555.6563" fill="#84BE84" rx="3" ry="3" style="stroke:#038048;stroke-width:1.0;"/><text fill="#000000" font-family="sans-serif" font-size="14" lengthAdjust="spacing" textLength="63" x="461.47" y="563.1895">tryLetter()</text></g><!--MD5=[4fcb596d3bf48611d01498558103c6f0]
class HangManPlayer--><g id="elem_HangManPlayer"><rect codeLine="31" fill="#F1F1F1" height="83.2188" id="HangManPlayer" rx="2.5" ry="2.5" style="stroke:#181818;stroke-width:0.5;" width="134" x="654.47" y="443"/><ellipse cx="669.47" cy="459" fill="#B4A7E5" rx="11" ry="11" style="stroke:#181818;stroke-width:1.0;"/><path d="M670.4231,455.6406 L670.4231,462.2969 L672.1419,462.2969 Q672.7513,462.2969 673.0169,462.5313 Q673.2825,462.7656 673.2825,463.1563 Q673.2825,463.5313 673.0169,463.7656 Q672.7513,464 672.1419,464 L667.0013,464 Q666.3919,464 666.1263,463.7656 Q665.8606,463.5313 665.8606,463.1406 Q665.8606,462.7656 666.1263,462.5313 Q666.3919,462.2969 667.0013,462.2969 L668.72,462.2969 L668.72,455.6406 L667.0013,455.6406 Q666.3919,455.6406 666.1263,455.4063 Q665.8606,455.1719 665.8606,454.7813 Q665.8606,454.4063 666.1263,454.1719 Q666.3919,453.9375 667.0013,453.9375 L672.1419,453.9375 Q672.7513,453.9375 673.0169,454.1719 Q673.2825,454.4063 673.2825,454.7813 Q673.2825,455.1719 673.0169,455.4063 Q672.7513,455.6406 672.1419,455.6406 L670.4231,455.6406 Z " fill="#000000"/><text fill="#000000" font-family="sans-serif" font-size="14" font-style="italic" lengthAdjust="spacing" textLength="102" x="683.47" y="464.7285">HangManPlayer</text><line style="stroke:#181818;stroke-width:0.5;" x1="655.47" x2="787.47" y1="475" y2="475"/><line style="stroke:#181818;stroke-width:0.5;" x1="655.47" x2="787.47" y1="483" y2="483"/><ellipse cx="665.47" cy="494" fill="#84BE84" rx="3" ry="3" style="stroke:#038048;stroke-width:1.0;"/><text fill="#000000" font-family="sans-serif" font-size="14" lengthAdjust="spacing" textLength="93" x="674.47" y="501.5332">ChooseWord()</text><ellipse cx="665.47" cy="511.6094" fill="#84BE84" rx="3" ry="3" style="stroke:#038048;stroke-width:1.0;"/><text fill="#000000" font-family="sans-serif" font-size="14" lengthAdjust="spacing" textLength="76" x="674.47" y="519.1426">GiveLetter()</text></g><!--MD5=[82a37a108f28ded8fb022e1a5df25ae5]
class ListOfPlayers--><g id="elem_ListOfPlayers"><rect codeLine="38" fill="#F1F1F1" height="136.0469" id="ListOfPlayers" rx="2.5" ry="2.5" style="stroke:#181818;stroke-width:0.5;" width="199" x="182.97" y="416.5"/><ellipse cx="236.22" cy="432.5" fill="#ADD1B2" rx="11" ry="11" style="stroke:#181818;stroke-width:1.0;"/><path d="M238.9856,428.375 Q239.1419,428.1563 239.3294,428.0469 Q239.5169,427.9375 239.7356,427.9375 Q240.1106,427.9375 240.345,428.2031 Q240.5794,428.4531 240.5794,429.0625 L240.5794,430.5156 Q240.5794,431.125 240.345,431.3906 Q240.1106,431.6563 239.7356,431.6563 Q239.3919,431.6563 239.1888,431.4531 Q238.9856,431.2656 238.8763,430.75 Q238.8294,430.3906 238.6419,430.2031 Q238.3138,429.8281 237.7044,429.6094 Q237.095,429.3906 236.47,429.3906 Q235.7044,429.3906 235.0638,429.7188 Q234.4388,430.0469 233.9388,430.7969 Q233.4544,431.5469 233.4544,432.5781 L233.4544,433.6719 Q233.4544,434.9063 234.345,435.7344 Q235.2356,436.5469 236.8294,436.5469 Q237.7669,436.5469 238.4231,436.2969 Q238.8138,436.1406 239.2356,435.7031 Q239.5013,435.4375 239.6419,435.3594 Q239.7981,435.2813 240.0013,435.2813 Q240.3294,435.2813 240.5794,435.5469 Q240.845,435.7969 240.845,436.1406 Q240.845,436.4844 240.5013,436.8906 Q240.0013,437.4688 239.2044,437.7969 Q238.1263,438.25 236.8294,438.25 Q235.3138,438.25 234.1106,437.625 Q233.1263,437.125 232.4388,436.0625 Q231.7513,434.9844 231.7513,433.7031 L231.7513,432.5469 Q231.7513,431.2188 232.3606,430.0781 Q232.9856,428.9219 234.0794,428.3125 Q235.1731,427.6875 236.4075,427.6875 Q237.1419,427.6875 237.7825,427.8594 Q238.4388,428.0156 238.9856,428.375 Z " fill="#000000"/><text fill="#000000" font-family="sans-serif" font-size="14" lengthAdjust="spacing" textLength="84" x="256.72" y="438.2285">ListOfPlayers</text><line style="stroke:#181818;stroke-width:0.5;" x1="183.97" x2="380.97" y1="448.5" y2="448.5"/><line style="stroke:#181818;stroke-width:0.5;" x1="183.97" x2="380.97" y1="456.5" y2="456.5"/><ellipse cx="193.97" cy="467.5" fill="#84BE84" rx="3" ry="3" style="stroke:#038048;stroke-width:1.0;"/><text fill="#000000" font-family="sans-serif" font-size="14" lengthAdjust="spacing" textLength="173" x="202.97" y="475.0332">createPlayer(Player player)</text><ellipse cx="193.97" cy="485.1094" fill="#84BE84" rx="3" ry="3" style="stroke:#038048;stroke-width:1.0;"/><text fill="#000000" font-family="sans-serif" font-size="14" lengthAdjust="spacing" textLength="100" x="202.97" y="492.6426">getPlayer(int id)</text><ellipse cx="193.97" cy="502.7188" fill="#84BE84" rx="3" ry="3" style="stroke:#038048;stroke-width:1.0;"/><text fill="#000000" font-family="sans-serif" font-size="14" lengthAdjust="spacing" textLength="52" x="202.97" y="510.252">getList()</text><ellipse cx="193.97" cy="520.3281" fill="#84BE84" rx="3" ry="3" style="stroke:#038048;stroke-width:1.0;"/><text fill="#000000" font-family="sans-serif" font-size="14" lengthAdjust="spacing" textLength="60" x="202.97" y="527.8613">printList()</text><ellipse cx="193.97" cy="537.9375" fill="#84BE84" rx="3" ry="3" style="stroke:#038048;stroke-width:1.0;"/><text fill="#000000" font-family="sans-serif" font-size="14" lengthAdjust="spacing" textLength="158" x="202.97" y="545.4707">getGamePlayers(int size)</text></g><!--MD5=[f7a9ae25cb0ac60c5f03b7bfd778cce3]
class Dice--><g id="elem_Dice"><rect codeLine="56" fill="#F1F1F1" height="65.6094" id="Dice" rx="2.5" ry="2.5" style="stroke:#181818;stroke-width:0.5;" width="188" x="200.47" y="842"/><ellipse cx="276.22" cy="858" fill="#ADD1B2" rx="11" ry="11" style="stroke:#181818;stroke-width:1.0;"/><path d="M278.9856,853.875 Q279.1419,853.6563 279.3294,853.5469 Q279.5169,853.4375 279.7356,853.4375 Q280.1106,853.4375 280.345,853.7031 Q280.5794,853.9531 280.5794,854.5625 L280.5794,856.0156 Q280.5794,856.625 280.345,856.8906 Q280.1106,857.1563 279.7356,857.1563 Q279.3919,857.1563 279.1888,856.9531 Q278.9856,856.7656 278.8763,856.25 Q278.8294,855.8906 278.6419,855.7031 Q278.3138,855.3281 277.7044,855.1094 Q277.095,854.8906 276.47,854.8906 Q275.7044,854.8906 275.0638,855.2188 Q274.4388,855.5469 273.9388,856.2969 Q273.4544,857.0469 273.4544,858.0781 L273.4544,859.1719 Q273.4544,860.4063 274.345,861.2344 Q275.2356,862.0469 276.8294,862.0469 Q277.7669,862.0469 278.4231,861.7969 Q278.8138,861.6406 279.2356,861.2031 Q279.5013,860.9375 279.6419,860.8594 Q279.7981,860.7813 280.0013,860.7813 Q280.3294,860.7813 280.5794,861.0469 Q280.845,861.2969 280.845,861.6406 Q280.845,861.9844 280.5013,862.3906 Q280.0013,862.9688 279.2044,863.2969 Q278.1263,863.75 276.8294,863.75 Q275.3138,863.75 274.1106,863.125 Q273.1263,862.625 272.4388,861.5625 Q271.7513,860.4844 271.7513,859.2031 L271.7513,858.0469 Q271.7513,856.7188 272.3606,855.5781 Q272.9856,854.4219 274.0794,853.8125 Q275.1731,853.1875 276.4075,853.1875 Q277.1419,853.1875 277.7825,853.3594 Q278.4388,853.5156 278.9856,853.875 Z " fill="#000000"/><text fill="#000000" font-family="sans-serif" font-size="14" lengthAdjust="spacing" textLength="28" x="296.72" y="863.7285">Dice</text><line style="stroke:#181818;stroke-width:0.5;" x1="201.47" x2="387.47" y1="874" y2="874"/><line style="stroke:#181818;stroke-width:0.5;" x1="201.47" x2="387.47" y1="882" y2="882"/><ellipse cx="211.47" cy="893" fill="#84BE84" rx="3" ry="3" style="stroke:#038048;stroke-width:1.0;"/><text fill="#000000" font-family="sans-serif" font-size="14" lengthAdjust="spacing" textLength="162" x="220.47" y="900.5332">generateValue(int bound)</text></g><!--MD5=[26178a7f5ccfc2a33ee17310fc2a0bb3]
class GamePlayersProvider--><g id="elem_GamePlayersProvider"><rect codeLine="47" fill="#F1F1F1" height="65.6094" id="GamePlayersProvider" rx="2.5" ry="2.5" style="stroke:#181818;stroke-width:0.5;" width="254" x="155.47" y="273"/><ellipse cx="209.72" cy="289" fill="#B4A7E5" rx="11" ry="11" style="stroke:#181818;stroke-width:1.0;"/><path d="M210.6731,285.6406 L210.6731,292.2969 L212.3919,292.2969 Q213.0013,292.2969 213.2669,292.5313 Q213.5325,292.7656 213.5325,293.1563 Q213.5325,293.5313 213.2669,293.7656 Q213.0013,294 212.3919,294 L207.2513,294 Q206.6419,294 206.3763,293.7656 Q206.1106,293.5313 206.1106,293.1406 Q206.1106,292.7656 206.3763,292.5313 Q206.6419,292.2969 207.2513,292.2969 L208.97,292.2969 L208.97,285.6406 L207.2513,285.6406 Q206.6419,285.6406 206.3763,285.4063 Q206.1106,285.1719 206.1106,284.7813 Q206.1106,284.4063 206.3763,284.1719 Q206.6419,283.9375 207.2513,283.9375 L212.3919,283.9375 Q213.0013,283.9375 213.2669,284.1719 Q213.5325,284.4063 213.5325,284.7813 Q213.5325,285.1719 213.2669,285.4063 Q213.0013,285.6406 212.3919,285.6406 L210.6731,285.6406 Z " fill="#000000"/><text fill="#000000" font-family="sans-serif" font-size="14" font-style="italic" lengthAdjust="spacing" textLength="137" x="230.22" y="294.7285">GamePlayersProvider</text><line style="stroke:#181818;stroke-width:0.5;" x1="156.47" x2="408.47" y1="305" y2="305"/><line style="stroke:#181818;stroke-width:0.5;" x1="156.47" x2="408.47" y1="313" y2="313"/><ellipse cx="166.47" cy="324" fill="#84BE84" rx="3" ry="3" style="stroke:#038048;stroke-width:1.0;"/><text fill="#000000" font-family="sans-serif" font-size="14" lengthAdjust="spacing" textLength="228" x="175.47" y="331.5332">getGamePlayers(int) : GamePlayer[]</text></g><!--MD5=[b0359cb538a0ce2cb72f54394993c3c4]
class GamePlayer--><g id="elem_GamePlayer"><rect codeLine="51" fill="#F1F1F1" height="65.6094" id="GamePlayer" rx="2.5" ry="2.5" style="stroke:#181818;stroke-width:0.5;" width="166" x="820.47" y="665"/><ellipse cx="860.67" cy="681" fill="#B4A7E5" rx="11" ry="11" style="stroke:#181818;stroke-width:1.0;"/><path d="M861.6231,677.6406 L861.6231,684.2969 L863.3419,684.2969 Q863.9513,684.2969 864.2169,684.5313 Q864.4825,684.7656 864.4825,685.1563 Q864.4825,685.5313 864.2169,685.7656 Q863.9513,686 863.3419,686 L858.2013,686 Q857.5919,686 857.3263,685.7656 Q857.0606,685.5313 857.0606,685.1406 Q857.0606,684.7656 857.3263,684.5313 Q857.5919,684.2969 858.2013,684.2969 L859.92,684.2969 L859.92,677.6406 L858.2013,677.6406 Q857.5919,677.6406 857.3263,677.4063 Q857.0606,677.1719 857.0606,676.7813 Q857.0606,676.4063 857.3263,676.1719 Q857.5919,675.9375 858.2013,675.9375 L863.3419,675.9375 Q863.9513,675.9375 864.2169,676.1719 Q864.4825,676.4063 864.4825,676.7813 Q864.4825,677.1719 864.2169,677.4063 Q863.9513,677.6406 863.3419,677.6406 L861.6231,677.6406 Z " fill="#000000"/><text fill="#000000" font-family="sans-serif" font-size="14" font-style="italic" lengthAdjust="spacing" textLength="78" x="880.27" y="686.7285">GamePlayer</text><line style="stroke:#181818;stroke-width:0.5;" x1="821.47" x2="985.47" y1="697" y2="697"/><line style="stroke:#181818;stroke-width:0.5;" x1="821.47" x2="985.47" y1="705" y2="705"/><ellipse cx="831.47" cy="716" fill="#84BE84" rx="3" ry="3" style="stroke:#038048;stroke-width:1.0;"/><text fill="#000000" font-family="sans-serif" font-size="14" lengthAdjust="spacing" textLength="140" x="840.47" y="723.5332">processResult(Result)</text></g><!--MD5=[a61959765ad47111e4afbaee12b70ba7]
reverse link HangMan to TurnHangMan--><g id="link_HangMan_TurnHangMan"><path codeLine="61" d="M593.47,226.56 C593.47,243.23 593.47,259.44 593.47,272.74 " fill="none" id="HangMan-backto-TurnHangMan" style="stroke:#181818;stroke-width:1.0;"/><polygon fill="#181818" points="593.47,213.13,589.47,219.13,593.47,225.13,597.47,219.13,593.47,213.13" style="stroke:#181818;stroke-width:1.0;"/></g><!--MD5=[c4e030e587640a9fdc6d69571abfa929]
link HangMan to GamePlayersProvider--><g id="link_HangMan_GamePlayersProvider"><path codeLine="62" d="M444.34,213.13 C408.68,233.37 372.57,253.86 343.53,270.34 " fill="none" id="HangMan-to-GamePlayersProvider" style="stroke:#181818;stroke-width:1.0;"/><polygon fill="#181818" points="338.93,272.95,348.7319,271.9889,343.2791,270.4831,344.7849,265.0304,338.93,272.95" style="stroke:#181818;stroke-width:1.0;"/></g><!--MD5=[b3cc77556441157c79a206bc8981c29d]
link HangMan to Dice--><g id="link_HangMan_Dice"><path codeLine="63" d="M441.74,156.76 C324.08,182.12 175.05,223 138.47,273 C6,454.06 192.01,737.93 266.23,837.79 " fill="none" id="HangMan-to-Dice" style="stroke:#181818;stroke-width:1.0;stroke-dasharray:7.0,7.0;"/><polygon fill="#181818" points="269.25,841.83,267.072,832.225,266.2592,837.8231,260.661,837.0103,269.25,841.83" style="stroke:#181818;stroke-width:1.0;"/></g><!--MD5=[47f49f40f3b57ce419e0e3b224a34786]
reverse link HangMan to GamePlayer--><g id="link_HangMan_GamePlayer"><path codeLine="64" d="M692.44,222.48 C732.56,265.07 776.42,318.03 806.47,372.5 C860.99,471.35 888.29,604.46 898.53,664.83 " fill="none" id="HangMan-backto-GamePlayer" style="stroke:#181818;stroke-width:1.0;"/><polygon fill="#181818" points="683.41,213,684.6589,220.1021,691.6951,221.6809,690.4462,214.5787,683.41,213" style="stroke:#181818;stroke-width:1.0;"/></g><!--MD5=[294151ecc46a1a90d54386dc965328a8]
reverse link TurnHangMan to HangedMan--><g id="link_TurnHangMan_HangedMan"><path codeLine="66" d="M577.44,351.89 C572.33,366.22 566.49,382.57 560.71,398.76 " fill="none" id="TurnHangMan-backto-HangedMan" style="stroke:#181818;stroke-width:1.0;"/><polygon fill="#181818" points="581.91,339.37,576.1253,343.6755,577.8748,350.6712,583.6595,346.3657,581.91,339.37" style="stroke:#181818;stroke-width:1.0;"/></g><!--MD5=[aedc3007e0dfa3682ba47cf8e074d29b]
reverse link TurnHangMan to HangManPlayer--><g id="link_TurnHangMan_HangManPlayer"><path codeLine="67" d="M624.76,350.15 C645.28,378.45 671.94,415.2 692.06,442.96 " fill="none" id="TurnHangMan-backto-HangManPlayer" style="stroke:#181818;stroke-width:1.0;"/><polygon fill="#181818" points="616.94,339.37,617.2213,346.5756,623.9808,349.0874,623.6995,341.8817,616.94,339.37" style="stroke:#181818;stroke-width:1.0;"/></g><!--MD5=[a0844d7426c666f4502798fc813803d2]
reverse link HangedMan to SecretWord--><g id="link_HangedMan_SecretWord"><path codeLine="69" d="M540.17,583.18 C541.73,598.98 543.33,615.02 544.8,629.88 " fill="none" id="HangedMan-backto-SecretWord" style="stroke:#181818;stroke-width:1.0;"/><polygon fill="#181818" points="538.86,570,535.4727,576.366,540.0462,581.9412,543.4335,575.5752,538.86,570" style="stroke:#181818;stroke-width:1.0;"/></g><!--MD5=[a7d93f4931b1a4bb63227530d472e629]
reverse link HangedMan to HangManPlayer--><g id="link_HangedMan_HangManPlayer"><path codeLine="71" d="M624.76,484.5 C634.59,484.5 644.41,484.5 654.24,484.5 " fill="none" id="HangedMan-backto-HangManPlayer" style="stroke:#181818;stroke-width:1.0;"/><polygon fill="#181818" points="619.63,484.5,628.63,488.5,624.63,484.5,628.63,480.5,619.63,484.5" style="stroke:#181818;stroke-width:1.0;"/></g><!--MD5=[f5e12c2aac55c7819c2c58c59f3ffef3]
reverse link HangManPlayer to GamePlayer--><g id="link_HangManPlayer_GamePlayer"><path codeLine="72" d="M769.69,541.54 C803.62,580.96 847.8,632.31 875.91,664.98 " fill="none" id="HangManPlayer-backto-GamePlayer" style="stroke:#181818;stroke-width:1.0;"/><polygon fill="none" points="764.3,546.01,756.56,526.28,774.91,536.87,764.3,546.01" style="stroke:#181818;stroke-width:1.0;"/></g><!--MD5=[5c4510609ede1ca032148b37bb45abc4]
reverse link GamePlayersProvider to ListOfPlayers--><g id="link_GamePlayersProvider_ListOfPlayers"><path codeLine="74" d="M282.47,359.65 C282.47,377.42 282.47,397.5 282.47,416.24 " fill="none" id="GamePlayersProvider-backto-ListOfPlayers" style="stroke:#181818;stroke-width:1.0;stroke-dasharray:7.0,7.0;"/><polygon fill="none" points="275.47,359.37,282.47,339.37,289.47,359.37,275.47,359.37" style="stroke:#181818;stroke-width:1.0;"/></g><!--MD5=[28cd73cf825d5138d04f5bfbd597bbcf]
link GamePlayer to Dice--><g id="link_GamePlayer_Dice"><path codeLine="75" d="M877.42,731.07 C859.17,751.28 833.01,776.1 804.47,790 C733.85,824.4 521.3,851.03 393.97,864.44 " fill="none" id="GamePlayer-to-Dice" style="stroke:#181818;stroke-width:1.0;stroke-dasharray:7.0,7.0;"/><polygon fill="#181818" points="388.72,864.99,398.0829,868.0454,393.6936,864.477,397.2621,860.0876,388.72,864.99" style="stroke:#181818;stroke-width:1.0;"/></g><!--MD5=[e32c5931ae80b61cd6dc0d4c14cc27e5]
@startuml ClassDiagramHangMan-WithoutModel

package hangman {
    class HangMan {
        # GamePlayer[] gamePlayers
        # GamePlayersProvider gamePlayersProvider
        + Introduction()
        + Resume()
        + Execute()
        # AssignRoles (GamePlayer[] gamePlayers)
        # flipRoles (GamePlayer[] gamePlayers)
    }
    class SecretWord {
        +Char GuesserWords []
        +Char SecretWord []
        +boolean AddLetter(Char letter)
        +boolean isGuessed ()
        +printWord()
    }
    class TurnHangMan {
        +play()
    }
    class HangedMan {
        -FailedAttempts
        -SecretWord secretWord
        +PaintHangedMan()
        +isDead()
        +isSaved()
        -addPart()
        +tryLetter()
    }
    interface HangManPlayer {
        +ChooseWord()
        +GiveLetter()
    }
}

package player {
    class ListOfPlayers {
        +createPlayer(Player player)
        +getPlayer(int id)
        +getList()
        +printList()
        +getGamePlayers(int size)
    }
}

interface GamePlayersProvider {
    + getGamePlayers(int) : GamePlayer[]
}

interface GamePlayer {
    + processResult(Result)
}

package utils {
    class Dice {
        +generateValue(int bound)
    }
}

HangMan *- -TurnHangMan
HangMan - -> GamePlayersProvider
HangMan .right.> Dice
HangMan *- - GamePlayer

TurnHangMan *- - HangedMan
TurnHangMan *- - HangManPlayer

HangedMan *- - SecretWord

HangManPlayer -left-> HangedMan
HangManPlayer <|- - GamePlayer

ListOfPlayers .up.|> GamePlayersProvider
GamePlayer ..>Dice

@enduml

PlantUML version 1.2022.5(Sat Apr 30 04:55:52 CST 2022)
(GPL source distribution)
Java Runtime: Java(TM) SE Runtime Environment
JVM: Java HotSpot(TM) 64-Bit Server VM
Default Encoding: Cp1252
Language: en
Country: US
--></g></svg>