<?xml version="1.0" encoding="UTF-8" standalone="no"?><svg xmlns="http://www.w3.org/2000/svg" xmlns:xlink="http://www.w3.org/1999/xlink" contentStyleType="text/css" height="887px" preserveAspectRatio="none" style="width:944px;height:887px;background:#FFFFFF;" version="1.1" viewBox="0 0 944 887" width="944px" zoomAndPan="magnify"><defs/><g><!--MD5=[7153802aa763eb8df248d2c88b8b91a0]
cluster game--><g id="cluster_game"><path d="M21.75,194 L60.75,194 A3.75,3.75 0 0 1 63.25,196.5 L70.25,217.6094 L678.75,217.6094 A2.5,2.5 0 0 1 681.25,220.1094 L681.25,877.5 A2.5,2.5 0 0 1 678.75,880 L21.75,880 A2.5,2.5 0 0 1 19.25,877.5 L19.25,196.5 A2.5,2.5 0 0 1 21.75,194 " style="stroke:#000000;stroke-width:1.5;fill:none;"/><line style="stroke:#000000;stroke-width:1.5;fill:none;" x1="19.25" x2="70.25" y1="217.6094" y2="217.6094"/><text fill="#000000" font-family="sans-serif" font-size="14" font-weight="bold" lengthAdjust="spacing" textLength="38" x="23.25" y="210.5332">game</text></g><!--MD5=[807bc46d8103c809ff053af9e140e1f5]
cluster tictactoe--><g id="cluster_tictactoe"><path d="M385.75,639 L447.75,639 A3.75,3.75 0 0 1 450.25,641.5 L457.25,662.6094 L552.75,662.6094 A2.5,2.5 0 0 1 555.25,665.1094 L555.25,853.5 A2.5,2.5 0 0 1 552.75,856 L385.75,856 A2.5,2.5 0 0 1 383.25,853.5 L383.25,641.5 A2.5,2.5 0 0 1 385.75,639 " style="stroke:#000000;stroke-width:1.5;fill:none;"/><line style="stroke:#000000;stroke-width:1.5;fill:none;" x1="383.25" x2="457.25" y1="662.6094" y2="662.6094"/><text fill="#000000" font-family="sans-serif" font-size="14" font-weight="bold" lengthAdjust="spacing" textLength="61" x="387.25" y="655.5332">tictactoe</text></g><!--MD5=[5580c82edcbc933de5e73591f0fcf26e]
cluster hangman--><g id="cluster_hangman"><path d="M45.75,639 L110.75,639 A3.75,3.75 0 0 1 113.25,641.5 L120.25,662.6094 L206.75,662.6094 A2.5,2.5 0 0 1 209.25,665.1094 L209.25,853.5 A2.5,2.5 0 0 1 206.75,856 L45.75,856 A2.5,2.5 0 0 1 43.25,853.5 L43.25,641.5 A2.5,2.5 0 0 1 45.75,639 " style="stroke:#000000;stroke-width:1.5;fill:none;"/><line style="stroke:#000000;stroke-width:1.5;fill:none;" x1="43.25" x2="120.25" y1="662.6094" y2="662.6094"/><text fill="#000000" font-family="sans-serif" font-size="14" font-weight="bold" lengthAdjust="spacing" textLength="64" x="47.25" y="655.5332">hangman</text></g><!--MD5=[c52f45833d539af9e29a9d34b8b7302b]
cluster utils--><g id="cluster_utils"><path d="M75.75,238 L106.75,238 A3.75,3.75 0 0 1 109.25,240.5 L116.25,261.6094 L310.75,261.6094 A2.5,2.5 0 0 1 313.25,264.1094 L313.25,353.5 A2.5,2.5 0 0 1 310.75,356 L75.75,356 A2.5,2.5 0 0 1 73.25,353.5 L73.25,240.5 A2.5,2.5 0 0 1 75.75,238 " style="stroke:#000000;stroke-width:1.5;fill:none;"/><line style="stroke:#000000;stroke-width:1.5;fill:none;" x1="73.25" x2="116.25" y1="261.6094" y2="261.6094"/><text fill="#000000" font-family="sans-serif" font-size="14" font-weight="bold" lengthAdjust="spacing" textLength="30" x="77.25" y="254.5332">utils</text></g><!--MD5=[42603eecb267091c13893a16d8c379fb]
cluster player--><g id="cluster_player"><path d="M707.75,203 L751.75,203 A3.75,3.75 0 0 1 754.25,205.5 L761.25,226.6094 L934.75,226.6094 A2.5,2.5 0 0 1 937.25,229.1094 L937.25,388.5 A2.5,2.5 0 0 1 934.75,391 L707.75,391 A2.5,2.5 0 0 1 705.25,388.5 L705.25,205.5 A2.5,2.5 0 0 1 707.75,203 " style="stroke:#000000;stroke-width:1.5;fill:none;"/><line style="stroke:#000000;stroke-width:1.5;fill:none;" x1="705.25" x2="761.25" y1="226.6094" y2="226.6094"/><text fill="#000000" font-family="sans-serif" font-size="14" font-weight="bold" lengthAdjust="spacing" textLength="43" x="709.25" y="219.5332">player</text></g><!--MD5=[b6dcce5e5ef3c84b0b048d11301373dd]
class Game--><g id="elem_Game"><rect codeLine="13" fill="#F1F1F1" height="171.2656" id="Game" rx="2.5" ry="2.5" style="stroke:#181818;stroke-width:0.5;" width="303" x="72.75" y="435"/><ellipse cx="201" cy="451" fill="#A9DCDF" rx="11" ry="11" style="stroke:#181818;stroke-width:1.0;"/><path d="M203.1875,452.7656 L199.0469,452.7656 L198.625,453.7969 L199.0469,453.7969 Q199.6563,453.7969 199.9219,454.0313 Q200.1875,454.2656 200.1875,454.6563 Q200.1875,455.0313 199.9219,455.2656 Q199.6563,455.5 199.0469,455.5 L196.75,455.5 Q196.1406,455.5 195.8906,455.2656 Q195.625,455.0313 195.625,454.6406 Q195.625,454.2656 195.9063,454.0313 Q196.1719,453.7813 196.7969,453.7969 L199.4688,447.1406 L198.3594,447.1406 Q197.75,447.1406 197.4844,446.9063 Q197.2188,446.6719 197.2188,446.2813 Q197.2188,445.9063 197.4844,445.6719 Q197.75,445.4375 198.3594,445.4375 L202.0313,445.4375 L205.4219,453.7969 Q206.0156,453.7969 206.2031,453.9375 Q206.5938,454.2031 206.5938,454.6563 Q206.5938,455.0313 206.3281,455.2656 Q206.0781,455.5 205.4688,455.5 L203.1719,455.5 Q202.5625,455.5 202.2969,455.2656 Q202.0313,455.0313 202.0313,454.6406 Q202.0313,454.2656 202.2969,454.0313 Q202.5625,453.7969 203.1719,453.7969 L203.5938,453.7969 L203.1875,452.7656 Z M202.4688,451.0625 L201.1094,447.6875 L199.7344,451.0625 L202.4688,451.0625 Z " fill="#000000"/><text fill="#000000" font-family="sans-serif" font-size="14" font-style="italic" lengthAdjust="spacing" textLength="38" x="221.5" y="456.7285">Game</text><line style="stroke:#181818;stroke-width:0.5;" x1="73.75" x2="374.75" y1="467" y2="467"/><polygon fill="none" points="83.75,473,87.75,477,83.75,481,79.75,477" style="stroke:#B38D22;stroke-width:1.0;"/><text fill="#000000" font-family="sans-serif" font-size="14" lengthAdjust="spacing" textLength="172" x="92.75" y="485.5332">GamePlayer[] gamePlayers</text><polygon fill="none" points="83.75,490.6094,87.75,494.6094,83.75,498.6094,79.75,494.6094" style="stroke:#B38D22;stroke-width:1.0;"/><text fill="#000000" font-family="sans-serif" font-size="14" lengthAdjust="spacing" textLength="277" x="92.75" y="503.1426">GamePlayersProvider gamePlayersProvider</text><line style="stroke:#181818;stroke-width:0.5;" x1="73.75" x2="374.75" y1="510.2188" y2="510.2188"/><ellipse cx="83.75" cy="521.2188" fill="#84BE84" rx="3" ry="3" style="stroke:#038048;stroke-width:1.0;"/><text fill="#000000" font-family="sans-serif" font-size="14" lengthAdjust="spacing" textLength="84" x="92.75" y="528.752">Introduction()</text><ellipse cx="83.75" cy="538.8281" fill="#84BE84" rx="3" ry="3" style="stroke:#038048;stroke-width:1.0;"/><text fill="#000000" font-family="sans-serif" font-size="14" lengthAdjust="spacing" textLength="62" x="92.75" y="546.3613">Resume()</text><ellipse cx="83.75" cy="556.4375" fill="#84BE84" rx="3" ry="3" style="stroke:#038048;stroke-width:1.0;"/><text fill="#000000" font-family="sans-serif" font-size="14" font-style="italic" lengthAdjust="spacing" textLength="60" x="92.75" y="563.9707">Execute()</text><polygon fill="#FFFF44" points="83.75,569.0469,87.75,573.0469,83.75,577.0469,79.75,573.0469" style="stroke:#B38D22;stroke-width:1.0;"/><text fill="#000000" font-family="sans-serif" font-size="14" lengthAdjust="spacing" textLength="264" x="92.75" y="581.5801">AssignRoles (GamePlayer[] gamePlayers)</text><polygon fill="#FFFF44" points="83.75,586.6563,87.75,590.6563,83.75,594.6563,79.75,590.6563" style="stroke:#B38D22;stroke-width:1.0;"/><text fill="#000000" font-family="sans-serif" font-size="14" lengthAdjust="spacing" textLength="240" x="92.75" y="599.1895">flipRoles (GamePlayer[] gamePlayers)</text></g><!--MD5=[b0359cb538a0ce2cb72f54394993c3c4]
class GamePlayer--><g id="elem_GamePlayer"><rect codeLine="39" fill="#F1F1F1" height="65.6094" id="GamePlayer" rx="2.5" ry="2.5" style="stroke:#181818;stroke-width:0.5;" width="141" x="225.75" y="666"/><ellipse cx="254.7" cy="682" fill="#B4A7E5" rx="11" ry="11" style="stroke:#181818;stroke-width:1.0;"/><path d="M255.6531,678.6406 L255.6531,685.2969 L257.3719,685.2969 Q257.9813,685.2969 258.2469,685.5313 Q258.5125,685.7656 258.5125,686.1563 Q258.5125,686.5313 258.2469,686.7656 Q257.9813,687 257.3719,687 L252.2313,687 Q251.6219,687 251.3563,686.7656 Q251.0906,686.5313 251.0906,686.1406 Q251.0906,685.7656 251.3563,685.5313 Q251.6219,685.2969 252.2313,685.2969 L253.95,685.2969 L253.95,678.6406 L252.2313,678.6406 Q251.6219,678.6406 251.3563,678.4063 Q251.0906,678.1719 251.0906,677.7813 Q251.0906,677.4063 251.3563,677.1719 Q251.6219,676.9375 252.2313,676.9375 L257.3719,676.9375 Q257.9813,676.9375 258.2469,677.1719 Q258.5125,677.4063 258.5125,677.7813 Q258.5125,678.1719 258.2469,678.4063 Q257.9813,678.6406 257.3719,678.6406 L255.6531,678.6406 Z " fill="#000000"/><text fill="#000000" font-family="sans-serif" font-size="14" font-style="italic" lengthAdjust="spacing" textLength="78" x="271.8" y="687.7285">GamePlayer</text><line style="stroke:#181818;stroke-width:0.5;" x1="226.75" x2="365.75" y1="698" y2="698"/><line style="stroke:#181818;stroke-width:0.5;" x1="226.75" x2="365.75" y1="706" y2="706"/><ellipse cx="236.75" cy="717" fill="#84BE84" rx="3" ry="3" style="stroke:#038048;stroke-width:1.0;"/><text fill="#000000" font-family="sans-serif" font-size="14" lengthAdjust="spacing" textLength="115" x="245.75" y="724.5332">processResult(int)</text></g><!--MD5=[26178a7f5ccfc2a33ee17310fc2a0bb3]
class GamePlayersProvider--><g id="elem_GamePlayersProvider"><rect codeLine="42" fill="#F1F1F1" height="65.6094" id="GamePlayersProvider" rx="2.5" ry="2.5" style="stroke:#181818;stroke-width:0.5;" width="254" x="411.25" y="487.5"/><ellipse cx="465.5" cy="503.5" fill="#B4A7E5" rx="11" ry="11" style="stroke:#181818;stroke-width:1.0;"/><path d="M466.4531,500.1406 L466.4531,506.7969 L468.1719,506.7969 Q468.7813,506.7969 469.0469,507.0313 Q469.3125,507.2656 469.3125,507.6563 Q469.3125,508.0313 469.0469,508.2656 Q468.7813,508.5 468.1719,508.5 L463.0313,508.5 Q462.4219,508.5 462.1563,508.2656 Q461.8906,508.0313 461.8906,507.6406 Q461.8906,507.2656 462.1563,507.0313 Q462.4219,506.7969 463.0313,506.7969 L464.75,506.7969 L464.75,500.1406 L463.0313,500.1406 Q462.4219,500.1406 462.1563,499.9063 Q461.8906,499.6719 461.8906,499.2813 Q461.8906,498.9063 462.1563,498.6719 Q462.4219,498.4375 463.0313,498.4375 L468.1719,498.4375 Q468.7813,498.4375 469.0469,498.6719 Q469.3125,498.9063 469.3125,499.2813 Q469.3125,499.6719 469.0469,499.9063 Q468.7813,500.1406 468.1719,500.1406 L466.4531,500.1406 Z " fill="#000000"/><text fill="#000000" font-family="sans-serif" font-size="14" font-style="italic" lengthAdjust="spacing" textLength="137" x="486" y="509.2285">GamePlayersProvider</text><line style="stroke:#181818;stroke-width:0.5;" x1="412.25" x2="664.25" y1="519.5" y2="519.5"/><line style="stroke:#181818;stroke-width:0.5;" x1="412.25" x2="664.25" y1="527.5" y2="527.5"/><ellipse cx="422.25" cy="538.5" fill="#84BE84" rx="3" ry="3" style="stroke:#038048;stroke-width:1.0;"/><text fill="#000000" font-family="sans-serif" font-size="14" lengthAdjust="spacing" textLength="228" x="431.25" y="546.0332">getGamePlayers(int) : GamePlayer[]</text></g><!--MD5=[36f719b1cbc3f26b5758ea249b208fb4]
class TicTacToe--><g id="elem_TicTacToe"><rect codeLine="23" fill="#F1F1F1" height="48" id="TicTacToe" rx="2.5" ry="2.5" style="stroke:#181818;stroke-width:0.5;" width="100" x="410.25" y="675"/><ellipse cx="425.25" cy="691" fill="#ADD1B2" rx="11" ry="11" style="stroke:#181818;stroke-width:1.0;"/><path d="M428.0156,686.875 Q428.1719,686.6563 428.3594,686.5469 Q428.5469,686.4375 428.7656,686.4375 Q429.1406,686.4375 429.375,686.7031 Q429.6094,686.9531 429.6094,687.5625 L429.6094,689.0156 Q429.6094,689.625 429.375,689.8906 Q429.1406,690.1563 428.7656,690.1563 Q428.4219,690.1563 428.2188,689.9531 Q428.0156,689.7656 427.9063,689.25 Q427.8594,688.8906 427.6719,688.7031 Q427.3438,688.3281 426.7344,688.1094 Q426.125,687.8906 425.5,687.8906 Q424.7344,687.8906 424.0938,688.2188 Q423.4688,688.5469 422.9688,689.2969 Q422.4844,690.0469 422.4844,691.0781 L422.4844,692.1719 Q422.4844,693.4063 423.375,694.2344 Q424.2656,695.0469 425.8594,695.0469 Q426.7969,695.0469 427.4531,694.7969 Q427.8438,694.6406 428.2656,694.2031 Q428.5313,693.9375 428.6719,693.8594 Q428.8281,693.7813 429.0313,693.7813 Q429.3594,693.7813 429.6094,694.0469 Q429.875,694.2969 429.875,694.6406 Q429.875,694.9844 429.5313,695.3906 Q429.0313,695.9688 428.2344,696.2969 Q427.1563,696.75 425.8594,696.75 Q424.3438,696.75 423.1406,696.125 Q422.1563,695.625 421.4688,694.5625 Q420.7813,693.4844 420.7813,692.2031 L420.7813,691.0469 Q420.7813,689.7188 421.3906,688.5781 Q422.0156,687.4219 423.1094,686.8125 Q424.2031,686.1875 425.4375,686.1875 Q426.1719,686.1875 426.8125,686.3594 Q427.4688,686.5156 428.0156,686.875 Z " fill="#000000"/><text fill="#000000" font-family="sans-serif" font-size="14" lengthAdjust="spacing" textLength="68" x="439.25" y="696.7285">TicTacToe</text><line style="stroke:#181818;stroke-width:0.5;" x1="411.25" x2="509.25" y1="707" y2="707"/><line style="stroke:#181818;stroke-width:0.5;" x1="411.25" x2="509.25" y1="715" y2="715"/></g><!--MD5=[52855fec3bcd5e41561eba29dc142e36]
class TicTacToePlayer--><g id="elem_TicTacToePlayer"><rect codeLine="26" fill="#F1F1F1" height="48" id="TicTacToePlayer" rx="2.5" ry="2.5" style="stroke:#181818;stroke-width:0.5;" width="140" x="399.25" y="792"/><ellipse cx="414.25" cy="808" fill="#B4A7E5" rx="11" ry="11" style="stroke:#181818;stroke-width:1.0;"/><path d="M415.2031,804.6406 L415.2031,811.2969 L416.9219,811.2969 Q417.5313,811.2969 417.7969,811.5313 Q418.0625,811.7656 418.0625,812.1563 Q418.0625,812.5313 417.7969,812.7656 Q417.5313,813 416.9219,813 L411.7813,813 Q411.1719,813 410.9063,812.7656 Q410.6406,812.5313 410.6406,812.1406 Q410.6406,811.7656 410.9063,811.5313 Q411.1719,811.2969 411.7813,811.2969 L413.5,811.2969 L413.5,804.6406 L411.7813,804.6406 Q411.1719,804.6406 410.9063,804.4063 Q410.6406,804.1719 410.6406,803.7813 Q410.6406,803.4063 410.9063,803.1719 Q411.1719,802.9375 411.7813,802.9375 L416.9219,802.9375 Q417.5313,802.9375 417.7969,803.1719 Q418.0625,803.4063 418.0625,803.7813 Q418.0625,804.1719 417.7969,804.4063 Q417.5313,804.6406 416.9219,804.6406 L415.2031,804.6406 Z " fill="#000000"/><text fill="#000000" font-family="sans-serif" font-size="14" font-style="italic" lengthAdjust="spacing" textLength="108" x="428.25" y="813.7285">TicTacToePlayer</text><line style="stroke:#181818;stroke-width:0.5;" x1="400.25" x2="538.25" y1="824" y2="824"/><line style="stroke:#181818;stroke-width:0.5;" x1="400.25" x2="538.25" y1="832" y2="832"/></g><!--MD5=[d7731e51439e3250c63a8cdcafb59da5]
class HangMan--><g id="elem_HangMan"><rect codeLine="31" fill="#F1F1F1" height="48" id="HangMan" rx="2.5" ry="2.5" style="stroke:#181818;stroke-width:0.5;" width="92" x="89.25" y="675"/><ellipse cx="104.25" cy="691" fill="#ADD1B2" rx="11" ry="11" style="stroke:#181818;stroke-width:1.0;"/><path d="M107.0156,686.875 Q107.1719,686.6563 107.3594,686.5469 Q107.5469,686.4375 107.7656,686.4375 Q108.1406,686.4375 108.375,686.7031 Q108.6094,686.9531 108.6094,687.5625 L108.6094,689.0156 Q108.6094,689.625 108.375,689.8906 Q108.1406,690.1563 107.7656,690.1563 Q107.4219,690.1563 107.2188,689.9531 Q107.0156,689.7656 106.9063,689.25 Q106.8594,688.8906 106.6719,688.7031 Q106.3438,688.3281 105.7344,688.1094 Q105.125,687.8906 104.5,687.8906 Q103.7344,687.8906 103.0938,688.2188 Q102.4688,688.5469 101.9688,689.2969 Q101.4844,690.0469 101.4844,691.0781 L101.4844,692.1719 Q101.4844,693.4063 102.375,694.2344 Q103.2656,695.0469 104.8594,695.0469 Q105.7969,695.0469 106.4531,694.7969 Q106.8438,694.6406 107.2656,694.2031 Q107.5313,693.9375 107.6719,693.8594 Q107.8281,693.7813 108.0313,693.7813 Q108.3594,693.7813 108.6094,694.0469 Q108.875,694.2969 108.875,694.6406 Q108.875,694.9844 108.5313,695.3906 Q108.0313,695.9688 107.2344,696.2969 Q106.1563,696.75 104.8594,696.75 Q103.3438,696.75 102.1406,696.125 Q101.1563,695.625 100.4688,694.5625 Q99.7813,693.4844 99.7813,692.2031 L99.7813,691.0469 Q99.7813,689.7188 100.3906,688.5781 Q101.0156,687.4219 102.1094,686.8125 Q103.2031,686.1875 104.4375,686.1875 Q105.1719,686.1875 105.8125,686.3594 Q106.4688,686.5156 107.0156,686.875 Z " fill="#000000"/><text fill="#000000" font-family="sans-serif" font-size="14" lengthAdjust="spacing" textLength="60" x="118.25" y="696.7285">HangMan</text><line style="stroke:#181818;stroke-width:0.5;" x1="90.25" x2="180.25" y1="707" y2="707"/><line style="stroke:#181818;stroke-width:0.5;" x1="90.25" x2="180.25" y1="715" y2="715"/></g><!--MD5=[4fcb596d3bf48611d01498558103c6f0]
class HangManPlayer--><g id="elem_HangManPlayer"><rect codeLine="34" fill="#F1F1F1" height="48" id="HangManPlayer" rx="2.5" ry="2.5" style="stroke:#181818;stroke-width:0.5;" width="134" x="59.25" y="792"/><ellipse cx="74.25" cy="808" fill="#B4A7E5" rx="11" ry="11" style="stroke:#181818;stroke-width:1.0;"/><path d="M75.2031,804.6406 L75.2031,811.2969 L76.9219,811.2969 Q77.5313,811.2969 77.7969,811.5313 Q78.0625,811.7656 78.0625,812.1563 Q78.0625,812.5313 77.7969,812.7656 Q77.5313,813 76.9219,813 L71.7813,813 Q71.1719,813 70.9063,812.7656 Q70.6406,812.5313 70.6406,812.1406 Q70.6406,811.7656 70.9063,811.5313 Q71.1719,811.2969 71.7813,811.2969 L73.5,811.2969 L73.5,804.6406 L71.7813,804.6406 Q71.1719,804.6406 70.9063,804.4063 Q70.6406,804.1719 70.6406,803.7813 Q70.6406,803.4063 70.9063,803.1719 Q71.1719,802.9375 71.7813,802.9375 L76.9219,802.9375 Q77.5313,802.9375 77.7969,803.1719 Q78.0625,803.4063 78.0625,803.7813 Q78.0625,804.1719 77.7969,804.4063 Q77.5313,804.6406 76.9219,804.6406 L75.2031,804.6406 Z " fill="#000000"/><text fill="#000000" font-family="sans-serif" font-size="14" font-style="italic" lengthAdjust="spacing" textLength="102" x="88.25" y="813.7285">HangManPlayer</text><line style="stroke:#181818;stroke-width:0.5;" x1="60.25" x2="192.25" y1="824" y2="824"/><line style="stroke:#181818;stroke-width:0.5;" x1="60.25" x2="192.25" y1="832" y2="832"/></g><!--MD5=[f7a9ae25cb0ac60c5f03b7bfd778cce3]
class Dice--><g id="elem_Dice"><rect codeLine="47" fill="#F1F1F1" height="65.6094" id="Dice" rx="2.5" ry="2.5" style="stroke:#181818;stroke-width:0.5;" width="207" x="89.75" y="274"/><ellipse cx="175" cy="290" fill="#ADD1B2" rx="11" ry="11" style="stroke:#181818;stroke-width:1.0;"/><path d="M177.7656,285.875 Q177.9219,285.6563 178.1094,285.5469 Q178.2969,285.4375 178.5156,285.4375 Q178.8906,285.4375 179.125,285.7031 Q179.3594,285.9531 179.3594,286.5625 L179.3594,288.0156 Q179.3594,288.625 179.125,288.8906 Q178.8906,289.1563 178.5156,289.1563 Q178.1719,289.1563 177.9688,288.9531 Q177.7656,288.7656 177.6563,288.25 Q177.6094,287.8906 177.4219,287.7031 Q177.0938,287.3281 176.4844,287.1094 Q175.875,286.8906 175.25,286.8906 Q174.4844,286.8906 173.8438,287.2188 Q173.2188,287.5469 172.7188,288.2969 Q172.2344,289.0469 172.2344,290.0781 L172.2344,291.1719 Q172.2344,292.4063 173.125,293.2344 Q174.0156,294.0469 175.6094,294.0469 Q176.5469,294.0469 177.2031,293.7969 Q177.5938,293.6406 178.0156,293.2031 Q178.2813,292.9375 178.4219,292.8594 Q178.5781,292.7813 178.7813,292.7813 Q179.1094,292.7813 179.3594,293.0469 Q179.625,293.2969 179.625,293.6406 Q179.625,293.9844 179.2813,294.3906 Q178.7813,294.9688 177.9844,295.2969 Q176.9063,295.75 175.6094,295.75 Q174.0938,295.75 172.8906,295.125 Q171.9063,294.625 171.2188,293.5625 Q170.5313,292.4844 170.5313,291.2031 L170.5313,290.0469 Q170.5313,288.7188 171.1406,287.5781 Q171.7656,286.4219 172.8594,285.8125 Q173.9531,285.1875 175.1875,285.1875 Q175.9219,285.1875 176.5625,285.3594 Q177.2188,285.5156 177.7656,285.875 Z " fill="#000000"/><text fill="#000000" font-family="sans-serif" font-size="14" lengthAdjust="spacing" textLength="28" x="195.5" y="295.7285">Dice</text><line style="stroke:#181818;stroke-width:0.5;" x1="90.75" x2="295.75" y1="306" y2="306"/><line style="stroke:#181818;stroke-width:0.5;" x1="90.75" x2="295.75" y1="314" y2="314"/><ellipse cx="100.75" cy="325" fill="#84BE84" rx="3" ry="3" style="stroke:#038048;stroke-width:1.0;"/><text fill="#000000" font-family="sans-serif" font-size="14" lengthAdjust="spacing" textLength="181" x="109.75" y="332.5332">int generateValue(int bound)</text></g><!--MD5=[82a37a108f28ded8fb022e1a5df25ae5]
class ListOfPlayers--><g id="elem_ListOfPlayers"><rect codeLine="55" fill="#F1F1F1" height="136.0469" id="ListOfPlayers" rx="2.5" ry="2.5" style="stroke:#181818;stroke-width:0.5;" width="199" x="721.75" y="239"/><ellipse cx="775" cy="255" fill="#ADD1B2" rx="11" ry="11" style="stroke:#181818;stroke-width:1.0;"/><path d="M777.7656,250.875 Q777.9219,250.6563 778.1094,250.5469 Q778.2969,250.4375 778.5156,250.4375 Q778.8906,250.4375 779.125,250.7031 Q779.3594,250.9531 779.3594,251.5625 L779.3594,253.0156 Q779.3594,253.625 779.125,253.8906 Q778.8906,254.1563 778.5156,254.1563 Q778.1719,254.1563 777.9688,253.9531 Q777.7656,253.7656 777.6563,253.25 Q777.6094,252.8906 777.4219,252.7031 Q777.0938,252.3281 776.4844,252.1094 Q775.875,251.8906 775.25,251.8906 Q774.4844,251.8906 773.8438,252.2188 Q773.2188,252.5469 772.7188,253.2969 Q772.2344,254.0469 772.2344,255.0781 L772.2344,256.1719 Q772.2344,257.4063 773.125,258.2344 Q774.0156,259.0469 775.6094,259.0469 Q776.5469,259.0469 777.2031,258.7969 Q777.5938,258.6406 778.0156,258.2031 Q778.2813,257.9375 778.4219,257.8594 Q778.5781,257.7813 778.7813,257.7813 Q779.1094,257.7813 779.3594,258.0469 Q779.625,258.2969 779.625,258.6406 Q779.625,258.9844 779.2813,259.3906 Q778.7813,259.9688 777.9844,260.2969 Q776.9063,260.75 775.6094,260.75 Q774.0938,260.75 772.8906,260.125 Q771.9063,259.625 771.2188,258.5625 Q770.5313,257.4844 770.5313,256.2031 L770.5313,255.0469 Q770.5313,253.7188 771.1406,252.5781 Q771.7656,251.4219 772.8594,250.8125 Q773.9531,250.1875 775.1875,250.1875 Q775.9219,250.1875 776.5625,250.3594 Q777.2188,250.5156 777.7656,250.875 Z " fill="#000000"/><text fill="#000000" font-family="sans-serif" font-size="14" lengthAdjust="spacing" textLength="84" x="795.5" y="260.7285">ListOfPlayers</text><line style="stroke:#181818;stroke-width:0.5;" x1="722.75" x2="919.75" y1="271" y2="271"/><line style="stroke:#181818;stroke-width:0.5;" x1="722.75" x2="919.75" y1="279" y2="279"/><ellipse cx="732.75" cy="290" fill="#84BE84" rx="3" ry="3" style="stroke:#038048;stroke-width:1.0;"/><text fill="#000000" font-family="sans-serif" font-size="14" lengthAdjust="spacing" textLength="173" x="741.75" y="297.5332">createPlayer(Player player)</text><ellipse cx="732.75" cy="307.6094" fill="#84BE84" rx="3" ry="3" style="stroke:#038048;stroke-width:1.0;"/><text fill="#000000" font-family="sans-serif" font-size="14" lengthAdjust="spacing" textLength="100" x="741.75" y="315.1426">getPlayer(int id)</text><ellipse cx="732.75" cy="325.2188" fill="#84BE84" rx="3" ry="3" style="stroke:#038048;stroke-width:1.0;"/><text fill="#000000" font-family="sans-serif" font-size="14" lengthAdjust="spacing" textLength="52" x="741.75" y="332.752">getList()</text><ellipse cx="732.75" cy="342.8281" fill="#84BE84" rx="3" ry="3" style="stroke:#038048;stroke-width:1.0;"/><text fill="#000000" font-family="sans-serif" font-size="14" lengthAdjust="spacing" textLength="60" x="741.75" y="350.3613">printList()</text><ellipse cx="732.75" cy="360.4375" fill="#84BE84" rx="3" ry="3" style="stroke:#038048;stroke-width:1.0;"/><text fill="#000000" font-family="sans-serif" font-size="14" lengthAdjust="spacing" textLength="158" x="741.75" y="367.9707">getGamePlayers(int size)</text></g><!--MD5=[e10552ebcc634954ffb254e345666c67]
class GamesPlatform--><g id="elem_GamesPlatform"><rect codeLine="2" fill="#F1F1F1" height="171.2656" id="GamesPlatform" rx="2.5" ry="2.5" style="stroke:#181818;stroke-width:0.5;" width="193" x="568.75" y="7"/><ellipse cx="612.55" cy="23" fill="#ADD1B2" rx="11" ry="11" style="stroke:#181818;stroke-width:1.0;"/><path d="M615.3156,18.875 Q615.4719,18.6563 615.6594,18.5469 Q615.8469,18.4375 616.0656,18.4375 Q616.4406,18.4375 616.675,18.7031 Q616.9094,18.9531 616.9094,19.5625 L616.9094,21.0156 Q616.9094,21.625 616.675,21.8906 Q616.4406,22.1563 616.0656,22.1563 Q615.7219,22.1563 615.5188,21.9531 Q615.3156,21.7656 615.2063,21.25 Q615.1594,20.8906 614.9719,20.7031 Q614.6438,20.3281 614.0344,20.1094 Q613.425,19.8906 612.8,19.8906 Q612.0344,19.8906 611.3938,20.2188 Q610.7688,20.5469 610.2688,21.2969 Q609.7844,22.0469 609.7844,23.0781 L609.7844,24.1719 Q609.7844,25.4063 610.675,26.2344 Q611.5656,27.0469 613.1594,27.0469 Q614.0969,27.0469 614.7531,26.7969 Q615.1438,26.6406 615.5656,26.2031 Q615.8313,25.9375 615.9719,25.8594 Q616.1281,25.7813 616.3313,25.7813 Q616.6594,25.7813 616.9094,26.0469 Q617.175,26.2969 617.175,26.6406 Q617.175,26.9844 616.8313,27.3906 Q616.3313,27.9688 615.5344,28.2969 Q614.4563,28.75 613.1594,28.75 Q611.6438,28.75 610.4406,28.125 Q609.4563,27.625 608.7688,26.5625 Q608.0813,25.4844 608.0813,24.2031 L608.0813,23.0469 Q608.0813,21.7188 608.6906,20.5781 Q609.3156,19.4219 610.4094,18.8125 Q611.5031,18.1875 612.7375,18.1875 Q613.4719,18.1875 614.1125,18.3594 Q614.7688,18.5156 615.3156,18.875 Z " fill="#000000"/><text fill="#000000" font-family="sans-serif" font-size="14" lengthAdjust="spacing" textLength="97" x="632.95" y="28.7285">GamesPlatform</text><line style="stroke:#181818;stroke-width:0.5;" x1="569.75" x2="760.75" y1="39" y2="39"/><rect fill="none" height="6" style="stroke:#C82930;stroke-width:1.0;" width="6" x="576.75" y="47"/><text fill="#000000" font-family="sans-serif" font-size="14" lengthAdjust="spacing" textLength="167" x="588.75" y="57.5332">ListOfPlayers listOfPlayers</text><rect fill="none" height="6" style="stroke:#C82930;stroke-width:1.0;" width="6" x="576.75" y="64.6094"/><text fill="#000000" font-family="sans-serif" font-size="14" lengthAdjust="spacing" textLength="92" x="588.75" y="75.1426">Game[] games</text><line style="stroke:#181818;stroke-width:0.5;" x1="569.75" x2="760.75" y1="82.2188" y2="82.2188"/><ellipse cx="579.75" cy="93.2188" fill="#84BE84" rx="3" ry="3" style="stroke:#038048;stroke-width:1.0;"/><text fill="#000000" font-family="sans-serif" font-size="14" lengthAdjust="spacing" textLength="89" x="588.75" y="100.752">showPlayers()</text><ellipse cx="579.75" cy="110.8281" fill="#84BE84" rx="3" ry="3" style="stroke:#038048;stroke-width:1.0;"/><text fill="#000000" font-family="sans-serif" font-size="14" lengthAdjust="spacing" textLength="90" x="588.75" y="118.3613">createPlayer()</text><ellipse cx="579.75" cy="128.4375" fill="#84BE84" rx="3" ry="3" style="stroke:#038048;stroke-width:1.0;"/><text fill="#000000" font-family="sans-serif" font-size="14" lengthAdjust="spacing" textLength="151" x="588.75" y="135.9707">playGame(Game game)</text><ellipse cx="579.75" cy="146.0469" fill="#84BE84" rx="3" ry="3" style="stroke:#038048;stroke-width:1.0;"/><text fill="#000000" font-family="sans-serif" font-size="14" lengthAdjust="spacing" textLength="77" x="588.75" y="153.5801">showMenu()</text><ellipse cx="579.75" cy="163.6563" fill="#84BE84" rx="3" ry="3" style="stroke:#038048;stroke-width:1.0;"/><text fill="#000000" font-family="sans-serif" font-size="14" lengthAdjust="spacing" textLength="31" x="588.75" y="171.1895">run()</text></g><!--MD5=[0d127b7eaffccbf39ca499f660c3ff47]
reverse link GamesPlatform to Game--><g id="link_GamesPlatform_Game"><path codeLine="64" d="M567.94,187.5 C491.38,261.46 385.64,363.6 311.74,434.99 " fill="none" id="GamesPlatform-backto-Game" style="stroke:#181818;stroke-width:1.0;"/><polygon fill="#181818" points="577.6,178.17,570.5058,179.4632,568.971,186.5091,576.0652,185.2159,577.6,178.17" style="stroke:#181818;stroke-width:1.0;"/><text fill="#000000" font-family="sans-serif" font-size="13" lengthAdjust="spacing" textLength="7" x="312.2204" y="424.1607">2</text></g><!--MD5=[4f0b8b0aa154162cf8914066de6ffb6f]
reverse link GamesPlatform to ListOfPlayers--><g id="link_GamesPlatform_ListOfPlayers"><path codeLine="65" d="M735.39,189.04 C747.69,205.8 760.26,222.92 771.85,238.7 " fill="none" id="GamesPlatform-backto-ListOfPlayers" style="stroke:#181818;stroke-width:1.0;"/><polygon fill="#181818" points="727.35,178.1,727.6819,185.3035,734.4589,187.7676,734.127,180.5642,727.35,178.1" style="stroke:#181818;stroke-width:1.0;"/></g><!--MD5=[cd7b7cdda17f869f9fc85669e8e234a7]
reverse link Game to TicTacToe--><g id="link_Game_TicTacToe"><path codeLine="67" d="M390.93,618.32 C396.19,622.47 401.32,626.7 406.25,631 C421,643.86 434.8,661.1 444.75,674.88 " fill="none" id="Game-backto-TicTacToe" style="stroke:#181818;stroke-width:1.0;"/><polygon fill="none" points="386.51,623.75,374.76,606.12,394.94,612.58,386.51,623.75" style="stroke:#181818;stroke-width:1.0;"/></g><!--MD5=[c546b7854fad86f2e7b29095c925cc3f]
reverse link Game to HangMan--><g id="link_Game_HangMan"><path codeLine="68" d="M172.48,624.17 C162.87,643.23 153.72,661.37 146.9,674.89 " fill="none" id="Game-backto-HangMan" style="stroke:#181818;stroke-width:1.0;"/><polygon fill="none" points="166.32,620.84,181.57,606.13,178.82,627.14,166.32,620.84" style="stroke:#181818;stroke-width:1.0;"/></g><!--MD5=[593bbcbda1bd8166e08a1f52ab0f20e0]
link Game to GamePlayersProvider--><g id="link_Game_GamePlayersProvider"><path codeLine="69" d="M376.04,520.5 C386.02,520.5 396,520.5 405.98,520.5 " fill="none" id="Game-to-GamePlayersProvider" style="stroke:#181818;stroke-width:1.0;"/><polygon fill="#181818" points="411.2,520.5,402.2,516.5,406.2,520.5,402.2,524.5,411.2,520.5" style="stroke:#181818;stroke-width:1.0;"/></g><!--MD5=[68141e9e86f72c1320468e2ef129f5b1]
reverse link Game to GamePlayer--><g id="link_Game_GamePlayer"><path codeLine="70" d="M263.85,618.57 C270.79,635.59 277.56,652.17 283.09,665.74 " fill="none" id="Game-backto-GamePlayer" style="stroke:#181818;stroke-width:1.0;"/><polygon fill="#181818" points="258.77,606.13,257.3334,613.1966,263.3038,617.2405,264.7404,610.174,258.77,606.13" style="stroke:#181818;stroke-width:1.0;"/></g><!--MD5=[6765ed303bfadf62068277bd9461ef4c]
reverse link Dice to Game--><g id="link_Dice_Game"><path codeLine="72" d="M198.71,345.28 C202.35,370.12 207.29,403.79 211.85,434.91 " fill="none" id="Dice-backto-Game" style="stroke:#181818;stroke-width:1.0;stroke-dasharray:7.0,7.0;"/><polygon fill="#181818" points="197.96,340.12,195.2883,349.5996,198.6751,345.0686,203.2061,348.4554,197.96,340.12" style="stroke:#181818;stroke-width:1.0;"/></g><!--MD5=[ce735c1cdd387ffa44cb012fb47a3a5a]
reverse link Dice to GamePlayer--><g id="link_Dice_GamePlayer"><path codeLine="73" d="M136.64,343 C106.37,365.2 71.96,396.91 55.25,435 C24.72,504.6 6,548.11 55.25,606 C100.18,658.81 145.62,603.45 209.25,631 C228.67,639.41 247.6,653.12 262.82,665.96 " fill="none" id="Dice-backto-GamePlayer" style="stroke:#181818;stroke-width:1.0;stroke-dasharray:7.0,7.0;"/><polygon fill="#181818" points="140.69,340.07,131.0561,342.1165,136.6426,343.0058,135.7533,348.5923,140.69,340.07" style="stroke:#181818;stroke-width:1.0;"/></g><!--MD5=[46ba9c7d925c82f4e4391cfab8746e42]
link ListOfPlayers to GamePlayersProvider--><g id="link_ListOfPlayers_GamePlayersProvider"><path codeLine="75" d="M731.32,375.21 C687.51,407.95 636.07,446.39 597.31,475.36 " fill="none" id="ListOfPlayers-to-GamePlayersProvider" style="stroke:#181818;stroke-width:1.0;stroke-dasharray:7.0,7.0;"/><polygon fill="none" points="601.47,480.99,581.26,487.35,593.09,469.77,601.47,480.99" style="stroke:#181818;stroke-width:1.0;"/></g><!--MD5=[eaa24b4cc8088d78c8cc32e187f27c9c]
reverse link TicTacToe to TicTacToePlayer--><g id="link_TicTacToe_TicTacToePlayer"><path codeLine="77" d="M463.1,736.36 C464.51,754.48 466.19,775.87 467.43,791.76 " fill="none" id="TicTacToe-backto-TicTacToePlayer" style="stroke:#181818;stroke-width:1.0;"/><polygon fill="#181818" points="462.07,723.27,458.5504,729.5639,463.0065,735.2334,466.526,728.9395,462.07,723.27" style="stroke:#181818;stroke-width:1.0;"/></g><!--MD5=[15dfa4038ecb1d0265e5de62595b8206]
reverse link HangMan to HangManPlayer--><g id="link_HangMan_HangManPlayer"><path codeLine="78" d="M132.4,736.36 C130.99,754.48 129.31,775.87 128.07,791.76 " fill="none" id="HangMan-backto-HangManPlayer" style="stroke:#181818;stroke-width:1.0;"/><polygon fill="#181818" points="133.43,723.27,128.974,728.9395,132.4935,735.2334,136.9496,729.5639,133.43,723.27" style="stroke:#181818;stroke-width:1.0;"/></g><!--MD5=[f035fe94b578ef28dcd9ab9faba0353b]
link GamePlayer to TicTacToePlayer--><g id="link_GamePlayer_TicTacToePlayer"><path codeLine="80" d="M344.44,732.03 C367.23,747.18 394.46,765.28 417.66,780.71 " fill="none" id="GamePlayer-to-TicTacToePlayer" style="stroke:#181818;stroke-width:1.0;stroke-dasharray:7.0,7.0;"/><polygon fill="none" points="421.7,774.98,434.48,791.89,413.95,786.64,421.7,774.98" style="stroke:#181818;stroke-width:1.0;"/></g><!--MD5=[7b89c8d866bbdd88a385102d785eb496]
link GamePlayer to HangManPlayer--><g id="link_GamePlayer_HangManPlayer"><path codeLine="81" d="M248.9,732.03 C226.61,747.11 200.01,765.1 177.28,780.48 " fill="none" id="GamePlayer-to-HangManPlayer" style="stroke:#181818;stroke-width:1.0;stroke-dasharray:7.0,7.0;"/><polygon fill="none" points="180.91,786.48,160.42,791.89,173.06,774.88,180.91,786.48" style="stroke:#181818;stroke-width:1.0;"/></g><!--MD5=[ba58556af636a02b7c600330bad5c153]
@startuml ClassDiagramMain-WithoutModel

class GamesPlatform {
    -ListOfPlayers listOfPlayers
    -Game[] games
    +showPlayers()
    +createPlayer()
    +playGame(Game game)
    +showMenu()
    +run()
}

package game {
    abstract class Game {
        # GamePlayer[] gamePlayers
        # GamePlayersProvider gamePlayersProvider
        + Introduction()
        + Resume()
        + {abstract}Execute()
        # AssignRoles (GamePlayer[] gamePlayers)
        # flipRoles (GamePlayer[] gamePlayers)
    }
    package tictactoe {
        class TicTacToe {

        }
        interface TicTacToePlayer {

        }
    }
    package hangman {
        class HangMan {

        }
        interface HangManPlayer{

        }
    }

    interface GamePlayer {
        + processResult(int)
    }
    interface GamePlayersProvider {
        + getGamePlayers(int) : GamePlayer[]
    }

    package utils {
        class Dice{
            + int generateValue(int bound)
        }
    }

}

package player {
    class ListOfPlayers {
        +createPlayer(Player player)
        +getPlayer(int id)
        +getList()
        +printList()
        +getGamePlayers(int size)
    }
}

GamesPlatform *- - "2" Game
GamesPlatform *- - ListOfPlayers

Game <|- - TicTacToe
Game <|- - HangMan
Game -right-> GamePlayersProvider
Game *- - GamePlayer

Dice <.. Game
Dice <.. GamePlayer

ListOfPlayers ..|> GamePlayersProvider

TicTacToe *- - TicTacToePlayer
HangMan *- - HangManPlayer

GamePlayer ..|> TicTacToePlayer
GamePlayer ..|> HangManPlayer

@enduml

PlantUML version 1.2022.5(Sat Apr 30 04:55:52 CST 2022)
(GPL source distribution)
Java Runtime: Java(TM) SE Runtime Environment
JVM: Java HotSpot(TM) 64-Bit Server VM
Default Encoding: Cp1252
Language: en
Country: US
--></g></svg>