<?xml version="1.0" encoding="UTF-8" standalone="no"?><svg xmlns="http://www.w3.org/2000/svg" xmlns:xlink="http://www.w3.org/1999/xlink" contentStyleType="text/css" height="1076px" preserveAspectRatio="none" style="width:597px;height:1076px;background:#FFFFFF;" version="1.1" viewBox="0 0 597 1076" width="597px" zoomAndPan="magnify"><defs/><g><!--MD5=[42603eecb267091c13893a16d8c379fb]
cluster player--><g id="cluster_player"><path d="M308.5,6 L352.5,6 A3.75,3.75 0 0 1 355,8.5 L362,29.6094 L535.5,29.6094 A2.5,2.5 0 0 1 538,32.1094 L538,191.5 A2.5,2.5 0 0 1 535.5,194 L308.5,194 A2.5,2.5 0 0 1 306,191.5 L306,8.5 A2.5,2.5 0 0 1 308.5,6 " style="stroke:#000000;stroke-width:1.5;fill:none;"/><line style="stroke:#000000;stroke-width:1.5;fill:none;" x1="306" x2="362" y1="29.6094" y2="29.6094"/><text fill="#000000" font-family="sans-serif" font-size="14" font-weight="bold" lengthAdjust="spacing" textLength="43" x="310" y="22.5332">player</text></g><!--MD5=[3e81cc6ee7da4fa8b6adc12b329096f6]
cluster util--><g id="cluster_util"><path d="M8.5,380.5 L31.5,380.5 A3.75,3.75 0 0 1 34,383 L41,404.1094 L227.5,404.1094 A2.5,2.5 0 0 1 230,406.6094 L230,496 A2.5,2.5 0 0 1 227.5,498.5 L8.5,498.5 A2.5,2.5 0 0 1 6,496 L6,383 A2.5,2.5 0 0 1 8.5,380.5 " style="stroke:#000000;stroke-width:1.5;fill:none;"/><line style="stroke:#000000;stroke-width:1.5;fill:none;" x1="6" x2="41" y1="404.1094" y2="404.1094"/><text fill="#000000" font-family="sans-serif" font-size="14" font-weight="bold" lengthAdjust="spacing" textLength="22" x="10" y="397.0332">util</text></g><!--MD5=[897ec0ebfd0fc927406c2620cf205ed0]
cluster ttt--><g id="cluster_ttt"><path d="M256.5,328 L272.5,328 A3.75,3.75 0 0 1 275,330.5 L282,351.6094 L587.5,351.6094 A2.5,2.5 0 0 1 590,354.1094 L590,1066.5 A2.5,2.5 0 0 1 587.5,1069 L256.5,1069 A2.5,2.5 0 0 1 254,1066.5 L254,330.5 A2.5,2.5 0 0 1 256.5,328 " style="stroke:#000000;stroke-width:1.5;fill:none;"/><line style="stroke:#000000;stroke-width:1.5;fill:none;" x1="254" x2="282" y1="351.6094" y2="351.6094"/><text fill="#000000" font-family="sans-serif" font-size="14" font-weight="bold" lengthAdjust="spacing" textLength="15" x="258" y="344.5332">ttt</text></g><!--MD5=[82a37a108f28ded8fb022e1a5df25ae5]
class ListOfPlayers--><g id="elem_ListOfPlayers"><rect codeLine="3" fill="#F1F1F1" height="136.0469" id="ListOfPlayers" rx="2.5" ry="2.5" style="stroke:#181818;stroke-width:0.5;" width="199" x="322.5" y="42"/><ellipse cx="375.75" cy="58" fill="#ADD1B2" rx="11" ry="11" style="stroke:#181818;stroke-width:1.0;"/><path d="M378.5156,53.875 Q378.6719,53.6563 378.8594,53.5469 Q379.0469,53.4375 379.2656,53.4375 Q379.6406,53.4375 379.875,53.7031 Q380.1094,53.9531 380.1094,54.5625 L380.1094,56.0156 Q380.1094,56.625 379.875,56.8906 Q379.6406,57.1563 379.2656,57.1563 Q378.9219,57.1563 378.7188,56.9531 Q378.5156,56.7656 378.4063,56.25 Q378.3594,55.8906 378.1719,55.7031 Q377.8438,55.3281 377.2344,55.1094 Q376.625,54.8906 376,54.8906 Q375.2344,54.8906 374.5938,55.2188 Q373.9688,55.5469 373.4688,56.2969 Q372.9844,57.0469 372.9844,58.0781 L372.9844,59.1719 Q372.9844,60.4063 373.875,61.2344 Q374.7656,62.0469 376.3594,62.0469 Q377.2969,62.0469 377.9531,61.7969 Q378.3438,61.6406 378.7656,61.2031 Q379.0313,60.9375 379.1719,60.8594 Q379.3281,60.7813 379.5313,60.7813 Q379.8594,60.7813 380.1094,61.0469 Q380.375,61.2969 380.375,61.6406 Q380.375,61.9844 380.0313,62.3906 Q379.5313,62.9688 378.7344,63.2969 Q377.6563,63.75 376.3594,63.75 Q374.8438,63.75 373.6406,63.125 Q372.6563,62.625 371.9688,61.5625 Q371.2813,60.4844 371.2813,59.2031 L371.2813,58.0469 Q371.2813,56.7188 371.8906,55.5781 Q372.5156,54.4219 373.6094,53.8125 Q374.7031,53.1875 375.9375,53.1875 Q376.6719,53.1875 377.3125,53.3594 Q377.9688,53.5156 378.5156,53.875 Z " fill="#000000"/><text fill="#000000" font-family="sans-serif" font-size="14" lengthAdjust="spacing" textLength="84" x="396.25" y="63.7285">ListOfPlayers</text><line style="stroke:#181818;stroke-width:0.5;" x1="323.5" x2="520.5" y1="74" y2="74"/><line style="stroke:#181818;stroke-width:0.5;" x1="323.5" x2="520.5" y1="82" y2="82"/><ellipse cx="333.5" cy="93" fill="#84BE84" rx="3" ry="3" style="stroke:#038048;stroke-width:1.0;"/><text fill="#000000" font-family="sans-serif" font-size="14" lengthAdjust="spacing" textLength="173" x="342.5" y="100.5332">createPlayer(Player player)</text><ellipse cx="333.5" cy="110.6094" fill="#84BE84" rx="3" ry="3" style="stroke:#038048;stroke-width:1.0;"/><text fill="#000000" font-family="sans-serif" font-size="14" lengthAdjust="spacing" textLength="100" x="342.5" y="118.1426">getPlayer(int id)</text><ellipse cx="333.5" cy="128.2188" fill="#84BE84" rx="3" ry="3" style="stroke:#038048;stroke-width:1.0;"/><text fill="#000000" font-family="sans-serif" font-size="14" lengthAdjust="spacing" textLength="52" x="342.5" y="135.752">getList()</text><ellipse cx="333.5" cy="145.8281" fill="#84BE84" rx="3" ry="3" style="stroke:#038048;stroke-width:1.0;"/><text fill="#000000" font-family="sans-serif" font-size="14" lengthAdjust="spacing" textLength="60" x="342.5" y="153.3613">printList()</text><ellipse cx="333.5" cy="163.4375" fill="#84BE84" rx="3" ry="3" style="stroke:#038048;stroke-width:1.0;"/><text fill="#000000" font-family="sans-serif" font-size="14" lengthAdjust="spacing" textLength="158" x="342.5" y="170.9707">getGamePlayers(int size)</text></g><!--MD5=[f7a9ae25cb0ac60c5f03b7bfd778cce3]
class Dice--><g id="elem_Dice"><rect codeLine="20" fill="#F1F1F1" height="65.6094" id="Dice" rx="2.5" ry="2.5" style="stroke:#181818;stroke-width:0.5;" width="192" x="22" y="416.5"/><ellipse cx="99.75" cy="432.5" fill="#ADD1B2" rx="11" ry="11" style="stroke:#181818;stroke-width:1.0;"/><path d="M102.5156,428.375 Q102.6719,428.1563 102.8594,428.0469 Q103.0469,427.9375 103.2656,427.9375 Q103.6406,427.9375 103.875,428.2031 Q104.1094,428.4531 104.1094,429.0625 L104.1094,430.5156 Q104.1094,431.125 103.875,431.3906 Q103.6406,431.6563 103.2656,431.6563 Q102.9219,431.6563 102.7188,431.4531 Q102.5156,431.2656 102.4063,430.75 Q102.3594,430.3906 102.1719,430.2031 Q101.8438,429.8281 101.2344,429.6094 Q100.625,429.3906 100,429.3906 Q99.2344,429.3906 98.5938,429.7188 Q97.9688,430.0469 97.4688,430.7969 Q96.9844,431.5469 96.9844,432.5781 L96.9844,433.6719 Q96.9844,434.9063 97.875,435.7344 Q98.7656,436.5469 100.3594,436.5469 Q101.2969,436.5469 101.9531,436.2969 Q102.3438,436.1406 102.7656,435.7031 Q103.0313,435.4375 103.1719,435.3594 Q103.3281,435.2813 103.5313,435.2813 Q103.8594,435.2813 104.1094,435.5469 Q104.375,435.7969 104.375,436.1406 Q104.375,436.4844 104.0313,436.8906 Q103.5313,437.4688 102.7344,437.7969 Q101.6563,438.25 100.3594,438.25 Q98.8438,438.25 97.6406,437.625 Q96.6563,437.125 95.9688,436.0625 Q95.2813,434.9844 95.2813,433.7031 L95.2813,432.5469 Q95.2813,431.2188 95.8906,430.0781 Q96.5156,428.9219 97.6094,428.3125 Q98.7031,427.6875 99.9375,427.6875 Q100.6719,427.6875 101.3125,427.8594 Q101.9688,428.0156 102.5156,428.375 Z " fill="#000000"/><text fill="#000000" font-family="sans-serif" font-size="14" lengthAdjust="spacing" textLength="28" x="120.25" y="438.2285">Dice</text><line style="stroke:#181818;stroke-width:0.5;" x1="23" x2="213" y1="448.5" y2="448.5"/><line style="stroke:#181818;stroke-width:0.5;" x1="23" x2="213" y1="456.5" y2="456.5"/><ellipse cx="33" cy="467.5" fill="#84BE84" rx="3" ry="3" style="stroke:#038048;stroke-width:1.0;"/><text fill="#000000" font-family="sans-serif" font-size="14" lengthAdjust="spacing" textLength="166" x="42" y="475.0332">generateValue (int bound)</text></g><!--MD5=[36f719b1cbc3f26b5758ea249b208fb4]
class TicTacToe--><g id="elem_TicTacToe"><rect codeLine="26" fill="#F1F1F1" height="171.2656" id="TicTacToe" rx="2.5" ry="2.5" style="stroke:#181818;stroke-width:0.5;" width="303" x="270.5" y="364"/><ellipse cx="383.75" cy="380" fill="#ADD1B2" rx="11" ry="11" style="stroke:#181818;stroke-width:1.0;"/><path d="M386.5156,375.875 Q386.6719,375.6563 386.8594,375.5469 Q387.0469,375.4375 387.2656,375.4375 Q387.6406,375.4375 387.875,375.7031 Q388.1094,375.9531 388.1094,376.5625 L388.1094,378.0156 Q388.1094,378.625 387.875,378.8906 Q387.6406,379.1563 387.2656,379.1563 Q386.9219,379.1563 386.7188,378.9531 Q386.5156,378.7656 386.4063,378.25 Q386.3594,377.8906 386.1719,377.7031 Q385.8438,377.3281 385.2344,377.1094 Q384.625,376.8906 384,376.8906 Q383.2344,376.8906 382.5938,377.2188 Q381.9688,377.5469 381.4688,378.2969 Q380.9844,379.0469 380.9844,380.0781 L380.9844,381.1719 Q380.9844,382.4063 381.875,383.2344 Q382.7656,384.0469 384.3594,384.0469 Q385.2969,384.0469 385.9531,383.7969 Q386.3438,383.6406 386.7656,383.2031 Q387.0313,382.9375 387.1719,382.8594 Q387.3281,382.7813 387.5313,382.7813 Q387.8594,382.7813 388.1094,383.0469 Q388.375,383.2969 388.375,383.6406 Q388.375,383.9844 388.0313,384.3906 Q387.5313,384.9688 386.7344,385.2969 Q385.6563,385.75 384.3594,385.75 Q382.8438,385.75 381.6406,385.125 Q380.6563,384.625 379.9688,383.5625 Q379.2813,382.4844 379.2813,381.2031 L379.2813,380.0469 Q379.2813,378.7188 379.8906,377.5781 Q380.5156,376.4219 381.6094,375.8125 Q382.7031,375.1875 383.9375,375.1875 Q384.6719,375.1875 385.3125,375.3594 Q385.9688,375.5156 386.5156,375.875 Z " fill="#000000"/><text fill="#000000" font-family="sans-serif" font-size="14" lengthAdjust="spacing" textLength="68" x="404.25" y="385.7285">TicTacToe</text><line style="stroke:#181818;stroke-width:0.5;" x1="271.5" x2="572.5" y1="396" y2="396"/><polygon fill="none" points="281.5,402,285.5,406,281.5,410,277.5,406" style="stroke:#B38D22;stroke-width:1.0;"/><text fill="#000000" font-family="sans-serif" font-size="14" lengthAdjust="spacing" textLength="172" x="290.5" y="414.5332">GamePlayer[] gamePlayers</text><polygon fill="none" points="281.5,419.6094,285.5,423.6094,281.5,427.6094,277.5,423.6094" style="stroke:#B38D22;stroke-width:1.0;"/><text fill="#000000" font-family="sans-serif" font-size="14" lengthAdjust="spacing" textLength="277" x="290.5" y="432.1426">GamePlayersProvider gamePlayersProvider</text><line style="stroke:#181818;stroke-width:0.5;" x1="271.5" x2="572.5" y1="439.2188" y2="439.2188"/><ellipse cx="281.5" cy="450.2188" fill="#84BE84" rx="3" ry="3" style="stroke:#038048;stroke-width:1.0;"/><text fill="#000000" font-family="sans-serif" font-size="14" lengthAdjust="spacing" textLength="84" x="290.5" y="457.752">Introduction()</text><ellipse cx="281.5" cy="467.8281" fill="#84BE84" rx="3" ry="3" style="stroke:#038048;stroke-width:1.0;"/><text fill="#000000" font-family="sans-serif" font-size="14" lengthAdjust="spacing" textLength="62" x="290.5" y="475.3613">Resume()</text><ellipse cx="281.5" cy="485.4375" fill="#84BE84" rx="3" ry="3" style="stroke:#038048;stroke-width:1.0;"/><text fill="#000000" font-family="sans-serif" font-size="14" lengthAdjust="spacing" textLength="60" x="290.5" y="492.9707">Execute()</text><polygon fill="#FFFF44" points="281.5,498.0469,285.5,502.0469,281.5,506.0469,277.5,502.0469" style="stroke:#B38D22;stroke-width:1.0;"/><text fill="#000000" font-family="sans-serif" font-size="14" lengthAdjust="spacing" textLength="264" x="290.5" y="510.5801">AssignRoles (GamePlayer[] gamePlayers)</text><polygon fill="#FFFF44" points="281.5,515.6563,285.5,519.6563,281.5,523.6563,277.5,519.6563" style="stroke:#B38D22;stroke-width:1.0;"/><text fill="#000000" font-family="sans-serif" font-size="14" lengthAdjust="spacing" textLength="240" x="290.5" y="528.1895">flipRoles (GamePlayer[] gamePlayers)</text></g><!--MD5=[52855fec3bcd5e41561eba29dc142e36]
class TicTacToePlayer--><g id="elem_TicTacToePlayer"><rect codeLine="35" fill="#F1F1F1" height="65.6094" id="TicTacToePlayer" rx="2.5" ry="2.5" style="stroke:#181818;stroke-width:0.5;" width="140" x="270" y="721"/><ellipse cx="285" cy="737" fill="#B4A7E5" rx="11" ry="11" style="stroke:#181818;stroke-width:1.0;"/><path d="M285.9531,733.6406 L285.9531,740.2969 L287.6719,740.2969 Q288.2813,740.2969 288.5469,740.5313 Q288.8125,740.7656 288.8125,741.1563 Q288.8125,741.5313 288.5469,741.7656 Q288.2813,742 287.6719,742 L282.5313,742 Q281.9219,742 281.6563,741.7656 Q281.3906,741.5313 281.3906,741.1406 Q281.3906,740.7656 281.6563,740.5313 Q281.9219,740.2969 282.5313,740.2969 L284.25,740.2969 L284.25,733.6406 L282.5313,733.6406 Q281.9219,733.6406 281.6563,733.4063 Q281.3906,733.1719 281.3906,732.7813 Q281.3906,732.4063 281.6563,732.1719 Q281.9219,731.9375 282.5313,731.9375 L287.6719,731.9375 Q288.2813,731.9375 288.5469,732.1719 Q288.8125,732.4063 288.8125,732.7813 Q288.8125,733.1719 288.5469,733.4063 Q288.2813,733.6406 287.6719,733.6406 L285.9531,733.6406 Z " fill="#000000"/><text fill="#000000" font-family="sans-serif" font-size="14" font-style="italic" lengthAdjust="spacing" textLength="108" x="299" y="742.7285">TicTacToePlayer</text><line style="stroke:#181818;stroke-width:0.5;" x1="271" x2="409" y1="753" y2="753"/><line style="stroke:#181818;stroke-width:0.5;" x1="271" x2="409" y1="761" y2="761"/><ellipse cx="281" cy="772" fill="#84BE84" rx="3" ry="3" style="stroke:#038048;stroke-width:1.0;"/><text fill="#000000" font-family="sans-serif" font-size="14" lengthAdjust="spacing" textLength="61" x="290" y="779.5332">putMark()</text></g><!--MD5=[bf4cfa753ec0cd54a2bc4da97484874d]
class TurnTicTacToe--><g id="elem_TurnTicTacToe"><rect codeLine="38" fill="#F1F1F1" height="65.6094" id="TurnTicTacToe" rx="2.5" ry="2.5" style="stroke:#181818;stroke-width:0.5;" width="130" x="357" y="595"/><ellipse cx="372" cy="611" fill="#ADD1B2" rx="11" ry="11" style="stroke:#181818;stroke-width:1.0;"/><path d="M374.7656,606.875 Q374.9219,606.6563 375.1094,606.5469 Q375.2969,606.4375 375.5156,606.4375 Q375.8906,606.4375 376.125,606.7031 Q376.3594,606.9531 376.3594,607.5625 L376.3594,609.0156 Q376.3594,609.625 376.125,609.8906 Q375.8906,610.1563 375.5156,610.1563 Q375.1719,610.1563 374.9688,609.9531 Q374.7656,609.7656 374.6563,609.25 Q374.6094,608.8906 374.4219,608.7031 Q374.0938,608.3281 373.4844,608.1094 Q372.875,607.8906 372.25,607.8906 Q371.4844,607.8906 370.8438,608.2188 Q370.2188,608.5469 369.7188,609.2969 Q369.2344,610.0469 369.2344,611.0781 L369.2344,612.1719 Q369.2344,613.4063 370.125,614.2344 Q371.0156,615.0469 372.6094,615.0469 Q373.5469,615.0469 374.2031,614.7969 Q374.5938,614.6406 375.0156,614.2031 Q375.2813,613.9375 375.4219,613.8594 Q375.5781,613.7813 375.7813,613.7813 Q376.1094,613.7813 376.3594,614.0469 Q376.625,614.2969 376.625,614.6406 Q376.625,614.9844 376.2813,615.3906 Q375.7813,615.9688 374.9844,616.2969 Q373.9063,616.75 372.6094,616.75 Q371.0938,616.75 369.8906,616.125 Q368.9063,615.625 368.2188,614.5625 Q367.5313,613.4844 367.5313,612.2031 L367.5313,611.0469 Q367.5313,609.7188 368.1406,608.5781 Q368.7656,607.4219 369.8594,606.8125 Q370.9531,606.1875 372.1875,606.1875 Q372.9219,606.1875 373.5625,606.3594 Q374.2188,606.5156 374.7656,606.875 Z " fill="#000000"/><text fill="#000000" font-family="sans-serif" font-size="14" lengthAdjust="spacing" textLength="98" x="386" y="616.7285">TurnTicTacToe</text><line style="stroke:#181818;stroke-width:0.5;" x1="358" x2="486" y1="627" y2="627"/><line style="stroke:#181818;stroke-width:0.5;" x1="358" x2="486" y1="635" y2="635"/><ellipse cx="368" cy="646" fill="#84BE84" rx="3" ry="3" style="stroke:#038048;stroke-width:1.0;"/><text fill="#000000" font-family="sans-serif" font-size="14" lengthAdjust="spacing" textLength="36" x="377" y="653.5332">play()</text></g><!--MD5=[9563755d011c5cec7ec66dc53565a59e]
class Board--><g id="elem_Board"><rect codeLine="41" fill="#F1F1F1" height="206.4844" id="Board" rx="2.5" ry="2.5" style="stroke:#181818;stroke-width:0.5;" width="279" x="282.5" y="847"/><ellipse cx="398.75" cy="863" fill="#ADD1B2" rx="11" ry="11" style="stroke:#181818;stroke-width:1.0;"/><path d="M401.5156,858.875 Q401.6719,858.6563 401.8594,858.5469 Q402.0469,858.4375 402.2656,858.4375 Q402.6406,858.4375 402.875,858.7031 Q403.1094,858.9531 403.1094,859.5625 L403.1094,861.0156 Q403.1094,861.625 402.875,861.8906 Q402.6406,862.1563 402.2656,862.1563 Q401.9219,862.1563 401.7188,861.9531 Q401.5156,861.7656 401.4063,861.25 Q401.3594,860.8906 401.1719,860.7031 Q400.8438,860.3281 400.2344,860.1094 Q399.625,859.8906 399,859.8906 Q398.2344,859.8906 397.5938,860.2188 Q396.9688,860.5469 396.4688,861.2969 Q395.9844,862.0469 395.9844,863.0781 L395.9844,864.1719 Q395.9844,865.4063 396.875,866.2344 Q397.7656,867.0469 399.3594,867.0469 Q400.2969,867.0469 400.9531,866.7969 Q401.3438,866.6406 401.7656,866.2031 Q402.0313,865.9375 402.1719,865.8594 Q402.3281,865.7813 402.5313,865.7813 Q402.8594,865.7813 403.1094,866.0469 Q403.375,866.2969 403.375,866.6406 Q403.375,866.9844 403.0313,867.3906 Q402.5313,867.9688 401.7344,868.2969 Q400.6563,868.75 399.3594,868.75 Q397.8438,868.75 396.6406,868.125 Q395.6563,867.625 394.9688,866.5625 Q394.2813,865.4844 394.2813,864.2031 L394.2813,863.0469 Q394.2813,861.7188 394.8906,860.5781 Q395.5156,859.4219 396.6094,858.8125 Q397.7031,858.1875 398.9375,858.1875 Q399.6719,858.1875 400.3125,858.3594 Q400.9688,858.5156 401.5156,858.875 Z " fill="#000000"/><text fill="#000000" font-family="sans-serif" font-size="14" lengthAdjust="spacing" textLength="38" x="419.25" y="868.7285">Board</text><line style="stroke:#181818;stroke-width:0.5;" x1="283.5" x2="560.5" y1="879" y2="879"/><ellipse cx="293.5" cy="890" fill="none" rx="3" ry="3" style="stroke:#038048;stroke-width:1.0;"/><text fill="#000000" font-family="sans-serif" font-size="14" lengthAdjust="spacing" textLength="109" x="302.5" y="897.5332">EmptySquare = 9</text><line style="stroke:#181818;stroke-width:0.5;" x1="283.5" x2="560.5" y1="904.6094" y2="904.6094"/><ellipse cx="293.5" cy="915.6094" fill="#84BE84" rx="3" ry="3" style="stroke:#038048;stroke-width:1.0;"/><text fill="#000000" font-family="sans-serif" font-size="14" lengthAdjust="spacing" textLength="88" x="302.5" y="923.1426">createBoard()</text><ellipse cx="293.5" cy="933.2188" fill="#84BE84" rx="3" ry="3" style="stroke:#038048;stroke-width:1.0;"/><text fill="#000000" font-family="sans-serif" font-size="14" lengthAdjust="spacing" textLength="79" x="302.5" y="940.752">paintBoard()</text><ellipse cx="293.5" cy="950.8281" fill="#84BE84" rx="3" ry="3" style="stroke:#038048;stroke-width:1.0;"/><text fill="#000000" font-family="sans-serif" font-size="14" lengthAdjust="spacing" textLength="43" x="302.5" y="958.3613">isFull()</text><ellipse cx="293.5" cy="968.4375" fill="#84BE84" rx="3" ry="3" style="stroke:#038048;stroke-width:1.0;"/><text fill="#000000" font-family="sans-serif" font-size="14" lengthAdjust="spacing" textLength="253" x="302.5" y="975.9707">putPiece (Position position, Piece piece)</text><ellipse cx="293.5" cy="986.0469" fill="#84BE84" rx="3" ry="3" style="stroke:#038048;stroke-width:1.0;"/><text fill="#000000" font-family="sans-serif" font-size="14" lengthAdjust="spacing" textLength="75" x="302.5" y="993.5801">getWinner()</text><rect fill="#F24D5C" height="6" style="stroke:#C82930;stroke-width:1.0;" width="6" x="290.5" y="1000.6563"/><text fill="#000000" font-family="sans-serif" font-size="14" lengthAdjust="spacing" textLength="81" x="302.5" y="1011.1895">checkRows()</text><rect fill="#F24D5C" height="6" style="stroke:#C82930;stroke-width:1.0;" width="6" x="290.5" y="1018.2656"/><text fill="#000000" font-family="sans-serif" font-size="14" lengthAdjust="spacing" textLength="102" x="302.5" y="1028.7988">checkColumns()</text><rect fill="#F24D5C" height="6" style="stroke:#C82930;stroke-width:1.0;" width="6" x="290.5" y="1035.875"/><text fill="#000000" font-family="sans-serif" font-size="14" lengthAdjust="spacing" textLength="110" x="302.5" y="1046.4082">checkDiagonals()</text></g><!--MD5=[b0359cb538a0ce2cb72f54394993c3c4]
class GamePlayer--><g id="elem_GamePlayer"><rect codeLine="12" fill="#F1F1F1" height="65.6094" id="GamePlayer" rx="2.5" ry="2.5" style="stroke:#181818;stroke-width:0.5;" width="141" x="96.5" y="595"/><ellipse cx="125.45" cy="611" fill="#B4A7E5" rx="11" ry="11" style="stroke:#181818;stroke-width:1.0;"/><path d="M126.4031,607.6406 L126.4031,614.2969 L128.1219,614.2969 Q128.7313,614.2969 128.9969,614.5313 Q129.2625,614.7656 129.2625,615.1563 Q129.2625,615.5313 128.9969,615.7656 Q128.7313,616 128.1219,616 L122.9813,616 Q122.3719,616 122.1063,615.7656 Q121.8406,615.5313 121.8406,615.1406 Q121.8406,614.7656 122.1063,614.5313 Q122.3719,614.2969 122.9813,614.2969 L124.7,614.2969 L124.7,607.6406 L122.9813,607.6406 Q122.3719,607.6406 122.1063,607.4063 Q121.8406,607.1719 121.8406,606.7813 Q121.8406,606.4063 122.1063,606.1719 Q122.3719,605.9375 122.9813,605.9375 L128.1219,605.9375 Q128.7313,605.9375 128.9969,606.1719 Q129.2625,606.4063 129.2625,606.7813 Q129.2625,607.1719 128.9969,607.4063 Q128.7313,607.6406 128.1219,607.6406 L126.4031,607.6406 Z " fill="#000000"/><text fill="#000000" font-family="sans-serif" font-size="14" font-style="italic" lengthAdjust="spacing" textLength="78" x="142.55" y="616.7285">GamePlayer</text><line style="stroke:#181818;stroke-width:0.5;" x1="97.5" x2="236.5" y1="627" y2="627"/><line style="stroke:#181818;stroke-width:0.5;" x1="97.5" x2="236.5" y1="635" y2="635"/><ellipse cx="107.5" cy="646" fill="#84BE84" rx="3" ry="3" style="stroke:#038048;stroke-width:1.0;"/><text fill="#000000" font-family="sans-serif" font-size="14" lengthAdjust="spacing" textLength="115" x="116.5" y="653.5332">processResult(int)</text></g><!--MD5=[26178a7f5ccfc2a33ee17310fc2a0bb3]
class GamePlayersProvider--><g id="elem_GamePlayersProvider"><rect codeLine="15" fill="#F1F1F1" height="65.6094" id="GamePlayersProvider" rx="2.5" ry="2.5" style="stroke:#181818;stroke-width:0.5;" width="254" x="295" y="238"/><ellipse cx="349.25" cy="254" fill="#B4A7E5" rx="11" ry="11" style="stroke:#181818;stroke-width:1.0;"/><path d="M350.2031,250.6406 L350.2031,257.2969 L351.9219,257.2969 Q352.5313,257.2969 352.7969,257.5313 Q353.0625,257.7656 353.0625,258.1563 Q353.0625,258.5313 352.7969,258.7656 Q352.5313,259 351.9219,259 L346.7813,259 Q346.1719,259 345.9063,258.7656 Q345.6406,258.5313 345.6406,258.1406 Q345.6406,257.7656 345.9063,257.5313 Q346.1719,257.2969 346.7813,257.2969 L348.5,257.2969 L348.5,250.6406 L346.7813,250.6406 Q346.1719,250.6406 345.9063,250.4063 Q345.6406,250.1719 345.6406,249.7813 Q345.6406,249.4063 345.9063,249.1719 Q346.1719,248.9375 346.7813,248.9375 L351.9219,248.9375 Q352.5313,248.9375 352.7969,249.1719 Q353.0625,249.4063 353.0625,249.7813 Q353.0625,250.1719 352.7969,250.4063 Q352.5313,250.6406 351.9219,250.6406 L350.2031,250.6406 Z " fill="#000000"/><text fill="#000000" font-family="sans-serif" font-size="14" font-style="italic" lengthAdjust="spacing" textLength="137" x="369.75" y="259.7285">GamePlayersProvider</text><line style="stroke:#181818;stroke-width:0.5;" x1="296" x2="548" y1="270" y2="270"/><line style="stroke:#181818;stroke-width:0.5;" x1="296" x2="548" y1="278" y2="278"/><ellipse cx="306" cy="289" fill="#84BE84" rx="3" ry="3" style="stroke:#038048;stroke-width:1.0;"/><text fill="#000000" font-family="sans-serif" font-size="14" lengthAdjust="spacing" textLength="228" x="315" y="296.5332">getGamePlayers(int) : GamePlayer[]</text></g><!--MD5=[aa4a757cc4d4ceab84ee52e3878b5ec9]
reverse link TicTacToe to TurnTicTacToe--><g id="link_TicTacToe_TurnTicTacToe"><path codeLine="54" d="M422,548.56 C422,565.23 422,581.44 422,594.74 " fill="none" id="TicTacToe-backto-TurnTicTacToe" style="stroke:#181818;stroke-width:1.0;"/><polygon fill="#181818" points="422,535.13,418,541.13,422,547.13,426,541.13,422,535.13" style="stroke:#181818;stroke-width:1.0;"/></g><!--MD5=[b58472dbe3241849a7379b53160f62f1]
reverse link TurnTicTacToe to TicTacToePlayer--><g id="link_TurnTicTacToe_TicTacToePlayer"><path codeLine="55" d="M393.25,672.47 C382.71,688.41 370.98,706.14 361.22,720.91 " fill="none" id="TurnTicTacToe-backto-TicTacToePlayer" style="stroke:#181818;stroke-width:1.0;"/><polygon fill="#181818" points="400.67,661.26,394.0238,664.0578,394.0502,671.2689,400.6964,668.4711,400.67,661.26" style="stroke:#181818;stroke-width:1.0;"/></g><!--MD5=[6b9fd3da3a2e882bb2b197a7233b89f0]
reverse link TurnTicTacToe to Board--><g id="link_TurnTicTacToe_Board"><path codeLine="57" d="M425.55,674.39 C426.55,689.24 427.51,705.81 428,721 C429.34,762.16 428.6,807.51 427.25,846.84 " fill="none" id="TurnTicTacToe-backto-Board" style="stroke:#181818;stroke-width:1.0;"/><polygon fill="#181818" points="424.63,661.33,421.0618,667.5964,425.4737,673.3003,429.042,667.0339,424.63,661.33" style="stroke:#181818;stroke-width:1.0;"/></g><!--MD5=[22a058425986791f35aeea227c9e8036]
link TicTacToe to Dice--><g id="link_TicTacToe_Dice"><path codeLine="59" d="M270.2,449.5 C253.28,449.5 236.36,449.5 219.44,449.5 " fill="none" id="TicTacToe-to-Dice" style="stroke:#181818;stroke-width:1.0;stroke-dasharray:7.0,7.0;"/><polygon fill="#181818" points="214.19,449.5,223.19,453.5,219.19,449.5,223.19,445.5,214.19,449.5" style="stroke:#181818;stroke-width:1.0;"/></g><!--MD5=[3f6fc96ad8e0d96465f0b16b73398ffd]
reverse link GamePlayersProvider to TicTacToe--><g id="link_GamePlayersProvider_TicTacToe"><path codeLine="60" d="M422,309.63 C422,325.54 422,344.76 422,363.76 " fill="none" id="GamePlayersProvider-backto-TicTacToe" style="stroke:#181818;stroke-width:1.0;"/><polygon fill="#181818" points="422,304.37,418,313.37,422,309.37,426,313.37,422,304.37" style="stroke:#181818;stroke-width:1.0;"/></g><!--MD5=[ce735c1cdd387ffa44cb012fb47a3a5a]
reverse link Dice to GamePlayer--><g id="link_Dice_GamePlayer"><path codeLine="62" d="M128.37,487.85 C137.18,519.59 149.7,564.67 158.07,594.83 " fill="none" id="Dice-backto-GamePlayer" style="stroke:#181818;stroke-width:1.0;stroke-dasharray:7.0,7.0;"/><polygon fill="#181818" points="126.99,482.87,125.5552,492.6138,128.3334,487.6862,133.261,490.4644,126.99,482.87" style="stroke:#181818;stroke-width:1.0;"/></g><!--MD5=[46ba9c7d925c82f4e4391cfab8746e42]
link ListOfPlayers to GamePlayersProvider--><g id="link_ListOfPlayers_GamePlayersProvider"><path codeLine="63" d="M422,178.43 C422,191.5 422,205.01 422,217.52 " fill="none" id="ListOfPlayers-to-GamePlayersProvider" style="stroke:#181818;stroke-width:1.0;stroke-dasharray:7.0,7.0;"/><polygon fill="none" points="429,217.97,422,237.97,415,217.97,429,217.97" style="stroke:#181818;stroke-width:1.0;"/></g><!--MD5=[d143332e1b5ef7810ac3eee398b205df]
reverse link TicTacToe to GamePlayer--><g id="link_TicTacToe_GamePlayer"><path codeLine="65" d="M288.89,542.63 C261.7,561.45 234.85,580.04 213.3,594.95 " fill="none" id="TicTacToe-backto-GamePlayer" style="stroke:#181818;stroke-width:1.0;"/><polygon fill="#181818" points="299.73,535.13,292.52,535.2575,289.8646,541.9619,297.0746,541.8344,299.73,535.13" style="stroke:#181818;stroke-width:1.0;"/></g><!--MD5=[dc3de1633c5da7be729167f208fb43ee]
link TicTacToePlayer to Board--><g id="link_TicTacToePlayer_Board"><path codeLine="67" d="M353.54,787.04 C360.07,802.48 368.31,821.99 376.8,842.07 " fill="none" id="TicTacToePlayer-to-Board" style="stroke:#181818;stroke-width:1.0;"/><polygon fill="#181818" points="378.85,846.91,379.0331,837.0628,376.9046,842.304,371.6635,840.1755,378.85,846.91" style="stroke:#181818;stroke-width:1.0;"/></g><!--MD5=[f035fe94b578ef28dcd9ab9faba0353b]
link GamePlayer to TicTacToePlayer--><g id="link_GamePlayer_TicTacToePlayer"><path codeLine="69" d="M212,661.26 C232.43,675.89 256.89,693.43 278.94,709.24 " fill="none" id="GamePlayer-to-TicTacToePlayer" style="stroke:#181818;stroke-width:1.0;"/><polygon fill="none" points="283.05,703.56,295.22,720.91,274.89,714.94,283.05,703.56" style="stroke:#181818;stroke-width:1.0;"/></g><!--MD5=[fd85334d7274e9a8e6b89315d02d27d0]
@startuml ClassDiagramTictactoe-WithoutModel

package player {
    class ListOfPlayers {
        +createPlayer(Player player)
        +getPlayer(int id)
        +getList()
        +printList()
        +getGamePlayers(int size)
    }
}

interface GamePlayer {
    + processResult(int)
}
interface GamePlayersProvider {
    + getGamePlayers(int) : GamePlayer[]
}

package util {
    class Dice{
        +generateValue (int bound)
    }
}

package ttt {
    class TicTacToe {
        # GamePlayer[] gamePlayers
        # GamePlayersProvider gamePlayersProvider
        + Introduction()
        + Resume()
        + Execute()
        # AssignRoles (GamePlayer[] gamePlayers)
        # flipRoles (GamePlayer[] gamePlayers)
    }
    interface TicTacToePlayer {
        +putMark()
    }
    class TurnTicTacToe {
        +play()
    }
    class Board {
        +EmptySquare = 9
        +createBoard()
        +paintBoard()
        +isFull()
        +putPiece (Position position, Piece piece)
        +getWinner()
        -checkRows()
        -checkColumns()
        -checkDiagonals()
    }
}

TicTacToe *- - TurnTicTacToe
TurnTicTacToe *- - TicTacToePlayer

TurnTicTacToe *- - Board

TicTacToe ..> Dice
TicTacToe -up-> GamePlayersProvider

Dice <.. GamePlayer
ListOfPlayers ..|> GamePlayersProvider

TicTacToe *- - GamePlayer

TicTacToePlayer- ->Board

GamePlayer - -|>  TicTacToePlayer

@enduml

PlantUML version 1.2022.5(Sat Apr 30 04:55:52 CST 2022)
(GPL source distribution)
Java Runtime: Java(TM) SE Runtime Environment
JVM: Java HotSpot(TM) 64-Bit Server VM
Default Encoding: Cp1252
Language: en
Country: US
--></g></svg>