<?xml version="1.0" encoding="UTF-8" standalone="no"?><svg xmlns="http://www.w3.org/2000/svg" xmlns:xlink="http://www.w3.org/1999/xlink" contentStyleType="text/css" height="861px" preserveAspectRatio="none" style="width:988px;height:861px;background:#FFFFFF;" version="1.1" viewBox="0 0 988 861" width="988px" zoomAndPan="magnify"><defs/><g><!--MD5=[5580c82edcbc933de5e73591f0fcf26e]
cluster hangman--><g id="cluster_hangman"><path d="M423.41,6 L488.41,6 A3.75,3.75 0 0 1 490.91,8.5 L497.91,29.6094 L797.41,29.6094 A2.5,2.5 0 0 1 799.91,32.1094 L799.91,709.5 A2.5,2.5 0 0 1 797.41,712 L423.41,712 A2.5,2.5 0 0 1 420.91,709.5 L420.91,8.5 A2.5,2.5 0 0 1 423.41,6 " style="stroke:#000000;stroke-width:1.5;fill:none;"/><line style="stroke:#000000;stroke-width:1.5;fill:none;" x1="420.91" x2="497.91" y1="29.6094" y2="29.6094"/><text fill="#000000" font-family="sans-serif" font-size="14" font-weight="bold" lengthAdjust="spacing" textLength="64" x="424.91" y="22.5332">hangman</text></g><!--MD5=[42603eecb267091c13893a16d8c379fb]
cluster player--><g id="cluster_player"><path d="M201.41,363.5 L245.41,363.5 A3.75,3.75 0 0 1 247.91,366 L254.91,387.1094 L354.41,387.1094 A2.5,2.5 0 0 1 356.91,389.6094 L356.91,496 A2.5,2.5 0 0 1 354.41,498.5 L201.41,498.5 A2.5,2.5 0 0 1 198.91,496 L198.91,366 A2.5,2.5 0 0 1 201.41,363.5 " style="stroke:#000000;stroke-width:1.5;fill:none;"/><line style="stroke:#000000;stroke-width:1.5;fill:none;" x1="198.91" x2="254.91" y1="387.1094" y2="387.1094"/><text fill="#000000" font-family="sans-serif" font-size="14" font-weight="bold" lengthAdjust="spacing" textLength="43" x="202.91" y="380.0332">player</text></g><!--MD5=[c52f45833d539af9e29a9d34b8b7302b]
cluster utils--><g id="cluster_utils"><path d="M191.41,736 L222.41,736 A3.75,3.75 0 0 1 224.91,738.5 L231.91,759.6094 L406.41,759.6094 A2.5,2.5 0 0 1 408.91,762.1094 L408.91,851.5 A2.5,2.5 0 0 1 406.41,854 L191.41,854 A2.5,2.5 0 0 1 188.91,851.5 L188.91,738.5 A2.5,2.5 0 0 1 191.41,736 " style="stroke:#000000;stroke-width:1.5;fill:none;"/><line style="stroke:#000000;stroke-width:1.5;fill:none;" x1="188.91" x2="231.91" y1="759.6094" y2="759.6094"/><text fill="#000000" font-family="sans-serif" font-size="14" font-weight="bold" lengthAdjust="spacing" textLength="30" x="192.91" y="752.5332">utils</text></g><!--MD5=[d7731e51439e3250c63a8cdcafb59da5]
class HangMan--><g id="elem_HangMan"><rect codeLine="3" fill="#F1F1F1" height="136.0469" id="HangMan" rx="2.5" ry="2.5" style="stroke:#181818;stroke-width:0.5;" width="303" x="437.41" y="42"/><ellipse cx="554.66" cy="58" fill="#ADD1B2" rx="11" ry="11" style="stroke:#181818;stroke-width:1.0;"/><path d="M557.4256,53.875 Q557.5819,53.6563 557.7694,53.5469 Q557.9569,53.4375 558.1756,53.4375 Q558.5506,53.4375 558.785,53.7031 Q559.0194,53.9531 559.0194,54.5625 L559.0194,56.0156 Q559.0194,56.625 558.785,56.8906 Q558.5506,57.1563 558.1756,57.1563 Q557.8319,57.1563 557.6288,56.9531 Q557.4256,56.7656 557.3163,56.25 Q557.2694,55.8906 557.0819,55.7031 Q556.7538,55.3281 556.1444,55.1094 Q555.535,54.8906 554.91,54.8906 Q554.1444,54.8906 553.5038,55.2188 Q552.8788,55.5469 552.3788,56.2969 Q551.8944,57.0469 551.8944,58.0781 L551.8944,59.1719 Q551.8944,60.4063 552.785,61.2344 Q553.6756,62.0469 555.2694,62.0469 Q556.2069,62.0469 556.8631,61.7969 Q557.2538,61.6406 557.6756,61.2031 Q557.9413,60.9375 558.0819,60.8594 Q558.2381,60.7813 558.4413,60.7813 Q558.7694,60.7813 559.0194,61.0469 Q559.285,61.2969 559.285,61.6406 Q559.285,61.9844 558.9413,62.3906 Q558.4413,62.9688 557.6444,63.2969 Q556.5663,63.75 555.2694,63.75 Q553.7538,63.75 552.5506,63.125 Q551.5663,62.625 550.8788,61.5625 Q550.1913,60.4844 550.1913,59.2031 L550.1913,58.0469 Q550.1913,56.7188 550.8006,55.5781 Q551.4256,54.4219 552.5194,53.8125 Q553.6131,53.1875 554.8475,53.1875 Q555.5819,53.1875 556.2225,53.3594 Q556.8788,53.5156 557.4256,53.875 Z " fill="#000000"/><text fill="#000000" font-family="sans-serif" font-size="14" lengthAdjust="spacing" textLength="60" x="575.16" y="63.7285">HangMan</text><line style="stroke:#181818;stroke-width:0.5;" x1="438.41" x2="739.41" y1="74" y2="74"/><polygon fill="none" points="448.41,80,452.41,84,448.41,88,444.41,84" style="stroke:#B38D22;stroke-width:1.0;"/><text fill="#000000" font-family="sans-serif" font-size="14" lengthAdjust="spacing" textLength="172" x="457.41" y="92.5332">GamePlayer[] gamePlayers</text><polygon fill="none" points="448.41,97.6094,452.41,101.6094,448.41,105.6094,444.41,101.6094" style="stroke:#B38D22;stroke-width:1.0;"/><text fill="#000000" font-family="sans-serif" font-size="14" lengthAdjust="spacing" textLength="277" x="457.41" y="110.1426">GamePlayersProvider gamePlayersProvider</text><line style="stroke:#181818;stroke-width:0.5;" x1="438.41" x2="739.41" y1="117.2188" y2="117.2188"/><ellipse cx="448.41" cy="128.2188" fill="#84BE84" rx="3" ry="3" style="stroke:#038048;stroke-width:1.0;"/><text fill="#000000" font-family="sans-serif" font-size="14" lengthAdjust="spacing" textLength="60" x="457.41" y="135.752">Execute()</text><polygon fill="#FFFF44" points="448.41,140.8281,452.41,144.8281,448.41,148.8281,444.41,144.8281" style="stroke:#B38D22;stroke-width:1.0;"/><text fill="#000000" font-family="sans-serif" font-size="14" lengthAdjust="spacing" textLength="264" x="457.41" y="153.3613">AssignRoles (GamePlayer[] gamePlayers)</text><polygon fill="#FFFF44" points="448.41,158.4375,452.41,162.4375,448.41,166.4375,444.41,162.4375" style="stroke:#B38D22;stroke-width:1.0;"/><text fill="#000000" font-family="sans-serif" font-size="14" lengthAdjust="spacing" textLength="240" x="457.41" y="170.9707">flipRoles (GamePlayer[] gamePlayers)</text></g><!--MD5=[1e8c54f5ac0ec684c0f71587f512d7a6]
class SecretWord--><g id="elem_SecretWord"><rect codeLine="10" fill="#F1F1F1" height="118.4375" id="SecretWord" rx="2.5" ry="2.5" style="stroke:#181818;stroke-width:0.5;" width="220" x="436.91" y="578"/><ellipse cx="505.16" cy="594" fill="#ADD1B2" rx="11" ry="11" style="stroke:#181818;stroke-width:1.0;"/><path d="M507.9256,589.875 Q508.0819,589.6563 508.2694,589.5469 Q508.4569,589.4375 508.6756,589.4375 Q509.0506,589.4375 509.285,589.7031 Q509.5194,589.9531 509.5194,590.5625 L509.5194,592.0156 Q509.5194,592.625 509.285,592.8906 Q509.0506,593.1563 508.6756,593.1563 Q508.3319,593.1563 508.1287,592.9531 Q507.9256,592.7656 507.8162,592.25 Q507.7694,591.8906 507.5819,591.7031 Q507.2537,591.3281 506.6444,591.1094 Q506.035,590.8906 505.41,590.8906 Q504.6444,590.8906 504.0037,591.2188 Q503.3787,591.5469 502.8787,592.2969 Q502.3944,593.0469 502.3944,594.0781 L502.3944,595.1719 Q502.3944,596.4063 503.285,597.2344 Q504.1756,598.0469 505.7694,598.0469 Q506.7069,598.0469 507.3631,597.7969 Q507.7537,597.6406 508.1756,597.2031 Q508.4412,596.9375 508.5819,596.8594 Q508.7381,596.7813 508.9412,596.7813 Q509.2694,596.7813 509.5194,597.0469 Q509.785,597.2969 509.785,597.6406 Q509.785,597.9844 509.4412,598.3906 Q508.9412,598.9688 508.1444,599.2969 Q507.0662,599.75 505.7694,599.75 Q504.2537,599.75 503.0506,599.125 Q502.0662,598.625 501.3787,597.5625 Q500.6912,596.4844 500.6912,595.2031 L500.6912,594.0469 Q500.6912,592.7188 501.3006,591.5781 Q501.9256,590.4219 503.0194,589.8125 Q504.1131,589.1875 505.3475,589.1875 Q506.0819,589.1875 506.7225,589.3594 Q507.3787,589.5156 507.9256,589.875 Z " fill="#000000"/><text fill="#000000" font-family="sans-serif" font-size="14" lengthAdjust="spacing" textLength="75" x="525.66" y="599.7285">SecretWord</text><line style="stroke:#181818;stroke-width:0.5;" x1="437.91" x2="655.91" y1="610" y2="610"/><ellipse cx="447.91" cy="621" fill="none" rx="3" ry="3" style="stroke:#038048;stroke-width:1.0;"/><text fill="#000000" font-family="sans-serif" font-size="14" lengthAdjust="spacing" textLength="142" x="456.91" y="628.5332">Char GuesserWords []</text><ellipse cx="447.91" cy="638.6094" fill="none" rx="3" ry="3" style="stroke:#038048;stroke-width:1.0;"/><text fill="#000000" font-family="sans-serif" font-size="14" lengthAdjust="spacing" textLength="122" x="456.91" y="646.1426">Char SecretWord []</text><line style="stroke:#181818;stroke-width:0.5;" x1="437.91" x2="655.91" y1="653.2188" y2="653.2188"/><ellipse cx="447.91" cy="664.2188" fill="#84BE84" rx="3" ry="3" style="stroke:#038048;stroke-width:1.0;"/><text fill="#000000" font-family="sans-serif" font-size="14" lengthAdjust="spacing" textLength="194" x="456.91" y="671.752">boolean AddLetter(Char letter)</text><ellipse cx="447.91" cy="681.8281" fill="#84BE84" rx="3" ry="3" style="stroke:#038048;stroke-width:1.0;"/><text fill="#000000" font-family="sans-serif" font-size="14" lengthAdjust="spacing" textLength="136" x="456.91" y="689.3613">boolean isGuessed ()</text></g><!--MD5=[2912dfae6c367dee499f222350629706]
class TurnHangMan--><g id="elem_TurnHangMan"><rect codeLine="16" fill="#F1F1F1" height="65.6094" id="TurnHangMan" rx="2.5" ry="2.5" style="stroke:#181818;stroke-width:0.5;" width="122" x="527.91" y="238"/><ellipse cx="542.91" cy="254" fill="#ADD1B2" rx="11" ry="11" style="stroke:#181818;stroke-width:1.0;"/><path d="M545.6756,249.875 Q545.8319,249.6563 546.0194,249.5469 Q546.2069,249.4375 546.4256,249.4375 Q546.8006,249.4375 547.035,249.7031 Q547.2694,249.9531 547.2694,250.5625 L547.2694,252.0156 Q547.2694,252.625 547.035,252.8906 Q546.8006,253.1563 546.4256,253.1563 Q546.0819,253.1563 545.8788,252.9531 Q545.6756,252.7656 545.5663,252.25 Q545.5194,251.8906 545.3319,251.7031 Q545.0038,251.3281 544.3944,251.1094 Q543.785,250.8906 543.16,250.8906 Q542.3944,250.8906 541.7538,251.2188 Q541.1288,251.5469 540.6288,252.2969 Q540.1444,253.0469 540.1444,254.0781 L540.1444,255.1719 Q540.1444,256.4063 541.035,257.2344 Q541.9256,258.0469 543.5194,258.0469 Q544.4569,258.0469 545.1131,257.7969 Q545.5038,257.6406 545.9256,257.2031 Q546.1913,256.9375 546.3319,256.8594 Q546.4881,256.7813 546.6913,256.7813 Q547.0194,256.7813 547.2694,257.0469 Q547.535,257.2969 547.535,257.6406 Q547.535,257.9844 547.1913,258.3906 Q546.6913,258.9688 545.8944,259.2969 Q544.8163,259.75 543.5194,259.75 Q542.0038,259.75 540.8006,259.125 Q539.8163,258.625 539.1288,257.5625 Q538.4413,256.4844 538.4413,255.2031 L538.4413,254.0469 Q538.4413,252.7188 539.0506,251.5781 Q539.6756,250.4219 540.7694,249.8125 Q541.8631,249.1875 543.0975,249.1875 Q543.8319,249.1875 544.4725,249.3594 Q545.1288,249.5156 545.6756,249.875 Z " fill="#000000"/><text fill="#000000" font-family="sans-serif" font-size="14" lengthAdjust="spacing" textLength="90" x="556.91" y="259.7285">TurnHangMan</text><line style="stroke:#181818;stroke-width:0.5;" x1="528.91" x2="648.91" y1="270" y2="270"/><line style="stroke:#181818;stroke-width:0.5;" x1="528.91" x2="648.91" y1="278" y2="278"/><ellipse cx="538.91" cy="289" fill="#84BE84" rx="3" ry="3" style="stroke:#038048;stroke-width:1.0;"/><text fill="#000000" font-family="sans-serif" font-size="14" lengthAdjust="spacing" textLength="36" x="547.91" y="296.5332">play()</text></g><!--MD5=[2aa92d2e607ce5e0eb2e8fd93adcb836]
class HangedMan--><g id="elem_HangedMan"><rect codeLine="19" fill="#F1F1F1" height="153.6563" id="HangedMan" rx="2.5" ry="2.5" style="stroke:#181818;stroke-width:0.5;" width="178" x="436.91" y="364"/><ellipse cx="483.66" cy="380" fill="#ADD1B2" rx="11" ry="11" style="stroke:#181818;stroke-width:1.0;"/><path d="M486.4256,375.875 Q486.5819,375.6563 486.7694,375.5469 Q486.9569,375.4375 487.1756,375.4375 Q487.5506,375.4375 487.785,375.7031 Q488.0194,375.9531 488.0194,376.5625 L488.0194,378.0156 Q488.0194,378.625 487.785,378.8906 Q487.5506,379.1563 487.1756,379.1563 Q486.8319,379.1563 486.6287,378.9531 Q486.4256,378.7656 486.3162,378.25 Q486.2694,377.8906 486.0819,377.7031 Q485.7537,377.3281 485.1444,377.1094 Q484.535,376.8906 483.91,376.8906 Q483.1444,376.8906 482.5037,377.2188 Q481.8787,377.5469 481.3787,378.2969 Q480.8944,379.0469 480.8944,380.0781 L480.8944,381.1719 Q480.8944,382.4063 481.785,383.2344 Q482.6756,384.0469 484.2694,384.0469 Q485.2069,384.0469 485.8631,383.7969 Q486.2537,383.6406 486.6756,383.2031 Q486.9412,382.9375 487.0819,382.8594 Q487.2381,382.7813 487.4412,382.7813 Q487.7694,382.7813 488.0194,383.0469 Q488.285,383.2969 488.285,383.6406 Q488.285,383.9844 487.9412,384.3906 Q487.4412,384.9688 486.6444,385.2969 Q485.5662,385.75 484.2694,385.75 Q482.7537,385.75 481.5506,385.125 Q480.5662,384.625 479.8787,383.5625 Q479.1912,382.4844 479.1912,381.2031 L479.1912,380.0469 Q479.1912,378.7188 479.8006,377.5781 Q480.4256,376.4219 481.5194,375.8125 Q482.6131,375.1875 483.8475,375.1875 Q484.5819,375.1875 485.2225,375.3594 Q485.8787,375.5156 486.4256,375.875 Z " fill="#000000"/><text fill="#000000" font-family="sans-serif" font-size="14" lengthAdjust="spacing" textLength="76" x="504.16" y="385.7285">HangedMan</text><line style="stroke:#181818;stroke-width:0.5;" x1="437.91" x2="613.91" y1="396" y2="396"/><rect fill="none" height="6" style="stroke:#C82930;stroke-width:1.0;" width="6" x="444.91" y="404"/><text fill="#000000" font-family="sans-serif" font-size="14" lengthAdjust="spacing" textLength="94" x="456.91" y="414.5332">FailedAttempts</text><rect fill="none" height="6" style="stroke:#C82930;stroke-width:1.0;" width="6" x="444.91" y="421.6094"/><text fill="#000000" font-family="sans-serif" font-size="14" lengthAdjust="spacing" textLength="152" x="456.91" y="432.1426">SecretWord secretWord</text><line style="stroke:#181818;stroke-width:0.5;" x1="437.91" x2="613.91" y1="439.2188" y2="439.2188"/><ellipse cx="447.91" cy="450.2188" fill="#84BE84" rx="3" ry="3" style="stroke:#038048;stroke-width:1.0;"/><text fill="#000000" font-family="sans-serif" font-size="14" lengthAdjust="spacing" textLength="54" x="456.91" y="457.752">isDead()</text><ellipse cx="447.91" cy="467.8281" fill="#84BE84" rx="3" ry="3" style="stroke:#038048;stroke-width:1.0;"/><text fill="#000000" font-family="sans-serif" font-size="14" lengthAdjust="spacing" textLength="60" x="456.91" y="475.3613">isSaved()</text><rect fill="#F24D5C" height="6" style="stroke:#C82930;stroke-width:1.0;" width="6" x="444.91" y="482.4375"/><text fill="#000000" font-family="sans-serif" font-size="14" lengthAdjust="spacing" textLength="60" x="456.91" y="492.9707">addPart()</text><ellipse cx="447.91" cy="503.0469" fill="#84BE84" rx="3" ry="3" style="stroke:#038048;stroke-width:1.0;"/><text fill="#000000" font-family="sans-serif" font-size="14" lengthAdjust="spacing" textLength="63" x="456.91" y="510.5801">tryLetter()</text></g><!--MD5=[4fcb596d3bf48611d01498558103c6f0]
class HangManPlayer--><g id="elem_HangManPlayer"><rect codeLine="27" fill="#F1F1F1" height="83.2188" id="HangManPlayer" rx="2.5" ry="2.5" style="stroke:#181818;stroke-width:0.5;" width="134" x="649.91" y="399.5"/><ellipse cx="664.91" cy="415.5" fill="#B4A7E5" rx="11" ry="11" style="stroke:#181818;stroke-width:1.0;"/><path d="M665.8631,412.1406 L665.8631,418.7969 L667.5819,418.7969 Q668.1913,418.7969 668.4569,419.0313 Q668.7225,419.2656 668.7225,419.6563 Q668.7225,420.0313 668.4569,420.2656 Q668.1913,420.5 667.5819,420.5 L662.4413,420.5 Q661.8319,420.5 661.5663,420.2656 Q661.3006,420.0313 661.3006,419.6406 Q661.3006,419.2656 661.5663,419.0313 Q661.8319,418.7969 662.4413,418.7969 L664.16,418.7969 L664.16,412.1406 L662.4413,412.1406 Q661.8319,412.1406 661.5663,411.9063 Q661.3006,411.6719 661.3006,411.2813 Q661.3006,410.9063 661.5663,410.6719 Q661.8319,410.4375 662.4413,410.4375 L667.5819,410.4375 Q668.1913,410.4375 668.4569,410.6719 Q668.7225,410.9063 668.7225,411.2813 Q668.7225,411.6719 668.4569,411.9063 Q668.1913,412.1406 667.5819,412.1406 L665.8631,412.1406 Z " fill="#000000"/><text fill="#000000" font-family="sans-serif" font-size="14" font-style="italic" lengthAdjust="spacing" textLength="102" x="678.91" y="421.2285">HangManPlayer</text><line style="stroke:#181818;stroke-width:0.5;" x1="650.91" x2="782.91" y1="431.5" y2="431.5"/><line style="stroke:#181818;stroke-width:0.5;" x1="650.91" x2="782.91" y1="439.5" y2="439.5"/><ellipse cx="660.91" cy="450.5" fill="#84BE84" rx="3" ry="3" style="stroke:#038048;stroke-width:1.0;"/><text fill="#000000" font-family="sans-serif" font-size="14" lengthAdjust="spacing" textLength="93" x="669.91" y="458.0332">ChooseWord()</text><ellipse cx="660.91" cy="468.1094" fill="#84BE84" rx="3" ry="3" style="stroke:#038048;stroke-width:1.0;"/><text fill="#000000" font-family="sans-serif" font-size="14" lengthAdjust="spacing" textLength="76" x="669.91" y="475.6426">GiveLetter()</text></g><!--MD5=[82a37a108f28ded8fb022e1a5df25ae5]
class ListOfPlayers--><g id="elem_ListOfPlayers"><rect codeLine="34" fill="#F1F1F1" height="83.2188" id="ListOfPlayers" rx="2.5" ry="2.5" style="stroke:#181818;stroke-width:0.5;" width="126" x="214.91" y="399.5"/><ellipse cx="234.41" cy="415.5" fill="#ADD1B2" rx="11" ry="11" style="stroke:#181818;stroke-width:1.0;"/><path d="M237.1756,411.375 Q237.3319,411.1563 237.5194,411.0469 Q237.7069,410.9375 237.9256,410.9375 Q238.3006,410.9375 238.535,411.2031 Q238.7694,411.4531 238.7694,412.0625 L238.7694,413.5156 Q238.7694,414.125 238.535,414.3906 Q238.3006,414.6563 237.9256,414.6563 Q237.5819,414.6563 237.3788,414.4531 Q237.1756,414.2656 237.0663,413.75 Q237.0194,413.3906 236.8319,413.2031 Q236.5038,412.8281 235.8944,412.6094 Q235.285,412.3906 234.66,412.3906 Q233.8944,412.3906 233.2538,412.7188 Q232.6288,413.0469 232.1288,413.7969 Q231.6444,414.5469 231.6444,415.5781 L231.6444,416.6719 Q231.6444,417.9063 232.535,418.7344 Q233.4256,419.5469 235.0194,419.5469 Q235.9569,419.5469 236.6131,419.2969 Q237.0038,419.1406 237.4256,418.7031 Q237.6913,418.4375 237.8319,418.3594 Q237.9881,418.2813 238.1913,418.2813 Q238.5194,418.2813 238.7694,418.5469 Q239.035,418.7969 239.035,419.1406 Q239.035,419.4844 238.6913,419.8906 Q238.1913,420.4688 237.3944,420.7969 Q236.3163,421.25 235.0194,421.25 Q233.5038,421.25 232.3006,420.625 Q231.3163,420.125 230.6288,419.0625 Q229.9413,417.9844 229.9413,416.7031 L229.9413,415.5469 Q229.9413,414.2188 230.5506,413.0781 Q231.1756,411.9219 232.2694,411.3125 Q233.3631,410.6875 234.5975,410.6875 Q235.3319,410.6875 235.9725,410.8594 Q236.6288,411.0156 237.1756,411.375 Z " fill="#000000"/><text fill="#000000" font-family="sans-serif" font-size="14" lengthAdjust="spacing" textLength="84" x="249.41" y="421.2285">ListOfPlayers</text><line style="stroke:#181818;stroke-width:0.5;" x1="215.91" x2="339.91" y1="431.5" y2="431.5"/><line style="stroke:#181818;stroke-width:0.5;" x1="215.91" x2="339.91" y1="439.5" y2="439.5"/><ellipse cx="225.91" cy="450.5" fill="#84BE84" rx="3" ry="3" style="stroke:#038048;stroke-width:1.0;"/><text fill="#000000" font-family="sans-serif" font-size="14" lengthAdjust="spacing" textLength="100" x="234.91" y="458.0332">getPlayer(int id)</text><ellipse cx="225.91" cy="468.1094" fill="#84BE84" rx="3" ry="3" style="stroke:#038048;stroke-width:1.0;"/><text fill="#000000" font-family="sans-serif" font-size="14" lengthAdjust="spacing" textLength="52" x="234.91" y="475.6426">getList()</text></g><!--MD5=[f7a9ae25cb0ac60c5f03b7bfd778cce3]
class Dice--><g id="elem_Dice"><rect codeLine="49" fill="#F1F1F1" height="65.6094" id="Dice" rx="2.5" ry="2.5" style="stroke:#181818;stroke-width:0.5;" width="188" x="204.91" y="772"/><ellipse cx="280.66" cy="788" fill="#ADD1B2" rx="11" ry="11" style="stroke:#181818;stroke-width:1.0;"/><path d="M283.4256,783.875 Q283.5819,783.6563 283.7694,783.5469 Q283.9569,783.4375 284.1756,783.4375 Q284.5506,783.4375 284.785,783.7031 Q285.0194,783.9531 285.0194,784.5625 L285.0194,786.0156 Q285.0194,786.625 284.785,786.8906 Q284.5506,787.1563 284.1756,787.1563 Q283.8319,787.1563 283.6287,786.9531 Q283.4256,786.7656 283.3162,786.25 Q283.2694,785.8906 283.0819,785.7031 Q282.7537,785.3281 282.1444,785.1094 Q281.535,784.8906 280.91,784.8906 Q280.1444,784.8906 279.5037,785.2188 Q278.8787,785.5469 278.3787,786.2969 Q277.8944,787.0469 277.8944,788.0781 L277.8944,789.1719 Q277.8944,790.4063 278.785,791.2344 Q279.6756,792.0469 281.2694,792.0469 Q282.2069,792.0469 282.8631,791.7969 Q283.2537,791.6406 283.6756,791.2031 Q283.9412,790.9375 284.0819,790.8594 Q284.2381,790.7813 284.4412,790.7813 Q284.7694,790.7813 285.0194,791.0469 Q285.285,791.2969 285.285,791.6406 Q285.285,791.9844 284.9412,792.3906 Q284.4412,792.9688 283.6444,793.2969 Q282.5662,793.75 281.2694,793.75 Q279.7537,793.75 278.5506,793.125 Q277.5662,792.625 276.8787,791.5625 Q276.1912,790.4844 276.1912,789.2031 L276.1912,788.0469 Q276.1912,786.7188 276.8006,785.5781 Q277.4256,784.4219 278.5194,783.8125 Q279.6131,783.1875 280.8475,783.1875 Q281.5819,783.1875 282.2225,783.3594 Q282.8787,783.5156 283.4256,783.875 Z " fill="#000000"/><text fill="#000000" font-family="sans-serif" font-size="14" lengthAdjust="spacing" textLength="28" x="301.16" y="793.7285">Dice</text><line style="stroke:#181818;stroke-width:0.5;" x1="205.91" x2="391.91" y1="804" y2="804"/><line style="stroke:#181818;stroke-width:0.5;" x1="205.91" x2="391.91" y1="812" y2="812"/><ellipse cx="215.91" cy="823" fill="#84BE84" rx="3" ry="3" style="stroke:#038048;stroke-width:1.0;"/><text fill="#000000" font-family="sans-serif" font-size="14" lengthAdjust="spacing" textLength="162" x="224.91" y="830.5332">generateValue(int bound)</text></g><!--MD5=[26178a7f5ccfc2a33ee17310fc2a0bb3]
class GamePlayersProvider--><g id="elem_GamePlayersProvider"><rect codeLine="40" fill="#F1F1F1" height="65.6094" id="GamePlayersProvider" rx="2.5" ry="2.5" style="stroke:#181818;stroke-width:0.5;" width="254" x="150.91" y="238"/><ellipse cx="205.16" cy="254" fill="#B4A7E5" rx="11" ry="11" style="stroke:#181818;stroke-width:1.0;"/><path d="M206.1131,250.6406 L206.1131,257.2969 L207.8319,257.2969 Q208.4413,257.2969 208.7069,257.5313 Q208.9725,257.7656 208.9725,258.1563 Q208.9725,258.5313 208.7069,258.7656 Q208.4413,259 207.8319,259 L202.6913,259 Q202.0819,259 201.8163,258.7656 Q201.5506,258.5313 201.5506,258.1406 Q201.5506,257.7656 201.8163,257.5313 Q202.0819,257.2969 202.6913,257.2969 L204.41,257.2969 L204.41,250.6406 L202.6913,250.6406 Q202.0819,250.6406 201.8163,250.4063 Q201.5506,250.1719 201.5506,249.7813 Q201.5506,249.4063 201.8163,249.1719 Q202.0819,248.9375 202.6913,248.9375 L207.8319,248.9375 Q208.4413,248.9375 208.7069,249.1719 Q208.9725,249.4063 208.9725,249.7813 Q208.9725,250.1719 208.7069,250.4063 Q208.4413,250.6406 207.8319,250.6406 L206.1131,250.6406 Z " fill="#000000"/><text fill="#000000" font-family="sans-serif" font-size="14" font-style="italic" lengthAdjust="spacing" textLength="137" x="225.66" y="259.7285">GamePlayersProvider</text><line style="stroke:#181818;stroke-width:0.5;" x1="151.91" x2="403.91" y1="270" y2="270"/><line style="stroke:#181818;stroke-width:0.5;" x1="151.91" x2="403.91" y1="278" y2="278"/><ellipse cx="161.91" cy="289" fill="#84BE84" rx="3" ry="3" style="stroke:#038048;stroke-width:1.0;"/><text fill="#000000" font-family="sans-serif" font-size="14" lengthAdjust="spacing" textLength="228" x="170.91" y="296.5332">getGamePlayers(int) : GamePlayer[]</text></g><!--MD5=[b0359cb538a0ce2cb72f54394993c3c4]
class GamePlayer--><g id="elem_GamePlayer"><rect codeLine="44" fill="#F1F1F1" height="65.6094" id="GamePlayer" rx="2.5" ry="2.5" style="stroke:#181818;stroke-width:0.5;" width="166" x="815.91" y="604"/><ellipse cx="856.11" cy="620" fill="#B4A7E5" rx="11" ry="11" style="stroke:#181818;stroke-width:1.0;"/><path d="M857.0631,616.6406 L857.0631,623.2969 L858.7819,623.2969 Q859.3913,623.2969 859.6569,623.5313 Q859.9225,623.7656 859.9225,624.1563 Q859.9225,624.5313 859.6569,624.7656 Q859.3913,625 858.7819,625 L853.6413,625 Q853.0319,625 852.7663,624.7656 Q852.5006,624.5313 852.5006,624.1406 Q852.5006,623.7656 852.7663,623.5313 Q853.0319,623.2969 853.6413,623.2969 L855.36,623.2969 L855.36,616.6406 L853.6413,616.6406 Q853.0319,616.6406 852.7663,616.4063 Q852.5006,616.1719 852.5006,615.7813 Q852.5006,615.4063 852.7663,615.1719 Q853.0319,614.9375 853.6413,614.9375 L858.7819,614.9375 Q859.3913,614.9375 859.6569,615.1719 Q859.9225,615.4063 859.9225,615.7813 Q859.9225,616.1719 859.6569,616.4063 Q859.3913,616.6406 858.7819,616.6406 L857.0631,616.6406 Z " fill="#000000"/><text fill="#000000" font-family="sans-serif" font-size="14" font-style="italic" lengthAdjust="spacing" textLength="78" x="875.71" y="625.7285">GamePlayer</text><line style="stroke:#181818;stroke-width:0.5;" x1="816.91" x2="980.91" y1="636" y2="636"/><line style="stroke:#181818;stroke-width:0.5;" x1="816.91" x2="980.91" y1="644" y2="644"/><ellipse cx="826.91" cy="655" fill="#84BE84" rx="3" ry="3" style="stroke:#038048;stroke-width:1.0;"/><text fill="#000000" font-family="sans-serif" font-size="14" lengthAdjust="spacing" textLength="140" x="835.91" y="662.5332">processResult(Result)</text></g><!--MD5=[a61959765ad47111e4afbaee12b70ba7]
reverse link HangMan to TurnHangMan--><g id="link_HangMan_TurnHangMan"><path codeLine="54" d="M588.91,191.59 C588.91,208.06 588.91,224.46 588.91,237.97 " fill="none" id="HangMan-backto-TurnHangMan" style="stroke:#181818;stroke-width:1.0;"/><polygon fill="#181818" points="588.91,178.43,584.91,184.43,588.91,190.43,592.91,184.43,588.91,178.43" style="stroke:#181818;stroke-width:1.0;"/></g><!--MD5=[c4e030e587640a9fdc6d69571abfa929]
link HangMan to GamePlayersProvider--><g id="link_HangMan_GamePlayersProvider"><path codeLine="55" d="M457.47,178.2 C418.91,197.91 378.34,218.66 345.53,235.43 " fill="none" id="HangMan-to-GamePlayersProvider" style="stroke:#181818;stroke-width:1.0;"/><polygon fill="#181818" points="340.75,237.87,350.585,237.3474,345.2049,235.5997,346.9526,230.2196,340.75,237.87" style="stroke:#181818;stroke-width:1.0;"/></g><!--MD5=[b3cc77556441157c79a206bc8981c29d]
link HangMan to Dice--><g id="link_HangMan_Dice"><path codeLine="56" d="M437.14,133.35 C319.67,154.12 170.94,189.21 133.91,238 C6,406.5 192.17,671.84 268.65,767.83 " fill="none" id="HangMan-to-Dice" style="stroke:#181818;stroke-width:1.0;stroke-dasharray:7.0,7.0;"/><polygon fill="#181818" points="271.99,772,269.4785,762.4768,268.8613,768.0998,263.2382,767.4827,271.99,772" style="stroke:#181818;stroke-width:1.0;"/></g><!--MD5=[47f49f40f3b57ce419e0e3b224a34786]
reverse link HangMan to GamePlayer--><g id="link_HangMan_GamePlayer"><path codeLine="57" d="M669.4,187.58 C713.41,233 766.09,293.64 801.91,355.5 C850.06,438.67 879.53,549.53 891.99,603.59 " fill="none" id="HangMan-backto-GamePlayer" style="stroke:#181818;stroke-width:1.0;"/><polygon fill="#181818" points="660.15,178.13,661.4872,185.216,668.5424,186.7071,667.2053,179.6211,660.15,178.13" style="stroke:#181818;stroke-width:1.0;"/></g><!--MD5=[294151ecc46a1a90d54386dc965328a8]
reverse link TurnHangMan to HangedMan--><g id="link_TurnHangMan_HangedMan"><path codeLine="59" d="M572.19,316.57 C566.74,331.1 560.53,347.66 554.47,363.83 " fill="none" id="TurnHangMan-backto-HangedMan" style="stroke:#181818;stroke-width:1.0;"/><polygon fill="#181818" points="576.76,304.39,570.9101,308.6065,572.5523,315.6281,578.4022,311.4116,576.76,304.39" style="stroke:#181818;stroke-width:1.0;"/></g><!--MD5=[aedc3007e0dfa3682ba47cf8e074d29b]
reverse link TurnHangMan to HangManPlayer--><g id="link_TurnHangMan_HangManPlayer"><path codeLine="60" d="M621.71,315.05 C641.49,341.01 666.53,373.88 685.96,399.39 " fill="none" id="TurnHangMan-backto-HangManPlayer" style="stroke:#181818;stroke-width:1.0;"/><polygon fill="#181818" points="613.59,304.39,614.0454,311.5867,620.8637,313.9343,620.4083,306.7376,613.59,304.39" style="stroke:#181818;stroke-width:1.0;"/></g><!--MD5=[a0844d7426c666f4502798fc813803d2]
reverse link HangedMan to SecretWord--><g id="link_HangedMan_SecretWord"><path codeLine="62" d="M535.57,531.28 C537.28,547.08 539.02,563.15 540.61,577.8 " fill="none" id="HangedMan-backto-SecretWord" style="stroke:#181818;stroke-width:1.0;"/><polygon fill="#181818" points="534.15,518.12,530.8192,524.5158,535.4419,530.0503,538.7727,523.6545,534.15,518.12" style="stroke:#181818;stroke-width:1.0;"/></g><!--MD5=[a7d93f4931b1a4bb63227530d472e629]
reverse link HangedMan to HangManPlayer--><g id="link_HangedMan_HangManPlayer"><path codeLine="64" d="M620.2,441 C630.03,441 639.85,441 649.68,441 " fill="none" id="HangedMan-backto-HangManPlayer" style="stroke:#181818;stroke-width:1.0;"/><polygon fill="#181818" points="615.07,441,624.07,445,620.07,441,624.07,437,615.07,441" style="stroke:#181818;stroke-width:1.0;"/></g><!--MD5=[f5e12c2aac55c7819c2c58c59f3ffef3]
reverse link HangManPlayer to GamePlayer--><g id="link_HangManPlayer_GamePlayer"><path codeLine="65" d="M768.79,497.31 C801.08,531.72 841.48,574.79 868.63,603.72 " fill="none" id="HangManPlayer-backto-GamePlayer" style="stroke:#181818;stroke-width:1.0;"/><polygon fill="none" points="763.64,502.04,755.06,482.67,773.85,492.47,763.64,502.04" style="stroke:#181818;stroke-width:1.0;"/></g><!--MD5=[5c4510609ede1ca032148b37bb45abc4]
reverse link GamePlayersProvider to ListOfPlayers--><g id="link_GamePlayersProvider_ListOfPlayers"><path codeLine="67" d="M277.91,324.72 C277.91,348.83 277.91,376.95 277.91,399.39 " fill="none" id="GamePlayersProvider-backto-ListOfPlayers" style="stroke:#181818;stroke-width:1.0;stroke-dasharray:7.0,7.0;"/><polygon fill="none" points="270.91,324.39,277.91,304.39,284.91,324.39,270.91,324.39" style="stroke:#181818;stroke-width:1.0;"/></g><!--MD5=[28cd73cf825d5138d04f5bfbd597bbcf]
link GamePlayer to Dice--><g id="link_GamePlayer_Dice"><path codeLine="68" d="M868.89,670.09 C850.64,687.62 825.89,708.12 799.91,720 C669.57,779.61 502.82,797.39 398.41,802.42 " fill="none" id="GamePlayer-to-Dice" style="stroke:#181818;stroke-width:1.0;stroke-dasharray:7.0,7.0;"/><polygon fill="#181818" points="393.18,802.67,402.364,806.2274,398.1741,802.4267,401.9747,798.2369,393.18,802.67" style="stroke:#181818;stroke-width:1.0;"/></g><!--MD5=[9886d13e7833af4bcd139fe79657ae5b]
@startuml ClassDiagramHangMan-WithoutModelandViews

package hangman {
    class HangMan {
        # GamePlayer[] gamePlayers
        # GamePlayersProvider gamePlayersProvider
        + Execute()
        # AssignRoles (GamePlayer[] gamePlayers)
        # flipRoles (GamePlayer[] gamePlayers)
    }
    class SecretWord {
        +Char GuesserWords []
        +Char SecretWord []
        +boolean AddLetter(Char letter)
        +boolean isGuessed ()
    }
    class TurnHangMan {
        +play()
    }
    class HangedMan {
        -FailedAttempts
        -SecretWord secretWord
        +isDead()
        +isSaved()
        -addPart()
        +tryLetter()
    }
    interface HangManPlayer {
        +ChooseWord()
        +GiveLetter()
    }
}

package player {
    class ListOfPlayers {
        +getPlayer(int id)
        +getList()
    }
}

interface GamePlayersProvider {
    + getGamePlayers(int) : GamePlayer[]
}

interface GamePlayer {
    + processResult(Result)
}

package utils {
    class Dice {
        +generateValue(int bound)
    }
}

HangMan *- -TurnHangMan
HangMan - -> GamePlayersProvider
HangMan .right.> Dice
HangMan *- - GamePlayer

TurnHangMan *- - HangedMan
TurnHangMan *- - HangManPlayer

HangedMan *- - SecretWord

HangManPlayer -left-> HangedMan
HangManPlayer <|- - GamePlayer

ListOfPlayers .up.|> GamePlayersProvider
GamePlayer ..>Dice

@enduml

PlantUML version 1.2022.5(Sat Apr 30 04:55:52 CST 2022)
(GPL source distribution)
Java Runtime: Java(TM) SE Runtime Environment
JVM: Java HotSpot(TM) 64-Bit Server VM
Default Encoding: Cp1252
Language: en
Country: US
--></g></svg>